<svg xmlns="http://www.w3.org/2000/svg" viewBox="0 0 621 734"><path d="M222.13,356.93,219.6,356l-.2-2.09,1.29-1.36,1.61-8.36,8.27-19.73,5-4.9L246,314.45l1.33-2.41-.12-2.09-7.31-22.54-35.28-56.82h0l1.44-1h0l35.56,56.82,7.52,24.31-1.61,5.1-12,5.62-3.74,4.18-8.44,20.54-1.25,10.81Zm181-323.51,6.35,1.25,5,4.94,4.33-1.77L414.89,26l12.73,3.9,23,23.3,3.94,15.23L457,67.05h0l5.66,10.09,8.6,7.55.12,2H483l1.32.93L491.84,89l5.58,2.73,12.46,8.6,3.73,5.23,6.47,5.54,3.82,2.41,2.29.12,12.26,11.66,2.29,3.57,4.5,11.62,6.43,22.22,4.46,2.29,2.17,3.77v3.66l1.28-.12,2.09,1.69L564.4,180l.12,3.66-1.64,2.73-2,.32-3.62,4.3-5.91,4.1-7.19,8.16.24,3.58,1.53,1.76,2.73.33.08-1.45,8.48,3.33,4.38.33,6.15,2.08,10.12,8.89L588.19,225l7.56,7.51,1.6,2.61.12,1.57-3.29,3.86L579.87,250l-21,4.58-1,2.29-14.62,8.24-9.41,1.17-3.17-3.46-5.1-2-37.45,8.24-3.3,1.36-1.72,2.82-37.7-.12-.24,27.56,15-.2,5.87,1,27.08,28.9,2,5.94,5,28.69h0l-4.38,19.49-3.94,5.75-1.64,10-4,11.05.08,2L485,414.63l-4.46-1.45-1.76.84-8.88,17-.21,1.17,3.62,5.3-7,10.21-1.33,4-12.37,12.18-5,3L434,479.4l-2.29.64-.76,1.45-9.93,8-1.64-.12L417,487.19l-1.33.33-.36,1.44,1.08,2-3.25,2.61-1.53,2.61L407,499.49l-7,2.81-5.34,5.19-6,1.76-5.91-.12L365.42,524l-3.05-3.21-2.29-.73-15.75,7.48L340,531.07l-2.94-3.61-2.17-.32-9.2,2-1.6,1.57-7.44,11.53-21.05,65.06-4.26,11.61L289,622.21l-70.64,20.21L209,646h0l-12.33-10.56-32.31-32h0L149,588.37,130.32,576l-39.1-9.85L47,573.75l-4.34-2.5L38,565.43h0l.89-.85-1.09-2,4.34-3.94-5.67-5.39-1.64-.12-.69.85-.52-.93,2-2.17.68-2.81L35.21,528l-6.55-12.46.12-6.15,21.74-13.09,3.25-7.48,28.85-17,7.52-.2L93.07,470l2-1.37,3.9-6.87,12.86-7.92L193.93,396l6.43-.92,3.93-2.29,24.6-22.1,1.2-4L228,363.15l-.36-4.9-1.65.93-2.29-.13.56-5.54,2.42-.64.56,1.56.76-1.68,2.93-.85,3-2.69,5.66-13.14,4.14-5.42,19.33-1.17,2.69-1.16,21.54-20.58.68-1-2.61-2.82,2.21-2.21,2.29,2.09-1,.73.76.64,18-18.48,42.55-12.34,6-5.34h1.85l6.31-6.27-20.09-32.39L332.92,222l-.25-.92,2.34-.84-3-3.86-4,.72,1.09-107.32,42.47-69.12,3.94-2.41,25.11-3.13,1.85-.32.64-1.33Z" style="fill:#e5e5e5"/><path d="M77.64,485.86l2.41,7.88H79l-.64-2.13H75.3l-.63,2.13h-1l2.48-7.88Zm.5,4.95L76.9,486.6h-.11l-1.25,4.21Z" style="fill:#4d4d4d"/><path d="M82.39,485.35v8.39h-.91v-8.32Z" style="fill:#4d4d4d"/><path d="M91.7,493.74V489.9a1.48,1.48,0,0,0-.08-.53,1,1,0,0,0-.24-.39.91.91,0,0,0-.4-.25,1.35,1.35,0,0,0-.55-.1l-.37,0-.33.06a1.81,1.81,0,0,0-.31.09,3.06,3.06,0,0,0-.38.14v4.8h-.92v-3.87a1.7,1.7,0,0,0-.07-.53.83.83,0,0,0-.22-.39,1.07,1.07,0,0,0-.4-.24,1.93,1.93,0,0,0-.58-.08l-.39,0-.33.05-.31.09-.36.15v4.8h-.91V487.9l.88-.07v.4l.4-.21a2.72,2.72,0,0,1,.37-.13l.38-.07a2.9,2.9,0,0,1,.43,0,4.22,4.22,0,0,1,.52,0A1.84,1.84,0,0,1,88,488a1.43,1.43,0,0,1,.37.19,1.25,1.25,0,0,1,.3.26,5.68,5.68,0,0,1,.5-.29l.46-.18.47-.1a3.77,3.77,0,0,1,.51,0,2.6,2.6,0,0,1,.87.14,1.63,1.63,0,0,1,.64.38,1.66,1.66,0,0,1,.38.63,2.45,2.45,0,0,1,.13.85v3.95Z" style="fill:#4d4d4d"/><path d="M94.33,490.81a4.06,4.06,0,0,1,.19-1.31,2.46,2.46,0,0,1,.52-1,2.13,2.13,0,0,1,.79-.58,2.22,2.22,0,0,1,1-.2,2.79,2.79,0,0,1,1,.15,1.84,1.84,0,0,1,.7.45,2,2,0,0,1,.44.74,3.11,3.11,0,0,1,.15,1v.55c0,.06,0,.12,0,.17H95.24a3,3,0,0,0,.14,1,1.66,1.66,0,0,0,.39.66,1.49,1.49,0,0,0,.6.39,2.06,2.06,0,0,0,.76.13,3.64,3.64,0,0,0,.48,0,3.25,3.25,0,0,0,.45-.06,3.45,3.45,0,0,0,.43-.12,3.89,3.89,0,0,0,.44-.16v.82l-.46.18-.44.11a3.54,3.54,0,0,1-.47.07,4.39,4.39,0,0,1-.54,0,3.27,3.27,0,0,1-1.11-.18,2.24,2.24,0,0,1-1.39-1.48A4.17,4.17,0,0,1,94.33,490.81Zm1-.71H98a2.4,2.4,0,0,0-.09-.69,1.26,1.26,0,0,0-.25-.49,1,1,0,0,0-.41-.3,1.64,1.64,0,0,0-.56-.09,1.27,1.27,0,0,0-.52.1,1.46,1.46,0,0,0-.43.32,1.5,1.5,0,0,0-.33.5A2.47,2.47,0,0,0,95.28,490.1Z" style="fill:#4d4d4d"/><path d="M103.57,487.88l-.11.9-.18,0-.16,0-.16,0h-.17a1.26,1.26,0,0,0-.28,0,1,1,0,0,0-.27.11,1.86,1.86,0,0,0-.28.18c-.09.08-.2.17-.31.28v4.45h-.91V487.9l.9-.07v.69a3.4,3.4,0,0,1,.32-.33,1.9,1.9,0,0,1,.31-.23,1.25,1.25,0,0,1,.3-.12,1.18,1.18,0,0,1,.31,0h.35l.16,0Z" style="fill:#4d4d4d"/><path d="M104.59,490.81a4.06,4.06,0,0,1,.19-1.31,2.46,2.46,0,0,1,.52-1,2.13,2.13,0,0,1,.79-.58,2.22,2.22,0,0,1,1-.2,2.79,2.79,0,0,1,.95.15,1.84,1.84,0,0,1,.7.45,2,2,0,0,1,.44.74,3.11,3.11,0,0,1,.15,1v.55c0,.06,0,.12,0,.17H105.5a3,3,0,0,0,.14,1,1.66,1.66,0,0,0,.39.66,1.49,1.49,0,0,0,.6.39,2.06,2.06,0,0,0,.76.13,3.64,3.64,0,0,0,.48,0,3.25,3.25,0,0,0,.45-.06,3.45,3.45,0,0,0,.43-.12,3.89,3.89,0,0,0,.44-.16v.82l-.46.18-.44.11a3.54,3.54,0,0,1-.47.07,4.39,4.39,0,0,1-.54,0,3.27,3.27,0,0,1-1.11-.18,2.24,2.24,0,0,1-1.39-1.48A4.17,4.17,0,0,1,104.59,490.81Zm1-.71h2.76a2.4,2.4,0,0,0-.09-.69,1.26,1.26,0,0,0-.25-.49,1,1,0,0,0-.41-.3,1.64,1.64,0,0,0-.56-.09,1.27,1.27,0,0,0-.52.1,1.46,1.46,0,0,0-.43.32,1.37,1.37,0,0,0-.33.5A2.47,2.47,0,0,0,105.54,490.1Z" style="fill:#4d4d4d"/><path d="M110.85,490.72v-.84H114v.84Z" style="fill:#4d4d4d"/><path d="M118.41,493.74h-2.2v-7.88h2a4.44,4.44,0,0,1,1.16.14,2.22,2.22,0,0,1,.83.4,1.46,1.46,0,0,1,.5.61,1.92,1.92,0,0,1,.16.81,2.35,2.35,0,0,1-.07.62,1.4,1.4,0,0,1-.21.5,1.45,1.45,0,0,1-.34.36,2.12,2.12,0,0,1-.47.26v0a2.17,2.17,0,0,1,.62.24,1.84,1.84,0,0,1,.44.39,1.66,1.66,0,0,1,.27.53,2.15,2.15,0,0,1,.09.64,2.55,2.55,0,0,1-.18,1,2,2,0,0,1-.53.74,2.53,2.53,0,0,1-.88.46A4,4,0,0,1,118.41,493.74Zm-.25-7.07h-1v2.61h1a3.1,3.1,0,0,0,.79-.08,1.5,1.5,0,0,0,.54-.25,1,1,0,0,0,.31-.43,1.66,1.66,0,0,0,.1-.61,1.25,1.25,0,0,0-.1-.53.92.92,0,0,0-.31-.39,1.69,1.69,0,0,0-.54-.24A3.63,3.63,0,0,0,118.16,486.67Zm0,3.42h-1v2.84h1.24a3.12,3.12,0,0,0,.79-.09,1.61,1.61,0,0,0,.57-.29,1.23,1.23,0,0,0,.36-.46,1.56,1.56,0,0,0,.11-.62,1.57,1.57,0,0,0-.1-.6,1.06,1.06,0,0,0-.36-.43,1.71,1.71,0,0,0-.64-.26A4.61,4.61,0,0,0,118.14,490.09Z" style="fill:#4d4d4d"/><path d="M124,487.83v3.89a1.8,1.8,0,0,0,.08.54,1,1,0,0,0,.25.39,1.09,1.09,0,0,0,.4.25,1.82,1.82,0,0,0,.55.08l.39,0,.32,0,.3-.09.37-.14V487.9l.91-.07v5.91h-.88v-.37a2.58,2.58,0,0,1-.74.33,2.46,2.46,0,0,1-.39.09,3,3,0,0,1-.43,0,2.69,2.69,0,0,1-.89-.13,1.55,1.55,0,0,1-.63-.38,1.68,1.68,0,0,1-.39-.63,2.55,2.55,0,0,1-.13-.86V487.9Z" style="fill:#4d4d4d"/><path d="M129.57,486a.7.7,0,0,1,.05-.25.33.33,0,0,1,.11-.18.76.76,0,0,1,.19-.12.74.74,0,0,1,.48,0,.57.57,0,0,1,.18.12.41.41,0,0,1,.12.18.87.87,0,0,1,0,.25,1,1,0,0,1,0,.24.57.57,0,0,1-.12.18.78.78,0,0,1-.18.11.74.74,0,0,1-.48,0,1.18,1.18,0,0,1-.19-.11.42.42,0,0,1-.11-.18A.69.69,0,0,1,129.57,486Zm1.05,1.88v5.91h-.91V487.9Z" style="fill:#4d4d4d"/><path d="M132.25,488.6v-.73H133v-1l.91-.14v1.17h1.53v.73h-1.53v3.32a1.43,1.43,0,0,0,.07.48.75.75,0,0,0,.19.34.84.84,0,0,0,.29.2,1.1,1.1,0,0,0,.37.06H135l.18,0,.2,0,.2,0v.77l-.27.06-.24,0-.24,0h-.27a1.81,1.81,0,0,1-.63-.1,1.35,1.35,0,0,1-.51-.31,1.47,1.47,0,0,1-.34-.57A2.75,2.75,0,0,1,133,492V488.6Z" style="fill:#4d4d4d"/><path d="M136.64,490.81a4.06,4.06,0,0,1,.19-1.31,2.46,2.46,0,0,1,.52-1,2.13,2.13,0,0,1,.79-.58,2.22,2.22,0,0,1,1-.2,2.79,2.79,0,0,1,.95.15,1.76,1.76,0,0,1,.7.45,1.9,1.9,0,0,1,.44.74,3.11,3.11,0,0,1,.15,1v.55c0,.06,0,.12,0,.17h-3.76a3,3,0,0,0,.14,1,1.66,1.66,0,0,0,.39.66,1.49,1.49,0,0,0,.6.39,2.06,2.06,0,0,0,.76.13,3.64,3.64,0,0,0,.48,0,3.25,3.25,0,0,0,.45-.06,3.45,3.45,0,0,0,.43-.12,3.89,3.89,0,0,0,.44-.16v.82l-.46.18-.44.11a3.31,3.31,0,0,1-.47.07,4.33,4.33,0,0,1-.53,0,3.33,3.33,0,0,1-1.12-.18,2.31,2.31,0,0,1-.85-.55,2.24,2.24,0,0,1-.54-.93A4.17,4.17,0,0,1,136.64,490.81Zm1-.71h2.76a2.4,2.4,0,0,0-.09-.69,1.26,1.26,0,0,0-.25-.49,1,1,0,0,0-.41-.3,1.64,1.64,0,0,0-.56-.09,1.3,1.3,0,0,0-.52.1,1.46,1.46,0,0,0-.43.32,1.67,1.67,0,0,0-.33.5A2.47,2.47,0,0,0,137.59,490.1Z" style="fill:#4d4d4d"/><path d="M146.67,493.74v-3.86a1.6,1.6,0,0,0-.08-.51,1.14,1.14,0,0,0-.25-.39,1,1,0,0,0-.42-.25,1.4,1.4,0,0,0-.56-.1l-.37,0-.33.06a1.89,1.89,0,0,0-.34.09,2.4,2.4,0,0,0-.36.14v4.8h-.91V487.9l.87-.07v.4a3,3,0,0,1,.4-.2,2.84,2.84,0,0,1,.38-.13,2.24,2.24,0,0,1,.39-.08,2.94,2.94,0,0,1,.44,0,2.66,2.66,0,0,1,.88.14,1.83,1.83,0,0,1,.65.38,1.68,1.68,0,0,1,.39.63,2.45,2.45,0,0,1,.13.85v3.95Z" style="fill:#4d4d4d"/><path d="M111.09,500.43a2.1,2.1,0,1,1,2.09-2.1A2.1,2.1,0,0,1,111.09,500.43Zm0-3.7a1.6,1.6,0,1,0,1.59,1.6A1.6,1.6,0,0,0,111.09,496.73Z" style="fill:#8b8f9e"/><path d="M406.33,156.44v-7.87h3.89v.84h-2.94V152h2.65v.84h-2.65v2.8h3v.84Z" style="fill:#4d4d4d"/><path d="M419.37,156.44V152.6a1.42,1.42,0,0,0-.08-.52,1,1,0,0,0-.24-.4,1,1,0,0,0-.4-.25,1.55,1.55,0,0,0-.55-.09l-.37,0-.33,0-.31.09-.38.14v4.8h-.91v-3.86a1.8,1.8,0,0,0-.08-.54.94.94,0,0,0-.22-.39,1.05,1.05,0,0,0-.4-.23,1.91,1.91,0,0,0-.57-.08l-.4,0-.33,0-.31.09-.36.14v4.8h-.91v-5.83l.88-.07v.39a3.72,3.72,0,0,1,.4-.2,1.82,1.82,0,0,1,.37-.13,2.33,2.33,0,0,1,.38-.08l.43,0a2.82,2.82,0,0,1,.52,0,1.85,1.85,0,0,1,.45.11,2.25,2.25,0,0,1,.38.19,1.45,1.45,0,0,1,.29.26,5.39,5.39,0,0,1,.5-.28,2.27,2.27,0,0,1,.47-.18,2.36,2.36,0,0,1,.46-.1,2.64,2.64,0,0,1,.51,0,2.61,2.61,0,0,1,.87.13,1.65,1.65,0,0,1,.64.39,1.55,1.55,0,0,1,.38.62,2.48,2.48,0,0,1,.14.85v3.95Z" style="fill:#4d4d4d"/><path d="M429.51,156.44V152.6a1.68,1.68,0,0,0-.07-.52,1.22,1.22,0,0,0-.24-.4,1.13,1.13,0,0,0-.41-.25,1.55,1.55,0,0,0-.55-.09l-.37,0-.33,0-.31.09-.38.14v4.8h-.91v-3.86a2.21,2.21,0,0,0-.07-.54,1.09,1.09,0,0,0-.23-.39,1.05,1.05,0,0,0-.4-.23,1.91,1.91,0,0,0-.57-.08l-.39,0-.33,0a1.92,1.92,0,0,0-.32.09l-.36.14v4.8h-.91v-5.83l.88-.07v.39a3,3,0,0,1,.4-.2,1.82,1.82,0,0,1,.37-.13,2.33,2.33,0,0,1,.38-.08l.43,0a2.89,2.89,0,0,1,.52,0,1.85,1.85,0,0,1,.45.11,2.25,2.25,0,0,1,.38.19,1.45,1.45,0,0,1,.29.26,5.39,5.39,0,0,1,.5-.28,2.42,2.42,0,0,1,.46-.18,3.23,3.23,0,0,1,1.85,0,1.65,1.65,0,0,1,.64.39,1.45,1.45,0,0,1,.38.62,2.49,2.49,0,0,1,.13.85v3.95Z" style="fill:#4d4d4d"/><path d="M432.14,153.51a4.1,4.1,0,0,1,.19-1.31,2.61,2.61,0,0,1,.52-1,2.25,2.25,0,0,1,.79-.58,2.38,2.38,0,0,1,.95-.2,2.79,2.79,0,0,1,1,.15,1.76,1.76,0,0,1,.7.45,1.9,1.9,0,0,1,.44.74,3.13,3.13,0,0,1,.15,1v.54c0,.06,0,.12,0,.18h-3.76a3,3,0,0,0,.14,1,1.77,1.77,0,0,0,.39.67,1.73,1.73,0,0,0,.6.39,2.29,2.29,0,0,0,.76.12l.48,0,.45-.07a3.39,3.39,0,0,0,.43-.11l.44-.17v.83a3.78,3.78,0,0,1-.46.17l-.44.12-.47.07-.53,0a3.33,3.33,0,0,1-1.12-.18,2.29,2.29,0,0,1-.85-.54,2.35,2.35,0,0,1-.54-.94A4.17,4.17,0,0,1,432.14,153.51Zm.95-.71h2.76a2.38,2.38,0,0,0-.09-.68,1.24,1.24,0,0,0-.25-.5,1,1,0,0,0-.41-.29,1.43,1.43,0,0,0-.56-.1,1.31,1.31,0,0,0-.52.11,1.43,1.43,0,0,0-.43.31,1.81,1.81,0,0,0-.33.5A2.58,2.58,0,0,0,433.09,152.8Z" style="fill:#4d4d4d"/><path d="M439.46,148.05v8.39h-.91v-8.32Z" style="fill:#4d4d4d"/><path d="M446.56,153.44a3.79,3.79,0,0,1-.21,1.29,2.74,2.74,0,0,1-.6,1,2.53,2.53,0,0,1-.87.62,2.66,2.66,0,0,1-1.05.21,2.74,2.74,0,0,1-1.06-.19,2,2,0,0,1-.81-.56,2.52,2.52,0,0,1-.52-.94,4.17,4.17,0,0,1-.18-1.28,3.57,3.57,0,0,1,.22-1.29,2.87,2.87,0,0,1,.59-1,2.53,2.53,0,0,1,.87-.62,2.66,2.66,0,0,1,1-.22,2.79,2.79,0,0,1,1.07.2,2.11,2.11,0,0,1,.82.56,2.6,2.6,0,0,1,.51.93A4.19,4.19,0,0,1,446.56,153.44Zm-.94,0a3.4,3.4,0,0,0-.12-1,2,2,0,0,0-.33-.7,1.44,1.44,0,0,0-.54-.41,1.73,1.73,0,0,0-.73-.14,1.51,1.51,0,0,0-1.22.59,2,2,0,0,0-.35.72,3.5,3.5,0,0,0-.12,1,4,4,0,0,0,.11,1,2,2,0,0,0,.34.69,1.58,1.58,0,0,0,.54.42,1.81,1.81,0,0,0,.72.13,1.45,1.45,0,0,0,1.23-.61,2.05,2.05,0,0,0,.35-.71A3.45,3.45,0,0,0,445.62,153.48Z" style="fill:#4d4d4d"/><path d="M453.31,153.44a3.57,3.57,0,0,1-.22,1.29,2.87,2.87,0,0,1-.59,1,2.56,2.56,0,0,1-.88.62,2.66,2.66,0,0,1-1.05.21,2.78,2.78,0,0,1-1.06-.19,2,2,0,0,1-.81-.56,2.67,2.67,0,0,1-.52-.94,4.17,4.17,0,0,1-.18-1.28,3.79,3.79,0,0,1,.22-1.29,2.87,2.87,0,0,1,.59-1,2.73,2.73,0,0,1,.87-.62,2.67,2.67,0,0,1,1.05-.22,2.83,2.83,0,0,1,1.07.2,2,2,0,0,1,.81.56,2.47,2.47,0,0,1,.52.93A4.19,4.19,0,0,1,453.31,153.44Zm-.95,0a3.84,3.84,0,0,0-.11-1,2,2,0,0,0-.34-.7,1.44,1.44,0,0,0-.54-.41,1.67,1.67,0,0,0-.73-.14,1.57,1.57,0,0,0-.68.15,1.52,1.52,0,0,0-.54.44,2.2,2.2,0,0,0-.35.72,3.9,3.9,0,0,0,0,1.92,1.85,1.85,0,0,0,.33.69,1.58,1.58,0,0,0,.54.42,1.86,1.86,0,0,0,.73.13,1.54,1.54,0,0,0,.68-.15,1.58,1.58,0,0,0,.54-.46,2.05,2.05,0,0,0,.35-.71A3.45,3.45,0,0,0,452.36,153.48Z" style="fill:#4d4d4d"/><path d="M457.94,150.58l-.11.9-.18,0-.16,0-.16,0h-.17a1.27,1.27,0,0,0-.28,0,1.53,1.53,0,0,0-.27.11,2,2,0,0,0-.28.19,3.56,3.56,0,0,0-.31.28v4.44h-.91v-5.83l.9-.07v.68a3.4,3.4,0,0,1,.32-.33,1.79,1.79,0,0,1,.31-.22,1.3,1.3,0,0,1,.3-.13,1.17,1.17,0,0,1,.32,0h.34l.16,0Z" style="fill:#4d4d4d"/><path d="M463.82,148.05v8.39h-.89v-.38a2.59,2.59,0,0,1-.33.19l-.36.14a2.59,2.59,0,0,1-.4.09,2.83,2.83,0,0,1-.41,0,2.64,2.64,0,0,1-1-.18,2.26,2.26,0,0,1-.78-.55,2.46,2.46,0,0,1-.51-.9,3.59,3.59,0,0,1-.19-1.22,3.73,3.73,0,0,1,.22-1.34,2.59,2.59,0,0,1,.61-1,2.55,2.55,0,0,1,.93-.61,3.27,3.27,0,0,1,1.19-.21h.3l.25,0,.24,0,.21.06v-2.51Zm-2,3.25a2,2,0,0,0-.8.15,1.67,1.67,0,0,0-.61.45,2,2,0,0,0-.39.71,3.56,3.56,0,0,0,0,1.87,2,2,0,0,0,.36.67,1.5,1.5,0,0,0,.54.39,1.83,1.83,0,0,0,.71.13l.36,0,.31-.07a1.82,1.82,0,0,0,.3-.11l.3-.17v-3.9l-.27,0-.26,0-.26,0Z" style="fill:#4d4d4d"/><path d="M435.09,163.13a2.1,2.1,0,1,1,2.09-2.1A2.1,2.1,0,0,1,435.09,163.13Zm0-3.69a1.6,1.6,0,1,0,1.59,1.59A1.59,1.59,0,0,0,435.09,159.44Z" style="fill:#8b8f9e"/><path d="M335.61,204.28a3.48,3.48,0,0,1-1.17-.17,2.22,2.22,0,0,1-.85-.52,2.13,2.13,0,0,1-.53-.87,4.08,4.08,0,0,1-.17-1.22v-5.17h.95v5.06a3.23,3.23,0,0,0,.11.94,1.58,1.58,0,0,0,.33.63,1.43,1.43,0,0,0,.58.36,2.56,2.56,0,0,0,.84.13,2.32,2.32,0,0,0,.78-.13,1.54,1.54,0,0,0,.58-.38,1.64,1.64,0,0,0,.35-.62,2.84,2.84,0,0,0,.12-.86v-5.13h.93v5.09a3.49,3.49,0,0,1-.2,1.21,2.31,2.31,0,0,1-.57.9,2.45,2.45,0,0,1-.9.56A3.36,3.36,0,0,1,335.61,204.28Z" style="fill:#4d4d4d"/><path d="M343.61,198.35l-.11.89-.18,0-.16,0-.16,0h-.17a1,1,0,0,0-.29,0,1,1,0,0,0-.27.1,1.93,1.93,0,0,0-.27.19,2.53,2.53,0,0,0-.31.28v4.44h-.92v-5.83l.9-.07V199a3.42,3.42,0,0,1,.33-.33,1.91,1.91,0,0,1,.3-.22,1.37,1.37,0,0,1,.31-.13,1.65,1.65,0,0,1,.31,0h.34l.17,0Z" style="fill:#4d4d4d"/><path d="M345.9,201.39v2.81H345v-8.32l.91-.07v4.78h.53l2-2.26h1.12l-2.28,2.53,2.48,3.34h-1.14l-2.06-2.81Z" style="fill:#4d4d4d"/><path d="M340.89,210.89A2.1,2.1,0,1,1,343,208.8,2.1,2.1,0,0,1,340.89,210.89Zm0-3.69a1.6,1.6,0,1,0,1.59,1.6A1.6,1.6,0,0,0,340.89,207.2Z" style="fill:#8b8f9e"/><path d="M463.36,232.73v-7.87h3.89v.84h-2.94v2.55H467v.84h-2.65v2.8h3v.84Z" style="fill:#4d4d4d"/><path d="M472.88,232.73v-3.85a1.38,1.38,0,0,0-.09-.52,1.14,1.14,0,0,0-.25-.39,1.09,1.09,0,0,0-.42-.25,1.59,1.59,0,0,0-.55-.09,2.3,2.3,0,0,0-.38,0l-.33,0a2.14,2.14,0,0,0-.34.09l-.36.14v4.8h-.91V226.9l.88-.08v.4a2.4,2.4,0,0,1,.39-.2l.38-.13a2.24,2.24,0,0,1,.39-.08l.44,0a2.67,2.67,0,0,1,.88.13,1.89,1.89,0,0,1,.65.38,1.56,1.56,0,0,1,.39.63,2.48,2.48,0,0,1,.14.85v3.95Z" style="fill:#4d4d4d"/><path d="M475.39,232.61v-.83l.41.1.42.07.42,0,.45,0a2.29,2.29,0,0,0,.55-.07,1.54,1.54,0,0,0,.41-.18.83.83,0,0,0,.25-.28.86.86,0,0,0,.08-.36.94.94,0,0,0-.05-.3.64.64,0,0,0-.18-.25,1.42,1.42,0,0,0-.3-.2,2.36,2.36,0,0,0-.45-.16l-.69-.21a2.11,2.11,0,0,1-.53-.22,1.39,1.39,0,0,1-.39-.32,1.64,1.64,0,0,1-.24-.43,1.51,1.51,0,0,1-.08-.53,1.53,1.53,0,0,1,.15-.67,1.5,1.5,0,0,1,.43-.55,2.14,2.14,0,0,1,.67-.36,3,3,0,0,1,.88-.12H478l.36,0,.34,0,.33.06-.1.79-.34-.06c-.11,0-.21,0-.32,0l-.33,0h-.37a2,2,0,0,0-.51.06,1.28,1.28,0,0,0-.39.17.71.71,0,0,0-.23.26.72.72,0,0,0-.08.32.94.94,0,0,0,.05.3.54.54,0,0,0,.15.22,1.08,1.08,0,0,0,.26.18,1.92,1.92,0,0,0,.37.14l.68.18a2.5,2.5,0,0,1,.62.24,1.64,1.64,0,0,1,.44.33,1,1,0,0,1,.26.42,1.36,1.36,0,0,1,.09.51,1.87,1.87,0,0,1-.16.75,1.79,1.79,0,0,1-.46.6,2,2,0,0,1-.7.39,2.94,2.94,0,0,1-.91.14h-.46l-.42,0a2.32,2.32,0,0,1-.38-.06Z" style="fill:#4d4d4d"/><path d="M471.09,239.42a2.1,2.1,0,1,1,2.09-2.1A2.1,2.1,0,0,1,471.09,239.42Zm0-3.7a1.6,1.6,0,1,0,1.59,1.6A1.6,1.6,0,0,0,471.09,235.72Z" style="fill:#8b8f9e"/><path d="M41.86,514.34l2.41,7.87h-1l-.64-2.12H39.52l-.63,2.12h-1l2.48-7.87Zm.5,4.94-1.24-4.21H41l-1.25,4.21Z" style="fill:#4d4d4d"/><path d="M46.61,513.82v8.39H45.7V513.9Z" style="fill:#4d4d4d"/><path d="M55.92,522.21v-3.84a1.46,1.46,0,0,0-.08-.52,1,1,0,0,0-.24-.4,1.14,1.14,0,0,0-.4-.25,1.55,1.55,0,0,0-.55-.09l-.37,0-.33,0-.31.09-.38.14v4.8h-.91v-3.86a1.8,1.8,0,0,0-.08-.54.94.94,0,0,0-.22-.39,1.05,1.05,0,0,0-.4-.23,1.93,1.93,0,0,0-.58-.08l-.39,0-.33,0-.31.09-.36.14v4.8h-.91v-5.83l.88-.07v.39l.4-.2a1.82,1.82,0,0,1,.37-.13,2.32,2.32,0,0,1,.38-.07,3,3,0,0,1,.43,0,2.89,2.89,0,0,1,.52,0,1.85,1.85,0,0,1,.45.11,1.84,1.84,0,0,1,.37.19,1.56,1.56,0,0,1,.3.26l.5-.28a2.42,2.42,0,0,1,.46-.18,3.94,3.94,0,0,1,.47-.1,2.64,2.64,0,0,1,.51,0,2.89,2.89,0,0,1,.87.13,1.65,1.65,0,0,1,.64.39,1.62,1.62,0,0,1,.38.62,2.49,2.49,0,0,1,.13.85v4Z" style="fill:#4d4d4d"/><path d="M58.55,519.28a4,4,0,0,1,.19-1.3,2.59,2.59,0,0,1,.52-1,2.28,2.28,0,0,1,.79-.59,2.37,2.37,0,0,1,1-.19,2.79,2.79,0,0,1,1,.15,1.76,1.76,0,0,1,.7.45,1.86,1.86,0,0,1,.44.73,3.17,3.17,0,0,1,.15,1v.54c0,.06,0,.12,0,.18H59.46a3,3,0,0,0,.14,1,1.7,1.7,0,0,0,.39.67,1.49,1.49,0,0,0,.6.39,2.29,2.29,0,0,0,.76.12,3.7,3.7,0,0,0,.48,0l.45-.07a2.26,2.26,0,0,0,.43-.11,4,4,0,0,0,.44-.17v.83a3.78,3.78,0,0,1-.46.17,3.6,3.6,0,0,1-.44.12l-.47.07a4.44,4.44,0,0,1-.53,0,3.29,3.29,0,0,1-1.12-.18,2.21,2.21,0,0,1-.85-.54,2.35,2.35,0,0,1-.54-.94A4.13,4.13,0,0,1,58.55,519.28Zm1-.7h2.76a2.4,2.4,0,0,0-.09-.69,1.31,1.31,0,0,0-.25-.5,1,1,0,0,0-.41-.29A1.64,1.64,0,0,0,61,517a1.31,1.31,0,0,0-.52.11,1.43,1.43,0,0,0-.43.31,1.74,1.74,0,0,0-.33.5A2.66,2.66,0,0,0,59.5,518.58Z" style="fill:#4d4d4d"/><path d="M67.79,516.36l-.11.9-.18,0-.16,0H67a.86.86,0,0,0-.28,0,1.48,1.48,0,0,0-.27.1,2,2,0,0,0-.28.19c-.09.08-.2.17-.31.28v4.44H65v-5.83l.9-.07V517a3.4,3.4,0,0,1,.32-.33,2.58,2.58,0,0,1,.31-.22,1.3,1.3,0,0,1,.3-.13,1.75,1.75,0,0,1,.32,0h.34l.16,0Z" style="fill:#4d4d4d"/><path d="M68.81,519.28A4,4,0,0,1,69,518a2.46,2.46,0,0,1,.52-1,2.28,2.28,0,0,1,.79-.59,2.37,2.37,0,0,1,1-.19,2.79,2.79,0,0,1,.95.15,1.76,1.76,0,0,1,.7.45,1.86,1.86,0,0,1,.44.73,3.17,3.17,0,0,1,.15,1v.54c0,.06,0,.12,0,.18H69.72a3,3,0,0,0,.14,1,1.7,1.7,0,0,0,.39.67,1.49,1.49,0,0,0,.6.39,2.29,2.29,0,0,0,.76.12,3.7,3.7,0,0,0,.48,0l.45-.07a2.26,2.26,0,0,0,.43-.11,4,4,0,0,0,.44-.17v.83a3.78,3.78,0,0,1-.46.17,3.6,3.6,0,0,1-.44.12l-.47.07a4.52,4.52,0,0,1-.54,0,3.27,3.27,0,0,1-1.11-.18,2.21,2.21,0,0,1-.85-.54,2.35,2.35,0,0,1-.54-.94A4.13,4.13,0,0,1,68.81,519.28Zm1-.7h2.76a2.4,2.4,0,0,0-.09-.69,1.31,1.31,0,0,0-.25-.5,1,1,0,0,0-.41-.29,1.64,1.64,0,0,0-.56-.1,1.31,1.31,0,0,0-.52.11,1.43,1.43,0,0,0-.43.31,1.74,1.74,0,0,0-.33.5A2.66,2.66,0,0,0,69.76,518.58Z" style="fill:#4d4d4d"/><path d="M75.07,519.2v-.84h3.11v.84Z" style="fill:#4d4d4d"/><path d="M79.89,522.12v-.89l.51.1.46.07.45,0h.46a2.66,2.66,0,0,0,.77-.1,1.7,1.7,0,0,0,.59-.28,1.08,1.08,0,0,0,.37-.43,1.22,1.22,0,0,0,.13-.57,1.16,1.16,0,0,0-.07-.44,1,1,0,0,0-.21-.36A1.8,1.8,0,0,0,83,519a3.11,3.11,0,0,0-.57-.25l-1-.34a2.46,2.46,0,0,1-.59-.28,2,2,0,0,1-.45-.41,1.68,1.68,0,0,1-.3-.52,2.2,2.2,0,0,1,.09-1.55,2.07,2.07,0,0,1,.56-.72,2.53,2.53,0,0,1,.86-.46,3.35,3.35,0,0,1,1.13-.17h.44l.4,0,.38.05.36.06-.09.85-.39-.06-.36-.05-.39,0h-.41a2.7,2.7,0,0,0-.73.09,1.88,1.88,0,0,0-.55.27,1.14,1.14,0,0,0-.34.39,1.18,1.18,0,0,0-.11.5,1.33,1.33,0,0,0,.06.42.8.8,0,0,0,.19.32,1.46,1.46,0,0,0,.33.26,2.88,2.88,0,0,0,.49.21l1,.33a3.5,3.5,0,0,1,.7.32,2,2,0,0,1,.48.43,1.66,1.66,0,0,1,.29.56,2.09,2.09,0,0,1,.1.69,2.25,2.25,0,0,1-.21,1,2.14,2.14,0,0,1-.58.76,2.73,2.73,0,0,1-.91.49,4,4,0,0,1-1.18.16h-.48l-.45,0-.44,0Z" style="fill:#4d4d4d"/><path d="M85.92,517.08v-.74h.71v-1l.91-.13v1.16h1.54v.74H87.54v3.31a1.45,1.45,0,0,0,.07.49.82.82,0,0,0,.19.33.72.72,0,0,0,.29.2,1,1,0,0,0,.38.07h.39l.19,0,.21,0v.77l-.27.06-.25,0-.24,0h-.27a2.08,2.08,0,0,1-.63-.09,1.37,1.37,0,0,1-.51-.32,1.44,1.44,0,0,1-.34-.57,2.66,2.66,0,0,1-.12-.86v-3.36Z" style="fill:#4d4d4d"/><path d="M94.66,518.16v4.05H93.8v-.41a3.46,3.46,0,0,1-.41.23,3.25,3.25,0,0,1-.4.15,3,3,0,0,1-.43.08,3.7,3.7,0,0,1-.49,0,2.25,2.25,0,0,1-.76-.11,1.81,1.81,0,0,1-.58-.32,1.32,1.32,0,0,1-.36-.51,1.5,1.5,0,0,1-.13-.64,1.48,1.48,0,0,1,.17-.7,1.65,1.65,0,0,1,.5-.56,2.45,2.45,0,0,1,.83-.37,4.39,4.39,0,0,1,1.15-.13h.89v-.64a1.6,1.6,0,0,0-.08-.51.94.94,0,0,0-.25-.38,1.06,1.06,0,0,0-.42-.23,2.1,2.1,0,0,0-.59-.08l-.42,0a3.07,3.07,0,0,0-.42.07l-.43.12-.45.16-.19-.76.52-.21a4.58,4.58,0,0,1,.49-.15,3.85,3.85,0,0,1,.49-.07,4.63,4.63,0,0,1,.54,0,2.69,2.69,0,0,1,.89.13,1.75,1.75,0,0,1,.66.36,1.58,1.58,0,0,1,.4.6A2.2,2.2,0,0,1,94.66,518.16Zm-3.47,2.46a.78.78,0,0,0,.07.35.69.69,0,0,0,.2.28.85.85,0,0,0,.33.17,1.56,1.56,0,0,0,.46.06l.42,0,.38-.08.37-.13a3.13,3.13,0,0,0,.36-.19v-1.37h-.2l-.29,0h-.42a3.58,3.58,0,0,0-.78.07,1.82,1.82,0,0,0-.52.2.85.85,0,0,0-.29.31A.78.78,0,0,0,91.19,520.62Z" style="fill:#4d4d4d"/><path d="M101.23,513.82v8.39h-.88v-.38L100,522a2.35,2.35,0,0,1-.37.14,2.59,2.59,0,0,1-.4.09,2.69,2.69,0,0,1-.4,0,2.64,2.64,0,0,1-1-.18,2.17,2.17,0,0,1-.78-.55,2.48,2.48,0,0,1-.52-.9,3.86,3.86,0,0,1-.19-1.22,4,4,0,0,1,.22-1.34,2.58,2.58,0,0,1,1.55-1.61,3.23,3.23,0,0,1,1.19-.21h.29l.26,0,.23,0,.21.06v-2.5Zm-2,3.26a2,2,0,0,0-.79.15,1.68,1.68,0,0,0-.62.44,1.91,1.91,0,0,0-.39.72,3.46,3.46,0,0,0-.13,1,2.82,2.82,0,0,0,.13.91,1.85,1.85,0,0,0,.35.67,1.45,1.45,0,0,0,.55.39,1.75,1.75,0,0,0,.7.13,2.06,2.06,0,0,0,.36,0l.32-.07a1,1,0,0,0,.29-.11,2.28,2.28,0,0,0,.3-.17v-3.9l-.27,0-.26,0-.26,0Z" style="fill:#4d4d4d"/><path d="M70.06,528.9a2.1,2.1,0,1,1,2.1-2.09A2.1,2.1,0,0,1,70.06,528.9Zm0-3.69a1.6,1.6,0,1,0,1.6,1.6A1.6,1.6,0,0,0,70.06,525.21Z" style="fill:#8b8f9e"/><path d="M123.33,490.36a2.1,2.1,0,1,1,2.1-2.1A2.1,2.1,0,0,1,123.33,490.36Zm0-3.7a1.6,1.6,0,1,0,1.6,1.6A1.6,1.6,0,0,0,123.33,486.66Z" style="fill:#8b8f9e"/><path d="M230.83,371.36v-8.53h1.7V370h2.88v1.38Z" style="fill:#4d4d4d"/><path d="M236.4,368.15a3.42,3.42,0,0,1,.86-2.5,2.88,2.88,0,0,1,2.09-.85,2.51,2.51,0,0,1,1.88.7,2.61,2.61,0,0,1,.71,1.94c0,.21,0,.43,0,.64a3.71,3.71,0,0,1,0,.53h-3.95a1.8,1.8,0,0,0,.63,1.13,2.18,2.18,0,0,0,1.34.36,5.54,5.54,0,0,0,1-.07,7.06,7.06,0,0,0,.88-.22v1.3a9.84,9.84,0,0,1-1,.25,6.58,6.58,0,0,1-1.09.08,3.42,3.42,0,0,1-2.4-.81A3.21,3.21,0,0,1,236.4,368.15Zm1.53-.69h2.47a1.59,1.59,0,0,0-.32-1,1,1,0,0,0-.85-.4,1.13,1.13,0,0,0-.85.37A1.82,1.82,0,0,0,237.93,367.46Z" style="fill:#4d4d4d"/><path d="M245.17,362.28v9.08h-1.6v-9Z" style="fill:#4d4d4d"/><path d="M248.4,371.22l-2-6.31h1.76l1.35,5h.05l1.2-5h1.61l-2.15,7.34a2.17,2.17,0,0,1-.87,1.25,2.8,2.8,0,0,1-1.58.42h-.43l-.44-.05v-1.28l.41,0,.4,0a1.19,1.19,0,0,0,.67-.22,1.16,1.16,0,0,0,.44-.64l.18-.56Z" style="fill:#4d4d4d"/><path d="M253.26,371.27v-1.38a6,6,0,0,0,.94.17,6.93,6.93,0,0,0,.89.05A1.86,1.86,0,0,0,256,370a.49.49,0,0,0,.26-.42.48.48,0,0,0-.17-.37,1.79,1.79,0,0,0-.65-.3l-.82-.24a2.12,2.12,0,0,1-1-.62,1.65,1.65,0,0,1-.36-1.11,1.82,1.82,0,0,1,.72-1.48,3.27,3.27,0,0,1,2-.57c.29,0,.57,0,.85,0l.73.1-.09,1.33-.8-.09c-.24,0-.5,0-.76,0a1.8,1.8,0,0,0-.85.16.44.44,0,0,0-.25.38.49.49,0,0,0,.12.34,1.4,1.4,0,0,0,.59.27l.76.21a2.29,2.29,0,0,1,1.2.67,1.64,1.64,0,0,1,.36,1.08,1.9,1.9,0,0,1-.74,1.59,3.2,3.2,0,0,1-2,.57c-.35,0-.69,0-1,0A5.89,5.89,0,0,1,253.26,371.27Z" style="fill:#4d4d4d"/><path d="M258.93,366.12v-1.21h.78v-1.18l1.6-.13v1.31h1.62v1.21h-1.62V369a1,1,0,0,0,.26.78,1,1,0,0,0,.7.25l.4,0,.42-.09v1.33a4.43,4.43,0,0,1-.63.13,6.66,6.66,0,0,1-.68,0,2,2,0,0,1-1.5-.55,2.15,2.15,0,0,1-.57-1.63v-3.14Z" style="fill:#4d4d4d"/><path d="M269.28,367.15v4.21h-1.49V371a3,3,0,0,1-.8.36,3.75,3.75,0,0,1-1,.12,2.15,2.15,0,0,1-1.53-.5,1.72,1.72,0,0,1-.53-1.31,1.83,1.83,0,0,1,.71-1.48,3.55,3.55,0,0,1,2.23-.57h.87v-.28a1,1,0,0,0-.32-.77,1.73,1.73,0,0,0-1.11-.27,4.17,4.17,0,0,0-.88.09,5.89,5.89,0,0,0-.94.3l-.21-1.34a6.37,6.37,0,0,1,1.15-.37,5.53,5.53,0,0,1,1.17-.11,2.92,2.92,0,0,1,2,.6A2.19,2.19,0,0,1,269.28,367.15Zm-3.72,2.35a.6.6,0,0,0,.24.51,1.09,1.09,0,0,0,.67.18,2.73,2.73,0,0,0,.66-.07,4,4,0,0,0,.61-.21v-1.19l-.41,0h-.41a1.85,1.85,0,0,0-1,.22A.66.66,0,0,0,265.56,369.5Z" style="fill:#4d4d4d"/><path d="M276.74,362.28v9.08h-1.55v-.44a2.85,2.85,0,0,1-.76.38,2.93,2.93,0,0,1-.9.14,2.53,2.53,0,0,1-1.95-.8,3.37,3.37,0,0,1-.73-2.36,3.28,3.28,0,0,1,1-2.51,3.38,3.38,0,0,1,2.43-.93,3.24,3.24,0,0,1,.45,0,2.24,2.24,0,0,1,.44.07v-2.58Zm-2.46,3.91a1.68,1.68,0,0,0-1.31.54,2.09,2.09,0,0,0-.5,1.47,2,2,0,0,0,.44,1.43,1.5,1.5,0,0,0,1.11.43,2.37,2.37,0,0,0,.57-.06,2.73,2.73,0,0,0,.56-.2v-3.55l-.42,0A3.17,3.17,0,0,0,274.28,366.19Z" style="fill:#4d4d4d"/><path d="M253.82,378.24a2.1,2.1,0,1,1,2.1-2.09A2.1,2.1,0,0,1,253.82,378.24Zm0-3.69a1.6,1.6,0,1,0,1.6,1.6A1.6,1.6,0,0,0,253.82,374.55Z" style="fill:#8b8f9e"/></svg>