<svg xmlns="http://www.w3.org/2000/svg" viewBox="0 0 621 734"><path d="M363.81,580.25l-2.43-1.82-.32-.88,2.53,1.35.63.94-.41.41Zm-31-4.23-.42-.34.56-.93,1.43.08Zm15.77-9.64-.55-.14,0-.8.71.08Zm-21.86-4.84-.61.12,0-.8,1.08-.33ZM346.88,385l-.43-.13.26-1.35Zm95.41-38.72,21.64,10,17.75,19.51h0l-.91.67h0l-17.55-19.3-20.66-9.4-5.21.52-1.79-.55.69-.93,6-.54ZM205.69,157.09l-1.51.8-7-.66-3.78.32L185,159.61,180.68,162l0,1,2,1.18-1.39,1.41-3.49-.27-1.78-1.43-.4-2,.44-2.38,1.85-2,4-2.24,3.71-3.37,2.75-.66h2.87l5.6,1.24,8.59,3.23.27,1.45ZM345,179.8l-.41,1.43-1-.22-4,3.25-.74,1.68-.25,4.74,3.7-.66,10.17,20.17,1,.55,1.46,4.88,13.18,26.95-4,47.33,3.07.22,1.67,3,2.14,9.41,5.86,5.57,1.35,2.15,3.88,4,2.94,1,4.46.09L393,313l1.44-1.29,4.95-8.29,5.18-.11,6.06.83,1.71,1,2.51.48,1.38,1.69,2.88,1.43,2.24.09,1-.87.91.47,4.78-1.46,1.08,1.3-3.78.87-.13.54,5.41-.31,2.66,2.37,2,.81,1.54,5.76-1.17,1.55.87,1.89-.83,1.81.53,4,1,.68-.29,2.82,5.12,4.06,2.41.22.25.68-.48.67-2.54-.95-.88.88.31,2.7-2,1.2-.91,1.48-2.82.11-.36.42.76.67-2,.41-.13.67,2,1.69-.61,1-.63-.6-1.11.07-2.95,2.63L425,350l-.73.59-1.08-.42-2.8.66-1,2.82L419,359l-2.92,10.71-2,3L404.8,378l-2.55,2.55-1.25,3-3.34.06-3.68.86-2.87,1.67-5.9,6.37-5.86.57-6.85,1.65-1.3-2.1.77-2.82-2.37-3.71-5.42.39-4.48-4.2-2.1-3L352.06,381l-3,3.1-1-.89.54-.88-1.17.75-2.26-.22-.33,1.61.6.88-1.23-.42.36-2.36-1.83-2.28-2.34.06-2.93,3.23-2.82.45-1.44,1.42-2.67,1.33-1.12,2.61-.22,4.17,1.39,8.3-.33,1.94.75,1.09-.36,1.42.72,1.77-1.1,2.61,1.1,3.29,1.89,3.3-.2,1.35,2,6-.65,4.3,4.78,4.65.41,3,4.34,8.1-.29,4,1.83,2,2.36,5.24.34,3,1.7,3.09,1.76.08-.44,2.62,2.7,2.29,1.64,5.7-4,7-1.24.75-.68,1.34-1.36.41-1.43-.6-1.19,1.6-.3,3.7.47,3.37,2.9,3.51.27,1-.54,1.89-4.1.45-2.74-.82-4.82,2.46L335,497.67l1.37,3.43,1.48.6-.21.88.63.47,2-2.74,1.66-.07,1,.76-2.06,4.29-.24,4.09.94,2.7-.69,2.74.67.89H344l1.7.81,2.6-.53,4.62,1.24,3.5-.2.63-.87.8-8.44.89-2.15,1.56-1.73.91-.2.33-.88-.58-3.5.61-1.47L358,483.41l.48-.68.75.09L363,496.4l3.08,3,.32,1.35,4.7.15,2.72-.53,1.71.34.32.81-4,1.54-2.07,2.14-3.4.45-2.76,2.94-2.94,0-1.22,8.31-2.74,4.29-.63.88H355l-.22-.88.56-1.14-.53-.34-1.16,1.73-1.77.93-1,2.69-.54,3.88-1.45,1.86-.84,2.82-3.87-.82-1.36.53-.91.59-2.16,4-3.42,1.38-2.13,2.4-3.11,8.82-1.84.66-1,1.61h-2l-.48.67,1.08,1.74-.69,1.81.2,1.06L325.14,560l-.91.33-2.38-1.54-1.27-2.08-2.82.53-4.32,2.52-3.48-4-.88.2-2.25-2.34-1.8,2.14,1.17,3.22,2.87.43,3.53,3-.43.67-1.66.2.34,1.35L309.54,566l0-2.3-1.16-.47h-1.18l-1,1.86,1.75,1.82,2.66.82,1.48,2.21,2.38.68.67,1.95,2.14,1.4,1.17,2.16,2.05,2.08,2.24.94,3.67.28,2.25-2.27,3.27-.4,2.8,2.84-.36,2.41-2.12,1.12v1.35l1.1,1.15,1.86-.2-.72-1.53.33-.26,3.56,1.41,6-1.24,4.1.75,3.23-2.4,5.73.91,4,2.64,3.48,3.22,4.25.7,3,1.54,1.92-.54,1.28,1.07h0l2.9,3.77L381,597l27.69-4.74,24.45,6.46,11.66,8,9.54,9.81h0l-11.94,8.7-11.61-2.2L427,626.6l-2.33-1.07L418.24,639l-8.77,8-.32,15.23-1,5.33-3.18,7.6-7.92,15-7,0-20.22-1.62-.69-2.93,4.51-2.39,2.88-2.65,2.13-3.85-4.95-10.31-4.77-2.77L367.64,666l-17.08.39-5.1-1.5-8.06-4.11.07-3.81-1.63-1.87,8.35-3.82-5.46-5.57.14-2.33-1.54-5.08-2.12,1.93-1.31-.47-.62-1.4.14-2.88L332,634l0-2.46-1.81-3.95,2.81,0,1.29-1.81,3-1.25,3.07-.07.44-3,3.23-1.72,1.16-.25.55.54v1.48l1.31.68-.52-3.14-1.37-2-1.44-.13-1.91,1.39-.88-.94-3.11,3.79-3.76-3.28-1.79.54-1.12,3.07-1.28-1.14-1,2.87-1.48.38-.54,1.73h-1.76l-3.39-8.31L319.24,616l-4.15-.15-2,.59-3.2,2.31-2.26,3.8-1.18.67-6.49-1.1-1.51.46-3.19-1.82-3,1.33.5,5.8-2,.72-1.32,1.18-.48,1.94-2.07.54-1.29,2.4,0,1.94-1.72,1.47-10.64-.59-1.36.59-5.06.23-1.64.67-3.08,2.6-1,1-1.93,4.13-6.37,5.18-7.51,3.51-2-.39-4.23.37h0l-4.15-1L231,656.15l-2.33,3.46-3.48,2.78-3.68.84-4.87,3.19-3.11,4-2.31-1.82.48-1.19-.19-2.41-1.41-3.27.58-7.62-7.76-1.3-3.79,1.59-2.93,3.12-.52-.39-1,.67-7.58.43-12.94,7.68-8.16.56-5.65-.75-5.93-2.44-4.23,1.46-5.86-1.43-2.7-2.29-.39-3.39.23-1.27,3.29-4.18L148,635.23l-.71-5.29,7.91-8.18,3.74-8.27.06-1.68,2.65-7.08,3.24-4.81-9.74-4.32-1.08.08-5.4,1.5L146.12,602l-27-12.69h0l22.36-57.56,4.57-13.44,1.61-7,.6-8.6,2.05-2.86-1.49-4.44,3.18-6.95,4.64-13.14,5-24.43,5.49-34,2.63-25.76,3.19-21,.18-4.85L175.39,350l3.9-34.32L183,298.33l2.34-6.21,3.45-6.82,6.83-23.43L205,223.94l2.11-9.81L209,177.52l1.38-5.9,2.9-5.69,2.2-2.76,1.39-.61,5.76-1.07,2.24.69,3.1-1.54,6.44.36-.34,1.51,1.44-.8,1.08.68-.28.75-.9-.55-.81,1.5L235,166l1,1.17.83.08.26,1.64h.43l2.92-.79-.31-2,1.71-1.34-.52-1.17-1.21.88-.7-2,3.88-.78,1.15,2.72-.17,2.59-3.91,8.53-1.13,5.62.62.62.15,1.56h1l.27,2,4.38,10.25,1.1,1.56,26,15.51,13-3.46,4.52-3,8-3.41-.39-1.22,1.43-.12,5.09-6.55,1.09-2.43.65-3.6,3.79-3.45,5.11-1.28,2.62.09,6-2.82,4.62,1.37,3.35-.66,2.87-1.41,1,1,.71-.26,1.57,1.69,4.52-3.45-.52-.8.61-.8,45.7-40.38h0l1.62,2.26h0L345,179.8ZM276.21,31.35l1.84-.61,1.38,1.3,3.05,4.37L287,45.57,286.65,48l-1.1.13L285,49.91l-.79-2.25-1.13,21.26.78,6.27-.1,4.76-1.58,4.89-1.77.67-4.8,4.12-.54,2.3-2.62,1.62-.39,7L268.88,105l-1.12,3.47-1.39,1.34-.6-1-2.25,1.88.24,1.22L262,114.51l-1.71,1-3.1,1.28-5.62.24-1,.87-10.79,14.3,0,1.22,1.76,1.09-1.17,1.71-3.19,0-1.31-1.56-1.08.8-2.66-1.72H230l-5.88-2.88-1,.88,1.08.55.41,2.05,4.62,1.91.6,1.43,2.61,1.72.4.88-1.16.07L229,139l.35.55-4.66,2,0,.75,1.16.21-.13.54-4,1.33-3.29-.56-2.45,1.41.95.35-1.11,1.29-1.48-.22-3.26-3.15-3.46-7.29-1.35-7.42L207,116.2l2.6-13.38,2.07-7.06,3.82-9.52,7.66-14.67,11.87-19.35,4.28-5.83,13-21.7,5.44-6.79,4.83-4.35,3.68-1.41h1l1.51,1.1,2.49,4.44L273,18.85l2,4.57-.22,3.81.42,2.46Z" style="fill:#e5e5e5"/><path d="M205.92,167.55h-2.15v-7.87h2.09a5.64,5.64,0,0,1,1.66.23,3.23,3.23,0,0,1,1.24.71,2.89,2.89,0,0,1,.77,1.17,4.42,4.42,0,0,1,.26,1.61,5.5,5.5,0,0,1-.27,1.8,3.58,3.58,0,0,1-.78,1.3,3.3,3.3,0,0,1-1.23.79A4.65,4.65,0,0,1,205.92,167.55Zm-1.2-7.07v6.27h1.21a3.41,3.41,0,0,0,1.19-.2,2.41,2.41,0,0,0,.91-.6,2.77,2.77,0,0,0,.58-1,4.86,4.86,0,0,0,.2-1.46,4,4,0,0,0-.2-1.31,2.49,2.49,0,0,0-.6-.93,2.36,2.36,0,0,0-.95-.55,3.89,3.89,0,0,0-1.27-.19Z" style="fill:#4d4d4d"/><path d="M211.28,164.62a4.34,4.34,0,0,1,.19-1.3,2.59,2.59,0,0,1,.52-1,2.22,2.22,0,0,1,1.75-.78,2.77,2.77,0,0,1,.94.15,1.87,1.87,0,0,1,.71.45,2,2,0,0,1,.43.73,3.17,3.17,0,0,1,.15,1v.54c0,.06,0,.12,0,.18H212.2a3,3,0,0,0,.13.95,2,2,0,0,0,.39.67,1.49,1.49,0,0,0,.6.39,2.3,2.3,0,0,0,.77.12,3.85,3.85,0,0,0,.48,0l.44-.06a3.6,3.6,0,0,0,.44-.12c.14-.05.28-.1.43-.17v.83a3.25,3.25,0,0,1-.46.17,3.17,3.17,0,0,1-.44.12l-.47.07a4.44,4.44,0,0,1-.53,0,3.5,3.5,0,0,1-1.11-.17,2.4,2.4,0,0,1-.86-.55,2.35,2.35,0,0,1-.54-.94A4.42,4.42,0,0,1,211.28,164.62Zm.95-.7H215a2.84,2.84,0,0,0-.08-.69,1.47,1.47,0,0,0-.25-.5,1.1,1.1,0,0,0-.42-.29,1.6,1.6,0,0,0-.56-.1,1.26,1.26,0,0,0-.51.11,1.47,1.47,0,0,0-.44.31,1.71,1.71,0,0,0-.32.5A2.29,2.29,0,0,0,212.23,163.92Z" style="fill:#4d4d4d"/><path d="M221.31,167.55V163.7a1.46,1.46,0,0,0-.08-.52,1.14,1.14,0,0,0-.25-.39,1.23,1.23,0,0,0-.42-.25,1.59,1.59,0,0,0-.55-.09l-.38,0-.33.05-.34.09-.36.14v4.8h-.91v-5.83l.88-.07V162a2.33,2.33,0,0,1,.39-.19,3.57,3.57,0,0,1,.38-.14,2.26,2.26,0,0,1,.39-.07,3,3,0,0,1,.44,0,3,3,0,0,1,.88.13,1.76,1.76,0,0,1,.65.39,1.43,1.43,0,0,1,.39.62,2.48,2.48,0,0,1,.14.85v4Z" style="fill:#4d4d4d"/><path d="M231.78,167.55v-3.61h-3.6v3.61h-1v-7.87h1v3.42h3.6v-3.42h.95v7.87Z" style="fill:#4d4d4d"/><path d="M234.74,164.62a4,4,0,0,1,.19-1.3,2.59,2.59,0,0,1,.52-1,2.22,2.22,0,0,1,1.75-.78,2.77,2.77,0,0,1,.94.15,1.87,1.87,0,0,1,.71.45,2,2,0,0,1,.43.73,3.17,3.17,0,0,1,.15,1v.54c0,.06,0,.12,0,.18h-3.76a3,3,0,0,0,.14.95,1.82,1.82,0,0,0,.39.67,1.49,1.49,0,0,0,.6.39,2.29,2.29,0,0,0,.76.12,3.93,3.93,0,0,0,.49,0l.44-.06a3.6,3.6,0,0,0,.44-.12c.14-.05.28-.1.43-.17v.83a3.25,3.25,0,0,1-.46.17,3.17,3.17,0,0,1-.44.12l-.47.07a4.44,4.44,0,0,1-.53,0,3.6,3.6,0,0,1-1.12-.17,2.45,2.45,0,0,1-.85-.55,2.35,2.35,0,0,1-.54-.94A4.13,4.13,0,0,1,234.74,164.62Zm.95-.7h2.76a2.84,2.84,0,0,0-.08-.69,1.47,1.47,0,0,0-.25-.5,1.1,1.1,0,0,0-.42-.29,1.6,1.6,0,0,0-.56-.1,1.26,1.26,0,0,0-.51.11,1.47,1.47,0,0,0-.44.31,1.71,1.71,0,0,0-.32.5A2.29,2.29,0,0,0,235.69,163.92Z" style="fill:#4d4d4d"/><path d="M242.06,159.16v8.39h-.91v-8.31Z" style="fill:#4d4d4d"/><path d="M248.72,159.16v8.39h-.89v-.38a2.59,2.59,0,0,1-.33.19,1.92,1.92,0,0,1-.36.14,2.59,2.59,0,0,1-.4.09,2.73,2.73,0,0,1-.41,0,2.64,2.64,0,0,1-1-.18,2.36,2.36,0,0,1-.78-.55,2.46,2.46,0,0,1-.51-.9,3.59,3.59,0,0,1-.19-1.22,3.77,3.77,0,0,1,.22-1.34,2.72,2.72,0,0,1,.61-1,2.82,2.82,0,0,1,.94-.61,3.22,3.22,0,0,1,1.18-.21h.3l.26,0,.23,0,.21.06v-2.5Zm-2,3.26a2,2,0,0,0-.79.15,1.6,1.6,0,0,0-.62.44,1.91,1.91,0,0,0-.39.72,3.12,3.12,0,0,0-.13,1,2.82,2.82,0,0,0,.13.91,1.85,1.85,0,0,0,.35.67,1.35,1.35,0,0,0,.55.39,1.75,1.75,0,0,0,.7.13,2.06,2.06,0,0,0,.36,0l.32-.06a1.78,1.78,0,0,0,.29-.12,2.28,2.28,0,0,0,.3-.17v-3.9l-.27,0-.26,0-.26,0Z" style="fill:#4d4d4d"/><path d="M250.52,164.62a4,4,0,0,1,.19-1.3,2.59,2.59,0,0,1,.52-1,2.22,2.22,0,0,1,1.75-.78,2.77,2.77,0,0,1,.94.15,1.76,1.76,0,0,1,.7.45,1.86,1.86,0,0,1,.44.73,3.17,3.17,0,0,1,.15,1v.54c0,.06,0,.12,0,.18h-3.76a3,3,0,0,0,.14.95,1.82,1.82,0,0,0,.39.67,1.49,1.49,0,0,0,.6.39,2.29,2.29,0,0,0,.76.12,3.93,3.93,0,0,0,.49,0l.44-.06a3.6,3.6,0,0,0,.44-.12c.14-.05.28-.1.43-.17v.83a3.25,3.25,0,0,1-.46.17,3.17,3.17,0,0,1-.44.12l-.47.07a4.44,4.44,0,0,1-.53,0,3.6,3.6,0,0,1-1.12-.17,2.45,2.45,0,0,1-.85-.55,2.35,2.35,0,0,1-.54-.94A4.13,4.13,0,0,1,250.52,164.62Zm.95-.7h2.76a2.84,2.84,0,0,0-.08-.69,1.32,1.32,0,0,0-.26-.5,1,1,0,0,0-.41-.29,1.6,1.6,0,0,0-.56-.1,1.26,1.26,0,0,0-.51.11,1.47,1.47,0,0,0-.44.31,2,2,0,0,0-.33.5A2.66,2.66,0,0,0,251.47,163.92Z" style="fill:#4d4d4d"/><path d="M259.76,161.7l-.11.9-.18,0-.16,0H259a.9.9,0,0,0-.28,0,1.48,1.48,0,0,0-.27.1,2,2,0,0,0-.28.19c-.09.08-.2.17-.31.28v4.44h-.91v-5.83l.9-.07v.68a3.4,3.4,0,0,1,.32-.33,2.58,2.58,0,0,1,.31-.22,1.2,1.2,0,0,1,.31-.13,1.55,1.55,0,0,1,.31,0h.34l.16,0Z" style="fill:#4d4d4d"/><path d="M231.39,174.24a2.1,2.1,0,1,1,2.1-2.09A2.1,2.1,0,0,1,231.39,174.24Zm0-3.69a1.6,1.6,0,1,0,1.6,1.6A1.6,1.6,0,0,0,231.39,170.55Z" style="fill:#8b8f9e"/><path d="M285.66,198.15v-3.62h-3.6v3.62h-.95v-7.88h.95v3.42h3.6v-3.42h.94v7.88Z" style="fill:#4d4d4d"/><path d="M288.85,190.36a.69.69,0,0,1,0-.25.47.47,0,0,1,.12-.18.52.52,0,0,1,.19-.12.61.61,0,0,1,.24,0,.67.67,0,0,1,.24,0,.57.57,0,0,1,.18.12.5.5,0,0,1,.11.18.62.62,0,0,1,0,.25.61.61,0,0,1,0,.24.78.78,0,0,1-.11.18.54.54,0,0,1-.18.11.67.67,0,0,1-.24,0,.61.61,0,0,1-.24,0,.5.5,0,0,1-.19-.11.57.57,0,0,1-.12-.18A.61.61,0,0,1,288.85,190.36Zm1,1.88v5.91H289v-5.84Z" style="fill:#4d4d4d"/><path d="M292.05,200.44v-8.13l.88-.07v.37l.36-.17a2.84,2.84,0,0,1,.38-.13,2.57,2.57,0,0,1,.4-.08,3.17,3.17,0,0,1,.44,0,2.64,2.64,0,0,1,1,.17,2.09,2.09,0,0,1,.76.53,2.47,2.47,0,0,1,.48.91,4.07,4.07,0,0,1,.17,1.27,3.64,3.64,0,0,1-.22,1.31,2.72,2.72,0,0,1-1.62,1.61,3.6,3.6,0,0,1-1.25.21h-.44l-.21,0-.21-.05v2.31Zm1.9-3a2.1,2.1,0,0,0,.8-.14,1.76,1.76,0,0,0,.64-.43,1.87,1.87,0,0,0,.42-.7,3,3,0,0,0,.15-1,3.4,3.4,0,0,0-.12-1,1.87,1.87,0,0,0-.34-.66,1.34,1.34,0,0,0-.54-.37,2,2,0,0,0-.72-.12h-.33c-.1,0-.21,0-.31.06a2.87,2.87,0,0,0-.64.23v4l.25,0,.25,0,.24,0Z" style="fill:#4d4d4d"/><path d="M298.71,200.44v-8.13l.88-.07v.37l.36-.17a2.84,2.84,0,0,1,.38-.13,2.57,2.57,0,0,1,.4-.08,3.17,3.17,0,0,1,.44,0,2.64,2.64,0,0,1,1,.17,2,2,0,0,1,.76.53,2.47,2.47,0,0,1,.48.91,4.07,4.07,0,0,1,.17,1.27,3.64,3.64,0,0,1-.22,1.31,2.72,2.72,0,0,1-1.62,1.61,3.6,3.6,0,0,1-1.25.21H300l-.21,0-.21-.05v2.31Zm1.9-3a2.1,2.1,0,0,0,.8-.14,1.76,1.76,0,0,0,.64-.43,1.87,1.87,0,0,0,.42-.7,3,3,0,0,0,.15-1,3.4,3.4,0,0,0-.12-1,1.87,1.87,0,0,0-.34-.66,1.34,1.34,0,0,0-.54-.37,2,2,0,0,0-.72-.12h-.33c-.1,0-.21,0-.31.06a2.87,2.87,0,0,0-.64.23v4l.26,0,.24,0,.24,0Z" style="fill:#4d4d4d"/><path d="M310.31,195.15a3.79,3.79,0,0,1-.21,1.29,3.07,3.07,0,0,1-.59,1,2.63,2.63,0,0,1-.88.61,2.66,2.66,0,0,1-1.05.21,3,3,0,0,1-1.06-.18,2,2,0,0,1-.81-.57,2.47,2.47,0,0,1-.52-.93,4.17,4.17,0,0,1-.18-1.28,3.66,3.66,0,0,1,.22-1.3,2.87,2.87,0,0,1,.59-1,2.64,2.64,0,0,1,.87-.61,2.5,2.5,0,0,1,1.05-.22,2.78,2.78,0,0,1,1.06.19,2.25,2.25,0,0,1,.82.57,2.32,2.32,0,0,1,.51.93A3.91,3.91,0,0,1,310.31,195.15Zm-.94,0a3.5,3.5,0,0,0-.12-1,1.93,1.93,0,0,0-.33-.69,1.47,1.47,0,0,0-.54-.42,1.86,1.86,0,0,0-.73-.14,1.69,1.69,0,0,0-.68.15,1.55,1.55,0,0,0-.54.45,2.2,2.2,0,0,0-.35.72,3.48,3.48,0,0,0-.12,1,4,4,0,0,0,.11,1,2,2,0,0,0,.34.7,1.44,1.44,0,0,0,.54.41,1.83,1.83,0,0,0,.73.14,1.53,1.53,0,0,0,1.22-.61,2.2,2.2,0,0,0,.35-.72A3.4,3.4,0,0,0,309.37,195.18Z" style="fill:#4d4d4d"/><path d="M313,189.76v8.39h-.91v-8.32Z" style="fill:#4d4d4d"/><path d="M316.45,197.92l-2-5.64h1l1.63,4.85h.05l1.4-4.85h.93l-2.14,6.66a2.91,2.91,0,0,1-.32.73,1.79,1.79,0,0,1-.41.48,1.41,1.41,0,0,1-.5.26,1.87,1.87,0,0,1-.59.09h-.33l-.15,0-.15,0v-.78l.17,0,.14,0h.26a1,1,0,0,0,.36-.05.87.87,0,0,0,.3-.16.76.76,0,0,0,.24-.29,2.29,2.29,0,0,0,.2-.44l.29-.83Z" style="fill:#4d4d4d"/><path d="M320.32,193v-.73H321v-1l.91-.14v1.17h1.54V193h-1.54v3.32a1.43,1.43,0,0,0,.07.48.86.86,0,0,0,.19.34.88.88,0,0,0,.3.2,1.06,1.06,0,0,0,.37.06h.2l.19,0,.19,0,.21,0v.77l-.27.06-.25,0-.24,0h-.27a1.81,1.81,0,0,1-.63-.1,1.24,1.24,0,0,1-.5-.31,1.49,1.49,0,0,1-.35-.57,2.75,2.75,0,0,1-.12-.86V193Z" style="fill:#4d4d4d"/><path d="M325.9,192.24v3.89a1.53,1.53,0,0,0,.09.54,1,1,0,0,0,.24.4,1.22,1.22,0,0,0,.4.24,1.89,1.89,0,0,0,.56.08l.38,0,.32-.05.31-.09.37-.14v-4.78l.91-.07v5.91h-.89v-.36a2.61,2.61,0,0,1-.37.19,2.35,2.35,0,0,1-.37.14l-.39.08a2.9,2.9,0,0,1-.43,0,2.63,2.63,0,0,1-.88-.13,1.58,1.58,0,0,1-.64-.38,1.68,1.68,0,0,1-.39-.63,2.83,2.83,0,0,1-.13-.86v-3.92Z" style="fill:#4d4d4d"/><path d="M331.17,198v-.83l.41.1.41.07.43,0h.44a2.26,2.26,0,0,0,.55-.06,1.74,1.74,0,0,0,.41-.18.78.78,0,0,0,.34-.64.81.81,0,0,0-.06-.31.56.56,0,0,0-.17-.24,1,1,0,0,0-.31-.2,2.51,2.51,0,0,0-.45-.17l-.68-.2a2.35,2.35,0,0,1-.53-.22,1.27,1.27,0,0,1-.39-.33,1.1,1.1,0,0,1-.24-.42,1.51,1.51,0,0,1-.09-.53,1.53,1.53,0,0,1,.15-.67,1.62,1.62,0,0,1,.43-.55,2.31,2.31,0,0,1,.68-.36,3,3,0,0,1,.87-.12h.39c.12,0,.24,0,.36,0l.34,0a1.65,1.65,0,0,1,.32.06l-.09.79-.34-.06-.33,0h-.69a2,2,0,0,0-.52.06,1.21,1.21,0,0,0-.38.17.71.71,0,0,0-.23.26.61.61,0,0,0-.08.32.73.73,0,0,0,.05.3.54.54,0,0,0,.15.22,1.35,1.35,0,0,0,.25.18,2.64,2.64,0,0,0,.37.13l.68.18a3.78,3.78,0,0,1,.63.24,2.2,2.2,0,0,1,.44.33,1.33,1.33,0,0,1,.26.42,1.44,1.44,0,0,1,.09.51,1.73,1.73,0,0,1-.17.76,1.76,1.76,0,0,1-.45.6,2,2,0,0,1-.71.39,2.83,2.83,0,0,1-.9.14h-.47l-.41,0-.38-.06Z" style="fill:#4d4d4d"/><path d="M340.35,198.15v-3.86a1.6,1.6,0,0,0-.08-.51,1,1,0,0,0-.26-.39,1.13,1.13,0,0,0-.41-.25,1.6,1.6,0,0,0-.56-.09h-.38l-.33.06a2,2,0,0,0-.33.09,2.4,2.4,0,0,0-.36.14v4.8h-.91v-8.32l.91-.07v2.85a3.39,3.39,0,0,1,.39-.18,2.72,2.72,0,0,1,.37-.13l.39-.07a2.82,2.82,0,0,1,.42,0,2.67,2.67,0,0,1,.88.13,1.7,1.7,0,0,1,.64.38,1.58,1.58,0,0,1,.4.63,2.45,2.45,0,0,1,.13.85v4Z" style="fill:#4d4d4d"/><path d="M348.28,195.15a3.79,3.79,0,0,1-.21,1.29,3.28,3.28,0,0,1-.6,1,2.5,2.5,0,0,1-.87.61,2.73,2.73,0,0,1-1.05.21,3,3,0,0,1-1.07-.18,2.17,2.17,0,0,1-.81-.57,2.6,2.6,0,0,1-.51-.93,4.17,4.17,0,0,1-.18-1.28,3.9,3.9,0,0,1,.21-1.3,3,3,0,0,1,.6-1,2.64,2.64,0,0,1,.87-.61,2.46,2.46,0,0,1,1-.22,2.83,2.83,0,0,1,1.07.19,2.25,2.25,0,0,1,.82.57,2.44,2.44,0,0,1,.51.93A4.19,4.19,0,0,1,348.28,195.15Zm-.95,0a3.52,3.52,0,0,0-.11-1,1.94,1.94,0,0,0-.34-.69,1.32,1.32,0,0,0-.54-.42,1.81,1.81,0,0,0-.72-.14,1.48,1.48,0,0,0-1.23.6,2.18,2.18,0,0,0-.34.72,3.48,3.48,0,0,0-.12,1,3.52,3.52,0,0,0,.11,1,2,2,0,0,0,.34.7,1.37,1.37,0,0,0,.54.41,1.81,1.81,0,0,0,.72.14,1.46,1.46,0,0,0,.69-.16,1.63,1.63,0,0,0,.54-.45,2.18,2.18,0,0,0,.34-.72A3.4,3.4,0,0,0,347.33,195.18Z" style="fill:#4d4d4d"/><path d="M350.26,193h-.72v-.73h.72v-.67a2.13,2.13,0,0,1,.13-.78,1.54,1.54,0,0,1,.38-.59,1.51,1.51,0,0,1,.63-.37,2.56,2.56,0,0,1,.87-.14h.22l.22,0a.63.63,0,0,0,.19,0l.18,0-.11.79-.17,0-.18,0-.19,0h-.19a1.75,1.75,0,0,0-.48.06.84.84,0,0,0-.33.2.79.79,0,0,0-.2.33,1.56,1.56,0,0,0-.06.46v.69h1.52V193h-1.52v5.14h-.91Z" style="fill:#4d4d4d"/><path d="M316.52,204.84a2.1,2.1,0,1,1,2.1-2.1A2.1,2.1,0,0,1,316.52,204.84Zm0-3.7a1.6,1.6,0,1,0,1.6,1.6A1.6,1.6,0,0,0,316.52,201.14Z" style="fill:#8b8f9e"/><path d="M232.19,102.29a5.47,5.47,0,0,1,.26-1.73,3.84,3.84,0,0,1,.74-1.3,3.05,3.05,0,0,1,1.1-.8,3.45,3.45,0,0,1,1.37-.27,3.26,3.26,0,0,1,1.29.25,2.82,2.82,0,0,1,1,.76,3.35,3.35,0,0,1,.69,1.25,5.63,5.63,0,0,1,.24,1.72,5.47,5.47,0,0,1-.26,1.73,3.73,3.73,0,0,1-.73,1.3,3.21,3.21,0,0,1-1.1.81,3.4,3.4,0,0,1-1.36.27,3.28,3.28,0,0,1-1.3-.26,2.91,2.91,0,0,1-1-.75,3.8,3.8,0,0,1-.69-1.26A5.63,5.63,0,0,1,232.19,102.29Zm1-.12a5.53,5.53,0,0,0,.18,1.51,2.74,2.74,0,0,0,.51,1,2,2,0,0,0,.75.57,2.37,2.37,0,0,0,.93.18,2.18,2.18,0,0,0,1.64-.73,2.85,2.85,0,0,0,.54-1,4.39,4.39,0,0,0,.2-1.44,5.53,5.53,0,0,0-.18-1.51,2.7,2.7,0,0,0-.5-1,2.11,2.11,0,0,0-.75-.56,2.62,2.62,0,0,0-.94-.17,2.36,2.36,0,0,0-.87.17,2.11,2.11,0,0,0-.76.55,2.63,2.63,0,0,0-.54,1A4.46,4.46,0,0,0,233.17,102.17Z" style="fill:#4d4d4d"/><path d="M241.58,100.26v3.89a1.53,1.53,0,0,0,.09.54,1.07,1.07,0,0,0,.24.4,1.27,1.27,0,0,0,.41.24,1.82,1.82,0,0,0,.55.08l.38,0,.32,0,.31-.09.37-.14v-4.77l.91-.08v5.91h-.89v-.36l-.37.2-.37.13-.39.08a2.9,2.9,0,0,1-.43,0,2.63,2.63,0,0,1-.88-.13,1.65,1.65,0,0,1-.64-.38,1.68,1.68,0,0,1-.39-.63,2.78,2.78,0,0,1-.13-.86v-3.91Z" style="fill:#4d4d4d"/><path d="M251.82,97.78v8.39h-.89v-.39a1.81,1.81,0,0,1-.33.2l-.36.14a2.59,2.59,0,0,1-.4.09,2.83,2.83,0,0,1-.41,0,2.46,2.46,0,0,1-1-.19,2.11,2.11,0,0,1-.78-.54,2.46,2.46,0,0,1-.51-.9,3.61,3.61,0,0,1-.19-1.23,3.81,3.81,0,0,1,.22-1.34,2.63,2.63,0,0,1,.61-1,2.55,2.55,0,0,1,.93-.61,3.27,3.27,0,0,1,1.19-.21h.3a1.9,1.9,0,0,1,.25,0l.24,0,.21.06V97.85Zm-2,3.25a2,2,0,0,0-.8.15,1.76,1.76,0,0,0-.61.44,2.08,2.08,0,0,0-.39.72,3.12,3.12,0,0,0-.13,1,3.21,3.21,0,0,0,.12.92,1.89,1.89,0,0,0,.36.66,1.41,1.41,0,0,0,.54.4,1.83,1.83,0,0,0,.71.13l.36,0,.31-.07.3-.11.3-.17v-3.9l-.27,0a1.15,1.15,0,0,0-.26,0l-.26,0Z" style="fill:#4d4d4d"/><path d="M253.62,103.24a4.1,4.1,0,0,1,.19-1.31,2.76,2.76,0,0,1,.52-1,2.25,2.25,0,0,1,.79-.58,2.38,2.38,0,0,1,.95-.2,2.79,2.79,0,0,1,.95.15,1.84,1.84,0,0,1,.7.45,1.9,1.9,0,0,1,.44.74,3.11,3.11,0,0,1,.15,1v.55c0,.06,0,.12,0,.17h-3.76a3,3,0,0,0,.14,1,1.77,1.77,0,0,0,.39.67,1.58,1.58,0,0,0,.6.38,2.06,2.06,0,0,0,.76.13l.48,0,.45-.07.43-.11.44-.17v.83a3.78,3.78,0,0,1-.46.17l-.44.11a3.55,3.55,0,0,1-.47.08l-.54,0a3.31,3.31,0,0,1-1.11-.18,2.12,2.12,0,0,1-.85-.55,2.24,2.24,0,0,1-.54-.93A4.17,4.17,0,0,1,253.62,103.24Zm.95-.71h2.76a2.38,2.38,0,0,0-.09-.68,1.24,1.24,0,0,0-.25-.5,1,1,0,0,0-.41-.29,1.43,1.43,0,0,0-.56-.1,1.16,1.16,0,0,0-.52.11,1.27,1.27,0,0,0-.43.31,1.61,1.61,0,0,0-.33.5A2.47,2.47,0,0,0,254.57,102.53Z" style="fill:#4d4d4d"/><path d="M259.56,106.05v-.83l.41.1.41.07c.14,0,.28,0,.43,0l.44,0a2.23,2.23,0,0,0,.55-.07,1.74,1.74,0,0,0,.41-.18.77.77,0,0,0,.28-.94.53.53,0,0,0-.17-.25,1.28,1.28,0,0,0-.31-.2,2,2,0,0,0-.45-.16l-.68-.21a2.35,2.35,0,0,1-.53-.22,1.39,1.39,0,0,1-.39-.32,1.22,1.22,0,0,1-.24-.43,1.51,1.51,0,0,1-.09-.53,1.53,1.53,0,0,1,.15-.67,1.62,1.62,0,0,1,.43-.55,2.19,2.19,0,0,1,.68-.36,3,3,0,0,1,.87-.12h.39c.12,0,.24,0,.36,0l.34,0,.32.06-.09.79-.34-.06-.33,0-.33,0h-.37a2,2,0,0,0-.51.06,1.21,1.21,0,0,0-.38.17.63.63,0,0,0-.23.26.61.61,0,0,0-.08.32.73.73,0,0,0,.05.3.54.54,0,0,0,.15.22,1,1,0,0,0,.25.18l.37.14.68.18a2.36,2.36,0,0,1,.62.24,1.54,1.54,0,0,1,.45.33,1.14,1.14,0,0,1,.26.42,1.37,1.37,0,0,1,.08.51,1.71,1.71,0,0,1-.16.75,1.89,1.89,0,0,1-.45.6,2,2,0,0,1-.71.39,2.83,2.83,0,0,1-.9.14h-.47l-.41,0c-.13,0-.26,0-.38-.06Z" style="fill:#4d4d4d"/><path d="M268.72,100.37l-.11.83-.33-.07-.27,0a2.06,2.06,0,0,0-.26,0h-.29a1.56,1.56,0,0,0-.68.14,1.62,1.62,0,0,0-.56.42,2.14,2.14,0,0,0-.38.68,2.83,2.83,0,0,0-.14.9,3.15,3.15,0,0,0,.14,1,1.78,1.78,0,0,0,.39.69,1.39,1.39,0,0,0,.57.39,1.88,1.88,0,0,0,.72.13h.32l.31,0a1.5,1.5,0,0,0,.29-.06l.29-.07v.83l-.31.08-.3,0-.33,0h-.38a3.29,3.29,0,0,1-1.07-.17,2.12,2.12,0,0,1-.83-.55,2.64,2.64,0,0,1-.56-.94,4.17,4.17,0,0,1-.19-1.34A3.38,3.38,0,0,1,265,102a2.75,2.75,0,0,1,.6-1,2.35,2.35,0,0,1,.87-.6,2.77,2.77,0,0,1,1-.19h.33l.29,0,.3.05Z" style="fill:#4d4d4d"/><path d="M273.88,106.17v-3.85a1.38,1.38,0,0,0-.09-.52,1,1,0,0,0-.25-.39,1.09,1.09,0,0,0-.42-.25,1.55,1.55,0,0,0-.55-.09,2.24,2.24,0,0,0-.38,0,1.86,1.86,0,0,0-.34,0,2.34,2.34,0,0,0-.33.09l-.36.14v4.8h-.91V97.85l.91-.07v2.86a3.44,3.44,0,0,1,.39-.19l.38-.13.38-.07.43,0a2.61,2.61,0,0,1,.87.13,1.75,1.75,0,0,1,.65.38,1.58,1.58,0,0,1,.4.63,2.71,2.71,0,0,1,.13.85v4Z" style="fill:#4d4d4d"/><path d="M276.73,98.38a1,1,0,0,1,0-.25.47.47,0,0,1,.12-.18.76.76,0,0,1,.19-.12.74.74,0,0,1,.48,0,.57.57,0,0,1,.18.12.37.37,0,0,1,.11.18.62.62,0,0,1,0,.25.6.6,0,0,1,0,.24.45.45,0,0,1-.29.29.74.74,0,0,1-.48,0,.52.52,0,0,1-.19-.11.57.57,0,0,1-.12-.18A.86.86,0,0,1,276.73,98.38Zm1,1.88v5.91h-.92v-5.83Z" style="fill:#4d4d4d"/><path d="M280.85,97.78v8.39h-.91V97.85Z" style="fill:#4d4d4d"/><path d="M287.51,97.78v8.39h-.89v-.39a1.81,1.81,0,0,1-.33.2l-.37.14a2.74,2.74,0,0,1-.39.09,2.83,2.83,0,0,1-.41,0,2.46,2.46,0,0,1-1-.19,2.11,2.11,0,0,1-.78-.54,2.63,2.63,0,0,1-.52-.9,3.88,3.88,0,0,1-.18-1.23,4.05,4.05,0,0,1,.21-1.34,2.78,2.78,0,0,1,.62-1,2.55,2.55,0,0,1,.93-.61,3.27,3.27,0,0,1,1.19-.21h.29a1.86,1.86,0,0,1,.26,0l.23,0,.22.06V97.85Zm-2,3.25a2,2,0,0,0-.8.15,1.68,1.68,0,0,0-.61.44,2.08,2.08,0,0,0-.39.72,3.12,3.12,0,0,0-.13,1,3.21,3.21,0,0,0,.12.92,1.61,1.61,0,0,0,.36.66,1.41,1.41,0,0,0,.54.4,1.78,1.78,0,0,0,.7.13l.36,0,.32-.07.29-.11.31-.17v-3.9l-.27,0a1.15,1.15,0,0,0-.26,0l-.27,0Z" style="fill:#4d4d4d"/><path d="M260.13,112.86a2.1,2.1,0,1,1,2.1-2.1A2.1,2.1,0,0,1,260.13,112.86Zm0-3.7a1.6,1.6,0,1,0,1.6,1.6A1.6,1.6,0,0,0,260.13,109.16Z" style="fill:#8b8f9e"/><path d="M210.21,68.73h-2.14V60.86h2.08a5.6,5.6,0,0,1,1.66.23,3.34,3.34,0,0,1,1.24.7,3.09,3.09,0,0,1,.78,1.17,4.75,4.75,0,0,1,.26,1.62,5.5,5.5,0,0,1-.27,1.8,3.6,3.6,0,0,1-.79,1.3,3.19,3.19,0,0,1-1.22.78A4.51,4.51,0,0,1,210.21,68.73ZM209,61.66v6.26h1.22a3.36,3.36,0,0,0,1.18-.19,2.4,2.4,0,0,0,.91-.61,2.6,2.6,0,0,0,.58-1,4.55,4.55,0,0,0,.21-1.46,3.71,3.71,0,0,0-.21-1.31,2.29,2.29,0,0,0-.59-.93,2.41,2.41,0,0,0-1-.56,4.14,4.14,0,0,0-1.27-.18Z" style="fill:#4d4d4d"/><path d="M215.58,65.8a4.41,4.41,0,0,1,.18-1.31,2.78,2.78,0,0,1,.53-1,2.25,2.25,0,0,1,.79-.58,2.38,2.38,0,0,1,.95-.2,2.79,2.79,0,0,1,.95.15,1.84,1.84,0,0,1,.7.45,2,2,0,0,1,.44.74,3.13,3.13,0,0,1,.15,1v.36a1.09,1.09,0,0,1,0,.18c0,.06,0,.12,0,.17h-3.76a3,3,0,0,0,.14,1,1.77,1.77,0,0,0,.39.67,1.73,1.73,0,0,0,.6.39,2.29,2.29,0,0,0,.76.12l.48,0,.45-.07a3.39,3.39,0,0,0,.43-.11l.43-.17v.83a3.67,3.67,0,0,1-.45.17l-.44.11a3.55,3.55,0,0,1-.47.08l-.54,0a3.27,3.27,0,0,1-1.11-.18,2.12,2.12,0,0,1-.85-.55,2.37,2.37,0,0,1-.55-.93A4.48,4.48,0,0,1,215.58,65.8Zm.95-.71h2.76a2.38,2.38,0,0,0-.09-.68,1.24,1.24,0,0,0-.25-.5,1,1,0,0,0-.41-.29,1.43,1.43,0,0,0-.56-.1,1.27,1.27,0,0,0-.52.11,1.42,1.42,0,0,0-.44.31,1.79,1.79,0,0,0-.32.5A2.47,2.47,0,0,0,216.53,65.09Z" style="fill:#4d4d4d"/><path d="M224.91,60.86h1v3.43h.67l2.81-3.43h1.12l-3.07,3.72,3.15,4.15h-1.22l-2.75-3.6h-.71v3.6h-1Z" style="fill:#4d4d4d"/><path d="M236.73,65.73a3.79,3.79,0,0,1-.21,1.29,2.74,2.74,0,0,1-.6,1,2.53,2.53,0,0,1-.87.62,2.66,2.66,0,0,1-1.05.21,2.74,2.74,0,0,1-1.06-.19,2,2,0,0,1-.81-.56,2.6,2.6,0,0,1-.52-.94,4.17,4.17,0,0,1-.18-1.28,3.57,3.57,0,0,1,.22-1.29,2.87,2.87,0,0,1,.59-1,2.53,2.53,0,0,1,.87-.62,2.49,2.49,0,0,1,1-.22,2.79,2.79,0,0,1,1.07.2,2.11,2.11,0,0,1,.82.56,2.6,2.6,0,0,1,.51.93A4.19,4.19,0,0,1,236.73,65.73Zm-.94,0a3.38,3.38,0,0,0-.12-1,2,2,0,0,0-.33-.7,1.44,1.44,0,0,0-.54-.41,1.73,1.73,0,0,0-.73-.14,1.51,1.51,0,0,0-1.22.59,2,2,0,0,0-.35.72,3.48,3.48,0,0,0-.12.95,3.84,3.84,0,0,0,.11,1,2,2,0,0,0,.34.7,1.44,1.44,0,0,0,.54.41,1.65,1.65,0,0,0,.72.14,1.45,1.45,0,0,0,1.23-.61,2.05,2.05,0,0,0,.35-.71A3.53,3.53,0,0,0,235.79,65.76Z" style="fill:#4d4d4d"/><path d="M243.48,65.73a3.57,3.57,0,0,1-.22,1.29,2.87,2.87,0,0,1-.59,1,2.56,2.56,0,0,1-.88.62,2.66,2.66,0,0,1-1,.21,2.78,2.78,0,0,1-1.06-.19,2,2,0,0,1-.81-.56,2.76,2.76,0,0,1-.52-.94,4.17,4.17,0,0,1-.18-1.28,3.79,3.79,0,0,1,.22-1.29,2.87,2.87,0,0,1,.59-1,2.73,2.73,0,0,1,.87-.62,2.5,2.5,0,0,1,1.05-.22A2.83,2.83,0,0,1,242,63a2,2,0,0,1,.81.56,2.47,2.47,0,0,1,.52.93A4.19,4.19,0,0,1,243.48,65.73Zm-.95,0a3.82,3.82,0,0,0-.11-1,2,2,0,0,0-.34-.7,1.44,1.44,0,0,0-.54-.41,1.67,1.67,0,0,0-.73-.14,1.57,1.57,0,0,0-.68.15,1.52,1.52,0,0,0-.54.44,2.2,2.2,0,0,0-.35.72,3.48,3.48,0,0,0-.12.95,3.4,3.4,0,0,0,.12,1,1.82,1.82,0,0,0,.33.7,1.44,1.44,0,0,0,.54.41,1.7,1.7,0,0,0,.73.14,1.54,1.54,0,0,0,.68-.15,1.58,1.58,0,0,0,.54-.46,2.05,2.05,0,0,0,.35-.71A3.53,3.53,0,0,0,242.53,65.76Z" style="fill:#4d4d4d"/><path d="M246,67.3a.45.45,0,0,0,0,.2.37.37,0,0,0,.13.15.57.57,0,0,0,.22.11,1.72,1.72,0,0,0,.34,0l1.57,0A2.59,2.59,0,0,1,249,68a1.39,1.39,0,0,1,.5.26,1,1,0,0,1,.29.4,1.19,1.19,0,0,1,.1.51,1.85,1.85,0,0,1-.17.78,1.93,1.93,0,0,1-.53.62,2.61,2.61,0,0,1-.89.4,4.6,4.6,0,0,1-1.23.15,4.37,4.37,0,0,1-1-.11,2.56,2.56,0,0,1-.75-.31,1.42,1.42,0,0,1-.46-.49,1.23,1.23,0,0,1-.17-.62,1.09,1.09,0,0,1,.08-.39,1.11,1.11,0,0,1,.2-.37,1.77,1.77,0,0,1,.31-.3,1.8,1.8,0,0,1,.37-.22v-.05l-.18-.12a.8.8,0,0,1-.15-.17,1.36,1.36,0,0,1-.1-.21.88.88,0,0,1,0-.24.78.78,0,0,1,0-.26.76.76,0,0,1,.13-.23,1,1,0,0,1,.46-.34v0a2.45,2.45,0,0,1-.37-.26,1.25,1.25,0,0,1-.28-.36,1.63,1.63,0,0,1-.18-.45,1.93,1.93,0,0,1-.07-.55,2.43,2.43,0,0,1,.16-.92,1.82,1.82,0,0,1,.46-.69,2.15,2.15,0,0,1,.74-.43,3.05,3.05,0,0,1,1-.15h.48l.23,0,.19,0H250v.68h-1.1v0a.76.76,0,0,1,.23.21,1.49,1.49,0,0,1,.18.3,1.8,1.8,0,0,1,.12.35,1.75,1.75,0,0,1,.05.4,2.19,2.19,0,0,1-.17.88,1.63,1.63,0,0,1-.47.63,1.89,1.89,0,0,1-.76.39,3.54,3.54,0,0,1-1,.14h-.35a.9.9,0,0,1-.16,0l-.15,0a.55.55,0,0,0-.15.08l-.12.11a.57.57,0,0,0-.08.13A.32.32,0,0,0,246,67.3Zm-.46,2.09a.77.77,0,0,0,.11.39,1,1,0,0,0,.32.3,1.7,1.7,0,0,0,.51.19,3.49,3.49,0,0,0,.69.07,4.3,4.3,0,0,0,.87-.08,1.51,1.51,0,0,0,.6-.21.84.84,0,0,0,.35-.32.73.73,0,0,0,.12-.41.78.78,0,0,0-.05-.28.45.45,0,0,0-.16-.2.81.81,0,0,0-.28-.12,1.71,1.71,0,0,0-.43-.06l-2-.1a1.83,1.83,0,0,0-.28.14.86.86,0,0,0-.2.18.76.76,0,0,0-.13.23A1.26,1.26,0,0,0,245.54,69.39Zm1.61-3.16a1.91,1.91,0,0,0,.62-.08,1.07,1.07,0,0,0,.43-.24,1,1,0,0,0,.26-.44,2.38,2.38,0,0,0,.08-.64,1.6,1.6,0,0,0-.09-.56,1.07,1.07,0,0,0-.26-.41,1.1,1.1,0,0,0-.42-.24,1.64,1.64,0,0,0-.56-.09,1.6,1.6,0,0,0-.56.09,1,1,0,0,0-.71.68,1.87,1.87,0,0,0-.09.61,1.81,1.81,0,0,0,.1.61.92.92,0,0,0,.27.41,1,1,0,0,0,.41.23A1.68,1.68,0,0,0,247.15,66.23Z" style="fill:#4d4d4d"/><path d="M228.7,75.42a2.1,2.1,0,1,1,2.1-2.1A2.1,2.1,0,0,1,228.7,75.42Zm0-3.69a1.6,1.6,0,1,0,1.6,1.59A1.6,1.6,0,0,0,228.7,71.73Z" style="fill:#8b8f9e"/><path d="M236.93,29h-2.14V21.11h2.08a5.6,5.6,0,0,1,1.66.23,3.34,3.34,0,0,1,1.24.7,3,3,0,0,1,.77,1.17,4.51,4.51,0,0,1,.27,1.62,5.23,5.23,0,0,1-.28,1.8,3.45,3.45,0,0,1-.78,1.3,3.34,3.34,0,0,1-1.22.79A4.75,4.75,0,0,1,236.93,29Zm-1.2-7.07v6.27H237a3.4,3.4,0,0,0,1.18-.2,2.47,2.47,0,0,0,.91-.61,2.73,2.73,0,0,0,.58-1,4.56,4.56,0,0,0,.2-1.46,3.72,3.72,0,0,0-.2-1.31,2.47,2.47,0,0,0-.59-.93,2.41,2.41,0,0,0-1-.56,4.14,4.14,0,0,0-1.27-.18Z" style="fill:#4d4d4d"/><path d="M242.3,26.05a4.41,4.41,0,0,1,.18-1.31,2.78,2.78,0,0,1,.53-1,2.21,2.21,0,0,1,.78-.58,2.43,2.43,0,0,1,1-.2,2.83,2.83,0,0,1,.95.15,1.84,1.84,0,0,1,.7.45,2,2,0,0,1,.44.74,3.13,3.13,0,0,1,.15,1v.36a1.09,1.09,0,0,1,0,.18.88.88,0,0,1,0,.17h-3.75a2.78,2.78,0,0,0,.14,1,1.63,1.63,0,0,0,1,1.06,2.35,2.35,0,0,0,.77.12l.48,0,.45-.07a3.89,3.89,0,0,0,.43-.11l.43-.17v.83a3.67,3.67,0,0,1-.45.17A4,4,0,0,1,246,29a3.55,3.55,0,0,1-.47.08l-.54,0a3.23,3.23,0,0,1-1.11-.18,2.23,2.23,0,0,1-.86-.55,2.48,2.48,0,0,1-.54-.93A4.48,4.48,0,0,1,242.3,26.05Zm.94-.71H246a2.4,2.4,0,0,0-.08-.68,1.24,1.24,0,0,0-.25-.5,1,1,0,0,0-.42-.29,1.38,1.38,0,0,0-.55-.1,1.27,1.27,0,0,0-.52.11,1.47,1.47,0,0,0-.76.81A2.59,2.59,0,0,0,243.24,25.34Z" style="fill:#4d4d4d"/><path d="M256.43,28.06v.81L256,29l-.38.06-.42,0h-.49a4.17,4.17,0,0,1-1.43-.24,3.37,3.37,0,0,1-1.15-.73,3.33,3.33,0,0,1-.76-1.21,4.7,4.7,0,0,1-.27-1.66,5.21,5.21,0,0,1,.31-1.84,3.71,3.71,0,0,1,.85-1.32,3.36,3.36,0,0,1,1.22-.77,4,4,0,0,1,1.41-.26l.43,0,.37,0,.35,0,.39.07-.11.84-.43-.08-.34-.05-.32,0h-.4a2.78,2.78,0,0,0-1,.2,2.47,2.47,0,0,0-.88.6,2.9,2.9,0,0,0-.61,1,4.57,4.57,0,0,0,0,2.77,2.68,2.68,0,0,0,.58,1,2.32,2.32,0,0,0,.87.59,3,3,0,0,0,1.08.19h.43l.37,0,.39-.05Z" style="fill:#4d4d4d"/><path d="M262.91,26a3.79,3.79,0,0,1-.21,1.29,3,3,0,0,1-.6,1,2.53,2.53,0,0,1-.87.62,2.73,2.73,0,0,1-1.05.21,2.8,2.8,0,0,1-1.07-.19,2.15,2.15,0,0,1-.81-.56,2.65,2.65,0,0,1-.51-.94,4.17,4.17,0,0,1-.18-1.28,3.79,3.79,0,0,1,.21-1.29,3,3,0,0,1,.6-1,2.53,2.53,0,0,1,.87-.62,2.46,2.46,0,0,1,1-.22,2.83,2.83,0,0,1,1.07.2,2.11,2.11,0,0,1,.82.56,2.6,2.6,0,0,1,.51.93A4.19,4.19,0,0,1,262.91,26Zm-1,0a3.43,3.43,0,0,0-.11-1,2,2,0,0,0-.34-.7A1.3,1.3,0,0,0,261,24a1.65,1.65,0,0,0-.72-.14,1.58,1.58,0,0,0-.69.15,1.72,1.72,0,0,0-.54.44,2.18,2.18,0,0,0-.34.72,3.5,3.5,0,0,0-.12,1,3.4,3.4,0,0,0,.11,1,2,2,0,0,0,.34.7,1.3,1.3,0,0,0,.54.41,1.65,1.65,0,0,0,.72.14,1.58,1.58,0,0,0,.69-.15,1.79,1.79,0,0,0,.54-.46,2,2,0,0,0,.34-.71A3.51,3.51,0,0,0,262,26Z" style="fill:#4d4d4d"/><path d="M268.31,23.18l-.1.83-.33-.06-.27-.05-.26,0h-.3a1.52,1.52,0,0,0-.67.14,1.65,1.65,0,0,0-.56.42,2.14,2.14,0,0,0-.38.68,2.85,2.85,0,0,0-.14.91,3.24,3.24,0,0,0,.14,1,1.94,1.94,0,0,0,.38.68,1.63,1.63,0,0,0,.58.4,2.08,2.08,0,0,0,.71.12h.33l.3,0,.3-.05.28-.08v.83L268,29l-.31.05-.33,0H267a3.23,3.23,0,0,1-1.06-.17,2.23,2.23,0,0,1-.84-.55,2.63,2.63,0,0,1-.55-.94,4.15,4.15,0,0,1-.2-1.34,3.59,3.59,0,0,1,.22-1.27,2.9,2.9,0,0,1,.6-1,2.62,2.62,0,0,1,1.91-.79h.33l.29,0,.29.05A2.06,2.06,0,0,1,268.31,23.18Z" style="fill:#4d4d4d"/><path d="M270.76,26.17V29h-.91V20.66l.91-.07v4.78h.53l2-2.26h1.11l-2.28,2.53L274.58,29h-1.14l-2.07-2.81Z" style="fill:#4d4d4d"/><path d="M275.34,28.86V28l.41.1.42.07.42,0H277a1.88,1.88,0,0,0,.55-.07A1.28,1.28,0,0,0,278,28a.83.83,0,0,0,.25-.28.86.86,0,0,0,.08-.36.94.94,0,0,0-.05-.3.64.64,0,0,0-.18-.25,1.42,1.42,0,0,0-.3-.2,3.33,3.33,0,0,0-.45-.16l-.69-.21a2.11,2.11,0,0,1-.53-.22,1.39,1.39,0,0,1-.39-.32,1.64,1.64,0,0,1-.24-.43,1.48,1.48,0,0,1-.08-.53,1.53,1.53,0,0,1,.15-.67,1.49,1.49,0,0,1,.43-.54,1.8,1.8,0,0,1,.67-.36,2.69,2.69,0,0,1,.87-.13h.39l.36,0,.34,0,.33.06-.1.79-.34-.06-.32,0-.33,0h-.37a2.12,2.12,0,0,0-.52.06,1.33,1.33,0,0,0-.38.17.8.8,0,0,0-.23.26.72.72,0,0,0-.08.32.9.9,0,0,0,0,.3.54.54,0,0,0,.15.22.86.86,0,0,0,.26.18,1.92,1.92,0,0,0,.37.14l.68.18a2.5,2.5,0,0,1,.62.24,1.64,1.64,0,0,1,.44.33,1,1,0,0,1,.26.42,1.36,1.36,0,0,1,.09.51,1.87,1.87,0,0,1-.16.75,1.69,1.69,0,0,1-.46.6,2,2,0,0,1-.7.39,2.67,2.67,0,0,1-.91.14h-.46l-.42,0a2.32,2.32,0,0,1-.38-.06Z" style="fill:#4d4d4d"/><path d="M285.4,20.59V29h-.89V28.6a2.59,2.59,0,0,1-.33.19l-.36.14a2.59,2.59,0,0,1-.4.09,2.83,2.83,0,0,1-.41,0,2.46,2.46,0,0,1-1-.19,2.11,2.11,0,0,1-.78-.54,2.46,2.46,0,0,1-.51-.9,3.59,3.59,0,0,1-.19-1.22,3.73,3.73,0,0,1,.22-1.34,2.59,2.59,0,0,1,.61-1,2.55,2.55,0,0,1,.93-.61,3.27,3.27,0,0,1,1.19-.21h.3l.25,0,.24,0,.21.06V20.66Zm-2,3.25a2,2,0,0,0-.8.15,1.67,1.67,0,0,0-.61.45,2,2,0,0,0-.39.71,3.56,3.56,0,0,0,0,1.87,2,2,0,0,0,.36.67,1.5,1.5,0,0,0,.54.39,1.83,1.83,0,0,0,.71.13l.36,0,.31-.07a1.82,1.82,0,0,0,.3-.11l.3-.17v-3.9l-.27,0a2.3,2.3,0,0,0-.26,0l-.26,0Z" style="fill:#4d4d4d"/><path d="M292.5,26a3.79,3.79,0,0,1-.21,1.29,2.89,2.89,0,0,1-.6,1,2.53,2.53,0,0,1-.87.62,2.66,2.66,0,0,1-1.05.21,2.74,2.74,0,0,1-1.06-.19,2,2,0,0,1-.81-.56,2.52,2.52,0,0,1-.52-.94,4.17,4.17,0,0,1-.18-1.28,3.57,3.57,0,0,1,.22-1.29,2.87,2.87,0,0,1,.59-1,2.53,2.53,0,0,1,.87-.62,2.49,2.49,0,0,1,1-.22,2.79,2.79,0,0,1,1.07.2,2.11,2.11,0,0,1,.82.56,2.6,2.6,0,0,1,.51.93A4.19,4.19,0,0,1,292.5,26Zm-.94,0a3.4,3.4,0,0,0-.12-1,2,2,0,0,0-.33-.7,1.44,1.44,0,0,0-.54-.41,1.73,1.73,0,0,0-.73-.14,1.51,1.51,0,0,0-1.22.59,2,2,0,0,0-.35.72,3.5,3.5,0,0,0-.12,1,3.82,3.82,0,0,0,.11,1,2,2,0,0,0,.34.7,1.44,1.44,0,0,0,.54.41,1.65,1.65,0,0,0,.72.14,1.45,1.45,0,0,0,1.23-.61,2.05,2.05,0,0,0,.35-.71A3.51,3.51,0,0,0,291.56,26Z" style="fill:#4d4d4d"/><path d="M297.14,23.12,297,24l-.18,0-.16,0-.16,0h-.17a1.43,1.43,0,0,0-.29,0,1.53,1.53,0,0,0-.27.11,1.93,1.93,0,0,0-.27.19,2.53,2.53,0,0,0-.31.28V29h-.92V23.15l.9-.08v.69a3.42,3.42,0,0,1,.33-.33,1.43,1.43,0,0,1,.3-.22,1.37,1.37,0,0,1,.31-.13,1.1,1.1,0,0,1,.31,0h.18l.16,0,.17,0Z" style="fill:#4d4d4d"/><path d="M298.52,31.27V23.15l.87-.08v.38c.12-.07.24-.12.37-.18l.38-.13.4-.08.44,0a2.8,2.8,0,0,1,1,.17,2,2,0,0,1,.76.54,2.43,2.43,0,0,1,.49.9,4.44,4.44,0,0,1,.17,1.27,3.56,3.56,0,0,1-.23,1.31,2.66,2.66,0,0,1-1.62,1.61,3.56,3.56,0,0,1-1.25.21h-.44l-.2,0-.21,0v2.3Zm1.89-3a2.16,2.16,0,0,0,.81-.15,1.83,1.83,0,0,0,.64-.42,2,2,0,0,0,.42-.71,2.93,2.93,0,0,0,.15-1,3.33,3.33,0,0,0-.12-.95,1.86,1.86,0,0,0-.34-.66,1.27,1.27,0,0,0-.54-.38,2.11,2.11,0,0,0-.73-.12l-.32,0-.32.05-.31.09a2.84,2.84,0,0,0-.32.14v4l.25,0a2,2,0,0,0,.24,0l.24,0Z" style="fill:#4d4d4d"/><path d="M268.91,35.67a2.1,2.1,0,1,1,2.1-2.1A2.11,2.11,0,0,1,268.91,35.67Zm0-3.69a1.6,1.6,0,1,0,1.6,1.59A1.6,1.6,0,0,0,268.91,32Z" style="fill:#8b8f9e"/><path d="M335.81,282.34h-.06l-.29,6.92h-.9l.38-7.87h1.44l2.09,5.21h0l2.06-5.21H342l.38,7.87h-1l-.3-6.92H341l-2.14,5.3H338Z" style="fill:#4d4d4d"/><path d="M344.26,286.33a4,4,0,0,1,.19-1.3,2.59,2.59,0,0,1,.52-1,2.28,2.28,0,0,1,.79-.59,2.37,2.37,0,0,1,.95-.19,2.79,2.79,0,0,1,1,.15,1.76,1.76,0,0,1,.7.45,2,2,0,0,1,.44.73,3.17,3.17,0,0,1,.15,1v.54c0,.06,0,.12,0,.18h-3.76a3,3,0,0,0,.14.95,1.7,1.7,0,0,0,.39.67,1.49,1.49,0,0,0,.6.39,2.29,2.29,0,0,0,.76.12,3.7,3.7,0,0,0,.48,0l.45-.07a2.26,2.26,0,0,0,.43-.11,4,4,0,0,0,.44-.17V289a3.78,3.78,0,0,1-.46.17,3.6,3.6,0,0,1-.44.12l-.47.07a4.44,4.44,0,0,1-.53,0,3.33,3.33,0,0,1-1.12-.18,2.21,2.21,0,0,1-.85-.54,2.35,2.35,0,0,1-.54-.94A4.13,4.13,0,0,1,344.26,286.33Zm.95-.7H348a2.4,2.4,0,0,0-.09-.69,1.31,1.31,0,0,0-.25-.5,1,1,0,0,0-.41-.29,1.64,1.64,0,0,0-.56-.1,1.31,1.31,0,0,0-.52.11,1.43,1.43,0,0,0-.43.31,1.74,1.74,0,0,0-.33.5A2.66,2.66,0,0,0,345.21,285.63Z" style="fill:#4d4d4d"/><path d="M355.17,280.87v8.39h-.89v-.38a2.59,2.59,0,0,1-.33.19,2.35,2.35,0,0,1-.37.14,2.46,2.46,0,0,1-.39.09,2.83,2.83,0,0,1-.41,0,2.64,2.64,0,0,1-1-.18,2.26,2.26,0,0,1-.78-.55,2.63,2.63,0,0,1-.52-.9,3.86,3.86,0,0,1-.18-1.22,4,4,0,0,1,.21-1.34,2.74,2.74,0,0,1,.62-1,2.69,2.69,0,0,1,.93-.61,3.27,3.27,0,0,1,1.19-.21h.29l.26,0,.24,0,.21.06V281Zm-2,3.26a2,2,0,0,0-.8.15,1.57,1.57,0,0,0-.61.44,1.91,1.91,0,0,0-.39.72,3.52,3.52,0,0,0,0,1.86,1.87,1.87,0,0,0,.36.67,1.39,1.39,0,0,0,.54.39,1.78,1.78,0,0,0,.7.13,2.06,2.06,0,0,0,.36,0l.32-.07a1.21,1.21,0,0,0,.3-.11l.3-.17v-3.9l-.27,0-.26,0-.27,0Z" style="fill:#4d4d4d"/><path d="M357,286.33a4.35,4.35,0,0,1,.18-1.3,2.61,2.61,0,0,1,.53-1,2.24,2.24,0,0,1,.78-.59,2.42,2.42,0,0,1,1-.19,2.79,2.79,0,0,1,.95.15,1.84,1.84,0,0,1,.7.45,2,2,0,0,1,.44.73,3.17,3.17,0,0,1,.15,1V286a1.09,1.09,0,0,1,0,.18c0,.06,0,.12,0,.18h-3.76a3,3,0,0,0,.14.95,1.7,1.7,0,0,0,.39.67,1.49,1.49,0,0,0,.6.39,2.24,2.24,0,0,0,.76.12,3.7,3.7,0,0,0,.48,0l.45-.07a2.26,2.26,0,0,0,.43-.11,3.83,3.83,0,0,0,.43-.17V289a3.67,3.67,0,0,1-.45.17,3.6,3.6,0,0,1-.44.12l-.47.07a4.61,4.61,0,0,1-.54,0,3.23,3.23,0,0,1-1.11-.18,2.21,2.21,0,0,1-.85-.54,2.49,2.49,0,0,1-.55-.94A4.43,4.43,0,0,1,357,286.33Zm.95-.7h2.76a2.4,2.4,0,0,0-.09-.69,1.31,1.31,0,0,0-.25-.5,1,1,0,0,0-.41-.29,1.64,1.64,0,0,0-.56-.1,1.27,1.27,0,0,0-.52.11,1.6,1.6,0,0,0-.44.31,1.71,1.71,0,0,0-.32.5A2.66,2.66,0,0,0,357.92,285.63Z" style="fill:#4d4d4d"/><path d="M370.53,289.26v-3.84a1.72,1.72,0,0,0-.08-.52,1,1,0,0,0-.24-.4,1.24,1.24,0,0,0-.4-.25,1.59,1.59,0,0,0-.55-.09l-.38,0-.32.05-.32.09-.38.14v4.8H367V285.4a1.81,1.81,0,0,0-.07-.54,1,1,0,0,0-.23-.39.94.94,0,0,0-.39-.23,2,2,0,0,0-.58-.08l-.39,0-.33.05a1.81,1.81,0,0,0-.31.09l-.36.14v4.8h-.91v-5.83l.87-.07v.39l.4-.2a1.9,1.9,0,0,1,.38-.13,2.32,2.32,0,0,1,.38-.07,2.81,2.81,0,0,1,.43,0,3,3,0,0,1,.52,0,2.12,2.12,0,0,1,.45.11,3.2,3.2,0,0,1,.37.19,2.55,2.55,0,0,1,.3.26l.5-.28a2.19,2.19,0,0,1,.46-.18,3.78,3.78,0,0,1,.46-.1,2.78,2.78,0,0,1,.51,0,3,3,0,0,1,.88.13,1.61,1.61,0,0,1,.63.39,1.64,1.64,0,0,1,.39.62,2.49,2.49,0,0,1,.13.85v3.95Z" style="fill:#4d4d4d"/><path d="M378.38,286.15a3.73,3.73,0,0,1-.23,1.34,2.75,2.75,0,0,1-.63,1,2.64,2.64,0,0,1-1,.62,3.56,3.56,0,0,1-1.25.21h-.45l-.42,0-.44,0-.46-.07V281l.91-.08v2.85a3.26,3.26,0,0,1,.38-.18,3.48,3.48,0,0,1,1.17-.22,2.59,2.59,0,0,1,1,.18,1.91,1.91,0,0,1,.76.52,2.47,2.47,0,0,1,.49.89A4.22,4.22,0,0,1,378.38,286.15Zm-.95.09a3.3,3.3,0,0,0-.12-.94,1.9,1.9,0,0,0-.34-.65,1.45,1.45,0,0,0-.54-.37,2.11,2.11,0,0,0-.73-.12l-.32,0-.32.05-.31.1-.32.13v4a2.3,2.3,0,0,0,.26,0l.24,0h.48a2.32,2.32,0,0,0,.8-.14,1.7,1.7,0,0,0,.64-.42,1.85,1.85,0,0,0,.43-.72A3.11,3.11,0,0,0,377.43,286.24Z" style="fill:#4d4d4d"/><path d="M381.09,280.87v8.39h-.91V281Z" style="fill:#4d4d4d"/><path d="M383.12,281.47a.64.64,0,0,1,0-.24.52.52,0,0,1,.12-.19.54.54,0,0,1,.18-.11.67.67,0,0,1,.24,0,.61.61,0,0,1,.24,0,.4.4,0,0,1,.18.11.57.57,0,0,1,.12.18.66.66,0,0,1,0,.25.61.61,0,0,1,0,.24.55.55,0,0,1-.3.3.61.61,0,0,1-.24,0,.67.67,0,0,1-.24,0,.57.57,0,0,1-.18-.12.41.41,0,0,1-.12-.18A.61.61,0,0,1,383.12,281.47Zm1,1.89v5.9h-.91v-5.83Z" style="fill:#4d4d4d"/><path d="M387.23,286.45v2.81h-.91V281l.91-.08v4.78h.53l2-2.26h1.11l-2.28,2.53,2.49,3.34h-1.14l-2.07-2.81Z" style="fill:#4d4d4d"/><path d="M362.41,296a2.1,2.1,0,1,1,2.1-2.09A2.1,2.1,0,0,1,362.41,296Zm0-3.69a1.6,1.6,0,1,0,1.6,1.6A1.6,1.6,0,0,0,362.41,292.26Z" style="fill:#8b8f9e"/><path d="M403.75,333.82V326h3.89v.84H404.7v2.56h2.65v.84H404.7V333h3v.84Z" style="fill:#4d4d4d"/><path d="M413.26,333.82V330a1.46,1.46,0,0,0-.08-.52,1,1,0,0,0-.25-.38,1.11,1.11,0,0,0-.42-.26,1.59,1.59,0,0,0-.55-.09l-.38,0-.33.05-.34.09-.36.14v4.8h-.91V328l.88-.07v.4a2.4,2.4,0,0,1,.39-.2,3.43,3.43,0,0,1,.38-.13,1.59,1.59,0,0,1,.39-.08,3,3,0,0,1,.44,0,2.66,2.66,0,0,1,.88.14,1.62,1.62,0,0,1,.65.38,1.6,1.6,0,0,1,.39.62,2.52,2.52,0,0,1,.14.85v3.95Z" style="fill:#4d4d4d"/><path d="M417.16,331v2.8h-.91v-8.31l.91-.07v4.77h.53l2-2.26h1.12l-2.28,2.53,2.48,3.34h-1.14l-2.06-2.8Z" style="fill:#4d4d4d"/><path d="M425.84,333.82V330a1.72,1.72,0,0,0-.08-.52.92.92,0,0,0-.26-.38,1.15,1.15,0,0,0-.41-.26,1.6,1.6,0,0,0-.56-.09l-.38,0-.33.05-.33.09-.36.14v4.8h-.92v-8.31l.92-.07v2.85l.39-.18a1.82,1.82,0,0,1,.37-.13,2.32,2.32,0,0,1,.38-.07,3,3,0,0,1,.43,0,2.66,2.66,0,0,1,.88.14,1.58,1.58,0,0,1,.64.38,1.62,1.62,0,0,1,.4.62,2.53,2.53,0,0,1,.13.85v3.95Z" style="fill:#4d4d4d"/><path d="M429.66,327.92v3.88a1.59,1.59,0,0,0,.08.55.88.88,0,0,0,.25.39.9.9,0,0,0,.4.24,1.55,1.55,0,0,0,.55.09l.38,0a1.52,1.52,0,0,0,.32-.06l.31-.09.37-.13V328l.91-.07v5.9h-.89v-.36a2.72,2.72,0,0,1-.37.2,3.17,3.17,0,0,1-.76.22,2.81,2.81,0,0,1-.43,0,2.91,2.91,0,0,1-.88-.13,1.55,1.55,0,0,1-.63-.38,1.46,1.46,0,0,1-.39-.63,2.56,2.56,0,0,1-.14-.87V328Z" style="fill:#4d4d4d"/><path d="M435.26,326a.64.64,0,0,1,0-.24.52.52,0,0,1,.12-.19.59.59,0,0,1,.19-.11.74.74,0,0,1,.48,0,.54.54,0,0,1,.18.11.78.78,0,0,1,.11.18.8.8,0,0,1,0,.5.56.56,0,0,1-.11.17.57.57,0,0,1-.18.12.74.74,0,0,1-.48,0,.62.62,0,0,1-.19-.12.43.43,0,0,1-.12-.17A.69.69,0,0,1,435.26,326Zm1,1.89v5.9h-.91V328Z" style="fill:#4d4d4d"/><path d="M438,328.72V328h3.91v.77L438.87,333v0H442v.77h-4.14V333l3.08-4.28v0Z" style="fill:#4d4d4d"/><path d="M443.2,330.9a4.35,4.35,0,0,1,.19-1.31,2.59,2.59,0,0,1,.52-1,2.22,2.22,0,0,1,1.75-.78,2.77,2.77,0,0,1,.94.15,1.87,1.87,0,0,1,.71.45,1.93,1.93,0,0,1,.43.74,3.11,3.11,0,0,1,.15,1v.54c0,.06,0,.12,0,.18h-3.75a3,3,0,0,0,.13.95,2,2,0,0,0,.39.67,1.49,1.49,0,0,0,.6.39,2.3,2.3,0,0,0,.77.12,3.85,3.85,0,0,0,.48,0c.15,0,.3,0,.44-.06a3.6,3.6,0,0,0,.44-.12c.14-.05.28-.1.43-.17v.83l-.46.18-.44.11a3.31,3.31,0,0,1-.47.07,4.33,4.33,0,0,1-.53,0,3.23,3.23,0,0,1-1.11-.19,2.14,2.14,0,0,1-.86-.54,2.28,2.28,0,0,1-.54-.94A4.39,4.39,0,0,1,443.2,330.9Zm.95-.71h2.76a2.84,2.84,0,0,0-.08-.69,1.47,1.47,0,0,0-.25-.5,1.22,1.22,0,0,0-.42-.29,1.6,1.6,0,0,0-.56-.1,1.26,1.26,0,0,0-.51.11,1.47,1.47,0,0,0-.44.31,1.71,1.71,0,0,0-.32.5A2.29,2.29,0,0,0,444.15,330.19Z" style="fill:#4d4d4d"/><path d="M453.24,333.82V330a1.46,1.46,0,0,0-.09-.52.9.9,0,0,0-.25-.38,1.15,1.15,0,0,0-.41-.26,1.69,1.69,0,0,0-.56-.09l-.38,0-.33.05-.34.09-.36.14v4.8h-.91V328l.88-.07v.4a2.89,2.89,0,0,1,.39-.2,3.43,3.43,0,0,1,.38-.13,1.69,1.69,0,0,1,.39-.08,3.19,3.19,0,0,1,.45,0,2.65,2.65,0,0,1,.87.14,1.62,1.62,0,0,1,.65.38,1.74,1.74,0,0,1,.4.62,2.81,2.81,0,0,1,.13.85v3.95Z" style="fill:#4d4d4d"/><path d="M428.92,340.52a2.1,2.1,0,1,1,2.1-2.1A2.11,2.11,0,0,1,428.92,340.52Zm0-3.7a1.6,1.6,0,1,0,1.6,1.6A1.6,1.6,0,0,0,428.92,336.82Z" style="fill:#8b8f9e"/><path d="M384.34,356.44l-2.49-7.88h1.06l2.12,6.93h0l2.16-6.93h1l-2.53,7.88Z" style="fill:#4d4d4d"/><path d="M388.89,353.51a4.06,4.06,0,0,1,.19-1.31,2.76,2.76,0,0,1,.52-1,2.13,2.13,0,0,1,.79-.58,2.38,2.38,0,0,1,.95-.2,2.79,2.79,0,0,1,1,.15,1.76,1.76,0,0,1,.7.45,1.9,1.9,0,0,1,.44.74,3.11,3.11,0,0,1,.15,1v.55c0,.06,0,.12,0,.17H389.8a3,3,0,0,0,.14,1,1.66,1.66,0,0,0,.39.66,1.49,1.49,0,0,0,.6.39,2.06,2.06,0,0,0,.76.13,3.64,3.64,0,0,0,.48,0,3.25,3.25,0,0,0,.45-.06,3.45,3.45,0,0,0,.43-.12,3.89,3.89,0,0,0,.44-.16v.82a3.93,3.93,0,0,1-.46.18l-.44.11a3.31,3.31,0,0,1-.47.07,4.39,4.39,0,0,1-.54,0,3.27,3.27,0,0,1-1.11-.18,2.12,2.12,0,0,1-.85-.55,2.24,2.24,0,0,1-.54-.93A4.17,4.17,0,0,1,388.89,353.51Zm.95-.71h2.76a2.33,2.33,0,0,0-.09-.68,1.24,1.24,0,0,0-.25-.5,1.12,1.12,0,0,0-.41-.3,1.64,1.64,0,0,0-.56-.09,1.16,1.16,0,0,0-.52.11,1.27,1.27,0,0,0-.43.31,1.5,1.5,0,0,0-.33.5A2.47,2.47,0,0,0,389.84,352.8Z" style="fill:#4d4d4d"/><path d="M398.92,356.44v-3.86a1.6,1.6,0,0,0-.08-.51,1.14,1.14,0,0,0-.25-.39,1.17,1.17,0,0,0-.42-.25,1.6,1.6,0,0,0-.56-.09h-.37c-.11,0-.22,0-.33.06a1.89,1.89,0,0,0-.34.09,2.4,2.4,0,0,0-.36.14v4.8h-.91V350.6l.87-.07v.4a3,3,0,0,1,.4-.2,2.84,2.84,0,0,1,.38-.13,2.24,2.24,0,0,1,.39-.08,3,3,0,0,1,.44,0,2.67,2.67,0,0,1,.88.13,1.83,1.83,0,0,1,.65.38,1.68,1.68,0,0,1,.39.63,2.45,2.45,0,0,1,.13.85v3.95Z" style="fill:#4d4d4d"/><path d="M405.53,356.44v-3.86a1.37,1.37,0,0,0-.08-.51,1.14,1.14,0,0,0-.25-.39,1.09,1.09,0,0,0-.42-.25,1.59,1.59,0,0,0-.55-.09h-.38a3.43,3.43,0,0,0-.34.06,2,2,0,0,0-.33.09,2.4,2.4,0,0,0-.36.14v4.8h-.91v-8.32l.91-.07v2.85l.39-.18a3.3,3.3,0,0,1,.37-.13l.39-.07a2.82,2.82,0,0,1,.42,0,2.67,2.67,0,0,1,.88.13,1.75,1.75,0,0,1,.65.38,1.56,1.56,0,0,1,.39.63,2.44,2.44,0,0,1,.14.85v3.95Z" style="fill:#4d4d4d"/><path d="M409.35,350.53v3.89a1.8,1.8,0,0,0,.08.54,1.09,1.09,0,0,0,.25.4,1.22,1.22,0,0,0,.4.24,1.87,1.87,0,0,0,.55.08l.39,0,.32-.05.3-.09.37-.14V350.6l.92-.07v5.91H412v-.36a2.61,2.61,0,0,1-.37.19,3.44,3.44,0,0,1-.37.14l-.39.08a3,3,0,0,1-.43,0,2.59,2.59,0,0,1-.88-.13A1.52,1.52,0,0,1,409,356a1.68,1.68,0,0,1-.39-.63,2.55,2.55,0,0,1-.13-.86V350.6Z" style="fill:#4d4d4d"/><path d="M415,348.65a.7.7,0,0,1,.05-.25.32.32,0,0,1,.12-.18.57.57,0,0,1,.18-.12.74.74,0,0,1,.48,0,.57.57,0,0,1,.18.12.41.41,0,0,1,.12.18.87.87,0,0,1,0,.25.86.86,0,0,1,0,.24.57.57,0,0,1-.12.18.54.54,0,0,1-.18.11.74.74,0,0,1-.48,0,.54.54,0,0,1-.18-.11.36.36,0,0,1-.12-.18A.6.6,0,0,1,415,348.65Zm1.05,1.88v5.91h-.91V350.6Z" style="fill:#4d4d4d"/><path d="M417.73,351.34v-.77h3.91v.77l-3.07,4.28v.05h3.13v.77h-4.14v-.78l3.07-4.29v0Z" style="fill:#4d4d4d"/><path d="M422.9,353.51a4.37,4.37,0,0,1,.18-1.31,2.78,2.78,0,0,1,.53-1,2.1,2.1,0,0,1,.78-.58,2.43,2.43,0,0,1,1-.2,2.79,2.79,0,0,1,.95.15,1.84,1.84,0,0,1,.7.45,2,2,0,0,1,.44.74,3.11,3.11,0,0,1,.15,1v.37a1.09,1.09,0,0,1,0,.18c0,.06,0,.12,0,.17h-3.76a3,3,0,0,0,.14,1,1.66,1.66,0,0,0,.39.66,1.49,1.49,0,0,0,.6.39,2,2,0,0,0,.76.13,3.64,3.64,0,0,0,.48,0,3.23,3.23,0,0,0,.88-.18,3.75,3.75,0,0,0,.43-.16v.82a3.83,3.83,0,0,1-.45.18l-.44.11a3.54,3.54,0,0,1-.47.07,4.5,4.5,0,0,1-.54,0,3.23,3.23,0,0,1-1.11-.18,2.23,2.23,0,0,1-.86-.55,2.48,2.48,0,0,1-.54-.93A4.48,4.48,0,0,1,422.9,353.51Zm1-.71h2.76a2.33,2.33,0,0,0-.09-.68,1.38,1.38,0,0,0-.25-.5,1.12,1.12,0,0,0-.41-.3,1.64,1.64,0,0,0-.56-.09,1.13,1.13,0,0,0-.52.11,1.42,1.42,0,0,0-.44.31,1.48,1.48,0,0,0-.32.5A2.47,2.47,0,0,0,423.85,352.8Z" style="fill:#4d4d4d"/><path d="M432.93,356.44v-3.86a1.6,1.6,0,0,0-.08-.51,1,1,0,0,0-.26-.39,1.13,1.13,0,0,0-.41-.25,1.6,1.6,0,0,0-.56-.09h-.37l-.34.06a2,2,0,0,0-.33.09,2.4,2.4,0,0,0-.36.14v4.8h-.91V350.6l.87-.07v.4a3,3,0,0,1,.4-.2,2.84,2.84,0,0,1,.38-.13,2.24,2.24,0,0,1,.39-.08,3,3,0,0,1,.44,0,2.67,2.67,0,0,1,.88.13,1.7,1.7,0,0,1,.64.38,1.58,1.58,0,0,1,.4.63,2.45,2.45,0,0,1,.13.85v3.95Z" style="fill:#4d4d4d"/><path d="M408.3,363.13a2.1,2.1,0,1,1,2.1-2.1A2.1,2.1,0,0,1,408.3,363.13Zm0-3.7a1.6,1.6,0,1,0,1.6,1.6A1.6,1.6,0,0,0,408.3,359.43Z" style="fill:#8b8f9e"/><path d="M300.26,236.06l-2.2-7.88h1.07l1.79,6.93H301l1.67-4.86-.69-2.07h1l2.23,6.93h.06l1.83-6.93h1l-2.24,7.88h-1.26l-1.48-4.58h-.05l-1.53,4.58Z" style="fill:#4d4d4d"/><path d="M309.35,228.27a.7.7,0,0,1,0-.25.32.32,0,0,1,.12-.18.57.57,0,0,1,.18-.12.74.74,0,0,1,.48,0,.57.57,0,0,1,.18.12.41.41,0,0,1,.12.18.87.87,0,0,1,0,.25.86.86,0,0,1,0,.24.57.57,0,0,1-.12.18.54.54,0,0,1-.18.11.74.74,0,0,1-.48,0,.54.54,0,0,1-.18-.11.36.36,0,0,1-.12-.18A.6.6,0,0,1,309.35,228.27Zm1,1.88v5.91h-.91v-5.84Z" style="fill:#4d4d4d"/><path d="M312.2,233.13a4.37,4.37,0,0,1,.18-1.31,2.78,2.78,0,0,1,.53-1,2.06,2.06,0,0,1,.79-.58,2.38,2.38,0,0,1,.95-.2,2.79,2.79,0,0,1,1,.15,1.84,1.84,0,0,1,.7.45,2,2,0,0,1,.44.74,3.11,3.11,0,0,1,.15,1v.37a1.09,1.09,0,0,1,0,.18c0,.06,0,.12,0,.17h-3.76a3,3,0,0,0,.14,1,1.77,1.77,0,0,0,.39.67,1.58,1.58,0,0,0,.6.38,2,2,0,0,0,.76.13,3.64,3.64,0,0,0,.48,0,3.23,3.23,0,0,0,.88-.18,3.75,3.75,0,0,0,.43-.16v.82a3.83,3.83,0,0,1-.45.18l-.44.11a3.54,3.54,0,0,1-.47.07,4.5,4.5,0,0,1-.54,0,3.23,3.23,0,0,1-1.11-.18,2.12,2.12,0,0,1-.85-.55,2.37,2.37,0,0,1-.55-.93A4.48,4.48,0,0,1,312.2,233.13Zm.95-.71h2.76a2.33,2.33,0,0,0-.09-.68,1.24,1.24,0,0,0-.25-.5,1.12,1.12,0,0,0-.41-.3,1.64,1.64,0,0,0-.56-.09,1.13,1.13,0,0,0-.52.11,1.42,1.42,0,0,0-.44.31,1.48,1.48,0,0,0-.32.5A2.47,2.47,0,0,0,313.15,232.42Z" style="fill:#4d4d4d"/><path d="M321.44,230.2l-.11.9-.18,0-.16,0-.16,0h-.17a1.26,1.26,0,0,0-.28,0,.81.81,0,0,0-.27.11l-.28.18a2.68,2.68,0,0,0-.31.29v4.44h-.91v-5.84l.9-.07v.69a3.4,3.4,0,0,1,.32-.33,1.55,1.55,0,0,1,.31-.23,1.88,1.88,0,0,1,.3-.12,1.15,1.15,0,0,1,.31,0h.35l.16,0Z" style="fill:#4d4d4d"/><path d="M322.69,228.27a.69.69,0,0,1,0-.25.47.47,0,0,1,.12-.18.57.57,0,0,1,.18-.12.67.67,0,0,1,.24,0,.61.61,0,0,1,.24,0,.55.55,0,0,1,.3.3.62.62,0,0,1,0,.25.61.61,0,0,1,0,.24.57.57,0,0,1-.12.18.4.4,0,0,1-.18.11.61.61,0,0,1-.24,0,.67.67,0,0,1-.24,0,.54.54,0,0,1-.18-.11.57.57,0,0,1-.12-.18A.61.61,0,0,1,322.69,228.27Zm1,1.88v5.91h-.91v-5.84Z" style="fill:#4d4d4d"/><path d="M329.51,236.06V232.2a1.37,1.37,0,0,0-.08-.51,1.14,1.14,0,0,0-.25-.39,1.09,1.09,0,0,0-.42-.25,1.59,1.59,0,0,0-.55-.09h-.38l-.33.06a2.14,2.14,0,0,0-.34.09,2.4,2.4,0,0,0-.36.14v4.8h-.91v-5.84l.88-.07v.4a2.4,2.4,0,0,1,.39-.2,3.43,3.43,0,0,1,.38-.13,2.24,2.24,0,0,1,.39-.08,3.1,3.1,0,0,1,.44,0,2.67,2.67,0,0,1,.88.13,1.75,1.75,0,0,1,.65.38,1.56,1.56,0,0,1,.39.63,2.44,2.44,0,0,1,.14.85v3.95Z" style="fill:#4d4d4d"/><path d="M333.22,234.63a.65.65,0,0,0,0,.2.37.37,0,0,0,.13.15.49.49,0,0,0,.23.1,1.11,1.11,0,0,0,.33,0l1.58,0a2.46,2.46,0,0,1,.71.11,1.39,1.39,0,0,1,.5.26,1,1,0,0,1,.3.4,1.36,1.36,0,0,1,.09.51,1.62,1.62,0,0,1-.7,1.39,2.37,2.37,0,0,1-.89.41,4.5,4.5,0,0,1-1.23.15,4.28,4.28,0,0,1-1-.11,2.35,2.35,0,0,1-.75-.31,1.46,1.46,0,0,1-.47-.49,1.26,1.26,0,0,1-.16-.63,1.15,1.15,0,0,1,.07-.39,1.58,1.58,0,0,1,.2-.36,2.36,2.36,0,0,1,.32-.31,2,2,0,0,1,.37-.22v-.05a.76.76,0,0,1-.19-.12.57.57,0,0,1-.15-.16,1,1,0,0,1-.09-.21.61.61,0,0,1,0-.24.75.75,0,0,1,0-.26,1,1,0,0,1,.33-.43.87.87,0,0,1,.27-.14v0a2,2,0,0,1-.38-.26,1.39,1.39,0,0,1-.28-.35,2.75,2.75,0,0,1-.18-.46,2.32,2.32,0,0,1-.06-.55,2.63,2.63,0,0,1,.15-.91,1.94,1.94,0,0,1,.46-.69,2.13,2.13,0,0,1,.75-.43,3,3,0,0,1,1-.15h.23l.25,0,.22,0,.2,0h1.8v.69H336.1v0a1,1,0,0,1,.24.22l.18.29a1.9,1.9,0,0,1,.12.36,2.58,2.58,0,0,1,0,.39,2.44,2.44,0,0,1-.16.89,1.66,1.66,0,0,1-.48.63,2.18,2.18,0,0,1-.76.39,3.53,3.53,0,0,1-1,.13h-.35l-.16,0-.15,0a.52.52,0,0,0-.15.07.65.65,0,0,0-.12.11.51.51,0,0,0-.09.13A.4.4,0,0,0,333.22,234.63Zm-.45,2.09a.76.76,0,0,0,.1.39,1.16,1.16,0,0,0,.32.3,2,2,0,0,0,.51.19,3.58,3.58,0,0,0,.7.06,4.51,4.51,0,0,0,.87-.07,2.1,2.1,0,0,0,.6-.21,1.09,1.09,0,0,0,.35-.32.85.85,0,0,0,.11-.42.76.76,0,0,0-.05-.27.43.43,0,0,0-.15-.2,1.32,1.32,0,0,0-.29-.13,2.11,2.11,0,0,0-.42-.06l-2-.09a1.15,1.15,0,0,0-.27.14.91.91,0,0,0-.21.18.71.71,0,0,0-.12.23A.86.86,0,0,0,332.77,236.72Zm1.6-3.16a2.22,2.22,0,0,0,.62-.08,1,1,0,0,0,.43-.24.92.92,0,0,0,.26-.44,2,2,0,0,0,.09-.64,1.7,1.7,0,0,0-.09-.57,1,1,0,0,0-.27-.4,1.09,1.09,0,0,0-.42-.25,1.89,1.89,0,0,0-.56-.08,2,2,0,0,0-.56.08,1.1,1.1,0,0,0-.43.26,1.12,1.12,0,0,0-.27.43,1.8,1.8,0,0,0-.09.6,1.89,1.89,0,0,0,.09.62,1.13,1.13,0,0,0,.27.41,1.27,1.27,0,0,0,.41.23A1.72,1.72,0,0,0,334.37,233.56Z" style="fill:#4d4d4d"/><path d="M338.33,233.13a4.35,4.35,0,0,1,.19-1.31,2.76,2.76,0,0,1,.52-1,2.22,2.22,0,0,1,.79-.58,2.39,2.39,0,0,1,1-.2,2.73,2.73,0,0,1,.94.15,1.87,1.87,0,0,1,.71.45,2,2,0,0,1,.44.74,3.11,3.11,0,0,1,.15,1v.37c0,.06,0,.12,0,.18a.88.88,0,0,1,0,.17h-3.75a3.05,3.05,0,0,0,.13,1,1.93,1.93,0,0,0,.4.67,1.47,1.47,0,0,0,.59.38,2.11,2.11,0,0,0,.77.13,3.87,3.87,0,0,0,.48,0,3.11,3.11,0,0,0,.44-.06,3.6,3.6,0,0,0,.44-.12,3.75,3.75,0,0,0,.43-.16v.82a3.35,3.35,0,0,1-.46.18L342,236a3.31,3.31,0,0,1-.47.07,4.33,4.33,0,0,1-.53,0,3.23,3.23,0,0,1-1.11-.18,2.16,2.16,0,0,1-.86-.55,2.36,2.36,0,0,1-.54-.93A4.46,4.46,0,0,1,338.33,233.13Zm.95-.71H342a2.76,2.76,0,0,0-.08-.68,1.38,1.38,0,0,0-.25-.5,1.15,1.15,0,0,0-.42-.3,1.6,1.6,0,0,0-.56-.09,1.12,1.12,0,0,0-.51.11,1.31,1.31,0,0,0-.44.31,1.48,1.48,0,0,0-.32.5A2.14,2.14,0,0,0,339.28,232.42Z" style="fill:#4d4d4d"/><path d="M347.57,230.2l-.1.9-.18,0-.17,0-.15,0h-.18a1.35,1.35,0,0,0-.28,0,1,1,0,0,0-.27.11,2.11,2.11,0,0,0-.27.18,3.82,3.82,0,0,0-.32.29v4.44h-.91v-5.84l.9-.07v.69a2.57,2.57,0,0,1,.33-.33,1.5,1.5,0,0,1,.3-.23,1.66,1.66,0,0,1,.31-.12,1.1,1.1,0,0,1,.31,0h.34l.16,0Z" style="fill:#4d4d4d"/><path d="M356.39,230.19l-1.85,5.87h-1.16l-1.08-3.56h-.06l-1,3.56H350l-1.85-5.87h1l1.43,5h.06l1.16-3.86-.38-1.17h1l1.48,5h.06l1.41-5Z" style="fill:#4d4d4d"/><path d="M357.45,233.13a4.37,4.37,0,0,1,.18-1.31,2.78,2.78,0,0,1,.53-1,2.13,2.13,0,0,1,.79-.58,2.38,2.38,0,0,1,.95-.2,2.79,2.79,0,0,1,1,.15,1.84,1.84,0,0,1,.7.45,2,2,0,0,1,.44.74,3.11,3.11,0,0,1,.15,1v.37a1.09,1.09,0,0,1,0,.18c0,.06,0,.12,0,.17h-3.76a3,3,0,0,0,.14,1,1.77,1.77,0,0,0,.39.67,1.58,1.58,0,0,0,.6.38,2.06,2.06,0,0,0,.76.13,3.64,3.64,0,0,0,.48,0,3.23,3.23,0,0,0,.88-.18,3.16,3.16,0,0,0,.43-.16v.82a3.83,3.83,0,0,1-.45.18l-.44.11a3.54,3.54,0,0,1-.47.07,4.39,4.39,0,0,1-.54,0A3.27,3.27,0,0,1,359,236a2.12,2.12,0,0,1-.85-.55,2.37,2.37,0,0,1-.55-.93A4.48,4.48,0,0,1,357.45,233.13Zm.95-.71h2.76a2.33,2.33,0,0,0-.09-.68,1.24,1.24,0,0,0-.25-.5,1.12,1.12,0,0,0-.41-.3,1.64,1.64,0,0,0-.56-.09,1.16,1.16,0,0,0-.52.11,1.42,1.42,0,0,0-.44.31,1.65,1.65,0,0,0-.32.5A2.47,2.47,0,0,0,358.4,232.42Z" style="fill:#4d4d4d"/><path d="M366.69,230.2l-.11.9-.18,0-.16,0-.16,0h-.17a1.26,1.26,0,0,0-.28,0,1,1,0,0,0-.27.11l-.28.18a3.85,3.85,0,0,0-.31.29v4.44h-.91v-5.84l.9-.07v.69a3.4,3.4,0,0,1,.32-.33,1.9,1.9,0,0,1,.31-.23,1.88,1.88,0,0,1,.3-.12,1.17,1.17,0,0,1,.32,0h.34l.16,0Z" style="fill:#4d4d4d"/><path d="M368.25,230.92h-.72v-.73h.72v-.67a2.13,2.13,0,0,1,.13-.78,1.5,1.5,0,0,1,1-1,2.6,2.6,0,0,1,.87-.14h.23l.21,0,.2,0,.18,0-.11.79-.17,0-.18,0-.19,0h-.19a1.65,1.65,0,0,0-.48.06.88.88,0,0,0-.34.2.89.89,0,0,0-.19.33,1.56,1.56,0,0,0-.06.46v.69h1.51v.73h-1.51v5.14h-.91Z" style="fill:#4d4d4d"/><path d="M334.48,242.75a2.1,2.1,0,1,1,2.09-2.1A2.1,2.1,0,0,1,334.48,242.75Zm0-3.7a1.6,1.6,0,1,0,1.59,1.6A1.6,1.6,0,0,0,334.48,239.05Z" style="fill:#8b8f9e"/><path d="M221.88,275.86V275l.51.1.46.06.45,0h.47a2.64,2.64,0,0,0,.76-.1,2,2,0,0,0,.6-.28,1.12,1.12,0,0,0,.37-.44,1.31,1.31,0,0,0,.12-.56,1.53,1.53,0,0,0-.06-.45,1,1,0,0,0-.22-.35,1.46,1.46,0,0,0-.38-.29,3.87,3.87,0,0,0-.57-.25l-1-.34a2.15,2.15,0,0,1-.59-.28,1.79,1.79,0,0,1-.75-.94,1.87,1.87,0,0,1-.1-.64,2.08,2.08,0,0,1,.19-.9,2,2,0,0,1,.55-.72,2.62,2.62,0,0,1,.86-.46,3.39,3.39,0,0,1,1.13-.17h.44c.14,0,.28,0,.4,0l.38,0,.37.07-.1.85-.38-.06-.37-.05-.38,0h-.42a2.75,2.75,0,0,0-.73.09,1.81,1.81,0,0,0-.54.26,1.27,1.27,0,0,0-.34.4,1,1,0,0,0-.11.5,1.33,1.33,0,0,0,.06.42.8.8,0,0,0,.19.32,1.46,1.46,0,0,0,.33.26,3.79,3.79,0,0,0,.48.21l1,.33a3.26,3.26,0,0,1,.7.32,1.87,1.87,0,0,1,.49.43,1.93,1.93,0,0,1,.29.55,2.5,2.5,0,0,1,.09.69,2.42,2.42,0,0,1-.2,1,2.27,2.27,0,0,1-.58.76,2.63,2.63,0,0,1-.91.48,3.76,3.76,0,0,1-1.19.17h-.48l-.45,0-.43-.05A3.54,3.54,0,0,1,221.88,275.86Z" style="fill:#4d4d4d"/><path d="M232,270.16l-.1.83-.33-.06-.27-.05-.26,0h-.29a1.69,1.69,0,0,0-.68.14,1.65,1.65,0,0,0-.56.43,1.94,1.94,0,0,0-.38.68,2.74,2.74,0,0,0-.14.9,3.24,3.24,0,0,0,.14,1,1.86,1.86,0,0,0,.38.68,1.63,1.63,0,0,0,.58.4,2.09,2.09,0,0,0,.72.12h.32l.31,0,.29,0,.29-.07v.82l-.31.08-.3.05-.33,0h-.38a3.29,3.29,0,0,1-1.07-.17,2.12,2.12,0,0,1-.83-.55,2.64,2.64,0,0,1-.56-.94,4.17,4.17,0,0,1-.19-1.34,3.42,3.42,0,0,1,.22-1.27,2.9,2.9,0,0,1,.6-1,2.44,2.44,0,0,1,.87-.59,2.59,2.59,0,0,1,1-.2h.33l.29,0,.3,0Z" style="fill:#4d4d4d"/><path d="M237.21,276v-3.85a1.42,1.42,0,0,0-.09-.52,1,1,0,0,0-.66-.64,1.64,1.64,0,0,0-.56-.09l-.38,0-.34.05-.33.09-.36.14V276h-.91v-8.32l.91-.07v2.86l.39-.19.37-.12a2.7,2.7,0,0,1,.39-.08l.42,0a2.63,2.63,0,0,1,.88.13,1.76,1.76,0,0,1,.65.39,1.37,1.37,0,0,1,.39.62,2.48,2.48,0,0,1,.14.85V276Z" style="fill:#4d4d4d"/><path d="M244.18,271.9V276h-.86v-.41c-.14.09-.28.16-.41.23l-.4.14a3,3,0,0,1-.43.09,3.86,3.86,0,0,1-.5,0,2.47,2.47,0,0,1-.75-.11,1.66,1.66,0,0,1-.58-.33,1.28,1.28,0,0,1-.36-.5,1.53,1.53,0,0,1-.13-.64,1.48,1.48,0,0,1,.17-.7,1.56,1.56,0,0,1,.5-.56,2.3,2.3,0,0,1,.82-.37,4.52,4.52,0,0,1,1.16-.13h.89v-.64a1.72,1.72,0,0,0-.08-.52,1,1,0,0,0-.25-.37,1.06,1.06,0,0,0-.42-.23,2.1,2.1,0,0,0-.59-.08l-.42,0a3.1,3.1,0,0,0-.42.08l-.43.12a4,4,0,0,0-.45.16l-.19-.76.52-.21a4.58,4.58,0,0,1,.49-.15l.49-.08.54,0a2.73,2.73,0,0,1,.89.13,1.75,1.75,0,0,1,.66.36,1.58,1.58,0,0,1,.4.6A2.18,2.18,0,0,1,244.18,271.9Zm-3.47,2.47a.81.81,0,0,0,.07.35.77.77,0,0,0,.19.28,1,1,0,0,0,.34.17,1.56,1.56,0,0,0,.46.06,3,3,0,0,0,.42,0,2.32,2.32,0,0,0,.38-.07l.37-.13a3.13,3.13,0,0,0,.36-.19v-1.37h-.2l-.29,0h-.43a3.55,3.55,0,0,0-.77.07,1.57,1.57,0,0,0-.52.2.91.91,0,0,0-.29.3A.85.85,0,0,0,240.71,274.37Z" style="fill:#4d4d4d"/><path d="M247,274.53a.59.59,0,0,0,0,.2.48.48,0,0,0,.13.16.83.83,0,0,0,.23.1,1.59,1.59,0,0,0,.34,0l1.57,0a2.86,2.86,0,0,1,.71.11,1.26,1.26,0,0,1,.5.27,1,1,0,0,1,.3.39,1.38,1.38,0,0,1,.09.52,1.67,1.67,0,0,1-.17.77,1.73,1.73,0,0,1-.53.62,2.72,2.72,0,0,1-.89.41,5,5,0,0,1-1.23.14,4.28,4.28,0,0,1-1-.11,2.15,2.15,0,0,1-.75-.31,1.37,1.37,0,0,1-.47-.49,1.22,1.22,0,0,1-.16-.62,1.07,1.07,0,0,1,.07-.39,1.9,1.9,0,0,1,.2-.37,1.83,1.83,0,0,1,.32-.3,1.57,1.57,0,0,1,.37-.22v-.05a.76.76,0,0,1-.19-.12.8.8,0,0,1-.15-.17.72.72,0,0,1-.09-.2.69.69,0,0,1,0-.25.73.73,0,0,1,0-.25.7.7,0,0,1,.13-.24,1,1,0,0,1,.2-.2.87.87,0,0,1,.27-.14v0a2.55,2.55,0,0,1-.38-.26,1.45,1.45,0,0,1-.28-.36,2.34,2.34,0,0,1-.18-.45,2.38,2.38,0,0,1-.06-.55,2.69,2.69,0,0,1,.15-.92,1.84,1.84,0,0,1,.47-.69,2.15,2.15,0,0,1,.74-.43,3,3,0,0,1,1-.15h.23l.25,0a.78.78,0,0,1,.22,0l.2,0H251v.68h-1.11v0a1,1,0,0,1,.24.21q.09.13.18.3a1.8,1.8,0,0,1,.12.35,2.58,2.58,0,0,1,0,.4,2.16,2.16,0,0,1-.16.88,1.77,1.77,0,0,1-.48.64,2.18,2.18,0,0,1-.76.39,3.53,3.53,0,0,1-1,.13h-.35l-.16,0a.44.44,0,0,0-.15,0,.35.35,0,0,0-.15.07.43.43,0,0,0-.12.11.38.38,0,0,0-.09.13A.35.35,0,0,0,247,274.53Zm-.45,2.09a.76.76,0,0,0,.1.39.93.93,0,0,0,.32.3,1.7,1.7,0,0,0,.51.19,2.91,2.91,0,0,0,.7.07,5.47,5.47,0,0,0,.87-.07,2.1,2.1,0,0,0,.6-.21A1,1,0,0,0,250,277a.81.81,0,0,0,.11-.41.82.82,0,0,0-.05-.28.48.48,0,0,0-.15-.2,1,1,0,0,0-.29-.12,2.11,2.11,0,0,0-.42-.06l-2-.1a1.71,1.71,0,0,0-.27.14.91.91,0,0,0-.21.18,1,1,0,0,0-.12.23A.9.9,0,0,0,246.52,276.62Zm1.6-3.16a2.25,2.25,0,0,0,.62-.07,1,1,0,0,0,.43-.25.89.89,0,0,0,.26-.43,2.06,2.06,0,0,0,.09-.64,1.62,1.62,0,0,0-.09-.57,1,1,0,0,0-.27-.41,1.08,1.08,0,0,0-.42-.24,1.6,1.6,0,0,0-.56-.09,1.69,1.69,0,0,0-.56.09,1,1,0,0,0-.43.26,1,1,0,0,0-.27.42,1.91,1.91,0,0,0-.09.61,1.82,1.82,0,0,0,.09.61,1.17,1.17,0,0,0,.27.42,1.09,1.09,0,0,0,.41.22A1.72,1.72,0,0,0,248.12,273.46Z" style="fill:#4d4d4d"/><path d="M252.08,273a4.4,4.4,0,0,1,.19-1.31,2.76,2.76,0,0,1,.52-1,2.34,2.34,0,0,1,.79-.58,2.39,2.39,0,0,1,1-.2,2.73,2.73,0,0,1,.94.15,2,2,0,0,1,.71.45,2,2,0,0,1,.44.74,3.13,3.13,0,0,1,.15,1v.36c0,.06,0,.12,0,.18a1.1,1.1,0,0,1,0,.18H253a3,3,0,0,0,.13.95,1.93,1.93,0,0,0,.4.67,1.56,1.56,0,0,0,.59.39,2.35,2.35,0,0,0,.77.12,3.85,3.85,0,0,0,.48,0l.44-.07a3.54,3.54,0,0,0,.44-.11,3.83,3.83,0,0,0,.43-.17v.83a3.25,3.25,0,0,1-.46.17c-.14.05-.29.08-.44.12l-.47.07a4.44,4.44,0,0,1-.53,0,3.23,3.23,0,0,1-1.11-.18,2.25,2.25,0,0,1-.86-.54,2.47,2.47,0,0,1-.54-.94A4.46,4.46,0,0,1,252.08,273Zm.95-.71h2.76a2.82,2.82,0,0,0-.08-.68,1.47,1.47,0,0,0-.25-.5,1,1,0,0,0-.42-.29,1.4,1.4,0,0,0-.56-.1,1.26,1.26,0,0,0-.51.11,1.47,1.47,0,0,0-.44.31,1.59,1.59,0,0,0-.32.5A2.23,2.23,0,0,0,253,272.32Z" style="fill:#4d4d4d"/><path d="M262.12,276v-3.85a1.42,1.42,0,0,0-.09-.52,1,1,0,0,0-.25-.39,1.13,1.13,0,0,0-.41-.25,1.64,1.64,0,0,0-.56-.09l-.37,0-.34.05-.34.09-.36.14V276h-.91v-5.83l.88-.07v.39c.13-.08.27-.14.39-.2l.38-.13.39-.08.45,0a2.61,2.61,0,0,1,.87.13,1.76,1.76,0,0,1,.65.39,1.48,1.48,0,0,1,.4.62,2.76,2.76,0,0,1,.13.85V276Z" style="fill:#4d4d4d"/><path d="M242.69,282.65a2.1,2.1,0,1,1,2.1-2.09A2.1,2.1,0,0,1,242.69,282.65Zm0-3.69a1.6,1.6,0,1,0,1.6,1.6A1.59,1.59,0,0,0,242.69,279Z" style="fill:#8b8f9e"/><path d="M178.06,329.07v-.89l.51.11.46.06.45,0h.46a3.06,3.06,0,0,0,.77-.1,2.08,2.08,0,0,0,.6-.28,1.3,1.3,0,0,0,.37-.44,1.32,1.32,0,0,0,.12-.57,1.51,1.51,0,0,0-.06-.44,1.08,1.08,0,0,0-.22-.35,1.41,1.41,0,0,0-.38-.29,3,3,0,0,0-.57-.25l-1-.34a2.48,2.48,0,0,1-.59-.28,2,2,0,0,1-.46-.41,1.71,1.71,0,0,1-.29-.53,1.87,1.87,0,0,1-.1-.64,2.12,2.12,0,0,1,.19-.91,2.1,2.1,0,0,1,.55-.71,2.64,2.64,0,0,1,.86-.47,3.67,3.67,0,0,1,1.13-.17h.44l.4,0,.38.05.37.07-.1.85-.38-.07-.37,0-.38,0h-.42a2.74,2.74,0,0,0-.73.1,1.65,1.65,0,0,0-.55.26,1.06,1.06,0,0,0-.33.4,1,1,0,0,0-.12.5,1.33,1.33,0,0,0,.06.42,1,1,0,0,0,.2.32,1.1,1.1,0,0,0,.33.25,2.16,2.16,0,0,0,.48.21l1,.34a2.84,2.84,0,0,1,.7.32,1.87,1.87,0,0,1,.49.43,1.81,1.81,0,0,1,.29.55,2.45,2.45,0,0,1,.09.69,2.37,2.37,0,0,1-.2,1,2.3,2.3,0,0,1-.58.77,2.68,2.68,0,0,1-.92.48,4,4,0,0,1-1.18.17h-.48l-.45,0-.44-.05Z" style="fill:#4d4d4d"/><path d="M188.22,323.37l-.1.83-.33-.07-.27,0a2.06,2.06,0,0,0-.26,0H187a1.59,1.59,0,0,0-1.23.56,2.14,2.14,0,0,0-.38.68,2.83,2.83,0,0,0-.14.9,3.15,3.15,0,0,0,.14,1,1.9,1.9,0,0,0,.38.69,1.49,1.49,0,0,0,.58.39,1.87,1.87,0,0,0,.71.13h.33l.3,0,.3-.06.29-.07v.83l-.31.08-.31.05-.33,0h-.37a3.25,3.25,0,0,1-1.07-.17,2.23,2.23,0,0,1-.84-.55,2.63,2.63,0,0,1-.55-.94,4.15,4.15,0,0,1-.2-1.34,3.38,3.38,0,0,1,.23-1.27,2.61,2.61,0,0,1,.6-1,2.35,2.35,0,0,1,.87-.6,2.77,2.77,0,0,1,1-.19h.33l.29,0,.3.05Z" style="fill:#4d4d4d"/><path d="M193.38,329.17v-3.85a1.39,1.39,0,0,0-.08-.52,1.14,1.14,0,0,0-.25-.39,1.09,1.09,0,0,0-.42-.25,1.59,1.59,0,0,0-.55-.09,2.24,2.24,0,0,0-.38,0,1.86,1.86,0,0,0-.34.05l-.33.09-.36.14v4.8h-.91v-8.32l.91-.07v2.86a3.44,3.44,0,0,1,.39-.19l.37-.13.39-.07.42,0a2.67,2.67,0,0,1,.88.13,1.75,1.75,0,0,1,.65.38,1.56,1.56,0,0,1,.39.63,2.44,2.44,0,0,1,.14.85v3.95Z" style="fill:#4d4d4d"/><path d="M201.32,326.17a3.79,3.79,0,0,1-.22,1.29,2.87,2.87,0,0,1-.59,1,2.66,2.66,0,0,1-.88.62,2.85,2.85,0,0,1-1,.21,2.94,2.94,0,0,1-1.06-.19,2,2,0,0,1-.81-.56,2.6,2.6,0,0,1-.52-.94,4.17,4.17,0,0,1-.18-1.28,3.57,3.57,0,0,1,.22-1.29,2.69,2.69,0,0,1,.59-1,2.61,2.61,0,0,1,1.92-.84,3,3,0,0,1,1.06.19,2.17,2.17,0,0,1,.82.57,2.62,2.62,0,0,1,.52.93A4.19,4.19,0,0,1,201.32,326.17Zm-.95,0a3.5,3.5,0,0,0-.12-1,1.85,1.85,0,0,0-.33-.69,1.47,1.47,0,0,0-.54-.42,1.86,1.86,0,0,0-.73-.14,1.55,1.55,0,0,0-.68.16,1.52,1.52,0,0,0-.54.44,2.2,2.2,0,0,0-.35.72,3.48,3.48,0,0,0-.12.95,3.9,3.9,0,0,0,.11,1,2,2,0,0,0,.34.7,1.44,1.44,0,0,0,.54.41,1.67,1.67,0,0,0,.73.14,1.53,1.53,0,0,0,1.22-.61,2.1,2.1,0,0,0,.35-.72A3.4,3.4,0,0,0,200.37,326.2Z" style="fill:#4d4d4d"/><path d="M208.06,326.17a3.57,3.57,0,0,1-.22,1.29,2.87,2.87,0,0,1-.59,1,2.47,2.47,0,0,1-.88.62,2.85,2.85,0,0,1-1.05.21,3,3,0,0,1-1.06-.19,2.15,2.15,0,0,1-.81-.56,2.74,2.74,0,0,1-.51-.94,4.17,4.17,0,0,1-.18-1.28A3.79,3.79,0,0,1,203,325a2.71,2.71,0,0,1,.6-1,2.53,2.53,0,0,1,.87-.62,2.43,2.43,0,0,1,1-.22,3,3,0,0,1,1.07.19,2.13,2.13,0,0,1,.81.57,2.47,2.47,0,0,1,.52.93A4.19,4.19,0,0,1,208.06,326.17Zm-.95,0a4,4,0,0,0-.11-1,2,2,0,0,0-.34-.69,1.47,1.47,0,0,0-.54-.42,1.81,1.81,0,0,0-.72-.14,1.59,1.59,0,0,0-.69.16,1.52,1.52,0,0,0-.54.44,2.2,2.2,0,0,0-.35.72,3.86,3.86,0,0,0,0,1.91,2,2,0,0,0,.33.7,1.44,1.44,0,0,0,.54.41,1.73,1.73,0,0,0,.73.14,1.39,1.39,0,0,0,.68-.16,1.45,1.45,0,0,0,.54-.45,2.1,2.1,0,0,0,.35-.72A3.4,3.4,0,0,0,207.11,326.2Z" style="fill:#4d4d4d"/><path d="M212.69,323.31l-.11.9-.18,0-.16,0-.15,0h-.18a1.35,1.35,0,0,0-.28,0,1.53,1.53,0,0,0-.27.11,2,2,0,0,0-.28.19,2.44,2.44,0,0,0-.31.28v4.44h-.91v-5.83l.9-.08V324a3.4,3.4,0,0,1,.32-.33,1.79,1.79,0,0,1,.31-.22,1.2,1.2,0,0,1,.31-.13,1.06,1.06,0,0,1,.31,0h.34l.16,0Z" style="fill:#4d4d4d"/><path d="M215,320.78v8.39h-.91v-8.32Z" style="fill:#4d4d4d"/><path d="M196.8,335.86a2.1,2.1,0,1,1,2.1-2.1A2.1,2.1,0,0,1,196.8,335.86Zm0-3.7a1.6,1.6,0,1,0,1.6,1.6A1.6,1.6,0,0,0,196.8,332.16Z" style="fill:#8b8f9e"/><path d="M209,367.85l2.41,7.87h-1.05l-.63-2.12h-3.07l-.63,2.12h-1l2.47-7.87Zm.5,4.94-1.24-4.21h-.11l-1.25,4.21Z" style="fill:#4d4d4d"/><path d="M213.71,367.33v8.39h-.91v-8.31Z" style="fill:#4d4d4d"/><path d="M216.78,372.91v2.81h-.91v-8.31l.91-.08v4.78h.53l2-2.25h1.11l-2.28,2.52,2.49,3.34h-1.14l-2.07-2.81Z" style="fill:#4d4d4d"/><path d="M229,375.72v-3.84a1.72,1.72,0,0,0-.07-.52,1.22,1.22,0,0,0-.24-.4,1.29,1.29,0,0,0-.41-.25,1.55,1.55,0,0,0-.55-.09l-.37,0a1.65,1.65,0,0,0-.32.06l-.32.08-.38.14v4.8h-.91v-3.86a2.21,2.21,0,0,0-.07-.54,1,1,0,0,0-.23-.38,1,1,0,0,0-.4-.24,1.91,1.91,0,0,0-.57-.08l-.39,0-.33.05a1.92,1.92,0,0,0-.32.09l-.36.14v4.8h-.91v-5.83l.88-.07v.39l.4-.2a1.82,1.82,0,0,1,.37-.13,2.44,2.44,0,0,1,.39-.07,2.77,2.77,0,0,1,.42,0,2.82,2.82,0,0,1,.52,0,1.85,1.85,0,0,1,.45.11l.38.19a2.55,2.55,0,0,1,.3.26c.17-.11.34-.2.49-.28a3,3,0,0,1,.47-.18,3.41,3.41,0,0,1,.46-.1,2.64,2.64,0,0,1,.51,0,2.84,2.84,0,0,1,.87.13,1.65,1.65,0,0,1,.64.39,1.58,1.58,0,0,1,.38.62,2.5,2.5,0,0,1,.14.86v3.94Z" style="fill:#4d4d4d"/><path d="M236,371.67v4.05h-.86v-.4l-.41.22a3.25,3.25,0,0,1-.4.15,3,3,0,0,1-.43.08,3.86,3.86,0,0,1-.5,0,2.19,2.19,0,0,1-.75-.11,1.55,1.55,0,0,1-.58-.32,1.32,1.32,0,0,1-.36-.51,1.5,1.5,0,0,1-.13-.64,1.48,1.48,0,0,1,.17-.7,1.65,1.65,0,0,1,.5-.56,2.49,2.49,0,0,1,.82-.37,4.52,4.52,0,0,1,1.16-.13h.89v-.64a1.6,1.6,0,0,0-.08-.51.94.94,0,0,0-.25-.38,1.06,1.06,0,0,0-.42-.23,2.1,2.1,0,0,0-.59-.08l-.42,0a3.07,3.07,0,0,0-.42.07l-.43.12a4.13,4.13,0,0,0-.45.17l-.19-.77.52-.21a4.58,4.58,0,0,1,.49-.15,3.85,3.85,0,0,1,.49-.07,4.63,4.63,0,0,1,.54,0,2.73,2.73,0,0,1,.89.13,1.64,1.64,0,0,1,.66.37,1.54,1.54,0,0,1,.4.59A2.24,2.24,0,0,1,236,371.67Zm-3.47,2.46a1,1,0,0,0,.06.35.8.8,0,0,0,.2.28,1,1,0,0,0,.33.17,1.68,1.68,0,0,0,.47.06l.41,0a2.24,2.24,0,0,0,.39-.08l.37-.13a2.09,2.09,0,0,0,.36-.19V373.2h-.92a3.55,3.55,0,0,0-.77.07,1.71,1.71,0,0,0-.52.2.79.79,0,0,0-.38.68Z" style="fill:#4d4d4d"/><path d="M242,371.67v4.05h-.86v-.4l-.41.22a3.25,3.25,0,0,1-.4.15,3,3,0,0,1-.43.08,3.86,3.86,0,0,1-.5,0,2.19,2.19,0,0,1-.75-.11,1.55,1.55,0,0,1-.58-.32,1.46,1.46,0,0,1-.37-.51,1.66,1.66,0,0,1-.12-.64,1.48,1.48,0,0,1,.17-.7,1.55,1.55,0,0,1,.5-.56,2.49,2.49,0,0,1,.82-.37,4.52,4.52,0,0,1,1.16-.13h.89v-.64a1.36,1.36,0,0,0-.09-.51.83.83,0,0,0-.24-.38,1.06,1.06,0,0,0-.42-.23,2.13,2.13,0,0,0-.6-.08l-.41,0a3.07,3.07,0,0,0-.42.07l-.43.12a4.13,4.13,0,0,0-.45.17l-.19-.77.52-.21a4.58,4.58,0,0,1,.49-.15,3.61,3.61,0,0,1,.49-.07,4.5,4.5,0,0,1,.54,0,2.73,2.73,0,0,1,.89.13,1.54,1.54,0,0,1,.65.37,1.46,1.46,0,0,1,.41.59A2.24,2.24,0,0,1,242,371.67Zm-3.47,2.46a1,1,0,0,0,.06.35.8.8,0,0,0,.2.28,1,1,0,0,0,.33.17,1.68,1.68,0,0,0,.47.06l.41,0a2.24,2.24,0,0,0,.39-.08l.37-.13a2.09,2.09,0,0,0,.36-.19V373.2h-.92a3.55,3.55,0,0,0-.77.07,1.71,1.71,0,0,0-.52.2.79.79,0,0,0-.38.68Z" style="fill:#4d4d4d"/><path d="M246.92,369.87l-.1.9-.19,0-.16,0-.15,0h-.18a.9.9,0,0,0-.28,0,1,1,0,0,0-.27.11,1.41,1.41,0,0,0-.27.18l-.32.28v4.44h-.91v-5.83l.9-.07v.68a3.42,3.42,0,0,1,.33-.33,1.91,1.91,0,0,1,.3-.22,1.69,1.69,0,0,1,.31-.13,1.55,1.55,0,0,1,.31,0h.34l.16,0Z" style="fill:#4d4d4d"/><path d="M226.07,382.42a2.1,2.1,0,1,1,2.1-2.1A2.11,2.11,0,0,1,226.07,382.42Zm0-3.7a1.6,1.6,0,1,0,1.6,1.6A1.6,1.6,0,0,0,226.07,378.72Z" style="fill:#8b8f9e"/><path d="M278.08,465.81v3h-.95V461h2.09a4,4,0,0,1,1.14.16,2.43,2.43,0,0,1,.84.46,1.9,1.9,0,0,1,.51.71,2.39,2.39,0,0,1,.18.94,3.08,3.08,0,0,1-.2,1.13,2.22,2.22,0,0,1-.58.83,2.48,2.48,0,0,1-.92.5,4.2,4.2,0,0,1-1.23.17h-.43l-.21,0Zm0-4V465l.23,0,.19,0h.41a2.76,2.76,0,0,0,.86-.11,1.88,1.88,0,0,0,.63-.33,1.47,1.47,0,0,0,.38-.54,2,2,0,0,0,.12-.73,2.08,2.08,0,0,0-.11-.69,1.23,1.23,0,0,0-.34-.49,1.5,1.5,0,0,0-.56-.3,3,3,0,0,0-.78-.09Z" style="fill:#4d4d4d"/><path d="M284.43,462.93v3.89a1.8,1.8,0,0,0,.08.54,1,1,0,0,0,.25.39,1,1,0,0,0,.4.24,1.59,1.59,0,0,0,.55.09l.39,0,.32-.05.3-.09.37-.14V463l.92-.07v5.9h-.89v-.36a2.72,2.72,0,0,1-.37.2,3.3,3.3,0,0,1-.37.13,2.46,2.46,0,0,1-.39.09,3,3,0,0,1-.43,0,2.59,2.59,0,0,1-.88-.13,1.52,1.52,0,0,1-.64-.38,1.68,1.68,0,0,1-.39-.63,2.57,2.57,0,0,1-.13-.87V463Z" style="fill:#4d4d4d"/><path d="M293,463l-.11.9-.18,0-.16,0-.16,0h-.17a.86.86,0,0,0-.28,0,.81.81,0,0,0-.27.11,1.47,1.47,0,0,0-.28.18,3.73,3.73,0,0,0-.31.28v4.44h-.91V463l.89-.07v.68l.33-.33a1.6,1.6,0,0,1,.31-.22,1.11,1.11,0,0,1,.3-.12,1.18,1.18,0,0,1,.31-.05h.35l.16,0Z" style="fill:#4d4d4d"/><path d="M301.53,468.83V465a1.72,1.72,0,0,0-.08-.52.92.92,0,0,0-.24-.39,1.11,1.11,0,0,0-.4-.26,1.59,1.59,0,0,0-.55-.09l-.38,0a1.8,1.8,0,0,0-.32.06l-.32.09-.37.13v4.8H298V465a1.7,1.7,0,0,0-.07-.53.85.85,0,0,0-.23-.39.86.86,0,0,0-.39-.24,2,2,0,0,0-.58-.08l-.39,0-.33.05a1.81,1.81,0,0,0-.31.09l-.36.14v4.8h-.91V463l.87-.07v.4l.4-.21A2.84,2.84,0,0,1,296,463a2.32,2.32,0,0,1,.38-.07,2.9,2.9,0,0,1,.43,0,4.22,4.22,0,0,1,.52,0,2.12,2.12,0,0,1,.45.11,1.86,1.86,0,0,1,.37.2,1.81,1.81,0,0,1,.3.25l.5-.28a4.37,4.37,0,0,1,.46-.18,3.78,3.78,0,0,1,.46-.1,4.06,4.06,0,0,1,.51,0,2.66,2.66,0,0,1,.88.14,1.48,1.48,0,0,1,.63.38,1.72,1.72,0,0,1,.39.62,2.55,2.55,0,0,1,.13.86v3.94Z" style="fill:#4d4d4d"/><path d="M304.16,465.91a4.37,4.37,0,0,1,.18-1.31,2.61,2.61,0,0,1,.53-1,2.1,2.1,0,0,1,.78-.58,2.27,2.27,0,0,1,1-.2,2.83,2.83,0,0,1,.95.15,1.84,1.84,0,0,1,.7.45,2,2,0,0,1,.44.74,3.11,3.11,0,0,1,.15,1v.37a1.09,1.09,0,0,1,0,.18c0,.06,0,.11,0,.17h-3.76a3,3,0,0,0,.14.95,1.7,1.7,0,0,0,.39.67,1.49,1.49,0,0,0,.6.39,2,2,0,0,0,.76.13,3.64,3.64,0,0,0,.48,0l.45-.06a3.45,3.45,0,0,0,.43-.12,3.75,3.75,0,0,0,.43-.16v.82l-.45.18-.44.11a3.54,3.54,0,0,1-.47.07,4.63,4.63,0,0,1-.54,0,3.23,3.23,0,0,1-1.11-.18,2.35,2.35,0,0,1-.86-.55,2.53,2.53,0,0,1-.54-.94A4.41,4.41,0,0,1,304.16,465.91Zm.95-.71h2.76a2.4,2.4,0,0,0-.09-.69,1.33,1.33,0,0,0-.25-.49,1,1,0,0,0-.41-.3,1.64,1.64,0,0,0-.56-.09,1.27,1.27,0,0,0-.52.1,1.65,1.65,0,0,0-.44.32,1.54,1.54,0,0,0-.32.49A2.66,2.66,0,0,0,305.11,465.2Z" style="fill:#4d4d4d"/><path d="M313.4,463l-.11.9-.18,0-.16,0-.16,0h-.17a1,1,0,0,0-.29,0,1,1,0,0,0-.27.11,1.81,1.81,0,0,0-.27.18,3.73,3.73,0,0,0-.31.28v4.44h-.92V463l.9-.07v.68l.33-.33a1.6,1.6,0,0,1,.31-.22,1.25,1.25,0,0,1,.3-.12,1.12,1.12,0,0,1,.31-.05h.34l.17,0Z" style="fill:#4d4d4d"/><path d="M314.42,465.91a4.37,4.37,0,0,1,.18-1.31,2.61,2.61,0,0,1,.53-1,2.1,2.1,0,0,1,.78-.58,2.23,2.23,0,0,1,1-.2,2.83,2.83,0,0,1,.95.15,1.84,1.84,0,0,1,.7.45,2,2,0,0,1,.44.74,3.11,3.11,0,0,1,.15,1v.37a1.09,1.09,0,0,1,0,.18,1,1,0,0,1,0,.17h-3.75a3,3,0,0,0,.14.95,1.7,1.7,0,0,0,.39.67,1.49,1.49,0,0,0,.6.39,2,2,0,0,0,.76.13,3.64,3.64,0,0,0,.48,0l.45-.06a3.45,3.45,0,0,0,.43-.12,3.75,3.75,0,0,0,.43-.16v.82l-.45.18-.44.11a3.54,3.54,0,0,1-.47.07,4.63,4.63,0,0,1-.54,0,3.23,3.23,0,0,1-1.11-.18,2.35,2.35,0,0,1-.86-.55,2.53,2.53,0,0,1-.54-.94A4.41,4.41,0,0,1,314.42,465.91Zm.95-.71h2.75a2.42,2.42,0,0,0-.08-.69,1.33,1.33,0,0,0-.25-.49,1,1,0,0,0-.41-.3,1.64,1.64,0,0,0-.56-.09,1.27,1.27,0,0,0-.52.1,1.65,1.65,0,0,0-.44.32,1.54,1.54,0,0,0-.32.49A2.66,2.66,0,0,0,315.37,465.2Z" style="fill:#4d4d4d"/><path d="M324.45,468.83V465a1.6,1.6,0,0,0-.08-.51,1,1,0,0,0-.26-.39,1.15,1.15,0,0,0-.41-.26,1.6,1.6,0,0,0-.56-.09l-.37,0a2,2,0,0,0-.34.06l-.33.09a3.17,3.17,0,0,0-.36.13v4.8h-.92V463l.88-.07v.4a3,3,0,0,1,.4-.2,2.72,2.72,0,0,1,.37-.13,1.77,1.77,0,0,1,.4-.08,2.94,2.94,0,0,1,.44,0,2.56,2.56,0,0,1,.87.14,1.56,1.56,0,0,1,.65.38,1.62,1.62,0,0,1,.4.62,2.55,2.55,0,0,1,.13.86v3.94Z" style="fill:#4d4d4d"/><path d="M331.94,460.45v8.38h-.89v-.38a2.17,2.17,0,0,1-.33.19,2.39,2.39,0,0,1-.37.15l-.39.09a2.83,2.83,0,0,1-.41,0,2.64,2.64,0,0,1-1-.19,2.13,2.13,0,0,1-.78-.55,2.63,2.63,0,0,1-.52-.9,3.82,3.82,0,0,1-.18-1.22,4,4,0,0,1,.21-1.34,2.69,2.69,0,0,1,.62-1,2.58,2.58,0,0,1,.93-.62,3.27,3.27,0,0,1,1.19-.21h.29l.26,0,.23.05a.79.79,0,0,1,.22.06v-2.51Zm-2,3.25a2,2,0,0,0-.8.15,1.68,1.68,0,0,0-.61.44,2.08,2.08,0,0,0-.39.72,3.12,3.12,0,0,0-.13.95,3.26,3.26,0,0,0,.12.92,1.89,1.89,0,0,0,.35.66,1.39,1.39,0,0,0,.55.39,1.78,1.78,0,0,0,.7.14,2,2,0,0,0,.36,0,3,3,0,0,0,.32-.06,1.48,1.48,0,0,0,.29-.12,3.07,3.07,0,0,0,.31-.16v-3.91l-.28,0-.25,0-.27,0Z" style="fill:#4d4d4d"/><path d="M304.55,475.53a2.1,2.1,0,1,1,2.09-2.1A2.1,2.1,0,0,1,304.55,475.53Zm0-3.7a1.6,1.6,0,1,0,1.59,1.6A1.6,1.6,0,0,0,304.55,471.83Z" style="fill:#8b8f9e"/><path d="M371.36,657.05v-3.61h-3.6v3.61h-.95v-7.87h.95v3.42h3.6v-3.42h.95v7.87Z" style="fill:#4d4d4d"/><path d="M374.55,649.26a.64.64,0,0,1,0-.24.52.52,0,0,1,.12-.19.59.59,0,0,1,.19-.11.74.74,0,0,1,.48,0,.45.45,0,0,1,.29.29.66.66,0,0,1,0,.25.61.61,0,0,1,0,.24.4.4,0,0,1-.11.18.57.57,0,0,1-.18.12.74.74,0,0,1-.48,0,.62.62,0,0,1-.19-.12.41.41,0,0,1-.12-.18A.61.61,0,0,1,374.55,649.26Zm1,1.89v5.9h-.91v-5.83Z" style="fill:#4d4d4d"/><path d="M378.67,648.66v8.39h-.92v-8.31Z" style="fill:#4d4d4d"/><path d="M382.1,657.05l-2-5.87h1l1.61,5h.06l1.52-5h.94l-2,5.87Z" style="fill:#4d4d4d"/><path d="M386.26,654.12a4,4,0,0,1,.19-1.3,2.59,2.59,0,0,1,.52-1,2.22,2.22,0,0,1,1.75-.78,2.77,2.77,0,0,1,.94.15,1.76,1.76,0,0,1,.7.45,1.86,1.86,0,0,1,.44.73,3.17,3.17,0,0,1,.15,1V654c0,.06,0,.12,0,.18h-3.76a3,3,0,0,0,.14,1,1.82,1.82,0,0,0,.39.67,1.49,1.49,0,0,0,.6.39,2.29,2.29,0,0,0,.76.12,3.7,3.7,0,0,0,.48,0l.45-.06a3.45,3.45,0,0,0,.43-.12,4,4,0,0,0,.44-.17v.83a3.78,3.78,0,0,1-.46.17,3.17,3.17,0,0,1-.44.12l-.47.07a4.44,4.44,0,0,1-.53,0,3.6,3.6,0,0,1-1.12-.17,2.45,2.45,0,0,1-.85-.55,2.35,2.35,0,0,1-.54-.94A4.13,4.13,0,0,1,386.26,654.12Zm.95-.7H390a2.84,2.84,0,0,0-.08-.69,1.32,1.32,0,0,0-.26-.5,1,1,0,0,0-.41-.29,1.6,1.6,0,0,0-.56-.1,1.26,1.26,0,0,0-.51.11,1.47,1.47,0,0,0-.44.31,2,2,0,0,0-.33.5A2.66,2.66,0,0,0,387.21,653.42Z" style="fill:#4d4d4d"/><path d="M395.5,651.2l-.11.9-.18-.05-.16,0h-.33a.86.86,0,0,0-.28,0,1.48,1.48,0,0,0-.27.1,2,2,0,0,0-.28.19c-.09.08-.2.17-.31.28v4.44h-.91v-5.83l.9-.07v.68a3.4,3.4,0,0,1,.32-.33,2.58,2.58,0,0,1,.31-.22,1.2,1.2,0,0,1,.31-.13,1.55,1.55,0,0,1,.31,0h.34l.16,0Z" style="fill:#4d4d4d"/><path d="M396.41,656.93v-.83l.41.11.42.06.42,0h.45a1.88,1.88,0,0,0,.55-.07,1.28,1.28,0,0,0,.41-.18.75.75,0,0,0,.25-.28.78.78,0,0,0,.08-.35,1,1,0,0,0,0-.31.83.83,0,0,0-.18-.25,1.42,1.42,0,0,0-.3-.2,3.33,3.33,0,0,0-.45-.16l-.69-.2a2.12,2.12,0,0,1-.53-.23,1.39,1.39,0,0,1-.39-.32,1.29,1.29,0,0,1-.24-.43,1.46,1.46,0,0,1-.08-.52,1.72,1.72,0,0,1,.14-.68,1.61,1.61,0,0,1,.44-.54,1.8,1.8,0,0,1,.67-.36,2.65,2.65,0,0,1,.87-.13H399l.36,0,.34,0,.33.06-.1.8-.34-.06-.32,0-.33,0h-.37a2.12,2.12,0,0,0-.52.06,1.1,1.1,0,0,0-.38.17.71.71,0,0,0-.23.26.69.69,0,0,0-.08.32.84.84,0,0,0,.05.29.57.57,0,0,0,.15.23,1.06,1.06,0,0,0,.26.17,1.92,1.92,0,0,0,.37.14l.68.18a2.5,2.5,0,0,1,.62.24,2.2,2.2,0,0,1,.44.33,1,1,0,0,1,.26.42,1.44,1.44,0,0,1,.09.51,2,2,0,0,1-.16.76,1.79,1.79,0,0,1-.46.6,2.36,2.36,0,0,1-.7.39,2.94,2.94,0,0,1-.91.13h-.46l-.42,0-.38-.06Z" style="fill:#4d4d4d"/><path d="M402.8,651.15V655a1.8,1.8,0,0,0,.08.54,1,1,0,0,0,.65.64,1.55,1.55,0,0,0,.55.09l.38,0a1.52,1.52,0,0,0,.32-.06,1.81,1.81,0,0,0,.31-.09l.37-.13v-4.78l.91-.07v5.9h-.88v-.36a2.81,2.81,0,0,1-.38.2,2.6,2.6,0,0,1-.36.13l-.39.09a3,3,0,0,1-.43,0A2.93,2.93,0,0,1,403,657a1.55,1.55,0,0,1-.63-.38A1.86,1.86,0,0,1,402,656a2.56,2.56,0,0,1-.14-.87v-3.91Z" style="fill:#4d4d4d"/><path d="M415.69,657.05v-3.84a1.72,1.72,0,0,0-.08-.52,1.22,1.22,0,0,0-.24-.4A1.29,1.29,0,0,0,415,652a1.55,1.55,0,0,0-.55-.09l-.37,0-.32,0-.32.09-.38.14v4.8h-.91v-3.86a1.81,1.81,0,0,0-.07-.54,1.09,1.09,0,0,0-.23-.39,1,1,0,0,0-.4-.23,1.91,1.91,0,0,0-.57-.08l-.39,0-.33,0a1.92,1.92,0,0,0-.32.09l-.35.14v4.8h-.92v-5.83l.88-.07v.39l.4-.2a2.05,2.05,0,0,1,.37-.13,2.66,2.66,0,0,1,.39-.07,2.77,2.77,0,0,1,.42,0,3,3,0,0,1,.53,0,1.89,1.89,0,0,1,.44.11,2.25,2.25,0,0,1,.38.19,2.55,2.55,0,0,1,.3.26c.17-.11.34-.2.49-.28a2.5,2.5,0,0,1,.47-.18,3.41,3.41,0,0,1,.46-.1,2.64,2.64,0,0,1,.51,0,3,3,0,0,1,.88.13,1.68,1.68,0,0,1,.63.39,1.51,1.51,0,0,1,.38.62,2.48,2.48,0,0,1,.14.85v3.95Z" style="fill:#4d4d4d"/><path d="M391.67,663.74a2.1,2.1,0,1,1,2.1-2.09A2.1,2.1,0,0,1,391.67,663.74Zm0-3.69a1.6,1.6,0,1,0,1.6,1.6A1.6,1.6,0,0,0,391.67,660.05Z" style="fill:#8b8f9e"/><path d="M247,556.73l2.41,7.88h-1l-.64-2.13h-3.07l-.62,2.13h-1l2.48-7.88Zm.5,4.95-1.24-4.21h-.11l-1.25,4.21Z" style="fill:#4d4d4d"/><path d="M258,564.61v-3.84a1.48,1.48,0,0,0-.08-.53,1,1,0,0,0-.24-.39,1,1,0,0,0-.4-.25,1.55,1.55,0,0,0-.55-.09h-.37c-.11,0-.22,0-.33.06a1.81,1.81,0,0,0-.31.09,3.06,3.06,0,0,0-.38.14v4.8h-.91v-3.87a1.69,1.69,0,0,0-.08-.53.83.83,0,0,0-.22-.39,1.07,1.07,0,0,0-.4-.24,2,2,0,0,0-.58-.07h-.39l-.33.05-.31.09-.36.15v4.8h-.91v-5.84l.88-.07v.4l.4-.21a2.72,2.72,0,0,1,.37-.13l.38-.07a3,3,0,0,1,.43,0,4.28,4.28,0,0,1,.52,0,1.84,1.84,0,0,1,.45.12,1.43,1.43,0,0,1,.37.19,1.08,1.08,0,0,1,.3.26,5.68,5.68,0,0,1,.5-.29l.46-.18.47-.1a3.89,3.89,0,0,1,.51,0,2.61,2.61,0,0,1,.87.13,1.63,1.63,0,0,1,.64.38,1.66,1.66,0,0,1,.38.63,2.45,2.45,0,0,1,.13.85v4Z" style="fill:#4d4d4d"/><path d="M260.49,564.49v-.83l.41.1.41.07.43,0h.44a2.34,2.34,0,0,0,.56-.06,1.66,1.66,0,0,0,.4-.18.77.77,0,0,0,.26-.28.86.86,0,0,0,.08-.36,1.06,1.06,0,0,0-.05-.31.69.69,0,0,0-.18-.24,1.12,1.12,0,0,0-.3-.2,3.28,3.28,0,0,0-.45-.17l-.69-.2a2.35,2.35,0,0,1-.53-.22,1.27,1.27,0,0,1-.39-.33,1.1,1.1,0,0,1-.24-.42,1.51,1.51,0,0,1-.09-.53,1.53,1.53,0,0,1,.15-.67,1.75,1.75,0,0,1,.43-.55,2.31,2.31,0,0,1,.68-.36,3,3,0,0,1,.87-.12h.39c.13,0,.24,0,.36,0l.34,0a1.65,1.65,0,0,1,.32.06l-.09.79-.34-.06-.33,0h-.69a2.06,2.06,0,0,0-.52.06,1.21,1.21,0,0,0-.38.17.71.71,0,0,0-.23.26.61.61,0,0,0-.08.32.94.94,0,0,0,.05.3.54.54,0,0,0,.15.22,1.35,1.35,0,0,0,.25.18,2.64,2.64,0,0,0,.37.13l.69.18a4,4,0,0,1,.62.24,2.2,2.2,0,0,1,.44.33,1.17,1.17,0,0,1,.26.42,1.44,1.44,0,0,1,.09.51,1.73,1.73,0,0,1-.17.76,1.76,1.76,0,0,1-.45.6,2,2,0,0,1-.71.39,2.83,2.83,0,0,1-.9.14h-.47l-.41,0-.38-.06Z" style="fill:#4d4d4d"/><path d="M265.52,559.47v-.73h.71v-1l.91-.14v1.17h1.54v.73h-1.54v3.32a1.43,1.43,0,0,0,.07.48.75.75,0,0,0,.19.34.84.84,0,0,0,.29.2,1.1,1.1,0,0,0,.37.06h.21l.18,0,.2,0,.21,0v.77l-.28.06-.24,0-.24,0h-.27a1.81,1.81,0,0,1-.63-.1,1.35,1.35,0,0,1-.51-.31,1.47,1.47,0,0,1-.34-.57,2.75,2.75,0,0,1-.12-.86v-3.37Z" style="fill:#4d4d4d"/><path d="M269.91,561.68a4.06,4.06,0,0,1,.19-1.31,2.76,2.76,0,0,1,.52-1,2.22,2.22,0,0,1,.79-.58,2.39,2.39,0,0,1,1-.2,2.77,2.77,0,0,1,.94.15,1.76,1.76,0,0,1,.7.45,1.9,1.9,0,0,1,.44.74,3.11,3.11,0,0,1,.15,1v.55c0,.06,0,.12,0,.17h-3.76a3,3,0,0,0,.14,1,1.66,1.66,0,0,0,.39.66,1.49,1.49,0,0,0,.6.39,2.06,2.06,0,0,0,.76.13,3.91,3.91,0,0,0,.49,0,3.11,3.11,0,0,0,.44-.06,3,3,0,0,0,.43-.12,3.89,3.89,0,0,0,.44-.16v.82a3.35,3.35,0,0,1-.46.18l-.44.11a3.31,3.31,0,0,1-.47.07,4.33,4.33,0,0,1-.53,0,3.33,3.33,0,0,1-1.12-.18,2.19,2.19,0,0,1-.85-.55,2.24,2.24,0,0,1-.54-.93A4.17,4.17,0,0,1,269.91,561.68Zm.95-.71h2.76a2.76,2.76,0,0,0-.08-.68,1.25,1.25,0,0,0-.26-.5,1.12,1.12,0,0,0-.41-.3,1.6,1.6,0,0,0-.56-.09,1.19,1.19,0,0,0-.52.11,1.27,1.27,0,0,0-.43.31,1.67,1.67,0,0,0-.33.5A2.47,2.47,0,0,0,270.86,561Z" style="fill:#4d4d4d"/><path d="M279.15,558.75l-.11.9-.18,0-.16,0-.16,0h-.17a1.35,1.35,0,0,0-.28,0,1,1,0,0,0-.27.11l-.28.18a3.85,3.85,0,0,0-.31.29v4.44h-.91v-5.84l.9-.07v.69a3.4,3.4,0,0,1,.32-.33,1.9,1.9,0,0,1,.31-.23,1.66,1.66,0,0,1,.31-.12,1.06,1.06,0,0,1,.31,0h.34l.16,0Z" style="fill:#4d4d4d"/><path d="M285,556.22v8.39h-.89v-.39a1.77,1.77,0,0,1-.33.19,1.94,1.94,0,0,1-.36.15,2.59,2.59,0,0,1-.4.09,2.73,2.73,0,0,1-.41,0,2.46,2.46,0,0,1-1-.19,2.11,2.11,0,0,1-.78-.54,2.46,2.46,0,0,1-.51-.9,3.61,3.61,0,0,1-.19-1.23,3.81,3.81,0,0,1,.22-1.34,2.76,2.76,0,0,1,.61-1,2.59,2.59,0,0,1,.94-.61,3.18,3.18,0,0,1,1.18-.21h.3a2.06,2.06,0,0,1,.26,0l.23,0a.73.73,0,0,1,.21.06v-2.51Zm-2,3.25a2.07,2.07,0,0,0-.8.15,1.76,1.76,0,0,0-.61.44,2.08,2.08,0,0,0-.39.72,3.12,3.12,0,0,0-.13,1,2.92,2.92,0,0,0,.13.92,1.8,1.8,0,0,0,.35.66,1.37,1.37,0,0,0,.55.4,1.94,1.94,0,0,0,.7.13,2.1,2.1,0,0,0,.36,0,1.65,1.65,0,0,0,.32-.06l.29-.12a2.19,2.19,0,0,0,.3-.16v-3.9l-.27-.05-.26,0h-.54Z" style="fill:#4d4d4d"/><path d="M291.17,560.55v4.06h-.85v-.41a3.32,3.32,0,0,1-.41.22,3.25,3.25,0,0,1-.4.15,2,2,0,0,1-.43.08,3.73,3.73,0,0,1-.5,0,2.19,2.19,0,0,1-.75-.12,1.55,1.55,0,0,1-.58-.32,1.52,1.52,0,0,1-.37-.5,1.71,1.71,0,0,1-.12-.65,1.4,1.4,0,0,1,.17-.7,1.72,1.72,0,0,1,.49-.56,2.54,2.54,0,0,1,.83-.37,4.47,4.47,0,0,1,1.16-.13h.89v-.63a1.38,1.38,0,0,0-.09-.52.88.88,0,0,0-.24-.38,1.2,1.2,0,0,0-.42-.23,2.12,2.12,0,0,0-.59-.07,3,3,0,0,0-.42,0l-.42.07-.43.12-.45.17-.19-.77.52-.21a2.9,2.9,0,0,1,.48-.14,4,4,0,0,1,.5-.08,4.52,4.52,0,0,1,.54,0,3,3,0,0,1,.89.12,1.79,1.79,0,0,1,.65.37,1.53,1.53,0,0,1,.41.59A2.24,2.24,0,0,1,291.17,560.55ZM287.71,563a1,1,0,0,0,.06.35.76.76,0,0,0,.2.27.74.74,0,0,0,.33.17,1.68,1.68,0,0,0,.47.06,2.75,2.75,0,0,0,.41,0,2.24,2.24,0,0,0,.39-.08,2.72,2.72,0,0,0,.37-.13l.36-.18v-1.37h-.92a4.31,4.31,0,0,0-.77.07,1.48,1.48,0,0,0-.52.21.75.75,0,0,0-.29.3A.82.82,0,0,0,287.71,563Z" style="fill:#4d4d4d"/><path d="M300.4,564.61v-3.84a1.74,1.74,0,0,0-.07-.53,1.14,1.14,0,0,0-.25-.39,1,1,0,0,0-.4-.25,1.55,1.55,0,0,0-.55-.09h-.37a3,3,0,0,0-.32.06,1.68,1.68,0,0,0-.32.09,3.06,3.06,0,0,0-.38.14v4.8h-.91v-3.87a1.69,1.69,0,0,0-.08-.53.83.83,0,0,0-.22-.39,1.07,1.07,0,0,0-.4-.24,2,2,0,0,0-.58-.07h-.38l-.34.05-.31.09-.36.15v4.8h-.91v-5.84l.88-.07v.4l.4-.21a2.72,2.72,0,0,1,.37-.13l.39-.07a2.82,2.82,0,0,1,.42,0,4.28,4.28,0,0,1,.52,0,1.84,1.84,0,0,1,.45.12,1.43,1.43,0,0,1,.37.19,1.3,1.3,0,0,1,.31.26,4.45,4.45,0,0,1,.49-.29l.46-.18.47-.1a3.89,3.89,0,0,1,.51,0,2.57,2.57,0,0,1,.87.13,1.63,1.63,0,0,1,.64.38,1.66,1.66,0,0,1,.38.63,2.45,2.45,0,0,1,.13.85v4Z" style="fill:#4d4d4d"/><path d="M272.62,571.3a2.1,2.1,0,1,1,2.1-2.1A2.1,2.1,0,0,1,272.62,571.3Zm0-3.7a1.6,1.6,0,1,0,1.6,1.6A1.6,1.6,0,0,0,272.62,567.6Z" style="fill:#8b8f9e"/><path d="M166.3,601.85v-3.61h-3.6v3.61h-.95V594h.95v3.42h3.6V594h.95v7.87Z" style="fill:#4d4d4d"/><path d="M174.57,598.85a3.57,3.57,0,0,1-.22,1.29,2.87,2.87,0,0,1-.59,1,2.56,2.56,0,0,1-.88.62,2.66,2.66,0,0,1-1,.21,2.78,2.78,0,0,1-1.06-.19,2,2,0,0,1-.81-.56,2.67,2.67,0,0,1-.52-.94,4.17,4.17,0,0,1-.18-1.28,3.79,3.79,0,0,1,.22-1.29,2.7,2.7,0,0,1,1.46-1.61,2.67,2.67,0,0,1,1.05-.22,2.83,2.83,0,0,1,1.07.2,2.11,2.11,0,0,1,.81.56,2.47,2.47,0,0,1,.52.93A4.19,4.19,0,0,1,174.57,598.85Zm-.95,0a3.9,3.9,0,0,0-.11-1,2,2,0,0,0-.34-.7,1.44,1.44,0,0,0-.54-.41,1.83,1.83,0,0,0-.73-.14,1.57,1.57,0,0,0-.68.15,1.45,1.45,0,0,0-.54.45,2.05,2.05,0,0,0-.35.71,3.55,3.55,0,0,0-.12,1,3.5,3.5,0,0,0,.12,1,1.85,1.85,0,0,0,.33.69,1.58,1.58,0,0,0,.54.42,1.86,1.86,0,0,0,.73.13,1.54,1.54,0,0,0,.68-.15,1.67,1.67,0,0,0,.54-.45,2.2,2.2,0,0,0,.35-.72A3.45,3.45,0,0,0,173.62,598.89Z" style="fill:#4d4d4d"/><path d="M181.31,598.85a3.79,3.79,0,0,1-.21,1.29,3,3,0,0,1-.6,1,2.47,2.47,0,0,1-.88.62,2.65,2.65,0,0,1-1,.21,2.8,2.8,0,0,1-1.07-.19,2.15,2.15,0,0,1-.81-.56,2.65,2.65,0,0,1-.51-.94A4.17,4.17,0,0,1,176,599a3.79,3.79,0,0,1,.21-1.29,3,3,0,0,1,.6-1,2.67,2.67,0,0,1,.87-.62,2.62,2.62,0,0,1,1-.22,2.83,2.83,0,0,1,1.07.2,2.22,2.22,0,0,1,.82.56,2.6,2.6,0,0,1,.51.93A4.19,4.19,0,0,1,181.31,598.85Zm-.95,0a3.47,3.47,0,0,0-.11-1,2,2,0,0,0-.34-.7,1.3,1.3,0,0,0-.54-.41,1.81,1.81,0,0,0-.72-.14,1.58,1.58,0,0,0-.69.15,1.63,1.63,0,0,0-.54.45,2,2,0,0,0-.34.71,4.06,4.06,0,0,0,0,1.92,2,2,0,0,0,.34.69,1.41,1.41,0,0,0,.54.42,1.81,1.81,0,0,0,.72.13,1.58,1.58,0,0,0,.69-.15,1.91,1.91,0,0,0,.54-.45,2.18,2.18,0,0,0,.34-.72A3.45,3.45,0,0,0,180.36,598.89Z" style="fill:#4d4d4d"/><path d="M183.29,596.71h-.72V596h.72v-.67a2.07,2.07,0,0,1,.13-.77,1.56,1.56,0,0,1,.37-.59,1.63,1.63,0,0,1,.64-.38,2.55,2.55,0,0,1,.86-.13h.23l.21,0,.2,0,.18,0-.11.8-.17-.05-.18,0h-.38a1.43,1.43,0,0,0-.48.07.73.73,0,0,0-.33.2.7.7,0,0,0-.2.32,1.6,1.6,0,0,0-.06.46V596h1.51v.73H184.2v5.14h-.91Z" style="fill:#4d4d4d"/><path d="M191.6,593.46v8.39h-.89v-.38l-.33.19-.37.14a2.74,2.74,0,0,1-.39.09l-.41,0a2.64,2.64,0,0,1-1-.18,2.26,2.26,0,0,1-.78-.55,2.48,2.48,0,0,1-.52-.9,3.86,3.86,0,0,1-.18-1.22,4,4,0,0,1,.21-1.34,2.86,2.86,0,0,1,.61-1,2.68,2.68,0,0,1,.94-.61,3.27,3.27,0,0,1,1.19-.21H190l.26,0,.23,0,.21.06v-2.51Zm-2,3.25a2,2,0,0,0-.8.15,1.59,1.59,0,0,0-.61.45,1.67,1.67,0,0,0-.39.72,3.11,3.11,0,0,0-.14,1,2.86,2.86,0,0,0,.13.91,1.85,1.85,0,0,0,.35.67,1.53,1.53,0,0,0,.55.39,1.78,1.78,0,0,0,.7.13l.36,0,.32-.07a1,1,0,0,0,.29-.11,2.28,2.28,0,0,0,.3-.17v-3.9l-.27,0-.25,0-.27,0Z" style="fill:#4d4d4d"/><path d="M198.26,593.46v8.39h-.89v-.38l-.33.19-.37.14a2.74,2.74,0,0,1-.39.09l-.41,0a2.64,2.64,0,0,1-1-.18,2.26,2.26,0,0,1-.78-.55,2.63,2.63,0,0,1-.52-.9,3.86,3.86,0,0,1-.18-1.22,4,4,0,0,1,.21-1.34,2.86,2.86,0,0,1,.61-1,2.68,2.68,0,0,1,.94-.61,3.27,3.27,0,0,1,1.19-.21h.29l.26,0,.23,0,.21.06v-2.51Zm-2,3.25a2,2,0,0,0-.8.15,1.59,1.59,0,0,0-.61.45,1.67,1.67,0,0,0-.39.72,3.11,3.11,0,0,0-.14,1,2.86,2.86,0,0,0,.13.91,1.85,1.85,0,0,0,.35.67,1.53,1.53,0,0,0,.55.39,1.78,1.78,0,0,0,.7.13l.36,0,.32-.07a1,1,0,0,0,.29-.11,2.28,2.28,0,0,0,.3-.17v-3.9l-.27,0-.25,0-.27,0Z" style="fill:#4d4d4d"/><path d="M205.36,598.85a3.57,3.57,0,0,1-.22,1.29,2.87,2.87,0,0,1-.59,1,2.56,2.56,0,0,1-.88.62,2.66,2.66,0,0,1-1,.21,2.78,2.78,0,0,1-1.06-.19,2.07,2.07,0,0,1-.81-.56,2.83,2.83,0,0,1-.52-.94,4.49,4.49,0,0,1-.18-1.28,3.79,3.79,0,0,1,.22-1.29,2.89,2.89,0,0,1,.6-1,2.74,2.74,0,0,1,.86-.62,2.67,2.67,0,0,1,1.05-.22,2.83,2.83,0,0,1,1.07.2,2.11,2.11,0,0,1,.81.56,2.47,2.47,0,0,1,.52.93A4.19,4.19,0,0,1,205.36,598.85Zm-1,0a3.9,3.9,0,0,0-.11-1,2,2,0,0,0-.34-.7,1.44,1.44,0,0,0-.54-.41,1.81,1.81,0,0,0-.72-.14,1.58,1.58,0,0,0-.69.15,1.45,1.45,0,0,0-.54.45,2.05,2.05,0,0,0-.35.71,3.55,3.55,0,0,0-.12,1,3.5,3.5,0,0,0,.12,1,1.85,1.85,0,0,0,.33.69,1.58,1.58,0,0,0,.54.42,1.9,1.9,0,0,0,.73.13,1.51,1.51,0,0,0,.68-.15,1.67,1.67,0,0,0,.54-.45,2.2,2.2,0,0,0,.35-.72A3.45,3.45,0,0,0,204.41,598.89Z" style="fill:#4d4d4d"/><path d="M210,596l-.11.9-.18,0-.16,0-.16,0h-.17a1.33,1.33,0,0,0-.28,0,1.53,1.53,0,0,0-.27.11,2,2,0,0,0-.28.19,3.56,3.56,0,0,0-.31.28v4.44h-.91V596l.9-.07v.68a3.4,3.4,0,0,1,.32-.33,1.79,1.79,0,0,1,.31-.22A1.2,1.2,0,0,1,209,596a1.06,1.06,0,0,1,.31,0h.34l.16,0Z" style="fill:#4d4d4d"/><path d="M211.37,604.14V596l.88-.07v.37l.36-.18L213,596a2.57,2.57,0,0,1,.4-.07,3.15,3.15,0,0,1,.44,0,2.76,2.76,0,0,1,1,.17,2,2,0,0,1,.77.54,2.39,2.39,0,0,1,.48.91,4,4,0,0,1,.17,1.26,3.66,3.66,0,0,1-.22,1.32,2.73,2.73,0,0,1-.64,1,2.56,2.56,0,0,1-1,.62,3.62,3.62,0,0,1-1.26.21h-.22l-.21,0-.21,0-.21,0v2.3Zm1.9-3a2.15,2.15,0,0,0,.8-.15,1.62,1.62,0,0,0,.64-.42,2,2,0,0,0,.42-.71,2.93,2.93,0,0,0,.15-1,3.33,3.33,0,0,0-.12-1,1.72,1.72,0,0,0-.34-.66,1.36,1.36,0,0,0-.54-.38,2,2,0,0,0-.73-.12l-.32,0-.31.05-.31.09a2.33,2.33,0,0,0-.33.14v4l.26.05.24,0,.24,0Z" style="fill:#4d4d4d"/><path d="M188.82,608.54a2.1,2.1,0,1,1,2.1-2.09A2.1,2.1,0,0,1,188.82,608.54Zm0-3.69a1.6,1.6,0,1,0,1.6,1.6A1.59,1.59,0,0,0,188.82,604.85Z" style="fill:#8b8f9e"/><path d="M135.29,627.12l-3.11-6.88h-.05v6.88h-.87v-7.87h1.45l3.11,6.89h.06v-6.89h.87v7.87Z" style="fill:#4d4d4d"/><path d="M139,619.34a.69.69,0,0,1,0-.25.52.52,0,0,1,.12-.19.68.68,0,0,1,.19-.11.61.61,0,0,1,.24,0,.67.67,0,0,1,.24,0,.45.45,0,0,1,.29.29.71.71,0,0,1,0,.26.67.67,0,0,1,0,.24.45.45,0,0,1-.29.29.67.67,0,0,1-.24,0,.61.61,0,0,1-.24,0,.68.68,0,0,1-.19-.11.57.57,0,0,1-.12-.18A.67.67,0,0,1,139,619.34Zm1,1.88v5.9h-.91v-5.83Z" style="fill:#4d4d4d"/><path d="M141.84,624.2a4.06,4.06,0,0,1,.19-1.31,2.59,2.59,0,0,1,.52-1,2.31,2.31,0,0,1,1.75-.78,2.77,2.77,0,0,1,.94.15,1.76,1.76,0,0,1,.7.45,1.83,1.83,0,0,1,.44.74,3.11,3.11,0,0,1,.15,1v.55c0,.06,0,.11,0,.17h-3.76a3,3,0,0,0,.14.95,1.75,1.75,0,0,0,.39.67,1.49,1.49,0,0,0,.6.39,2.28,2.28,0,0,0,.76.13,3.64,3.64,0,0,0,.48,0c.16,0,.31,0,.45-.06a3.45,3.45,0,0,0,.43-.12,4,4,0,0,0,.44-.17v.83L146,627l-.44.11a3.31,3.31,0,0,1-.47.07,4.33,4.33,0,0,1-.53,0,3.33,3.33,0,0,1-1.12-.18,2.31,2.31,0,0,1-.85-.55,2.28,2.28,0,0,1-.54-.94A4.1,4.1,0,0,1,141.84,624.2Zm.95-.71h2.76a2.84,2.84,0,0,0-.08-.69,1.21,1.21,0,0,0-.26-.49,1,1,0,0,0-.41-.3,1.6,1.6,0,0,0-.56-.09,1.25,1.25,0,0,0-.51.1,1.5,1.5,0,0,0-.44.32,1.75,1.75,0,0,0-.33.49A2.66,2.66,0,0,0,142.79,623.49Z" style="fill:#4d4d4d"/><path d="M149.08,621.22v3.89a1.8,1.8,0,0,0,.08.54,1,1,0,0,0,.25.39,1,1,0,0,0,.4.24,1.55,1.55,0,0,0,.55.09l.39,0,.31-.05.31-.1.37-.13v-4.78l.91-.07v5.9h-.88v-.36a2.81,2.81,0,0,1-.38.2,2.6,2.6,0,0,1-.36.13l-.39.09a3,3,0,0,1-.43,0,2.69,2.69,0,0,1-.89-.13,1.55,1.55,0,0,1-.63-.38,1.56,1.56,0,0,1-.39-.63,2.57,2.57,0,0,1-.13-.87v-3.91Z" style="fill:#4d4d4d"/><path d="M162.25,621.26l-1.84,5.86h-1.17l-1.08-3.55h-.06l-1,3.55h-1.16L154,621.26h1.05l1.43,5h.06l1.16-3.85-.38-1.17h1l1.48,5h.06l1.41-5Z" style="fill:#4d4d4d"/><path d="M163.53,624.11v-.84h3.1v.84Z" style="fill:#4d4d4d"/><path d="M170.4,627.12l-2.49-7.87H169l2.12,6.93h0l2.16-6.93h1l-2.53,7.87Z" style="fill:#4d4d4d"/><path d="M175,624.2a4.06,4.06,0,0,1,.19-1.31,2.46,2.46,0,0,1,.52-1,2.13,2.13,0,0,1,.79-.58,2.22,2.22,0,0,1,1-.2,2.79,2.79,0,0,1,.95.15,1.84,1.84,0,0,1,.7.45,2,2,0,0,1,.44.74,3.11,3.11,0,0,1,.15,1v.55a1,1,0,0,0,0,.17h-3.76a3,3,0,0,0,.14.95,1.63,1.63,0,0,0,.39.67,1.49,1.49,0,0,0,.6.39,2.28,2.28,0,0,0,.76.13,3.64,3.64,0,0,0,.48,0c.16,0,.3,0,.45-.06a3.45,3.45,0,0,0,.43-.12,3.2,3.2,0,0,0,.43-.17v.83l-.45.18-.44.11a3.54,3.54,0,0,1-.47.07,4.39,4.39,0,0,1-.54,0,3.31,3.31,0,0,1-1.11-.18,2.23,2.23,0,0,1-.85-.55,2.28,2.28,0,0,1-.54-.94A4.1,4.1,0,0,1,175,624.2Zm1-.71h2.76a2.4,2.4,0,0,0-.09-.69,1.2,1.2,0,0,0-.25-.49,1,1,0,0,0-.41-.3,1.64,1.64,0,0,0-.56-.09,1.3,1.3,0,0,0-.52.1,1.46,1.46,0,0,0-.43.32,1.56,1.56,0,0,0-.33.49A2.66,2.66,0,0,0,175.9,623.49Z" style="fill:#4d4d4d"/><path d="M185,627.12v-3.85a1.6,1.6,0,0,0-.08-.51,1,1,0,0,0-.25-.39,1.19,1.19,0,0,0-.42-.26,1.6,1.6,0,0,0-.56-.09l-.37,0-.34.06a2,2,0,0,0-.33.09l-.36.13v4.8h-.91v-5.83l.87-.07v.4a3,3,0,0,1,.4-.2,2.84,2.84,0,0,1,.38-.13,1.59,1.59,0,0,1,.39-.08,2.94,2.94,0,0,1,.44,0,2.66,2.66,0,0,1,.88.14,1.69,1.69,0,0,1,.65.38,1.72,1.72,0,0,1,.39.62,2.55,2.55,0,0,1,.13.86v3.94Z" style="fill:#4d4d4d"/><path d="M191.59,627.12v-3.85a1.6,1.6,0,0,0-.08-.51,1,1,0,0,0-.25-.39,1.19,1.19,0,0,0-.42-.26,1.59,1.59,0,0,0-.55-.09l-.38,0-.33.06a1.89,1.89,0,0,0-.34.09l-.36.13v4.8H188v-5.83l.88-.07v.4a2.4,2.4,0,0,1,.39-.2,3.43,3.43,0,0,1,.38-.13,1.59,1.59,0,0,1,.39-.08,2.94,2.94,0,0,1,.44,0,2.66,2.66,0,0,1,.88.14,1.62,1.62,0,0,1,.65.38,1.6,1.6,0,0,1,.39.62,2.54,2.54,0,0,1,.14.86v3.94Z" style="fill:#4d4d4d"/><path d="M194.22,624.2a4.06,4.06,0,0,1,.19-1.31,2.59,2.59,0,0,1,.52-1,2.31,2.31,0,0,1,1.75-.78,2.77,2.77,0,0,1,.94.15,1.76,1.76,0,0,1,.7.45,1.83,1.83,0,0,1,.44.74,3.11,3.11,0,0,1,.15,1v.55c0,.06,0,.11,0,.17h-3.76a3,3,0,0,0,.14.95,1.63,1.63,0,0,0,.39.67,1.49,1.49,0,0,0,.6.39,2.28,2.28,0,0,0,.76.13,3.64,3.64,0,0,0,.48,0c.16,0,.31,0,.45-.06a3.45,3.45,0,0,0,.43-.12,4,4,0,0,0,.44-.17v.83l-.46.18-.44.11a3.31,3.31,0,0,1-.47.07,4.33,4.33,0,0,1-.53,0,3.33,3.33,0,0,1-1.12-.18,2.31,2.31,0,0,1-.85-.55,2.28,2.28,0,0,1-.54-.94A4.1,4.1,0,0,1,194.22,624.2Zm.95-.71h2.76a2.84,2.84,0,0,0-.08-.69,1.21,1.21,0,0,0-.26-.49,1,1,0,0,0-.41-.3,1.6,1.6,0,0,0-.56-.09,1.25,1.25,0,0,0-.51.1,1.5,1.5,0,0,0-.44.32,1.75,1.75,0,0,0-.33.49A2.66,2.66,0,0,0,195.17,623.49Z" style="fill:#4d4d4d"/><path d="M200.63,629.42v-8.13l.87-.07v.37l.37-.17a2.84,2.84,0,0,1,.38-.13,1.77,1.77,0,0,1,.4-.08,3.15,3.15,0,0,1,.44,0,2.55,2.55,0,0,1,1,.18,1.84,1.84,0,0,1,.76.53,2.27,2.27,0,0,1,.49.91,4.32,4.32,0,0,1,.17,1.26,3.66,3.66,0,0,1-.22,1.32,2.72,2.72,0,0,1-1.62,1.61,3.62,3.62,0,0,1-1.26.21H202l-.21,0-.21,0v2.31Zm1.9-3a2.36,2.36,0,0,0,.8-.14,1.76,1.76,0,0,0,.64-.43,1.91,1.91,0,0,0,.42-.71,2.91,2.91,0,0,0,.15-1,3.4,3.4,0,0,0-.12-1,1.72,1.72,0,0,0-.34-.66,1.36,1.36,0,0,0-.54-.38,2.07,2.07,0,0,0-.73-.12l-.32,0a1.55,1.55,0,0,0-.31.06,1.58,1.58,0,0,0-.31.09,2.26,2.26,0,0,0-.33.13v4l.25,0,.24,0,.24,0Z" style="fill:#4d4d4d"/><path d="M168.21,633.82a2.1,2.1,0,1,1,2.09-2.1A2.1,2.1,0,0,1,168.21,633.82Zm0-3.7a1.6,1.6,0,1,0,1.59,1.6A1.6,1.6,0,0,0,168.21,630.12Z" style="fill:#8b8f9e"/><path d="M153.78,550.1v-3.63h-3.33v3.63h-1.69v-8.53h1.69V545h3.33v-3.43h1.69v8.53Z" style="fill:#4d4d4d"/><path d="M162.56,545.88v4.22h-1.49v-.41a2.76,2.76,0,0,1-.8.37,3.78,3.78,0,0,1-1,.11,2.11,2.11,0,0,1-1.53-.5,1.72,1.72,0,0,1-.53-1.3,1.81,1.81,0,0,1,.71-1.48,3.48,3.48,0,0,1,2.23-.58H161V546a1,1,0,0,0-.32-.77,1.73,1.73,0,0,0-1.11-.27,4.1,4.1,0,0,0-.88.09,5.89,5.89,0,0,0-.94.3l-.21-1.34a7.19,7.19,0,0,1,1.15-.36,5.52,5.52,0,0,1,1.17-.12,2.87,2.87,0,0,1,2,.61A2.19,2.19,0,0,1,162.56,545.88Zm-3.72,2.36a.59.59,0,0,0,.24.5,1,1,0,0,0,.67.19,3.34,3.34,0,0,0,.66-.07,3.22,3.22,0,0,0,.61-.22v-1.18l-.41,0h-.41a1.94,1.94,0,0,0-1,.22A.68.68,0,0,0,158.84,548.24Z" style="fill:#4d4d4d"/><path d="M169.35,545.88v4.22h-1.48v-.41a2.76,2.76,0,0,1-.8.37,3.78,3.78,0,0,1-1,.11,2.11,2.11,0,0,1-1.53-.5,1.72,1.72,0,0,1-.53-1.3,1.81,1.81,0,0,1,.71-1.48,3.48,3.48,0,0,1,2.23-.58h.87V546a1,1,0,0,0-.32-.77,1.73,1.73,0,0,0-1.11-.27,4.1,4.1,0,0,0-.88.09,5.89,5.89,0,0,0-.94.3l-.21-1.34a7.19,7.19,0,0,1,1.15-.36,5.52,5.52,0,0,1,1.17-.12,2.87,2.87,0,0,1,2,.61A2.18,2.18,0,0,1,169.35,545.88Zm-3.71,2.36a.59.59,0,0,0,.24.5,1,1,0,0,0,.67.19,3.34,3.34,0,0,0,.66-.07,3.22,3.22,0,0,0,.61-.22v-1.18l-.41,0H167a1.94,1.94,0,0,0-1,.22A.68.68,0,0,0,165.64,548.24Z" style="fill:#4d4d4d"/><path d="M175,543.66l-.1,1.52a3.35,3.35,0,0,0-.37-.07l-.36,0a1.9,1.9,0,0,0-.61.1,2.06,2.06,0,0,0-.64.33v4.58h-1.6v-6.41l1.59-.07v.74a2.25,2.25,0,0,1,.64-.61,1.38,1.38,0,0,1,.7-.18l.4,0A2,2,0,0,1,175,543.66Z" style="fill:#4d4d4d"/><path d="M177.66,541v9.09h-1.6v-9Z" style="fill:#4d4d4d"/><path d="M179.32,546.89a3.35,3.35,0,0,1,.87-2.5,2.87,2.87,0,0,1,2.09-.86,2.58,2.58,0,0,1,1.88.7,2.62,2.62,0,0,1,.7,1.94c0,.22,0,.43,0,.64s0,.39,0,.53h-3.95a1.72,1.72,0,0,0,.62,1.13,2.2,2.2,0,0,0,1.34.37,5.3,5.3,0,0,0,1-.08,5.41,5.41,0,0,0,.89-.21v1.3q-.53.15-1,.24a5.76,5.76,0,0,1-1.1.08,3.45,3.45,0,0,1-2.4-.81A3.19,3.19,0,0,1,179.32,546.89Zm1.54-.69h2.47a1.63,1.63,0,0,0-.32-1,1,1,0,0,0-.85-.41,1.15,1.15,0,0,0-.85.37A1.85,1.85,0,0,0,180.86,546.2Z" style="fill:#4d4d4d"/><path d="M194.14,550.1v-3.86a1.25,1.25,0,0,0-.28-.92A1.12,1.12,0,0,0,193,545a3.06,3.06,0,0,0-.56,0,2.84,2.84,0,0,0-.56.17v4.85h-1.6v-3.86a1.25,1.25,0,0,0-.29-.93,1.17,1.17,0,0,0-.81-.27,2.94,2.94,0,0,0-.57.05,3.2,3.2,0,0,0-.55.16v4.85h-1.6v-6.41l1.55-.07v.48a3.91,3.91,0,0,1,.82-.41,3,3,0,0,1,.87-.12,2.66,2.66,0,0,1,1,.18,2,2,0,0,1,.71.54,3.71,3.71,0,0,1,.95-.53,2.92,2.92,0,0,1,1.08-.19,2.19,2.19,0,0,1,1.64.6,2.35,2.35,0,0,1,.58,1.71v4.22Z" style="fill:#4d4d4d"/><path d="M172.23,557a2.1,2.1,0,1,1,2.1-2.1A2.11,2.11,0,0,1,172.23,557Zm0-3.7a1.6,1.6,0,1,0,1.6,1.6A1.6,1.6,0,0,0,172.23,553.28Z" style="fill:#8b8f9e"/></svg>