<svg xmlns="http://www.w3.org/2000/svg" viewBox="0 0 621 734"><path d="M477.73,407.6l1.51.11.1-1.33.56.35,2.56,5.5-1,.7-5.43.52-6.83-3-1.72-2,4.17-2.73,5,.7,1.08,1.15ZM151.2,372.72,161.5,376l-.74,2.13.67.46,1.4-.63.56.7,3.22.11,5.5,6.48,3.33,1.15,5.78.18,3.15.87.88,1.68,3.32.88.74,1.68,13.8,4,25.12,4,2.73,3.18.38,1.62,1.26.52.39,1.61,8.93,5.85,4.27,6,5.33.52,4.31-1.4,13.59,2.73.56,1.76-2.21,1.78-.31,3.26,5.81,3.08,2.1.11.21-1-1.05-9.57.46-1.22,10.68.28,2,2.48,4.06,2.21,5.33.81-1.62,1.75-.1,1.61,4.06,7.88,1.16-.63-1.54-5,1.89-.81-1.33-4.34,1.64.17-.49,1.23.95,2.91,1.65-.88,1.22-3.26,1.23.11-.84,1.22L306,427.5l4.27.63,4.27,2.66,14.16-.35,3.71-4.69,1.23-3.36,8.26-2.49,2.38-3.08,9.92-6.83,6-2.56,9.1-2,.32-.81,4.17-1.33,1.82.28,1.15-1.05,2.74,2.14.73-3.65-.59-1.4,1.89-3.71.38-5.39,3.05-3.3-1.29-3-.57-7.81,5.78-8.16,9,.8,1.33,1.86,13.8,2.14-1.12,1.85,1.33,1.33,1.44-.63,2.17,3.65,1.93.7,2.28,8.16-.95.63.67,2.21h2.27l4.21,9,3.25,4,15.73,1,7.25,1.22,13,11.32,9.7,11.52,5.71,3.26-6.09-7.95-2.94-6.45,6-2.31,3.5-.17,1.72,1.22,1.71,3.54h3.15l2.46,1.75,3,4.24-.28,1.68,1.05.18,1.44-2.21-2.45-2.14L492.93,421l8.69.46-1.33-1.41-7.64-1.4-1.33-1.33,12.54-.63,4.28,1-2.32-2.31-10.68-.07-4.83-1.51-4.59-7.88.28-4.06,3.64-1.16,2.28.81,3.43-2.91,2.07-.45,1.5,10.78,8,4.7,3.92.7-6.3-3.29-3.4-3-1.05-2.48.1-4.52,1.05-1,1.51,1.15.6,3.72.59-7.6,2.21-2.49h4.66l3.78,1.61,1.61-.11,3.92,3,2.28,7.53,3.4,5.67,5.92,6.55-7.92,12.05-28.33,36.61-37.63,28.44-10.19,6.62L445.43,505l-7.14,3.71-1.89,3.36-10.2,2.39-1.54-.71-1.78-3-2.28,1.86-4.17,1.68-2-3.36-3.64.1-7,3.89-2.59,2.91-2.66,1-2.74,2.56-1.05-1.34-4.93,8.2-7.92,1.4-.21,2.56-2.28,4.24-6.06.45-2.77.88-.07,1.16-3.71,1.15-1.64-3.89-2.67-3-1.68,2.84-3.22.17-1.72,2.91.74,3.89-1.65.28-2.06,2.84-6,2.73-3.12-1.16-1.12,1.4-2.94,1.51-1.12-2.73-3.22-3.72,6.44-4.93,1.61-3.19-3.25-5.47-4.84,2.49-11.24,8-3.89-2.38-1.4,1-1.23-.52-2.59,1.4-3.22-1.33-3.89,3-3.78.87L297,540.05l-2.84-.46-.6.7.77,2.91-.49.45-2.76-2.31L289.94,539l-3.15-.8-.84-1.69-.59-10,.56-14.92,3.39-9.35-.77-1.23-4.16-1.05-5.12-4.59-2.49-1.05-.94,2-2.38,1.23-2.77-1.86-3.05-5.92-2.17-1.33-2.17,1.16-13.73-3.26-3.54,1.4-12.26-3.54-1.33-.8-1.93-3.79-5.88-.1-1.44-2.38-10.26-6h-7l-2.56,1.75-7.92-4.69-2.55.28-1.61-2.73-15.35-8.13-5.5,6.55,2.67,4.76L171,470.41l1,2.38-1,1.68-1.72-1.68-1.82.46-2.49-2.14-.17-1.22L160,467.5l-1.83.7-.73,2.32-1.72,1.22-6.27-.8-2.84,6-3,.46-4.17-4.17-5.43,1.05,6.72,36.32-25.15,3-16.63,1.15-3.33-.35-7.92-3-2.2.17-1.55-8.19-.94-1.23-4-3.78-4,2.56-2.27-4.7-5.89-3.71-3.22-6.38L58.69,485l-2-2.49L60,479.73l-.11-5.05-1-1.57-4.86-3.37-2.18-5.49,5-2.67-9.36-11.07-.14-1.57,14-15.83-1-8L55.57,419l-.45-2.73.77-6.55-4.59-8.86,2.77-4,4.76-3.37.07,1.4,1-.1L60.2,393l10-3.64,12.86-6.48,4.59-.7.66,2.73,2.49.81.49-1.79,6.87-2.14,2.66-2.13,8.16-1.16,8.09-2.66,3.22-1.51.46-1.5,3-.18,5.53-4.87,6.2-.63,2.49,1.05,9.25.88,3.5,1.22.42,2.46Zm87.88-99.48.6.7-2.07-.53-1.05-1.26h1.61Zm-6.51-8.69-1-.35,1.22-.35-.17.7Zm-1.19-3.82-.46.53-.45-.88.59-1.68.32,2Zm15.38-.11-.29.81-.59-.35-.46-1.33,1.79-3.36Zm2.2-4v1.26l-.77-2.76,1.26-1.44.56,1-1,2Zm-17.9-2.38h-.77l1.44-.88,1.22-2.66.49,2.31-2.38,1.23Zm39.79-9.07,2.67.28,1-.7,2.73,1.85-4.27,1-8.94-.17.07-2.21.88-1.15,1.93-.18,4,1.3ZM333.31,243l-1.26-.1v-.64l1.72-1.78.87,1.26L333.31,243Zm-54.26.07-3.54-2,.28-.46,1.51-.35,2.56,1Zm-4.8-2.49.6,2.95-6.06-.63-1.51-1.51,5.05-1.51h1.43l.49.7Zm-46.83-.8,2.38,1.05L232,243l1.12,2.48.21,3.37-1.54-.46-1.43,4.45-1.05-.81-1-5L226,241.92l.1-2.66,1.37.56Zm-5.32-2.66-.46.52-1.33-3.19,1.93.28-.14,2.39Zm-2.84-6,1.12.18.35,1.68-1.44-.88-2.06.28.21-1Zm275.25-40.6-1.93-.52,1.23-.46Zm-150-23.36-2.83.87.28-8.47-2.74-5,.6-1.26-1.44-5.53-2.1-1.33-2.76-4.63.28-3.92-9.71-9.18-1.5-.7-4.49,1.44-13.69-7,.73-2.42-.31-2.94L302,112.81l-2.48-1.34L296,111l-3.53.45.24,2.07h0l1.89.46v.87l-2.83-.8-.6-2.67-2.56.46-2.48,1.79-2,4.62.84,1.51-16.39,11.14-3.26,2-16,5.6-.17,9.88,2.76.35-1.05,3.75-3,.1-4.59,11.14,1.12.28,1.82-2.13.21,1.26-5,5.53,5.11,2.66-.77.53-4.76-2.14-1.79,1.61.87,3.82-1.26,2.31-.49-.87.6-1.79L235.62,172l-5.12,4.45-.1.7.94.45-1.26.7-.38,2.6-.88.45.11,1.26-1.16,1.86-1.51,13.17,1.16-.35-.35,2,2.94-2.14.11,1.79,5.5-1.16,6.27,4.28h1.64l1.33,2.41,6.45.11,5.11-3.19,4,.63,2.45-2.13,6.58-.18,1.51-1.86,6.65,1.44,3.54-3.36,10.37-1,2.21-2,4.38-.11,5.88,2,6.45-2.13H313l2.17,2.76,10.68,2,5.92,6.31L341,219.75l1.82-1.61.31,1.68-2.06.8.38,1.26h1.05l.77,3.19,2.28,4.17,1.26.35-.66,2.77-3.65,2.31L333,237.33l-6.2,8.37-4.45,1.44-2.07-.88L316.18,242l-.84-2.49L310.12,236l-9.63,2.21-6.55,5.33-9.14-2.14-.49.52-7.43-4.34-5.64-.7-.88.88-.77-.63-14.81,8.61-3.4,4.1-8.09,5.5-3.79,6.48-1.71,1.05L235,256.6l1.54-5.33,1.61.81,1.89,5.85.57-.18-.39-2.2-1.33-1.86-.11-2-1.61-1.16-2-6.83-5.33-7.46,6.66-8.72-.56-.35-1.33,1.61L230.36,235l-2.27.53-4-2.49-3.71-4.27L215,226.09l-.77-1.79-1.89.81-2.45-1.51-4.38-11.1-.39-2.6,1-.45.45-1.61-4.27,1-6.38,3.36,1,8.27,1.13,2,4.83,4.62-.28,1.79,3.15,3.12.39,1.61,4.73,2,6.37,5.15,2,.52,4.94,10.3,3.32,9.88,7.43,10.93,2.17,1.86v2l.88-1.61,1.89,3.46-1.23-3.18,1.79,1.05-.39-1,7.5-1.51-1.61-.7-4.94.52-1.61-2.13,5.15-2.21,3.05-3.19,4.3-.87.28-.63-1.78-1.33-.39-1.68,3.54-6.59.67-4.1,6.2-4,2.66.17-1.51,3.58,1.72-.11.66-2.49,13.31-.28,11.32,1.51,4.48-1.51,1.26-2.13,1.44-.63,5.22-.81.87-1.15,6.66-.28,2.94.52,4.07,2.31,1.15,1.79-.17,1.33,1.92,1.68,6.59,1.33,1.71-.8-.49-2.49,2.07-1.26,1,.1,1,2.84,8.75-2.42,4.94,1.69,1.26-1.27,1.55,1.06.87-2.14,3-.11,2.77-1.78,3.39,1.5,4.49-.17,1.61,2.2.59,4.45,1.23,2.6,4.87,7,8.58-3.75,6.45,1.16L397,264.41l5.5,2.76,1.12-.35-.35,4,.88,3.19h1.71l-.59-7.12,4,2.49,2.87.35,2.32,4.7,1.82.28.38,1.05,6.76,4.69,3.05,3.19,4.1-1.26,1.89,2.94L431.32,289l1.26,4.1,1.16.7,1.33,2.66v1.44l-1.65,2.84.49.52-1,1.16,1.23,1.22,1.16,3.72,1.43.7,3.89,5.6.84-.28.67,1-.67.46,4.56,7.11,2.87.1,5,10.83,5.26,1.22,13,8.24.28-.63,1.15.28,2.07,3.18,3.15.46,8.48-1.44,2.84-2.66,9-4.69,2.67-.18,1.22-1.61L513.7,337l1.65.87,1,1.68,2.73.81,6.1-.46-1.68-17.13,1.26-4.27-3.22-24.24L497.77,283.5l-2-3.36-.21-2.14,3.12-6.41-4.28-3.54-1-2.59L487,265l-2-1-1.54,2-2.56.63-.87-.1-3.43-3.82-4.66,1.79L458.5,264l-.59-.8-4.87.28-.46-1.61-9.53-.71-1.61-1.85,1-1.51-1.54-.45.39-.7-.84-.88-2.11.18-2.83-7.57.84-1.44-3.51-3.11-1.33.52-.94-1.05-.32-4.17L421,237.4l-3.65-2,1.51-4.17L415.31,226l-5.88-2.49-2.21-2.84-3.43-2-7.6-1.16-3.05-4.09.21-4.63,3.54-5.43,6.69-.7-.07-.7,3.71-1.43,1.79.8,3.53-2.31,2.32.88,8.65-6.41,4.31-.28,4-4.28,3.05-.8,1.4.52.56-1.26,7.21-2.24,4.38,1.43,2.94-.45,6.87,1.44,1.72,1.85,1.71,4.73,1.44-.7,1.12.53,3.5,3.57-.73-2.49,6,.11,9.63-2,1.89,1.51,4.59-.35.67.63.94-2.59,6.45-1,.28-2h-2.56l-.07-.7,3.64-2-.21-3.22-2.59-.17L493,185l-1.72-1-2.84,1.85-16.39-.45-5.36-10.79-4.66-3.75-1.92-.1-2.1-1.68-.46-9.25.77-1.33,2.45,1v-2.84l8.3-7.32,5.64.17,10.09,3,3.92,2,2.84,2.49,7.74,3.39,9.5,5.78,9.53.41,9.32,4.07-9.22,3.69-6.31,6.23-4,8.65-.74,8,.39,3.47,2.21,5.61,18.28,22.41,4.31,7.4.6,2.38.35,5.08-.67,3.81-6.16,16.54.38.87-3.61,10.83.11,6.83,7.25,15.27,21,49.78,2.73,4.44-4.49,4.07L548,360.28,550.62,373l.18,4.62-1.44,1.69.21,5.21-1.12,1.06,1.82,4,3.51.45,1.89,5.57h0l-20,.88,1.12-2,.28-4.8-6.83-11.35-10.08-4.62-3.65.7L515.32,371l-2.39-2.21-5,.53-4.48,2.91-3.12,1.15H497.8l-8.54,5.22h-3.65l-6.3-1.23-4.49-2.66-13.34-2.38-13.31-5-1.4-.35-.74.63-3.33-3.82L436.64,362l-5.78-5.85.11-1.33-2.84-4,1.93-3-8.93-2.77-.56-3.82-.88-.35-1,1.58-8.16-3.89-2.73-3-3-.11-.94-1.68-2-1-.84-2-5.82-4L392,321.54l-3.15-2-7.22,5-6.44.53-9.11,6.3-4.38-2.13-.77.45.6,4.52-2.49.53,2.31,5.49.11,3.12-3.16,5.85L357,355.13l-1.33,1.54-.21,2.56L354,360.67l-6.31,17.72-3.89,1.86-12.36-3.72L326.69,379l-2.77,2.91-4.17-.28L317.09,384l-4.48.63L309.88,386l-9.43.63-.45,1-2.38-.81-5.89-7.18-5.5-3.82-.66-1.4-8-5.22.95-3.82-6.83-.45-6-3.89L260.45,364h-5.36l-1.64-.81-3.23-2.66-2.94-10.3-2.77.28L242,345l-5.82-5.78-8.48-6.83-3.92-2.13-17-.7-3.12,2.94-.28,2.66-3.33,2-1.5.63-3.54-.52-2.56,1-2.84-.7-4.2,1.05-4.1-3.29-.28-6.84-1.92.29-.35,7.35-2.77-.8V332.4l-1.16,2.38-.66-.28.31-2.56-.84-.28-.73,2.21-.18.7,5.89,2.84v.7L173.69,337l-3.26.7-.18,1.51-1.22-.81-2.66,1.44-2.88-1.44-1.4-3.29-4.87-4.69-3.25.28L153,329l-7.92-5.5L140,318.67l-2.59-3.37-7.91-15.09-5.33-7.64-5.64-5.43-3.43-.87-14.92-10.93-5.82-7.81L91.58,266l-1-2.84-2.17-1.26.77-7.18,2.49-6.83L103.6,241l11.9-9.52,8.87-5.71,13.69-8.2,4.45-1.51,7.32-5.6,15.06-7.74,5.15-1,6.55,1.5,4.94-.35,6,1.26,6.3,4.28,2.38-.11,17.06-6.48,7.53-1.68,2.6-1.61,2.1-10.86.31-6.69.95-.52-.56-2-1.33-.28-1.12-1.33,4-.7,2.1-3.29L241,161.32l-.84-1.68,2.73-.7,3.36-7.39-1.78-2.24.56-.7,2.17-.11.11-10.09-8.2-2.59-6.38-5.25-6-9.29L225,115.85l-.84-5.43.21-6.06,4.27-10,4.59-8.2,3.15-3.46,3.26-1.44,11.07-3.64,6-.35,17.41-7.15,14.29-.1L303,73l12.39,1.19h14l14-4.36,6.69,5,5.25,9,3.78-2L355,72.43l10.77,4.07,14,5.24,8.73-.58,6.12,8.74,7,10.48,7.86,9.32L411.21,124l6.4,1.16,9.91-.87,18.92,10.19,8.38,2.94.67,1.79,5.32,5.43-.94,2.66h-2.6L456,150l1.51.7-.07,1-.88,1.09-1.15-.11-.21,2.59-7.6,4.73L446.45,163l-5.39,5.71L434.47,172l-5.22-2.31-5.6,2.94-1,1.68-7.5,2.77-8,4.38-9.11.17-3.12,2.66-9.31.6-4.1-2.24-7-7.29H373l-3.44-7L368.23,167l-.87.1-2.84,4.45-3.4,1.09.07-1.09-2.94-.28-2,.81-10.65-3.29-.66-1.27Z" style="fill:#e5e5e5"/><path d="M121.11,210.36a5.17,5.17,0,0,1,.27-1.72,3.6,3.6,0,0,1,.74-1.3,3,3,0,0,1,1.1-.81,3.4,3.4,0,0,1,1.36-.27,3.37,3.37,0,0,1,1.29.25,2.85,2.85,0,0,1,1,.76,3.42,3.42,0,0,1,.68,1.25,5.69,5.69,0,0,1,.24,1.73,5.41,5.41,0,0,1-.25,1.72,3.66,3.66,0,0,1-.74,1.3,3,3,0,0,1-1.09.81,3.4,3.4,0,0,1-1.36.27,3.24,3.24,0,0,1-1.3-.25,2.85,2.85,0,0,1-1-.76,3.35,3.35,0,0,1-.69-1.25A5.68,5.68,0,0,1,121.11,210.36Zm1-.11a5.5,5.5,0,0,0,.18,1.5,2.86,2.86,0,0,0,.5,1,1.9,1.9,0,0,0,.75.56,2.42,2.42,0,0,0,.94.18,2.23,2.23,0,0,0,.88-.18,1.94,1.94,0,0,0,.75-.54,2.79,2.79,0,0,0,.55-1,4.77,4.77,0,0,0,.2-1.44,5.61,5.61,0,0,0-.18-1.52,2.59,2.59,0,0,0-.51-1,1.77,1.77,0,0,0-.75-.56,2.34,2.34,0,0,0-.93-.18,2.23,2.23,0,0,0-.88.18,2,2,0,0,0-.76.54,2.9,2.9,0,0,0-.54,1A4.68,4.68,0,0,0,122.1,210.25Z" style="fill:#4d4d4d"/><path d="M134.63,211.24a3.79,3.79,0,0,1-.22,1.29,2.87,2.87,0,0,1-.59,1,2.6,2.6,0,0,1-1.93.83,2.74,2.74,0,0,1-1.06-.19,2,2,0,0,1-.81-.56,2.52,2.52,0,0,1-.52-.94,4.14,4.14,0,0,1-.18-1.27,3.58,3.58,0,0,1,.22-1.3,2.87,2.87,0,0,1,.59-1,2.55,2.55,0,0,1,1.92-.83,2.78,2.78,0,0,1,1.06.19,2.14,2.14,0,0,1,.82.56,2.62,2.62,0,0,1,.52.93A4.19,4.19,0,0,1,134.63,211.24Zm-.95,0a3.5,3.5,0,0,0-.12-1,1.82,1.82,0,0,0-.33-.7,1.44,1.44,0,0,0-.54-.41,1.86,1.86,0,0,0-.73-.14,1.54,1.54,0,0,0-.68.15,1.45,1.45,0,0,0-.54.45,2.05,2.05,0,0,0-.35.71,3.55,3.55,0,0,0-.12,1,4,4,0,0,0,.11,1,1.94,1.94,0,0,0,.34.69,1.47,1.47,0,0,0,.54.42,1.83,1.83,0,0,0,.73.14,1.58,1.58,0,0,0,.68-.16,1.67,1.67,0,0,0,.54-.45,2.2,2.2,0,0,0,.35-.72A3.45,3.45,0,0,0,133.68,211.28Z" style="fill:#4d4d4d"/><path d="M136,214.12v-.83a2.92,2.92,0,0,0,.4.1l.42.07.43,0h.44a1.84,1.84,0,0,0,.55-.07,1.19,1.19,0,0,0,.41-.18.67.67,0,0,0,.25-.28.7.7,0,0,0,.09-.35.78.78,0,0,0-.06-.31.59.59,0,0,0-.17-.25,1.51,1.51,0,0,0-.31-.2,2.56,2.56,0,0,0-.45-.16l-.68-.2a2.2,2.2,0,0,1-.54-.23,1.76,1.76,0,0,1-.39-.32,1.49,1.49,0,0,1-.24-.43A1.72,1.72,0,0,1,136,210a1.54,1.54,0,0,1,.58-1.22,1.88,1.88,0,0,1,.67-.36,2.75,2.75,0,0,1,.88-.13h.39l.36,0,.34,0,.32.06-.1.8-.34-.06-.32,0-.33,0h-.37a2,2,0,0,0-.51.06,1,1,0,0,0-.38.17.6.6,0,0,0-.24.26.68.68,0,0,0-.07.32.85.85,0,0,0,0,.29.7.7,0,0,0,.15.23,1.3,1.3,0,0,0,.26.17,2.21,2.21,0,0,0,.37.14l.68.18a2.36,2.36,0,0,1,.62.24,1.74,1.74,0,0,1,.44.33,1.17,1.17,0,0,1,.27.42,1.7,1.7,0,0,1,.08.51,1.79,1.79,0,0,1-.16.76,1.66,1.66,0,0,1-.46.59,2.07,2.07,0,0,1-.7.4,2.92,2.92,0,0,1-.9.13h-.47l-.41,0-.39-.06Z" style="fill:#4d4d4d"/><path d="M141,209.11v-.74h.7v-1l.92-.13v1.16h1.53v.74h-1.53v3.31a1.77,1.77,0,0,0,.06.49,1,1,0,0,0,.19.33.75.75,0,0,0,.3.2.87.87,0,0,0,.37.07h.2l.19,0,.19,0,.21,0v.77l-.27.06-.25,0a2,2,0,0,1-.24,0h-.26a2.11,2.11,0,0,1-.64-.09,1.41,1.41,0,0,1-.85-.89,2.66,2.66,0,0,1-.12-.86v-3.36Z" style="fill:#4d4d4d"/><path d="M146.65,211.43v2.81h-.91v-8.31l.91-.08v4.78h.53l2-2.26h1.11L148,210.9l2.48,3.34h-1.14l-2.06-2.81Z" style="fill:#4d4d4d"/><path d="M155.69,210.19v4.05h-.86v-.41a3.46,3.46,0,0,1-.41.23l-.4.15a3,3,0,0,1-.43.08,3.86,3.86,0,0,1-.5,0,2.47,2.47,0,0,1-.75-.11,1.71,1.71,0,0,1-.58-.32,1.46,1.46,0,0,1-.37-.51,1.66,1.66,0,0,1-.12-.64,1.37,1.37,0,0,1,.17-.7,1.55,1.55,0,0,1,.5-.56,2.39,2.39,0,0,1,.82-.37,4.52,4.52,0,0,1,1.16-.13h.89v-.64a1.36,1.36,0,0,0-.09-.51.83.83,0,0,0-.24-.38,1.06,1.06,0,0,0-.42-.23,2.13,2.13,0,0,0-.6-.08l-.41,0a2,2,0,0,0-.42.07l-.43.12a4,4,0,0,0-.45.16l-.19-.76.52-.21a4,4,0,0,1,.49-.15,3.61,3.61,0,0,1,.49-.07,4.39,4.39,0,0,1,.54,0,2.73,2.73,0,0,1,.89.13,1.64,1.64,0,0,1,.65.36,1.6,1.6,0,0,1,.41.6A2.2,2.2,0,0,1,155.69,210.19Zm-3.47,2.46a1,1,0,0,0,.06.35.8.8,0,0,0,.2.28,1,1,0,0,0,.33.17,1.68,1.68,0,0,0,.47.06l.41,0,.39-.08.37-.13a3.13,3.13,0,0,0,.36-.19v-1.37h-.2l-.3,0h-.42a3.55,3.55,0,0,0-.77.07,1.49,1.49,0,0,0-.52.2.82.82,0,0,0-.29.3A.85.85,0,0,0,152.22,212.65Z" style="fill:#4d4d4d"/><path d="M157.76,216.53v-8.12l.88-.07v.37l.36-.18.38-.13a2.57,2.57,0,0,1,.4-.07,3.15,3.15,0,0,1,.44,0,2.55,2.55,0,0,1,1,.18,1.87,1.87,0,0,1,.77.53,2.39,2.39,0,0,1,.48.91,4,4,0,0,1,.17,1.26,3.66,3.66,0,0,1-.22,1.32,2.73,2.73,0,0,1-.64,1,2.56,2.56,0,0,1-1,.62,3.6,3.6,0,0,1-1.25.21h-.44l-.21,0-.21,0v2.3Zm1.9-3a2.11,2.11,0,0,0,.8-.15,1.62,1.62,0,0,0,.64-.42,1.91,1.91,0,0,0,.42-.71,2.93,2.93,0,0,0,.15-1,3.38,3.38,0,0,0-.12-.95,1.72,1.72,0,0,0-.34-.66,1.36,1.36,0,0,0-.54-.38,2,2,0,0,0-.72-.12l-.33,0-.31.05-.31.09-.33.14v4l.26.05.23,0,.24,0Z" style="fill:#4d4d4d"/><path d="M164.06,211.31a4,4,0,0,1,.19-1.3,2.59,2.59,0,0,1,.52-1,2.28,2.28,0,0,1,.79-.59,2.38,2.38,0,0,1,1-.19,2.77,2.77,0,0,1,.94.15,1.86,1.86,0,0,1,.7.44,2,2,0,0,1,.44.74,3.17,3.17,0,0,1,.15,1v.54c0,.06,0,.12,0,.18H165a3,3,0,0,0,.14.95,1.77,1.77,0,0,0,.39.67,1.6,1.6,0,0,0,.6.39,2.29,2.29,0,0,0,.76.12,3.7,3.7,0,0,0,.48,0l.45-.07a2.26,2.26,0,0,0,.43-.11,4,4,0,0,0,.44-.17v.83a3.78,3.78,0,0,1-.46.17,3.17,3.17,0,0,1-.44.12l-.47.07a4.44,4.44,0,0,1-.53,0,3.33,3.33,0,0,1-1.12-.18,2.29,2.29,0,0,1-.85-.54,2.35,2.35,0,0,1-.54-.94A4.13,4.13,0,0,1,164.06,211.31Zm.95-.7h2.76a2.84,2.84,0,0,0-.08-.69,1.48,1.48,0,0,0-.26-.5,1,1,0,0,0-.41-.29,1.6,1.6,0,0,0-.56-.1,1.26,1.26,0,0,0-.51.11,1.35,1.35,0,0,0-.44.31,1.74,1.74,0,0,0-.33.5A2.55,2.55,0,0,0,165,210.61Z" style="fill:#4d4d4d"/><path d="M171.38,205.85v8.39h-.91v-8.31Z" style="fill:#4d4d4d"/><path d="M174.45,205.85v8.39h-.91v-8.31Z" style="fill:#4d4d4d"/><path d="M176.25,211.31a4,4,0,0,1,.19-1.3,2.59,2.59,0,0,1,.52-1,2.22,2.22,0,0,1,1.75-.78,2.77,2.77,0,0,1,.94.15,2,2,0,0,1,.71.44,2.09,2.09,0,0,1,.43.74,3.16,3.16,0,0,1,.16,1V211c0,.06,0,.12,0,.18s0,.12,0,.18h-3.76a3,3,0,0,0,.14.95,2.08,2.08,0,0,0,.39.67,1.6,1.6,0,0,0,.6.39,2.29,2.29,0,0,0,.76.12,3.93,3.93,0,0,0,.49,0l.44-.07a2.36,2.36,0,0,0,.44-.11c.14-.05.28-.1.43-.17v.83a3.25,3.25,0,0,1-.46.17,3.17,3.17,0,0,1-.44.12l-.47.07a4.44,4.44,0,0,1-.53,0,3.33,3.33,0,0,1-1.12-.18,2.29,2.29,0,0,1-.85-.54,2.35,2.35,0,0,1-.54-.94A4.13,4.13,0,0,1,176.25,211.31Zm.95-.7H180a2.84,2.84,0,0,0-.08-.69,1.32,1.32,0,0,0-.26-.5,1,1,0,0,0-.41-.29,1.6,1.6,0,0,0-.56-.1,1.26,1.26,0,0,0-.51.11,1.47,1.47,0,0,0-.44.31,2,2,0,0,0-.33.5A2.55,2.55,0,0,0,177.2,210.61Z" style="fill:#4d4d4d"/><path d="M151.09,220.93a2.1,2.1,0,1,1,2.1-2.09A2.1,2.1,0,0,1,151.09,220.93Zm0-3.69a1.6,1.6,0,1,0,1.6,1.6A1.6,1.6,0,0,0,151.09,217.24Z" style="fill:#8b8f9e"/><path d="M64.34,253.48l-2.19-7.87h1.06L65,252.53h.06l1.67-4.86-.68-2.06h1l2.24,6.92h.06l1.82-6.92h1l-2.25,7.87H68.66l-1.47-4.57h0l-1.54,4.57Z" style="fill:#4d4d4d"/><path d="M72.83,250.55a4.46,4.46,0,0,1,.18-1.31,2.78,2.78,0,0,1,.53-1,2.34,2.34,0,0,1,.78-.58,2.38,2.38,0,0,1,1-.19,3.11,3.11,0,0,1,1,.14,1.86,1.86,0,0,1,.7.46,2,2,0,0,1,.44.73,3.17,3.17,0,0,1,.15,1v.36a1.09,1.09,0,0,1,0,.18,1.1,1.1,0,0,1,0,.18H73.74a2.75,2.75,0,0,0,.14.95,1.63,1.63,0,0,0,1,1.06,2.35,2.35,0,0,0,.77.12l.48,0,.45-.07a2.26,2.26,0,0,0,.43-.11,3.83,3.83,0,0,0,.43-.17v.83a3.67,3.67,0,0,1-.45.17,3.6,3.6,0,0,1-.44.12l-.47.07-.54,0a3.23,3.23,0,0,1-1.11-.18,2.33,2.33,0,0,1-.86-.54,2.61,2.61,0,0,1-.54-.94A4.43,4.43,0,0,1,72.83,250.55Zm1-.7h2.75a2.42,2.42,0,0,0-.08-.69,1.38,1.38,0,0,0-.25-.5,1,1,0,0,0-.42-.29,1.54,1.54,0,0,0-.55-.1,1.27,1.27,0,0,0-.52.11,1.47,1.47,0,0,0-.44.31,1.71,1.71,0,0,0-.32.5A2.29,2.29,0,0,0,73.78,249.85Z" style="fill:#4d4d4d"/><path d="M78.77,253.36v-.83a2.73,2.73,0,0,0,.41.1,2.7,2.7,0,0,0,.41.07l.43,0h.44a1.84,1.84,0,0,0,.55-.07,1.19,1.19,0,0,0,.41-.18.75.75,0,0,0,.25-.28.7.7,0,0,0,.09-.35.75.75,0,0,0-.06-.31.59.59,0,0,0-.17-.25,1.28,1.28,0,0,0-.31-.2,2.56,2.56,0,0,0-.45-.16l-.68-.21a2.18,2.18,0,0,1-.54-.22,1.76,1.76,0,0,1-.39-.32,1.64,1.64,0,0,1-.24-.43,1.74,1.74,0,0,1-.08-.53,1.56,1.56,0,0,1,.15-.67,1.49,1.49,0,0,1,.43-.54,1.84,1.84,0,0,1,.68-.36,2.65,2.65,0,0,1,.87-.13h.39l.36,0,.34,0,.32.06-.1.8-.34-.06-.32,0-.33,0h-.37a1.62,1.62,0,0,0-.51.06,1.21,1.21,0,0,0-.38.16.73.73,0,0,0-.24.26.76.76,0,0,0-.08.32.85.85,0,0,0,.05.3.57.57,0,0,0,.15.23,1.3,1.3,0,0,0,.26.17,2.21,2.21,0,0,0,.37.14l.68.18a2.36,2.36,0,0,1,.62.24,1.69,1.69,0,0,1,.44.33,1.17,1.17,0,0,1,.27.42,1.65,1.65,0,0,1,.08.51,1.79,1.79,0,0,1-.16.76A1.75,1.75,0,0,1,82,253a2.34,2.34,0,0,1-.71.4,2.92,2.92,0,0,1-.9.13h-.47l-.41,0-.39-.07Z" style="fill:#4d4d4d"/><path d="M83.79,248.35v-.74h.71v-1l.91-.13v1.16H87v.74H85.41v3.31a1.75,1.75,0,0,0,.07.49,1,1,0,0,0,.19.33.83.83,0,0,0,.3.2.87.87,0,0,0,.37.07h.39l.19,0,.21,0v.77l-.27.06-.25,0-.24,0h-.26a2.11,2.11,0,0,1-.64-.09,1.41,1.41,0,0,1-.85-.89,2.66,2.66,0,0,1-.12-.86v-3.36Z" style="fill:#4d4d4d"/><path d="M89.46,250.67v2.81h-.91v-8.31l.91-.08v4.78H90l2-2.26h1.12l-2.28,2.53,2.49,3.34H92.13l-2.06-2.81Z" style="fill:#4d4d4d"/><path d="M98.49,249.43v4h-.85v-.41a3.32,3.32,0,0,1-.41.22,2.17,2.17,0,0,1-.4.15,3,3,0,0,1-.43.09l-.5,0a2.19,2.19,0,0,1-.75-.11,1.57,1.57,0,0,1-.58-.33,1.34,1.34,0,0,1-.37-.5,1.66,1.66,0,0,1-.12-.64,1.37,1.37,0,0,1,.17-.7,1.61,1.61,0,0,1,.49-.56,2.54,2.54,0,0,1,.83-.37,4.44,4.44,0,0,1,1.16-.14h.89v-.64a1.36,1.36,0,0,0-.09-.51.83.83,0,0,0-.24-.38,1.06,1.06,0,0,0-.42-.23,2.1,2.1,0,0,0-.59-.08l-.42,0a3.1,3.1,0,0,0-.42.08l-.43.12a4,4,0,0,0-.45.16l-.19-.76.52-.21.48-.15a4,4,0,0,1,.5-.07,4.39,4.39,0,0,1,.54,0,2.73,2.73,0,0,1,.89.13A1.64,1.64,0,0,1,98,248a1.6,1.6,0,0,1,.41.6A2.2,2.2,0,0,1,98.49,249.43ZM95,251.89a1,1,0,0,0,.06.35.8.8,0,0,0,.2.28,1,1,0,0,0,.33.17,1.68,1.68,0,0,0,.47.06l.41,0,.39-.08.37-.13.36-.19V251H96.7a3.49,3.49,0,0,0-.77.07,1.49,1.49,0,0,0-.52.2.79.79,0,0,0-.38.68Z" style="fill:#4d4d4d"/><path d="M100.57,255.77v-8.12l.88-.07V248l.36-.18.38-.13a2.57,2.57,0,0,1,.4-.07,3.15,3.15,0,0,1,.44,0,2.76,2.76,0,0,1,1,.17,2.07,2.07,0,0,1,.77.54,2.42,2.42,0,0,1,.48.9,4.44,4.44,0,0,1,.17,1.27,3.56,3.56,0,0,1-.22,1.31,2.81,2.81,0,0,1-.64,1,2.67,2.67,0,0,1-1,.61,3.62,3.62,0,0,1-1.26.21h-.22l-.21,0-.21,0-.21,0v2.3Zm1.9-3a2.36,2.36,0,0,0,.8-.14,1.76,1.76,0,0,0,.64-.43,1.91,1.91,0,0,0,.42-.71,2.93,2.93,0,0,0,.15-1,3.33,3.33,0,0,0-.12-1,1.72,1.72,0,0,0-.34-.66,1.36,1.36,0,0,0-.54-.38,2,2,0,0,0-.73-.12l-.32,0-.31,0-.31.09a2.33,2.33,0,0,0-.33.14v4l.25,0,.24,0h.5Z" style="fill:#4d4d4d"/><path d="M106.87,250.55a4.15,4.15,0,0,1,.19-1.31,2.76,2.76,0,0,1,.52-1,2.25,2.25,0,0,1,1.74-.77,3.06,3.06,0,0,1,1,.14,1.78,1.78,0,0,1,.7.46,1.86,1.86,0,0,1,.44.73,3.17,3.17,0,0,1,.15,1v.54c0,.06,0,.12,0,.18h-3.76a3,3,0,0,0,.14.95,1.77,1.77,0,0,0,.39.67,1.73,1.73,0,0,0,.6.39,2.29,2.29,0,0,0,.76.12l.48,0,.45-.07a2.26,2.26,0,0,0,.43-.11,4,4,0,0,0,.44-.17v.83a3.78,3.78,0,0,1-.46.17,3.6,3.6,0,0,1-.44.12l-.47.07-.53,0a3.29,3.29,0,0,1-1.12-.18,2.21,2.21,0,0,1-.85-.54,2.35,2.35,0,0,1-.54-.94A4.13,4.13,0,0,1,106.87,250.55Zm.95-.7h2.76a2.4,2.4,0,0,0-.09-.69,1.24,1.24,0,0,0-.25-.5,1,1,0,0,0-.41-.29,1.64,1.64,0,0,0-.56-.1,1.31,1.31,0,0,0-.52.11,1.43,1.43,0,0,0-.43.31,1.74,1.74,0,0,0-.33.5A2.66,2.66,0,0,0,107.82,249.85Z" style="fill:#4d4d4d"/><path d="M114.19,245.09v8.39h-.91v-8.31Z" style="fill:#4d4d4d"/><path d="M117.26,245.09v8.39h-.91v-8.31Z" style="fill:#4d4d4d"/><path d="M119.06,250.55a4.15,4.15,0,0,1,.19-1.31,2.76,2.76,0,0,1,.52-1,2.49,2.49,0,0,1,.79-.58,2.38,2.38,0,0,1,1-.19,3,3,0,0,1,.94.14,1.78,1.78,0,0,1,.7.46,1.86,1.86,0,0,1,.44.73,3.17,3.17,0,0,1,.15,1v.54c0,.06,0,.12,0,.18H120a3,3,0,0,0,.14.95,1.91,1.91,0,0,0,.39.67,1.73,1.73,0,0,0,.6.39,2.29,2.29,0,0,0,.76.12l.49,0,.44-.07a2.09,2.09,0,0,0,.43-.11,4,4,0,0,0,.44-.17v.83a3.25,3.25,0,0,1-.46.17,3.17,3.17,0,0,1-.44.12l-.47.07-.53,0a3.33,3.33,0,0,1-1.12-.18,2.29,2.29,0,0,1-.85-.54,2.35,2.35,0,0,1-.54-.94A4.13,4.13,0,0,1,119.06,250.55Zm1-.7h2.76a2.84,2.84,0,0,0-.08-.69,1.25,1.25,0,0,0-.26-.5,1,1,0,0,0-.41-.29,1.6,1.6,0,0,0-.56-.1,1.26,1.26,0,0,0-.51.11,1.47,1.47,0,0,0-.44.31,2,2,0,0,0-.33.5A2.66,2.66,0,0,0,120,249.85Z" style="fill:#4d4d4d"/><path d="M93.23,260.17a2.1,2.1,0,1,1,2.09-2.09A2.1,2.1,0,0,1,93.23,260.17Zm0-3.69a1.6,1.6,0,1,0,1.59,1.6A1.6,1.6,0,0,0,93.23,256.48Z" style="fill:#8b8f9e"/><path d="M338.67,282.52v-.83h2.4v3.58c-.19,0-.37.08-.55.1l-.54.07-.56,0h-.6a4.11,4.11,0,0,1-1.46-.25,3.25,3.25,0,0,1-2-1.93,5.15,5.15,0,0,1,.07-3.54,3.36,3.36,0,0,1,.93-1.32,3.82,3.82,0,0,1,1.31-.75,4.82,4.82,0,0,1,1.51-.24h.48l.42,0,.39.05.42.07-.11.84-.51-.08-.32,0-.37,0h-.44a3.43,3.43,0,0,0-1.15.19,2.58,2.58,0,0,0-1,.58,2.79,2.79,0,0,0-.69,1,3.73,3.73,0,0,0-.25,1.43,3.92,3.92,0,0,0,.22,1.38,2.61,2.61,0,0,0,.62,1,2.56,2.56,0,0,0,.9.59,3,3,0,0,0,1.08.19h.61l.29,0,.31,0v-2.06Z" style="fill:#4d4d4d"/><path d="M348.13,282.4a3.71,3.71,0,0,1-.21,1.29,2.87,2.87,0,0,1-.6,1,2.5,2.5,0,0,1-.87.61,2.66,2.66,0,0,1-1.05.21,3,3,0,0,1-1.06-.18,2,2,0,0,1-.81-.57,2.47,2.47,0,0,1-.52-.93,4.21,4.21,0,0,1-.18-1.28,3.66,3.66,0,0,1,.22-1.3,2.87,2.87,0,0,1,.59-1,2.65,2.65,0,0,1,1.91-.83,2.8,2.8,0,0,1,1.07.19,2.25,2.25,0,0,1,.82.57,2.47,2.47,0,0,1,.51.92A4.28,4.28,0,0,1,348.13,282.4Zm-.94,0a3.5,3.5,0,0,0-.12-1,1.85,1.85,0,0,0-.33-.69,1.37,1.37,0,0,0-.54-.42,1.9,1.9,0,0,0-.73-.14,1.51,1.51,0,0,0-.68.15,1.45,1.45,0,0,0-.54.45,2,2,0,0,0-.35.72,3.48,3.48,0,0,0-.12.95,4,4,0,0,0,.11,1,1.86,1.86,0,0,0,.34.69,1.37,1.37,0,0,0,.54.42,1.81,1.81,0,0,0,.72.14,1.53,1.53,0,0,0,1.23-.61,2.2,2.2,0,0,0,.35-.72A3.4,3.4,0,0,0,347.19,282.44Z" style="fill:#4d4d4d"/><path d="M349.57,282.48a4.35,4.35,0,0,1,.19-1.31,2.59,2.59,0,0,1,.52-1,2.31,2.31,0,0,1,1.75-.78,2.73,2.73,0,0,1,.94.15,1.87,1.87,0,0,1,.71.45,2,2,0,0,1,.44.74,3.11,3.11,0,0,1,.15,1v.37c0,.06,0,.12,0,.18a1,1,0,0,1,0,.17h-3.75a3.05,3.05,0,0,0,.13,1,1.79,1.79,0,0,0,.4.66,1.45,1.45,0,0,0,.59.39,2.11,2.11,0,0,0,.77.13l.48,0a3.11,3.11,0,0,0,.44-.06,3.6,3.6,0,0,0,.44-.12,3.75,3.75,0,0,0,.43-.16v.82l-.46.18-.44.11a3.31,3.31,0,0,1-.47.07,4.33,4.33,0,0,1-.53,0,3.23,3.23,0,0,1-1.11-.18,2.27,2.27,0,0,1-.86-.55,2.43,2.43,0,0,1-.54-.93A4.46,4.46,0,0,1,349.57,282.48Zm.95-.71h2.76a2.84,2.84,0,0,0-.08-.69,1.42,1.42,0,0,0-.25-.49,1,1,0,0,0-.42-.3,1.6,1.6,0,0,0-.56-.09,1.25,1.25,0,0,0-.51.1,1.5,1.5,0,0,0-.44.32,1.54,1.54,0,0,0-.32.49A2.29,2.29,0,0,0,350.52,281.77Z" style="fill:#4d4d4d"/><path d="M355.51,285.28v-.82l.41.1.42.06.42,0h.45a2.32,2.32,0,0,0,.55-.06,2,2,0,0,0,.41-.18.83.83,0,0,0,.25-.28.86.86,0,0,0,.08-.36,1.06,1.06,0,0,0-.05-.31.83.83,0,0,0-.18-.25,1.41,1.41,0,0,0-.3-.19,3.28,3.28,0,0,0-.45-.17l-.69-.2a2.56,2.56,0,0,1-.53-.22,1.27,1.27,0,0,1-.39-.33,1.44,1.44,0,0,1-.24-.42,1.66,1.66,0,0,1,.07-1.2,1.62,1.62,0,0,1,.43-.55,2,2,0,0,1,.67-.36,3,3,0,0,1,.87-.13h.39l.36,0,.34.05a1.91,1.91,0,0,1,.33.06l-.1.79-.34-.06-.32,0-.33,0h-.37a2.12,2.12,0,0,0-.52.06,1.33,1.33,0,0,0-.38.17.71.71,0,0,0-.23.26.72.72,0,0,0-.08.32.84.84,0,0,0,.05.29.57.57,0,0,0,.15.23,1.06,1.06,0,0,0,.26.17,1.43,1.43,0,0,0,.37.14l.68.18a3.65,3.65,0,0,1,.62.24,1.94,1.94,0,0,1,.44.33,1.17,1.17,0,0,1,.26.42,1.44,1.44,0,0,1,.09.51,1.91,1.91,0,0,1-.16.76,1.79,1.79,0,0,1-.46.6,2,2,0,0,1-.7.39,2.94,2.94,0,0,1-.91.14l-.46,0c-.15,0-.28,0-.42,0l-.38-.06Z" style="fill:#4d4d4d"/><path d="M347.29,292.1a2.1,2.1,0,1,1,2.1-2.1A2.1,2.1,0,0,1,347.29,292.1Zm0-3.7a1.6,1.6,0,1,0,1.6,1.6A1.6,1.6,0,0,0,347.29,288.4Z" style="fill:#8b8f9e"/><path d="M390.13,324.09h.95v3.43h.67l2.81-3.43h1.12l-3.07,3.72,3.15,4.15h-1.22l-2.75-3.6h-.71V332h-.95Z" style="fill:#4d4d4d"/><path d="M400.08,326.11,400,327l-.18,0-.16,0-.15,0h-.18a1.33,1.33,0,0,0-.28,0,1.53,1.53,0,0,0-.27.11,2,2,0,0,0-.28.19,3.56,3.56,0,0,0-.31.28V332h-.91v-5.83l.9-.07v.68a3.4,3.4,0,0,1,.32-.33,1.79,1.79,0,0,1,.31-.22,1.2,1.2,0,0,1,.31-.13,1.06,1.06,0,0,1,.31,0h.34l.16,0Z" style="fill:#4d4d4d"/><path d="M402.29,326.06v3.88a1.8,1.8,0,0,0,.08.54,1.09,1.09,0,0,0,.25.4,1.22,1.22,0,0,0,.4.24,1.59,1.59,0,0,0,.55.08H404a3,3,0,0,0,.32-.06l.3-.09a3,3,0,0,0,.37-.14v-4.77l.92-.07V332H405v-.36a2.72,2.72,0,0,1-.37.2l-.37.13a2.24,2.24,0,0,1-.39.08,3,3,0,0,1-.43,0,2.88,2.88,0,0,1-.88-.12,1.54,1.54,0,0,1-.64-.39,1.68,1.68,0,0,1-.39-.63,2.47,2.47,0,0,1-.13-.86v-3.91Z" style="fill:#4d4d4d"/><path d="M407.89,324.17a.6.6,0,0,1,.05-.24.35.35,0,0,1,.12-.19.42.42,0,0,1,.18-.11.6.6,0,0,1,.48,0,.42.42,0,0,1,.18.11.57.57,0,0,1,.12.18.93.93,0,0,1,0,.25.86.86,0,0,1,0,.24.55.55,0,0,1-.3.3.74.74,0,0,1-.48,0,.57.57,0,0,1-.18-.12.36.36,0,0,1-.12-.18A.6.6,0,0,1,407.89,324.17Zm1.05,1.89V332H408v-5.83Z" style="fill:#4d4d4d"/><path d="M414.72,332v-3.85a1.67,1.67,0,0,0-.08-.52,1.14,1.14,0,0,0-.25-.39A1.17,1.17,0,0,0,414,327a1.6,1.6,0,0,0-.56-.09l-.37,0-.33.05-.34.09-.36.14V332h-.91v-5.83l.87-.07v.39l.4-.2.38-.13.39-.08.44,0a2.67,2.67,0,0,1,.88.13,1.85,1.85,0,0,1,.65.39,1.57,1.57,0,0,1,.39.62,2.49,2.49,0,0,1,.13.85V332Z" style="fill:#4d4d4d"/><path d="M417.58,324.17a.61.61,0,0,1,0-.24.52.52,0,0,1,.12-.19.4.4,0,0,1,.19-.11.6.6,0,0,1,.24-.05.69.69,0,0,1,.24.05.42.42,0,0,1,.18.11.78.78,0,0,1,.11.18.66.66,0,0,1,0,.25.61.61,0,0,1,0,.24.78.78,0,0,1-.11.18.57.57,0,0,1-.18.12,1,1,0,0,1-.24,0,.86.86,0,0,1-.24,0,.52.52,0,0,1-.19-.12.57.57,0,0,1-.12-.18A.61.61,0,0,1,417.58,324.17Zm1,1.89V332h-.91v-5.83Z" style="fill:#4d4d4d"/><path d="M424.41,332v-3.85a1.42,1.42,0,0,0-.09-.52,1,1,0,0,0-.25-.39,1.13,1.13,0,0,0-.41-.25,1.64,1.64,0,0,0-.56-.09l-.37,0-.34.05-.34.09-.36.14V332h-.91v-5.83l.88-.07v.39c.13-.08.27-.14.39-.2l.38-.13.39-.08.45,0a2.61,2.61,0,0,1,.87.13,1.76,1.76,0,0,1,.65.39,1.48,1.48,0,0,1,.4.62,2.76,2.76,0,0,1,.13.85V332Z" style="fill:#4d4d4d"/><path d="M428.11,330.53a.42.42,0,0,0,.05.2.45.45,0,0,0,.12.16.83.83,0,0,0,.23.1,1.72,1.72,0,0,0,.34,0l1.57.05a2.86,2.86,0,0,1,.71.11,1.44,1.44,0,0,1,.51.26,1.24,1.24,0,0,1,.29.4,1.38,1.38,0,0,1,.1.52,1.68,1.68,0,0,1-.18.77,1.63,1.63,0,0,1-.53.62,2.76,2.76,0,0,1-.88.41,5.1,5.1,0,0,1-1.24.14,4.35,4.35,0,0,1-1-.11,2.15,2.15,0,0,1-.75-.31,1.46,1.46,0,0,1-.47-.49,1.22,1.22,0,0,1-.16-.62,1.07,1.07,0,0,1,.07-.39,1.53,1.53,0,0,1,.21-.37,1.48,1.48,0,0,1,.31-.3,1.57,1.57,0,0,1,.37-.22v-.05a1,1,0,0,1-.19-.12.8.8,0,0,1-.15-.17.67.67,0,0,1-.09-.21.61.61,0,0,1,0-.24,1.27,1.27,0,0,1,0-.26.76.76,0,0,1,.13-.23,1,1,0,0,1,.2-.2.87.87,0,0,1,.27-.14v0a2,2,0,0,1-.37-.26,1.28,1.28,0,0,1-.29-.36,2.34,2.34,0,0,1-.18-.45,2.38,2.38,0,0,1-.06-.55,2.69,2.69,0,0,1,.15-.92,1.84,1.84,0,0,1,.47-.69,2.15,2.15,0,0,1,.74-.43,3,3,0,0,1,1-.15h.23l.25,0a.91.91,0,0,1,.23,0l.19,0h1.8v.68H431v0a1,1,0,0,1,.24.21,2.16,2.16,0,0,1,.18.3,1.8,1.8,0,0,1,.12.35,1.75,1.75,0,0,1,0,.4,2.19,2.19,0,0,1-.16.88,1.77,1.77,0,0,1-.48.64,2.1,2.1,0,0,1-.76.39,3.53,3.53,0,0,1-1,.13h-.35l-.16,0a.44.44,0,0,0-.15,0,.35.35,0,0,0-.15.07.43.43,0,0,0-.12.11.38.38,0,0,0-.09.13A.35.35,0,0,0,428.11,330.53Zm-.45,2.09a.68.68,0,0,0,.11.39.81.81,0,0,0,.31.3,1.7,1.7,0,0,0,.51.19,3,3,0,0,0,.7.07,5.37,5.37,0,0,0,.87-.07,2.1,2.1,0,0,0,.6-.21,1,1,0,0,0,.35-.33.81.81,0,0,0,.11-.41.78.78,0,0,0-.05-.28.48.48,0,0,0-.15-.2.91.91,0,0,0-.28-.12,2.34,2.34,0,0,0-.43-.06l-2-.1a1.46,1.46,0,0,0-.28.14.7.7,0,0,0-.2.18.76.76,0,0,0-.13.23A.86.86,0,0,0,427.66,332.62Zm1.61-3.16a2.18,2.18,0,0,0,.61-.07,1.06,1.06,0,0,0,.44-.25,1,1,0,0,0,.25-.43,2.06,2.06,0,0,0,.09-.64,1.62,1.62,0,0,0-.09-.57,1,1,0,0,0-.27-.41,1.08,1.08,0,0,0-.42-.24,1.59,1.59,0,0,0-.55-.09,1.7,1.7,0,0,0-.57.09,1,1,0,0,0-.43.26,1,1,0,0,0-.27.42,1.91,1.91,0,0,0-.09.61,1.59,1.59,0,0,0,.1.61,1,1,0,0,0,.27.42,1,1,0,0,0,.4.22A1.74,1.74,0,0,0,429.27,329.46Z" style="fill:#4d4d4d"/><path d="M433.23,329a4.41,4.41,0,0,1,.18-1.31,2.78,2.78,0,0,1,.53-1,2.21,2.21,0,0,1,.78-.58,2.39,2.39,0,0,1,1-.2,2.73,2.73,0,0,1,.94.15,1.87,1.87,0,0,1,.71.45,2,2,0,0,1,.44.74,3.13,3.13,0,0,1,.15,1v.36a1.09,1.09,0,0,1,0,.18,1.1,1.1,0,0,1,0,.18h-3.75a2.75,2.75,0,0,0,.14.95,1.77,1.77,0,0,0,.39.67,1.56,1.56,0,0,0,.59.39,2.35,2.35,0,0,0,.77.12,3.7,3.7,0,0,0,.48,0l.44-.07a3.54,3.54,0,0,0,.44-.11,3.83,3.83,0,0,0,.43-.17v.83a3.25,3.25,0,0,1-.46.17c-.14.05-.29.08-.43.12l-.47.07-.54,0a3.23,3.23,0,0,1-1.11-.18,2.25,2.25,0,0,1-.86-.54,2.61,2.61,0,0,1-.54-.94A4.48,4.48,0,0,1,433.23,329Zm.94-.71h2.76a2.82,2.82,0,0,0-.08-.68,1.38,1.38,0,0,0-.25-.5,1,1,0,0,0-.42-.29,1.4,1.4,0,0,0-.56-.1,1.26,1.26,0,0,0-.51.11,1.47,1.47,0,0,0-.44.31,1.59,1.59,0,0,0-.32.5A2.23,2.23,0,0,0,434.17,328.32Z" style="fill:#4d4d4d"/><path d="M443.26,332v-3.85a1.42,1.42,0,0,0-.09-.52,1,1,0,0,0-.25-.39,1.13,1.13,0,0,0-.41-.25,1.64,1.64,0,0,0-.56-.09l-.37,0-.34.05-.34.09-.36.14V332h-.91v-5.83l.88-.07v.39l.39-.2.38-.13.39-.08.45,0a2.57,2.57,0,0,1,.87.13,1.76,1.76,0,0,1,.65.39,1.48,1.48,0,0,1,.4.62,2.76,2.76,0,0,1,.13.85V332Z" style="fill:#4d4d4d"/><path d="M417.12,338.65a2.1,2.1,0,1,1,2.1-2.09A2.1,2.1,0,0,1,417.12,338.65Zm0-3.69a1.6,1.6,0,1,0,1.6,1.6A1.6,1.6,0,0,0,417.12,335Z" style="fill:#8b8f9e"/><path d="M102.63,382.29v-.84H105V385a3.33,3.33,0,0,1-.55.1l-.54.07-.56,0h-.6a4.28,4.28,0,0,1-1.45-.24,3.54,3.54,0,0,1-1.19-.73,3.22,3.22,0,0,1-.79-1.21,4.51,4.51,0,0,1-.28-1.66,4.71,4.71,0,0,1,.34-1.88,3.58,3.58,0,0,1,.93-1.32,3.86,3.86,0,0,1,1.32-.75,4.77,4.77,0,0,1,1.51-.24h.47l.42,0,.39,0,.43.07-.11.84-.51-.08-.32,0-.38,0h-.43a3.38,3.38,0,0,0-1.15.19,2.75,2.75,0,0,0-1,.58,2.61,2.61,0,0,0-.68,1,3.64,3.64,0,0,0-.26,1.42,3.91,3.91,0,0,0,.23,1.38,2.6,2.6,0,0,0,.61,1,2.55,2.55,0,0,0,.91.59,3,3,0,0,0,1.08.19h.61l.28,0,.31,0v-2Z" style="fill:#4d4d4d"/><path d="M110,379.31l-.11.9-.18,0-.16,0-.16,0h-.17a1.26,1.26,0,0,0-.28,0,1.09,1.09,0,0,0-.27.11l-.28.18a2.68,2.68,0,0,0-.31.29v4.44h-.91v-5.83l.9-.08V380a3.4,3.4,0,0,1,.32-.33,1.19,1.19,0,0,1,.31-.22,1.3,1.3,0,0,1,.3-.13,1.15,1.15,0,0,1,.31,0h.35l.16,0Z" style="fill:#4d4d4d"/><path d="M116.31,382.17a3.79,3.79,0,0,1-.21,1.29,3,3,0,0,1-.6,1,2.53,2.53,0,0,1-.87.62,2.92,2.92,0,0,1-1,.2,3,3,0,0,1-1.07-.18,2.07,2.07,0,0,1-.81-.57,2.6,2.6,0,0,1-.51-.93,4.17,4.17,0,0,1-.18-1.28,3.79,3.79,0,0,1,.21-1.29,3,3,0,0,1,.6-1,2.64,2.64,0,0,1,.87-.61,2.46,2.46,0,0,1,1-.22,3,3,0,0,1,1.07.19,2.25,2.25,0,0,1,.82.57,2.52,2.52,0,0,1,.51.93A4.19,4.19,0,0,1,116.31,382.17Zm-1,0a3.52,3.52,0,0,0-.11-1,1.94,1.94,0,0,0-.34-.69,1.32,1.32,0,0,0-.54-.42,1.81,1.81,0,0,0-.72-.14,1.59,1.59,0,0,0-.69.16,1.72,1.72,0,0,0-.54.44,2.18,2.18,0,0,0-.34.72,3.48,3.48,0,0,0-.12.95,3.52,3.52,0,0,0,.11,1,2,2,0,0,0,.34.7,1.3,1.3,0,0,0,.54.41,1.65,1.65,0,0,0,.72.14,1.46,1.46,0,0,0,.69-.16,1.63,1.63,0,0,0,.54-.45,2.09,2.09,0,0,0,.34-.72A3.4,3.4,0,0,0,115.36,382.2Z" style="fill:#4d4d4d"/><path d="M117.75,382.24a4.1,4.1,0,0,1,.19-1.31,2.76,2.76,0,0,1,.52-1,2.34,2.34,0,0,1,.79-.58,2.39,2.39,0,0,1,1-.2,2.77,2.77,0,0,1,.94.15,1.76,1.76,0,0,1,.7.45,1.9,1.9,0,0,1,.44.74,3.11,3.11,0,0,1,.15,1v.55c0,.06,0,.12,0,.17h-3.76a3,3,0,0,0,.14,1,1.91,1.91,0,0,0,.39.67,1.58,1.58,0,0,0,.6.38,2.06,2.06,0,0,0,.76.13l.48,0,.45-.07.43-.11.44-.17v.83c-.16.07-.32.12-.46.17l-.44.11a3.29,3.29,0,0,1-.47.08l-.53,0a3.33,3.33,0,0,1-1.12-.18,2.19,2.19,0,0,1-.85-.55,2.24,2.24,0,0,1-.54-.93A4.17,4.17,0,0,1,117.75,382.24Zm1-.71h2.76a2.76,2.76,0,0,0-.08-.68,1.25,1.25,0,0,0-.26-.5,1,1,0,0,0-.41-.29,1.4,1.4,0,0,0-.56-.1,1.12,1.12,0,0,0-.51.11,1.31,1.31,0,0,0-.44.31,1.81,1.81,0,0,0-.33.5A2.47,2.47,0,0,0,118.7,381.53Z" style="fill:#4d4d4d"/><path d="M128.66,376.78v8.39h-.89v-.39a1.81,1.81,0,0,1-.33.2l-.36.14a2.59,2.59,0,0,1-.4.09,2.83,2.83,0,0,1-.41,0,2.46,2.46,0,0,1-1-.19,2.11,2.11,0,0,1-.78-.54,2.46,2.46,0,0,1-.51-.9,3.61,3.61,0,0,1-.19-1.23A3.81,3.81,0,0,1,124,381a2.63,2.63,0,0,1,.61-1,2.55,2.55,0,0,1,.93-.61,3.27,3.27,0,0,1,1.19-.21h.3a1.9,1.9,0,0,1,.25,0l.24,0,.21.06v-2.51Zm-2,3.25a2,2,0,0,0-.8.15,1.76,1.76,0,0,0-.61.44,2.08,2.08,0,0,0-.39.72,3.12,3.12,0,0,0-.13,1,3.21,3.21,0,0,0,.12.92,1.89,1.89,0,0,0,.36.66,1.41,1.41,0,0,0,.54.4,1.83,1.83,0,0,0,.71.13l.36,0,.31-.07.3-.11.3-.17v-3.9l-.27,0a1.15,1.15,0,0,0-.26,0l-.27,0Z" style="fill:#4d4d4d"/><path d="M130.46,382.24a4.1,4.1,0,0,1,.19-1.31,2.76,2.76,0,0,1,.52-1,2.25,2.25,0,0,1,.79-.58,2.38,2.38,0,0,1,.95-.2,2.79,2.79,0,0,1,1,.15,1.84,1.84,0,0,1,.7.45,2,2,0,0,1,.44.74,3.11,3.11,0,0,1,.15,1v.55c0,.06,0,.12,0,.17h-3.76a3,3,0,0,0,.14,1,1.77,1.77,0,0,0,.39.67,1.58,1.58,0,0,0,.6.38,2.06,2.06,0,0,0,.76.13l.48,0,.45-.07.43-.11.44-.17v.83c-.16.07-.32.12-.46.17l-.44.11a3.55,3.55,0,0,1-.47.08l-.54,0a3.27,3.27,0,0,1-1.11-.18,2.12,2.12,0,0,1-.85-.55,2.24,2.24,0,0,1-.54-.93A4.17,4.17,0,0,1,130.46,382.24Zm.95-.71h2.76a2.33,2.33,0,0,0-.09-.68,1.24,1.24,0,0,0-.25-.5,1,1,0,0,0-.41-.29,1.43,1.43,0,0,0-.56-.1,1.16,1.16,0,0,0-.52.11,1.27,1.27,0,0,0-.43.31,1.61,1.61,0,0,0-.33.5A2.47,2.47,0,0,0,131.41,381.53Z" style="fill:#4d4d4d"/><path d="M117.17,391.86a2.1,2.1,0,1,1,2.1-2.1A2.1,2.1,0,0,1,117.17,391.86Zm0-3.7a1.6,1.6,0,1,0,1.6,1.6A1.6,1.6,0,0,0,117.17,388.16Z" style="fill:#8b8f9e"/><path d="M285.86,435.33v7h-.94v-7h-2.31v-.84h5.56v.84Z" style="fill:#4d4d4d"/><path d="M288.54,439.44a4.06,4.06,0,0,1,.19-1.31,2.59,2.59,0,0,1,.52-1,2.31,2.31,0,0,1,1.75-.78,2.77,2.77,0,0,1,.94.15,1.76,1.76,0,0,1,.7.45,1.83,1.83,0,0,1,.44.74,3.11,3.11,0,0,1,.15,1v.55c0,.06,0,.11,0,.17h-3.76a3.08,3.08,0,0,0,.14,1,1.66,1.66,0,0,0,.39.66,1.49,1.49,0,0,0,.6.39,2.28,2.28,0,0,0,.76.13,3.91,3.91,0,0,0,.49,0c.15,0,.3,0,.44-.06a3,3,0,0,0,.43-.12,3.89,3.89,0,0,0,.44-.16v.82l-.46.18-.44.11a3.31,3.31,0,0,1-.47.07,4.33,4.33,0,0,1-.53,0,3.33,3.33,0,0,1-1.12-.18,2.31,2.31,0,0,1-.85-.55,2.28,2.28,0,0,1-.54-.94A4.1,4.1,0,0,1,288.54,439.44Zm.95-.71h2.76a2.84,2.84,0,0,0-.08-.69,1.21,1.21,0,0,0-.26-.49,1,1,0,0,0-.41-.3,1.6,1.6,0,0,0-.56-.09,1.25,1.25,0,0,0-.51.1,1.5,1.5,0,0,0-.44.32,1.75,1.75,0,0,0-.33.49A2.66,2.66,0,0,0,289.49,438.73Z" style="fill:#4d4d4d"/><path d="M297.78,436.51l-.11.9-.18,0a.45.45,0,0,0-.16,0l-.15,0H297a.9.9,0,0,0-.28,0,1,1,0,0,0-.27.11,1.86,1.86,0,0,0-.28.18c-.09.08-.2.17-.31.28v4.44H295v-5.83l.9-.07v.68l.32-.33a2.58,2.58,0,0,1,.31-.22,1.25,1.25,0,0,1,.3-.12,1.19,1.19,0,0,1,.32-.05h.34a.9.9,0,0,1,.16,0Z" style="fill:#4d4d4d"/><path d="M302.78,442.36v-3.85a1.37,1.37,0,0,0-.08-.51.88.88,0,0,0-.25-.39,1.11,1.11,0,0,0-.42-.26,1.55,1.55,0,0,0-.55-.09l-.37,0a1.86,1.86,0,0,0-.34.06,2.14,2.14,0,0,0-.34.09l-.36.13v4.8h-.91v-5.83l.88-.07v.4a2.89,2.89,0,0,1,.39-.2,3.43,3.43,0,0,1,.38-.13,1.8,1.8,0,0,1,.39-.08,3.19,3.19,0,0,1,.45,0,2.6,2.6,0,0,1,.87.14,1.6,1.6,0,0,1,1.05,1,2.83,2.83,0,0,1,.13.86v3.94Z" style="fill:#4d4d4d"/><path d="M305.41,439.44a4.35,4.35,0,0,1,.19-1.31,2.59,2.59,0,0,1,.52-1,2.31,2.31,0,0,1,1.75-.78,2.77,2.77,0,0,1,.94.15,1.87,1.87,0,0,1,.71.45,1.81,1.81,0,0,1,.43.74,3.1,3.1,0,0,1,.16,1v.37c0,.06,0,.12,0,.18a1,1,0,0,1,0,.17h-3.75a3.1,3.1,0,0,0,.13,1,1.79,1.79,0,0,0,.4.66,1.39,1.39,0,0,0,.59.39,2.3,2.3,0,0,0,.77.13l.48,0c.15,0,.3,0,.44-.06a3.6,3.6,0,0,0,.44-.12c.14,0,.28-.1.43-.16v.82l-.46.18-.44.11a3.31,3.31,0,0,1-.47.07,4.33,4.33,0,0,1-.53,0,3.23,3.23,0,0,1-1.11-.18,2.21,2.21,0,0,1-1.4-1.49A4.39,4.39,0,0,1,305.41,439.44Zm.95-.71h2.76A2.84,2.84,0,0,0,309,438a1.21,1.21,0,0,0-.26-.49,1,1,0,0,0-.41-.3,1.6,1.6,0,0,0-.56-.09,1.25,1.25,0,0,0-.51.1,1.5,1.5,0,0,0-.44.32,1.75,1.75,0,0,0-.33.49A2.66,2.66,0,0,0,306.36,438.73Z" style="fill:#4d4d4d"/><path d="M312.65,436.46v3.89a1.8,1.8,0,0,0,.08.54,1,1,0,0,0,.25.39,1,1,0,0,0,.4.24,1.55,1.55,0,0,0,.55.09l.39,0,.31,0,.31-.09.37-.14v-4.78l.91-.07v5.9h-.88V442a2.32,2.32,0,0,1-.38.2,2.2,2.2,0,0,1-.36.13,2.46,2.46,0,0,1-.39.09,3,3,0,0,1-.43,0,2.59,2.59,0,0,1-.88-.13,1.52,1.52,0,0,1-.64-.38,1.68,1.68,0,0,1-.39-.63,2.57,2.57,0,0,1-.13-.87v-3.91Z" style="fill:#4d4d4d"/><path d="M318,437.26v-.76h3.91v.76l-3.07,4.29v.05h3.14v.76h-4.15v-.78l3.08-4.28v0Z" style="fill:#4d4d4d"/><path d="M323.12,439.44a4.35,4.35,0,0,1,.19-1.31,2.74,2.74,0,0,1,.52-1,2.31,2.31,0,0,1,1.75-.78,2.73,2.73,0,0,1,.94.15,1.87,1.87,0,0,1,.71.45,2,2,0,0,1,.44.74,3.11,3.11,0,0,1,.15,1v.37a1.09,1.09,0,0,1,0,.18,1,1,0,0,1,0,.17H324a2.81,2.81,0,0,0,.14,1,1.66,1.66,0,0,0,.39.66,1.45,1.45,0,0,0,.59.39,2.34,2.34,0,0,0,.77.13,3.64,3.64,0,0,0,.48,0c.15,0,.3,0,.44-.06a3.6,3.6,0,0,0,.44-.12,3.75,3.75,0,0,0,.43-.16v.82l-.46.18-.44.11a3.17,3.17,0,0,1-.46.07,4.63,4.63,0,0,1-.54,0,3.23,3.23,0,0,1-1.11-.18,2.27,2.27,0,0,1-.86-.55,2.53,2.53,0,0,1-.54-.94A4.39,4.39,0,0,1,323.12,439.44Zm.95-.71h2.76a2.84,2.84,0,0,0-.08-.69,1.33,1.33,0,0,0-.25-.49,1,1,0,0,0-.42-.3,1.59,1.59,0,0,0-.55-.09,1.27,1.27,0,0,0-.52.1,1.5,1.5,0,0,0-.44.32,1.54,1.54,0,0,0-.32.49A2.66,2.66,0,0,0,324.07,438.73Z" style="fill:#4d4d4d"/><path d="M333.16,442.36v-3.85a1.36,1.36,0,0,0-.09-.51.88.88,0,0,0-.25-.39,1.15,1.15,0,0,0-.41-.26,1.64,1.64,0,0,0-.56-.09l-.37,0a1.86,1.86,0,0,0-.34.06l-.34.09a3,3,0,0,0-.35.13v4.8h-.92v-5.83l.88-.07v.4a2.89,2.89,0,0,1,.39-.2,3.43,3.43,0,0,1,.38-.13,1.8,1.8,0,0,1,.39-.08,3.19,3.19,0,0,1,.45,0,2.56,2.56,0,0,1,.87.14,1.6,1.6,0,0,1,1.05,1,2.55,2.55,0,0,1,.13.86v3.94Z" style="fill:#4d4d4d"/><path d="M308.71,449.06a2.1,2.1,0,1,1,2.1-2.1A2.1,2.1,0,0,1,308.71,449.06Zm0-3.7a1.6,1.6,0,1,0,1.6,1.6A1.6,1.6,0,0,0,308.71,445.36Z" style="fill:#8b8f9e"/><path d="M343.7,517.63h.94v3.43h.68l2.8-3.43h1.12l-3.07,3.72,3.15,4.15H348.1l-2.75-3.6h-.71v3.6h-.94Z" style="fill:#4d4d4d"/><path d="M355.52,522.5a3.79,3.79,0,0,1-.22,1.29,2.87,2.87,0,0,1-.59,1,2.6,2.6,0,0,1-1.93.83,2.74,2.74,0,0,1-1.06-.19,2,2,0,0,1-.81-.56,2.52,2.52,0,0,1-.52-.94,4.17,4.17,0,0,1-.18-1.28,3.57,3.57,0,0,1,.22-1.29,2.87,2.87,0,0,1,.59-1,2.53,2.53,0,0,1,.87-.62,2.67,2.67,0,0,1,1.05-.22,2.78,2.78,0,0,1,1.06.2,2,2,0,0,1,.82.56,2.62,2.62,0,0,1,.52.93A4.19,4.19,0,0,1,355.52,522.5Zm-.95,0a3.4,3.4,0,0,0-.12-1,1.82,1.82,0,0,0-.33-.7,1.44,1.44,0,0,0-.54-.41,1.73,1.73,0,0,0-.73-.14,1.54,1.54,0,0,0-.68.15,1.45,1.45,0,0,0-.54.45,2.05,2.05,0,0,0-.35.71,3.5,3.5,0,0,0-.12,1,3.82,3.82,0,0,0,.11.95,2,2,0,0,0,.34.7,1.44,1.44,0,0,0,.54.41,1.67,1.67,0,0,0,.73.14,1.45,1.45,0,0,0,1.22-.61,2.05,2.05,0,0,0,.35-.71A3.51,3.51,0,0,0,354.57,522.54Z" style="fill:#4d4d4d"/><path d="M357,522.57a4.41,4.41,0,0,1,.18-1.31,2.78,2.78,0,0,1,.53-1,2.21,2.21,0,0,1,.78-.58,2.39,2.39,0,0,1,1-.2,2.73,2.73,0,0,1,.94.15,1.87,1.87,0,0,1,.71.45,2,2,0,0,1,.44.74,3.13,3.13,0,0,1,.15,1v.36a1.09,1.09,0,0,1,0,.18,1.1,1.1,0,0,1,0,.18h-3.75a2.75,2.75,0,0,0,.14.95,1.63,1.63,0,0,0,1,1.06,2.35,2.35,0,0,0,.77.12l.48,0,.45-.07a3.89,3.89,0,0,0,.43-.11l.43-.17v.83a3.25,3.25,0,0,1-.46.17c-.14,0-.29.08-.43.12l-.47.07-.54,0a3.23,3.23,0,0,1-1.11-.18,2.25,2.25,0,0,1-.86-.54,2.61,2.61,0,0,1-.54-.94A4.48,4.48,0,0,1,357,522.57Zm.94-.71h2.76a2.4,2.4,0,0,0-.08-.68,1.38,1.38,0,0,0-.25-.5,1,1,0,0,0-.42-.29,1.38,1.38,0,0,0-.55-.1,1.27,1.27,0,0,0-.52.11,1.47,1.47,0,0,0-.44.31,1.59,1.59,0,0,0-.32.5A2.59,2.59,0,0,0,357.9,521.86Z" style="fill:#4d4d4d"/><path d="M370.8,519.63,369,525.5h-1.16L366.71,522h-.06l-1,3.55h-1.17l-1.85-5.87h1l1.43,5h.06l1.16-3.85-.38-1.18h1l1.48,5h.06l1.41-5Z" style="fill:#4d4d4d"/><path d="M376.2,521.44v4.06h-.85v-.41a3.32,3.32,0,0,1-.41.22,2.86,2.86,0,0,1-.41.15,2.59,2.59,0,0,1-.42.09l-.5,0a2.47,2.47,0,0,1-.75-.11,1.72,1.72,0,0,1-.58-.33,1.42,1.42,0,0,1-.37-.5,1.69,1.69,0,0,1-.12-.64,1.47,1.47,0,0,1,.16-.7,1.66,1.66,0,0,1,.5-.56,2.35,2.35,0,0,1,.83-.37,4.44,4.44,0,0,1,1.16-.14h.89v-.64a1.46,1.46,0,0,0-.09-.52.85.85,0,0,0-.24-.37,1.06,1.06,0,0,0-.42-.23,2.13,2.13,0,0,0-.6-.08l-.41,0a3.1,3.1,0,0,0-.42.08l-.43.11-.45.17-.19-.76.52-.21.48-.15.5-.08.53,0a2.75,2.75,0,0,1,.9.13,1.64,1.64,0,0,1,.65.36,1.6,1.6,0,0,1,.41.6A2.18,2.18,0,0,1,376.2,521.44Zm-3.46,2.47a1,1,0,0,0,.06.35.68.68,0,0,0,.2.27.88.88,0,0,0,.33.18,1.63,1.63,0,0,0,.47.06,2.73,2.73,0,0,0,.41,0,2.44,2.44,0,0,0,.39-.07,2.79,2.79,0,0,0,.37-.14l.36-.18V523h-.92a3.49,3.49,0,0,0-.77.07,1.43,1.43,0,0,0-.53.2.88.88,0,0,0-.28.3A.82.82,0,0,0,372.74,523.91Z" style="fill:#4d4d4d"/><path d="M381.88,519.7l-.11.83-.32-.06a1.57,1.57,0,0,0-.27-.05l-.27,0h-.29a1.72,1.72,0,0,0-.68.14,1.76,1.76,0,0,0-.56.42,2.12,2.12,0,0,0-.37.68,2.6,2.6,0,0,0-.14.91,3,3,0,0,0,.14,1,1.8,1.8,0,0,0,.38.68,1.51,1.51,0,0,0,.57.4,2.13,2.13,0,0,0,.72.12H381l.31,0,.29-.05.29-.08v.83l-.3.08-.31,0-.33,0h-.38a3.29,3.29,0,0,1-1.07-.17,2.12,2.12,0,0,1-.83-.55,2.49,2.49,0,0,1-.55-.94,4.15,4.15,0,0,1-.2-1.34,3.42,3.42,0,0,1,.22-1.27,2.9,2.9,0,0,1,.6-1,2.44,2.44,0,0,1,.87-.59,2.59,2.59,0,0,1,1-.2H381l.3,0,.29,0Z" style="fill:#4d4d4d"/><path d="M387,525.5v-3.85a1.42,1.42,0,0,0-.09-.52.9.9,0,0,0-.25-.39,1.13,1.13,0,0,0-.41-.25,1.64,1.64,0,0,0-.56-.09l-.38,0-.33.05-.33.09a3.31,3.31,0,0,0-.36.14v4.8h-.91v-8.32l.91-.07V520a3.49,3.49,0,0,1,.39-.19,2.29,2.29,0,0,1,.37-.12,2.33,2.33,0,0,1,.38-.08l.43,0a2.67,2.67,0,0,1,.88.13,1.72,1.72,0,0,1,.64.39,1.48,1.48,0,0,1,.4.62,2.49,2.49,0,0,1,.13.85v4Z" style="fill:#4d4d4d"/><path d="M389.5,520.36v-.73h.71v-1l.91-.13v1.16h1.53v.73h-1.53v3.32a1.35,1.35,0,0,0,.07.48.75.75,0,0,0,.19.34.72.72,0,0,0,.29.2.9.9,0,0,0,.37.07h.21l.18,0a.63.63,0,0,0,.19,0l.22,0v.77l-.28.06-.24,0-.24,0h-.27a2.08,2.08,0,0,1-.63-.09,1.37,1.37,0,0,1-.51-.32,1.34,1.34,0,0,1-.34-.57,2.66,2.66,0,0,1-.12-.86v-3.37Z" style="fill:#4d4d4d"/><path d="M367.91,532.19a2.1,2.1,0,1,1,2.09-2.1A2.1,2.1,0,0,1,367.91,532.19Zm0-3.69a1.6,1.6,0,1,0,1.59,1.59A1.59,1.59,0,0,0,367.91,528.5Z" style="fill:#8b8f9e"/><path d="M425.28,486.67v.81l-.44.09-.39.06-.41,0h-.5a4.11,4.11,0,0,1-1.42-.24,3.37,3.37,0,0,1-1.15-.73,3.33,3.33,0,0,1-.76-1.21,4.7,4.7,0,0,1-.27-1.66,5,5,0,0,1,.31-1.84,3.71,3.71,0,0,1,.85-1.32,3.5,3.5,0,0,1,1.22-.77,3.94,3.94,0,0,1,1.4-.25h.44l.37,0,.35,0,.39.07-.11.84-.44-.08-.33,0a3.16,3.16,0,0,0-.32,0h-.4a2.61,2.61,0,0,0-2.52,1.8,4,4,0,0,0-.22,1.4,4.08,4.08,0,0,0,.2,1.37,2.83,2.83,0,0,0,.59,1,2.24,2.24,0,0,0,.87.59,3,3,0,0,0,1.08.19h.43c.12,0,.25,0,.37,0l.39-.05Z" style="fill:#4d4d4d"/><path d="M427.73,479.2v8.39h-.91v-8.32Z" style="fill:#4d4d4d"/><path d="M429.76,479.8a.61.61,0,0,1,0-.24.52.52,0,0,1,.12-.19.42.42,0,0,1,.18-.11.69.69,0,0,1,.24-.05.6.6,0,0,1,.24.05.33.33,0,0,1,.18.11.57.57,0,0,1,.12.18.66.66,0,0,1,0,.25.61.61,0,0,1,0,.24.57.57,0,0,1-.12.18.41.41,0,0,1-.18.12.86.86,0,0,1-.24,0,1,1,0,0,1-.24,0,.55.55,0,0,1-.3-.3A.61.61,0,0,1,429.76,479.8Zm1,1.89v5.9h-.91v-5.83Z" style="fill:#4d4d4d"/><path d="M436.58,487.59v-3.85a1.42,1.42,0,0,0-.08-.52,1,1,0,0,0-.25-.39,1.09,1.09,0,0,0-.42-.25,1.59,1.59,0,0,0-.55-.09l-.38,0-.33.05-.34.09-.36.14v4.8H433v-5.83l.88-.07v.39c.13-.08.27-.14.39-.2l.38-.13.39-.08.45,0a2.65,2.65,0,0,1,.87.13,1.76,1.76,0,0,1,.65.39,1.46,1.46,0,0,1,.39.62,2.48,2.48,0,0,1,.14.85v3.95Z" style="fill:#4d4d4d"/><path d="M440.29,486.16a.65.65,0,0,0,0,.2.48.48,0,0,0,.13.16.83.83,0,0,0,.23.1,1.65,1.65,0,0,0,.34,0l1.57.05a2.86,2.86,0,0,1,.71.11,1.39,1.39,0,0,1,.5.26,1.14,1.14,0,0,1,.3.4,1.38,1.38,0,0,1,.09.52,1.67,1.67,0,0,1-.17.77,1.73,1.73,0,0,1-.53.62,2.72,2.72,0,0,1-.89.41,5,5,0,0,1-1.23.14,4.28,4.28,0,0,1-1-.11,2.15,2.15,0,0,1-.75-.31,1.37,1.37,0,0,1-.47-.49,1.22,1.22,0,0,1-.16-.62,1.07,1.07,0,0,1,.07-.39,1.9,1.9,0,0,1,.2-.37,1.83,1.83,0,0,1,.32-.3,1.57,1.57,0,0,1,.37-.22v-.05a.76.76,0,0,1-.19-.12.8.8,0,0,1-.15-.17.67.67,0,0,1-.09-.21.61.61,0,0,1,0-.24.82.82,0,0,1,0-.26.76.76,0,0,1,.13-.23,1,1,0,0,1,.2-.2.87.87,0,0,1,.27-.14v0a2.55,2.55,0,0,1-.38-.26,1.45,1.45,0,0,1-.28-.36,2.34,2.34,0,0,1-.18-.45,2.38,2.38,0,0,1-.06-.55,2.69,2.69,0,0,1,.15-.92,1.84,1.84,0,0,1,.47-.69,2.15,2.15,0,0,1,.74-.43,3,3,0,0,1,1-.15h.23l.25,0a.78.78,0,0,1,.22,0l.2,0h1.8v.68h-1.11v0a1,1,0,0,1,.24.21q.09.13.18.3a1.8,1.8,0,0,1,.12.35,2.58,2.58,0,0,1,0,.4,2.19,2.19,0,0,1-.16.88,1.77,1.77,0,0,1-.48.64,2.18,2.18,0,0,1-.76.39,3.92,3.92,0,0,1-1,.13H441l-.16,0-.15,0a.35.35,0,0,0-.15.07.43.43,0,0,0-.12.11.38.38,0,0,0-.09.13A.35.35,0,0,0,440.29,486.16Zm-.45,2.09a.68.68,0,0,0,.11.39.81.81,0,0,0,.31.3,1.7,1.7,0,0,0,.51.19,2.91,2.91,0,0,0,.7.07,5.47,5.47,0,0,0,.87-.07,2.1,2.1,0,0,0,.6-.21,1.11,1.11,0,0,0,.35-.33.81.81,0,0,0,.11-.41.78.78,0,0,0,0-.28.48.48,0,0,0-.15-.2,1,1,0,0,0-.29-.12,2.11,2.11,0,0,0-.42-.06l-2-.1a1.71,1.71,0,0,0-.27.14.91.91,0,0,0-.21.18,1,1,0,0,0-.12.23A.86.86,0,0,0,439.84,488.25Zm1.61-3.16a2.22,2.22,0,0,0,.61-.07,1.14,1.14,0,0,0,.43-.25.94.94,0,0,0,.26-.43,2.06,2.06,0,0,0,.09-.64,1.62,1.62,0,0,0-.09-.57,1,1,0,0,0-.27-.41,1,1,0,0,0-.42-.24,1.6,1.6,0,0,0-.56-.09,1.69,1.69,0,0,0-.56.09,1.09,1.09,0,0,0-.43.25,1.12,1.12,0,0,0-.27.43,1.91,1.91,0,0,0-.09.61,1.82,1.82,0,0,0,.09.61,1.27,1.27,0,0,0,.27.42,1.25,1.25,0,0,0,.41.22A1.74,1.74,0,0,0,441.45,485.09Z" style="fill:#4d4d4d"/><path d="M445.4,484.66a4.4,4.4,0,0,1,.19-1.31,2.76,2.76,0,0,1,.52-1,2.34,2.34,0,0,1,.79-.58,2.39,2.39,0,0,1,1-.2,2.73,2.73,0,0,1,.94.15,1.87,1.87,0,0,1,.71.45,2,2,0,0,1,.44.74,3.13,3.13,0,0,1,.15,1v.36c0,.06,0,.12,0,.18a1.1,1.1,0,0,1,0,.18h-3.75a3,3,0,0,0,.13.95,1.93,1.93,0,0,0,.4.67,1.69,1.69,0,0,0,.59.39,2.35,2.35,0,0,0,.77.12l.48,0,.44-.07a3.54,3.54,0,0,0,.44-.11,3.83,3.83,0,0,0,.43-.17v.83a3.25,3.25,0,0,1-.46.17c-.14.05-.29.08-.44.12l-.47.07-.53,0a3.23,3.23,0,0,1-1.11-.18,2.25,2.25,0,0,1-.86-.54,2.47,2.47,0,0,1-.54-.94A4.46,4.46,0,0,1,445.4,484.66Zm1-.71h2.76a2.82,2.82,0,0,0-.08-.68,1.38,1.38,0,0,0-.25-.5,1,1,0,0,0-.42-.29,1.4,1.4,0,0,0-.56-.1,1.26,1.26,0,0,0-.51.11,1.47,1.47,0,0,0-.44.31,1.59,1.59,0,0,0-.32.5A2.23,2.23,0,0,0,446.35,484Z" style="fill:#4d4d4d"/><path d="M435.08,494.28a2.1,2.1,0,1,1,2.1-2.1A2.1,2.1,0,0,1,435.08,494.28Zm0-3.69a1.6,1.6,0,1,0,1.6,1.59A1.6,1.6,0,0,0,435.08,490.59Z" style="fill:#8b8f9e"/><path d="M84.53,429.84a5.51,5.51,0,0,1,.26-1.73,4,4,0,0,1,.74-1.3,3.21,3.21,0,0,1,1.11-.8,3.4,3.4,0,0,1,1.36-.27,3.26,3.26,0,0,1,1.29.25,2.85,2.85,0,0,1,1,.76A3.48,3.48,0,0,1,91,428a5.63,5.63,0,0,1,.24,1.72,5.47,5.47,0,0,1-.26,1.73,3.58,3.58,0,0,1-.73,1.3,3,3,0,0,1-1.1.81,3.36,3.36,0,0,1-1.35.27,3.29,3.29,0,0,1-1.31-.26,2.79,2.79,0,0,1-1-.75,3.48,3.48,0,0,1-.69-1.26A5.33,5.33,0,0,1,84.53,429.84Zm1-.12a5.16,5.16,0,0,0,.18,1.51,2.65,2.65,0,0,0,.5,1,1.93,1.93,0,0,0,.75.57,2.41,2.41,0,0,0,.93.18,2.2,2.2,0,0,0,.88-.18,2.11,2.11,0,0,0,.76-.55,2.55,2.55,0,0,0,.54-1,4.38,4.38,0,0,0,.21-1.44,5.58,5.58,0,0,0-.18-1.51,2.71,2.71,0,0,0-.51-1,2.11,2.11,0,0,0-.75-.56,2.6,2.6,0,0,0-.93-.17,2.38,2.38,0,0,0-.88.17,2.2,2.2,0,0,0-.76.55,3,3,0,0,0-.54,1A4.47,4.47,0,0,0,85.52,429.72Z" style="fill:#4d4d4d"/><path d="M98,430.72a3.79,3.79,0,0,1-.21,1.29,2.89,2.89,0,0,1-.6,1,2.53,2.53,0,0,1-.87.62,2.7,2.7,0,0,1-1,.21,3,3,0,0,1-1.07-.19,2,2,0,0,1-.8-.56,2.6,2.6,0,0,1-.52-.94,4.17,4.17,0,0,1-.18-1.28,3.79,3.79,0,0,1,.21-1.29,2.85,2.85,0,0,1,.6-1,2.53,2.53,0,0,1,.87-.62,2.49,2.49,0,0,1,1-.22,3,3,0,0,1,1.07.19,2.25,2.25,0,0,1,.82.57,2.6,2.6,0,0,1,.51.93A4.19,4.19,0,0,1,98,430.72Zm-.94,0a3.5,3.5,0,0,0-.12-1,2,2,0,0,0-.34-.69,1.33,1.33,0,0,0-.53-.41,1.73,1.73,0,0,0-.73-.14,1.51,1.51,0,0,0-.68.15,1.65,1.65,0,0,0-.55.44,2.18,2.18,0,0,0-.34.72,3.48,3.48,0,0,0-.12.95,3.43,3.43,0,0,0,.11,1,2,2,0,0,0,.34.7,1.3,1.3,0,0,0,.54.41,1.65,1.65,0,0,0,.72.14,1.46,1.46,0,0,0,.69-.16,1.63,1.63,0,0,0,.54-.45,2,2,0,0,0,.34-.72A3.39,3.39,0,0,0,97.1,430.75Z" style="fill:#4d4d4d"/><path d="M99.37,433.6v-.83l.41.1.42.07.42,0,.45,0a2.23,2.23,0,0,0,.55-.07,1.28,1.28,0,0,0,.41-.18.83.83,0,0,0,.25-.28.86.86,0,0,0,.08-.36.94.94,0,0,0,0-.3.64.64,0,0,0-.18-.25,1.42,1.42,0,0,0-.3-.2,2.36,2.36,0,0,0-.45-.16l-.68-.21a2,2,0,0,1-.54-.22,1.39,1.39,0,0,1-.39-.32,1.64,1.64,0,0,1-.24-.43,1.51,1.51,0,0,1-.08-.53,1.53,1.53,0,0,1,.15-.67,1.62,1.62,0,0,1,.43-.55,2.14,2.14,0,0,1,.67-.36,3,3,0,0,1,.88-.12H102l.36,0,.34,0,.33.06-.1.79-.34-.06c-.11,0-.21,0-.32,0l-.33,0h-.37a2,2,0,0,0-.51.06,1.28,1.28,0,0,0-.39.17.71.71,0,0,0-.23.26.72.72,0,0,0-.08.32.94.94,0,0,0,.05.3.54.54,0,0,0,.15.22,1.08,1.08,0,0,0,.26.18,1.92,1.92,0,0,0,.37.14l.68.18a2.36,2.36,0,0,1,.62.24,1.64,1.64,0,0,1,.44.33,1,1,0,0,1,.26.42,1.36,1.36,0,0,1,.09.51,1.87,1.87,0,0,1-.16.75,1.79,1.79,0,0,1-.46.6,2,2,0,0,1-.7.39,2.94,2.94,0,0,1-.91.14h-.46l-.42,0a2.32,2.32,0,0,1-.38-.06Z" style="fill:#4d4d4d"/><path d="M104.4,428.58v-.73h.71v-1l.91-.13v1.16h1.54v.73H106v3.32a1.35,1.35,0,0,0,.07.48.86.86,0,0,0,.19.34.72.72,0,0,0,.29.2,1.17,1.17,0,0,0,.38.07h.2l.19,0,.19,0,.21,0v.77l-.27.06-.25,0-.24,0h-.27a1.81,1.81,0,0,1-.63-.1,1.35,1.35,0,0,1-.51-.31,1.44,1.44,0,0,1-.34-.57,2.7,2.7,0,0,1-.12-.86v-3.37Z" style="fill:#4d4d4d"/><path d="M114,430.61a3.77,3.77,0,0,1-.22,1.34,3,3,0,0,1-.63,1,2.87,2.87,0,0,1-1,.62,3.56,3.56,0,0,1-1.25.21h-.87l-.44,0-.47-.06V425.4l.92-.07v2.84a3.14,3.14,0,0,1,.37-.18l.38-.12.39-.07.4,0a2.86,2.86,0,0,1,1,.17,2,2,0,0,1,.76.53,2.54,2.54,0,0,1,.49.89A4.19,4.19,0,0,1,114,430.61Zm-.94.08a3.18,3.18,0,0,0-.12-.93,1.68,1.68,0,0,0-.35-.65,1.22,1.22,0,0,0-.54-.37,2,2,0,0,0-.72-.12,1.83,1.83,0,0,0-.33,0l-.31.05a1.86,1.86,0,0,0-.31.1l-.32.13v4l.25,0,.24,0h.49a2.32,2.32,0,0,0,.8-.14,1.7,1.7,0,0,0,.64-.42,2,2,0,0,0,.43-.72A3.13,3.13,0,0,0,113.07,430.69Z" style="fill:#4d4d4d"/><path d="M116.64,427.81v3.89a1.53,1.53,0,0,0,.09.54,1,1,0,0,0,.24.4,1.22,1.22,0,0,0,.4.24,1.89,1.89,0,0,0,.56.08,2.24,2.24,0,0,0,.38,0l.32-.05.3-.09.38-.14v-4.77l.91-.08v5.91h-.89v-.36l-.37.2-.37.13-.39.08a3.22,3.22,0,0,1-1.31-.09,1.72,1.72,0,0,1-.64-.39,1.68,1.68,0,0,1-.39-.63,2.51,2.51,0,0,1-.13-.86v-3.91Z" style="fill:#4d4d4d"/><path d="M125.21,427.86l-.11.9-.18,0-.16,0-.16,0h-.17a1.27,1.27,0,0,0-.28,0,1.53,1.53,0,0,0-.27.11,2,2,0,0,0-.28.19,3.56,3.56,0,0,0-.31.28v4.44h-.91v-5.83l.9-.08v.69a3.4,3.4,0,0,1,.32-.33,1.79,1.79,0,0,1,.31-.22,1.3,1.3,0,0,1,.3-.13,1.17,1.17,0,0,1,.32,0h.18l.16,0,.16,0Z" style="fill:#4d4d4d"/><path d="M127.31,432.29a.45.45,0,0,0,0,.2.37.37,0,0,0,.13.15.55.55,0,0,0,.23.11,1.55,1.55,0,0,0,.33,0l1.57.05a2.53,2.53,0,0,1,.72.11,1.39,1.39,0,0,1,.5.26,1.17,1.17,0,0,1,.3.4,1.36,1.36,0,0,1,.09.51,1.85,1.85,0,0,1-.17.78,1.81,1.81,0,0,1-.53.62,2.61,2.61,0,0,1-.89.4,4.5,4.5,0,0,1-1.23.15,4.22,4.22,0,0,1-1-.11,2.35,2.35,0,0,1-.75-.31,1.46,1.46,0,0,1-.47-.49,1.22,1.22,0,0,1-.16-.62,1.07,1.07,0,0,1,.07-.39,1.33,1.33,0,0,1,.2-.37,1.77,1.77,0,0,1,.31-.3,1.34,1.34,0,0,1,.38-.22v-.05l-.19-.12a.8.8,0,0,1-.15-.17,2,2,0,0,1-.1-.21.88.88,0,0,1,0-.24.78.78,0,0,1,0-.26.76.76,0,0,1,.13-.23,1,1,0,0,1,.46-.34v0a1.85,1.85,0,0,1-.37-.25,1.45,1.45,0,0,1-.28-.36,1.63,1.63,0,0,1-.18-.45,2.45,2.45,0,0,1-.07-.56,2.63,2.63,0,0,1,.16-.91,1.82,1.82,0,0,1,.46-.69,2,2,0,0,1,.75-.43,3,3,0,0,1,1-.15h.48l.23,0,.19.05h1.8v.68h-1.1v0a.66.66,0,0,1,.23.21,1.49,1.49,0,0,1,.18.3,1,1,0,0,1,.12.35,1.75,1.75,0,0,1,.05.4,2.19,2.19,0,0,1-.17.88,1.54,1.54,0,0,1-.47.63,1.89,1.89,0,0,1-.76.39,3.54,3.54,0,0,1-1,.14H128l-.17,0-.15,0a.55.55,0,0,0-.15.08l-.12.1a.64.64,0,0,0-.08.14A.32.32,0,0,0,127.31,432.29Zm-.46,2.09a.77.77,0,0,0,.11.39,1,1,0,0,0,.32.3,1.7,1.7,0,0,0,.51.19,3.52,3.52,0,0,0,.7.07,4.45,4.45,0,0,0,.87-.08,1.63,1.63,0,0,0,.6-.21,1,1,0,0,0,.34-.32.73.73,0,0,0,.12-.41.78.78,0,0,0,0-.28.39.39,0,0,0-.16-.2.81.81,0,0,0-.28-.12,1.29,1.29,0,0,0-.42-.06l-2-.1a1.71,1.71,0,0,0-.27.14.91.91,0,0,0-.21.18.63.63,0,0,0-.12.23A.87.87,0,0,0,126.85,434.38Zm1.61-3.16a1.91,1.91,0,0,0,.62-.08,1,1,0,0,0,.69-.68,2,2,0,0,0,.08-.64,1.6,1.6,0,0,0-.09-.56,1,1,0,0,0-.26-.41,1.1,1.1,0,0,0-.42-.24,1.6,1.6,0,0,0-.56-.09,1.64,1.64,0,0,0-.56.09,1.09,1.09,0,0,0-.43.25,1.12,1.12,0,0,0-.27.43,1.82,1.82,0,0,0-.09.61,1.87,1.87,0,0,0,.09.61,1.13,1.13,0,0,0,.27.41,1,1,0,0,0,.41.23A1.72,1.72,0,0,0,128.46,431.22Z" style="fill:#4d4d4d"/><path d="M107.86,440.41a2.1,2.1,0,1,1,2.1-2.1A2.1,2.1,0,0,1,107.86,440.41Zm0-3.69a1.6,1.6,0,1,0,1.6,1.59A1.6,1.6,0,0,0,107.86,436.72Z" style="fill:#8b8f9e"/><path d="M208.93,103.17h-2.21V95.3h2a4.44,4.44,0,0,1,1.16.14,2.37,2.37,0,0,1,.83.39,1.64,1.64,0,0,1,.5.62,1.91,1.91,0,0,1,.16.8,2.48,2.48,0,0,1-.07.63,1.69,1.69,0,0,1-.21.49,1.48,1.48,0,0,1-.34.37,2.12,2.12,0,0,1-.47.26v0a2.11,2.11,0,0,1,.61.25,1.71,1.71,0,0,1,.45.39,1.56,1.56,0,0,1,.27.53,2.15,2.15,0,0,1,.09.64,2.55,2.55,0,0,1-.18,1,1.89,1.89,0,0,1-.54.74,2.4,2.4,0,0,1-.87.46A4,4,0,0,1,208.93,103.17Zm-.25-7.07h-1v2.62h1a3.63,3.63,0,0,0,.79-.08,1.5,1.5,0,0,0,.54-.25,1.1,1.1,0,0,0,.31-.43,1.66,1.66,0,0,0,.1-.61,1.25,1.25,0,0,0-.1-.53.92.92,0,0,0-.31-.39,1.34,1.34,0,0,0-.54-.24A3.07,3.07,0,0,0,208.68,96.1Zm0,3.42h-1v2.85h1.24a2.64,2.64,0,0,0,.78-.1,1.51,1.51,0,0,0,.58-.29,1.13,1.13,0,0,0,.35-.46,1.49,1.49,0,0,0,.12-.62,1.55,1.55,0,0,0-.1-.59,1,1,0,0,0-.36-.43,1.7,1.7,0,0,0-.65-.27A4.45,4.45,0,0,0,208.66,99.52Z" style="fill:#4d4d4d"/><path d="M214.49,97.27v3.88a1.8,1.8,0,0,0,.08.54,1,1,0,0,0,.65.64,1.55,1.55,0,0,0,.55.09l.39,0a1.55,1.55,0,0,0,.31-.06,1.81,1.81,0,0,0,.31-.09l.37-.13V97.34l.91-.07v5.9h-.88v-.36a2.81,2.81,0,0,1-.38.2,2.6,2.6,0,0,1-.36.13,2.74,2.74,0,0,1-.39.09,3.11,3.11,0,0,1-1.32-.1,1.55,1.55,0,0,1-.63-.38,1.86,1.86,0,0,1-.39-.63,2.57,2.57,0,0,1-.13-.87V97.34Z" style="fill:#4d4d4d"/><path d="M223.06,97.32l-.11.9-.18,0-.16,0h-.33a1,1,0,0,0-.29,0,1.48,1.48,0,0,0-.27.1,1.93,1.93,0,0,0-.27.19,3.73,3.73,0,0,0-.31.28v4.44h-.92V97.34l.9-.07V98a3.42,3.42,0,0,1,.33-.33,1.91,1.91,0,0,1,.3-.22,1.37,1.37,0,0,1,.31-.13,1.65,1.65,0,0,1,.31,0h.34l.17,0Z" style="fill:#4d4d4d"/><path d="M228.06,103.17V99.32a1.72,1.72,0,0,0-.08-.52,1,1,0,0,0-.26-.39,1.29,1.29,0,0,0-.41-.25,1.6,1.6,0,0,0-.56-.09l-.38,0-.33,0-.33.09-.36.14v4.8h-.91V94.86l.91-.08v2.86l.39-.19a2.65,2.65,0,0,1,.37-.12,2.32,2.32,0,0,1,.38-.07,3,3,0,0,1,.43,0,3,3,0,0,1,.88.13,1.72,1.72,0,0,1,.64.39,1.55,1.55,0,0,1,.4.62,2.49,2.49,0,0,1,.13.85v4Z" style="fill:#4d4d4d"/><path d="M230.9,100.16v-.84H234v.84Z" style="fill:#4d4d4d"/><path d="M240.8,103.17V99.56h-3.6v3.61h-.94V95.3h.94v3.42h3.6V95.3h.95v7.87Z" style="fill:#4d4d4d"/><path d="M248.11,99.12v4h-.85v-.41a3.46,3.46,0,0,1-.41.23,3.39,3.39,0,0,1-.41.15,2.61,2.61,0,0,1-.42.08,3.94,3.94,0,0,1-.5,0,2.29,2.29,0,0,1-.76-.11,1.76,1.76,0,0,1-.57-.32,1.46,1.46,0,0,1-.37-.51,1.66,1.66,0,0,1-.12-.64,1.47,1.47,0,0,1,.16-.7,1.76,1.76,0,0,1,.5-.56,2.54,2.54,0,0,1,.83-.37,4.47,4.47,0,0,1,1.16-.13h.89v-.64a1.36,1.36,0,0,0-.09-.51,1,1,0,0,0-.24-.38,1.06,1.06,0,0,0-.42-.23,2.23,2.23,0,0,0-.6-.08l-.41,0a3.07,3.07,0,0,0-.42.07,3.45,3.45,0,0,0-.43.12,4.13,4.13,0,0,0-.45.17l-.2-.77.53-.21a4.42,4.42,0,0,1,.48-.15,4.13,4.13,0,0,1,.49-.07,4.63,4.63,0,0,1,.54,0,2.75,2.75,0,0,1,.9.13,1.64,1.64,0,0,1,.65.36,1.48,1.48,0,0,1,.4.6A2,2,0,0,1,248.11,99.12Zm-3.47,2.46a1,1,0,0,0,.07.35.69.69,0,0,0,.2.28,1,1,0,0,0,.33.17,1.6,1.6,0,0,0,.46.06l.42,0,.39-.08.36-.13a2.61,2.61,0,0,0,.37-.19v-1.37H247l-.3,0h-.42a3.49,3.49,0,0,0-.77.07,1.9,1.9,0,0,0-.53.2.85.85,0,0,0-.29.31A.78.78,0,0,0,244.64,101.58Z" style="fill:#4d4d4d"/><path d="M254.17,99.12v4h-.85v-.41a3.46,3.46,0,0,1-.41.23,3.39,3.39,0,0,1-.41.15,2.61,2.61,0,0,1-.42.08,3.94,3.94,0,0,1-.5,0,2.29,2.29,0,0,1-.76-.11,1.76,1.76,0,0,1-.57-.32,1.34,1.34,0,0,1-.37-.51,1.66,1.66,0,0,1-.12-.64,1.47,1.47,0,0,1,.16-.7,1.65,1.65,0,0,1,.5-.56,2.54,2.54,0,0,1,.83-.37,4.47,4.47,0,0,1,1.16-.13h.88v-.64a1.37,1.37,0,0,0-.08-.51,1,1,0,0,0-.25-.38.94.94,0,0,0-.42-.23,2.05,2.05,0,0,0-.59-.08l-.41,0a3.07,3.07,0,0,0-.42.07,3.45,3.45,0,0,0-.43.12,4.13,4.13,0,0,0-.45.17l-.2-.77.53-.21a4.42,4.42,0,0,1,.48-.15,3.85,3.85,0,0,1,.49-.07,4.63,4.63,0,0,1,.54,0,2.75,2.75,0,0,1,.9.13,1.71,1.71,0,0,1,.65.36,1.48,1.48,0,0,1,.4.6A2.2,2.2,0,0,1,254.17,99.12Zm-3.47,2.46a1,1,0,0,0,.07.35.69.69,0,0,0,.2.28,1,1,0,0,0,.33.17,1.6,1.6,0,0,0,.46.06l.42,0,.39-.08.36-.13a2.09,2.09,0,0,0,.36-.19v-1.37h-.19l-.3,0h-.42a3.43,3.43,0,0,0-.77.07,1.9,1.9,0,0,0-.53.2.85.85,0,0,0-.29.31A.78.78,0,0,0,250.7,101.58Z" style="fill:#4d4d4d"/><path d="M263.4,103.17V99.33a1.72,1.72,0,0,0-.08-.52,1,1,0,0,0-.24-.4,1.24,1.24,0,0,0-.4-.25,1.55,1.55,0,0,0-.55-.09l-.37,0-.33,0-.32.09-.37.14v4.8h-.92V99.31a1.81,1.81,0,0,0-.07-.54,1,1,0,0,0-.23-.39.94.94,0,0,0-.39-.23,1.93,1.93,0,0,0-.58-.08l-.39,0-.33,0a1.81,1.81,0,0,0-.31.09l-.36.14v4.8h-.91V97.34l.87-.07v.39l.41-.2a1.63,1.63,0,0,1,.37-.13,2.32,2.32,0,0,1,.38-.07,3.26,3.26,0,0,1,1,0,2.12,2.12,0,0,1,.45.11,1.7,1.7,0,0,1,.67.45l.5-.28a2.42,2.42,0,0,1,.46-.18,3.78,3.78,0,0,1,.46-.1,2.78,2.78,0,0,1,.51,0,3,3,0,0,1,.88.13,1.54,1.54,0,0,1,.63.39,1.64,1.64,0,0,1,.39.62,2.49,2.49,0,0,1,.13.85v4Z" style="fill:#4d4d4d"/><path d="M265.92,103.05v-.83l.41.11c.13,0,.27,0,.41.06l.43,0h.44a1.84,1.84,0,0,0,.55-.07,1.19,1.19,0,0,0,.41-.18.71.71,0,0,0,.25-.27.74.74,0,0,0,.09-.36.78.78,0,0,0-.06-.31.66.66,0,0,0-.17-.25,1.28,1.28,0,0,0-.31-.2,2.56,2.56,0,0,0-.45-.16l-.68-.2a2.2,2.2,0,0,1-.54-.23,1.5,1.5,0,0,1-.38-.32,1.31,1.31,0,0,1-.25-.43,1.72,1.72,0,0,1-.08-.52,1.54,1.54,0,0,1,.58-1.22,1.84,1.84,0,0,1,.68-.36,2.65,2.65,0,0,1,.87-.13h.39l.36,0,.34,0,.32.06-.09.8-.35-.06-.32,0-.33,0h-.37a2,2,0,0,0-.51.06,1,1,0,0,0-.38.17.63.63,0,0,0-.23.26.59.59,0,0,0-.08.32.85.85,0,0,0,0,.29.91.91,0,0,0,.15.23,1.3,1.3,0,0,0,.26.17,2.21,2.21,0,0,0,.37.14l.68.18a2.36,2.36,0,0,1,.62.24,2,2,0,0,1,.45.33,1.14,1.14,0,0,1,.26.42,1.44,1.44,0,0,1,.08.51,1.79,1.79,0,0,1-.16.76,1.89,1.89,0,0,1-.45.6,2.41,2.41,0,0,1-.71.39,2.88,2.88,0,0,1-.9.13h-.47l-.41,0-.38-.06Z" style="fill:#4d4d4d"/><path d="M271,98V97.3h.7v-1l.92-.13V97.3h1.53V98h-1.53v3.31a1.77,1.77,0,0,0,.06.49,1.11,1.11,0,0,0,.19.34,1,1,0,0,0,.3.19.9.9,0,0,0,.37.07h.39l.19,0,.21,0v.77a1.31,1.31,0,0,1-.27.06l-.25,0a2,2,0,0,1-.24,0h-.26a2.15,2.15,0,0,1-.64-.09,1.55,1.55,0,0,1-.5-.31,1.44,1.44,0,0,1-.34-.58,2.64,2.64,0,0,1-.13-.86V98Z" style="fill:#4d4d4d"/><path d="M275.34,100.24a4,4,0,0,1,.19-1.3,2.46,2.46,0,0,1,.52-1,2.28,2.28,0,0,1,.79-.59,2.37,2.37,0,0,1,1-.19,2.79,2.79,0,0,1,.95.15,1.84,1.84,0,0,1,.7.45,2,2,0,0,1,.44.73,3.17,3.17,0,0,1,.15,1v.54c0,.06,0,.12,0,.18h-3.76a3,3,0,0,0,.14,1,1.7,1.7,0,0,0,.39.67,1.49,1.49,0,0,0,.6.39,2.29,2.29,0,0,0,.76.12,3.7,3.7,0,0,0,.48,0l.45-.06a3.45,3.45,0,0,0,.43-.12,4,4,0,0,0,.44-.17v.83a3.78,3.78,0,0,1-.46.17,3.6,3.6,0,0,1-.44.12l-.47.07a4.61,4.61,0,0,1-.54,0,3.23,3.23,0,0,1-1.11-.18,2.21,2.21,0,0,1-.85-.54,2.35,2.35,0,0,1-.54-.94A4.13,4.13,0,0,1,275.34,100.24Zm1-.7h2.76a2.4,2.4,0,0,0-.09-.69,1.31,1.31,0,0,0-.25-.5,1,1,0,0,0-.41-.29,1.64,1.64,0,0,0-.56-.1,1.27,1.27,0,0,0-.52.11,1.6,1.6,0,0,0-.44.31,1.71,1.71,0,0,0-.32.5A2.66,2.66,0,0,0,276.29,99.54Z" style="fill:#4d4d4d"/><path d="M286.25,94.78v8.39h-.89v-.38L285,103a2.35,2.35,0,0,1-.37.14l-.39.09-.41,0a2.64,2.64,0,0,1-1-.18,2.26,2.26,0,0,1-.78-.55,2.63,2.63,0,0,1-.52-.9,3.86,3.86,0,0,1-.18-1.22,4,4,0,0,1,.21-1.34,2.86,2.86,0,0,1,.61-1,2.82,2.82,0,0,1,.94-.61,3.27,3.27,0,0,1,1.19-.21h.29l.26,0,.23,0,.21.06v-2.5Zm-2,3.26a2,2,0,0,0-.8.15,1.57,1.57,0,0,0-.61.44,1.78,1.78,0,0,0-.39.72,3.27,3.27,0,0,0,0,1.86,1.85,1.85,0,0,0,.35.67,1.5,1.5,0,0,0,.55.39,1.78,1.78,0,0,0,.7.13,2.06,2.06,0,0,0,.36,0l.32-.06a1.48,1.48,0,0,0,.29-.12,2.28,2.28,0,0,0,.3-.17v-3.9l-.27,0-.25,0-.27,0Z" style="fill:#4d4d4d"/><path d="M288.05,100.24a4.35,4.35,0,0,1,.18-1.3,2.61,2.61,0,0,1,.53-1,2.24,2.24,0,0,1,.78-.59,2.42,2.42,0,0,1,1-.19,2.83,2.83,0,0,1,.95.15,1.84,1.84,0,0,1,.7.45,2,2,0,0,1,.44.73,3.17,3.17,0,0,1,.15,1v.36a1.09,1.09,0,0,1,0,.18,1.1,1.1,0,0,1,0,.18H289a2.75,2.75,0,0,0,.14,1,1.7,1.7,0,0,0,.39.67,1.52,1.52,0,0,0,.59.39,2.35,2.35,0,0,0,.77.12,3.7,3.7,0,0,0,.48,0l.45-.06.43-.12a3.83,3.83,0,0,0,.43-.17v.83a3.67,3.67,0,0,1-.45.17l-.44.12-.47.07a4.7,4.7,0,0,1-.54,0,3.23,3.23,0,0,1-1.11-.18,2.33,2.33,0,0,1-.86-.54,2.61,2.61,0,0,1-.54-.94A4.43,4.43,0,0,1,288.05,100.24Zm.94-.7h2.76a2.42,2.42,0,0,0-.08-.69,1.47,1.47,0,0,0-.25-.5,1,1,0,0,0-.42-.29,1.58,1.58,0,0,0-.55-.1,1.27,1.27,0,0,0-.52.11,1.47,1.47,0,0,0-.44.31,1.71,1.71,0,0,0-.32.5A2.66,2.66,0,0,0,289,99.54Z" style="fill:#4d4d4d"/><path d="M249.52,109.86a2.1,2.1,0,1,1,2.1-2.09A2.1,2.1,0,0,1,249.52,109.86Zm0-3.69a1.6,1.6,0,1,0,1.6,1.6A1.6,1.6,0,0,0,249.52,106.17Z" style="fill:#8b8f9e"/><path d="M314.66,79.89h-2.21V72h2a4.44,4.44,0,0,1,1.16.14,2.22,2.22,0,0,1,.83.4,1.54,1.54,0,0,1,.5.61,1.91,1.91,0,0,1,.16.8,2.38,2.38,0,0,1-.07.63,1.69,1.69,0,0,1-.21.49,1.33,1.33,0,0,1-.34.37,2.12,2.12,0,0,1-.47.26v0a2.1,2.1,0,0,1,.61.24,1.71,1.71,0,0,1,.45.39,1.66,1.66,0,0,1,.27.53,2.15,2.15,0,0,1,.09.64,2.55,2.55,0,0,1-.18,1,1.89,1.89,0,0,1-.54.74,2.49,2.49,0,0,1-.87.46A4,4,0,0,1,314.66,79.89Zm-.25-7.06h-1v2.61h1a3.7,3.7,0,0,0,.79-.08,1.59,1.59,0,0,0,.54-.25,1.13,1.13,0,0,0,.31-.43,1.9,1.9,0,0,0,.1-.61,1.43,1.43,0,0,0-.1-.53,1,1,0,0,0-.31-.39,1.8,1.8,0,0,0-.54-.24A3.7,3.7,0,0,0,314.41,72.83Zm0,3.42h-1v2.84h1.24a2.64,2.64,0,0,0,.78-.1,1.65,1.65,0,0,0,.58-.28,1.35,1.35,0,0,0,.35-.47,1.48,1.48,0,0,0,.12-.61,1.4,1.4,0,0,0-.11-.6,1,1,0,0,0-.35-.43,1.7,1.7,0,0,0-.65-.26A4.48,4.48,0,0,0,314.38,76.25Z" style="fill:#4d4d4d"/><path d="M322.22,74l-.11.9-.18,0a.45.45,0,0,0-.16,0l-.16,0h-.17a1.35,1.35,0,0,0-.28,0,1,1,0,0,0-.27.11,1.86,1.86,0,0,0-.28.18c-.09.08-.2.17-.31.28v4.44h-.91V74.06l.9-.07v.68l.32-.33a2.58,2.58,0,0,1,.31-.22,1.25,1.25,0,0,1,.3-.12,1.19,1.19,0,0,1,.32,0h.34a.9.9,0,0,1,.16,0Z" style="fill:#4d4d4d"/><path d="M328.54,76.89a3.81,3.81,0,0,1-.21,1.3,2.92,2.92,0,0,1-.59,1,2.52,2.52,0,0,1-.88.62,2.66,2.66,0,0,1-1.05.21,3,3,0,0,1-1.06-.18,2.13,2.13,0,0,1-.81-.57,2.47,2.47,0,0,1-.52-.93,4.21,4.21,0,0,1-.18-1.28,3.62,3.62,0,0,1,.22-1.3,2.87,2.87,0,0,1,.59-1,2.55,2.55,0,0,1,1.91-.83,2.8,2.8,0,0,1,1.07.19,2.35,2.35,0,0,1,.82.56,2.57,2.57,0,0,1,.51.94A3.88,3.88,0,0,1,328.54,76.89Zm-.94,0a3.5,3.5,0,0,0-.12-1,1.85,1.85,0,0,0-.33-.69,1.37,1.37,0,0,0-.54-.42,1.9,1.9,0,0,0-.73-.14,1.51,1.51,0,0,0-.68.15,1.45,1.45,0,0,0-.54.45,2,2,0,0,0-.35.72,3.48,3.48,0,0,0-.12.95,4,4,0,0,0,.11,1,1.86,1.86,0,0,0,.34.69,1.37,1.37,0,0,0,.54.42,1.81,1.81,0,0,0,.72.14,1.53,1.53,0,0,0,1.23-.61,2.2,2.2,0,0,0,.35-.72A3.4,3.4,0,0,0,327.6,76.93Z" style="fill:#4d4d4d"/><path d="M331.17,74v3.89a1.53,1.53,0,0,0,.09.54.86.86,0,0,0,.24.39,1,1,0,0,0,.4.24,1.64,1.64,0,0,0,.56.09l.38,0,.32-.05.3-.09.38-.14V74.06l.91-.07v5.9h-.89v-.36a2.72,2.72,0,0,1-.37.2,2.32,2.32,0,0,1-.37.13,2.23,2.23,0,0,1-.39.09,2.9,2.9,0,0,1-.43,0,2.59,2.59,0,0,1-.88-.13,1.58,1.58,0,0,1-.64-.38,1.68,1.68,0,0,1-.39-.63,2.57,2.57,0,0,1-.13-.87V74.06Z" style="fill:#4d4d4d"/><path d="M344.35,74l-1.85,5.86h-1.16l-1.08-3.55h-.06l-1,3.55H338L336.14,74h1l1.43,5h.06l1.17-3.85L339.45,74h1l1.49,5H342l1.4-5Z" style="fill:#4d4d4d"/><path d="M345.4,77a4.35,4.35,0,0,1,.19-1.31,2.59,2.59,0,0,1,.52-1,2.31,2.31,0,0,1,1.75-.78,2.73,2.73,0,0,1,.94.15,1.87,1.87,0,0,1,.71.45,2,2,0,0,1,.44.74,3.11,3.11,0,0,1,.15,1v.37c0,.06,0,.12,0,.18a.88.88,0,0,1,0,.17h-3.75a3,3,0,0,0,.13,1,1.76,1.76,0,0,0,.4.67,1.45,1.45,0,0,0,.59.39,2.11,2.11,0,0,0,.77.13,3.87,3.87,0,0,0,.48,0,3.11,3.11,0,0,0,.44-.06,3.6,3.6,0,0,0,.44-.12,3.75,3.75,0,0,0,.43-.16v.82l-.46.18-.44.11a3.31,3.31,0,0,1-.47.07,4.33,4.33,0,0,1-.53,0,3.23,3.23,0,0,1-1.11-.18,2.27,2.27,0,0,1-.86-.55,2.33,2.33,0,0,1-.54-.94A4.39,4.39,0,0,1,345.4,77Zm1-.71h2.76a2.84,2.84,0,0,0-.08-.69,1.33,1.33,0,0,0-.25-.49,1,1,0,0,0-.42-.3,1.6,1.6,0,0,0-.56-.09,1.25,1.25,0,0,0-.51.1,1.5,1.5,0,0,0-.44.32,1.48,1.48,0,0,0-.32.5A2.14,2.14,0,0,0,346.35,76.26Z" style="fill:#4d4d4d"/><path d="M354.64,74l-.1.9-.18,0a.51.51,0,0,0-.17,0l-.15,0h-.18a1.35,1.35,0,0,0-.28,0,1,1,0,0,0-.27.11,1.41,1.41,0,0,0-.27.18l-.32.28v4.44h-.91V74.06l.9-.07v.68q.17-.18.33-.33a1.91,1.91,0,0,1,.3-.22,1.17,1.17,0,0,1,.31-.12,1.12,1.12,0,0,1,.31,0h.34a.9.9,0,0,1,.16,0Z" style="fill:#4d4d4d"/><path d="M355.56,79.77v-.83a3,3,0,0,0,.4.11l.42.06.42,0h.45a2.26,2.26,0,0,0,.55-.06,1.42,1.42,0,0,0,.41-.19.72.72,0,0,0,.25-.27.73.73,0,0,0,.08-.36.81.81,0,0,0-.05-.31.66.66,0,0,0-.17-.24,1.18,1.18,0,0,0-.31-.2,2.51,2.51,0,0,0-.45-.17l-.68-.2a2.65,2.65,0,0,1-.54-.22,1.55,1.55,0,0,1-.39-.33,1.44,1.44,0,0,1-.24-.42,1.78,1.78,0,0,1-.08-.53,1.5,1.5,0,0,1,.15-.67,1.62,1.62,0,0,1,.43-.55,1.88,1.88,0,0,1,.67-.36,3.06,3.06,0,0,1,.88-.13h.39l.35,0,.35,0a1.8,1.8,0,0,1,.32.06l-.1.79-.34-.06-.32,0h-.7a2,2,0,0,0-.51.06,1.39,1.39,0,0,0-.39.17.71.71,0,0,0-.23.26.72.72,0,0,0-.08.32.84.84,0,0,0,.05.29.57.57,0,0,0,.15.23,1.3,1.3,0,0,0,.26.17,1.59,1.59,0,0,0,.37.14l.68.18a3.35,3.35,0,0,1,.62.24,1.94,1.94,0,0,1,.44.33,1.37,1.37,0,0,1,.27.42,1.7,1.7,0,0,1,.08.51,1.73,1.73,0,0,1-.16.76,1.79,1.79,0,0,1-.46.6,2,2,0,0,1-.7.39,2.93,2.93,0,0,1-.9.14l-.47,0a2.63,2.63,0,0,1-.41,0l-.39-.06C355.81,79.83,355.68,79.81,355.56,79.77Z" style="fill:#4d4d4d"/><path d="M364.74,79.89V76a1.36,1.36,0,0,0-.09-.51.88.88,0,0,0-.25-.39,1.15,1.15,0,0,0-.41-.26,1.64,1.64,0,0,0-.56-.09l-.38,0a1.86,1.86,0,0,0-.34.06l-.33.09-.36.13v4.8h-.91V71.58l.91-.07v2.85l.39-.18a1.9,1.9,0,0,1,.38-.13,2.32,2.32,0,0,1,.38-.07,2.81,2.81,0,0,1,.43,0,2.6,2.6,0,0,1,.87.14,1.6,1.6,0,0,1,1,1,2.83,2.83,0,0,1,.13.86v3.94Z" style="fill:#4d4d4d"/><path d="M371.71,75.84v4h-.85v-.4l-.42.22a2.74,2.74,0,0,1-.4.15,2,2,0,0,1-.43.08,3.58,3.58,0,0,1-.49,0,2.24,2.24,0,0,1-.76-.12,1.73,1.73,0,0,1-.58-.32,1.32,1.32,0,0,1-.36-.51,1.58,1.58,0,0,1,0-1.34,1.65,1.65,0,0,1,.5-.56,2.45,2.45,0,0,1,.83-.37,4.42,4.42,0,0,1,1.16-.13h.88V76a1.6,1.6,0,0,0-.08-.51,1,1,0,0,0-.25-.38,1.06,1.06,0,0,0-.42-.23,2.1,2.1,0,0,0-.59-.08,3,3,0,0,0-.42,0,3.07,3.07,0,0,0-.42.07l-.43.12a4.13,4.13,0,0,0-.45.17l-.19-.77.52-.21a3.32,3.32,0,0,1,.49-.14,2.64,2.64,0,0,1,.49-.08,4.63,4.63,0,0,1,.54,0,3,3,0,0,1,.89.13,1.77,1.77,0,0,1,.66.37,1.54,1.54,0,0,1,.4.59A2.24,2.24,0,0,1,371.71,75.84Zm-3.47,2.46a.86.86,0,0,0,.07.36.66.66,0,0,0,.2.27.74.74,0,0,0,.33.17,1.56,1.56,0,0,0,.46.06l.42,0a3,3,0,0,0,.75-.21l.36-.18V77.37h-.91a3.58,3.58,0,0,0-.78.07,1.82,1.82,0,0,0-.52.2.85.85,0,0,0-.29.31A.78.78,0,0,0,368.24,78.3Z" style="fill:#4d4d4d"/><path d="M375.06,79.89,373,74h1l1.61,5h.06l1.52-5h.94l-2,5.86Z" style="fill:#4d4d4d"/><path d="M379.22,77a4.06,4.06,0,0,1,.19-1.31,2.46,2.46,0,0,1,.52-1,2.13,2.13,0,0,1,.79-.58,2.22,2.22,0,0,1,.95-.2,2.79,2.79,0,0,1,.95.15,1.76,1.76,0,0,1,.7.45,1.83,1.83,0,0,1,.44.74,3.11,3.11,0,0,1,.15,1v.55c0,.06,0,.12,0,.17h-3.76a2.93,2.93,0,0,0,.14,1,1.63,1.63,0,0,0,.39.67,1.49,1.49,0,0,0,.6.39,2.06,2.06,0,0,0,.76.13,3.64,3.64,0,0,0,.48,0A3.25,3.25,0,0,0,383,79a3.45,3.45,0,0,0,.43-.12,3.89,3.89,0,0,0,.44-.16v.82l-.46.18-.44.11a3.54,3.54,0,0,1-.47.07,4.39,4.39,0,0,1-.54,0,3.27,3.27,0,0,1-1.11-.18,2.23,2.23,0,0,1-1.39-1.49A4.1,4.1,0,0,1,379.22,77Zm.95-.71h2.76a2.4,2.4,0,0,0-.09-.69,1.2,1.2,0,0,0-.25-.49,1,1,0,0,0-.41-.3,1.64,1.64,0,0,0-.56-.09,1.3,1.3,0,0,0-.52.1,1.46,1.46,0,0,0-.43.32,1.5,1.5,0,0,0-.33.5A2.47,2.47,0,0,0,380.17,76.26Z" style="fill:#4d4d4d"/><path d="M389.25,79.89V76a1.6,1.6,0,0,0-.08-.51,1,1,0,0,0-.25-.39,1.19,1.19,0,0,0-.42-.26,1.6,1.6,0,0,0-.56-.09l-.37,0a1.91,1.91,0,0,0-.33.06,1.89,1.89,0,0,0-.34.09l-.36.13v4.8h-.91V74.06l.87-.07v.4a3,3,0,0,1,.4-.2,2.84,2.84,0,0,1,.38-.13,1.59,1.59,0,0,1,.39-.08,2.94,2.94,0,0,1,.44,0,2.66,2.66,0,0,1,.88.14,1.69,1.69,0,0,1,.65.38,1.72,1.72,0,0,1,.39.62,2.55,2.55,0,0,1,.13.86v3.94Z" style="fill:#4d4d4d"/><path d="M351.28,86.59a2.1,2.1,0,1,1,2.1-2.1A2.1,2.1,0,0,1,351.28,86.59Zm0-3.7a1.6,1.6,0,1,0,1.6,1.6A1.6,1.6,0,0,0,351.28,82.89Z" style="fill:#8b8f9e"/><path d="M154.23,280.27h-.08l-.22,6.92h-1.56l.35-8.52h2.65l1.6,5.07H157l1.61-5.07h2.48l.4,8.52h-1.66l-.29-6.92h-.07l-1.71,5.31H156Z" style="fill:#4d4d4d"/><path d="M163.5,279a1,1,0,0,1,.24-.64.85.85,0,0,1,.68-.27.9.9,0,0,1,.68.26.92.92,0,0,1,.24.65.89.89,0,0,1-.24.62.86.86,0,0,1-.68.26.84.84,0,0,1-.92-.88Zm1.73,1.73v6.47h-1.6v-6.41Z" style="fill:#4d4d4d"/><path d="M172.78,278.11v9.08h-1.55v-.44a2.73,2.73,0,0,1-.76.39,2.92,2.92,0,0,1-.9.13,2.5,2.5,0,0,1-1.95-.8,3.37,3.37,0,0,1-.73-2.36,3.31,3.31,0,0,1,1-2.51,3.41,3.41,0,0,1,2.44-.93,3.17,3.17,0,0,1,.44,0,2.24,2.24,0,0,1,.44.07v-2.57ZM170.32,282a1.7,1.7,0,0,0-1.31.54,2.09,2.09,0,0,0-.49,1.47,2,2,0,0,0,.43,1.43,1.5,1.5,0,0,0,1.11.43,3.1,3.1,0,0,0,.57-.05,2.61,2.61,0,0,0,.56-.21v-3.54l-.42,0Z" style="fill:#4d4d4d"/><path d="M180.33,278.11v9.08h-1.55v-.44a2.6,2.6,0,0,1-.76.39,2.92,2.92,0,0,1-.9.13,2.48,2.48,0,0,1-1.94-.8,3.37,3.37,0,0,1-.74-2.36,3.31,3.31,0,0,1,1-2.51,3.79,3.79,0,0,1,2.88-.91,2.14,2.14,0,0,1,.43.07v-2.57ZM177.87,282a1.7,1.7,0,0,0-1.31.54,2.09,2.09,0,0,0-.49,1.47,2,2,0,0,0,.43,1.43,1.5,1.5,0,0,0,1.11.43,3.3,3.3,0,0,0,.58-.05,3.07,3.07,0,0,0,.56-.21v-3.54l-.43,0Z" style="fill:#4d4d4d"/><path d="M182,284a3.33,3.33,0,0,1,.86-2.49,2.83,2.83,0,0,1,2.09-.86,2.53,2.53,0,0,1,1.88.7,2.61,2.61,0,0,1,.7,1.94c0,.21,0,.43,0,.64s0,.39,0,.53h-3.95a1.72,1.72,0,0,0,.62,1.13,2.2,2.2,0,0,0,1.34.36,5.39,5.39,0,0,0,1-.07,8.7,8.7,0,0,0,.89-.21V287q-.53.15-1,.24a6.71,6.71,0,0,1-1.1.08,3.41,3.41,0,0,1-2.39-.81A3.17,3.17,0,0,1,182,284Zm1.53-.69H186a1.65,1.65,0,0,0-.32-1,1,1,0,0,0-.85-.4,1.13,1.13,0,0,0-.85.37A1.85,1.85,0,0,0,183.53,283.29Z" style="fill:#4d4d4d"/><path d="M190.77,278.11v9.08h-1.6v-9Z" style="fill:#4d4d4d"/><path d="M198.66,283.75a3.33,3.33,0,0,1-1,2.6,3.77,3.77,0,0,1-2.64.92l-1,0c-.35,0-.74-.06-1.16-.11v-8.94l1.61-.08v3.07a3.38,3.38,0,0,1,.76-.38,2.65,2.65,0,0,1,.85-.13,2.49,2.49,0,0,1,1.93.78A3.35,3.35,0,0,1,198.66,283.75Zm-1.62.12a1.8,1.8,0,0,0-.42-1.32,1.49,1.49,0,0,0-1.1-.41,3.09,3.09,0,0,0-.55,0,3.23,3.23,0,0,0-.57.17v3.51l.36.05h.35a1.78,1.78,0,0,0,1.93-2.05Z" style="fill:#4d4d4d"/><path d="M201.82,280.72v3.91a1.38,1.38,0,0,0,.25.94,1,1,0,0,0,.81.29,2.58,2.58,0,0,0,.59-.07,3.49,3.49,0,0,0,.56-.2v-4.81l1.6-.06v6.47h-1.55v-.44a5.58,5.58,0,0,1-.78.42,2.17,2.17,0,0,1-.84.15,2.13,2.13,0,0,1-1.69-.63,2.56,2.56,0,0,1-.55-1.76v-4.15Z" style="fill:#4d4d4d"/><path d="M211.32,280.76l-.1,1.52-.36-.07a2.12,2.12,0,0,0-.37,0,1.9,1.9,0,0,0-.61.1,2.06,2.06,0,0,0-.64.33v4.57h-1.6v-6.41l1.59-.06v.74a2.39,2.39,0,0,1,.64-.61,1.43,1.43,0,0,1,.7-.18,2.49,2.49,0,0,1,.4,0A1.36,1.36,0,0,1,211.32,280.76Z" style="fill:#4d4d4d"/><path d="M213.55,285.46a.41.41,0,0,0,.18.34,1.33,1.33,0,0,0,.66.12h1.5a2.49,2.49,0,0,1,1.58.43,1.4,1.4,0,0,1,.5,1.15,2,2,0,0,1-.82,1.58,4.23,4.23,0,0,1-2.6.65,3.86,3.86,0,0,1-2.09-.45,1.37,1.37,0,0,1-.68-1.19,1.29,1.29,0,0,1,.28-.82,1.6,1.6,0,0,1,.76-.55v0a.82.82,0,0,1-.41-.33.93.93,0,0,1-.16-.56,1,1,0,0,1,.2-.58,1.34,1.34,0,0,1,.58-.42v0a1.76,1.76,0,0,1-.74-.64,1.89,1.89,0,0,1-.28-1,2.2,2.2,0,0,1,.76-1.78,3.41,3.41,0,0,1,2.51-.6,4.74,4.74,0,0,1,.49.1h2.1v1h-1v0a1.16,1.16,0,0,1,.38.43,1.42,1.42,0,0,1,.18.74,1.86,1.86,0,0,1-.72,1.57,3.22,3.22,0,0,1-2.06.56l-.42,0-.41-.08a.43.43,0,0,0-.26.37Zm-.34,2.31a.67.67,0,0,0,.36.6,2.14,2.14,0,0,0,1.11.23,3.17,3.17,0,0,0,1.44-.24.68.68,0,0,0,.43-.59.5.5,0,0,0-.2-.42,1.1,1.1,0,0,0-.65-.17l-2.17-.06a.81.81,0,0,0-.24.28A.87.87,0,0,0,213.21,287.77Zm1.52-3.62a1.31,1.31,0,0,0,.92-.3,1.23,1.23,0,0,0,.31-.93,1.11,1.11,0,0,0-.3-.85,1.23,1.23,0,0,0-.92-.3,1.27,1.27,0,0,0-.89.31,1.17,1.17,0,0,0-.34.93,1,1,0,0,0,.32.86A1.29,1.29,0,0,0,214.73,284.15Z" style="fill:#4d4d4d"/><path d="M184.91,294.08A2.1,2.1,0,1,1,187,292,2.1,2.1,0,0,1,184.91,294.08Zm0-3.7a1.6,1.6,0,1,0,1.6,1.6A1.6,1.6,0,0,0,184.91,290.38Z" style="fill:#8b8f9e"/></svg>