<svg xmlns="http://www.w3.org/2000/svg" viewBox="0 0 621 734"><path d="M264.48,442.47l2.88,2.57.83-.4,1.26.37.45,1.33,3,1.66.12,1.05-8,.24-3-.81-2.95-3.34,4.24-2.61,1.07-.06Zm-32.23-22.3,3.48.13,11.07,2.9,14.34,6.71,6.89,2.35,2.38,1.3.18,2.26-10.11,3.79-7.14-.38-5.29-1.39-6.76-4.08-13.55-9.59-1-1.19.41-2,1.81-1,3.24.24ZM521.19,287.89,523.52,301l4.6-2.22,2.6,10.77,2.46,3.69,5.45,2.82-.57,8,9.66-4.44.41,3.21-.06,4.57,1.5,6.87-1.87,3.41-.05,3.19,13.56-5.75L559.8,338l-.55,6.62,2.24,3.69-.5,3-5.93.9-4.89-4.41L549,348.93l1.55,5.17-1,3.86,2.55,4.37,9.32,1.4-3,13.65-6.51-.23h0l-14.67-2.38-12.6-3-7.18-.1-4.88,1.06-10.32,5-8,8-6.8,4.75-2.57,1-4.8,1L469,390.65l-5.88.28-6.07,1.87-6.57,3.42-6.84,7.91-4.38,12.64-2,3.05-5.61,6L422,434.26l-13.29,9.13-27.51,7.45-7,5.43-32.74,8.51-9.55-1.12-32.5-11.36-6,5.52-2.88,1.77-1.26,3.15-2.44.05-1.31,2.78L280,470.88l-1.11,4.52-3,4.85L272,484.19l-3.85,2.17-9.1,4.08-8.6,1.69-6,2.59L233.93,497l-11.77-1.57h0l-8.1-2.77-14-10L180.3,467.31l-6.39-.78-8.19.11-8.18-3.06-19.11-1.8-3.11-1.31-3.73-6.76-1.32-5.54-.48-13.59-7-10.26-1.63-7.53L120,415,103.4,411l-6.1-5.69-8-1.24-8.38,2.06L74.11,410l-9,11.09-4.44.79-12.39-4.1-3.55-3.57h0l5.72-2.86,2.29-2.14L56.87,399l1.23-3.42-.28-1.68L53.54,383l-.07-4.35,3.42-5.15,3.92-3,4.1-.79,6.25-2.31,5-.06,3.75-.94,12.78-5.79,13.12-4.79,4.94-1.2,9,.26,4.31,2.1,1.85,1.78L122,358l-.64,3.07,5.61,3.51,2.73,3.34,2.13.93.62-.62L131,366.46l.07-1.26,1.92.52,1.41-1,.76.59,4.42-5-.68-.78.45-.76,3.39-2.62,3.32-1.44.25-2.44-1.89-4.67-12.65-19.36-1.06-2.63.76-5.32,2.13-3,5.15-10.63,1.44-1-.27-2.18-3.26-2.93-2.43-1.07-1.66,2.64,0,3L131.46,304H131l-.19,1.27-.57-.23-1.07-1.91-2.82-.95-1.95,1.51-.87-.37-2.33,1.37-2.92.24-1.5-.74-.8-1.49.52-3.79L123,277l.22-5.77-.6-.5-1.57.74,0-3.79,2.75-6.14,1.89-1.38,3.07.54,3.14-4.55,1.19-.4,4,1.9.78-.57,3.22,0L144.1,259l5.41,2.25,2.58,2.21,9.29-8,6.33-4.15,3.72-3.11,2-2.72,2.72-1.86,5-8.09,5.62-7.54,34.07-38.39,9.56-11.88.1-1.07,1.05-.26L233.4,178l2.07-3-.57-.36-1.73,2.09-.9-.78-.12-1.27,9.09-9.05,3-2.16,7.2-7.6,19.69-24.55,13.32-19,17.2-29,12.48-22.5L335.5,15.53h0l29.34,13.74,2.82-5.08,5.9-1.54,1.18-.06,10.6,4.68-3.59,5.06-3,7.49-.08,1.79-4.16,8.74-8.72,8.59.72,5.62-3.69,18-3.63,4.4L359,88.25l.39,3.61,2.94,2.46,6.38,1.57,4.64-1.5L379.76,97l6.17.85,8.91-.51,14.22-8,8.28-.38,1.1-.7.58.42,3.23-3.28,4.15-1.65,8.47,1.47-.72,8.07,1.52,3.48.19,2.56-.54,1.26,2.5,2,3.44-4.22L446.61,95l4-.85,3.84-2.92,2.58-3.65,4.28-1.78,4.52,1.05h0l.1,4.68,3,5.13-.18,6.92.64,3.77,3-.09.85,2.21,12.26,13.88L492,125.8l14.43,10.32-.15,1-9,3.34,1.47,11.13-2,.88-.23.76-3.14.46L485,152.42l-2.42-1.93-.93-4.19-2.55,1.31-4.1.71-3.51,1.44L469,153.33,468,159l-5.4,2.31-.72,2.88L476.62,175l-.34,6.42.59,10.73.73,3.48,2.4,3-.22,3.73,4.33-1,13.53.05-2.29,4.47-9.14,3.2L479,214.49l-5.73,8.66-3.17,2.29.67,5.29-3.85,2.69,0,2.53,1.16,4,4.87-.43,2.69-1.86,7.22.37,2.8-1.44,3.48,6.89-.4.9-17.51,4,3.8,5.19,3.29,1.17L481,258.6l-1.72.75,4.45,6.47,5.06,5.92,3.24,2.08,1.05,3.81,3,2.51,3.33,13.9,4.56-1.47,4-.31,8.52-2.05,3.36-4.1ZM631,275.27,140.05,361l-4.33,5.13.73.73-.86,2.43.25,1.49-1.42-.3.45,1.19-.7.76.6.56-.29.68.69.23,2.06-2.09,3,1.67,4,3.76L160,384.56l5.34,4.09,12.6,6.5,8.2,5.66,12,4.15-.31.55.74.56,1.1-.26L209,416.3l5.75,5.14,5.09,3.56,1,2.27,7.35,9.34,2.06,1.92,9.48,6.15,4.08.91,7,5.13,7.57,3,5.73,1.13,15.9,1.07,3.06-.32,1.31-1.16.92-1.53.09-2.44,1.21-.07,2.88-9.14-3.33-1.94-.12-.91-.92.48-16.95-10.24-15.05-7.21v-.64l-1.12-.29-.06.63-18.09-5.72-10.42-4.07-3.18-2.49-4.69-6.8-.51-1.33.67-.67.12-4.43-6.52-7.46-6.16-3.52-3.9-.33-2.19.88-1.64-.74-8.67-10.86-1.72-.93-1.16-1.56-3.5.45-2.68-.53-.91.26-.68,1.25-1.1.12-4.34-.33-1.85-1.43.34-2.3-1.43-.38-.92,2.87L165.25,369l-10.31-3.8-3.23-3.13-3.19-5.18-6.26,2.85-1.37,1.74-.84-.47Z" style="fill:#e5e5e5"/><path d="M293.67,309.39v3.28h-.94V304.8h2.06a4,4,0,0,1,1.15.15,2.35,2.35,0,0,1,.85.43,1.69,1.69,0,0,1,.53.66,2.28,2.28,0,0,1,.17.89,2.68,2.68,0,0,1-.1.76,2.28,2.28,0,0,1-.3.65,2.23,2.23,0,0,1-.48.49,2.37,2.37,0,0,1-.63.34l2.09,3.5H297L295,309.39Zm0-3.78v3h1.11a2.6,2.6,0,0,0,.71-.09,1.43,1.43,0,0,0,.55-.28,1.3,1.3,0,0,0,.35-.48,1.9,1.9,0,0,0,0-1.3,1.06,1.06,0,0,0-.33-.45,1.67,1.67,0,0,0-.55-.28,3.07,3.07,0,0,0-.79-.09Z" style="fill:#4d4d4d"/><path d="M304.47,309.67a3.71,3.71,0,0,1-.21,1.29,2.89,2.89,0,0,1-.6,1,2.4,2.4,0,0,1-.87.62,2.66,2.66,0,0,1-1.05.21,3,3,0,0,1-1.06-.18,2.13,2.13,0,0,1-.81-.57,2.47,2.47,0,0,1-.52-.93,4.21,4.21,0,0,1-.18-1.28,3.62,3.62,0,0,1,.22-1.3,2.87,2.87,0,0,1,.59-1,2.55,2.55,0,0,1,1.91-.83,2.8,2.8,0,0,1,1.07.19,2.35,2.35,0,0,1,.82.56,2.6,2.6,0,0,1,.51.93A4.28,4.28,0,0,1,304.47,309.67Zm-.94,0a3.5,3.5,0,0,0-.12-1,1.85,1.85,0,0,0-.33-.69,1.37,1.37,0,0,0-.54-.42,1.9,1.9,0,0,0-.73-.14,1.51,1.51,0,0,0-.68.15,1.45,1.45,0,0,0-.54.45,1.94,1.94,0,0,0-.35.72,3.48,3.48,0,0,0-.12.95,4,4,0,0,0,.11,1,1.86,1.86,0,0,0,.34.69,1.37,1.37,0,0,0,.54.42,1.81,1.81,0,0,0,.72.14,1.53,1.53,0,0,0,1.23-.61,2.2,2.2,0,0,0,.35-.72A3.4,3.4,0,0,0,303.53,309.71Z" style="fill:#4d4d4d"/><path d="M305.75,307.54v-.73h.7v-1l.92-.13v1.17h1.53v.73h-1.53v3.32a1.75,1.75,0,0,0,.06.48,1,1,0,0,0,.19.34,1,1,0,0,0,.3.19.87.87,0,0,0,.37.07h.2l.19,0,.19,0,.21,0v.76l-.27.06-.25.05-.24,0h-.26a2.1,2.1,0,0,1-.64-.1,1.39,1.39,0,0,1-.5-.31,1.49,1.49,0,0,1-.35-.57,2.77,2.77,0,0,1-.12-.87v-3.36Z" style="fill:#4d4d4d"/><path d="M310,307.54v-.73h.71v-1l.91-.13v1.17h1.54v.73h-1.54v3.32a1.43,1.43,0,0,0,.07.48.75.75,0,0,0,.19.34.81.81,0,0,0,.29.19.9.9,0,0,0,.37.07h.21l.18,0,.2,0,.21,0v.76l-.28.06-.24.05-.24,0h-.27a2.08,2.08,0,0,1-.63-.1,1.35,1.35,0,0,1-.51-.31,1.47,1.47,0,0,1-.34-.57,2.77,2.77,0,0,1-.12-.87v-3.36Z" style="fill:#4d4d4d"/><path d="M314.36,309.75a4.06,4.06,0,0,1,.19-1.31,2.59,2.59,0,0,1,.52-1,2.31,2.31,0,0,1,1.75-.78,2.77,2.77,0,0,1,.94.15,1.76,1.76,0,0,1,.7.45,1.83,1.83,0,0,1,.44.74,3.11,3.11,0,0,1,.15,1v.55c0,.06,0,.11,0,.17h-3.76a3,3,0,0,0,.14,1,1.7,1.7,0,0,0,.39.67,1.49,1.49,0,0,0,.6.39,2.28,2.28,0,0,0,.76.13,3.91,3.91,0,0,0,.49,0c.15,0,.3,0,.44-.06a3,3,0,0,0,.43-.12,4,4,0,0,0,.44-.17v.83l-.46.18-.44.11a3.31,3.31,0,0,1-.47.07,4.33,4.33,0,0,1-.53,0,3.33,3.33,0,0,1-1.12-.18,2.45,2.45,0,0,1-.85-.55,2.35,2.35,0,0,1-.54-.94A4.1,4.1,0,0,1,314.36,309.75Zm.95-.71h2.76a2.84,2.84,0,0,0-.08-.69,1.21,1.21,0,0,0-.26-.49,1,1,0,0,0-.41-.3,1.6,1.6,0,0,0-.56-.09,1.25,1.25,0,0,0-.51.1,1.5,1.5,0,0,0-.44.32,1.75,1.75,0,0,0-.33.49A2.66,2.66,0,0,0,315.31,309Z" style="fill:#4d4d4d"/><path d="M323.6,306.82l-.11.9-.18,0a.45.45,0,0,0-.16,0l-.15,0h-.18a.9.9,0,0,0-.28,0,1,1,0,0,0-.27.11,1.86,1.86,0,0,0-.28.18c-.09.08-.2.17-.31.28v4.44h-.91v-5.83l.9-.07v.68l.32-.33a2.58,2.58,0,0,1,.31-.22,1.69,1.69,0,0,1,.31-.13,1.55,1.55,0,0,1,.31,0h.34l.16,0Z" style="fill:#4d4d4d"/><path d="M329.48,304.29v8.38h-.89v-.38a1.77,1.77,0,0,1-.33.19,1.94,1.94,0,0,1-.36.15c-.13,0-.26.06-.4.09s-.27,0-.41,0a2.64,2.64,0,0,1-1-.19,2.13,2.13,0,0,1-.78-.55,2.46,2.46,0,0,1-.51-.9,3.55,3.55,0,0,1-.19-1.22,3.77,3.77,0,0,1,.22-1.34,2.68,2.68,0,0,1,.61-1,2.61,2.61,0,0,1,.94-.62,3.22,3.22,0,0,1,1.18-.21h.3l.26,0,.23.05.21.05v-2.5Zm-2,3.25a2.07,2.07,0,0,0-.8.15,1.76,1.76,0,0,0-.61.44,2.08,2.08,0,0,0-.39.72,3.12,3.12,0,0,0-.13.95,2.82,2.82,0,0,0,.13.91,1.85,1.85,0,0,0,.35.67,1.35,1.35,0,0,0,.55.39,1.75,1.75,0,0,0,.7.14,2,2,0,0,0,.36,0,3,3,0,0,0,.32-.06l.29-.12a2.28,2.28,0,0,0,.3-.17v-3.9l-.27,0-.26,0-.26,0Z" style="fill:#4d4d4d"/><path d="M335.63,308.62v4.05h-.86v-.4l-.41.22a3.25,3.25,0,0,1-.4.15,2,2,0,0,1-.43.08,3.73,3.73,0,0,1-.5,0,2.19,2.19,0,0,1-.75-.12,1.55,1.55,0,0,1-.58-.32,1.32,1.32,0,0,1-.36-.51,1.58,1.58,0,0,1,0-1.34,1.55,1.55,0,0,1,.5-.56,2.49,2.49,0,0,1,.82-.37,4.52,4.52,0,0,1,1.16-.13h.89v-.64a1.6,1.6,0,0,0-.08-.51,1,1,0,0,0-.25-.38,1.06,1.06,0,0,0-.42-.23,2.1,2.1,0,0,0-.59-.08,3,3,0,0,0-.42,0,3.07,3.07,0,0,0-.42.07l-.43.12a4.13,4.13,0,0,0-.45.17l-.19-.77L332,307a3,3,0,0,1,.49-.14,2.64,2.64,0,0,1,.49-.08,4.63,4.63,0,0,1,.54,0,2.73,2.73,0,0,1,.89.13,1.77,1.77,0,0,1,.66.37,1.54,1.54,0,0,1,.4.59A2.24,2.24,0,0,1,335.63,308.62Zm-3.47,2.46a1,1,0,0,0,.06.36.86.86,0,0,0,.2.27,1,1,0,0,0,.33.17,1.68,1.68,0,0,0,.47.06l.41,0a2.24,2.24,0,0,0,.39-.08l.37-.13a2.09,2.09,0,0,0,.36-.19v-1.37h-.92a3.55,3.55,0,0,0-.77.07,1.71,1.71,0,0,0-.52.2.79.79,0,0,0-.38.68Z" style="fill:#4d4d4d"/><path d="M344.85,312.67v-3.84a1.72,1.72,0,0,0-.07-.52,1,1,0,0,0-.25-.39,1,1,0,0,0-.4-.26,1.55,1.55,0,0,0-.55-.09l-.37,0a1.65,1.65,0,0,0-.32.06,1.92,1.92,0,0,0-.32.09l-.38.13v4.8h-.91v-3.86a1.8,1.8,0,0,0-.08-.54.85.85,0,0,0-.22-.38,1,1,0,0,0-.4-.24,1.91,1.91,0,0,0-.57-.08l-.4,0-.33.05-.31.09-.36.14v4.8h-.91v-5.83l.88-.07v.4l.4-.21a2.72,2.72,0,0,1,.37-.13,2.44,2.44,0,0,1,.39-.07,2.77,2.77,0,0,1,.42,0,4.07,4.07,0,0,1,.52,0,1.85,1.85,0,0,1,.45.11,2.28,2.28,0,0,1,.38.2,1.81,1.81,0,0,1,.3.25c.17-.11.34-.2.49-.28a4.52,4.52,0,0,1,.47-.18,3.41,3.41,0,0,1,.46-.1,3.77,3.77,0,0,1,.51,0,2.84,2.84,0,0,1,.87.13,1.65,1.65,0,0,1,.64.39,1.7,1.7,0,0,1,.38.62,2.54,2.54,0,0,1,.14.86v3.94Z" style="fill:#4d4d4d"/><path d="M319.21,319.37a2.1,2.1,0,1,1,2.1-2.1A2.1,2.1,0,0,1,319.21,319.37Zm0-3.7a1.6,1.6,0,1,0,1.6,1.6A1.6,1.6,0,0,0,319.21,315.67Z" style="fill:#8b8f9e"/><path d="M407,230v-.84h2.4v3.59l-.55.1-.54.06-.56.05h-.6a4.34,4.34,0,0,1-1.46-.25,3.41,3.41,0,0,1-1.18-.72,3.18,3.18,0,0,1-.79-1.21,4.51,4.51,0,0,1-.29-1.66,4.79,4.79,0,0,1,.35-1.89,3.5,3.5,0,0,1,.93-1.31,3.82,3.82,0,0,1,1.31-.75,4.82,4.82,0,0,1,1.51-.24H408l.42,0,.39,0,.42.07-.11.83-.51-.07-.32,0-.37,0h-.44a3.69,3.69,0,0,0-1.15.18,2.82,2.82,0,0,0-1,.59,2.71,2.71,0,0,0-.69,1,3.69,3.69,0,0,0-.25,1.43,3.82,3.82,0,0,0,.22,1.37,2.79,2.79,0,0,0,.62,1,2.65,2.65,0,0,0,.9.59,3.24,3.24,0,0,0,1.09.19h.6l.29,0,.31,0V230Z" style="fill:#4d4d4d"/><path d="M416.42,229.86a3.71,3.71,0,0,1-.22,1.29,2.87,2.87,0,0,1-.59,1,2.52,2.52,0,0,1-.88.62,2.66,2.66,0,0,1-1.05.21,3,3,0,0,1-1.06-.18,2.13,2.13,0,0,1-.81-.57,2.47,2.47,0,0,1-.52-.93,4.21,4.21,0,0,1-.18-1.28,3.62,3.62,0,0,1,.22-1.3,2.87,2.87,0,0,1,.59-1,2.55,2.55,0,0,1,1.92-.83,2.78,2.78,0,0,1,1.06.19,2.26,2.26,0,0,1,.82.56,2.78,2.78,0,0,1,.52.93A4.23,4.23,0,0,1,416.42,229.86Zm-.95,0a3.5,3.5,0,0,0-.12-1,1.71,1.71,0,0,0-.33-.69,1.37,1.37,0,0,0-.54-.42,1.86,1.86,0,0,0-.73-.14,1.54,1.54,0,0,0-.68.15,1.45,1.45,0,0,0-.54.45,2,2,0,0,0-.35.72,3.48,3.48,0,0,0-.12,1,4,4,0,0,0,.11,1,1.86,1.86,0,0,0,.34.69,1.37,1.37,0,0,0,.54.42,1.83,1.83,0,0,0,.73.14,1.58,1.58,0,0,0,.68-.16,1.45,1.45,0,0,0,.54-.45,2.2,2.2,0,0,0,.35-.72A3.4,3.4,0,0,0,415.47,229.9Z" style="fill:#4d4d4d"/><path d="M419,227v3.88a1.59,1.59,0,0,0,.09.55,1,1,0,0,0,.24.39.93.93,0,0,0,.41.24,1.55,1.55,0,0,0,.55.09l.38,0L421,232l.31-.1.37-.13V227l.91-.07v5.9h-.89v-.36a2.72,2.72,0,0,1-.37.2,2.32,2.32,0,0,1-.37.13,2.23,2.23,0,0,1-.39.09,2.9,2.9,0,0,1-.43,0,2.63,2.63,0,0,1-.88-.13,1.58,1.58,0,0,1-.64-.38,1.68,1.68,0,0,1-.39-.63,2.84,2.84,0,0,1-.13-.87V227Z" style="fill:#4d4d4d"/><path d="M429.28,224.48v8.38h-.89v-.38a1.77,1.77,0,0,1-.33.19,3.88,3.88,0,0,1-.36.15,2.59,2.59,0,0,1-.4.09,2.83,2.83,0,0,1-.41,0,2.64,2.64,0,0,1-1-.19,2.13,2.13,0,0,1-.78-.55,2.46,2.46,0,0,1-.51-.9,3.55,3.55,0,0,1-.19-1.22,4,4,0,0,1,.21-1.34,2.69,2.69,0,0,1,.62-1,2.58,2.58,0,0,1,.93-.62,3.27,3.27,0,0,1,1.19-.21h.3l.25,0,.24.05a.83.83,0,0,1,.21.06v-2.51Zm-2,3.25a2,2,0,0,0-.8.15,1.64,1.64,0,0,0-.61.44,2,2,0,0,0-.39.72,3.52,3.52,0,0,0,0,1.86,2,2,0,0,0,.36.67,1.39,1.39,0,0,0,.54.39,1.83,1.83,0,0,0,.71.14,2,2,0,0,0,.35,0,2.61,2.61,0,0,0,.32-.06,1.88,1.88,0,0,0,.3-.12l.3-.17v-3.9l-.27,0-.26,0-.27,0Z" style="fill:#4d4d4d"/><path d="M435.42,228.81v4.05h-.85v-.4l-.41.22a2.86,2.86,0,0,1-.41.15,1.84,1.84,0,0,1-.42.08,3.73,3.73,0,0,1-.5,0,2.29,2.29,0,0,1-.76-.12,1.59,1.59,0,0,1-.57-.32,1.46,1.46,0,0,1-.37-.51,1.66,1.66,0,0,1-.12-.64,1.5,1.5,0,0,1,.16-.7,1.76,1.76,0,0,1,.5-.56,2.54,2.54,0,0,1,.83-.37,4.47,4.47,0,0,1,1.16-.13h.89V229a1.36,1.36,0,0,0-.09-.51,1,1,0,0,0-.24-.38,1.06,1.06,0,0,0-.42-.23,2.18,2.18,0,0,0-.6-.08l-.41,0a3.07,3.07,0,0,0-.42.07,3.45,3.45,0,0,0-.43.12,4.13,4.13,0,0,0-.45.17l-.2-.77.53-.21a4.42,4.42,0,0,1,.48-.15,4.13,4.13,0,0,1,.49-.07,4.63,4.63,0,0,1,.54,0,3,3,0,0,1,.9.13,1.65,1.65,0,0,1,.65.37,1.44,1.44,0,0,1,.4.59A2,2,0,0,1,435.42,228.81ZM432,231.27a1,1,0,0,0,.07.35.8.8,0,0,0,.2.28,1,1,0,0,0,.33.17,1.63,1.63,0,0,0,.47.06l.41,0a2.7,2.7,0,0,0,.39-.08l.37-.13a2.09,2.09,0,0,0,.36-.19v-1.37h-.92a3.49,3.49,0,0,0-.77.07,1.9,1.9,0,0,0-.53.2,1,1,0,0,0-.29.31A.78.78,0,0,0,432,231.27Z" style="fill:#4d4d4d"/><path d="M419.64,239.56a2.1,2.1,0,1,1,2.1-2.1A2.11,2.11,0,0,1,419.64,239.56Zm0-3.7a1.6,1.6,0,1,0,1.6,1.6A1.6,1.6,0,0,0,419.64,235.86Z" style="fill:#8b8f9e"/><path d="M353.52,150.5l2.41,7.87h-1.05l-.63-2.12h-3.07l-.63,2.12h-1L352,150.5Zm.5,4.95-1.24-4.22h-.11l-1.26,4.22Z" style="fill:#4d4d4d"/><path d="M358.27,150v8.38h-.91v-8.31Z" style="fill:#4d4d4d"/><path d="M360.43,160.67v-8.13l.87-.07v.37l.37-.17a2.43,2.43,0,0,1,.38-.13,1.67,1.67,0,0,1,.4-.08,3.15,3.15,0,0,1,.44,0,2.59,2.59,0,0,1,1,.18,1.84,1.84,0,0,1,.76.53,2.4,2.4,0,0,1,.49.91,4.32,4.32,0,0,1,.17,1.26,3.88,3.88,0,0,1-.22,1.32,2.82,2.82,0,0,1-.64,1,2.87,2.87,0,0,1-1,.62,3.62,3.62,0,0,1-1.26.21h-.44l-.2,0-.21,0v2.31Zm1.89-3a2.38,2.38,0,0,0,.81-.14,1.85,1.85,0,0,0,.64-.43,1.91,1.91,0,0,0,.42-.71,2.91,2.91,0,0,0,.15-1,3.4,3.4,0,0,0-.12-1,1.72,1.72,0,0,0-.34-.66,1.36,1.36,0,0,0-.54-.38,2.11,2.11,0,0,0-.73-.12l-.32,0a1.8,1.8,0,0,0-.32.06l-.31.09a2.69,2.69,0,0,0-.32.13v4l.25,0,.24,0,.24,0Z" style="fill:#4d4d4d"/><path d="M370.71,158.37v-3.85a1.6,1.6,0,0,0-.08-.51.9.9,0,0,0-.26-.39,1.15,1.15,0,0,0-.41-.26,1.6,1.6,0,0,0-.56-.09l-.38,0-.33.06-.33.09-.36.13v4.8h-.91v-8.31L368,150v2.85l.39-.18a1.82,1.82,0,0,1,.37-.13,2.32,2.32,0,0,1,.38-.07,3,3,0,0,1,.43,0,2.66,2.66,0,0,1,.88.14,1.58,1.58,0,0,1,.64.38,1.62,1.62,0,0,1,.4.62,2.55,2.55,0,0,1,.13.86v3.94Z" style="fill:#4d4d4d"/><path d="M373.34,155.45a4.06,4.06,0,0,1,.19-1.31,2.46,2.46,0,0,1,.52-1,2.13,2.13,0,0,1,.79-.58,2.22,2.22,0,0,1,1-.2,2.79,2.79,0,0,1,.95.15,1.84,1.84,0,0,1,.7.45,2,2,0,0,1,.44.74,3.11,3.11,0,0,1,.15,1v.55a1,1,0,0,0,0,.17h-3.76a3.08,3.08,0,0,0,.14,1,1.73,1.73,0,0,0,.39.66,1.49,1.49,0,0,0,.6.39,2.28,2.28,0,0,0,.76.13,3.64,3.64,0,0,0,.48,0c.16,0,.3,0,.45-.06a3.45,3.45,0,0,0,.43-.12,2.26,2.26,0,0,0,.43-.17v.83l-.45.18-.44.11a3.54,3.54,0,0,1-.47.07,4.5,4.5,0,0,1-.54,0,3.23,3.23,0,0,1-1.11-.18,2.23,2.23,0,0,1-.85-.55,2.28,2.28,0,0,1-.54-.94A4.1,4.1,0,0,1,373.34,155.45Zm1-.71h2.76a2.4,2.4,0,0,0-.09-.69,1.2,1.2,0,0,0-.25-.49,1,1,0,0,0-.41-.3,1.64,1.64,0,0,0-.56-.09,1.27,1.27,0,0,0-.52.1,1.65,1.65,0,0,0-.44.32,1.54,1.54,0,0,0-.32.49A2.66,2.66,0,0,0,374.29,154.74Z" style="fill:#4d4d4d"/><path d="M383.37,158.37v-3.85a1.6,1.6,0,0,0-.08-.51.9.9,0,0,0-.26-.39,1.15,1.15,0,0,0-.41-.26,1.6,1.6,0,0,0-.56-.09l-.37,0-.34.06-.33.09-.36.13v4.8h-.91v-5.83l.87-.07v.4a3,3,0,0,1,.4-.2,2.84,2.84,0,0,1,.38-.13,1.59,1.59,0,0,1,.39-.08,2.94,2.94,0,0,1,.44,0,2.66,2.66,0,0,1,.88.14,1.58,1.58,0,0,1,.64.38,1.62,1.62,0,0,1,.4.62,2.55,2.55,0,0,1,.13.86v3.94Z" style="fill:#4d4d4d"/><path d="M393.05,154.32v4.05h-.85V158l-.41.22a3.25,3.25,0,0,1-.4.15,2,2,0,0,1-.43.08,3.73,3.73,0,0,1-.5,0,2.19,2.19,0,0,1-.75-.12,1.55,1.55,0,0,1-.58-.32,1.46,1.46,0,0,1-.37-.51,1.66,1.66,0,0,1-.12-.64,1.4,1.4,0,0,1,.17-.7,1.61,1.61,0,0,1,.49-.56,2.54,2.54,0,0,1,.83-.37,4.47,4.47,0,0,1,1.16-.13h.89v-.64a1.36,1.36,0,0,0-.09-.51.88.88,0,0,0-.24-.38,1.06,1.06,0,0,0-.42-.23,2.13,2.13,0,0,0-.6-.08l-.41,0a3.07,3.07,0,0,0-.42.07l-.43.12a4.13,4.13,0,0,0-.45.17l-.19-.77.52-.21a2.9,2.9,0,0,1,.48-.14,2.74,2.74,0,0,1,.5-.08,4.39,4.39,0,0,1,.54,0,3,3,0,0,1,.89.13,1.65,1.65,0,0,1,.65.37,1.57,1.57,0,0,1,.41.59A2.24,2.24,0,0,1,393.05,154.32Zm-3.46,2.46a1,1,0,0,0,.06.36.86.86,0,0,0,.2.27,1,1,0,0,0,.33.17,1.68,1.68,0,0,0,.47.06l.41,0a2.45,2.45,0,0,0,.39-.08,2.72,2.72,0,0,0,.37-.13,3,3,0,0,0,.36-.18v-1.38h-.92a3.49,3.49,0,0,0-.77.07,1.71,1.71,0,0,0-.52.2.79.79,0,0,0-.38.68Z" style="fill:#4d4d4d"/><path d="M399.11,154.32v4.05h-.85V158l-.41.22a3.25,3.25,0,0,1-.4.15,2,2,0,0,1-.43.08,3.73,3.73,0,0,1-.5,0,2.19,2.19,0,0,1-.75-.12,1.55,1.55,0,0,1-.58-.32,1.46,1.46,0,0,1-.37-.51,1.66,1.66,0,0,1-.12-.64,1.4,1.4,0,0,1,.17-.7,1.61,1.61,0,0,1,.49-.56,2.54,2.54,0,0,1,.83-.37,4.47,4.47,0,0,1,1.16-.13h.89v-.64a1.36,1.36,0,0,0-.09-.51.88.88,0,0,0-.24-.38,1.06,1.06,0,0,0-.42-.23,2.13,2.13,0,0,0-.6-.08l-.41,0a3.07,3.07,0,0,0-.42.07l-.43.12a4.13,4.13,0,0,0-.45.17l-.19-.77.52-.21a2.9,2.9,0,0,1,.48-.14,2.74,2.74,0,0,1,.5-.08,4.39,4.39,0,0,1,.54,0,3,3,0,0,1,.89.13,1.65,1.65,0,0,1,.65.37,1.57,1.57,0,0,1,.41.59A2.24,2.24,0,0,1,399.11,154.32Zm-3.46,2.46a1,1,0,0,0,.06.36.86.86,0,0,0,.2.27,1,1,0,0,0,.33.17,1.68,1.68,0,0,0,.47.06l.41,0a2.45,2.45,0,0,0,.39-.08,2.72,2.72,0,0,0,.37-.13,3,3,0,0,0,.36-.18v-1.38h-.92a3.49,3.49,0,0,0-.77.07,1.71,1.71,0,0,0-.52.2.79.79,0,0,0-.38.68Z" style="fill:#4d4d4d"/><path d="M404.81,158.37v-3.85a1.37,1.37,0,0,0-.08-.51,1,1,0,0,0-.25-.39,1.11,1.11,0,0,0-.42-.26,1.59,1.59,0,0,0-.55-.09l-.38,0-.33.06a2.14,2.14,0,0,0-.34.09l-.36.13v4.8h-.91v-5.83l.88-.07v.4a2.4,2.4,0,0,1,.39-.2,3.43,3.43,0,0,1,.38-.13,1.59,1.59,0,0,1,.39-.08,3,3,0,0,1,.44,0,2.66,2.66,0,0,1,.88.14,1.62,1.62,0,0,1,.65.38,1.6,1.6,0,0,1,.39.62,2.54,2.54,0,0,1,.14.86v3.94Z" style="fill:#4d4d4d"/><path d="M415,150v8.38h-.88V158a2.79,2.79,0,0,1-.33.19,2.39,2.39,0,0,1-.37.15,2.59,2.59,0,0,1-.4.09,2.69,2.69,0,0,1-.4,0,2.64,2.64,0,0,1-1-.19,2.13,2.13,0,0,1-.78-.55,2.48,2.48,0,0,1-.52-.9,3.81,3.81,0,0,1-.19-1.22,4,4,0,0,1,.22-1.34,2.68,2.68,0,0,1,.61-1,2.7,2.7,0,0,1,.94-.62,3.23,3.23,0,0,1,1.19-.21h.29l.26,0,.23,0a.65.65,0,0,1,.21.06v-2.51Zm-2,3.25a2,2,0,0,0-.79.15,1.8,1.8,0,0,0-.62.44,2.08,2.08,0,0,0-.39.72,3.46,3.46,0,0,0-.13.95,2.92,2.92,0,0,0,.13.92,1.89,1.89,0,0,0,.35.66,1.32,1.32,0,0,0,.55.39,1.75,1.75,0,0,0,.7.14,2,2,0,0,0,.36,0,3,3,0,0,0,.32-.06,1.48,1.48,0,0,0,.29-.12,1.52,1.52,0,0,0,.3-.17v-3.9l-.27,0-.26,0-.26,0Z" style="fill:#4d4d4d"/><path d="M416.81,155.45a4.35,4.35,0,0,1,.19-1.31,2.59,2.59,0,0,1,.52-1,2.31,2.31,0,0,1,1.75-.78,2.73,2.73,0,0,1,.94.15,1.87,1.87,0,0,1,.71.45,2.08,2.08,0,0,1,.44.74,3.41,3.41,0,0,1,.15,1v.37c0,.06,0,.12,0,.18s0,.11,0,.17h-3.75a3.1,3.1,0,0,0,.13,1,2,2,0,0,0,.39.66,1.49,1.49,0,0,0,.6.39,2.3,2.3,0,0,0,.77.13l.48,0c.15,0,.3,0,.44-.06a3.6,3.6,0,0,0,.44-.12,2.94,2.94,0,0,0,.43-.17v.83l-.46.18-.44.11a3.31,3.31,0,0,1-.47.07,4.33,4.33,0,0,1-.53,0,3.23,3.23,0,0,1-1.11-.18,2.21,2.21,0,0,1-1.4-1.49A4.39,4.39,0,0,1,416.81,155.45Zm.95-.71h2.76a2.84,2.84,0,0,0-.08-.69,1.33,1.33,0,0,0-.25-.49,1,1,0,0,0-.42-.3,1.6,1.6,0,0,0-.56-.09,1.25,1.25,0,0,0-.51.1,1.5,1.5,0,0,0-.44.32,1.54,1.54,0,0,0-.32.49A2.29,2.29,0,0,0,417.76,154.74Z" style="fill:#4d4d4d"/><path d="M426.85,158.37v-3.85a1.36,1.36,0,0,0-.09-.51.88.88,0,0,0-.25-.39,1.15,1.15,0,0,0-.41-.26,1.64,1.64,0,0,0-.56-.09l-.37,0a1.86,1.86,0,0,0-.34.06l-.34.09-.36.13v4.8h-.91v-5.83l.88-.07v.4a2.89,2.89,0,0,1,.39-.2,3.43,3.43,0,0,1,.38-.13,1.8,1.8,0,0,1,.39-.08,3.19,3.19,0,0,1,.45,0,2.6,2.6,0,0,1,.87.14,1.6,1.6,0,0,1,1.05,1,2.83,2.83,0,0,1,.13.86v3.94Z" style="fill:#4d4d4d"/><path d="M433.71,155.09v3.28h-.95V150.5h2.07a4.06,4.06,0,0,1,1.15.15,2.43,2.43,0,0,1,.85.43,1.66,1.66,0,0,1,.52.66,2.11,2.11,0,0,1,.18.89,2.68,2.68,0,0,1-.11.76,2,2,0,0,1-.29.65,2.23,2.23,0,0,1-.48.49,2.6,2.6,0,0,1-.64.34l2.09,3.5H437l-1.92-3.28Zm0-3.78v3h1.1a2.63,2.63,0,0,0,.72-.09,1.39,1.39,0,0,0,.54-.28,1.2,1.2,0,0,0,.35-.48,1.74,1.74,0,0,0,.12-.67,1.54,1.54,0,0,0-.11-.63,1.06,1.06,0,0,0-.33-.45,1.58,1.58,0,0,0-.55-.28,3,3,0,0,0-.78-.09Z" style="fill:#4d4d4d"/><path d="M439.43,150.59a.7.7,0,0,1,.05-.25.35.35,0,0,1,.12-.19.78.78,0,0,1,.18-.11.74.74,0,0,1,.48,0,.78.78,0,0,1,.18.11.57.57,0,0,1,.12.18.8.8,0,0,1,0,.5.57.57,0,0,1-.12.18.78.78,0,0,1-.18.11.74.74,0,0,1-.48,0,.78.78,0,0,1-.18-.11.36.36,0,0,1-.12-.18A.69.69,0,0,1,439.43,150.59Zm1.05,1.88v5.9h-.91v-5.83Z" style="fill:#4d4d4d"/><path d="M443.55,152.47v6.24a2.2,2.2,0,0,1-.13.8,1.58,1.58,0,0,1-.36.6,1.78,1.78,0,0,1-.54.39,2.88,2.88,0,0,1-.7.23l-.12-.77a1.74,1.74,0,0,0,.41-.18,1.08,1.08,0,0,0,.3-.26.73.73,0,0,0,.17-.34,1.56,1.56,0,0,0,.06-.46v-6.18Zm-1-1.88a.69.69,0,0,1,0-.25.35.35,0,0,1,.12-.19.78.78,0,0,1,.18-.11.64.64,0,0,1,.24,0,.61.61,0,0,1,.24,0,.61.61,0,0,1,.18.11.57.57,0,0,1,.12.18.8.8,0,0,1,0,.5.57.57,0,0,1-.12.18.61.61,0,0,1-.18.11.61.61,0,0,1-.24,0,.64.64,0,0,1-.24,0,.78.78,0,0,1-.18-.11.36.36,0,0,1-.12-.18A.67.67,0,0,1,442.51,150.59Z" style="fill:#4d4d4d"/><path d="M449.33,158.37v-3.85a1.6,1.6,0,0,0-.08-.51,1,1,0,0,0-.25-.39,1.19,1.19,0,0,0-.42-.26,1.59,1.59,0,0,0-.55-.09l-.38,0-.33.06a1.89,1.89,0,0,0-.34.09l-.36.13v4.8h-.91v-5.83l.87-.07v.4a3,3,0,0,1,.4-.2,3.43,3.43,0,0,1,.38-.13,1.59,1.59,0,0,1,.39-.08,2.94,2.94,0,0,1,.44,0,2.66,2.66,0,0,1,.88.14,1.69,1.69,0,0,1,.65.38,1.6,1.6,0,0,1,.39.62,2.55,2.55,0,0,1,.13.86v3.94Z" style="fill:#4d4d4d"/><path d="M400.35,165.07a2.1,2.1,0,1,1,2.1-2.1A2.1,2.1,0,0,1,400.35,165.07Zm0-3.7A1.6,1.6,0,1,0,402,163,1.6,1.6,0,0,0,400.35,161.37Z" style="fill:#8b8f9e"/><path d="M316,135.76v-7.87h.95v7h3v.84Z" style="fill:#4d4d4d"/><path d="M321.05,132.83a4.15,4.15,0,0,1,.19-1.31,2.63,2.63,0,0,1,.52-1,2.25,2.25,0,0,1,.79-.59,2.39,2.39,0,0,1,1-.2,2.76,2.76,0,0,1,.94.16,1.76,1.76,0,0,1,.7.45,1.86,1.86,0,0,1,.44.73,3.17,3.17,0,0,1,.15,1v.54c0,.06,0,.12,0,.18H322a3,3,0,0,0,.14.95,2,2,0,0,0,.39.67,1.6,1.6,0,0,0,.6.39,2.3,2.3,0,0,0,.77.12,3.85,3.85,0,0,0,.48,0l.44-.07a2.36,2.36,0,0,0,.44-.11c.14,0,.28-.1.43-.17v.83a3.25,3.25,0,0,1-.46.17,3.17,3.17,0,0,1-.44.12l-.47.07a4.44,4.44,0,0,1-.53,0,3.33,3.33,0,0,1-1.12-.18,2.29,2.29,0,0,1-.85-.54,2.35,2.35,0,0,1-.54-.94A4.13,4.13,0,0,1,321.05,132.83Zm.95-.7h2.76a2.84,2.84,0,0,0-.08-.69,1.32,1.32,0,0,0-.26-.5,1,1,0,0,0-.41-.29,1.6,1.6,0,0,0-.56-.1,1.26,1.26,0,0,0-.51.11,1.47,1.47,0,0,0-.44.31,1.81,1.81,0,0,0-.33.5A2.66,2.66,0,0,0,322,132.13Z" style="fill:#4d4d4d"/><path d="M327.33,128a.64.64,0,0,1,0-.24.52.52,0,0,1,.12-.19.5.5,0,0,1,.19-.11.61.61,0,0,1,.24,0,.67.67,0,0,1,.24,0,.54.54,0,0,1,.18.11.78.78,0,0,1,.11.18.66.66,0,0,1,0,.25.61.61,0,0,1,0,.24.61.61,0,0,1-.11.18.57.57,0,0,1-.18.12.67.67,0,0,1-.24,0,.61.61,0,0,1-.24,0,.52.52,0,0,1-.19-.12.47.47,0,0,1-.12-.18A.61.61,0,0,1,327.33,128Zm1,1.89v5.9h-.91v-5.83Z" style="fill:#4d4d4d"/><path d="M335,127.37v8.39h-.89v-.38a2.59,2.59,0,0,1-.33.19,1.92,1.92,0,0,1-.36.14,2.59,2.59,0,0,1-.4.09,2.73,2.73,0,0,1-.41,0,2.64,2.64,0,0,1-1-.18,2.26,2.26,0,0,1-.78-.55,2.46,2.46,0,0,1-.51-.9,3.59,3.59,0,0,1-.19-1.22,3.73,3.73,0,0,1,.22-1.34,2.58,2.58,0,0,1,1.55-1.61,3.22,3.22,0,0,1,1.18-.21h.3l.26,0,.23,0,.21.06v-2.51Zm-2,3.26a2.28,2.28,0,0,0-.8.14,1.67,1.67,0,0,0-.61.45,1.91,1.91,0,0,0-.39.72,3.12,3.12,0,0,0-.13.95,2.86,2.86,0,0,0,.13.91,1.85,1.85,0,0,0,.35.67,1.45,1.45,0,0,0,.55.39,1.75,1.75,0,0,0,.7.13,2.06,2.06,0,0,0,.36,0l.32-.07a1.15,1.15,0,0,0,.29-.11,2.28,2.28,0,0,0,.3-.17v-3.9l-.27,0-.26,0-.26,0Z" style="fill:#4d4d4d"/><path d="M336.83,132.83a4.15,4.15,0,0,1,.19-1.31,2.63,2.63,0,0,1,.52-1,2.25,2.25,0,0,1,.79-.59,2.39,2.39,0,0,1,1-.2,2.76,2.76,0,0,1,.94.16,1.76,1.76,0,0,1,.7.45,1.86,1.86,0,0,1,.44.73,3.17,3.17,0,0,1,.15,1v.54c0,.06,0,.12,0,.18h-3.76a3,3,0,0,0,.14.95,1.82,1.82,0,0,0,.39.67,1.6,1.6,0,0,0,.6.39,2.29,2.29,0,0,0,.76.12,3.93,3.93,0,0,0,.49,0l.44-.07a2.09,2.09,0,0,0,.43-.11,4,4,0,0,0,.44-.17v.83a3.78,3.78,0,0,1-.46.17,3.17,3.17,0,0,1-.44.12l-.47.07a4.44,4.44,0,0,1-.53,0,3.33,3.33,0,0,1-1.12-.18,2.29,2.29,0,0,1-.85-.54,2.35,2.35,0,0,1-.54-.94A4.13,4.13,0,0,1,336.83,132.83Zm.95-.7h2.76a2.84,2.84,0,0,0-.08-.69,1.32,1.32,0,0,0-.26-.5,1,1,0,0,0-.41-.29,1.6,1.6,0,0,0-.56-.1,1.26,1.26,0,0,0-.51.11,1.47,1.47,0,0,0-.44.31,1.81,1.81,0,0,0-.33.5A2.66,2.66,0,0,0,337.78,132.13Z" style="fill:#4d4d4d"/><path d="M346.86,135.76v-3.85a1.46,1.46,0,0,0-.08-.52,1.14,1.14,0,0,0-.25-.39,1.23,1.23,0,0,0-.42-.25,1.59,1.59,0,0,0-.55-.09l-.38,0-.33,0-.34.09-.36.14v4.8h-.91v-5.83l.88-.07v.39a2.33,2.33,0,0,1,.39-.19,3.57,3.57,0,0,1,.38-.14,2.26,2.26,0,0,1,.39-.07,3,3,0,0,1,.44,0,2.67,2.67,0,0,1,.88.13,1.76,1.76,0,0,1,.65.39,1.53,1.53,0,0,1,.39.62,2.48,2.48,0,0,1,.14.85v3.95Z" style="fill:#4d4d4d"/><path d="M331.85,142.45a2.1,2.1,0,1,1,2.1-2.09A2.1,2.1,0,0,1,331.85,142.45Zm0-3.69a1.6,1.6,0,1,0,1.6,1.6A1.6,1.6,0,0,0,331.85,138.76Z" style="fill:#8b8f9e"/><path d="M289.07,82.55,286,75.67h0v6.88H285V74.68h1.45l3.11,6.89h.06V74.68h.88v7.87Z" style="fill:#4d4d4d"/><path d="M297.86,79.55a3.81,3.81,0,0,1-.22,1.3,2.92,2.92,0,0,1-.59,1,2.52,2.52,0,0,1-.88.62,2.66,2.66,0,0,1-1.05.21,3,3,0,0,1-1.06-.18,2.13,2.13,0,0,1-.81-.57,2.47,2.47,0,0,1-.52-.93,4.17,4.17,0,0,1-.18-1.28,3.62,3.62,0,0,1,.22-1.3,2.87,2.87,0,0,1,.59-1,2.82,2.82,0,0,1,.87-.62,2.66,2.66,0,0,1,1-.21,2.78,2.78,0,0,1,1.06.19,2.26,2.26,0,0,1,.82.56,2.58,2.58,0,0,1,.52.94A4.17,4.17,0,0,1,297.86,79.55Zm-.95,0a3.5,3.5,0,0,0-.12-1,1.71,1.71,0,0,0-.33-.69,1.37,1.37,0,0,0-.54-.42,1.86,1.86,0,0,0-.73-.14,1.54,1.54,0,0,0-.68.15A1.45,1.45,0,0,0,294,78a2.2,2.2,0,0,0-.35.72,3.48,3.48,0,0,0-.12,1,4,4,0,0,0,.11,1,1.86,1.86,0,0,0,.34.69,1.37,1.37,0,0,0,.54.42,1.83,1.83,0,0,0,.73.14,1.52,1.52,0,0,0,1.22-.61,2.2,2.2,0,0,0,.35-.72A3.4,3.4,0,0,0,296.91,79.59Z" style="fill:#4d4d4d"/><path d="M304.6,79.55a3.58,3.58,0,0,1-.22,1.3,2.92,2.92,0,0,1-.59,1,2.35,2.35,0,0,1-.88.62,2.66,2.66,0,0,1-1.05.21,3,3,0,0,1-1.06-.18,2.3,2.3,0,0,1-.81-.57,2.6,2.6,0,0,1-.51-.93,4.17,4.17,0,0,1-.18-1.28,3.85,3.85,0,0,1,.21-1.3,2.89,2.89,0,0,1,.6-1,2.82,2.82,0,0,1,.87-.62,2.58,2.58,0,0,1,1-.21,2.83,2.83,0,0,1,1.07.19,2.22,2.22,0,0,1,.81.56,2.44,2.44,0,0,1,.52.94A4.17,4.17,0,0,1,304.6,79.55Zm-1,0a4,4,0,0,0-.11-1,1.86,1.86,0,0,0-.34-.69,1.37,1.37,0,0,0-.54-.42,1.81,1.81,0,0,0-.72-.14,1.58,1.58,0,0,0-.69.15,1.45,1.45,0,0,0-.54.45,2.2,2.2,0,0,0-.35.72,3.86,3.86,0,0,0,0,1.91,1.85,1.85,0,0,0,.33.69,1.37,1.37,0,0,0,.54.42,1.9,1.9,0,0,0,.73.14,1.39,1.39,0,0,0,.68-.16,1.45,1.45,0,0,0,.54-.45,2,2,0,0,0,.35-.72A3.4,3.4,0,0,0,303.65,79.59Z" style="fill:#4d4d4d"/><path d="M309.23,76.7l-.11.9-.18,0a.45.45,0,0,0-.16,0l-.15,0h-.18a1.35,1.35,0,0,0-.28,0,1,1,0,0,0-.27.11,1.86,1.86,0,0,0-.28.18c-.09.08-.2.17-.31.28v4.44h-.91V76.72l.9-.07v.68l.32-.33a2.58,2.58,0,0,1,.31-.22,1.66,1.66,0,0,1,.31-.12,1.06,1.06,0,0,1,.31,0h.34l.16,0Z" style="fill:#4d4d4d"/><path d="M315.11,74.17v8.38h-.89v-.38a1.77,1.77,0,0,1-.33.19,1.94,1.94,0,0,1-.36.15,2.59,2.59,0,0,1-.4.09,2.73,2.73,0,0,1-.41,0,2.46,2.46,0,0,1-1-.19,2.23,2.23,0,0,1-.78-.54,2.51,2.51,0,0,1-.51-.91,3.55,3.55,0,0,1-.19-1.22,3.77,3.77,0,0,1,.22-1.34,2.68,2.68,0,0,1,.61-1,2.61,2.61,0,0,1,.94-.62,3.44,3.44,0,0,1,1.18-.21h.3a1.09,1.09,0,0,1,.26,0l.23,0a.65.65,0,0,1,.21.06V74.24Zm-2,3.25a2.07,2.07,0,0,0-.8.15,1.76,1.76,0,0,0-.61.44,2.08,2.08,0,0,0-.39.72,3.12,3.12,0,0,0-.13,1,2.92,2.92,0,0,0,.13.92,1.89,1.89,0,0,0,.35.66,1.26,1.26,0,0,0,.55.39,1.75,1.75,0,0,0,.7.14,2,2,0,0,0,.36,0,1.65,1.65,0,0,0,.32-.06,1.78,1.78,0,0,0,.29-.12,2.19,2.19,0,0,0,.3-.16V77.51l-.27,0-.26,0h-.54Z" style="fill:#4d4d4d"/><path d="M324.71,76.69l-1.85,5.86H321.7L320.62,79h-.06l-1,3.55h-1.17l-1.86-5.86h1.05l1.43,5H319l1.16-3.85-.38-1.17h1l1.49,5h.06l1.41-5Z" style="fill:#4d4d4d"/><path d="M326,74.77a.69.69,0,0,1,0-.25.52.52,0,0,1,.12-.19.78.78,0,0,1,.18-.11.64.64,0,0,1,.24,0,.61.61,0,0,1,.24,0,.5.5,0,0,1,.18.11.52.52,0,0,1,.12.19.62.62,0,0,1,0,.25.61.61,0,0,1,0,.24.57.57,0,0,1-.12.18.5.5,0,0,1-.18.11.61.61,0,0,1-.24,0,.64.64,0,0,1-.24,0,.78.78,0,0,1-.18-.11A.57.57,0,0,1,326,75,.61.61,0,0,1,326,74.77Zm1,1.88v5.9h-.91V76.72Z" style="fill:#4d4d4d"/><path d="M330.11,76.65v6.24a2.45,2.45,0,0,1-.12.8,1.88,1.88,0,0,1-.36.6,2.22,2.22,0,0,1-.55.4,3.38,3.38,0,0,1-.7.22l-.12-.77a2,2,0,0,0,.42-.18,1.41,1.41,0,0,0,.29-.25,1,1,0,0,0,.18-.35,2,2,0,0,0,.05-.46V76.72Zm-1-1.88a.69.69,0,0,1,0-.25.52.52,0,0,1,.12-.19.68.68,0,0,1,.19-.11.61.61,0,0,1,.24,0,.67.67,0,0,1,.24,0,.78.78,0,0,1,.18.11.68.68,0,0,1,.11.19.62.62,0,0,1,0,.25.61.61,0,0,1,0,.24.45.45,0,0,1-.29.29.67.67,0,0,1-.24,0,.61.61,0,0,1-.24,0,.68.68,0,0,1-.19-.11.57.57,0,0,1-.12-.18A.61.61,0,0,1,329.07,74.77Z" style="fill:#4d4d4d"/><path d="M333.18,79.75v2.8h-.91V74.24l.91-.07v4.77h.53l2-2.25h1.12l-2.28,2.52L337,82.55h-1.14l-2.06-2.8Z" style="fill:#4d4d4d"/><path d="M310.57,89.25a2.1,2.1,0,1,1,2.1-2.1A2.1,2.1,0,0,1,310.57,89.25Zm0-3.7a1.6,1.6,0,1,0,1.6,1.6A1.6,1.6,0,0,0,310.57,85.55Z" style="fill:#8b8f9e"/><path d="M237.48,357.58v-.89l.51.1.46.07.45,0,.46,0a2.65,2.65,0,0,0,.77-.11,1.7,1.7,0,0,0,.59-.28,1.2,1.2,0,0,0,.38-.43,1.32,1.32,0,0,0,.12-.57,1.42,1.42,0,0,0-.06-.44,1,1,0,0,0-.22-.35,1.68,1.68,0,0,0-.38-.3,5.34,5.34,0,0,0-.57-.25l-1-.33a2.62,2.62,0,0,1-.58-.29,2,2,0,0,1-.46-.4,1.62,1.62,0,0,1-.29-.53,1.91,1.91,0,0,1-.11-.64,2.13,2.13,0,0,1,.2-.91,2,2,0,0,1,.55-.72,2.82,2.82,0,0,1,.86-.46,3.62,3.62,0,0,1,1.13-.17h.44l.4,0,.38.05.36.06-.09.86-.39-.07-.36-.05-.39,0h-.41a2.34,2.34,0,0,0-.73.1,1.65,1.65,0,0,0-.55.26,1,1,0,0,0-.33.39,1.06,1.06,0,0,0-.12.5,1.33,1.33,0,0,0,.06.42.94.94,0,0,0,.19.32,1.46,1.46,0,0,0,.33.26,2.49,2.49,0,0,0,.49.21l1,.33a3.5,3.5,0,0,1,.7.32,2.07,2.07,0,0,1,.49.43,1.84,1.84,0,0,1,.28.56,2.09,2.09,0,0,1,.1.69,2.4,2.4,0,0,1-.2,1,2.09,2.09,0,0,1-.59.76,2.56,2.56,0,0,1-.91.49,4,4,0,0,1-1.18.17l-.48,0a3.4,3.4,0,0,1-.45,0l-.44,0Z" style="fill:#4d4d4d"/><path d="M244,360v-8.13l.88-.07v.37l.36-.17a2.84,2.84,0,0,1,.38-.13,1.77,1.77,0,0,1,.4-.08,3.15,3.15,0,0,1,.44,0,2.64,2.64,0,0,1,1,.18,1.91,1.91,0,0,1,.76.53,2.39,2.39,0,0,1,.48.91,4,4,0,0,1,.17,1.26,3.66,3.66,0,0,1-.22,1.32,2.72,2.72,0,0,1-1.62,1.61,3.6,3.6,0,0,1-1.25.21h-.44a1.52,1.52,0,0,1-.21,0l-.21,0V360Zm1.9-3a2.32,2.32,0,0,0,.8-.14,1.76,1.76,0,0,0,.64-.43,1.91,1.91,0,0,0,.42-.71,2.91,2.91,0,0,0,.15-1,3.4,3.4,0,0,0-.12-1,1.72,1.72,0,0,0-.34-.66,1.36,1.36,0,0,0-.54-.38,2,2,0,0,0-.72-.12l-.33,0a1.7,1.7,0,0,0-.31.06,1.81,1.81,0,0,0-.31.09,2.81,2.81,0,0,0-.33.13v4l.26,0,.24,0,.24,0Z" style="fill:#4d4d4d"/><path d="M250.57,349.89a.69.69,0,0,1,0-.25.52.52,0,0,1,.12-.19.86.86,0,0,1,.19-.11.74.74,0,0,1,.48,0,.78.78,0,0,1,.18.11.54.54,0,0,1,.11.18.71.71,0,0,1,0,.26.67.67,0,0,1,0,.24.54.54,0,0,1-.11.18.78.78,0,0,1-.18.11.74.74,0,0,1-.48,0,.86.86,0,0,1-.19-.11.57.57,0,0,1-.12-.18A.67.67,0,0,1,250.57,349.89Zm1,1.88v5.9h-.91v-5.83Z" style="fill:#4d4d4d"/><path d="M254.69,351.77V358a2.44,2.44,0,0,1-.13.8,1.58,1.58,0,0,1-.36.6,2,2,0,0,1-.55.39,2.43,2.43,0,0,1-.69.22l-.12-.76a1.74,1.74,0,0,0,.41-.18,1.08,1.08,0,0,0,.3-.26.91.91,0,0,0,.17-.34,1.58,1.58,0,0,0,.05-.46v-6.18Zm-1.05-1.88a1,1,0,0,1,0-.25.52.52,0,0,1,.12-.19,1.18,1.18,0,0,1,.19-.11.74.74,0,0,1,.48,0,.78.78,0,0,1,.18.11.42.42,0,0,1,.11.18.71.71,0,0,1,.05.26.69.69,0,0,1-.05.24.42.42,0,0,1-.11.18.78.78,0,0,1-.18.11.74.74,0,0,1-.48,0,1.18,1.18,0,0,1-.19-.11.57.57,0,0,1-.12-.18A1,1,0,0,1,253.64,349.89Z" style="fill:#4d4d4d"/><path d="M257.76,354.86v2.81h-.91v-8.31l.91-.07v4.77h.53l2-2.25h1.12l-2.28,2.52,2.48,3.34h-1.14l-2.06-2.81Z" style="fill:#4d4d4d"/><path d="M262.23,354.75a4.35,4.35,0,0,1,.19-1.31,2.59,2.59,0,0,1,.52-1,2.31,2.31,0,0,1,1.75-.78,2.73,2.73,0,0,1,.94.15,1.87,1.87,0,0,1,.71.45,2,2,0,0,1,.44.74,3.11,3.11,0,0,1,.15,1v.37c0,.06,0,.12,0,.18a1,1,0,0,1,0,.17h-3.75a3,3,0,0,0,.13,1,1.84,1.84,0,0,0,.4.67,1.39,1.39,0,0,0,.59.39,2.3,2.3,0,0,0,.77.13l.48,0c.15,0,.3,0,.44-.06a3.6,3.6,0,0,0,.44-.12,3.83,3.83,0,0,0,.43-.17v.83l-.46.18-.44.11a3.31,3.31,0,0,1-.47.07,4.33,4.33,0,0,1-.53,0,3.23,3.23,0,0,1-1.11-.18A2.4,2.4,0,0,1,263,357a2.47,2.47,0,0,1-.54-.94A4.39,4.39,0,0,1,262.23,354.75Zm.95-.71h2.76a2.84,2.84,0,0,0-.08-.69,1.33,1.33,0,0,0-.25-.49,1,1,0,0,0-.42-.3,1.6,1.6,0,0,0-.56-.09,1.25,1.25,0,0,0-.51.1,1.5,1.5,0,0,0-.44.32,1.54,1.54,0,0,0-.32.49A2.29,2.29,0,0,0,263.18,354Z" style="fill:#4d4d4d"/><path d="M272.27,357.67v-3.85a1.36,1.36,0,0,0-.09-.51.88.88,0,0,0-.25-.39,1.15,1.15,0,0,0-.41-.26,1.64,1.64,0,0,0-.56-.09l-.37,0a1.86,1.86,0,0,0-.34.06l-.34.09-.36.13v4.8h-.91v-5.83l.88-.07v.4a2.89,2.89,0,0,1,.39-.2,3.43,3.43,0,0,1,.38-.13,1.8,1.8,0,0,1,.39-.08,3.19,3.19,0,0,1,.45,0,2.89,2.89,0,0,1,.87.13,1.76,1.76,0,0,1,.65.39,1.62,1.62,0,0,1,.4.62,2.83,2.83,0,0,1,.13.86v3.94Z" style="fill:#4d4d4d"/><path d="M275.12,349.89a1,1,0,0,1,0-.25.52.52,0,0,1,.12-.19,1.18,1.18,0,0,1,.19-.11.74.74,0,0,1,.48,0,.78.78,0,0,1,.18.11.42.42,0,0,1,.11.18.71.71,0,0,1,.05.26.69.69,0,0,1-.05.24.42.42,0,0,1-.11.18.78.78,0,0,1-.18.11.74.74,0,0,1-.48,0,1.18,1.18,0,0,1-.19-.11.57.57,0,0,1-.12-.18A1,1,0,0,1,275.12,349.89Zm1.05,1.88v5.9h-.92v-5.83Z" style="fill:#4d4d4d"/><path d="M277.86,357.55v-.83a2.75,2.75,0,0,0,.41.11,2.7,2.7,0,0,0,.41.06l.43,0h.44a1.84,1.84,0,0,0,.55-.07,1.19,1.19,0,0,0,.41-.18.71.71,0,0,0,.25-.27.74.74,0,0,0,.09-.36.78.78,0,0,0-.06-.31.66.66,0,0,0-.17-.25,1.28,1.28,0,0,0-.31-.2,2.56,2.56,0,0,0-.45-.16l-.68-.2a2.65,2.65,0,0,1-.54-.22,1.79,1.79,0,0,1-.39-.33A1.44,1.44,0,0,1,278,354a1.78,1.78,0,0,1-.08-.53,1.5,1.5,0,0,1,.15-.67,1.62,1.62,0,0,1,.43-.55,1.84,1.84,0,0,1,.68-.36,2.65,2.65,0,0,1,.87-.13h.39l.36,0,.34.05.32.05-.1.8-.34-.06-.32,0-.33,0H280a2,2,0,0,0-.51.06,1,1,0,0,0-.38.17.74.74,0,0,0-.24.26.68.68,0,0,0-.07.32.85.85,0,0,0,0,.29.91.91,0,0,0,.15.23,1.3,1.3,0,0,0,.26.17,1.59,1.59,0,0,0,.37.14l.68.18a3.35,3.35,0,0,1,.62.24,1.74,1.74,0,0,1,.44.33,1.26,1.26,0,0,1,.27.42,1.7,1.7,0,0,1,.08.51,1.76,1.76,0,0,1-.16.76,1.89,1.89,0,0,1-.45.6,2.13,2.13,0,0,1-.71.39,2.93,2.93,0,0,1-.9.14l-.47,0c-.14,0-.28,0-.41,0l-.39-.06Z" style="fill:#4d4d4d"/><path d="M283,357.55v-.83a3,3,0,0,0,.4.11,3,3,0,0,0,.42.06l.42,0h.45a1.84,1.84,0,0,0,.55-.07,1.19,1.19,0,0,0,.41-.18.8.8,0,0,0,.25-.27.86.86,0,0,0,.08-.36.78.78,0,0,0-.05-.31.79.79,0,0,0-.17-.25,1.51,1.51,0,0,0-.31-.2,2.56,2.56,0,0,0-.45-.16l-.68-.2a2.65,2.65,0,0,1-.54-.22,1.79,1.79,0,0,1-.39-.33,1.44,1.44,0,0,1-.24-.42,1.78,1.78,0,0,1-.08-.53,1.5,1.5,0,0,1,.15-.67,1.62,1.62,0,0,1,.43-.55,1.8,1.8,0,0,1,.67-.36,2.75,2.75,0,0,1,.88-.13h.38l.36,0,.35.05.32.05-.1.8-.34-.06-.32,0-.33,0h-.37a2,2,0,0,0-.51.06,1.15,1.15,0,0,0-.39.17.71.71,0,0,0-.23.26.69.69,0,0,0-.08.32.84.84,0,0,0,.05.29.57.57,0,0,0,.15.23,1.06,1.06,0,0,0,.26.17,1.43,1.43,0,0,0,.37.14l.68.18a3.35,3.35,0,0,1,.62.24,1.94,1.94,0,0,1,.44.33,1.26,1.26,0,0,1,.27.42,1.7,1.7,0,0,1,.08.51,1.76,1.76,0,0,1-.16.76,1.79,1.79,0,0,1-.46.6,2,2,0,0,1-.7.39,2.94,2.94,0,0,1-.91.14l-.46,0c-.15,0-.28,0-.42,0l-.38-.06C283.2,357.61,283.07,357.59,283,357.55Z" style="fill:#4d4d4d"/><path d="M288.14,354.75a4.06,4.06,0,0,1,.19-1.31,2.59,2.59,0,0,1,.52-1,2.31,2.31,0,0,1,1.75-.78,2.77,2.77,0,0,1,.94.15,1.76,1.76,0,0,1,.7.45,1.83,1.83,0,0,1,.44.74,3.11,3.11,0,0,1,.15,1v.55c0,.06,0,.11,0,.17h-3.76a3,3,0,0,0,.14,1,1.7,1.7,0,0,0,.39.67,1.49,1.49,0,0,0,.6.39,2.28,2.28,0,0,0,.76.13,3.91,3.91,0,0,0,.49,0c.15,0,.3,0,.44-.06a3,3,0,0,0,.43-.12,4,4,0,0,0,.44-.17v.83l-.46.18-.44.11a3.31,3.31,0,0,1-.47.07,4.33,4.33,0,0,1-.53,0,3.33,3.33,0,0,1-1.12-.18,2.45,2.45,0,0,1-.85-.55,2.35,2.35,0,0,1-.54-.94A4.1,4.1,0,0,1,288.14,354.75Zm.95-.71h2.76a2.84,2.84,0,0,0-.08-.69,1.21,1.21,0,0,0-.26-.49,1,1,0,0,0-.41-.3,1.6,1.6,0,0,0-.56-.09,1.25,1.25,0,0,0-.51.1,1.38,1.38,0,0,0-.44.32,1.75,1.75,0,0,0-.33.49A2.66,2.66,0,0,0,289.09,354Z" style="fill:#4d4d4d"/><path d="M265.21,364.37a2.1,2.1,0,1,1,2.1-2.1A2.1,2.1,0,0,1,265.21,364.37Zm0-3.7a1.6,1.6,0,1,0,1.6,1.6A1.6,1.6,0,0,0,265.21,360.67Z" style="fill:#8b8f9e"/><path d="M202.21,290.06h-.06l-.29,6.92H201l.37-7.87h1.44l2.1,5.21h0l2.06-5.21h1.4l.38,7.87h-.95l-.3-6.92h-.06l-2.14,5.3h-.92Z" style="fill:#4d4d4d"/><path d="M215,292.93V297h-.85v-.41a3.32,3.32,0,0,1-.41.22,2.26,2.26,0,0,1-.41.15,2.59,2.59,0,0,1-.42.09l-.5,0a2.29,2.29,0,0,1-.76-.11,1.61,1.61,0,0,1-.57-.33,1.24,1.24,0,0,1-.37-.5,1.66,1.66,0,0,1-.13-.64,1.48,1.48,0,0,1,.17-.7,1.65,1.65,0,0,1,.5-.56,2.54,2.54,0,0,1,.83-.37,4.44,4.44,0,0,1,1.16-.14h.88v-.64a1.37,1.37,0,0,0-.08-.51.84.84,0,0,0-.25-.38.94.94,0,0,0-.42-.23,2.1,2.1,0,0,0-.59-.08l-.41,0a3.1,3.1,0,0,0-.42.08,3.45,3.45,0,0,0-.43.12,4,4,0,0,0-.45.16l-.2-.76.53-.21.48-.15a3.85,3.85,0,0,1,.49-.07,4.63,4.63,0,0,1,.54,0,2.75,2.75,0,0,1,.9.13,1.71,1.71,0,0,1,.65.36,1.48,1.48,0,0,1,.4.6A2.2,2.2,0,0,1,215,292.93Zm-3.47,2.46a1,1,0,0,0,.07.35.69.69,0,0,0,.2.28,1,1,0,0,0,.33.17,1.6,1.6,0,0,0,.46.06l.42,0,.39-.08.36-.13.36-.19v-1.37h-.91a3.43,3.43,0,0,0-.77.07,1.63,1.63,0,0,0-.53.2.85.85,0,0,0-.29.31A.78.78,0,0,0,211.53,295.39Z" style="fill:#4d4d4d"/><path d="M221.06,292.93V297h-.85v-.41a2.82,2.82,0,0,1-.42.22,1.93,1.93,0,0,1-.4.15,2.84,2.84,0,0,1-.42.09l-.5,0a2.29,2.29,0,0,1-.76-.11,1.61,1.61,0,0,1-.57-.33,1.24,1.24,0,0,1-.37-.5,1.66,1.66,0,0,1-.13-.64,1.48,1.48,0,0,1,.17-.7,1.65,1.65,0,0,1,.5-.56,2.54,2.54,0,0,1,.83-.37,4.44,4.44,0,0,1,1.16-.14h.88v-.64a1.37,1.37,0,0,0-.08-.51,1,1,0,0,0-.67-.61,2.1,2.1,0,0,0-.59-.08l-.41,0a3.1,3.1,0,0,0-.42.08l-.44.12-.45.16-.19-.76.52-.21.49-.15a3.85,3.85,0,0,1,.49-.07,4.63,4.63,0,0,1,.54,0,2.75,2.75,0,0,1,.9.13,1.71,1.71,0,0,1,.65.36,1.48,1.48,0,0,1,.4.6A2.2,2.2,0,0,1,221.06,292.93Zm-3.47,2.46a.78.78,0,0,0,.07.35.69.69,0,0,0,.2.28,1,1,0,0,0,.33.17,1.6,1.6,0,0,0,.46.06l.42,0,.39-.08.36-.13.36-.19v-1.37h-.91a3.43,3.43,0,0,0-.77.07,1.63,1.63,0,0,0-.53.2.85.85,0,0,0-.29.31A.78.78,0,0,0,217.59,295.39Z" style="fill:#4d4d4d"/><path d="M222.67,296.86V296a2.73,2.73,0,0,0,.41.1,2.7,2.7,0,0,0,.41.07l.43,0h.44a1.84,1.84,0,0,0,.55-.07,1.19,1.19,0,0,0,.41-.18.67.67,0,0,0,.25-.28.7.7,0,0,0,.09-.35.75.75,0,0,0-.06-.31.59.59,0,0,0-.17-.25,1.28,1.28,0,0,0-.31-.2,2.56,2.56,0,0,0-.45-.16l-.68-.21a2.18,2.18,0,0,1-.54-.22,1.5,1.5,0,0,1-.38-.32,1.43,1.43,0,0,1-.25-.43,1.74,1.74,0,0,1-.08-.53,1.56,1.56,0,0,1,.15-.67,1.49,1.49,0,0,1,.43-.54,1.84,1.84,0,0,1,.68-.36,2.65,2.65,0,0,1,.87-.13h.39l.36,0,.34,0,.32.06-.1.8a2,2,0,0,0-.34-.06l-.32,0-.33,0h-.37a1.62,1.62,0,0,0-.51.06,1.21,1.21,0,0,0-.38.16.84.84,0,0,0-.24.26.74.74,0,0,0-.07.32.87.87,0,0,0,0,.3.91.91,0,0,0,.15.23,1.3,1.3,0,0,0,.26.17,2.21,2.21,0,0,0,.37.14l.68.18a2.36,2.36,0,0,1,.62.24,1.75,1.75,0,0,1,.45.33,1.14,1.14,0,0,1,.26.42,1.65,1.65,0,0,1,.08.51,1.79,1.79,0,0,1-.16.76,1.75,1.75,0,0,1-.45.59,2.22,2.22,0,0,1-.71.4,2.88,2.88,0,0,1-.9.13h-.47l-.41,0-.38-.07Z" style="fill:#4d4d4d"/><path d="M227.76,296.86V296a2.92,2.92,0,0,0,.4.1,3.07,3.07,0,0,0,.42.07l.42,0h.45a1.84,1.84,0,0,0,.55-.07,1.19,1.19,0,0,0,.41-.18.75.75,0,0,0,.25-.28.69.69,0,0,0,.08-.35.75.75,0,0,0-.05-.31.7.7,0,0,0-.17-.25,1.51,1.51,0,0,0-.31-.2,2.56,2.56,0,0,0-.45-.16l-.68-.21a2.18,2.18,0,0,1-.54-.22,1.76,1.76,0,0,1-.39-.32,1.64,1.64,0,0,1-.24-.43,1.74,1.74,0,0,1-.08-.53,1.56,1.56,0,0,1,.15-.67,1.49,1.49,0,0,1,.43-.54,1.88,1.88,0,0,1,.67-.36A2.75,2.75,0,0,1,230,291h.39l.35,0,.35,0,.32.06-.1.8-.34-.06-.32,0-.33,0h-.37a1.62,1.62,0,0,0-.51.06,1.21,1.21,0,0,0-.38.16.73.73,0,0,0-.24.26.76.76,0,0,0-.08.32.85.85,0,0,0,.05.3.57.57,0,0,0,.15.23,1.3,1.3,0,0,0,.26.17,2.21,2.21,0,0,0,.37.14l.68.18a2.36,2.36,0,0,1,.62.24,1.69,1.69,0,0,1,.44.33,1.17,1.17,0,0,1,.27.42,1.65,1.65,0,0,1,.08.51,1.79,1.79,0,0,1-.16.76,1.66,1.66,0,0,1-.46.59,2.17,2.17,0,0,1-.7.4,2.92,2.92,0,0,1-.9.13h-.47l-.41,0-.39-.07Z" style="fill:#4d4d4d"/><path d="M234.22,288.59V297h-.91v-8.31Z" style="fill:#4d4d4d"/><path d="M237.21,291.08V295a1.53,1.53,0,0,0,.09.54.9.9,0,0,0,.24.4,1.22,1.22,0,0,0,.4.24,1.6,1.6,0,0,0,.56.09l.38,0a3,3,0,0,0,.32-.06,1.71,1.71,0,0,0,.3-.09,3.79,3.79,0,0,0,.38-.14v-4.77l.91-.07V297h-.89v-.36a2.72,2.72,0,0,1-.37.2,2.32,2.32,0,0,1-.37.13,1.59,1.59,0,0,1-.39.08,2,2,0,0,1-.43,0,2.86,2.86,0,0,1-.88-.13,1.58,1.58,0,0,1-.64-.38,1.86,1.86,0,0,1-.39-.63,2.57,2.57,0,0,1-.13-.87v-3.91Z" style="fill:#4d4d4d"/><path d="M242.82,289.19a.64.64,0,0,1,0-.24.52.52,0,0,1,.12-.19.54.54,0,0,1,.18-.11.67.67,0,0,1,.24,0,.61.61,0,0,1,.24,0,.4.4,0,0,1,.18.11.57.57,0,0,1,.12.18.66.66,0,0,1,0,.25.61.61,0,0,1,0,.24.55.55,0,0,1-.3.3.61.61,0,0,1-.24,0,.67.67,0,0,1-.24,0,.57.57,0,0,1-.18-.12.41.41,0,0,1-.12-.18A.61.61,0,0,1,242.82,289.19Zm1,1.89V297H243v-5.83Z" style="fill:#4d4d4d"/><path d="M245.55,296.86V296a3.06,3.06,0,0,0,.41.1,2.93,2.93,0,0,0,.41.07l.43,0h.44a1.91,1.91,0,0,0,.56-.07,1.13,1.13,0,0,0,.4-.18.7.7,0,0,0,.26-.28.82.82,0,0,0,.08-.35,1,1,0,0,0,0-.31.72.72,0,0,0-.18-.25,1.42,1.42,0,0,0-.3-.2,3.33,3.33,0,0,0-.45-.16l-.69-.21a2,2,0,0,1-.53-.22,1.39,1.39,0,0,1-.39-.32,1.22,1.22,0,0,1-.24-.43,1.47,1.47,0,0,1-.09-.53,1.56,1.56,0,0,1,.15-.67,1.61,1.61,0,0,1,.43-.54,1.93,1.93,0,0,1,.68-.36,2.65,2.65,0,0,1,.87-.13h.39l.36,0,.34,0,.32.06-.09.8-.34-.06-.33,0-.32,0h-.37a1.69,1.69,0,0,0-.52.06,1.21,1.21,0,0,0-.38.16.8.8,0,0,0-.23.26.76.76,0,0,0-.08.32.85.85,0,0,0,.05.3.57.57,0,0,0,.15.23,1,1,0,0,0,.25.17,2.61,2.61,0,0,0,.37.14l.69.18a2.67,2.67,0,0,1,.62.24,1.88,1.88,0,0,1,.44.33,1,1,0,0,1,.26.42,1.4,1.4,0,0,1,.09.51,1.8,1.8,0,0,1-.17.76,1.63,1.63,0,0,1-.45.59,2.22,2.22,0,0,1-.71.4,2.84,2.84,0,0,1-.9.13h-.47l-.41,0-.38-.07Z" style="fill:#4d4d4d"/><path d="M225,303.67a2.1,2.1,0,1,1,2.1-2.09A2.1,2.1,0,0,1,225,303.67Zm0-3.69a1.6,1.6,0,1,0,1.6,1.6A1.6,1.6,0,0,0,225,300Z" style="fill:#8b8f9e"/><path d="M104.29,274.1h-.06l-.29,6.92H103l.38-7.87h1.44l2.09,5.21h0l2.06-5.21h1.39l.38,7.87h-1l-.3-6.92h-.06l-2.14,5.3h-.92Z" style="fill:#4d4d4d"/><path d="M117.08,277V281h-.85v-.41a3.32,3.32,0,0,1-.41.22,3.25,3.25,0,0,1-.4.15,3,3,0,0,1-.43.09l-.5,0a2.47,2.47,0,0,1-.75-.11,1.72,1.72,0,0,1-.58-.33,1.42,1.42,0,0,1-.37-.5,1.69,1.69,0,0,1-.12-.64,1.37,1.37,0,0,1,.17-.7,1.53,1.53,0,0,1,.49-.56,2.55,2.55,0,0,1,.83-.38,5,5,0,0,1,1.16-.13h.89v-.64a1.46,1.46,0,0,0-.09-.52.85.85,0,0,0-.24-.37,1,1,0,0,0-.42-.23,1.82,1.82,0,0,0-.6-.08l-.41,0a3.1,3.1,0,0,0-.42.08l-.43.11-.45.17-.19-.77.52-.21.48-.14.5-.08.54,0a3,3,0,0,1,.89.12,1.79,1.79,0,0,1,.65.37,1.6,1.6,0,0,1,.41.6A2.18,2.18,0,0,1,117.08,277Zm-3.46,2.47a1,1,0,0,0,.06.35.68.68,0,0,0,.2.27.88.88,0,0,0,.33.18,1.68,1.68,0,0,0,.47.06,2.73,2.73,0,0,0,.41,0,2.44,2.44,0,0,0,.39-.07,2.79,2.79,0,0,0,.37-.14l.36-.18V278.5h-.92a3.49,3.49,0,0,0-.77.07,1.31,1.31,0,0,0-.52.2.76.76,0,0,0-.38.68Z" style="fill:#4d4d4d"/><path d="M123.14,277V281h-.85v-.41a3.32,3.32,0,0,1-.41.22,3.25,3.25,0,0,1-.4.15,3,3,0,0,1-.43.09l-.5,0a2.47,2.47,0,0,1-.75-.11,1.72,1.72,0,0,1-.58-.33,1.42,1.42,0,0,1-.37-.5,1.69,1.69,0,0,1-.12-.64,1.37,1.37,0,0,1,.17-.7,1.53,1.53,0,0,1,.49-.56,2.55,2.55,0,0,1,.83-.38,5,5,0,0,1,1.16-.13h.89v-.64a1.46,1.46,0,0,0-.09-.52.85.85,0,0,0-.24-.37,1,1,0,0,0-.42-.23,1.82,1.82,0,0,0-.6-.08l-.41,0a3.1,3.1,0,0,0-.42.08l-.43.11-.45.17-.19-.77.52-.21.48-.14.5-.08.54,0a3,3,0,0,1,.89.12,1.79,1.79,0,0,1,.65.37,1.6,1.6,0,0,1,.41.6A2.18,2.18,0,0,1,123.14,277Zm-3.46,2.47a1,1,0,0,0,.06.35.68.68,0,0,0,.2.27.88.88,0,0,0,.33.18,1.68,1.68,0,0,0,.47.06,2.73,2.73,0,0,0,.41,0,2.66,2.66,0,0,0,.39-.07,2.79,2.79,0,0,0,.37-.14l.36-.18V278.5h-.92a3.49,3.49,0,0,0-.77.07,1.31,1.31,0,0,0-.52.2.76.76,0,0,0-.38.68Z" style="fill:#4d4d4d"/><path d="M124.75,280.9v-.83l.41.1.41.07a3.11,3.11,0,0,0,.43,0l.44,0a1.91,1.91,0,0,0,.56-.07,1.13,1.13,0,0,0,.4-.18.77.77,0,0,0,.26-.28.85.85,0,0,0,.08-.35,1,1,0,0,0,0-.31.64.64,0,0,0-.18-.25,1.42,1.42,0,0,0-.3-.2,3.33,3.33,0,0,0-.45-.16l-.69-.21a2,2,0,0,1-.53-.22,1.39,1.39,0,0,1-.39-.32,1.22,1.22,0,0,1-.24-.43,1.47,1.47,0,0,1-.09-.53,1.53,1.53,0,0,1,.15-.67,1.61,1.61,0,0,1,.43-.54,2.12,2.12,0,0,1,.68-.37,3,3,0,0,1,.87-.12h.39l.36,0,.34,0,.32.06-.09.79-.34-.06-.32,0-.33,0h-.37a2,2,0,0,0-.52.06,1.21,1.21,0,0,0-.38.17.8.8,0,0,0-.23.26.72.72,0,0,0-.08.32.9.9,0,0,0,0,.3.54.54,0,0,0,.15.22.8.8,0,0,0,.25.18,2.35,2.35,0,0,0,.38.14l.68.18a2.5,2.5,0,0,1,.62.24,1.64,1.64,0,0,1,.44.33,1,1,0,0,1,.26.42,1.36,1.36,0,0,1,.09.51,1.72,1.72,0,0,1-.17.75,1.56,1.56,0,0,1-.45.6,2,2,0,0,1-.71.39,2.83,2.83,0,0,1-.9.14h-.47l-.41,0a2.32,2.32,0,0,1-.38-.06Z" style="fill:#4d4d4d"/><path d="M131.58,281l-2-5.87h1l1.61,5h.06l1.53-5h.93l-2,5.87Z" style="fill:#4d4d4d"/><path d="M137,272.63V281h-.92V272.7Z" style="fill:#4d4d4d"/><path d="M143.16,277V281h-.85v-.41a3.42,3.42,0,0,1-.42.22,2.74,2.74,0,0,1-.4.15,2.84,2.84,0,0,1-.42.09l-.5,0a2.53,2.53,0,0,1-.76-.11,1.78,1.78,0,0,1-.57-.33,1.31,1.31,0,0,1-.37-.5,1.53,1.53,0,0,1-.13-.64,1.48,1.48,0,0,1,.17-.7,1.56,1.56,0,0,1,.5-.56,2.55,2.55,0,0,1,.83-.38,4.88,4.88,0,0,1,1.16-.13h.88v-.64a1.46,1.46,0,0,0-.08-.52,1,1,0,0,0-.25-.37.9.9,0,0,0-.42-.23,1.79,1.79,0,0,0-.59-.08l-.41,0a3.1,3.1,0,0,0-.42.08l-.44.11-.45.17-.19-.77.52-.21.49-.14.49-.08.54,0a3.11,3.11,0,0,1,.9.12,1.87,1.87,0,0,1,.65.37,1.48,1.48,0,0,1,.4.6A2.18,2.18,0,0,1,143.16,277Zm-3.47,2.47a.81.81,0,0,0,.07.35.6.6,0,0,0,.2.27.81.81,0,0,0,.33.18,1.6,1.6,0,0,0,.46.06,2.77,2.77,0,0,0,.42,0,2.32,2.32,0,0,0,.38-.07,2.35,2.35,0,0,0,.37-.14l.36-.18V278.5h-.91a3.43,3.43,0,0,0-.77.07,1.37,1.37,0,0,0-.53.2.91.91,0,0,0-.29.3A.82.82,0,0,0,139.69,279.43Z" style="fill:#4d4d4d"/><path d="M146.15,278.21V281h-.91V272.7l.91-.07v4.78h.53l2-2.26h1.12l-2.28,2.53L150,281h-1.14l-2.06-2.81Z" style="fill:#4d4d4d"/><path d="M150.67,275.88v-.73h.71v-1l.91-.13v1.16h1.54v.73h-1.54v3.32a1.35,1.35,0,0,0,.07.48.86.86,0,0,0,.19.34.72.72,0,0,0,.29.2.92.92,0,0,0,.38.07h.2l.19,0,.19,0,.21,0V281l-.27.06-.25,0-.24,0H153a1.81,1.81,0,0,1-.63-.1,1.23,1.23,0,0,1-.51-.31,1.44,1.44,0,0,1-.34-.57,2.7,2.7,0,0,1-.12-.86v-3.37Z" style="fill:#4d4d4d"/><path d="M155.06,278.09a4.1,4.1,0,0,1,.19-1.31,2.76,2.76,0,0,1,.52-1,2.34,2.34,0,0,1,.79-.58,2.39,2.39,0,0,1,1-.2,2.73,2.73,0,0,1,.94.15,1.87,1.87,0,0,1,.71.45,2.17,2.17,0,0,1,.44.74,3.43,3.43,0,0,1,.15,1v.36c0,.06,0,.12,0,.18s0,.12,0,.17H156a3.05,3.05,0,0,0,.13,1,2.08,2.08,0,0,0,.39.67,1.73,1.73,0,0,0,.6.39,2.29,2.29,0,0,0,.76.12l.49,0,.44-.07a3.54,3.54,0,0,0,.44-.11l.43-.17v.83a3.25,3.25,0,0,1-.46.17c-.14.05-.29.08-.44.12l-.47.07-.53,0a3.23,3.23,0,0,1-1.11-.18,2.16,2.16,0,0,1-.86-.55,2.24,2.24,0,0,1-.54-.93A4.17,4.17,0,0,1,155.06,278.09Zm.95-.71h2.76a2.82,2.82,0,0,0-.08-.68,1.38,1.38,0,0,0-.25-.5,1,1,0,0,0-.42-.29,1.4,1.4,0,0,0-.56-.1,1.26,1.26,0,0,0-.51.11,1.47,1.47,0,0,0-.44.31,1.59,1.59,0,0,0-.32.5A2.23,2.23,0,0,0,156,277.38Z" style="fill:#4d4d4d"/><path d="M131.24,287.71a2.1,2.1,0,1,1,2.1-2.1A2.1,2.1,0,0,1,131.24,287.71Zm0-3.69a1.6,1.6,0,0,0,0,3.19,1.6,1.6,0,1,0,0-3.19Z" style="fill:#8b8f9e"/><path d="M501.67,356v-.84h2.4v3.59l-.55.1-.54.06-.56.05h-.6a4.11,4.11,0,0,1-1.46-.25,3.41,3.41,0,0,1-1.18-.72,3.18,3.18,0,0,1-.79-1.21,4.51,4.51,0,0,1-.29-1.66,4.79,4.79,0,0,1,.35-1.89,3.5,3.5,0,0,1,.93-1.31,3.77,3.77,0,0,1,1.32-.75,4.71,4.71,0,0,1,1.5-.24h.48l.42,0,.39.05.42.07-.11.84-.51-.08-.32,0-.37,0h-.44a3.43,3.43,0,0,0-1.15.19,2.65,2.65,0,0,0-1,.58,2.79,2.79,0,0,0-.69,1,3.69,3.69,0,0,0-.25,1.43,3.92,3.92,0,0,0,.22,1.38,2.83,2.83,0,0,0,.62,1,2.75,2.75,0,0,0,.9.59,3.24,3.24,0,0,0,1.09.19h.6l.29,0,.31,0V356Z" style="fill:#4d4d4d"/><path d="M511.14,355.83a3.71,3.71,0,0,1-.22,1.29,2.87,2.87,0,0,1-.59,1,2.52,2.52,0,0,1-.88.62,2.66,2.66,0,0,1-1.05.21,3,3,0,0,1-1.06-.18,2.13,2.13,0,0,1-.81-.57,2.47,2.47,0,0,1-.52-.93,4.21,4.21,0,0,1-.18-1.28,3.62,3.62,0,0,1,.22-1.3,2.87,2.87,0,0,1,.59-1,2.55,2.55,0,0,1,1.92-.83,2.78,2.78,0,0,1,1.06.19,2.26,2.26,0,0,1,.82.56,2.62,2.62,0,0,1,.52.93A4.28,4.28,0,0,1,511.14,355.83Zm-.95,0a3.5,3.5,0,0,0-.12-1,1.71,1.71,0,0,0-.33-.69,1.37,1.37,0,0,0-.54-.42,1.86,1.86,0,0,0-.73-.14,1.54,1.54,0,0,0-.68.15,1.45,1.45,0,0,0-.54.45,2.1,2.1,0,0,0-.35.72,3.48,3.48,0,0,0-.12.95,4,4,0,0,0,.11,1,1.86,1.86,0,0,0,.34.69,1.37,1.37,0,0,0,.54.42,1.83,1.83,0,0,0,.73.14,1.52,1.52,0,0,0,1.22-.61,2.2,2.2,0,0,0,.35-.72A3.4,3.4,0,0,0,510.19,355.87Z" style="fill:#4d4d4d"/><path d="M515.77,353l-.11.9-.18,0-.16,0-.16,0H515a.86.86,0,0,0-.28,0,.81.81,0,0,0-.27.11,1.86,1.86,0,0,0-.28.18,3.73,3.73,0,0,0-.31.28v4.44h-.91V353l.9-.07v.68l.32-.33a1.6,1.6,0,0,1,.31-.22,1.25,1.25,0,0,1,.3-.12,1.18,1.18,0,0,1,.31-.05h.35l.16,0Z" style="fill:#4d4d4d"/><path d="M517,351.05a.69.69,0,0,1,0-.25.52.52,0,0,1,.12-.19.78.78,0,0,1,.18-.11.67.67,0,0,1,.24,0,.61.61,0,0,1,.24,0,.5.5,0,0,1,.18.11.57.57,0,0,1,.12.18.71.71,0,0,1,0,.26.67.67,0,0,1,0,.24.57.57,0,0,1-.12.18.5.5,0,0,1-.18.11.61.61,0,0,1-.24,0,.67.67,0,0,1-.24,0,.78.78,0,0,1-.18-.11.57.57,0,0,1-.12-.18A.67.67,0,0,1,517,351.05Zm1,1.88v5.9h-.91V353Z" style="fill:#4d4d4d"/><path d="M523.84,358.83V355a1.37,1.37,0,0,0-.08-.51,1,1,0,0,0-.25-.39,1.11,1.11,0,0,0-.42-.26,1.6,1.6,0,0,0-.56-.09l-.37,0a1.91,1.91,0,0,0-.33.06,2.14,2.14,0,0,0-.34.09l-.36.13v4.8h-.91V353l.88-.07v.4a2.4,2.4,0,0,1,.39-.2,2.84,2.84,0,0,1,.38-.13,1.59,1.59,0,0,1,.39-.08,3,3,0,0,1,.44,0,3,3,0,0,1,.88.13,1.76,1.76,0,0,1,.65.39,1.72,1.72,0,0,1,.39.62,2.54,2.54,0,0,1,.14.86v3.94Z" style="fill:#4d4d4d"/><path d="M530.43,353l-.11.82-.32-.06-.27-.05-.26,0h-.3a1.76,1.76,0,0,0-.68.14,1.62,1.62,0,0,0-.55.43,2,2,0,0,0-.38.68,2.79,2.79,0,0,0-.14.9,3.24,3.24,0,0,0,.14,1,1.9,1.9,0,0,0,.38.69,1.49,1.49,0,0,0,.58.39,2.08,2.08,0,0,0,.71.13l.33,0a1.53,1.53,0,0,0,.3,0l.3,0,.28-.07v.83l-.3.07-.31.06a3.11,3.11,0,0,1-.33,0l-.38,0a3,3,0,0,1-1.06-.18,2.21,2.21,0,0,1-.84-.54,2.67,2.67,0,0,1-.55-.95,4.09,4.09,0,0,1-.2-1.33,3.65,3.65,0,0,1,.22-1.28,3.12,3.12,0,0,1,.6-1,2.63,2.63,0,0,1,.87-.59,2.83,2.83,0,0,1,1-.2h.33l.29,0,.29,0Z" style="fill:#4d4d4d"/><path d="M535.59,358.83V355a1.6,1.6,0,0,0-.08-.51,1,1,0,0,0-.25-.39,1.19,1.19,0,0,0-.42-.26,1.6,1.6,0,0,0-.56-.09l-.38,0a1.91,1.91,0,0,0-.33.06l-.33.09-.36.13v4.8H532v-8.31l.91-.07v2.85l.39-.18a1.82,1.82,0,0,1,.37-.13,2.44,2.44,0,0,1,.39-.07,2.77,2.77,0,0,1,.42,0,3,3,0,0,1,.88.13,1.85,1.85,0,0,1,.65.39,1.72,1.72,0,0,1,.39.62,2.55,2.55,0,0,1,.13.86v3.94Z" style="fill:#4d4d4d"/><path d="M538.22,355.91a4.37,4.37,0,0,1,.18-1.31,2.61,2.61,0,0,1,.53-1,2.13,2.13,0,0,1,.79-.58,2.22,2.22,0,0,1,.95-.2,2.79,2.79,0,0,1,1,.15,1.84,1.84,0,0,1,.7.45,2,2,0,0,1,.44.74,3.11,3.11,0,0,1,.15,1v.37a1.09,1.09,0,0,1,0,.18,1,1,0,0,1,0,.17h-3.76a3,3,0,0,0,.14.95,1.7,1.7,0,0,0,.39.67,1.49,1.49,0,0,0,.6.39,2.28,2.28,0,0,0,.76.13,3.64,3.64,0,0,0,.48,0L542,358a3.45,3.45,0,0,0,.43-.12,4,4,0,0,0,.44-.17v.83l-.46.18-.44.11a3.54,3.54,0,0,1-.47.07,4.5,4.5,0,0,1-.54,0,3.27,3.27,0,0,1-1.11-.18,2.23,2.23,0,0,1-.85-.55,2.41,2.41,0,0,1-.55-.94A4.41,4.41,0,0,1,538.22,355.91Zm.95-.71h2.76a2.4,2.4,0,0,0-.09-.69,1.2,1.2,0,0,0-.25-.49,1,1,0,0,0-.41-.3,1.64,1.64,0,0,0-.56-.09,1.3,1.3,0,0,0-.52.1,1.65,1.65,0,0,0-.44.32,1.73,1.73,0,0,0-.32.49A2.66,2.66,0,0,0,539.17,355.2Z" style="fill:#4d4d4d"/><path d="M551.78,358.83V355a1.72,1.72,0,0,0-.08-.52.92.92,0,0,0-.24-.39,1.11,1.11,0,0,0-.4-.26,1.59,1.59,0,0,0-.55-.09l-.38,0a1.65,1.65,0,0,0-.32.06l-.32.09-.38.13v4.8h-.91V355a1.7,1.7,0,0,0-.07-.53.85.85,0,0,0-.23-.39.86.86,0,0,0-.39-.24,2,2,0,0,0-.58-.08l-.39,0-.33.05a1.81,1.81,0,0,0-.31.09l-.36.14v4.8h-.91V353l.87-.07v.4l.4-.21a2.84,2.84,0,0,1,.38-.13,2.32,2.32,0,0,1,.38-.07,2.9,2.9,0,0,1,.43,0,4.22,4.22,0,0,1,.52,0,2.12,2.12,0,0,1,.45.11,1.86,1.86,0,0,1,.37.2,1.81,1.81,0,0,1,.3.25l.5-.28a4.37,4.37,0,0,1,.46-.18,3.78,3.78,0,0,1,.46-.1,4.06,4.06,0,0,1,.51,0,3,3,0,0,1,.88.13,1.61,1.61,0,0,1,.63.39,1.72,1.72,0,0,1,.39.62,2.55,2.55,0,0,1,.13.86v3.94Z" style="fill:#4d4d4d"/><path d="M525.64,365.53a2.1,2.1,0,1,1,2.09-2.1A2.1,2.1,0,0,1,525.64,365.53Zm0-3.7a1.6,1.6,0,1,0,1.59,1.6A1.6,1.6,0,0,0,525.64,361.83Z" style="fill:#8b8f9e"/><path d="M63,371.8a5.47,5.47,0,0,1,.26-1.73,3.91,3.91,0,0,1,.74-1.3,3.12,3.12,0,0,1,1.11-.81,3.4,3.4,0,0,1,1.36-.27,3.45,3.45,0,0,1,1.29.25,2.94,2.94,0,0,1,1,.76,3.62,3.62,0,0,1,.68,1.26,5.63,5.63,0,0,1,.24,1.72,5.51,5.51,0,0,1-.26,1.73,3.66,3.66,0,0,1-.73,1.3,3.18,3.18,0,0,1-1.1.8,3.36,3.36,0,0,1-1.35.27,3.29,3.29,0,0,1-1.31-.25,2.82,2.82,0,0,1-1-.76,3.35,3.35,0,0,1-.69-1.25A5.37,5.37,0,0,1,63,371.8Zm1-.12a5.45,5.45,0,0,0,.18,1.5,2.87,2.87,0,0,0,.51,1,2,2,0,0,0,.75.57,2.6,2.6,0,0,0,.93.17,2.38,2.38,0,0,0,.88-.17,2.11,2.11,0,0,0,.76-.55,2.78,2.78,0,0,0,.54-1,4.46,4.46,0,0,0,.21-1.44,5.53,5.53,0,0,0-.18-1.51,2.57,2.57,0,0,0-.51-1,1.9,1.9,0,0,0-.75-.56,2.41,2.41,0,0,0-.93-.18,2.2,2.2,0,0,0-.88.18,2,2,0,0,0-.76.55,2.85,2.85,0,0,0-.54,1A4.38,4.38,0,0,0,64,371.68Z" style="fill:#4d4d4d"/><path d="M72.38,369.77v3.88a1.55,1.55,0,0,0,.08.55,1,1,0,0,0,.25.39.9.9,0,0,0,.4.24,1.55,1.55,0,0,0,.55.09l.38,0,.32,0,.31-.09.37-.14v-4.78l.91-.07v5.9h-.89v-.36a2.24,2.24,0,0,1-.37.2,2.6,2.6,0,0,1-.36.13l-.39.09a3,3,0,0,1-.44,0,2.63,2.63,0,0,1-.88-.13,1.55,1.55,0,0,1-.63-.38,1.46,1.46,0,0,1-.39-.63,2.56,2.56,0,0,1-.14-.87v-3.91Z" style="fill:#4d4d4d"/><path d="M82.61,367.29v8.38h-.89v-.38a1.77,1.77,0,0,1-.33.19,1.94,1.94,0,0,1-.36.15c-.13,0-.26.06-.4.09s-.27,0-.41,0a2.64,2.64,0,0,1-1-.19,2.13,2.13,0,0,1-.78-.55,2.46,2.46,0,0,1-.51-.9,3.55,3.55,0,0,1-.19-1.22,3.77,3.77,0,0,1,.22-1.34,2.68,2.68,0,0,1,.61-1,2.61,2.61,0,0,1,.94-.62,3.22,3.22,0,0,1,1.18-.21H81l.26,0,.23.05.21.05v-2.5Zm-2,3.25a2.07,2.07,0,0,0-.8.15,1.76,1.76,0,0,0-.61.44,2.08,2.08,0,0,0-.39.72,3.12,3.12,0,0,0-.13.95,2.82,2.82,0,0,0,.13.91,1.85,1.85,0,0,0,.35.67,1.35,1.35,0,0,0,.55.39,1.75,1.75,0,0,0,.7.14,2,2,0,0,0,.36,0,3,3,0,0,0,.32-.06,1.78,1.78,0,0,0,.29-.12,2.28,2.28,0,0,0,.3-.17v-3.9l-.27,0-.26,0-.26,0Z" style="fill:#4d4d4d"/><path d="M89.27,367.29v8.38h-.89v-.38a1.77,1.77,0,0,1-.33.19,1.94,1.94,0,0,1-.36.15c-.13,0-.26.06-.4.09s-.27,0-.41,0a2.64,2.64,0,0,1-1-.19,2.13,2.13,0,0,1-.78-.55,2.46,2.46,0,0,1-.51-.9,3.55,3.55,0,0,1-.19-1.22,3.77,3.77,0,0,1,.22-1.34,2.68,2.68,0,0,1,.61-1,2.61,2.61,0,0,1,.94-.62,3.22,3.22,0,0,1,1.18-.21h.3l.26,0,.23.05.21.05v-2.5Zm-2,3.25a2.07,2.07,0,0,0-.8.15,1.76,1.76,0,0,0-.61.44,2.08,2.08,0,0,0-.39.72,3.12,3.12,0,0,0-.13.95,2.82,2.82,0,0,0,.13.91,1.85,1.85,0,0,0,.35.67,1.35,1.35,0,0,0,.55.39,1.75,1.75,0,0,0,.7.14,2,2,0,0,0,.36,0,3,3,0,0,0,.32-.06,1.78,1.78,0,0,0,.29-.12,2.28,2.28,0,0,0,.3-.17v-3.9l-.27,0-.26,0-.26,0Z" style="fill:#4d4d4d"/><path d="M96.38,372.67a3.71,3.71,0,0,1-.22,1.29,2.87,2.87,0,0,1-.59,1,2.52,2.52,0,0,1-.88.62,2.66,2.66,0,0,1-1,.21,3,3,0,0,1-1.06-.18,2.13,2.13,0,0,1-.81-.57,2.47,2.47,0,0,1-.52-.93,4.21,4.21,0,0,1-.18-1.28,3.62,3.62,0,0,1,.22-1.3,2.87,2.87,0,0,1,.59-1,2.55,2.55,0,0,1,1.92-.83,2.78,2.78,0,0,1,1.06.19,2.26,2.26,0,0,1,.82.56,2.62,2.62,0,0,1,.52.93A4.28,4.28,0,0,1,96.38,372.67Zm-.95,0a3.5,3.5,0,0,0-.12-1,1.71,1.71,0,0,0-.33-.69,1.37,1.37,0,0,0-.54-.42,1.86,1.86,0,0,0-.73-.14,1.54,1.54,0,0,0-.68.15,1.45,1.45,0,0,0-.54.45,2.1,2.1,0,0,0-.35.72,3.48,3.48,0,0,0-.12.95,4,4,0,0,0,.11,1,1.86,1.86,0,0,0,.34.69,1.37,1.37,0,0,0,.54.42,1.83,1.83,0,0,0,.73.14,1.53,1.53,0,0,0,1.22-.61,2.2,2.2,0,0,0,.35-.72A3.4,3.4,0,0,0,95.43,372.71Z" style="fill:#4d4d4d"/><path d="M101,369.82l-.11.9-.18,0-.16,0-.16,0h-.17a.86.86,0,0,0-.28,0,.81.81,0,0,0-.27.11,1.86,1.86,0,0,0-.28.18,3.73,3.73,0,0,0-.31.28v4.44h-.91v-5.83l.9-.07v.68l.32-.33a2,2,0,0,1,.31-.22,1.94,1.94,0,0,1,.3-.13,1.76,1.76,0,0,1,.31,0h.35l.16,0Z" style="fill:#4d4d4d"/><path d="M102.39,378v-8.13l.87-.07v.37l.37-.17a2.43,2.43,0,0,1,.38-.13,1.77,1.77,0,0,1,.4-.08,3.15,3.15,0,0,1,.44,0,2.55,2.55,0,0,1,1,.18,1.84,1.84,0,0,1,.76.53,2.27,2.27,0,0,1,.49.91,4.32,4.32,0,0,1,.17,1.26,3.88,3.88,0,0,1-.22,1.32,2.69,2.69,0,0,1-.64,1,2.78,2.78,0,0,1-1,.62,3.62,3.62,0,0,1-1.26.21h-.44l-.2,0-.21,0V378Zm1.89-3a2.38,2.38,0,0,0,.81-.14,1.76,1.76,0,0,0,.64-.43,1.91,1.91,0,0,0,.42-.71,2.91,2.91,0,0,0,.15-1,3.4,3.4,0,0,0-.12-1,1.72,1.72,0,0,0-.34-.66,1.36,1.36,0,0,0-.54-.38,2.07,2.07,0,0,0-.73-.12l-.32,0a1.55,1.55,0,0,0-.31.06,1.92,1.92,0,0,0-.32.09,2.69,2.69,0,0,0-.32.13v4l.25,0,.24,0,.24,0Z" style="fill:#4d4d4d"/><path d="M85.21,382.37a2.1,2.1,0,1,1,2.1-2.1A2.1,2.1,0,0,1,85.21,382.37Zm0-3.7a1.6,1.6,0,1,0,1.6,1.6A1.6,1.6,0,0,0,85.21,378.67Z" style="fill:#8b8f9e"/><path d="M200.16,193.43a1.08,1.08,0,0,1,.28-.75,1,1,0,0,1,.77-.32,1.11,1.11,0,0,1,.76.28,1.15,1.15,0,0,1,.31.87,2.84,2.84,0,0,1-.68,1.55c-.45.61-.76.92-.92.92H200l.73-1.67a.89.89,0,0,1-.38-.34A1,1,0,0,1,200.16,193.43Z" style="fill:#4d4d4d"/><path d="M203.68,201.31v-1.38a7.58,7.58,0,0,0,.93.17c.32,0,.62.05.9.05a1.86,1.86,0,0,0,.93-.16.49.49,0,0,0,.26-.42.5.5,0,0,0-.17-.38,2.13,2.13,0,0,0-.65-.29l-.82-.24a2.14,2.14,0,0,1-1-.62,1.65,1.65,0,0,1-.36-1.11,1.82,1.82,0,0,1,.72-1.48,3.26,3.26,0,0,1,2-.58c.3,0,.58,0,.86,0l.73.09-.09,1.34-.8-.1c-.24,0-.5,0-.77,0a1.66,1.66,0,0,0-.84.16.45.45,0,0,0-.26.37.52.52,0,0,0,.13.35,1.4,1.4,0,0,0,.59.27l.76.2a2.36,2.36,0,0,1,1.2.67,1.72,1.72,0,0,1,.35,1.09,1.89,1.89,0,0,1-.73,1.58,3.14,3.14,0,0,1-2,.58c-.35,0-.69,0-1,0A5.67,5.67,0,0,1,203.68,201.31Z" style="fill:#4d4d4d"/><path d="M209.87,198.4v-1.47h3.35v1.47Z" style="fill:#4d4d4d"/><path d="M219,198.45v-1.38h2.88v4.17a11.47,11.47,0,0,1-1.27.19q-.63.06-1.32.06a4.53,4.53,0,0,1-3.11-1,3.85,3.85,0,0,1-1.18-3.07,4.35,4.35,0,0,1,1.32-3.46,4.9,4.9,0,0,1,3.34-1.15c.39,0,.73,0,1,0a7,7,0,0,1,.9.13l-.11,1.43c-.36,0-.68-.09-1-.11l-.92,0a2.8,2.8,0,0,0-2.06.76,3,3,0,0,0-.77,2.23,2.84,2.84,0,0,0,.75,2.14,2.49,2.49,0,0,0,1.82.73h.46l.45,0v-1.61Z" style="fill:#4d4d4d"/><path d="M227.42,195l-.11,1.52-.36-.07-.37,0a2.28,2.28,0,0,0-.61.1,2.55,2.55,0,0,0-.63.33v4.58h-1.6V195l1.58-.07v.75a2.33,2.33,0,0,1,.65-.62,1.37,1.37,0,0,1,.69-.18l.41,0A2.17,2.17,0,0,1,227.42,195Z" style="fill:#4d4d4d"/><path d="M233.37,197.19v4.21h-1.48V201a3,3,0,0,1-.81.36,3.7,3.7,0,0,1-1,.12,2.15,2.15,0,0,1-1.53-.5,1.73,1.73,0,0,1-.52-1.31,1.79,1.79,0,0,1,.71-1.48,3.52,3.52,0,0,1,2.22-.57h.88v-.29a1,1,0,0,0-.32-.76,1.68,1.68,0,0,0-1.11-.28,4.19,4.19,0,0,0-.89.09,5.5,5.5,0,0,0-.93.3l-.21-1.34a7.19,7.19,0,0,1,1.15-.36,5.39,5.39,0,0,1,1.17-.12,2.87,2.87,0,0,1,2,.61A2.22,2.22,0,0,1,233.37,197.19Zm-3.72,2.35a.6.6,0,0,0,.24.51,1.11,1.11,0,0,0,.67.18,3.45,3.45,0,0,0,.67-.07,3.48,3.48,0,0,0,.61-.22v-1.18l-.41,0H231A2,2,0,0,0,230,199,.7.7,0,0,0,229.65,199.54Z" style="fill:#4d4d4d"/><path d="M236.46,201.4l-2-6.45h1.83l1.31,5.21h.11L239,195h1.66l-2,6.45Z" style="fill:#4d4d4d"/><path d="M241.47,198.19a3.4,3.4,0,0,1,.86-2.5,2.89,2.89,0,0,1,2.09-.86,2.56,2.56,0,0,1,1.89.71,2.62,2.62,0,0,1,.7,1.93c0,.22,0,.43,0,.65a3.55,3.55,0,0,1,0,.52H243a1.78,1.78,0,0,0,.63,1.13,2.12,2.12,0,0,0,1.34.37,6.74,6.74,0,0,0,1-.07,6.65,6.65,0,0,0,.88-.22v1.3a7.08,7.08,0,0,1-1,.24,5.56,5.56,0,0,1-1.09.09,3.38,3.38,0,0,1-2.4-.82A3.19,3.19,0,0,1,241.47,198.19Zm1.53-.69h2.47a1.58,1.58,0,0,0-.32-1,1,1,0,0,0-.85-.4,1.13,1.13,0,0,0-.85.37A1.79,1.79,0,0,0,243,197.5Z" style="fill:#4d4d4d"/><path d="M252.53,201.4v-3.89a1.2,1.2,0,0,0-.28-.9,1.18,1.18,0,0,0-.84-.27,3.39,3.39,0,0,0-.58,0,3.53,3.53,0,0,0-.59.16v4.85h-1.59V195l1.54-.07v.49A2.74,2.74,0,0,1,251,195a2.77,2.77,0,0,1,.89-.13,2.23,2.23,0,0,1,1.63.59,2.31,2.31,0,0,1,.6,1.71v4.23Z" style="fill:#4d4d4d"/><path d="M259.94,201.4v-3.89a1.2,1.2,0,0,0-.28-.9,1.18,1.18,0,0,0-.84-.27,3.61,3.61,0,0,0-.59,0,2.66,2.66,0,0,0-.58.16v4.85h-1.6v-9l1.6-.08v3.07a3.55,3.55,0,0,1,.82-.39,2.82,2.82,0,0,1,.83-.12,2.24,2.24,0,0,1,1.64.59,2.31,2.31,0,0,1,.6,1.71v4.23Z" style="fill:#4d4d4d"/><path d="M268.33,197.19v4.21h-1.49V201a3,3,0,0,1-.8.36,3.75,3.75,0,0,1-1,.12,2.15,2.15,0,0,1-1.53-.5,1.74,1.74,0,0,1-.53-1.31,1.81,1.81,0,0,1,.71-1.48,3.55,3.55,0,0,1,2.23-.57h.87v-.29a.92.92,0,0,0-.32-.76,1.67,1.67,0,0,0-1.11-.28,4.17,4.17,0,0,0-.88.09,5.89,5.89,0,0,0-.94.3l-.21-1.34a7.19,7.19,0,0,1,1.15-.36,5.52,5.52,0,0,1,1.17-.12,2.86,2.86,0,0,1,2,.61A2.19,2.19,0,0,1,268.33,197.19Zm-3.72,2.35a.6.6,0,0,0,.24.51,1.09,1.09,0,0,0,.67.18,3.34,3.34,0,0,0,.66-.07,3.22,3.22,0,0,0,.61-.22v-1.18l-.41,0H266a1.94,1.94,0,0,0-1,.22A.68.68,0,0,0,264.61,199.54Z" style="fill:#4d4d4d"/><path d="M271.39,199.67a.39.39,0,0,0,.19.33,1.33,1.33,0,0,0,.66.12l1.49,0a2.56,2.56,0,0,1,1.59.42,1.41,1.41,0,0,1,.49,1.15,2,2,0,0,1-.81,1.58,4.16,4.16,0,0,1-2.6.66,3.84,3.84,0,0,1-2.09-.45,1.36,1.36,0,0,1-.68-1.19,1.34,1.34,0,0,1,.28-.83,1.67,1.67,0,0,1,.76-.55v0a.81.81,0,0,1-.41-.32,1,1,0,0,1,0-1.15,1.27,1.27,0,0,1,.57-.41v0a1.83,1.83,0,0,1-.73-.65,1.78,1.78,0,0,1-.28-1,2.18,2.18,0,0,1,.76-1.78,3,3,0,0,1,2-.64,4.22,4.22,0,0,1,.52,0,4.48,4.48,0,0,1,.5.11h2.1v1h-1v0a1.16,1.16,0,0,1,.38.43,1.42,1.42,0,0,1,.18.74,1.89,1.89,0,0,1-.72,1.58,3.28,3.28,0,0,1-2.06.56l-.43,0a2.7,2.7,0,0,1-.41-.08.46.46,0,0,0-.18.16A.42.42,0,0,0,271.39,199.67Zm-.33,2.31a.68.68,0,0,0,.36.6,2.15,2.15,0,0,0,1.11.22,3.34,3.34,0,0,0,1.44-.23.71.71,0,0,0,.43-.59.51.51,0,0,0-.2-.43,1.19,1.19,0,0,0-.65-.16l-2.17-.07a.92.92,0,0,0-.24.28A.79.79,0,0,0,271.06,202Zm1.52-3.62a1.26,1.26,0,0,0,.91-.3,1.2,1.2,0,0,0,.32-.94,1.13,1.13,0,0,0-.3-.85,1.24,1.24,0,0,0-.92-.29,1.31,1.31,0,0,0-.89.3,1.19,1.19,0,0,0-.34.93,1.11,1.11,0,0,0,.31.87A1.39,1.39,0,0,0,272.58,198.36Z" style="fill:#4d4d4d"/><path d="M276.79,198.19a3.4,3.4,0,0,1,.86-2.5,2.89,2.89,0,0,1,2.09-.86,2.56,2.56,0,0,1,1.89.71,2.62,2.62,0,0,1,.7,1.93c0,.22,0,.43,0,.65s0,.38,0,.52h-4a1.78,1.78,0,0,0,.63,1.13,2.12,2.12,0,0,0,1.34.37,6.74,6.74,0,0,0,1-.07,6.65,6.65,0,0,0,.88-.22v1.3a7.08,7.08,0,0,1-1,.24,5.56,5.56,0,0,1-1.09.09,3.38,3.38,0,0,1-2.4-.82A3.19,3.19,0,0,1,276.79,198.19Zm1.53-.69h2.47a1.63,1.63,0,0,0-.31-1,1,1,0,0,0-.86-.4,1.13,1.13,0,0,0-.85.37A1.79,1.79,0,0,0,278.32,197.5Z" style="fill:#4d4d4d"/><path d="M241.31,208.28a2.1,2.1,0,1,1,2.09-2.1A2.1,2.1,0,0,1,241.31,208.28Zm0-3.69a1.6,1.6,0,1,0,1.59,1.59A1.6,1.6,0,0,0,241.31,204.59Z" style="fill:#8b8f9e"/></svg>