<svg id="Layer_1" data-name="Layer 1" xmlns="http://www.w3.org/2000/svg" viewBox="0 0 34 34"><title>st-basic-information</title><path d="M11.13,12.35l1.65,2.75a.39.39,0,0,0,.33.19h0a.39.39,0,0,0,.33-.19L16,11a.39.39,0,0,0-.62-.46L13.07,13l-1.36-1.18a.39.39,0,0,0-.58.49Z"/><path d="M15.85,15.88a.39.39,0,0,0-.52.05l-2.26,2.53-1.36-1.18a.39.39,0,0,0-.58.49l1.65,2.75a.39.39,0,0,0,.33.19h0a.39.39,0,0,0,.33-.19L16,16.39A.39.39,0,0,0,15.85,15.88Z"/><path d="M15.34,21.36,13.07,23.9l-1.36-1.18a.39.39,0,0,0-.58.49L12.78,26a.39.39,0,0,0,.33.19h0a.39.39,0,0,0,.33-.19L16,21.82a.39.39,0,0,0-.62-.46Z"/><rect x="17.49" y="11.83" width="5.93" height="1.48"/><rect x="17.49" y="17.26" width="5.93" height="1.48"/><rect x="17.49" y="22.69" width="5.93" height="1.48"/><path d="M25.89,5.41H23a10.08,10.08,0,0,1-.19,2,2.33,2.33,0,0,1-.15.45h1.78V27.63H9.59V7.88h1.78a2.33,2.33,0,0,1-.15-.45,10.08,10.08,0,0,1-.19-2H8.11a1,1,0,0,0-1,1V29.11a1,1,0,0,0,1,1H25.89a1,1,0,0,0,1-1V6.4A1,1,0,0,0,25.89,5.41Z"/><path d="M13.73,8.37h6.54a1.49,1.49,0,0,0,1.48-1.15A10.89,10.89,0,0,0,21.92,5a.75.75,0,0,0-.63-.75l-.9-.15a5.32,5.32,0,0,1-1.13,1.45c-.3.24-.47.27-.56.18v0a2.47,2.47,0,1,0-4.18-1.78h0l-1.83.3a.75.75,0,0,0-.63.75,10.89,10.89,0,0,0,.17,2.23A1.49,1.49,0,0,0,13.73,8.37ZM17,2.81a1.11,1.11,0,1,1-1.11,1.11A1.11,1.11,0,0,1,17,2.81Z"/></svg>