<svg id="Layer_1" data-name="Layer 1" xmlns="http://www.w3.org/2000/svg" viewBox="0 0 34 34"><title>st-local-measures</title><path d="M14.93,7.44a2,2,0,0,0,3-.88c.78-1.31.51-2.42-.6-3.08a2.06,2.06,0,0,0-3,.94A2,2,0,0,0,14.93,7.44Z"/><path d="M11.82,16.89l8.06,5.48.45-.75-3.44-2.34c-.29-1.46-.88-4.35-.88-4.35-.28-2.47.68-3.91,0-5.28a5.41,5.41,0,0,0-4.09-2.38,23,23,0,0,0-3.62.67,2.62,2.62,0,0,0-1,.46c-.85.57-1.77,2.47-2.12,3.07a2,2,0,0,0,.16,2.24l.58-.83,4,2.74c0,.05-.08.08-.2,0C9,15.45,7.59,15,7.59,15L3.73,26.61a2.3,2.3,0,0,0,1,2.83L9.41,19l1.82,3.45c.27,1.58.51,3.14.87,5.24a2.18,2.18,0,0,0,2.25,1.93c-.08-2.95-.12-4.24-.25-6.94A32.46,32.46,0,0,0,11.82,16.89Zm2.49-1.7c.08.41.47,2,.73,2.83l-2.88-2c.61-1.07,1.36-2.38,2-3.44A21.29,21.29,0,0,0,14.31,15.19ZM8.21,9.92A4.19,4.19,0,0,1,9.94,10c-.68,1.17-1.3,2.51-1.71,3.4L6.42,12.16A15,15,0,0,1,8.21,9.92Z"/><path d="M25.1,19.7c-.77-.9-1.63-1.15-2.42-.12s-2.2,3.5-2.2,3.5a8.49,8.49,0,0,0-2.58,1.63c-1.24,1.35-2.3,5.09-2.26,5H31.06S28,23.09,25.1,19.7Z"/></svg>