<svg id="Layer_1" data-name="Layer 1" xmlns="http://www.w3.org/2000/svg" viewBox="0 0 34 34"><title>st-n-emission</title><path d="M24.82,23.18v.9h1.67v-.9a5.05,5.05,0,0,1-1.67,0Z"/><path d="M28.56,15V21.4a1.75,1.75,0,0,1-1.25,1.54v1.14h2.5V15.75Z"/><path d="M25.65,22.41c1.15,0,2.08-.45,2.08-1V10.94c0-.56-.93-1-2.08-1s-2.08.45-2.08,1V21.4C23.57,22,24.5,22.41,25.65,22.41Z"/><path d="M22.73,21.4V11.26l-1.46-.92H15.51l4.77,4.13c.09.11,0,.25,0,.26l-6.87-4.39L4.83,15.75v8.33h5.83V20.75h6.24v3.33H24V22.94A1.75,1.75,0,0,1,22.73,21.4Zm-13.32,1H6.08V20.75H9.41Z"/></svg>