<svg id="Layer_1" data-name="Layer 1" xmlns="http://www.w3.org/2000/svg" viewBox="0 0 34 34"><title>st-n-deposition-and-nature</title><path d="M28.4,28.34a2.17,2.17,0,0,0-2.77-1.87C25,24.27,22.71,23,21,24.09l.28,1.5a.85.85,0,0,0,.19.4l1.11,1.28A1.39,1.39,0,0,1,23,28.34Z"/><path d="M20.83,26.54a1.71,1.71,0,0,1-.38-.8L19.37,20h0a3.51,3.51,0,0,1,1.83-3.84s0,.06,0,.1a4.66,4.66,0,0,0-1,3.48c0,.19.07.32.12.6a4.75,4.75,0,0,0,1.67.3,4.64,4.64,0,0,0,4.75-4.66,4.74,4.74,0,0,0-1.13-3.14A4.4,4.4,0,0,0,23,6.4a3.76,3.76,0,0,0-5.92-1,3.77,3.77,0,0,0-6.08,3v0A3.32,3.32,0,0,0,8.26,12.6,4.28,4.28,0,0,0,13.93,19a3.57,3.57,0,0,1,.77,2.2L14.59,23a4.73,4.73,0,0,1,2.11,3.6c0,.1,0,.16-.06.17-.34-.63-1.48-3.23-3.64-3.09a2.54,2.54,0,0,0-2.12,1.57,2.09,2.09,0,0,0-2.11,0A3.45,3.45,0,0,0,7.4,27a2.44,2.44,0,0,0-1.86.3,2.88,2.88,0,0,0-1,2.31h5.94a3.4,3.4,0,0,1,.23-1.71,4.18,4.18,0,0,0,1.07,1.71h0a10.86,10.86,0,0,1,.71-2.88,3.93,3.93,0,0,0,.57,2.85l0,0H17.6s-.12-.55-.37-1.32L18.61,28l3.4.46s.32-.23-.06-.65Zm-4-8.22a.43.43,0,0,1-.73.06l-.9-1.24a4.25,4.25,0,0,0,.22-1,3.76,3.76,0,0,0,2,1C17.2,17.58,17,18,16.84,18.32Z"/></svg>