<svg id="Layer_1" data-name="Layer 1" xmlns="http://www.w3.org/2000/svg" viewBox="0 0 34 34"><title>st-permits</title><path d="M9,9.14A2.1,2.1,0,0,0,11.1,6.8c0-1.58-.82-2.42-2.15-2.42A2.13,2.13,0,0,0,6.8,6.8,2,2,0,0,0,9,9.14Z"/><path d="M11.35,10.33a11.24,11.24,0,0,0-4.8,0C3.78,11,4,15.39,4,19.18a1.67,1.67,0,0,0,1.65,1.7v-4a12.51,12.51,0,0,1,.33-3.25c.06-.18.18-.14.18-.14V31.33a2.27,2.27,0,0,0,2.28-2.2l.32-8.46A.22.22,0,0,1,9,20.46a.22.22,0,0,1,.22.21l.32,8.4a2.27,2.27,0,0,0,2.28,2.26V13.5s.13,0,.2.14a12.59,12.59,0,0,1,.31,3.23v4a1.67,1.67,0,0,0,1.65-1.7C13.94,15.39,14.12,11,11.35,10.33Z"/><path d="M23.73,9.14A2.1,2.1,0,0,0,25.89,6.8c0-1.58-.82-2.42-2.15-2.42A2.13,2.13,0,0,0,21.58,6.8,2,2,0,0,0,23.73,9.14Z"/><path d="M18.31,16.09a19.27,19.27,0,0,0,2.08-1.47,9.27,9.27,0,0,0,.77-.84L21,16.54h5.49v-3s.13,0,.2.14a11.67,11.67,0,0,1,.31,2.9h1.65c-.06-3-.44-5.71-2.57-6.22a11.3,11.3,0,0,0-3.33-.23,3.14,3.14,0,0,0-2.37,1.41,14.59,14.59,0,0,1-1.27,1.79c-.44.45-2.15,1.72-3.46,2.8A2.12,2.12,0,0,0,18.31,16.09Z"/><rect x="14.82" y="17.41" width="15.22" height="1.74"/></svg>