<svg id="Layer_1" data-name="Layer 1" xmlns="http://www.w3.org/2000/svg" viewBox="0 0 34 34"><title>st-room-and-utilization</title><path d="M13.34,11.2c4,4.27,2.78,3,3.45,3.71.21.23.33.24.55,0,.87-.95-.1.09,3.45-3.71Z"/><path d="M22.71,12.94A4.9,4.9,0,0,0,24,9.58V7.72c.59,0,.87-.48.87-1.08v0c0-.59-.28-1.08-.87-1.08H10.1c-.59,0-.87.48-.87,1.08v0c0,.59.28,1.08.87,1.08V9.58a4.9,4.9,0,0,0,1.3,3.36l2.65,2.84a1,1,0,0,1,0,1.27l-2.65,2.84a4.9,4.9,0,0,0-1.3,3.36v1.86c-.59,0-.87.48-.87,1.08v0c0,.59.28,1.08.87,1.08H24c.59,0,.87-.48.87-1.08v0c0-.59-.28-1.08-.87-1.08V23.25a4.9,4.9,0,0,0-1.3-3.36l-2.65-2.84a1,1,0,0,1,0-1.27Zm-3.92,5.3,2.65,2.84a3.21,3.21,0,0,1,.84,2.17v1.86h-.87V23.25s0-.05,0-.08c-1.54-1.37-3.4-2.84-4.32-2.84s-2.81,1.48-4.36,2.86c0,0,0,0,0,.07v1.86h-.87V23.25a3.21,3.21,0,0,1,.84-2.17l2.65-2.84a2.71,2.71,0,0,0,0-3.65l-2.65-2.84a3.21,3.21,0,0,1-.84-2.17V7.72H22.28V9.58a3.21,3.21,0,0,1-.84,2.17l-2.65,2.84A2.71,2.71,0,0,0,18.79,18.24Z"/><circle cx="17.06" cy="17.29" r="0.43"/><circle cx="17.06" cy="19.03" r="0.43"/></svg>