<svg id="Layer_1" data-name="Layer 1" xmlns="http://www.w3.org/2000/svg" viewBox="0 0 34 34"><title>an-explanation</title><path d="M26.26,5.69A68,68,0,0,0,17,5.16a68,68,0,0,0-9.26.53A2.51,2.51,0,0,0,5.69,7.8a44.08,44.08,0,0,0-.51,7.06,44.07,44.07,0,0,0,.51,7.06A2.51,2.51,0,0,0,7.74,24c.4.07.84.13,1.3.18L11.34,21c.12-.17.24,0,.24,0l-2,7h0l0,.11a.63.63,0,0,0,.09.45.64.64,0,0,0,.89.2l6.86-4.19A64.61,64.61,0,0,0,26.26,24a2.51,2.51,0,0,0,2.06-2.11,44.08,44.08,0,0,0,.51-7.06,32.61,32.61,0,0,0-.51-7.06,2.51,2.51,0,0,0-2.06-2.11m-14.8,11A1.57,1.57,0,1,1,13,15.13a1.57,1.57,0,0,1-1.57,1.57m5.49,0a1.57,1.57,0,1,1,1.57-1.57,1.57,1.57,0,0,1-1.57,1.57m5.49,0A1.57,1.57,0,1,1,24,15.13a1.57,1.57,0,0,1-1.57,1.57"/></svg>