<?xml version="1.0" encoding="utf-8"?>
<!-- Generator: Adobe Illustrator 21.1.0, SVG Export Plug-In . SVG Version: 6.00 Build 0)  -->
<svg version="1.1" id="Layer_1" xmlns="http://www.w3.org/2000/svg" xmlns:xlink="http://www.w3.org/1999/xlink" x="0px" y="0px"
	 viewBox="0 0 34 34" style="enable-background:new 0 0 34 34;" xml:space="preserve">
<title>an-meta</title>
<g>
	<path d="M27.4,7.6c-0.2-1-0.9-1.7-1.9-1.9c-2.9-0.5-7.6-0.5-8.6-0.5c-1,0-5.7,0-8.6,0.5c-1,0.2-1.7,0.9-1.9,1.9
		C6,10.4,6,15.2,6,16.1c0,1,0,5.7,0.5,8.6c0.2,1,0.9,1.7,1.9,1.9c2.9,0.5,7.6,0.5,8.6,0.5c1,0,5.7,0,8.6-0.5c1-0.2,1.7-0.9,1.9-1.9
		c0.5-2.9,0.5-7.6,0.5-8.6C27.9,13.3,27.9,10.4,27.4,7.6z M18.4,23.8h-3.1l0.3-6.7v-3.8h2.9V23.8z M17,11.3c-1.1,0-1.7-0.6-1.7-1.7
		C15.3,8.7,15.9,8,17,8c1.1,0,1.7,0.6,1.7,1.7C18.7,10.6,18.1,11.3,17,11.3z"/>
</g>
</svg>
