<svg id="Layer_1" data-name="Layer 1" xmlns="http://www.w3.org/2000/svg" viewBox="0 0 34 34"><title>an-preferences</title><path d="M30.24,15.17l-2.47-1.05a1.88,1.88,0,0,1-1-.91l-.14-.33a1.92,1.92,0,0,1,0-1.33l.93-2.49a1.19,1.19,0,0,0-.26-1.18l-1.13-1.1A1.21,1.21,0,0,0,25,6.54l-2.51,1a1.93,1.93,0,0,1-1.33,0l-.36-.15a2,2,0,0,1-.94-.94L18.76,4a1.23,1.23,0,0,0-1-.66h-1.6a1.19,1.19,0,0,0-1,.66l-1.07,2.4a1.89,1.89,0,0,1-.92,1l-.35.14a2,2,0,0,1-1.34,0L8.88,6.61a1.25,1.25,0,0,0-1.19.25L6.56,8a1.15,1.15,0,0,0-.24,1.17l1,2.44a1.85,1.85,0,0,1,0,1.32l-.14.33a2,2,0,0,1-1,.93L3.76,15.28a1.2,1.2,0,0,0-.66,1v1.54a1.17,1.17,0,0,0,.67,1l2.47,1.05a1.88,1.88,0,0,1,1,.91l.14.33a1.92,1.92,0,0,1,0,1.33l-.93,2.49a1.19,1.19,0,0,0,.25,1.18l1.13,1.11A1.21,1.21,0,0,0,9,27.46l2.5-1a1.93,1.93,0,0,1,1.33,0l.36.15a2,2,0,0,1,.94.94L15.24,30a1.23,1.23,0,0,0,1,.66h1.6a1.19,1.19,0,0,0,1-.66l1.07-2.4a1.88,1.88,0,0,1,.92-.95l.36-.15a2,2,0,0,1,1.34,0l2.56.92a1.24,1.24,0,0,0,1.19-.25L27.44,26a1.15,1.15,0,0,0,.24-1.17l-1-2.44a1.85,1.85,0,0,1,0-1.32l.14-.33a2,2,0,0,1,1-.93l2.48-1.12a1.21,1.21,0,0,0,.66-1V16.17A1.17,1.17,0,0,0,30.24,15.17ZM17,21.36A4.36,4.36,0,1,1,21.46,17,4.42,4.42,0,0,1,17,21.36Z"/></svg>