<svg id="Layer_1" data-name="Layer 1" xmlns="http://www.w3.org/2000/svg" viewBox="0 0 34 34"><title>ch-map</title><path d="M26,4.56H15.5a1,1,0,0,0-.7.29L7.42,12.23a1,1,0,0,0-.29.7V28.45a1,1,0,0,0,1,1H26a1,1,0,0,0,1-1V5.55A1,1,0,0,0,26,4.56ZM24.55,27H9.62V13.66L8.05,13.2c-.17-.06-.11-.18-.11-.18h7.15a.5.5,0,0,0,.5-.5V5.37s.12,0,.18.12l.46,1.56h8.32Z"/><path d="M12.67,16.48H11v5h1V19.81l.26,0h.29a1.84,1.84,0,0,0,1.34-.49,1.69,1.69,0,0,0,.52-1.28A1.56,1.56,0,0,0,14,16.92,1.85,1.85,0,0,0,12.67,16.48Zm.46,2.33a1,1,0,0,1-.69.24h-.21L12,19V17.27h.5a.9.9,0,0,1,.62,1.54Z"/><path d="M15.29,21.52h1.42a2.84,2.84,0,0,0,2-.65,2.55,2.55,0,0,0,.74-2,2.26,2.26,0,0,0-.69-1.75,2.91,2.91,0,0,0-2-.62H15.29Zm1-4.23h.41a1.73,1.73,0,0,1,1.23.42,1.5,1.5,0,0,1,.46,1.19,1.82,1.82,0,0,1-.45,1.38,1.6,1.6,0,0,1-1.18.43h-.47Z"/><polygon points="21.45 19.4 23.05 19.4 23.05 18.59 21.45 18.59 21.45 17.29 23.14 17.29 23.14 16.48 20.45 16.48 20.45 21.52 21.45 21.52 21.45 19.4"/></svg>