<svg id="Layer_1" data-name="Layer 1" xmlns="http://www.w3.org/2000/svg" viewBox="0 0 22 22"><title>Artboard 1</title><path d="M7,3.12a3.91,3.91,0,0,0-.37,2A13.68,13.68,0,0,0,6.72,6.9c-.49,0-.7.37-.62,1.7s.54,1.44.82,1.6a6.25,6.25,0,0,0,1.57,3.18h0c-.05.31-.12.64-.2,1-1.17.41-4,1.48-4.87,2.36C2.36,17.81,1.81,22,1.81,22H20.19s-.56-4.19-1.61-5.31c-.84-.88-3.69-1.94-4.86-2.36a8.9,8.9,0,0,1-.22-1,6.27,6.27,0,0,0,1.59-3.18c.28-.16.74-.42.81-1.6s-.13-1.72-.62-1.7a11.35,11.35,0,0,0,.06-1.7A4.64,4.64,0,0,0,15,3.12a1.53,1.53,0,0,0-1.92-.82,4.65,4.65,0,0,0-3.41-.54c-1.77.39-2.4,1-2.63,1.36"/></svg>