<?xml version="1.0" encoding="utf-8"?>
<!-- Generator: Adobe Illustrator 22.1.0, SVG Export Plug-In . SVG Version: 6.00 Build 0)  -->
<svg version="1.1" id="Layer_1" xmlns="http://www.w3.org/2000/svg" xmlns:xlink="http://www.w3.org/1999/xlink" x="0px" y="0px"
	 viewBox="0 0 34 34" style="enable-background:new 0 0 34 34;" xml:space="preserve">
<title>ch-map</title>
<path d="M26.5,7.1c0-2.2-5-3.8-9.9-3.8c-4.9,0-9.9,1.6-9.9,3.8c0,0.8,0,2.1,0.4,3.2c1.3,3.6,4.5,8,6.1,9.9c1,1,3.9,0.5,4,0.5
	c0,0,0,0.1-0.1,0.2c-0.1,0.1-1.3,0.6-3.4,0.8l0.4,8.6c0,0.5,1.1,0.9,2.5,0.9s2.5-0.4,2.5-0.9l0.5-9.6c1.3-1.5,5.1-6.5,6.6-10.5
	C26.5,9.2,26.5,7.8,26.5,7.1 M16.6,10.3c-4.2,0-7.8-1.1-7.8-2.5s3.5-2.6,7.8-2.6c4.2,0,7.8,1.2,7.8,2.6S20.9,10.3,16.6,10.3"/>
</svg>
