<svg id="Layer_1" data-name="Layer 1" xmlns="http://www.w3.org/2000/svg" viewBox="0 0 34 34"><title>st-measurements</title><path d="M27.7,6.3h-.86a.86.86,0,0,0-.86.86V9.72h-.72a4,4,0,0,1-.36,1.14c-.06.12-.14.16-.19.14V9.94a1.49,1.49,0,0,0-3-.21H18a4,4,0,0,1-.36,1.14c-.06.12-.14.16-.19.14V9.94a1.49,1.49,0,0,0-3-.21h-.75a4,4,0,0,1-.36,1.14c-.06.12-.14.16-.19.14V9.94a1.49,1.49,0,0,0-3-.21H8V7.16a.86.86,0,0,0-.86-.86H6.3a.86.86,0,0,0-.86.86V27.7H8V24.28h3.87a1.49,1.49,0,0,0,3,0h1.76a1.49,1.49,0,0,0,3,0h2.18a1.49,1.49,0,0,0,3,0H26V27.7h2.57V7.16A.86.86,0,0,0,27.7,6.3ZM26,22.14h-.72a4,4,0,0,1-.36,1.14c-.06.12-.14.16-.19.14V22.35a1.49,1.49,0,0,0-3-.21h-1.6a4,4,0,0,1-.36,1.14c-.06.12-.14.16-.19.14V22.35a1.49,1.49,0,0,0-3-.21H15.42a4,4,0,0,1-.36,1.14c-.06.12-.14.16-.19.14V22.35a1.49,1.49,0,0,0-3-.21H8V18.28h.88a1.49,1.49,0,0,0,3,0h4.32a1.49,1.49,0,0,0,3,0h1.76a1.49,1.49,0,0,0,3,0H26Zm0-6H24.41A4,4,0,0,1,24,17.28c-.06.12-.14.16-.19.14V16.36a1.49,1.49,0,0,0-3-.21H19.7a4,4,0,0,1-.36,1.14c-.06.12-.14.16-.19.14V16.36a1.49,1.49,0,0,0-3-.21H12.42a4,4,0,0,1-.36,1.14c-.06.12-.14.16-.19.14V16.36a1.49,1.49,0,0,0-3-.21H8V11.86h2.16a1.49,1.49,0,0,0,3,0h1.33a1.49,1.49,0,0,0,3,0h4.32a1.49,1.49,0,0,0,3,0H26Z"/></svg>