<svg id="Layer_1" data-name="Layer 1" xmlns="http://www.w3.org/2000/svg" viewBox="0 0 34 34"><title>st-priority-projects</title><path d="M20.1,5.6c.33-.07.39-.11.39-.18s-.2-.13-.52-.14c0,0-.5.08-.47.29S19.77,5.67,20.1,5.6Z"/><path d="M15.3,15.14l1.11.49a.68.68,0,0,0,.56,0,3.35,3.35,0,0,0,1.47-1.14.61.61,0,0,0,.06-.32c0-.1,0-.21,0-.3a.68.68,0,0,0-.63-.6h-.66a.7.7,0,0,0-.48.2l-1.4,1.4Z"/><path d="M13.19,10.07c.12,0,.47-.37.56-.46a1.17,1.17,0,0,0,0-.77c-.08-.12-.15-.28-.32-.21a3.06,3.06,0,0,0-.61,1.22C12.85,10,13.07,10.06,13.19,10.07Z"/><path d="M18.16,6c.25,0,.68,0,.67-.28,0,0,0-.18-.8,0s-.89.13-.89.31S17.91,6,18.16,6Z"/><path d="M15.53,6.81a2.17,2.17,0,0,1,.95-.33c.42,0,.24-.33.24-.33s-.29-.29-1.14.24S14.95,7,15,7,15.22,7.07,15.53,6.81Z"/><path d="M14.34,7.93c.12-.22.46-.29.31-.48a.64.64,0,0,0-.6.25c-.29.33-.47.48-.35.65S14.22,8.15,14.34,7.93Z"/><path d="M9.33,20.53l.6.56a.42.42,0,0,0,.5.06l.17-.1c.15-.09.19-.21.07-.33l-1.33-.89a.16.16,0,0,0-.09,0c-.21,0-.93,0-.93.47l.66.09Z"/><path d="M8.77,21.41l.2.12a.77.77,0,0,0,.8,0h0L9.11,21a.84.84,0,0,0-.43-.18L8,20.76a.29.29,0,0,0-.26.11,3.44,3.44,0,0,0-.27.39l.91,0A.78.78,0,0,1,8.77,21.41Z"/><path d="M24.21,17.74h0a.51.51,0,0,1,0-.73l1.41-1.41a.49.49,0,0,0,.14-.34V14.4a.49.49,0,0,0-.49-.49H24.19a.49.49,0,0,1-.46-.33l-.15-.45a.49.49,0,0,1,.19-.56l1.6-1.06a.83.83,0,0,0,.37-.69V8.24A1.5,1.5,0,0,0,25.11,7L23.62,6a1.32,1.32,0,0,0-1.17-.18L17,7.53a.49.49,0,0,0-.33.39l-.36,2.56a.49.49,0,0,0,.33.53l.42.14a.49.49,0,0,1,.33.46v.77a.32.32,0,0,0,.31.32,1.8,1.8,0,0,1,1,.26c.29.29.31,1.24.31,1.48l0,.1c-.34.94-1.75,1.72-2.23,2a.32.32,0,0,1-.3,0L15,15.61a.38.38,0,0,1-.23-.35V13.49A.51.51,0,0,1,15,13h0a.51.51,0,0,0,.27-.65l-.46-1.18a.49.49,0,0,0-.45-.31c-.65,0-.71.05-1.09-.16a.49.49,0,0,0-.69.25A27.09,27.09,0,0,1,12,15.19a7.9,7.9,0,0,1-2.08,3.07,1.25,1.25,0,0,0-.07.27l-.06.41a.42.42,0,0,0,.12.36l1.21,1.2a.64.64,0,0,1-.13,1L10,22a.15.15,0,0,0,0,.25l.84.62c.07.05,0,.22,0,.22l-1.72-1A2.17,2.17,0,0,0,8,21.86s-2,.15-1.47.68c.27.24.8.86,1,.8a1.12,1.12,0,0,0,.27-.17L9,23.82c.09,0,.09-.12.17-.27a.35.35,0,0,1,.44-.15s1.27.56,1.49.61a.38.38,0,0,0,.44-.13c.11-.13.4-.6.4-.6a.49.49,0,0,1,.47-.21l2.61.34a.49.49,0,0,1,.35.23c.18.38.25.47.46.59s2.92,1.25,2.92,1.25a.49.49,0,0,1,.27.59l-.43,1.37v.29l.21.65a.49.49,0,0,0,.46.34H20.7a.49.49,0,0,0,.48-.49,7.52,7.52,0,0,0-.58-1l-.22-.11a.49.49,0,0,1-.27-.43v-.26a.49.49,0,0,1,.14-.34l.85-.74.12-.19.65-2a.49.49,0,0,0,0-.41l-1.61-2.62a.49.49,0,0,1,0-.45l.09-.2a.49.49,0,0,1,.51-.28l2.05.29a.49.49,0,0,0,.41-.14l1-1A.51.51,0,0,0,24.21,17.74Z"/><path d="M10.19,24.11l-.58-.26a.12.12,0,0,0-.13,0L9,24.29a.12.12,0,0,1-.15,0L8,23.76a.22.22,0,0,0-.23,0l-.2.12a.22.22,0,0,1-.24,0l-.74-.54a.14.14,0,0,0-.2,0l-.56.91a.12.12,0,0,0,0,.14l.31.35a.22.22,0,0,0,.16.09S7,25,7,24.88a1.12,1.12,0,0,0,.1-.43l.48,0h.07L9,25.2a.12.12,0,0,0,.14,0l1.06-.87A.12.12,0,0,0,10.19,24.11Z"/></svg>