<svg id="Layer_1" data-name="Layer 1" xmlns="http://www.w3.org/2000/svg" xmlns:xlink="http://www.w3.org/1999/xlink" viewBox="0 0 100 100"><defs><style>.cls-1{fill:url(#linear-gradient);}.cls-2{fill:#f4d0cd;}.cls-3{fill:#fff;}.cls-4{fill:#fff200;}</style><linearGradient id="linear-gradient" x1="50" y1="100" x2="50" gradientUnits="userSpaceOnUse"><stop offset="0.08" stop-color="#d63327"/><stop offset="0.4" stop-color="#af2520"/><stop offset="0.8" stop-color="#841618"/><stop offset="1" stop-color="#731015"/></linearGradient></defs><title>Artboard 1</title><rect class="cls-1" width="100" height="100"/><path class="cls-2" d="M14.79,70l-.54,11.6H13l.63-13.06h2.05l3.69,8.7h.08l3.6-8.7h2l.63,13.06H24.28L23.75,70h-.08l-3.76,8.87H18.66L14.86,70Z"/><path class="cls-2" d="M33.46,68.39c3,0,5.24,2.24,5.24,6.6s-2.42,6.81-5.58,6.81c-3,0-5.27-2.25-5.27-6.61S30.3,68.39,33.46,68.39Zm-.18,12.17c1.9,0,4-1.39,4-5.37,0-4.14-1.83-5.57-4-5.57-1.91,0-4,1.39-4,5.37S31.11,80.56,33.28,80.56Z"/><path class="cls-2" d="M42.47,70h-.08V81.62H41.1V68.56h2.11l5.44,11.58h.1V68.56H50V81.62h-2.1Z"/><path class="cls-2" d="M54.71,81.62H53.34V68.56h1.37Z"/><path class="cls-2" d="M61.9,81.62H60.53V69.8H56.65V68.56h9.1V69.8H61.9Z"/><path class="cls-2" d="M71.79,68.39c3,0,5.24,2.24,5.24,6.6s-2.42,6.81-5.58,6.81c-3,0-5.26-2.25-5.26-6.61S68.63,68.39,71.79,68.39Zm-.18,12.17c1.91,0,4-1.39,4-5.37,0-4.14-1.83-5.57-4-5.57-1.91,0-4,1.39-4,5.37S69.44,80.56,71.61,80.56Z"/><path class="cls-2" d="M80.81,81.62H79.43V68.56h3.34c2.8,0,4.35,1.34,4.35,3.51a3.65,3.65,0,0,1-2.54,3.7L88,81.62H86.43l-3.22-5.57h-2.4Zm0-6.77h1.92c1.83,0,3-.79,3-2.58,0-1.64-1-2.51-3-2.51H80.81Z"/><path class="cls-3" d="M26,62.34H22.48L21.4,58.47H15.63l-1.09,3.87H11.35l5-16.94H21Zm-7.39-14.2h-.18L16.25,56h4.48Z"/><path class="cls-3" d="M28.23,45.4H37.1V48H31.33v4.39h5.3v2.56h-5.3v4.88h5.84v2.55H28.23Z"/><path class="cls-3" d="M43.62,62.34H40.53V45.4h4.95c4.22,0,6.31,1.94,6.31,4.73A5.11,5.11,0,0,1,48.72,55l4.49,7.33H49.6l-3.87-6.48H43.62Zm0-8.91H45.5a2.78,2.78,0,0,0,3.07-2.94c0-1.73-1-2.61-3.33-2.61H43.62Z"/><path class="cls-3" d="M58.21,62.34H55.12V45.4h3.09Z"/><path class="cls-3" d="M62.1,56.48V45.4h3.1V56.12c0,2.53,1.16,3.67,3.37,3.67s3.33-1.27,3.33-3.62V45.4h2.93V56.25c0,3.79-2.44,6.3-6.44,6.3C64.06,62.55,62.1,60.43,62.1,56.48Z"/><path class="cls-3" d="M77.36,59.53a21.59,21.59,0,0,0,4.31.41c2.34,0,3.63-1,3.63-2.25s-.51-1.73-2.55-2.42l-2.11-.73a4.16,4.16,0,0,1-3.07-4.26c0-2.94,2.37-5.06,6.52-5.06a18.49,18.49,0,0,1,3.58.34l-.2,2.58a18,18,0,0,0-3.53-.33c-2.32,0-3.36.9-3.36,2.11,0,1.06.6,1.68,2.14,2.17l2.09.67c2.48.8,3.56,2.15,3.56,4.34,0,3.2-2.58,5.42-6.81,5.42a22.4,22.4,0,0,1-4.2-.31Z"/><polygon class="cls-3" points="47.33 10.87 50.32 5.68 53.3 10.87 47.33 10.87"/><path class="cls-3" d="M55.76,14.5H44.86a6.08,6.08,0,0,0-6.07,6.08V31.51a6.07,6.07,0,0,0,6.07,6.07h2.47V32.46h6v5.12h2.46a6.08,6.08,0,0,0,6.07-6.08V20.58A6.08,6.08,0,0,0,55.76,14.5ZM47.33,25.59l3-5.18,3,5.18Z"/><path class="cls-3" d="M90.15,41.37A2.14,2.14,0,1,1,88,43.51,2.15,2.15,0,0,1,90.15,41.37Zm0,4a1.83,1.83,0,1,0-1.81-1.83A1.82,1.82,0,0,0,90.15,45.34Zm-.44-.63h-.37V42.26h.76c.63,0,.92.27.92.67a.71.71,0,0,1-.53.72l.71,1.06h-.45l-.64-1h-.4Zm0-1.28H90c.41,0,.6-.15.6-.46s-.17-.41-.54-.41h-.38Z"/><polygon class="cls-4" points="0 46.37 46.37 0 26.28 0 0 26.28 0 46.37"/><path d="M15.15,26.84l-1.73,1.74L7.85,23,9.4,21.46a3.82,3.82,0,0,1,2-1.22,1.64,1.64,0,0,1,1.46.46,1.94,1.94,0,0,1,.59,1.1,1.84,1.84,0,0,1-.15,1.09h0a2.07,2.07,0,0,1,1.24-.38,1.57,1.57,0,0,1,1.11.51,2.14,2.14,0,0,1,.69,1.77A3.56,3.56,0,0,1,15.15,26.84Zm-2.71-2.13-.36.35,1.55,1.56.6-.61a1.66,1.66,0,0,0,.55-1,1,1,0,0,0-.32-.86.91.91,0,0,0-.85-.27A2.5,2.5,0,0,0,12.44,24.71Zm-2.19-2.35-.44.44,1.46,1.45.38-.39a1.85,1.85,0,0,0,.58-.94,1,1,0,0,0-.34-.84.85.85,0,0,0-.72-.3A1.76,1.76,0,0,0,10.25,22.36Z"/><path d="M18.38,23.62l-5.57-5.57,3-3,.9.9-1.87,1.87,1.36,1.36,1.72-1.72.9.89-1.72,1.73,1.51,1.51,1.89-1.89.9.89Zm-5.94-8.76,1.84.62-.78.77L11.35,16Z"/><path d="M20,12.68l4.67,4.67-1.11,1.1-4.66-4.66-1.53,1.52-.9-.9,4.16-4.15.9.9Z"/><path d="M23.57,7.29l7.19,4-1.28,1.27L28,11.62,26.1,13.51,27,15l-1.15,1.14L21.9,9ZM26.88,11l-3.27-1.9-.06.06,1.89,3.27Z"/></svg>