<svg id="Layer_1" data-name="Layer 1" xmlns="http://www.w3.org/2000/svg" xmlns:xlink="http://www.w3.org/1999/xlink" viewBox="0 0 100 100"><defs><style>.cls-1{fill:url(#linear-gradient);}.cls-2{fill:#f4d0cd;}.cls-3{fill:#fff;}</style><linearGradient id="linear-gradient" x1="50" y1="100" x2="50" gradientUnits="userSpaceOnUse"><stop offset="0.08" stop-color="#d63327"/><stop offset="0.4" stop-color="#af2520"/><stop offset="0.8" stop-color="#841618"/><stop offset="1" stop-color="#731015"/></linearGradient></defs><title>Artboard 1</title><rect class="cls-1" width="100" height="100"/><path class="cls-2" d="M14.79,70l-.54,11.6H13l.64-13.05h2l3.7,8.7h.08l3.6-8.7h2l.64,13.05H24.28L23.75,70h-.08l-3.75,8.88H18.66L14.86,70Z"/><path class="cls-2" d="M33.46,68.39c3,0,5.25,2.25,5.25,6.61s-2.42,6.8-5.58,6.8c-3,0-5.27-2.25-5.27-6.61S30.3,68.39,33.46,68.39Zm-.18,12.18c1.91,0,4-1.39,4-5.37,0-4.14-1.83-5.57-4-5.57-1.91,0-4,1.39-4,5.37S31.11,80.56,33.28,80.56Z"/><path class="cls-2" d="M42.47,70h-.08V81.62H41.1V68.56h2.11l5.44,11.58h.1V68.56H50V81.62H47.94Z"/><path class="cls-2" d="M54.71,81.62H53.34V68.56h1.37Z"/><path class="cls-2" d="M61.9,81.62H60.53V69.8H56.65V68.56h9.1V69.8H61.9Z"/><path class="cls-2" d="M71.79,68.39c3,0,5.25,2.25,5.25,6.61s-2.42,6.8-5.58,6.8c-3,0-5.27-2.25-5.27-6.61S68.63,68.39,71.79,68.39Zm-.18,12.18c1.91,0,4-1.39,4-5.37,0-4.14-1.83-5.57-4-5.57-1.91,0-4,1.39-4,5.37S69.44,80.56,71.61,80.56Z"/><path class="cls-2" d="M80.81,81.62H79.43V68.56h3.34c2.8,0,4.35,1.33,4.35,3.5a3.66,3.66,0,0,1-2.54,3.7L88,81.62H86.43L83.21,76h-2.4Zm0-6.76h1.93c1.83,0,3-.8,3-2.59,0-1.63-1-2.51-3-2.51H80.81Z"/><path class="cls-3" d="M26,62.34H22.48L21.4,58.47H15.63l-1.08,3.87h-3.2l5-16.94H21Zm-7.4-14.2h-.18L16.25,56h4.48Z"/><path class="cls-3" d="M28.23,45.4H37.1V48H31.33v4.39h5.31v2.56H31.33v4.88h5.85v2.56H28.23Z"/><path class="cls-3" d="M43.62,62.34H40.53V45.4h4.95c4.23,0,6.31,1.94,6.31,4.72A5.13,5.13,0,0,1,48.72,55l4.48,7.33H49.6l-3.87-6.48H43.62Zm0-8.91H45.5a2.79,2.79,0,0,0,3.07-2.94c0-1.73-1-2.61-3.33-2.61H43.62Z"/><path class="cls-3" d="M58.21,62.34H55.12V45.4h3.09Z"/><path class="cls-3" d="M62.1,56.48V45.4H65.2V56.12c0,2.53,1.16,3.67,3.38,3.67s3.33-1.27,3.33-3.62V45.4h2.94V56.25c0,3.79-2.45,6.3-6.44,6.3C64.06,62.55,62.1,60.43,62.1,56.48Z"/><path class="cls-3" d="M77.36,59.53a21.56,21.56,0,0,0,4.3.41c2.34,0,3.63-1,3.63-2.25s-.52-1.73-2.55-2.43l-2.11-.72a4.16,4.16,0,0,1-3.07-4.26c0-2.94,2.37-5.06,6.52-5.06a18.32,18.32,0,0,1,3.58.34l-.21,2.58a17.79,17.79,0,0,0-3.53-.33c-2.32,0-3.35.9-3.35,2.12,0,1.06.59,1.68,2.14,2.17l2.09.67c2.47.8,3.56,2.14,3.56,4.34,0,3.2-2.58,5.42-6.8,5.42a22.56,22.56,0,0,1-4.2-.31Z"/><polygon class="cls-3" points="47.33 10.87 50.32 5.68 53.3 10.87 47.33 10.87"/><path class="cls-3" d="M55.76,14.5H44.86a6.07,6.07,0,0,0-6.07,6.08V31.51a6.07,6.07,0,0,0,6.07,6.07h2.47V32.46h6v5.12h2.46a6.07,6.07,0,0,0,6.07-6.07V20.58A6.07,6.07,0,0,0,55.76,14.5ZM47.33,25.59l3-5.18,3,5.18Z"/><path class="cls-3" d="M90.15,41.37A2.14,2.14,0,1,1,88,43.51,2.14,2.14,0,0,1,90.15,41.37Zm0,4a1.83,1.83,0,1,0-1.81-1.83A1.83,1.83,0,0,0,90.15,45.34Zm-.43-.63h-.37V42.26h.75c.63,0,.92.26.92.67a.72.72,0,0,1-.53.72l.7,1.06h-.45l-.63-1h-.4Zm0-1.28H90c.41,0,.6-.15.6-.47s-.17-.4-.54-.4h-.38Z"/></svg>