<svg xmlns="http://www.w3.org/2000/svg" viewBox="0 0 621 734"><path d="M470.67,128.26l4.33,1.6,2-5.29,1.17-.36.37-3.37,2.42-6.42.27-1.79,1-1,1.07-1.77.62-.21.71-.74.22-2,.27-.53,1.55-.66,2.19-1.47.17-.32,1.12-.29,1.4-1.34.09-.93,2.68-.52L497,100l1.42,0,1.33-.34,4.29,1.87,1.11.06,1.06,2.05-.06.53.6,0,2.34,4.09,1.14,3.18,2-.87.38.06.69,1.18v1l.49,1.92h1.32l2,1.79.79,1,.71.27,1.06,2.92.7.55.36,1.24.68.34,0,1.81,6.53-3,2.72-.74,6.57.35,1.25.84.79,1.13,6.81,7,3.13,3.6,2.5,2.34,9,10.29,7.53,7.58,4.51,6.22,8.2,12.39.19-.05,1.34,1.38,3.34.89-4.49,10.91,3.76.4.49,1.85.59,0,2.34,3.43.41.15.62.89.43.13.64-.36.18.1-.4,1.23-.14,1.49,3.18-.16h0l-3.31,7.5,0,3-2.8,39.95.13.6-2.2,2.6-1-.6-1.17.05-2.56-.62-.8-.55-.42-.62-1.92.13-1.47-1-1.23-.39-1.09,1.15-1.25-.13-1.05,1.06-1.2-.15-1.47.41-1.24-.54-.31-.37-1.4,0-.45-1.59-1.71-.49-.42.07-.8-.59-2.5.26-1.13-.94-1.69,1-1.27-.05-.53.23-2.35-.88-.64.15-1.63,1-2.38-.39-.5-.57-1.63.18-.53-.47-.85-.05-1.19.24-.9.49-.52.83-1.44-.52-.87.65-.33-.47-1.4.6L536,247.46l-.63,1-1.49.73-.6,1.07h0l-1.82-.11.57-1.61-.32-.54,1-1.12-.23-.52-.33-.11.81-1.84-5.4-1.88L518,237.91l-10.1,2.27-1.3.73-4.73,3.9-.11.49.35,3,.49,1.46.44,4.36-.23.45h-.37l-.08-.55-.36,0-.27-.65-.71-.05-.43-.8h-1l-1-.42-1-.05-.33.28-1.2-.13-.18-.41-.66-.26,0-.65-.7-.37-.61,1.93-.51.54-1.74.52-.93-.15-.95-.6-.53-.68.05-1-.43-.42-.17-.59-.44.8-.95.7-.11.6-.46.37-1.43-.73-.5.91-1.51-.05-.39.67-1.43.76-.22-.06-.14-.72h-.4l-.58-.78-.08-.84-.47-.8.15-1.07-.68-1-.26-1.27-1-1.25L478,246l-.7-.52-.49,0-.32-.34-.09-.54-1.44-.86-.4-.52-1.23-.44-1.17-1.05-.05-1.17.43-.52-.54-.93-1,.05-2,.93-1.21.08-.57.84-.53.07-.46-.26-1-1.32-.58-.08-.7.88-.43.08-.8-.52-.54-.73-1.13-.08-.93-.7-.84-1.41h0l-.87.08h0l-1.2-.6-.17-.36-.45.16-1.42-.81-.17-.68-1.26.47-.85,0-.85,1.17-2-.24-.38-.44-1.22.5-.76-1.57-.52-.49-.2.13-.54-.34-1-1.3-.81-2.81L442.91,226l-3.2-8.24.72-1.25.34-.24,3.64-.88,3.07-1.54.19-1.26,5.16-5.71-1-1-3-4.13-1.13-.63-5.61-6.53-.79-1-.35-1-1.21-1.57h0l6.67-5.15,6.64-4.27,4.21-5.86,2-1.59.73-1.42,1.15-.73,1-.08,6.5.63,5,5.1,9.37-6.7,5.52-10.45-10.35-16.08.69-8.93-9.44-3.57Z" style="fill:#e5e5e5;stroke:#fff;stroke-miterlimit:10"/><path d="M329.91,276l-.63-.23,0-.52.32-.34.4-2.08,2.06-4.91,1.23-1.22,2.61-1.27.33-.6,0-.52-1.82-5.61-8.78-14.14h0l.36-.26h0l8.85,14.14,1.87,6.05-.4,1.27-3,1.4-.93,1-2.1,5.11-.31,2.69Zm45-80.51,1.58.31,1.25,1.23,1.08-.44-1-3,3.17,1,5.73,5.8,1,3.79.59-.34h0l1.41,2.51,2.14,1.88,0,.5h2.9l.33.23,1.87.34,1.39.68,3.1,2.14.93,1.3,1.61,1.38.95.6.57,0,3.05,2.9.57.89,1.12,2.89,1.6,5.53,1.11.57.54.94V230l.32,0,.52.42.68,1.51,0,.91-.41.68-.51.08-.9,1.07-1.47,1-1.79,2,.06.89.38.44.68.08,0-.36,2.11.83,1.09.08,1.53.52,2.52,2.21,2.58.7,1.88,1.87.4.65,0,.39-.82,1-3.56,2.37-5.24,1.14-.24.57-3.64,2.05-2.34.29-.79-.86-1.27-.49-9.32,2.05-.82.34-.43.7-9.38,0-.06,6.86,3.73-.05,1.46.26,6.74,7.19.49,1.48,1.25,7.14h0L398,282.85l-1,1.43-.41,2.49-1,2.75,0,.49-.3.31-1.11-.36-.44.21-2.21,4.22-.05.29.9,1.32-1.74,2.54-.33,1-3.08,3-1.25.75-3.37,3.11-.57.16-.19.36-2.47,2-.41,0-.6-.54-.33.08-.09.36.27.49-.81.65-.38.65-1.14.83-1.74.7-1.33,1.29-1.49.44-1.47,0-4.32,3.7-.76-.8-.57-.18-3.92,1.86-1.08.88-.73-.9-.54-.08-2.29.49-.4.39-1.85,2.87-5.24,16.19-1.06,2.89-.58.83L329,347l-2.34.9h0l-3.07-2.63-8-7.95h0l-3.81-3.77-4.65-3.07L297.33,328l-11,1.88-1.08-.62-1.16-1.45h0l.22-.21-.27-.49,1.08-1-1.41-1.34-.41,0-.17.21-.13-.23.49-.54.17-.7-.27-5-1.63-3.1,0-1.53,5.41-3.26.81-1.86,7.18-4.24,1.87-.05.73-.39.49-.34,1-1.71,3.2-2,20.44-14.4,1.6-.23,1-.57,6.12-5.5.3-1-.51-.88-.09-1.22-.41.23-.57,0,.14-1.38.6-.16.14.39.19-.42.73-.21.74-.67,1.41-3.27,1-1.35,4.81-.29.67-.29,5.36-5.12.17-.26-.65-.7.55-.55.57.52-.24.18.19.16,4.48-4.6,10.59-3.07,1.49-1.33h.46l1.57-1.56-5-8.06-2.83-2.08-.06-.23.58-.21-.74-1-1,.18.27-26.71,10.57-17.2,1-.6,6.25-.78.46-.08.16-.33Z" style="fill:#e5e5e5;stroke:#fff;stroke-miterlimit:10"/><path d="M352.38,197.2l.1.34-.33,0-1.41-.55.22-.24h.92l.5.42ZM345.91,196l-.7-.31.17-.13.52.18V196Zm-19.24-31-.22-.26.16-.52.27.31Zm-1.38-10.49-.3-.87.13-.18.3.89-.13.16ZM320.8,132.8l.41.76.59.24.71-.18.84.87.35,1.55,1,2-3.05-.21-.33-1-1-1.5L320,133l.09-.21Zm-5.56.16.21.76-.14.34-.55-.18-.65.39-.44-.13-4.1,1.18-13,11.45-.08.68-.74.6-.36-.26-.55.45.73.29.57-.45.11.13-.6.5-1-.29-5.62,4.88h0l-.65-.87h0l5.51-4.83-.09-.58.73-.39-.59.5.1.34,14.79-13.05.67-.37,4-1.1.1-.18.51.31.6-.16.14-.24.34.28Zm-41.49-61.5,4.19.79.22.13.19,1.19-.73.45-.49.69-.71-.32.3.55-.66-.26-1.25-.05-2.36.66-1.22,1.24-2,1.35-2.63,1.21-5.84,2.06L258,82.55l-.28.63,1,2.48-.3.37-.9.16-.27.34-.08,1.4.43.18-.3,1-3.86,1.58L251.3,93l-1,.47-2.14-.18-1.34.24L244,95.1l-.79.05-.52-.42-.78-1.48,0-.76,9-5.67,1.36-1.21,3.35-3.93,2.41-2,9.3-6.34,2.15-.61,3.15-1.32Zm11.13,4.6-.51.74-.66.11L282.87,78l-.36.13-.71-.34-.89.16,0-.53.57,0,.33-.4-.41-.74-.68-.21,1.5-1.48.16-.4,1.46-1.06.92-1.19.54-.34.95-.05.47,1-.11.79L285.76,75l-.88,1.11Zm7.59-27.23-.1-.21.36-.42-.26.63Zm158.46-4.5-3.69,5.38.13,3.36.81,2.38.54.85,1.14,1,5.22,1.43.68.37.59.9.44,1.67.7.85,1.11-.13,1.85-1.3,2.63.63,2.9,1.27-.84,7.32.06.24,1.49.34.41.63-.93,1.08-1.38.5-.49.79-.08.92-.47.55-.19,1.11-.24.19-1.23-.37-1.17.69-.28,3,.54,1.56-.08.92h-.44l-.38.4-.41-.53-.3,0-.41.84-.68.61.08.74-.27.55-1,.37.46.66-.1.4-.71.58.22.74-.06,1.29-2.74.45.44,1.66,1.3,1,.25,1.27.68.92-.25,1.18-.51.58-.24,1-.74,1.24-1,.84-.57.9-1,.11-.47.32-.22,1.4-1,1-.25.84-2,3.74-.44,2.77-.25,6.66,2.83,3.53,2,1.76,5.21.79,4.37-.18,2.31,1.24,1.16,1.13.93,1.47,3.8,1.52h0l-1.28,3.52,9.43,3.57-.68,8.93,10.35,16.08L483,170.83l-9.37,6.7-5-5.1-6.5-.63-1,.08-1.16.73-.73,1.41-2,1.6L453,181.48l-6.65,4.26-6.66,5.15h0l-2,1.65-1.92,1.23-.85.08-.79.44-.6.63-.71.13-2.06-.24-1.79.73.52,2.61-.32.57-2.39,1.46-1.34.55-.71-1.44-1.8.24-1.31.44-.49.42-.52,0-.68-.13-.81-.73-.6-.13-.74-2-.92-1.36-.49-2-2.14.47-.7.47-.19.39.17,1-1.47-.6-.76.31-1.65.21-.06.55-.65.31.24.44-.19.29,0,1.31-1.42.94-.81,1.23-1.38.86-.6.94-3.31,1.57-.76-.08-1.46-.78-.74,0-.57-.34-1.49.05-.85-.44-.62.57h-.38l-.35-1.07-1.93-1.1-.24-.39-3.78,2.64h0l-.59.34-1-3.79-5.73-5.8-3.17-1,1,3-1.08.44-1.25-1.23-1.58-.31h0l.11-1.12-.4.44h-.3l-.27-.34-.49.47-.38-.39.06-.78-.38-.31-2.07-.31-1.92.1.32-.91-.21-.08-.35,1.05-.54.1,0,.55-.51-.42-1.17.13-.09-.34-.63-.5.38-.31L366,190.7l-1.77-1.31-1,.26-3.2,2.2-2.21-.31-2.83.65-.38.71-.33,1.7-.35.37-1.88,1.1-2.26.47-.78-.1-3.51-1.36-6.55-3-4-1.2-1-.08-.49.24-.11.6-1.52.13-2.26.76-1.41-.5-2.94-1.7-2.42-2.61-2-1.49-.81-.94.25-.5-.11-.26-.74-.13-1.09-1.8.74-.65.47-.94,1.57-1.81,2.25-1,.65-.65,1.63-.45.87-1.23.16-2.67-.32-.55-.52-3.59-.87-1,.84-.73.54.16.41-.29-.08-.24-.58,0,.06-.24.62,0,.24.31.22-.24,0-1.83.14-.18.32.34,0-.29L327,164l-.06-.65-.51.18-.25-.16,1.17-.29.16-1.21-.85-3.17-.33-.37-.3-1.13.08-.55-.32-.18-.22-1.39.06-2.57-.41-.47,1.38-2.33-.33-.52.38-2.18-.4.13-1-.52.19-1.18-.44-.26.16-.29h.57l.11-1.1.21.37.22,0-.49-1.44.28-2.49-.47,1.76-.08,2.05-.6.42-.41-.45-.06-.89-.6-1.26-.44-.71-1.11-1-.25-1.55.22-.21h1l.19.68.63,0v-.68l.67-.05.49.79.73-.1-.74-1.76-.57-.66-.46-1-.3-1.18.22-.89-.22-1.05-1.44-3.13-.27-.13-.59.13-4,3.73-1.11.53-.27.5-.47-.05-.44-1.47.21-.24.33.21.92-.29.62-.42,4.42-4.28.3-.42.44-2.13-.33-.58.09-.32,2.56-1.55,1.35-1.76.9-3.24.44-5.9.49-2.21-.05-1.11-.85-.47-.21-.58.57-.58.19-.55,1.14-.63.19-.66-.24-.16,1.27-3.87.74-1.37.63-1.9L333.05,95l2.37-2.11,3.12-3.53,1.3-.53,1.87-1.45,1.9-1.08.36-.45,1.71-.95,1.55-1.9,2.86-2.64,1-2.69,4.4-4.44,4.46-2.3,2-.42,5.95-2.25,1.47-.29,1.42-.71,1.06,0,1.71-1.24,9.89-5.79L387,58.72l1.49-.87.67-.13.43-.45,2.31-.61,1.82-1.27,3.42-1.9,2.41-.79.9-1,1.69-.48.71-.45-1.71-2.46.11-.24.44.61.35-.37.3.66-.22.34.9,1.27,1.28.21,1-.56,2.29.32,4.56-1.35,1.88-.85,1.93-.26.24-.5.43.45,2.36-.42,4.21-1.35,4.26-.34,4.1-.74,2.55.69.28-.69.32.69.67-1,.32.48,1.46,0,5.17.93,6.28-3,1.06-.08,1.25,1ZM345.67,34.89l-1.84.16-.17.32.27.32,4.22-.58.63.08.36.72-.47,1.83-2.44,1.4-.74.21-1.11.24-.3-.13.14-.21-.17-.13-.27.21-.36-.11-1.85,1.43-2.77,1.43-1.47-.21-.84-.77-.11.66.41.72,0,.87L335.23,43,334,42.05l-.87-.16-.11.34.19.21,1.95,1.38,2.45.93-.3.37-.47-.34-.43.13-.35.4.3.26-.44.29-1.49.34L327.85,46l-2.09.13-2.47.64-1.3.58-3,3-1.85,1.24-1.08.42-.79.05-1.42,1L312,52.43l-.38.74-1,.5h-.79l-.46.64-.14.63-1.42-.16-1.47-.56-1.58.56-1.38-.42-2.47,2.17-.11-.26-.63-.29-2.61.32-.66.9.08,1.27-.22.19.24.45-.55.08-.6-.48h-.65l-.25.4-.78.42-.9,1.22-.82.4-.7.87-1.87-.45L287.43,60l-.22-.37-.44-2.2V56.36l.89-1.11L290.18,53l1.57-2.33.62-1.56h.19l-.17.79.27,0,.17-1,.68-.79-.08-.19-.61.07.46-.32,16.84-3.15,3-.74.43.37.82-.11,15.4-5,.74-.74,3.09-.87,9.56-3.84,3.12-.58L348,33l.78.16.27.34,0,.58-.3.37-3,.42Zm84.71-3.36.27,2.12-.4-.69-.47.61-1.19.58-.51.66-.87-.42-.33-1.48.92-1.35,1.23.11,1.23-.29.12.15Zm-53.55-.06,8.47-.34L396,29.91l2.26.4,11.24-.58,5.87.24,1.08.19.67.66-.32.64-.59.32-1.6.34L410.87,32l-1.38.21-3.35-.29-2.22,1-.74.61-2.52.64-.49,0-1.31.64-4.38.95-.25.27-4.38,1.22-2.93-.16-1.55.27-.16-.13-.09.93-.32.34-.35-.19.28-.21,0-1.3-3.13-.19-2.94-.74-1.6.11-.58.4L376,37.57l-2.21,1.7-2.39.72-1.33.72-2,.11,0,.87-.46.37-.92-.27-2.29-1.54-2.23-1L361,37.89l-1.42-2.28L359.53,34l.68-3.34.68-1.14.76-.61,1-.34,1.52,0,3.37,1.35,5.55,1.3,3.79.26Zm67.63-13,1.42.27,1.55,1.46,2.15.37,2.36.11L463.52,19l6.44-.61,5.78-.24.29.45-.25.66-2.52,1.3-1.5.64-1.66.29-3.58,1.72-1.93.35-1.06,1.33-4,1.86-1,.24-3.13.08-3.64.82.81,1-.06.27-.78-.48-.35-.64h-4.23l0,1-.33,0-.16-1-1.08.21-.3.69-.41.19.41.56L444,29.57l-.43.34.43.61-.3.24-.06.45.51.72-1,.19-1.42-.53-.84.08-1.12,1.51-.52.08-.63-.27-.05-.21.4-1.14.27-2.2.52-1.8,1.14-2.23,1.42-2.07,3.09-2.76.79-.32-.24-.37L440,18.51l-1.17,3-.7.05-.33-.21.11-1L439,17.84H441Z" style="fill:#e5e5e5;stroke:#fff;stroke-miterlimit:10"/><path d="M399.06,278l2.15-.8,2.46,2.18,2.1,2.62,1.11,1.89,1.65,3.5L409,289l1.2-.55.62.57,2-1.5.93-.23,1.37,2,6.89-7.13,1.71-.6.67-.54.44-.78,1,.54.62.08,3,2.39,1,2.46.81,1.22,1.26,1L435,289l1.35,1.63.43,1.27.19,2.82-.16,2.44.61.8,1.25.93,2.35,3.47.9,2.59.09,1-.88,3.41-.7,1.4-.05,2.43-.34.72-.42.47-2.89,1.11-3.14.6-.63.87,0,.93.29.6.36.31,1.26.28.5.42.22.54-.87.72-1.6.49-.4.68.21,2.61-.22,2.53-.26,1.83-.63.78,0,.51,1.57.21.54,1.19.09,2.81,1.06.34,1.65,0,.33.6.45,1.44.82,1.16.13,2.5,1.51,1.86.45,2,.88.78-.91,1.31v1l1.8.41.89.64,2-.18.08.52-.27.9-1.11.72-.33.85.43,1.65,1.07.78,1.35.33.42.75,0,.82.34.31.29-.31,0-.46-.57-.67-.3-.85.62.26.12-.24-.33-.25.37-.67.72.77.15-1.52.22-.9.22-.11.71.08.65-.28,1,.31,1.74-.08,2.31,1.73,2.44.33,1.09.41,1.09,0,.43.33,2.09-.18,1.53.44.08-.75,1,.36.37-.51,1.83-.49.13.41.48.1.11.44.49.44,3.27,0,1.27-.36,1.39-.06.09-2.19,1.05-.69.63-.11.32-.69,3-.18,1.76-.75.9.44,2-.13,2.58.31-.05,1.29,1.11,1.57.65,1.86,3.19,3.34,1.3,2.63.94.36,1,.05.32.31.07,1.42.87,2,.53.69,1.53.75.52.51.54.18,3-1.08,6.29,1,5.69-1.16.11-.26.48.29.05.41,1,.41.31.62.7.49-.51,1,.11.42,1.33,1.23,1.33-1,.67-.23.27-.83.38-.31.84.26.77,1.08.78-1.36.66,0,3.26,1.72.44.41.29.85,0,.62-.51.75.44.23,0,1.41.21.72-.21,1.65-1.68,2.7,2.33,1.08,3.45.64,2.71,1.26,7.13-.05h0l-.68,5.32-.55.87-.14-.36-.4-.15-.92.87.14.67.75.72,0,.72-2,2.44-6.73,1.13.35.67-.09.77-1,2.08-.54.23-.06,1,.24.28,0,3h4.32l6.15,3,1.54,1.36.52,1.06,1.08.43,5.38,4.41V413l.29.33,2.86.44.51,1.64-.16,1.79.52,2.05-.3,1.11-.46.81-2.1.08-.78.74-1.66.59-.44,3.28,0,2.18-1.66,1.69.36.41-2.51,3.07-2.9,1.2,0,.9-.32.33-2.34.82-.76,1.4-1.49.72-2.62-2.07L532,436l-.11-1-.39.2-.32-.13-.56-1.38-.79,0-.76-.46-.77.23-6.3,3-1,1.05-.56.05-.79-.28-7.32,2.45-1.9,1.31-1.17,1.12-.46,0-.7-.95-1.2.49-1.17,1.25-1.57,1-1.8.75-1.49,1-.46.44,0,.74-.67.95-3.21.86-1.36.8-.85-.31-1.6-2.15-.7-.59-.85.7-1.95,1-.5-.41-.29-1.43-1.71-.57-.41-.61-2.61-.23-.81-.74-.35.15.13.67-.62,1.74.11.35L484.5,449l1.17.3.08.41-1.21,1.69v1l.71,1.48-.08.18-.6-.16.52,1.77-.14.41-.51.17-2.66-1.76-2.46-.07-1-.46.22-.69-.6-1.51-1.14-1-4.72-.62-2.92.28-.81-3.65-.41-.26.19-.76-1.7-.82-.79-.1-.55-.54-1.2-.18-.7.28-.69.92-1.27.39-2.57-.05-.69-.23-2.9.35-.76-.18-2-1.15-2.21-2.27-.11-1,1.21-.23-.39-.46.05-.54-3.39-2.58-.21.48-1.88-1.18-3.61.62-1.07.82-1.17-.92-.57,1.12-.51-.3-.32.3.07.67-.79.64,2.45.05,1.68,1.2,1.1.51.87,2.43.1,1.41,3.08,2.48-.06,1.53.35,3.52-3.39-1.22-2.37-.51-2.72.1-2-.46-1.3-.64-2.49-2.22-1.8-1.13-.87,1.61-1,.44.37.84-.15.56-1.88,1.05L426,452.31l-.52-.54-1.87.69-.81,1.61L421,455l-2.3.26-1.48-.56-1.21-.1-1.31-.82L412.09,457l2.1,1.63-.51.66-.23-.18-.22.23-.37-.28-.19.16-.25-.23-.29.33.1.51,2.69,1.45.58,1,1.63,1.27.07.36-.57.36.36.38-.6,1.17.51,1.05,1,0,.72.49.47-.16.17.26-1,1.05-.17,1.35,1.09,1.25-.08.74-4.83,3.59-.54.16-.33.43v1.27h-.6l-.16.49-.35.18-1.82.12-.65-.68,0-.46-.67-.59-1.12-.56h-.68l-.52-2.86-3-3.82-1-.18-3.28.43-.06.59.86,3.14-.89.94h0l-2.37-.43-7.14.79-3.83,1-2.31,0-1.09-.23-1.3-.64-.93-.79-.83-1.33.18-.15-.43-.74-1.2-1.22-.71-.41-3-.51-.76-.74-1.13-1.94-1.2-1.15-3-.51-1.69-1.07-1.09-1.61-.94-2.78-1-1.15-.81-.23-2,.05-.9-.36-2.65-1.73-2-.49-1.92.39-2.8.2-.71.61-1.17,1.94-1,.31-3.29-.82-2.43-2.42-1-.51h-.59l-1.54.66-.57,1.1-.23,1.45-.68,1-.87.62-2,.48-1,.15-2.2-.2-1.58-.66-1.46-2.07-.5-.33-1.3,0-.49.41-.79,1.43-1.87,2.4-2.75,4.67-1,3.26-.15,3.35-.61,1.07-.8.58-5,2.3-3.18,2.19-.74.05-2.12-.76-1.76-.16-1.12.39-1.22,1-1,.33-1.16-.44L299,478.11l-1.14-.49-.9-.1-3.72.81-3.14-.76-2.05.08-5.59,1.42-.06-1.86,1.83-1.53.7-1-.74-.64-.29-.66.07-1,.47-1.35-.11-.74-3.61-1.76-1.6-1.66-.79-.41-1-.15-.92.4-1.54,1.64-1.12.15-.57-.23-1.39-1.53-.7-1.48-.79-.54,0-.71-.37-.38-4.24-1.94-1.22-1.07-.85-2.07-.93-.67h0l2.37.05,1-5-3.4-.46-1-1.58.34-1.41-.58-1.86.41-.43,1.8,1.58,4-.1,1.53.61.52-.59,1.79-.71.59-.56-1.09-.67-.4-.87L271,445l1.3-.64,1.92,0,1.1-.62,1.05-1.56.17-1.25.45-.36.94.29,1-.26,1.7.41.36-.69.29-2.18,2.19-4.06.75.35-.1-1.61,2-2.94-.13-.64.46-.1,4.57-8.71h0l2.17,1.41,2,.44.85-.21,1.13-1,1.39-2.69.68-.84,1.2-.31,1.25.74,1.85,1.92,1.76,1,2,.54,2.56.33,2.45,1.64,1.35.08,1.93-1,1.57-2,1.25-.87,1.34-.21,2.3.49,1.51-.1,5-1.9,2.08-1.76,1-.57,4.32.85,2.79-.31.91.23,2.16,1.31,1,.95,5.11,1.89,1.14,1.82,1.14.9,1.23.53,4.1,1.05,2.68,1.8,1.59-1.41.91.51-.07-1.31.94-.23v-1.53l-.69-1.67,0-.69.41-.64.17-1.08-1.6-1.89-.35-2.1-.68-1.06-1-.2L356.67,412l-.65-.69-.14-1.64-.27-.44-.49-.54-.38.41-1.55-1.69.87,0,.21-4.49-3-1.13.21-1.77-1.21-.52.56-1.51.39-3.78-.17-.35.46-1.9-.26-2-.44,0-.52-.62-.13-1.85-.6-.41.3-.72-.27-1.47-1.07.16.08.49-.34.07-.41-.48-1.41.36.11.66.48.16v.36l.4.33-.44,1,.85.23-.08.67-.11.51-1.28-.38-.51.9,1.05.43L345.39,392l-1.32-.28-1.4.1-.41,1.39-1.86,0-1.34.47L336.34,392l-.1-.49-.63-.15-.3-.34,1.71-2.18,2.28-1.44-.21-2.67,1.38-1.34.08-.49-1.11-.72,3.27.34v-.36l-.66-.36,0-.88-.77-.25-.73-.9.36.07.22-1.44,1.73-.25.77-1.49-2.13-1.06-.11-.38.3-1.5-1.63-.05-1.28-.56.22-1.73-.45-.15.1-.54-1-.44-.08-.39-6-.82-2.52-.9.13-.93-.26-1.54-.52-.52.68-.54,1.19.36.65-.54.41-2-.05-1.52-6.47-5.28,1.82-7.83h0l2.34-.9,17.58-5,.59-.83,1.06-2.89L353.4,322l1.85-2.87.39-.38,2.3-.5.54.08.72.91,1.08-.88,3.92-1.86.57.18.76.8,4.32-3.7,1.47,0,1.49-.44,1.33-1.3,1.74-.69,1.14-.83.38-.65.81-.64-.27-.5.09-.36.34-.08.6.55.41,0,2.47-2,.19-.36.57-.16,3.37-3.1,1.25-.75,3.08-3,.33-1,1.75-2.54-.91-1.32,0-.29,2.22-4.22.44-.21,1.11.37.3-.31,0-.5,1-2.74.41-2.49,1-1.43Z" style="fill:#e5e5e5;stroke:#fff;stroke-miterlimit:10"/><path d="M545.7,32.08l.65.42.74-.08,2-1.88.52-.19,2.75,1.11.33.93-.06.74-.33.56-2.75-.56-.11.5,2.47.61-.17.72-1.28-.24-.16.42,2.09.5,1.08-.13,1.19.32.11-.53-1.28-.24-.25-.29.67-2.54,3.1,1,3.5,3.34-.08,1.25-1.25,3.52L559,45l.89.9,1.41,2.41-.43.69.57.24.21.48-.21,2.78.9,2.7,0,1.27.89,3.94.33.56h1l2.88,2.56.67.87.79.11V65l-.59.13L568,66.39l1.65.53.43.61.54-.08,1.93.71.52.4.87,0,.84.26L577.25,70l.84.19,1.09,1,1.12.66,2.59,1,2.07-.08,1,.34.38.42,4.68-.11.66-1,1.8-.34.59-.66h.43l0,.69-.43.13-1,1.29-.93.71-.33,2.35.28,1.87L590.9,82l.08,1,.57.29.08.74.46.53,1.14.55.4.47.63.08.29.55,2,.08.74-.26,0,.42.19,0,2.48.11,1.61,1.19,1.87.5,1.09-.42L606.06,89l1.87.34.43.37,2.86.71.25.24.3-.26-.22-.61.47-1.16.54,3.72-.06,1.19.66,2,.21,4.72-.24.79-1,1.16-.25.66,2.91,2.13.05.61-2.47,1.11-1.31.05L609.37,110l0,.66-.41.82-.06,2.53-1,1.84-.55.37.63,4.39,2.85,2.1-.33,8.75,2.06,17.36.81,2.07-1.28,1.6-3.92,13.71-.24,1.55-12.14,20.13-2.63,3.37-.35.76.79,3h0l-3.18.16.14-1.49.4-1.23-.17-.1-.65.37-.43-.13-.62-.89-.41-.16-2.34-3.42-.59.05-.49-1.86-3.77-.39L585.93,175l-3.34-.89-1.34-1.39-.19,0-8.2-12.39-4.51-6.21-7.53-7.58-9-10.29-2.5-2.34-3.13-3.6-6.8-7-.79-1.13-1.25-.84-6.57-.34-2.72.74-6.54,3,0-1.81-.68-.34-.36-1.24-.7-.55-1.06-2.92-.71-.26-.79-1-2-1.79h-1.31l-.49-1.92v-1l-.7-1.18-.38,0-2,.87-1.14-3.19-2.34-4.08-.6,0,.06-.53-1.06-2.06-1.11,0-4.29-1.87-1.33.34L497,100l-2.67.87-2.67.53-.09.92-1.39,1.34-1.12.29-.17.32-2.18,1.48-1.55.66-.27.53-.22,2-.71.74-.62.21-1.08,1.76-1,1-.27,1.79-2.42,6.42-.36,3.37-1.17.37-2,5.28-4.34-1.6h0l-3.8-1.52-.93-1.47-1.16-1.13-2.31-1.24-4.37.18-5.21-.79-2-1.76L448.12,117l.25-6.66.44-2.77,2-3.74.25-.84,1-1,.22-1.4.47-.32.95-.11.57-.9,1-.84.74-1.24.24-1,.51-.58.22-1.19-.68-.92-.25-1.27-1.3-1-.44-1.66,2.74-.45.06-1.29-.22-.74.71-.58.1-.4-.46-.66,1-.37.27-.55-.08-.74.68-.61.41-.84.3,0,.41.53.38-.4h.44l.08-.92L460.65,80l.28-3,1.17-.69,1.23.37.24-.19.19-1.11.47-.55.08-.92.49-.79,1.38-.5.93-1.08-.41-.63-1.49-.34-.06-.24.84-7.32-2.9-1.27L460.46,61l-1.85,1.3-1.11.13-.7-.85-.44-1.67-.59-.9-.68-.37-5.22-1.43-1.14-.95-.54-.85-.81-2.38-.13-3.36,3.69-5.38h0l.57-.32.82-.08.27.26-.3.34.08.4.63,0,6-1.77,1.54-.11,1.33.4,5.19,2.91.79.53,1.33,2h.24l2.29-1.43,1.8-1.62,4.81-2.2,4.48-1.72,6.65-1.11,19.67-2.25,4.75-1.38,2.8-1.11,2.41-1.33L523.56,33,531,30.52l7.12-.88h1.72l4,1.3,1.82,1.14ZM485,15.32l.74.13-.08.66-2.15-.29-1.69.11-.22-.42.28-.45.89-.08,2.23.34Zm28.25-1.54h.93l.17.19-.08.29-.54.24.13.53-.17.19-2.18-.8-.36-.56.14-.42,1.06-.13.9.47ZM518,9.26l.08.32-.19.21-1.44-.48-.79.19-.09.56.93.8-.05.58L513.19,9.9l-.65-.13-1.91.37-.38-.5.06-.42.93-1.12,1-.29,3.42.37ZM498.5,8.62l1.44.11,1.12.48,2.71,2.26,0,.37-.54.08-2-.66-.63.11-.82-1-.19,0-.33.45.3,1.06-.3.56-1.58,0-.79-.31-.85.58.6.69-.11.58-.78.53-1.39-.4-.71-.58-.35-2.1-1.87-1.33-.65-1-.1-1.94.87-2.52.6.08.68,2.31,5.74,1.52Z" style="fill:#e5e5e5;stroke:#fff;stroke-miterlimit:10"/><path d="M399.38,474l.89-.94-.86-3.14.06-.59,3.28-.43,1,.18,3,3.82.52,2.86h.68l1.12.56.67.59,0,.46.65.68,1.82-.12.35-.18.16-.49h.6l.28,1.43,6,.15,1.77,1.3,3.39,1.46.92.94.5,1.2.32.23.35-.31.76.59.08.4-.29.74-1.25-.15-.36.15-.79.49-.19.73.28,1.69.62.73.11.79.05.89-.76.92.38,1.55-.11,1.05.38.94,1.26.81,2.17.61,3.72,1.48.22.46.95-.33.36.28v.43h1.38l3.26.81,0,1.56-.49.79-.35.17-.92,3.69-.28.05-.92,2.82-.6-.28v1.86l-.44,2.16,2.45,1.73,2.3,2,1,1.9,1.71,1.88,2.57,2.26,1,1.2,1.5,3.75,1.25,2.47,1.6,1.06,1.79,1.6,2.26,4,0,5.29.79,1.78.82,3.17-.74,5.37,0,1-.64.06-.19.3-.06,4.58-1.19,7,3.14-.15,0,.45-1.85,3,1.87,6.45-5.62,5.18-.06.35.45,1.14-3.83.83,0,.88-.87,1-.51,1.09-.06,1.16-.73,1.16-.08,1L443.37,591l-2.2,2.8-.89,2.09-.11.84-6,6.63-2.1,1.29,2.24,4.78-.2.38-1.78-.1-.82.4-.05.36.45,2.74.55,6.48,1.41,2.74,1,.33,1.68.07.46-.45.6-.1,1-.68,1.51-1.59,6.77-3.27,1,.58,1.62,1.46-6.51,3-.19.3,5.45,3.4.12.4-1.94,1.34-.08,1-.62,0-.43.25-1.29-.13-2.57,1-.5-.25-.72.4-.46.68-2.21,1.13-2.41.43-.61,1.71-.37.2.1.78-.37.07-.45-.55-.18,1-.54.22-.5.63-1.82.58-.65.45-.21,1.28-2,2.27-1.83,1.4-1.76.53-.7-.43-.24.61-.71.1-.63,1-1.87,1.44-.95,1.9-1.47.53.26.81-.84,1.33-.87.75.08.65-.37.68.22.55-.28.51,0,1.68-1,.65-.76.17.3,1.41-.6.2-.45-.45-1.28,0-1.2.43-.25-1.33-1.54-2.16-1-3.36-.84-1-3.52,3.26-4.18.58.28,1.56,1.89,2.31-.26,1.25-.54,0-.09.45,1,2.56.94,1.18,1.67.78,0,1.48,1.47.65-.38,1.76.16,1.8-1.63,1.81.74,1.45,1.14.07,2.55-1,2.05-1.63,3.12-.7.24.05.3.67,1.2.83.38.68,1-.23.36-.38,1-.37,6.86-.23.21.48-1.79,4.64-.35.57-1.22,1,1.82,1.13-.06,1.12.52,3.49,3.58,1,.6.48.85-.3.69.65-.18,1.23,2.06.22.71-.5.46,0,1.39.45.86,1,.41-.77.52-.25-.22,1-1,.65-.2.77-.65.63-1.08,4.1.27,1.4,1.17,1.68.76,1.85-.41.58-.25,1.25-.41.2-.15.47-.68.78-.47,3.37-.75-.1-1.83-1.2-.32-1-4.41,2.23-1.06.37-.35-.07-.11,3.47.54.82.44.2,0,.48.65,1.5-.55.47-.29,0,.27.77-1.47,1.43-.85,1.37-.37.22-.76.2-.6-.55-1.07-.5-.65-.72-.64-.1-.76.58-.8,1.24-.13,1.5,2,.6,1.23.93.65,1.44,4.4,2.7,0,.4-1.06,2.07-.54.45.68,1.62-.74,0-2.37.55-3.17-.1-.57-.22-.13-1-.66-.75-1.69-.4-4.58,1.47-1.29,1.1-1.18.38-.09-1-.35-.1-1.36.15-.7.85-1.93-1.4,0-1.42-.6-1.67-3.77,1.94-1.66,1.72-.28-.07-.68-2.42-2.09,1.35h-1.55l-1,.54-1.1.23-2.58-3.64-1.16.65-.22-.08-1.34-3.54-1.59.27-3.23,3.72-.85,1.57h-1.8l-1.33-.92-.84,1-1.76.3-.9.84-1-.17-.54-.45-.78,0,.13-1,2-2.75.76-2.37-.07-.65L372,716.46l0-.52,1-1.48,0-.47-.9-1.42-2.12-.18-.25-1h-.9l-.4-.42-.9.1-1.28-.6-.21-.33.21-.35-.13-.47-.63-.73-.38.15.3-1.32-1.11-1.4.27-.4-.51-.25,0-.8-.36-.52.14-.8.28-.3-.28-.9.38-.65-.16-1.18.14-.27-.3-.43,1.14-1-.6-.75.41-.55.78-.13,2.8-1.77h1.33l.57-1.68,1.42-1.28.52-.77.35-2.88.49-.73,1.2-.25,1.65,1,.82-.42.49-.93v-1.85l.46-1.38,1.9-2.4.89-2.8,1.72-.86,0-1.05-.43-.9-.52-.48-1.11-.2-1.27,1.11-1.2.3-1.08-.58-.14-1.28,2.09-2.48.55-1.4,1.71-1,1.52-2.55.93-.83.37-.68.16-.62-.15-2.41,1.46-2.71.1-.63-.64-1.1-2-.85-.19-.73,1.06-1.73,1.06-2.56.13-2.47.24-.4h.88l1.9,1,1-.2.4-.51,0-.67-.57-2.16.38-.66.83-.65.11-.45-.4-1-1-1.25-.06-.76.9-.88,1.23-.32,2.33.93,1.06-.93L394,641l.22-1.43-.65-1-.63-.27-1.73,0-.77-.45-.22-1,.25-.91,2.25-2.76.57-.28,2.07-.25.73-2.29,1.55-1.08L394.66,627l.21-.88-.67-.56-.09-.8-.73-.55-.57-.91-1.29,1.21-.31,1h-.38l-.85-.83-.3,0-.62.89-.74.42-.71,0-1.35,1.14-.85.22-.38-.93.16-.55.47-.51v-.75l-.47-.1-.05-.58-.73.15-.17-.75v-.43l1-.3.13-.26-.78-.17.4-1.36-1.47-1.51-2-.38-1.38-.83-.63.5-.14.38-.59-.3-.66.4-.67-.25-.22.3-1.33,0-1.23,1-1.25-.45-.26-.3-.6-.08-.14.3-.4,0-.53-.55-1.95.57-.25-.47-.57-.28-1.25-.1-.87.22-1-1.61-.05-.42.38-.28-.36-.88-1.85-1-12-4.91h0l4.62-1.41,0,.55,4-2,.73-4.33.24-6.18,7-10,32.14-10,9.29-8-9.59-16.35-1.86-10.57-1.21-3.09-2.33-16.06,8.4,1.65,2.66,2.11,5.21-.54,4.86-1.57,5.55-2.28,1.93,1.54,2,2.44.92-.89.3,0,.46.38.46-.43.41,0,.06-.28-.73-.84-.47-1.06,0-4.27-1.66-2.44-.47-1.17L424.4,513l.09-2.37-.5-1.73L420,505l-3.48-2.13-.46-.51-.25-1.27,1.2-2.42,0-1.17-1-.46h-1.72l-.57-.58-.07-.87,1.25-1.93-1.1-4.38-.34-3.08-.61-.56-2.28-1-4.38-.59-1-.23-1.7-.84-1.1-1.4-.34-2.65-.73-3Z" style="fill:#e5e5e5;stroke:#fff;stroke-miterlimit:10"/><path d="M262.73,457.82l.93.66.85,2.07,1.22,1.07,4.24,1.94.36.38,0,.71.79.54.7,1.48,1.39,1.53.57.23,1.12-.15,1.54-1.63.92-.41,1,.15.79.41,1.6,1.66,3.61,1.76.11.74-.47,1.35-.06,1,.29.66.74.64-.7,1-1.84,1.53.06,1.86,5.59-1.43,2.06-.08,3.13.76,3.72-.82.9.1,1.14.48,1.65,1.48,1.16.43,1-.33,1.22-1,1.12-.38,1.76.15,2.12.76.74-.05,3.18-2.19,5-2.29.79-.59.62-1.07.14-3.34,1-3.26,2.75-4.67,1.87-2.4.79-1.43.49-.41,1.3,0,.51.33,1.46,2.07,1.58.66,2.2.2,1-.15,2-.49.87-.61.68-1,.24-1.46.57-1.1,1.54-.66h.59l1,.51,2.44,2.43,3.29.82,1-.31,1.17-1.94.71-.61,2.8-.2,1.92-.38,2,.48,2.66,1.74.9.36,2,0,.81.23,1,1.15.93,2.78,1.09,1.61,1.69,1.07,3,.51,1.2,1.15,1.12,1.94.76.74,3,.51.71.41,1.2,1.22.43.74-.17.15.82,1.33.93.79,1.3.64,1.09.23,2.31,0,3.83-1,7.14-.79,2.37.43h0l2,1.91.73,3,.33,2.65,1.11,1.4,1.69.84,1,.23,4.38.59,2.28,1,.62.56.33,3.08,1.11,4.38-1.25,1.93.06.87.57.58h1.72l1,.46,0,1.17-1.2,2.42.25,1.27.46.51,3.48,2.14,4,3.89.51,1.73-.09,2.36.22,1.73.48,1.17,1.66,2.44,0,4.27.47,1.07.73.84-.06.28-.41,0-.46.43-.46-.38-.3,0-.92.89-2-2.44-1.93-1.55-5.55,2.29-4.86,1.57-5.21.53-2.66-2.11-8.4-1.65,2.33,16.06,1.22,3.09,1.85,10.57,9.59,16.35-9.29,8-32.14,10-7,10-.24,6.18-.73,4.34-4,2,0-.55-4.62,1.41h0l-.6-.53-.71-4.92.22-2-.21-1,.22-.28-.08-.68.22-.66-.24-1.24-1.85-1.31-2.77-3-1.17-1.61-.58-1.46-4.05-1.14-.95-.08-.08.33-.71.66-.43,1.29-1.65,1.51-3.85.73-.49,1.49-.89.1-2.6,3.46L323,598.3l-5.84-1.71-.22.2,0,.73-.57,1.46-.81.68-3.51,0-3.21.4-4.78-1.21-3.78,1.29-.63-.28-1.44-1.39,2.36-8.88-.22-.63-6.19-4-4.13,1.36-1.77,1.39-4.46-1.36-.41-8.26-1.16-1-.68-.91-.52-1.44-.63-.88-6.54-7.31,3.35-6.78,1.8-3.06-4.15-9.83-4.45-.13-.78-.2-1.12-1.93.08-1.67-.71-.3-.46.13-1.79,1.47-.76,1.39-1,.86-.57,1.57.41,2.91-.84,1.24.1,1.17-6.22,5.27-1,1-4.57,6-.06-.86-.47,0-.11.53.41.46-1,.46-1.14-.33,1.6-.43-.36-.46-.6.18-.19-.48-1-.71-.24-1.09-1-1-.32-.78-.51,0-.43.58-.35-.68-.93-.18.19-.61-.49.13-.11.35-1.38-.35-.11.35-1.14,1v.61l-.16,0-1.11-.38,0-.71-.95-.08-.48-.33-.81.68-1.17-.53-7.47,1.49-1.66-.71-1.11-.81-.43-1.09,0-1.09-.28-1.17.41-.78.52-.15,1.72-.15.41.81.81.33,1.61.18,1.9.71.85.58,1.12.23,1.22.63,0,.48,1.28,0,0-.3-.47-.25,1-.86-.14-.13-1.06.43-1.38-.1-.13-.2-.7-2.94L235,555l-.41-2,0-.38.7-.53.82-1.24.14-.76.28.48.55.18L238,550l-1.57-1.19.6-2.2.25-2.31-.59-.33-2.56-.43-.29-.66-.17-1.65-.4-.56-2.86-1.17-1.22.13-.92-.2-.6-.91-1.31-.15-1.91.43-.38.63-.87.13-.59.79,0,.66-.55,1.09-2.55,1.34L218.25,546l-.87.61-.06.73-1.93.46-.68,2.1-1,1.75-1.38.3-2.72,1.57.38,4.43-1.63.53-1.17-.43-1.9,1-1.74-.89-8.42-1.57-6.31,2.35L188,552.3l2.72-5.95-1.68-2.46-7.91,1.24-1.3-.2-.89.15-1.58,1.65-3.42.61-8.7,4.81-.57.1-.73.91.85.3,1.41,0,.7,1.11-.17,1.14.47.43-.28.56h-.63l.35,1.21h-.57l-.19.58-1,1.11,1.35,3.31,6.2,8.17-.87,1,.82,1.72-1.44-.28-4.37,2.2-1.82.33-.89-.08-2.61-.66-2.94-.1-.87-4.2-.35-.56-9.19.28h0l-.54-1.59-1-.13-.52-1.14.32-.3-.06-1.49.41-.48-.05-1.32-.76-3.64.62-1.24,1.28-1.16-.78-1.27-6-14.21-2.07-4.36,0-1.95,1-3.09-.11-.25,1.76-4.72.19-1.09-.1-1.45-.17-.68-1.23-2.11-5.22-6.4-.63-1.6-.11-1,.21-2.29,1.14-2.47,1.8-1.78,4.35-1.91,1.68-3.15h0l4.29.51,3.8-.89,2.17-1,3.12-.66,3.29-1.53,1.39-.81,1.39-1.45,1.08-1.78.38-1.65,2-2,.46-1,.89,0,.44-1.15,1-.66,2.17-2,11.88,4,3.48.36,11.87-3.26,2.5-2,10-2.85,4.79-3.39,3.5-3.11,2-2.22.71-1.12,1.53-4.62,2.45-2.91,2.37-1.28,2.2-.71,2.14-.13,4,.61,1.74-.38.93-.38,2.45-1.76,2.86-3,3.73-1.86,1.77-.41h2.61l4.6,1,5.38.83Zm-17.09,101,.14-.2-.17-.23-.4.53.43-.1Zm-4.18,2.58,0-.3-.3,0,0,.28Zm11,2-.16-1.29-.76.38-.84.08.59.58-.66.56,1.83-.31Z" style="fill:#e5e5e5;stroke:#fff;stroke-miterlimit:10"/><path d="M279.44,323.42l-1-.7-.13-.34,1,.52.25.36-.16.16Zm-12.33-1.58-.17-.13.22-.36.57,0Zm6.25-3.75-.22,0,0-.31.28,0Zm-8.7-1.83-.24.05,0-.31.43-.13Zm7.69-68.2-.17-.05.1-.52Zm37.85-15.12,8.62,3.83,7.09,7.5h0l-.36.26h0l-7-7.42-8.23-3.59-2.07.21-.71-.21.27-.36,2.4-.22Zm-94.39-72.61-.6.31-2.8-.24-1.5.13-3.34.81-1.69.92,0,.37.79.45-.55.55-1.39-.1L204,163l-.16-.79.17-.92.73-.76,1.57-.87,1.47-1.31,1.09-.26h1.14l2.23.47,3.42,1.23.11.56Zm55.41,8.52-.16.55-.41-.08-1.57,1.26-.29.65-.09,1.83,1.47-.26,4.08,7.77.4.21.59,1.88L280.53,193,279,211.32l1.22.08.67,1.17.87,3.63,2.34,2.14.54.83,1.55,1.54,1.17.39,1.77,0,1.41-.94.57-.5,1.95-3.21,2.06,0,2.41.31.68.39,1,.18.55.65,1.15.55.89,0,.4-.34.36.18,1.9-.57.43.5-1.5.34,0,.21,2.15-.13,1.06.91.79.31.62,2.22-.46.6.35.73-.33.7.22,1.54.4.26-.11,1.09,2,1.56,1,.08.1.26-.19.26-1-.36-.35.34.13,1-.81.47-.36.57-1.12.05-.14.16.3.26-.81.16,0,.26.79.65-.24.39L307,233l-.44,0-1.17,1-2.1.34-.29.23-.43-.16-1.11.26-.4,1.09L301,237.9,299.84,242l-.79,1.17-3.69,2.06-1,1-.49,1.17-1.33,0-1.46.34-1.14.65-2.33,2.47-2.33.23-2.72.65L282,251l.3-1.09-.95-1.43-2.15.16L277.44,247l-.84-1.17-2.2.65-1.17,1.2-.41-.34L273,247l-.46.29-.9-.08-.13.62.24.34-.49-.16.14-.91-.73-.88-.93,0-1.16,1.25-1.12.18-.57.55-1.06.52-.44,1-.08,1.61.57,3.2-.13.75.3.42-.14.55.29.68-.43,1,.44,1.27.76,1.27-.08.52.81,2.31-.25,1.66,1.91,1.79.17,1.14,1.74,3.12-.11,1.53.73.78.95,2,.14,1.17.68,1.19.7,0-.17,1,1.08.88.66,2.2-1.58,2.72-.49.29-.27.52-.54.16-.57-.23L272,286l-.11,1.43.19,1.3,1.16,1.35.11.39-.21.73-1.63.18-1.09-.31-1.91,1-.7-.41.55,1.32.59.23-.08.34.25.18.79-1.06.66,0,.41.29-.81,1.66-.09,1.58.38,1-.27,1.06.27.34h1l.68.31,1-.21,1.84.47,1.39-.08.25-.34.3-3.26.35-.83.62-.67.36-.08.13-.34-.24-1.35.24-.57L277,286l.19-.26.3,0,1.52,5.24,1.23,1.14.13.52,1.87.05,1.08-.21.68.13.13.31-1.58.6-.82.83-1.35.18-1.09,1.14h-1.17L277.6,299l-1.08,1.66-.25.34h-.44l-.09-.34.22-.44-.21-.13-.46.67-.7.36-.4,1-.21,1.5-.57.72-.33,1.09-1.54-.31-.54.21-.36.23-.85,1.55-1.36.54-.84.93L266.37,312l-.73.26-.41.62h-.81l-.19.26.43.67-.27.7.08.41-.44.75-.36.13-.95-.59-.51-.8-1.12.21-1.71,1L258,314l-.35.08-.9-.9L256,314l.47,1.24,1.14.16,1.41,1.16-.17.26-.66.08.14.52-.52.54,0-.89-.46-.18h-.47l-.38.72.7.7,1.06.31.59.85.95.26.27.75.85.54.47.83.82.8.89.36,1.46.1.89-.88,1.3-.16,1.12,1.09-.14.93-.84.44v.52l.44.44.74-.08-.29-.59.13-.1,1.42.54,2.39-.49,1.63.28,1.28-.93,2.28.34,1.6,1,1.39,1.24,1.69.26,1.19.59.76-.21.51.41h0l1.16,1.45,1.08.62,11-1.88,9.73,2.45,4.65,3.07,3.81,3.77h0l-4.73,3.38-4.62-.83-1.5,1.37-.93-.41L301.18,346l-3.47,3.09-.1,5.88-.4,2.06L296,360l-3.12,5.79h-2.79l-8-.59-.28-1.13,1.79-.93,1.14-1,.84-1.49-2-4-1.9-1.06-.49.95-6.79.18-2-.57-3.21-1.57,0-1.47-.65-.72,3.31-1.49-2.18-2.14.05-.9-.62-2-.84.75-.52-.18-.25-.54,0-1.11-.55-.57,0-1-.73-1.52h1.12l.51-.7,1.2-.49,1.22,0,.17-1.14,1.28-.67.46-.1.22.21v.57l.52.26-.21-1.21-.55-.77-.57-.05-.76.54-.35-.36-1.23,1.47-1.5-1.26-.71.21-.44,1.19L266,339l-.4,1.11-.59.15-.21.67h-.7l-1.36-3.2-1-.41-1.65-.05-.81.23-1.27.9-.89,1.47-.47.26-2.58-.41-.6.18-1.27-.7-1.2.52.21,2.24-.79.28-.52.46-.19.75-.82.21-.51.93,0,.75-.68.57-4.23-.21-.54.23-2,.1-.65.26-1.22,1-.4.39-.76,1.6-2.52,2-3,1.37-.79-.15-1.68.15h0l-1.65-.36-1.55.67-.92,1.34-1.38,1.08-1.46.33L221.1,357l-1.23,1.55-.92-.7.19-.46-.08-.93-.57-1.26.22-2.94-3.09-.49-1.5.62L213,353.55l-.21-.15-.4.26-3,.18-5.13,3-3.24.23-2.25-.28-2.36-.93-1.68.57-2.33-.54-1.08-.88-.16-1.31.09-.49,1.3-1.62,1.25-6.55-.29-2,3.13-3.17,1.47-3.2,0-.65,1-2.74,1.28-1.86-3.88-1.65-.43,0-2.14.59-1,1.86-10.74-4.85h0L191,305.09l1.79-5.2.63-2.72.22-3.32.81-1.11-.6-1.71,1.25-2.69,1.82-5.08,1.93-9.44L201,260.68l1-10,1.23-8.12.06-1.87.87-5.88,1.49-13.26,1.42-6.7.92-2.4,1.36-2.64L212,200.8l3.67-14.66.82-3.79.7-14.14.54-2.28,1.14-2.2.87-1.07.55-.24,2.29-.42.89.26,1.23-.6,2.56.13-.13.58.57-.31.43.26-.11.29-.36-.21-.32.58.17.73.4.45.33,0,.11.63h.17l1.16-.31-.13-.76.68-.52-.21-.45-.48.34-.28-.76,1.54-.31.46,1-.06,1-1.54,3.3-.44,2.17.25.24.06.6h.41l.11.76,1.76,4,.44.6,10.35,5.94,5.14-1.36,1.79-1.18,3.18-1.33-.16-.47.57,0,2-2.54.43-.94.25-1.39,1.5-1.34,2-.5,1,0,2.36-1.1,1.84.52,1.33-.26,1.14-.55.41.39.28-.1.63.65,1.79-1.34-.21-.31.24-.31,18.09-15.67h0l.65.87h0l-17.69,15.47Zm-27.61-57.19.73-.24.55.5,1.22,1.68,1.82,3.53-.14.92-.44,0-.22.71-.32-.87-.41,8.21.32,2.42,0,1.84-.62,1.89-.7.26-1.9,1.6-.21.89-1,.63-.14,2.71-1.25,1.71-.44,1.34-.55.52-.24-.39-.89.73.1.47-.7,1-.68.39-1.23.5-2.23.1-.41.34-4.26,5.54,0,.47.7.42-.46.66h-1.27l-.52-.6-.43.31-1.06-.66h-.84l-2.34-1.1-.41.34.43.21.17.79,1.84.73.24.55,1,.66.16.34-.46,0-1.06-.5.14.21-1.85.79,0,.29.46.08,0,.21-1.58.52-1.31-.21-1,.55.38.13-.44.5-.59-.08-1.3-1.21-1.39-2.81-.55-2.86.25-4.88,1-5.17.81-2.73,1.5-3.68,3-5.68,4.68-7.49,1.69-2.26,5.14-8.4,2.15-2.63,1.91-1.69,1.46-.55h.4l.6.42,1,1.71.68.45.81,1.76-.08,1.47.17,1Z" style="fill:#e5e5e5;stroke:#fff;stroke-miterlimit:10"/><path d="M439.71,190.88l1.21,1.57.35,1,.79,1,5.61,6.53,1.13.63,3,4.13,1,1-5.16,5.71-.19,1.26-3.07,1.54-3.64.88-.34.24-.72,1.25,3.2,8.24,1.79,3.91.81,2.81,1,1.3.54.34.2-.13.52.49.76,1.57,1.22-.5.38.44,2,.24.85-1.17.85,0,1.26-.47.17.68,1.42.81.45-.16.17.36,1.2.6h0l.87-.08h0l.84,1.41.93.7,1.13.08.54.73.8.52.43-.08.7-.88.58.08,1,1.32.46.26.53-.07.57-.84,1.21-.08,2-.93,1-.05.54.93-.43.52.05,1.17,1.17,1.05,1.23.44.4.52,1.44.86.09.54.32.34.49,0,.7.52-.16.34,1,1.25.26,1.27.68,1-.15,1.07.47.8.08.84.58.78h.4l.14.72.22.06,1.43-.76.39-.67,1.51.05.5-.91,1.43.73.46-.37.11-.6.95-.7.44-.8.17.59.43.42-.05,1,.53.68.95.6.93.15,1.74-.52.51-.54.61-1.93.7.37,0,.65.66.26.18.41,1.2.13.33-.28,1,.05,1,.42h1l.43.8.71.05.27.65.36,0,.08.55h.37l.23-.45-.44-4.36-.49-1.46-.35-3,.11-.49,4.73-3.9,1.3-.73,10.1-2.27,9.63,4.58,5.4,1.88-.81,1.84.33.11.23.52-1,1.12.32.54-.57,1.61,1.82.11h0l.29.05.66,1.07.43.23.82,1.59-.43,3-.55,1.87-.1,2.05,7.5,6.62-2.16.81-.91.05-1.07-.44-.87,0-1.54-.39-.8,2.68-.81.65-.06.39-5.51-1.12,3.94,8.23L531,286.59l2.54,2,1,.57,1,.18,4.18,3.21,1.31.54,2.61.78,9.34-.34,1.8.42,1-.1v2.43l1.63-.34,7,2,5.37,2,1.07-.39,2.23-2.18.59-.9,1.74-4,1.76-1.24.79,1,.09.67,1.3,3.11,1.3,5.41,1.77,1.61,2.28,5.17,0,.47.9-.05,1.62.64.65-.38.46.2v.8l.81,1.25,1.55,4.7-.11,5.51L587.73,325l-.28,1.76-1.13,1.67.11,1.27-.38,1.26-1.15,2.3-.51.47-1.27,2.84-.11.77,0,1.16.35,1.11,0,.65-.21.15.08,1.16.9,1,1.63,3.73,3.17,3.54-.7,1.62-3.43,2.22-2.64.18-.48.38-.41-.41-2-.54-1.39.31-.4-.16-1.09.55-.12.56-.76.65.11,1.67-.73,1.91-.86,1.13-1.4,3-1.62,2.48-.31.23-2.73.54-3.83.56-.31.49-.14,1.21-3.55,3.3-1.5,6.71L556,381l-5.68.59H541l-7.13.05-2.71-1.26-3.45-.64-2.33-1.08,1.68-2.7.21-1.65-.21-.72,0-1.41-.44-.23.51-.75,0-.62-.29-.85-.44-.41-3.26-1.72-.66,0-.78,1.36-.77-1.08-.84-.26-.38.31-.27.83-.67.23-1.33,1-1.33-1.23-.11-.42.51-1-.7-.49-.31-.62-1-.41-.05-.41-.48-.29-.11.26-5.69,1.16-6.29-1-3,1.08-.54-.18-.52-.51-1.53-.75-.53-.69-.87-2-.07-1.42-.32-.31-1-.05-.94-.36-1.3-2.63-3.19-3.34-.65-1.86-1.11-1.57.05-1.29-2.58-.31-2,.13-.9-.44-1.76.75-3,.18-.32.69-.63.11-1.05.69-.09,2.19-1.39.06-1.27.36-3.27,0-.49-.44-.11-.44L467,353l-.13-.41-1.83.49-.37.51-1-.36-.08.75L462,353.5l-2.09.18-.43-.33-1.09,0-1.09-.41-2.44-.33-2.31-1.73-1.74.08-1-.31-.65.28-.71-.08-.22.11-.22.9-.15,1.52-.72-.77-.37.67.33.25-.12.24-.62-.26.3.85.57.67,0,.46-.29.31-.34-.31,0-.82-.42-.75-1.35-.33-1.07-.78-.43-1.65.33-.85,1.11-.72.27-.9-.08-.52-2,.18-.89-.64-1.8-.41v-1l.91-1.31-.88-.78-.45-2-1.51-1.86-.13-2.5-.82-1.16L437,335.3l-.33-.6-1.65,0-1.06-.34-.09-2.81-.54-1.19-1.57-.21,0-.51.63-.78.26-1.83.22-2.53-.21-2.61.4-.68,1.6-.49.87-.72-.22-.54-.5-.42-1.26-.28-.36-.31-.29-.6,0-.93.63-.87,3.14-.6,2.89-1.11.42-.47.34-.72.05-2.43.7-1.4.88-3.41-.09-1-.9-2.59-2.35-3.47-1.25-.93-.61-.8.16-2.44-.19-2.82-.43-1.27L435,289l-2.39-1.07-1.26-1-.81-1.22-1-2.46-3-2.39-.62-.08-1-.54-.44.78-.67.54-1.71.6-6.89,7.13-1.37-2-.93.23-2,1.5-.62-.57L409,289l-.5-1.61-1.65-3.5L405.77,282l-2.1-2.62-2.46-2.18-2.15.8h0l-1.25-7.13-.49-1.48-6.74-7.2-1.45-.26-3.74.06.06-6.86,9.39,0,.43-.7.82-.34,9.32-2.05,1.26.49.8.86,2.34-.29,3.64-2,.23-.57,5.24-1.15,3.56-2.36.83-1,0-.4-.39-.65L421,243.09l-2.57-.7-2.52-2.21-1.54-.52-1.09-.08-2.1-.83,0,.36-.68-.08-.38-.44-.06-.89,1.79-2,1.47-1,.9-1.07.51-.08.41-.68,0-.91-.68-1.51-.53-.41-.31,0v-.91l-.54-.94-1.11-.57-1.6-5.53-1.12-2.89-.57-.89-3.05-2.89-.57,0-.95-.6-1.62-1.38-.93-1.31-3.1-2.14-1.39-.67-1.87-.34-.33-.24h-2.9l0-.49-2.14-1.88-1.41-2.51h0l3.79-2.64.23.4,1.93,1.09.35,1.07H395l.62-.57.85.44,1.49,0,.57.34.74,0,1.46.79.76.07,3.31-1.56.6-.94,1.37-.86.81-1.23,1.43-.94,0-1.31.19-.29-.24-.44.65-.31.06-.55,1.65-.21.76-.31,1.47.6-.18-1,.2-.39.69-.47,2.14-.47.49,2,.92,1.36.74,2,.6.13.81.74.68.13.52,0,.49-.42,1.31-.44,1.81-.24.71,1.44,1.34-.55,2.39-1.46.32-.58-.52-2.61,1.79-.73,2.05.23.72-.13.6-.62.79-.45.85-.08,1.92-1.22Z" style="fill:#e5e5e5;stroke:#fff;stroke-miterlimit:10"/><path d="M230,352.63l1.68-.16.79.16,3-1.37,2.52-2,.76-1.6.39-.39,1.22-1L241,346l2-.1.54-.23,4.22.2.68-.57v-.74l.5-.93.83-.21.19-.75.52-.46.79-.28-.21-2.25,1.21-.51,1.26.69.6-.18,2.58.41.48-.25.88-1.47,1.27-.91.81-.23,1.64,0,1,.42,1.36,3.19h.7l.21-.67.58-.15L266,339l.5.44.45-1.19.71-.2,1.5,1.26,1.24-1.47.34.36.76-.54.57.05.56.77.2,1.22-.52-.26v-.57l-.22-.21-.46.11-1.28.67-.18,1.13-1.21,0-1.21.49-.5.7h-1.13l.73,1.52,0,1,.55.57-.05,1.11.26.54.52.18.84-.75.61,2,0,.9,2.18,2.14-3.31,1.5.65.72v1.47l3.21,1.57,2,.57,6.79-.18.49-1,1.9,1.06,2,4-.84,1.49-1.14,1-1.79.93.28,1.13,8,.59h2.79L296,360l1.25-2.94.39-2.06.1-5.88,3.46-3.09,2.53-5.21.94.41,1.5-1.36,4.62.82,4.73-3.38h0l8,8,3.07,2.63h0l-1.82,7.83,6.47,5.28.05,1.52-.41,2-.65.54-1.19-.36-.68.54.52.52.26,1.54-.13.93,2.52.9,6,.82.08.39,1,.44-.1.54.45.15-.22,1.73,1.28.56,1.63.05-.3,1.5.11.38,2.13,1.06-.77,1.49-1.73.25-.22,1.44-.36-.07.73.9.77.25,0,.88.66.36v.36l-3.27-.34,1.11.72-.08.49-1.38,1.34.21,2.67L337,388.88l-1.71,2.18.3.34.63.15.1.49,2.72,1.62,1.34-.47,1.86,0,.41-1.39,1.4-.1,1.32.28,1.52-1.62-1.05-.43.51-.9,1.28.38.11-.51.08-.67L347,388l.44-1-.4-.33v-.36l-.48-.16-.11-.66,1.41-.36.41.48.34-.07-.08-.49,1.07-.16.27,1.47-.3.72.6.41.13,1.85.52.62.44,0,.26,2-.46,1.9.17.35-.39,3.78-.56,1.51,1.21.52-.21,1.77,3,1.13-.21,4.49-.87,0,1.55,1.69.38-.41.49.54.27.44.14,1.64.65.69,1.27,1.18,1,.2.68,1.06.35,2.1,1.6,1.89-.17,1.08-.41.64,0,.69.69,1.67V424l-.94.23.07,1.31-.91-.51-1.59,1.41-2.68-1.8-4.1-1.05-1.23-.53-1.14-.9L348,420.38l-5.11-1.89-1-.95-2.16-1.31-.91-.23-2.79.31-4.32-.85-1,.57-2.08,1.76-5,1.9-1.51.1-2.3-.49-1.34.21-1.25.87-1.57,2-1.93,1-1.35-.08-2.45-1.64-2.56-.33-2-.54-1.76-1-1.85-1.92-1.25-.74-1.2.31-.68.84L297.21,421l-1.13,1-.85.21-2-.44L291,420.38h0l-1-.67-2.82-.48-1.14-.67-.79-1.66-.35-2.64-.41-.77-2.06-1.21-1.58-.59-1.2-.38-1.81-.1-1.67.48-3,1.49-.55.82-2.8,2.2-1,1.13-.41,1.23-.82,1.13-1.6.18L263.5,418l-1.2-.23-.63.12-1.44.85-2.06,2.92-.9.62-1.21-.08-2.39-.95h-.88l-1.08,1.13-1.06,2.53-1.2,1.51-3.09.8-1.47.13-1.64.56L242,422.81l-1.1-.89-.4-1.39-1.19-.74-1.86-2.13-1.65-2.33.62-.28-1-1.38-1.21-.41-1.4-1.87,6.34-1.57.14-.33L238,407l-1,.54-2.62-.1-1,.69-1.77.18-.44-1.44V406l1.39-1-.27-1.93,1.14-.84,2-3.18,2.61-2,3.31-1.21.8-1.64-4.92.05-1.56.39.06-1.37-.89-1.07-.28-1.26-.27-3.91.09-2.33L229,380.78l.26-1,1.94-.87.32-2.06.9-1.31,1.27-.54,1.48-.29.92-.48.37,1.51.88.7,3.09.41,1.14-.18.08-.28.71-.34-.59-4L245,370.7l0-.36-5.3-3.68-2.39-.85-4.52-5-.32-.8-1.07.05-.26-1.36,0-2.53-1.12-1.85Z" style="fill:#e5e5e5;stroke:#fff;stroke-miterlimit:10"/><path d="M125.68,574.2l.43,0,0-.38.16.1.73,1.57-.28.2-1.55.15-2-.86-.49-.56,1.19-.78,1.42.2.31.33Zm-93.22-10,2.94.94-.21.61.19.13.4-.18.16.2.92,0,1.57,1.85,1,.33,1.65.05.9.25.25.48,1,.25.21.48,3.94,1.14,7.17,1.14.78.91.11.46.36.15.11.46,2.55,1.67,1.22,1.72,1.52.15,1.23-.4,3.88.78.16.5-.63.51-.09.93,1.66.88.6,0,.06-.28-.3-2.73.13-.35,3,.08.57.71,1.16.63,1.52.23-.46.5,0,.46,1.16,2.25.33-.18-.44-1.44.54-.23-.38-1.24.47,0-.14.35.27.83.47-.25.35-.93.35,0-.24.35.3.35,1.22.18,1.22.76,4-.1,1.06-1.34.35-1,2.36-.71.68-.88,2.83-2,1.71-.73,2.6-.56.09-.23L96,573l.52.08.33-.3.78.61.21-1-.17-.4.54-1.06.11-1.54.87-.94-.37-.86-.16-2.23,1.65-2.33,2.58.23.38.53,3.94.61-.32.53.38.38.41-.18.62,1,.55.2.65,2.33-.27.18.19.63h.65l1.2,2.58.93,1.14,4.49.28,2.07.35,3.7,3.23,2.77,3.29,1.63.93L125.12,579l-.84-1.84,1.71-.66,1-.05.49.35.49,1h.9l.7.5.85,1.21-.08.48.3,0,.41-.63-.7-.61L130,578l2.48.13-.38-.4-2.18-.4-.38-.38,3.58-.18,1.22.28-.66-.66-3,0-1.38-.43L128,573.72l.08-1.16,1-.33.65.23,1-.83.59-.13.43,3.08,2.28,1.34,1.12.2-1.8-.94-1-.86-.3-.71,0-1.29.3-.28.43.33.17,1.06.17-2.17.63-.71h1.33l1.08.46.46,0,1.12.86.65,2.15,1,1.62,1.69,1.87-2.26,3.44-8.09,10.45L120,599.49l-2.91,1.89-.63.63-2,1.06-.54,1-2.91.68-.44-.2-.51-.86-.65.53-1.19.48-.57-1-1,0-2,1.11-.74.83-.76.3-.78.73-.3-.38-1.41,2.34-2.26.4-.06.73L97.62,611l-1.73.13-.79.25,0,.33L94,612l-.47-1.11-.76-.86-.48.81-.92,0-.49.83.21,1.11-.47.08-.59.81-1.72.78-.89-.33-.32.4-.84.43-.32-.78L85,613.2l1.84-1.41.46-.91-.93-1.56L85,610l-3.21,2.29-1.11-.68-.4.3-.35-.15-.74.4-.92-.38-1.11.86-1.08.25-2-.91-.81-.13-.17.2.22.83-.14.13-.79-.66-.32-.68-.9-.23-.24-.48-.17-2.85.16-4.26,1-2.67-.22-.35-1.19-.3L69,599.25l-.71-.3-.27.58-.68.35-.79-.53-.87-1.69-.62-.38-.62.33-3.92-.93-1,.4-3.5-1-.38-.23-.55-1.08-1.68,0-.41-.68-2.93-1.72h-2l-.73.5-2.26-1.34-.73.08-.46-.78-4.38-2.32-1.57,1.87.76,1.36-.6.43.27.68-.28.48-.49-.48-.52.13-.71-.61,0-.35L35,591.3l-.52.2-.21.66-.49.35L32,592.28,31.14,594l-.87.13-1.19-1.19-1.55.3,1.92,10.37-7.18.86-4.75.33-.95-.1-2.26-.86-.63,0-.44-2.34L13,601.2l-1.14-1.08-1.14.73L10,599.51l-1.68-1.06-.92-1.82-1.39-.35-.57-.71.95-.78,0-1.44-.28-.45-1.39-1-.62-1.57,1.42-.76-2.67-3.16,0-.45,4-4.52-.29-2.27-1.36-1.77L5,576.66l.22-1.87-1.31-2.53.79-1.14,1.36-1,0,.4.28,0,.09-.51,2.86-1L13,567.13l1.31-.2.19.78.71.23.14-.51,2-.61.76-.61,2.33-.33,2.31-.76.92-.43.13-.43.87,0,1.58-1.39,1.77-.18.71.3,2.64.25,1,.35.12.7Zm25.09-28.4.17.2-.59-.15-.3-.36h.46Zm-1.86-2.48-.3-.1.35-.1-.05.2Zm-.34-1.09-.13.15-.13-.25.17-.48.09.58Zm4.39,0-.08.23-.17-.1-.13-.38.51-1Zm.63-1.14v.36l-.22-.79.36-.41.16.28-.3.56Zm-5.11-.68H55l.41-.25.35-.76.14.66-.68.35Zm11.36-2.59.76.08.28-.2.78.53-1.22.28-2.55,0,0-.63.25-.33.55,0,1.13.37Zm17.83-.61-.36,0V527l.49-.51.25.36-.38.36Zm-15.49,0-1-.56.08-.13.43-.1.73.3Zm-1.37-.71.17.84L66,527.19l-.43-.43,1.44-.43h.41l.14.2Zm-13.37-.23.68.3.62.61.32.71.06,1-.44-.13L55.05,530l-.3-.23-.29-1.42-.66-1.47,0-.76.39.16Zm-1.52-.76-.13.15-.38-.91.55.08,0,.68Zm-.81-1.72.32,0,.1.48-.41-.25-.59.08.06-.3Zm78.58-11.59-.55-.15.35-.13ZM78.39,473.87l1.31,1.28,4.53,1.43,1.61-.31,3.21-4.08,2.44-1.45,3-.79,2.93.41,2.25,2,6,1.35.44.66.63,2.73,2.61,3.7.24,4.94.51,2,1.39,2.44,1.14.46,7,.56,3,1.07,3-.08,2.33.25,7.25,5.5,5.16,3.56,3,1h0l-1.68,3.15-4.35,1.91-1.8,1.78-1.14,2.47-.21,2.29.11,1,.63,1.6,5.22,6.4,1.23,2.11.17.68.1,1.45-.19,1.09-1.76,4.72.11.25-1,3.09,0,2,2.07,4.36,6,14.21.78,1.27-1.28,1.16-.62,1.24.76,3.64,0,1.32-.41.48.06,1.49-.32.3.52,1.14,1,.13.54,1.59h0l-5.7.25.32-.56.08-1.37-1.95-3.24-2.88-1.32-1,.2-.35-1-.68-.63-1.42.15-1.28.83-.89.33h-.73L129,565.92h-1l-1.8-.35-1.28-.76-3.81-.68-3.8-1.42-.4-.1-.21.18-.95-1.09-1.73-.51-1.65-1.67,0-.38-.81-1.14.55-.86-2.55-.79-.16-1.09-.25-.1-.29.45-2.33-1.11-.78-.86-.87,0-.27-.48-.57-.28-.24-.56-1.66-1.14-.9-1.52-.9-.56-2.06,1.44-1.84.15-2.6,1.8-1.25-.61-.22.13.17,1.29-.71.15.66,1.57,0,.89-.9,1.67-.38,1.67-.38.44-.06.73-.41.41-1.8,5.06-1.11.53-3.53-1.06-1.35.71-.79.83-1.19-.08-.76.66-1.28.18-.78.41-2.69.18-.13.3-.68-.23-1.68-2L71,565.15l-.19-.4-2.29-1.49.27-1.09-2-.13-1.71-1.11-1.49.83H62.12l-.47-.23-.92-.76-.84-2.94-.79.08-.73-1.57-1.66-1.65-2.42-2-1.12-.61-4.86-.2-.89.84-.08.76-1,.56-.43.18-1-.15-.73.28-.81-.2-1.2.3L41,553.56,41,551.61l-.55.08-.1,2.1-.79-.23v-.83l-.33.68-.19-.08.09-.73-.24-.08-.21.63,0,.2,1.68.81v.2L38.88,554l-.93.2-.05.43-.35-.23-.76.41-.82-.41-.4-.94-1.39-1.34-.93.08-.27-.46-2.26-1.57-1.47-1.39-.74-1-2.26-4.31-1.52-2.18-1.61-1.55-1-.25-4.26-3.12-1.66-2.23-.78-.43-.28-.81-.62-.36.22-2.05.71-1.95,3.4-2,3.4-2.72,2.53-1.63,3.91-2.34,1.27-.43,2.09-1.6,4.3-2.21,1.47-.28,1.87.43,1.41-.1,1.72.36,1.8,1.22.68,0,4.87-1.85,2.15-.48.74-.46.6-3.1.09-1.91.27-.15-.16-.58-.38-.08-.32-.38,1.14-.2.6-.94,3.18-3.28-.24-.48.78-.2,1-2.11-.51-.64.16-.2.62,0,0-2.88-2.34-.74-1.82-1.5L54,492.46l-.51-1.55-.24-1.55.06-1.73,1.22-2.85,1.31-2.34.9-1,.93-.41,3.16-1,1.71-.1,5-2,4.08,0,4.18.84.68-3.16.68-1,1.23-.67Zm-5.53,16.36.54.13v.25l-.81-.23-.17-.76-.73.13-.71.51-.57,1.32.24.43L66,495.19l-.93.56-4.57,1.6,0,2.82.79.1-.3,1.07-.87,0-1.31,3.18.32.08.52-.61.06.36L58.19,506l1.46.76-.22.15-1.36-.61-.51.46.25,1.09-.36.66-.14-.25.17-.51-.92-.76-1.46,1.27,0,.2.27.13-.36.2-.11.74-.25.13,0,.36-.33.53-.43,3.76.33-.1-.1.58.84-.61,0,.51,1.57-.33,1.79,1.22h.47l.38.69,1.84,0,1.46-.91,1.14.18.7-.61,1.88,0,.43-.53,1.9.41,1-1,3-.28.63-.58,1.25,0,1.68.58,1.84-.61h.74l.62.79,3,.56L84,516l2.61,4.55.52-.46.09.48-.59.23.11.36h.3l.22.91.65,1.19.36.1-.19.79-1,.66-2.71.76L82.58,528l-1.27.41-.59-.25-1.16-1.22-.24-.71-1.49-1-2.75.63-1.87,1.52-2.61-.61-.14.15-2.12-1.24-1.61-.2-.25.25-.22-.18L62,528l-1,1.17-2.31,1.57-1.08,1.85-.49.3-.79-1.78.44-1.52.46.23.54,1.67.16-.05-.11-.63-.38-.53,0-.58-.46-.33-.57-2-1.52-2.13,1.9-2.49-.16-.1-.38.46-1.22,1.78-.65.15-1.14-.71-1.06-1.22-1.55-.76-.22-.51-.54.23-.7-.43L48,518.5l-.11-.74.27-.13.13-.46-1.22.3-1.82,1,.28,2.36.32.58,1.38,1.32-.08.51.9.89.11.46,1.35.58,1.82,1.47.57.15,1.41,2.94,1,2.82,2.12,3.12.62.53v.58l.25-.46.54,1-.35-.91.51.3-.11-.28,2.14-.43-.46-.2-1.41.15-.46-.61,1.47-.63.87-.91,1.23-.25.08-.18-.51-.38-.11-.48,1-1.88.19-1.17,1.77-1.14.76.05-.43,1,.49,0,.19-.71,3.8-.08,3.23.43,1.28-.43.36-.61.41-.18,1.49-.23.25-.33,1.9-.08.84.15,1.16.66.33.51,0,.38.55.48,1.88.38.49-.23-.14-.71.59-.36.3,0,.29.81,2.5-.69,1.41.48.36-.36.44.3.25-.61.87,0,.79-.51,1,.43,1.28-.05.46.63.17,1.27.35.74,1.39,2,2.45-1.07,1.84.33,3.53,1.27,1.57.79.32-.1-.1,1.14.25.91h.49l-.17-2,1.14.71.82.1.66,1.34.52.08.11.3,1.93,1.34.87.91,1.17-.36.54.84-.32,1.06.36,1.17.33.2.38.76v.41l-.47.81.14.15-.27.33.35.35.33,1.06.41.2,1.11,1.6.24-.08.19.3-.19.13,1.3,2,.82,0,1.42,3.09,1.5.35,3.72,2.35.08-.18.33.08.59.91.9.13,2.42-.41.81-.76,2.56-1.34.76,0,.35-.46,3,.53.47.25.3.48.78.23,1.74-.13-.48-4.89.36-1.22-.92-6.92-6.8-3.07-.57-1-.06-.61.89-1.83-1.22-1-.3-.74-1.82-.13-.57-.28-.44.56-.73.18-.25,0-1-1.09-1.33.51-3.83-.15L120,533l-1.39.08-.13-.46-2.72-.2-.46-.53.28-.43-.44-.13.11-.2-.24-.25-.6,0-.81-2.16.24-.41-1-.89-.38.15-.27-.3-.09-1.19-2.64-.48-1-.58.43-1.19-1-1.5-1.68-.71-.63-.81-1-.56-2.17-.33-.87-1.17.06-1.32,1-1.55,1.91-.2,0-.2,1.06-.41.51.23,1-.66.66.25,2.47-1.83,1.23-.08,1.14-1.22.87-.23.4.15.16-.36,2.06-.64,1.25.41.84-.13,2,.41.49.53.49,1.35.41-.2.32.15,1,1-.21-.71,1.71,0,2.75-.56.54.43,1.31-.1.19.18.27-.74,1.84-.28.08-.56h-.73l0-.2,1-.58-.06-.92-.74-.05-.74.48-.49-.28-.81.53-4.68-.13-1.53-3.08-1.33-1.07-.55,0-.6-.48-.13-2.64.22-.38.7.28v-.81l2.37-2.09,1.61,0,2.88.84,1.12.56.81.71,2.21,1,2.71,1.65-.11-1.32-.68-1.2-1.69-1-.13.31-.47.13L129,500.6l-.22-.33.47-.89-.09-.18-.35,0-.73,1-2.12-.74.14-.31-.32-.25.06-.18.43.28,2.86-.2.06-.51-.54-.08,0-.25-.33-.2-1.69.18-.82.48-.1-.15.73-.43,1.55-.15.19-.41h.21l0,.31.47.05.11-.41.36-.23-.71-1.88-.47-.36-.33-.64-1,.61-5.55.84-2.17,1.5.19.51,1.52,1.55-.27.76h-.74l-.36.79.43.2,0,.3-.25.31-.33,0-.06.74-2.17,1.35-.33.84L115.21,506l-1.88.92-1.49-.66-1.6.84-.28.48-2.14.79-2.29,1.25-2.6.05-.89.76-2.66.17L98.21,510l-2-2.08h-.44l-1-2-.38-.36-.25,0-.81,1.27-1,.31,0-.31-.84-.08L91,507,88,506l-.19-.36,3.59-3.18,1.17-.46-1.31.33-3.56,3.2-.81.25.08-2.42L86.15,502l.17-.36L85.91,500l-.6-.38-.79-1.32.08-1.12-2.77-2.62-.43-.2-1.28.41-3.91-2,.21-.69-.09-.84L75.51,490l-.71-.38-1-.15-1,.13.07.59Z" style="fill:#e5e5e5;stroke:#fff;stroke-miterlimit:10"/><path d="M158.62,483l1.06.92.3-.15.46.13.17.48,1.11.59.05.38-2.9.13-1.08-.28L156.7,484l1.53-1,.39,0Zm-11.84-7.95,1.27,0,4,1,5.25,2.37,2.52.82.87.46.08.82L157.15,482l-2.6-.1-1.93-.48L150.14,480l-5-3.42-.35-.43.14-.74.65-.38,1.18.07Zm35.53-147.73,10.74,4.85,1-1.86,2.14-.59.43,0,3.88,1.65-1.28,1.86-1,2.74,0,.65-1.47,3.2L193.56,343l.29,2-1.25,6.55-1.3,1.62-.09.49.16,1.31,1.08.88,2.33.54,1.68-.57,2.36.93,2.25.28,3.24-.23,5.13-3,3-.18.4-.26.21.15,1.16-1.21,1.5-.62,3.09.49-.22,2.94.57,1.26.08.93-.19.46.92.7,1.23-1.55,1.93-1.24,1.46-.33,1.38-1.08.92-1.34,1.55-.67,1.65.36h0l.06,1.7,1.12,1.85,0,2.52.25,1.37,1.08-.05.32.8,4.53,5,2.39.85,5.3,3.68-.05.36L241.82,372l.59,4-.71.33-.08.28-1.14.18-3.09-.41-.89-.69-.36-1.52-.92.49-1.49.28-1.27.54-.9,1.31-.32,2.06-2,.87-.25,1.05,5.41,3.88-.09,2.34.27,3.9.28,1.26.89,1.08-.06,1.36,1.57-.38,4.92-.05-.81,1.64L238.11,397l-2.61,2-2,3.18-1.14.85.27,1.92-1.39,1v.92l.44,1.44,1.77-.18,1-.69,2.63.1,1-.54,1.3,2.49-.14.33-6.35,1.56,1.41,1.87,1.2.41,1,1.38-.62.28,1.65,2.33,1.87,2.13,1.19.74.4,1.38,1.11.9,1.28,5,1.65-.56,1.47-.13,3.09-.79,1.2-1.51,1.06-2.54,1.08-1.13h.89l2.39.95,1.2.08.9-.62,2.06-2.92,1.44-.85.63-.13,1.2.23,2.44,1.92,1.6-.18.82-1.13.41-1.23,1-1.13,2.8-2.2.55-.82,3-1.49,1.68-.49,1.8.1,1.2.38,1.58.59,2.06,1.2.41.77.35,2.64.79,1.67,1.14.67,2.82.49,1,.67h0L286.55,429l-.46.1.13.64-2,2.94.1,1.61-.74-.36-2.2,4.07-.28,2.17-.36.69-1.69-.41-1,.26-.95-.28-.44.36-.17,1.25-1,1.56-1.11.61-1.91,0-1.3.64-.25.87.4.87,1.09.67-.59.56-1.79.72-.52.59-1.53-.61-4,.1-1.8-1.58-.41.43.59,1.87-.35,1.41.95,1.58,3.4.46-1,5-2.37,0h0l-5.35-.79-4.6-1H250.3l-1.77.41-3.73,1.86-2.86,3L239.49,463l-.93.38-1.74.38-4-.61-2.14.13-2.2.71-2.37,1.28-2.45,2.91-1.53,4.62-.71,1.12-2,2.22-3.5,3.11-4.79,3.39-10,2.85-2.5,2-11.87,3.26-3.48-.36-11.88-4-2.17,2-1,.66-.44,1.15-.89,0-.46,1-2,2-.38,1.65-1.08,1.78-1.39,1.45-1.39.81-3.29,1.53-3.12.66-2.17,1-3.8.89-4.29-.51h0l-3-1L135.37,498l-7.25-5.5-2.33-.25-3,.08-3-1.07-7-.56-1.14-.46-1.39-2.44-.51-2-.24-4.94-2.61-3.7-.63-2.73-.44-.66-6-1.35-2.25-2-2.93-.41-3,.79-2.44,1.45L86,476.24l-1.61.31-4.53-1.43-1.31-1.28h0l2.07-1.07.82-.79,1.44-3.75L83.3,467l-.11-.61-1.61-3.93,0-1.58L82.75,459l1.41-1.1,1.49-.31,2.26-.87,1.82-.05,1.36-.36,4.62-2.17,4.75-1.81,1.79-.46,3.26.05,1.58.74.68.64-1.42-.28-.22,1.12,2.06,1.25,1,1.2.78.33.22-.23-.54-.64,0-.46.7.18.51-.38.28.21,1.58-1.84-.25-.28.16-.28,1.22-1,1.2-.54.08-.89-.71-1.69-4.7-7-.4-1,.25-1.94.76-1.1,1.82-3.89.52-.38-.11-.79-1.2-1.05-.89-.38-.59,1,0,1.1-.41-.41h-.17l-.06.46-.21-.08-.4-.69-1-.33-.7.56-.32-.13-.84.51-1.06.1-.55-.26-.3-.54.17-1.38,2.26-8,.05-2.1-.22-.18-.57.28v-1.38l1-2.25.68-.51,1.12.18,1.12-1.67.43-.15,1.47.67.28-.21,1.17,0,1.08.69,2,.79,1,.79,3.34-2.95,2.28-1.54,1.34-1.15.73-1,1-.69,1.76-3,2-2.77,12.2-14.14,3.42-4.37,0-.39.38-.1.68.57.74-1.1-.21-.13-.62.77-.33-.28-.05-.46,3.26-3.34,1.09-.8,2.58-2.8,7-9,4.75-7,6.11-10.64,4.43-8.25,7.54-16.57ZM112.94,454l-1.55,1.89.27.26-.3.89.1.54-.52-.1.17.43-.25.28.22.2-.1.25.25.08.74-.77,1.11.59,1.49,1.35,5.76,2.58,2,1.46,4.62,2.3,3,2,4.38,1.45-.11.2.27.2.4-.1,3.45,3.77,2.12,1.84,1.87,1.27.38.82,2.72,3.36.76.69,3.48,2.19,1.49.31,2.58,1.83,2.77,1.07,2.09.38,5.79.31,1.11-.13.47-.43.33-.56,0-.89.44,0,1-3.34-1.22-.69,0-.33-.33.18L159.91,478l-5.51-2.55v-.23l-.41-.1,0,.23-6.61-2-3.81-1.43-1.17-.89-1.74-2.45-.19-.48.24-.25,0-1.61-2.41-2.68L136,462.29l-1.42-.1-.79.33-.6-.26L130,458.35l-.63-.33-.43-.56-1.27.18-1-.18-.33.1-.24.46-.4.05-1.58-.1-.68-.51.11-.84-.52-.13-.32,1.05-.6-.77-3.77-1.33-1.19-1.12L116,452.45l-2.26,1.07-.49.64-.31-.17Z" style="fill:#e5e5e5;stroke:#fff;stroke-miterlimit:10"/></svg>