<svg id="Layer_1" data-name="Layer 1" xmlns="http://www.w3.org/2000/svg" viewBox="0 0 34 34"><title>an-export</title><path d="M30.59,14.91,24.38,10a1.11,1.11,0,0,0-1.65,1.42l1.55,2.72H18.65c-.89,0-1.15.77-1.15,1.63s.27,1.63,1.15,1.63h7.76s.05.08-.1.13l-2.46.66-1.1,1.93a1.11,1.11,0,0,0,1.65,1.42l6.2-4.9a1.11,1.11,0,0,0,0-1.74Z"/><path d="M25,24.32V25.5H10V12.83L8,12C7.8,12,7.4,11.5,7.4,11.5h7c.27,0,.57.49.57.22v-7s.08,0,.13.18L15.5,6.5H25V7l1,1.47V4.92c0-.54-.34-1.42-.88-1.42H14.78c-.26,0-.5.33-.69.51l-7,7.32c-.18.18-.11.54-.11.8V27.27c0,.54.09,1.23.63,1.23H25.07c.54,0,.88-.7.88-1.23V23.12Z"/></svg>