<svg xmlns="http://www.w3.org/2000/svg" viewBox="0 0 621 734"><path d="M148.33,157.56l15.79,5.83,7.33-19.28,4.26-1.31,1.35-12.29,8.82-23.4,1-6.53L190.44,97l3.9-6.45,2.26-.76,2.59-2.7.8-7.37,1-1.93,5.65-2.4,8-5.36.62-1.17,4.08-1.06L224.42,63l.33-3.39,9.77-1.9,9.73-3.17,5.18.07,4.85-1.24,15.63,6.82,4,.22,3.87,7.47-.22,1.93,2.18.08,8.53,14.91,4.16,11.59,7.33-3.17,1.38.22,2.52,4.3v3.65l1.79,7h4.81l7.43,6.53,2.88,3.83,2.59,1,3.87,10.65,2.55,2,1.31,4.52,2.48,1.24.15,6.6,23.8-10.83,9.92-2.69,23.95,1.27,4.56,3.06,2.88,4.12,24.82,25.49,11.41,13.12,9.12,8.53,32.88,37.51,27.45,27.64,16.44,22.67,29.9,45.17.69-.18,4.89,5,12.17,3.25-16.37,39.77,13.71,1.46,1.79,6.74,2.15-.18,8.53,12.5,1.49.55,2.26,3.25,1.57.47,2.33-1.31.66.36L585.11,396l-.51,5.43,11.6-.59h0l-12.07,27.35.07,10.75L574,584.53l.48,2.19-8,9.48L562.91,594l-4.26.18-9.34-2.26-2.91-2-1.53-2.26-7,.47-5.36-3.61L528,583.11l-4,4.19-4.56-.47-3.83,3.86-4.37-.54-5.36,1.49-4.52-2-1.13-1.35-5.1.11-1.64-5.79-6.24-1.79-1.53.25L482.85,579l-9.11.95-4.12-3.43-6.16,3.8-4.63-.19-1.93.84-8.57-3.21-2.33.55-5.95,3.61-8.67-1.42-1.82-2.08-5.95.66-1.93-1.72-3.1-.18-4.34.88L411,579.79l-1.89,3-5.25-1.9-3.17,2.37-1.21-1.71-5.1,2.19-7.84,8.34-2.3,3.5-5.43,2.67-2.19,3.9h0l-6.63-.4,2.08-5.87-1.17-2,3.72-4.09-.84-1.89-1.2-.4,2.95-6.71L355.8,574l-35.1-16.7-36.82,8.27-4.74,2.67-17.25,14.21-.4,1.79,1.28,11,1.79,5.32,1.6,15.9-.84,1.64H264l-.29-2-1.31-.11-1-2.37-2.58-.18-1.57-2.92h-3.65L250.12,609l-3.68-.18-1.21,1-4.37-.47-.66-1.5-2.4-.94.11-2.37-2.56-1.35-2.22,7-1.86,2-6.34,1.9-3.39-.55-3.47-2.19-1.93-2.48.18-3.68-1.56-1.53-.62-2.15-1.61,2.92L209.07,607l-.4,2.19L207,610.52l-5.21-2.66L200,611.18l-5.51-.18L193,613.44l-5.21,2.77L187,616l-.51-2.62h-1.45l-2.12-2.85-.29-3.06-1.71-2.91.54-3.9-2.48-3.5-.94-4.63L174.4,588l.58-1.24-2.55-1.9-1.78.19-1.17-1.24-.33-2-5.25-3.14-1.46-1.89L158,575.16l-4.27-3.83-.18-4.26,1.57-1.9-2-3.39-3.46.19-7.15,3.39-4.41.29L136,568.71l-1.93.26-1.68-1-3.53-4.82-2.12-.29-2.55,3.21-1.57.29-2.91-1.89-2-2.66-4.12-.3L110.24,559l-3.06-5.14h0l-3.18.29h0L99.63,552,99,550.66l-1.64.59-5.18-3-.62-2.47L87,547.53l-3.1.11-3.1,4.26-7.4-.87L72,549.42l-4.45,1.83-2.77-5.73-1.9-1.78-.73.47-2-1.24-3.57-4.74-3-10.24-6.53-14.26-11.66-30,2.62-4.55,1.24-.88,13.27-3.21,11.19-5.61.7-4.59L83.3,444l-3.76-3.79L68.6,425.18l-4.11-2.29L44,399.08l-2.88-3.79-1.27-3.72-4.41-5.72h0l24.31-18.78L84,351.51l15.35-21.37,7.33-5.79,2.66-5.18,4.19-2.66,3.64-.29,23.7,2.29L159,337.11l34.16-24.43,20.12-38.1L175.53,216l2.52-32.55-34.42-13Z" style="fill:#e5e5e5"/><path d="M185.26,112.07v3.29h-.95v-7.87h2.07a4.06,4.06,0,0,1,1.15.15,2.5,2.5,0,0,1,.85.42,1.77,1.77,0,0,1,.52.67,2.07,2.07,0,0,1,.18.88,3.18,3.18,0,0,1-.1.77,2.22,2.22,0,0,1-.3.64,2,2,0,0,1-.48.49,2.56,2.56,0,0,1-.63.35l2.08,3.5h-1.11l-1.92-3.29Zm0-3.78v3h1.11a2.6,2.6,0,0,0,.71-.09,1.53,1.53,0,0,0,.55-.29,1.13,1.13,0,0,0,.34-.48,1.71,1.71,0,0,0,.12-.67,1.74,1.74,0,0,0-.1-.63,1.25,1.25,0,0,0-.33-.45,1.54,1.54,0,0,0-.56-.27,2.59,2.59,0,0,0-.78-.1Z" style="fill:#4d4d4d"/><path d="M196.06,112.36a3.79,3.79,0,0,1-.21,1.29,3,3,0,0,1-.6,1,2.53,2.53,0,0,1-.87.62,2.73,2.73,0,0,1-1,.21,3,3,0,0,1-1.07-.19,2.15,2.15,0,0,1-.81-.56,2.74,2.74,0,0,1-.51-.94,4.17,4.17,0,0,1-.18-1.28,3.79,3.79,0,0,1,.21-1.29,3,3,0,0,1,.6-1,2.53,2.53,0,0,1,.87-.62,2.46,2.46,0,0,1,1-.22,3,3,0,0,1,1.07.19,2.25,2.25,0,0,1,.82.57,2.6,2.6,0,0,1,.51.93A4.19,4.19,0,0,1,196.06,112.36Zm-.95,0a3.4,3.4,0,0,0-.11-1,2,2,0,0,0-.34-.7,1.3,1.3,0,0,0-.54-.41,1.65,1.65,0,0,0-.72-.14,1.58,1.58,0,0,0-.69.15,1.72,1.72,0,0,0-.54.44,2.18,2.18,0,0,0-.34.72,3.48,3.48,0,0,0-.12,1,3.43,3.43,0,0,0,.11,1,2,2,0,0,0,.34.7,1.3,1.3,0,0,0,.54.41,1.65,1.65,0,0,0,.72.14,1.58,1.58,0,0,0,.69-.15,1.79,1.79,0,0,0,.54-.46,2,2,0,0,0,.34-.71A3.53,3.53,0,0,0,195.11,112.39Z" style="fill:#4d4d4d"/><path d="M202.36,107v8.39h-.89V115a1.81,1.81,0,0,1-.33.2,3,3,0,0,1-.36.14,2.59,2.59,0,0,1-.4.09,2.73,2.73,0,0,1-.41,0,2.46,2.46,0,0,1-1-.19,2.11,2.11,0,0,1-.78-.54,2.46,2.46,0,0,1-.51-.9,3.61,3.61,0,0,1-.19-1.23,3.71,3.71,0,0,1,.22-1.33,2.72,2.72,0,0,1,.61-1,2.59,2.59,0,0,1,.94-.61,3.22,3.22,0,0,1,1.18-.21h.3l.26,0,.23,0,.21.06V107Zm-2,3.25a2.07,2.07,0,0,0-.8.15,1.67,1.67,0,0,0-.61.45,2,2,0,0,0-.39.71,3.16,3.16,0,0,0-.13,1,2.88,2.88,0,0,0,.13.92,1.73,1.73,0,0,0,.35.66,1.37,1.37,0,0,0,.55.4,1.75,1.75,0,0,0,.7.13l.36,0,.32-.07a1.72,1.72,0,0,0,.29-.11l.3-.17v-3.9l-.27,0a1.09,1.09,0,0,0-.26,0l-.26,0Z" style="fill:#4d4d4d"/><path d="M204.16,112.43a4.1,4.1,0,0,1,.19-1.31,2.76,2.76,0,0,1,.52-1,2.34,2.34,0,0,1,.79-.58,2.39,2.39,0,0,1,1-.2,2.77,2.77,0,0,1,.94.15,1.76,1.76,0,0,1,.7.45,1.9,1.9,0,0,1,.44.74,3.11,3.11,0,0,1,.15,1v.55c0,.06,0,.12,0,.17h-3.76a3,3,0,0,0,.14,1,1.77,1.77,0,0,0,.39.67,1.73,1.73,0,0,0,.6.39,2.29,2.29,0,0,0,.76.12l.49,0,.44-.07a3,3,0,0,0,.43-.11l.44-.17v.83a3.25,3.25,0,0,1-.46.17l-.44.11a3.29,3.29,0,0,1-.47.08l-.53,0a3.33,3.33,0,0,1-1.12-.18,2.19,2.19,0,0,1-.85-.55,2.24,2.24,0,0,1-.54-.93A4.17,4.17,0,0,1,204.16,112.43Zm1-.71h2.76a2.82,2.82,0,0,0-.08-.68,1.25,1.25,0,0,0-.26-.5,1,1,0,0,0-.41-.29,1.4,1.4,0,0,0-.56-.1,1.26,1.26,0,0,0-.51.11,1.47,1.47,0,0,0-.44.31,1.81,1.81,0,0,0-.33.5A2.47,2.47,0,0,0,205.11,111.72Z" style="fill:#4d4d4d"/><path d="M214.19,115.36v-3.85a1.39,1.39,0,0,0-.08-.52,1.14,1.14,0,0,0-.25-.39,1.09,1.09,0,0,0-.42-.25,1.59,1.59,0,0,0-.55-.09,2.3,2.3,0,0,0-.38,0l-.33,0c-.11,0-.23,0-.34.09l-.36.14v4.8h-.91v-5.83l.88-.08v.4a2.4,2.4,0,0,1,.39-.2l.38-.13a2.24,2.24,0,0,1,.39-.08l.44,0a2.67,2.67,0,0,1,.88.13,1.89,1.89,0,0,1,.65.38,1.56,1.56,0,0,1,.39.63,2.48,2.48,0,0,1,.14.85v4Z" style="fill:#4d4d4d"/><path d="M199.68,122.05a2.1,2.1,0,1,1,2.1-2.1A2.1,2.1,0,0,1,199.68,122.05Zm0-3.69a1.6,1.6,0,1,0,1.6,1.59A1.6,1.6,0,0,0,199.68,118.36Z" style="fill:#8b8f9e"/><path d="M223.62,182l-3.1-6.88h-.05V182h-.88v-7.87h1.46l3.1,6.89h.06v-6.89h.88V182Z" style="fill:#4d4d4d"/><path d="M232.41,179a3.49,3.49,0,0,1-.22,1.29,2.87,2.87,0,0,1-.59,1,2.44,2.44,0,0,1-.88.62,2.66,2.66,0,0,1-1.05.21,3,3,0,0,1-1.06-.18,2.13,2.13,0,0,1-.81-.57,2.62,2.62,0,0,1-.52-.93,4.21,4.21,0,0,1-.18-1.28,3.85,3.85,0,0,1,.22-1.3,2.7,2.7,0,0,1,1.46-1.61,2.66,2.66,0,0,1,1.05-.21,2.83,2.83,0,0,1,1.07.19,2.22,2.22,0,0,1,.81.56,2.47,2.47,0,0,1,.52.93A4.28,4.28,0,0,1,232.41,179Zm-.95,0a4,4,0,0,0-.11-1,1.86,1.86,0,0,0-.34-.69,1.37,1.37,0,0,0-.54-.42,1.83,1.83,0,0,0-.73-.14,1.57,1.57,0,0,0-.68.15,1.45,1.45,0,0,0-.54.45,2.2,2.2,0,0,0-.35.72,3.86,3.86,0,0,0,0,1.91,1.71,1.71,0,0,0,.33.69,1.37,1.37,0,0,0,.54.42,1.86,1.86,0,0,0,.73.14,1.42,1.42,0,0,0,.68-.16,1.45,1.45,0,0,0,.54-.45,2.2,2.2,0,0,0,.35-.72A3.4,3.4,0,0,0,231.46,179Z" style="fill:#4d4d4d"/><path d="M237,176.15l-.11.9-.18,0a.45.45,0,0,0-.16,0l-.16,0h-.17a.86.86,0,0,0-.28,0,1,1,0,0,0-.27.11,1.86,1.86,0,0,0-.28.18c-.09.08-.2.17-.31.28V182h-.91v-5.83l.9-.07v.68l.32-.33a2.58,2.58,0,0,1,.31-.22,1.25,1.25,0,0,1,.3-.12,1.19,1.19,0,0,1,.32-.05h.34l.16,0Z" style="fill:#4d4d4d"/><path d="M239.14,180.58a.41.41,0,0,0,0,.19.4.4,0,0,0,.13.16.55.55,0,0,0,.23.1,1.06,1.06,0,0,0,.33,0l1.57.05a2.55,2.55,0,0,1,.72.1,1.58,1.58,0,0,1,.5.27,1.14,1.14,0,0,1,.3.39,1.46,1.46,0,0,1,.09.52,1.77,1.77,0,0,1-.17.77,1.65,1.65,0,0,1-.53.62,2.62,2.62,0,0,1-.89.41,4.53,4.53,0,0,1-1.23.14,4.25,4.25,0,0,1-1-.1,2.6,2.6,0,0,1-.75-.31,1.4,1.4,0,0,1-.47-.5,1.19,1.19,0,0,1-.16-.62,1.07,1.07,0,0,1,.07-.39,1.27,1.27,0,0,1,.2-.36,1.82,1.82,0,0,1,.31-.31,2.08,2.08,0,0,1,.38-.22v-.05a.76.76,0,0,1-.19-.12.61.61,0,0,1-.15-.17,1.24,1.24,0,0,1-.1-.2.88.88,0,0,1,0-.24.75.75,0,0,1,0-.26.8.8,0,0,1,.13-.24,1,1,0,0,1,.2-.2.91.91,0,0,1,.26-.13v0a1.9,1.9,0,0,1-.37-.26,1.6,1.6,0,0,1-.28-.35,1.7,1.7,0,0,1-.18-.46,2.36,2.36,0,0,1-.07-.55,2.59,2.59,0,0,1,.16-.91,1.82,1.82,0,0,1,.46-.69,2,2,0,0,1,.75-.43,3,3,0,0,1,1-.15h.24l.24,0,.23,0,.19,0h1.8v.69H242v0a.8.8,0,0,1,.23.22,1.41,1.41,0,0,1,.18.29,1.09,1.09,0,0,1,.12.36,1.67,1.67,0,0,1,0,.39,2.16,2.16,0,0,1-.17.88,1.51,1.51,0,0,1-.47.64,2.18,2.18,0,0,1-.76.39,3.56,3.56,0,0,1-1,.13H240l-.16,0-.17,0-.15,0-.15.07-.12.11a.57.57,0,0,0-.08.13A.4.4,0,0,0,239.14,180.58Zm-.46,2.08a.71.71,0,0,0,.11.39.85.85,0,0,0,.32.3,1.7,1.7,0,0,0,.51.2,3.58,3.58,0,0,0,.7.06,4.51,4.51,0,0,0,.87-.07,2.1,2.1,0,0,0,.6-.21,1,1,0,0,0,.34-.32.79.79,0,0,0,.12-.42.76.76,0,0,0-.05-.27.39.39,0,0,0-.16-.2.81.81,0,0,0-.28-.13,2.22,2.22,0,0,0-.42-.06l-2-.09a1.69,1.69,0,0,0-.27.13l-.21.18a.68.68,0,0,0-.12.24A.86.86,0,0,0,238.68,182.66Zm1.61-3.15a2.22,2.22,0,0,0,.62-.08,1,1,0,0,0,.43-.24,1.07,1.07,0,0,0,.26-.44,2,2,0,0,0,.08-.64,1.7,1.7,0,0,0-.09-.57.93.93,0,0,0-.26-.4,1.27,1.27,0,0,0-.42-.25,1.89,1.89,0,0,0-.56-.08,1.94,1.94,0,0,0-.56.08,1.1,1.1,0,0,0-.43.26,1.05,1.05,0,0,0-.27.43,1.8,1.8,0,0,0-.09.6,1.89,1.89,0,0,0,.09.62,1.13,1.13,0,0,0,.27.41,1.18,1.18,0,0,0,.41.23A2.11,2.11,0,0,0,240.29,179.51Z" style="fill:#4d4d4d"/><path d="M231,188.7a2.1,2.1,0,1,1,2.1-2.1A2.1,2.1,0,0,1,231,188.7Zm0-3.7a1.6,1.6,0,1,0,1.6,1.6A1.6,1.6,0,0,0,231,185Z" style="fill:#8b8f9e"/><path d="M89.81,459.25v-3.61h-3.6v3.61h-.95v-7.87h.95v3.42h3.6v-3.42h1v7.87Z" style="fill:#4d4d4d"/><path d="M97.12,455.19v4.06h-.85v-.41a4.33,4.33,0,0,1-.42.22,2.74,2.74,0,0,1-.4.15,3,3,0,0,1-.43.09l-.49,0a2.53,2.53,0,0,1-.76-.11,1.83,1.83,0,0,1-.58-.33,1.28,1.28,0,0,1-.36-.5,1.53,1.53,0,0,1-.13-.64,1.55,1.55,0,0,1,.17-.71,1.62,1.62,0,0,1,.5-.55,2.27,2.27,0,0,1,.83-.37,4.36,4.36,0,0,1,1.15-.14h.89v-.64a1.72,1.72,0,0,0-.08-.52,1.09,1.09,0,0,0-.25-.38,1.19,1.19,0,0,0-.42-.22,2.1,2.1,0,0,0-.59-.08l-.42,0-.42.07-.43.12-.45.17-.19-.76a5.15,5.15,0,0,1,.52-.21l.49-.15a3.85,3.85,0,0,1,.49-.08l.54,0a2.69,2.69,0,0,1,.89.13,1.75,1.75,0,0,1,.66.36,1.58,1.58,0,0,1,.4.6A2.18,2.18,0,0,1,97.12,455.19Zm-3.47,2.47a.81.81,0,0,0,.07.35.66.66,0,0,0,.19.27.85.85,0,0,0,.34.18,1.56,1.56,0,0,0,.46.06l.42,0a2.32,2.32,0,0,0,.38-.07,2.35,2.35,0,0,0,.37-.14,3,3,0,0,0,.36-.18v-1.37h-.91a3.53,3.53,0,0,0-.78.08,1.38,1.38,0,0,0-.52.2.91.91,0,0,0-.29.3A.82.82,0,0,0,93.65,457.66Z" style="fill:#4d4d4d"/><path d="M100.47,459.25l-2-5.87h1l1.61,5h.06l1.52-5h.94l-2,5.87Z" style="fill:#4d4d4d"/><path d="M104.63,456.32a4.1,4.1,0,0,1,.19-1.31,2.61,2.61,0,0,1,.52-1,2.25,2.25,0,0,1,.79-.58,2.38,2.38,0,0,1,1-.2,2.79,2.79,0,0,1,1,.15,1.84,1.84,0,0,1,.7.45,2,2,0,0,1,.44.74,3.11,3.11,0,0,1,.15,1v.55c0,.06,0,.12,0,.18h-3.76a3,3,0,0,0,.14.95,1.77,1.77,0,0,0,.39.67,1.73,1.73,0,0,0,.6.39,2.29,2.29,0,0,0,.76.12l.48,0,.45-.07a3.39,3.39,0,0,0,.43-.11l.44-.17v.83a4.51,4.51,0,0,1-.46.17l-.44.12-.47.07-.54,0a3.27,3.27,0,0,1-1.11-.18,2.21,2.21,0,0,1-.85-.54,2.35,2.35,0,0,1-.54-.94A4.17,4.17,0,0,1,104.63,456.32Zm1-.71h2.76a2.38,2.38,0,0,0-.09-.68,1.24,1.24,0,0,0-.25-.5,1,1,0,0,0-.41-.29,1.43,1.43,0,0,0-.56-.1,1.31,1.31,0,0,0-.52.11,1.43,1.43,0,0,0-.43.31,1.61,1.61,0,0,0-.33.5A2.47,2.47,0,0,0,105.58,455.61Z" style="fill:#4d4d4d"/><path d="M112,450.86v8.39H111v-8.32Z" style="fill:#4d4d4d"/><path d="M113.58,454.11v-.73h.71v-1l.91-.13v1.16h1.54v.73H115.2v3.32a1.35,1.35,0,0,0,.07.48.86.86,0,0,0,.19.34.72.72,0,0,0,.29.2,1.11,1.11,0,0,0,.37.07h.21l.19,0,.19,0,.21,0v.77l-.27.06-.25,0-.24,0h-.27a2.08,2.08,0,0,1-.63-.09,1.37,1.37,0,0,1-.51-.32,1.34,1.34,0,0,1-.34-.57,2.7,2.7,0,0,1-.12-.86v-3.37Z" style="fill:#4d4d4d"/><path d="M118,456.32a4.1,4.1,0,0,1,.19-1.31,2.76,2.76,0,0,1,.52-1,2.34,2.34,0,0,1,.79-.58,2.39,2.39,0,0,1,1-.2,2.77,2.77,0,0,1,.94.15,1.87,1.87,0,0,1,.71.45,2,2,0,0,1,.43.74,3.11,3.11,0,0,1,.15,1v.55c0,.06,0,.12,0,.18h-3.76a3,3,0,0,0,.14.95,2.08,2.08,0,0,0,.39.67,1.73,1.73,0,0,0,.6.39,2.29,2.29,0,0,0,.76.12l.49,0,.44-.07a3.54,3.54,0,0,0,.44-.11l.43-.17v.83a3.25,3.25,0,0,1-.46.17l-.44.12-.47.07-.53,0a3.33,3.33,0,0,1-1.12-.18,2.29,2.29,0,0,1-.85-.54,2.35,2.35,0,0,1-.54-.94A4.17,4.17,0,0,1,118,456.32Zm1-.71h2.76a2.82,2.82,0,0,0-.08-.68,1.25,1.25,0,0,0-.26-.5,1,1,0,0,0-.41-.29,1.4,1.4,0,0,0-.56-.1,1.26,1.26,0,0,0-.51.11,1.47,1.47,0,0,0-.44.31,1.81,1.81,0,0,0-.33.5A2.47,2.47,0,0,0,118.92,455.61Z" style="fill:#4d4d4d"/><path d="M103.75,465.94a2.1,2.1,0,1,1,2.1-2.1A2.1,2.1,0,0,1,103.75,465.94Zm0-3.69a1.6,1.6,0,0,0,0,3.19,1.6,1.6,0,1,0,0-3.19Z" style="fill:#8b8f9e"/><path d="M225.24,507.14v-3.61h-3.6v3.61h-.95v-7.87h.95v3.42h3.6v-3.42h.95v7.87Z" style="fill:#4d4d4d"/><path d="M233.51,504.14a3.57,3.57,0,0,1-.22,1.29,2.87,2.87,0,0,1-.59,1,2.33,2.33,0,0,1-.88.61,2.66,2.66,0,0,1-1,.21,3,3,0,0,1-1.06-.18,2,2,0,0,1-.81-.57,2.62,2.62,0,0,1-.52-.93,4.51,4.51,0,0,1-.17-1.28,3.79,3.79,0,0,1,.21-1.29,2.84,2.84,0,0,1,.6-1,2.7,2.7,0,0,1,.86-.61,2.5,2.5,0,0,1,1.05-.22,3,3,0,0,1,1.07.19,2.13,2.13,0,0,1,.81.57,2.33,2.33,0,0,1,.52.93A4.19,4.19,0,0,1,233.51,504.14Zm-.95,0a4,4,0,0,0-.11-1,1.94,1.94,0,0,0-.34-.69,1.58,1.58,0,0,0-.54-.42,1.81,1.81,0,0,0-.72-.14,1.59,1.59,0,0,0-.69.16,1.42,1.42,0,0,0-.54.44,2.2,2.2,0,0,0-.35.72,3.86,3.86,0,0,0,0,1.91,2,2,0,0,0,.33.7,1.44,1.44,0,0,0,.54.41,1.9,1.9,0,0,0,.73.14,1.42,1.42,0,0,0,.68-.16,1.45,1.45,0,0,0,.54-.45,1.94,1.94,0,0,0,.35-.72A3.4,3.4,0,0,0,232.56,504.17Z" style="fill:#4d4d4d"/><path d="M240.25,504.14a3.79,3.79,0,0,1-.21,1.29,2.89,2.89,0,0,1-.6,1,2.37,2.37,0,0,1-.87.61,2.7,2.7,0,0,1-1,.21,2.91,2.91,0,0,1-1.06-.18,1.93,1.93,0,0,1-.81-.57,2.47,2.47,0,0,1-.52-.93,4.17,4.17,0,0,1-.18-1.28,3.57,3.57,0,0,1,.22-1.29,2.82,2.82,0,0,1,.59-1,2.64,2.64,0,0,1,.87-.61,2.49,2.49,0,0,1,1-.22,3,3,0,0,1,1.07.19,2.25,2.25,0,0,1,.82.57,2.44,2.44,0,0,1,.51.93A4.19,4.19,0,0,1,240.25,504.14Zm-.94,0a3.5,3.5,0,0,0-.12-1,1.93,1.93,0,0,0-.33-.69,1.58,1.58,0,0,0-.54-.42,1.9,1.9,0,0,0-.73-.14,1.51,1.51,0,0,0-.68.16,1.42,1.42,0,0,0-.54.44,2,2,0,0,0-.35.72,3.48,3.48,0,0,0-.12,1,3.9,3.9,0,0,0,.11,1,2,2,0,0,0,.34.7,1.44,1.44,0,0,0,.54.41,1.81,1.81,0,0,0,.72.14,1.46,1.46,0,0,0,.69-.16,1.53,1.53,0,0,0,.54-.45,2.1,2.1,0,0,0,.35-.72A3.4,3.4,0,0,0,239.31,504.17Z" style="fill:#4d4d4d"/><path d="M242.77,505.71a.46.46,0,0,0,0,.2.29.29,0,0,0,.12.15.49.49,0,0,0,.23.1,1.11,1.11,0,0,0,.33,0l1.58.05a2.46,2.46,0,0,1,.71.11,1.31,1.31,0,0,1,.5.26,1,1,0,0,1,.3.4,1.36,1.36,0,0,1,.09.51,1.71,1.71,0,0,1-.17.78,1.81,1.81,0,0,1-.53.62,2.53,2.53,0,0,1-.89.4,4.48,4.48,0,0,1-1.22.15,4.37,4.37,0,0,1-1-.11,2.35,2.35,0,0,1-.75-.31,1.56,1.56,0,0,1-.47-.49,1.22,1.22,0,0,1-.16-.62,1.07,1.07,0,0,1,.07-.39,1.46,1.46,0,0,1,.2-.37,1.83,1.83,0,0,1,.32-.3,1.62,1.62,0,0,1,.37-.23v-.05a.76.76,0,0,1-.19-.12.57.57,0,0,1-.15-.16,1,1,0,0,1-.09-.21.61.61,0,0,1,0-.24,1.17,1.17,0,0,1,0-.26.76.76,0,0,1,.13-.23,1,1,0,0,1,.2-.2.87.87,0,0,1,.27-.14v0a1.37,1.37,0,0,1-.37-.26,1.23,1.23,0,0,1-.29-.35,2.64,2.64,0,0,1-.18-.45,2.47,2.47,0,0,1-.06-.56,2.63,2.63,0,0,1,.15-.91,1.94,1.94,0,0,1,.46-.69,2.13,2.13,0,0,1,.75-.43,3,3,0,0,1,1-.15h.23l.25,0,.22,0,.2,0h1.8V502h-1.11v0a.79.79,0,0,1,.24.21,2.82,2.82,0,0,1,.18.29,1.9,1.9,0,0,1,.12.36,2.58,2.58,0,0,1,0,.39,2.44,2.44,0,0,1-.16.89,1.66,1.66,0,0,1-.48.63,1.89,1.89,0,0,1-.76.39,3.53,3.53,0,0,1-1,.13h-.35l-.16,0-.15,0a.52.52,0,0,0-.15.07.65.65,0,0,0-.12.11.42.42,0,0,0-.09.14A.32.32,0,0,0,242.77,505.71Zm-.45,2.09a.76.76,0,0,0,.1.39,1.16,1.16,0,0,0,.32.3,2,2,0,0,0,.51.19,3.58,3.58,0,0,0,.7.06,4.37,4.37,0,0,0,.87-.07,2.1,2.1,0,0,0,.6-.21,1,1,0,0,0,.35-.32.82.82,0,0,0,.11-.42.59.59,0,0,0,0-.27.43.43,0,0,0-.15-.2,1.13,1.13,0,0,0-.29-.13,1.61,1.61,0,0,0-.42-.05l-2-.1a1.15,1.15,0,0,0-.27.14.7.7,0,0,0-.2.18.65.65,0,0,0-.13.23A.86.86,0,0,0,242.32,507.8Zm1.6-3.16a2.17,2.17,0,0,0,.62-.08,1,1,0,0,0,.43-.24.92.92,0,0,0,.26-.44,2,2,0,0,0,.09-.64,1.6,1.6,0,0,0-.09-.56,1,1,0,0,0-.27-.41,1,1,0,0,0-.42-.24,1.59,1.59,0,0,0-.55-.09,1.7,1.7,0,0,0-.57.09,1.09,1.09,0,0,0-.43.25,1.12,1.12,0,0,0-.27.43,1.8,1.8,0,0,0-.09.6,1.89,1.89,0,0,0,.09.62,1,1,0,0,0,.28.41,1,1,0,0,0,.4.23A1.72,1.72,0,0,0,243.92,504.64Z" style="fill:#4d4d4d"/><path d="M247.88,504.21a4.35,4.35,0,0,1,.19-1.31,2.94,2.94,0,0,1,.52-1,2.34,2.34,0,0,1,.79-.58,2.39,2.39,0,0,1,1-.2,2.73,2.73,0,0,1,.94.15,1.87,1.87,0,0,1,.71.45,2,2,0,0,1,.44.74,3.11,3.11,0,0,1,.15,1v.37a1.09,1.09,0,0,1,0,.18.88.88,0,0,1,0,.17H248.8a2.78,2.78,0,0,0,.14,1,1.77,1.77,0,0,0,.39.67,1.54,1.54,0,0,0,.59.38,2.11,2.11,0,0,0,.77.13l.48,0,.44-.07.44-.11.43-.17v.82a3.35,3.35,0,0,1-.46.18l-.44.11-.46.08-.54,0a3.23,3.23,0,0,1-1.11-.18,2.16,2.16,0,0,1-.86-.55,2.48,2.48,0,0,1-.54-.93A4.46,4.46,0,0,1,247.88,504.21Zm1-.71h2.76a2.76,2.76,0,0,0-.08-.68,1.38,1.38,0,0,0-.25-.5,1,1,0,0,0-.42-.29,1.38,1.38,0,0,0-.55-.1,1.13,1.13,0,0,0-.52.11,1.31,1.31,0,0,0-.44.31,1.59,1.59,0,0,0-.32.5A2.47,2.47,0,0,0,248.83,503.5Z" style="fill:#4d4d4d"/><path d="M255.56,507.14l-2-5.87h1l1.61,5h.06l1.52-5h.94l-2,5.87Z" style="fill:#4d4d4d"/><path d="M259.73,504.21a4.06,4.06,0,0,1,.19-1.31,2.61,2.61,0,0,1,.52-1,2.25,2.25,0,0,1,.79-.58,2.38,2.38,0,0,1,.95-.2,2.79,2.79,0,0,1,.95.15,1.84,1.84,0,0,1,.7.45,2,2,0,0,1,.44.74,3.11,3.11,0,0,1,.15,1v.55a1.11,1.11,0,0,0,0,.17h-3.76a3,3,0,0,0,.14,1,1.77,1.77,0,0,0,.39.67,1.58,1.58,0,0,0,.6.38,2.06,2.06,0,0,0,.76.13l.48,0,.45-.07.43-.11.43-.17v.82a3.83,3.83,0,0,1-.45.18l-.44.11-.47.08-.54,0a3.23,3.23,0,0,1-1.11-.18,2.12,2.12,0,0,1-.85-.55,2.24,2.24,0,0,1-.54-.93A4.17,4.17,0,0,1,259.73,504.21Zm.95-.71h2.76a2.33,2.33,0,0,0-.09-.68,1.24,1.24,0,0,0-.25-.5,1,1,0,0,0-.41-.29,1.43,1.43,0,0,0-.56-.1,1.13,1.13,0,0,0-.52.11,1.42,1.42,0,0,0-.44.31,1.59,1.59,0,0,0-.32.5A2.47,2.47,0,0,0,260.68,503.5Z" style="fill:#4d4d4d"/><path d="M265.78,504.21a4.37,4.37,0,0,1,.18-1.31,2.78,2.78,0,0,1,.53-1,2.21,2.21,0,0,1,.78-.58,2.43,2.43,0,0,1,1-.2,2.73,2.73,0,0,1,.94.15,1.8,1.8,0,0,1,.71.45,2,2,0,0,1,.44.74,3.11,3.11,0,0,1,.15,1v.37a1.09,1.09,0,0,1,0,.18.88.88,0,0,1,0,.17h-3.75a2.78,2.78,0,0,0,.14,1,1.77,1.77,0,0,0,.39.67,1.62,1.62,0,0,0,.59.38,2.11,2.11,0,0,0,.77.13l.48,0,.45-.07.43-.11.43-.17v.82a3.83,3.83,0,0,1-.45.18l-.44.11-.47.08-.54,0a3.23,3.23,0,0,1-1.11-.18,2.23,2.23,0,0,1-.86-.55,2.48,2.48,0,0,1-.54-.93A4.48,4.48,0,0,1,265.78,504.21Zm.94-.71h2.76a2.35,2.35,0,0,0-.08-.68,1.38,1.38,0,0,0-.25-.5,1,1,0,0,0-.42-.29,1.38,1.38,0,0,0-.55-.1,1.13,1.13,0,0,0-.52.11,1.31,1.31,0,0,0-.44.31,1.59,1.59,0,0,0-.32.5A2.47,2.47,0,0,0,266.72,503.5Z" style="fill:#4d4d4d"/><path d="M275.81,507.14v-3.86a1.36,1.36,0,0,0-.09-.51,1,1,0,0,0-.25-.39,1.13,1.13,0,0,0-.41-.25,1.64,1.64,0,0,0-.56-.09h-.37l-.34.06-.33.09a2.67,2.67,0,0,0-.36.14v4.8h-.92V501.3l.88-.07v.4a3,3,0,0,1,.4-.2,2.92,2.92,0,0,1,.76-.21,3.24,3.24,0,0,1,.45,0,2.57,2.57,0,0,1,.87.13,1.67,1.67,0,0,1,.65.38,1.58,1.58,0,0,1,.4.63,2.45,2.45,0,0,1,.13.85v3.95Z" style="fill:#4d4d4d"/><path d="M248.68,513.83a2.1,2.1,0,1,1,2.09-2.1A2.1,2.1,0,0,1,248.68,513.83Zm0-3.7a1.6,1.6,0,1,0,1.59,1.6A1.6,1.6,0,0,0,248.68,510.13Z" style="fill:#8b8f9e"/><path d="M64.06,530.46H64l-.29,6.92h-.9l.37-7.87h1.44l2.1,5.21h0l2-5.21h1.4l.38,7.87h-.95l-.3-6.92h-.06l-2.14,5.3h-.92Z" style="fill:#4d4d4d"/><path d="M72.51,534.45a4.35,4.35,0,0,1,.18-1.3,2.61,2.61,0,0,1,.53-1,2.28,2.28,0,0,1,.79-.59,2.37,2.37,0,0,1,.95-.19,2.79,2.79,0,0,1,1,.15,1.84,1.84,0,0,1,.7.45,2,2,0,0,1,.44.73,3.17,3.17,0,0,1,.15,1v.36a1.09,1.09,0,0,1,0,.18c0,.06,0,.12,0,.18H73.42a3,3,0,0,0,.14.95,1.7,1.7,0,0,0,.39.67,1.6,1.6,0,0,0,.6.39,2.24,2.24,0,0,0,.76.12,3.7,3.7,0,0,0,.48,0l.45-.07a2.26,2.26,0,0,0,.43-.11,3.83,3.83,0,0,0,.43-.17v.83a3.67,3.67,0,0,1-.45.17,3.6,3.6,0,0,1-.44.12l-.47.07a4.61,4.61,0,0,1-.54,0,3.23,3.23,0,0,1-1.11-.18,2.21,2.21,0,0,1-.85-.54,2.49,2.49,0,0,1-.55-.94A4.43,4.43,0,0,1,72.51,534.45Zm.95-.7h2.76a2.4,2.4,0,0,0-.09-.69,1.31,1.31,0,0,0-.25-.5,1,1,0,0,0-.41-.29,1.64,1.64,0,0,0-.56-.1,1.27,1.27,0,0,0-.52.11,1.6,1.6,0,0,0-.44.31,1.71,1.71,0,0,0-.32.5A2.66,2.66,0,0,0,73.46,533.75Z" style="fill:#4d4d4d"/><path d="M78.92,539.67v-8.12l.87-.07v.37l.37-.17a2.46,2.46,0,0,1,.38-.14,2.38,2.38,0,0,1,.4-.07,3,3,0,0,1,.44,0,2.59,2.59,0,0,1,1,.18,1.84,1.84,0,0,1,.76.53,2.4,2.4,0,0,1,.49.91,4.32,4.32,0,0,1,.17,1.26,3.65,3.65,0,0,1-.23,1.32,2.84,2.84,0,0,1-.63,1,2.79,2.79,0,0,1-1,.61,3.56,3.56,0,0,1-1.25.21h-.44l-.2,0-.21,0v2.3Zm1.89-3a2.38,2.38,0,0,0,.81-.14,1.85,1.85,0,0,0,.64-.43,1.91,1.91,0,0,0,.42-.71,2.93,2.93,0,0,0,.15-1,3.38,3.38,0,0,0-.12-.95,1.86,1.86,0,0,0-.34-.66,1.36,1.36,0,0,0-.54-.38,2.11,2.11,0,0,0-.73-.12l-.32,0-.32.05-.31.09-.32.14v4l.25.05.24,0h.49Z" style="fill:#4d4d4d"/><path d="M85.58,539.67v-8.12l.87-.07v.37l.37-.17a2.46,2.46,0,0,1,.38-.14,2.38,2.38,0,0,1,.4-.07,3,3,0,0,1,.44,0,2.59,2.59,0,0,1,1,.18,1.84,1.84,0,0,1,.76.53,2.4,2.4,0,0,1,.49.91,4.32,4.32,0,0,1,.17,1.26,3.65,3.65,0,0,1-.23,1.32,2.84,2.84,0,0,1-.63,1,2.79,2.79,0,0,1-1,.61,3.56,3.56,0,0,1-1.25.21H86.9l-.2,0-.21,0v2.3Zm1.89-3a2.38,2.38,0,0,0,.81-.14,1.85,1.85,0,0,0,.64-.43,1.91,1.91,0,0,0,.42-.71,2.93,2.93,0,0,0,.15-1,3.38,3.38,0,0,0-.12-.95,1.86,1.86,0,0,0-.34-.66,1.36,1.36,0,0,0-.54-.38,2.11,2.11,0,0,0-.73-.12l-.32,0-.32.05-.31.09-.32.14v4l.25.05.24,0h.49Z" style="fill:#4d4d4d"/><path d="M91.88,534.45a4.35,4.35,0,0,1,.18-1.3,2.61,2.61,0,0,1,.53-1,2.24,2.24,0,0,1,.78-.59,2.38,2.38,0,0,1,1-.19,2.73,2.73,0,0,1,.94.15A1.8,1.8,0,0,1,96,532a2,2,0,0,1,.44.73,3.17,3.17,0,0,1,.15,1v.36a1.09,1.09,0,0,1,0,.18,1.1,1.1,0,0,1,0,.18H92.79a2.75,2.75,0,0,0,.14.95,1.7,1.7,0,0,0,.39.67,1.64,1.64,0,0,0,.59.39,2.35,2.35,0,0,0,.77.12,3.7,3.7,0,0,0,.48,0l.44-.07a2.36,2.36,0,0,0,.44-.11,3.83,3.83,0,0,0,.43-.17v.83a3.25,3.25,0,0,1-.46.17,3.45,3.45,0,0,1-.43.12l-.47.07a4.7,4.7,0,0,1-.54,0,3.23,3.23,0,0,1-1.11-.18,2.25,2.25,0,0,1-.86-.54,2.61,2.61,0,0,1-.54-.94A4.43,4.43,0,0,1,91.88,534.45Zm.94-.7h2.76a2.42,2.42,0,0,0-.08-.69,1.47,1.47,0,0,0-.25-.5,1,1,0,0,0-.42-.29,1.58,1.58,0,0,0-.55-.1,1.27,1.27,0,0,0-.52.11,1.47,1.47,0,0,0-.44.31,1.71,1.71,0,0,0-.32.5A2.66,2.66,0,0,0,92.82,533.75Z" style="fill:#4d4d4d"/><path d="M99.2,529v8.39h-.92v-8.31Z" style="fill:#4d4d4d"/><path d="M81.07,544.07a2.1,2.1,0,1,1,2.1-2.09A2.1,2.1,0,0,1,81.07,544.07Zm0-3.69a1.6,1.6,0,1,0,1.6,1.6A1.6,1.6,0,0,0,81.07,540.38Z" style="fill:#8b8f9e"/><path d="M250.55,376.71h-2.21v-7.88h2a4.44,4.44,0,0,1,1.16.14,2.38,2.38,0,0,1,.83.4,1.54,1.54,0,0,1,.5.61,1.92,1.92,0,0,1,.16.81,2.35,2.35,0,0,1-.07.62,1.75,1.75,0,0,1-.21.5,1.45,1.45,0,0,1-.34.36,2.12,2.12,0,0,1-.47.26v0a2.1,2.1,0,0,1,.61.24,1.58,1.58,0,0,1,.45.4,1.51,1.51,0,0,1,.27.52,2.15,2.15,0,0,1,.09.64,2.55,2.55,0,0,1-.18,1,1.89,1.89,0,0,1-.54.74,2.26,2.26,0,0,1-.87.46A4,4,0,0,1,250.55,376.71Zm-.25-7.07h-1v2.61h1a3,3,0,0,0,.78-.08,1.43,1.43,0,0,0,.54-.25,1.06,1.06,0,0,0,.32-.43,1.9,1.9,0,0,0,.1-.61,1.43,1.43,0,0,0-.1-.53.94.94,0,0,0-.32-.39,1.59,1.59,0,0,0-.54-.24A3.47,3.47,0,0,0,250.3,369.64Zm0,3.42h-1v2.84h1.24a3.1,3.1,0,0,0,.78-.09,1.66,1.66,0,0,0,.58-.29,1.31,1.31,0,0,0,.35-.46,1.52,1.52,0,0,0,.12-.62,1.43,1.43,0,0,0-.11-.6,1,1,0,0,0-.35-.43,1.87,1.87,0,0,0-.65-.26A4.45,4.45,0,0,0,250.28,373.06Z" style="fill:#4d4d4d"/><path d="M254.92,373.78a4.06,4.06,0,0,1,.19-1.31,2.61,2.61,0,0,1,.52-1,2.13,2.13,0,0,1,.79-.58,2.38,2.38,0,0,1,.95-.2,2.79,2.79,0,0,1,.95.15,1.84,1.84,0,0,1,.7.45,2,2,0,0,1,.44.74,3.11,3.11,0,0,1,.15,1v.55a1.11,1.11,0,0,0,0,.17h-3.76a3,3,0,0,0,.14,1,1.66,1.66,0,0,0,.39.66,1.49,1.49,0,0,0,.6.39,2.06,2.06,0,0,0,.76.13,3.64,3.64,0,0,0,.48,0,3.25,3.25,0,0,0,.45-.06,3.45,3.45,0,0,0,.43-.12,3.16,3.16,0,0,0,.43-.16v.82a3.83,3.83,0,0,1-.45.18l-.44.11a3.54,3.54,0,0,1-.47.07,4.39,4.39,0,0,1-.54,0,3.27,3.27,0,0,1-1.11-.18,2.12,2.12,0,0,1-.85-.55,2.24,2.24,0,0,1-.54-.93A4.17,4.17,0,0,1,254.92,373.78Zm1-.71h2.76a2.33,2.33,0,0,0-.09-.68,1.24,1.24,0,0,0-.25-.5,1.12,1.12,0,0,0-.41-.3,1.64,1.64,0,0,0-.56-.09,1.13,1.13,0,0,0-.52.11,1.27,1.27,0,0,0-.43.31,1.37,1.37,0,0,0-.33.5A2.47,2.47,0,0,0,255.87,373.07Z" style="fill:#4d4d4d"/><path d="M261.2,368.92a.69.69,0,0,1,0-.25.32.32,0,0,1,.12-.18.57.57,0,0,1,.18-.12.64.64,0,0,1,.24,0,.61.61,0,0,1,.24,0,.47.47,0,0,1,.18.12.41.41,0,0,1,.12.18.87.87,0,0,1,0,.25.86.86,0,0,1,0,.24.57.57,0,0,1-.12.18.46.46,0,0,1-.18.11.61.61,0,0,1-.24,0,.64.64,0,0,1-.24,0,.54.54,0,0,1-.18-.11.36.36,0,0,1-.12-.18A.61.61,0,0,1,261.2,368.92Zm1,1.88v5.91h-.91v-5.84Z" style="fill:#4d4d4d"/><path d="M265.31,368.32v8.39h-.91v-8.32Z" style="fill:#4d4d4d"/><path d="M267.11,373.78a4.06,4.06,0,0,1,.19-1.31,2.76,2.76,0,0,1,.52-1,2.13,2.13,0,0,1,.79-.58,2.39,2.39,0,0,1,1-.2,2.77,2.77,0,0,1,.94.15,1.76,1.76,0,0,1,.7.45,1.9,1.9,0,0,1,.44.74,3.11,3.11,0,0,1,.15,1v.55c0,.06,0,.12,0,.17H268a3,3,0,0,0,.14,1,1.66,1.66,0,0,0,.39.66,1.49,1.49,0,0,0,.6.39,2.06,2.06,0,0,0,.76.13,3.64,3.64,0,0,0,.48,0,3.06,3.06,0,0,0,.45-.06,3.45,3.45,0,0,0,.43-.12,3.89,3.89,0,0,0,.44-.16v.82a3.93,3.93,0,0,1-.46.18l-.44.11a3.31,3.31,0,0,1-.47.07,4.33,4.33,0,0,1-.53,0,3.33,3.33,0,0,1-1.12-.18,2.19,2.19,0,0,1-.85-.55,2.24,2.24,0,0,1-.54-.93A4.17,4.17,0,0,1,267.11,373.78Zm.95-.71h2.76a2.76,2.76,0,0,0-.08-.68,1.39,1.39,0,0,0-.26-.5,1.12,1.12,0,0,0-.41-.3,1.6,1.6,0,0,0-.56-.09,1.12,1.12,0,0,0-.51.11,1.22,1.22,0,0,0-.44.31,1.5,1.5,0,0,0-.33.5A2.47,2.47,0,0,0,268.06,373.07Z" style="fill:#4d4d4d"/><path d="M277.14,376.71v-3.86a1.6,1.6,0,0,0-.08-.51,1.14,1.14,0,0,0-.25-.39,1.17,1.17,0,0,0-.42-.25,1.6,1.6,0,0,0-.56-.09h-.37c-.11,0-.22,0-.33.06a1.89,1.89,0,0,0-.34.09,2.4,2.4,0,0,0-.36.14v4.8h-.91v-5.84l.87-.07v.4a3,3,0,0,1,.4-.2,2.84,2.84,0,0,1,.38-.13,2.24,2.24,0,0,1,.39-.08,3,3,0,0,1,.44,0,2.67,2.67,0,0,1,.88.13,1.83,1.83,0,0,1,.65.38,1.68,1.68,0,0,1,.39.63,2.45,2.45,0,0,1,.13.85v3.95Z" style="fill:#4d4d4d"/><path d="M263.17,383.4a2.1,2.1,0,1,1,2.1-2.1A2.1,2.1,0,0,1,263.17,383.4Zm0-3.7a1.6,1.6,0,1,0,1.6,1.6A1.6,1.6,0,0,0,263.17,379.7Z" style="fill:#8b8f9e"/><path d="M474.18,458v-7.87h3.89V451h-2.94v2.55h2.65v.84h-2.65v2.8h3V458Z" style="fill:#4d4d4d"/><path d="M487.22,458v-3.84a1.42,1.42,0,0,0-.08-.52,1,1,0,0,0-.24-.4,1,1,0,0,0-.4-.25,1.55,1.55,0,0,0-.55-.09l-.37,0-.33,0-.31.09-.38.14V458h-.91v-3.87a1.78,1.78,0,0,0-.08-.53.94.94,0,0,0-.22-.39,1.05,1.05,0,0,0-.4-.23,1.66,1.66,0,0,0-.58-.08l-.39,0-.33,0-.31.09-.36.15V458h-.91v-5.83l.88-.08v.4a3,3,0,0,1,.4-.2,1.82,1.82,0,0,1,.37-.13,2.33,2.33,0,0,1,.38-.08l.43,0a4.28,4.28,0,0,1,.52,0,2.44,2.44,0,0,1,.45.12,1.84,1.84,0,0,1,.37.19,1.28,1.28,0,0,1,.3.26,5.39,5.39,0,0,1,.5-.28,2.42,2.42,0,0,1,.46-.18,4,4,0,0,1,.47-.11,3.89,3.89,0,0,1,.51,0,2.61,2.61,0,0,1,.87.13,1.65,1.65,0,0,1,.64.39,1.55,1.55,0,0,1,.38.62,2.49,2.49,0,0,1,.13.85V458Z" style="fill:#4d4d4d"/><path d="M497.36,458v-3.84a1.42,1.42,0,0,0-.08-.52,1,1,0,0,0-.24-.4,1,1,0,0,0-.4-.25,1.55,1.55,0,0,0-.55-.09l-.37,0-.33,0-.31.09-.38.14V458h-.91v-3.87a1.78,1.78,0,0,0-.08-.53.94.94,0,0,0-.22-.39,1.05,1.05,0,0,0-.4-.23,1.66,1.66,0,0,0-.58-.08l-.39,0-.33,0-.31.09-.36.15V458h-.91v-5.83l.88-.08v.4a3,3,0,0,1,.4-.2,1.82,1.82,0,0,1,.37-.13,2.33,2.33,0,0,1,.38-.08l.43,0a4.28,4.28,0,0,1,.52,0,2.44,2.44,0,0,1,.45.12,1.84,1.84,0,0,1,.37.19,1.28,1.28,0,0,1,.3.26,5.39,5.39,0,0,1,.5-.28,2.42,2.42,0,0,1,.46-.18,4,4,0,0,1,.47-.11,3.89,3.89,0,0,1,.51,0,2.61,2.61,0,0,1,.87.13,1.65,1.65,0,0,1,.64.39,1.55,1.55,0,0,1,.38.62,2.49,2.49,0,0,1,.13.85V458Z" style="fill:#4d4d4d"/><path d="M500,455.06a4.1,4.1,0,0,1,.19-1.31,2.76,2.76,0,0,1,.52-1,2.25,2.25,0,0,1,.79-.58,2.38,2.38,0,0,1,.95-.2,2.79,2.79,0,0,1,.95.15,1.76,1.76,0,0,1,.7.45,1.9,1.9,0,0,1,.44.74,3.11,3.11,0,0,1,.15,1v.55c0,.06,0,.12,0,.17H500.9a3,3,0,0,0,.14,1,1.77,1.77,0,0,0,.39.67,1.73,1.73,0,0,0,.6.39,2.29,2.29,0,0,0,.76.12l.48,0,.45-.07a3.39,3.39,0,0,0,.43-.11l.44-.17v.83a3.78,3.78,0,0,1-.46.17,6.09,6.09,0,0,1-.91.19l-.53,0a3.33,3.33,0,0,1-1.12-.18,2.12,2.12,0,0,1-.85-.55,2.24,2.24,0,0,1-.54-.93A4.17,4.17,0,0,1,500,455.06Zm.95-.71h2.76a2.38,2.38,0,0,0-.09-.68,1.24,1.24,0,0,0-.25-.5,1,1,0,0,0-.41-.29,1.43,1.43,0,0,0-.56-.1,1.31,1.31,0,0,0-.52.11,1.43,1.43,0,0,0-.43.31,1.61,1.61,0,0,0-.33.5A2.58,2.58,0,0,0,500.94,454.35Z" style="fill:#4d4d4d"/><path d="M510,458v-3.85a1.67,1.67,0,0,0-.08-.52,1.14,1.14,0,0,0-.25-.39,1.17,1.17,0,0,0-.42-.25,1.6,1.6,0,0,0-.56-.09l-.37,0-.33,0-.34.09-.36.14V458h-.91v-5.83l.87-.08v.4l.4-.2.38-.13a2.24,2.24,0,0,1,.39-.08l.44,0a2.67,2.67,0,0,1,.88.13,1.85,1.85,0,0,1,.65.39,1.57,1.57,0,0,1,.39.62,2.49,2.49,0,0,1,.13.85V458Z" style="fill:#4d4d4d"/><path d="M492.53,464.68a2.1,2.1,0,1,1,2.09-2.1A2.1,2.1,0,0,1,492.53,464.68Zm0-3.69a1.6,1.6,0,1,0,1.59,1.59A1.59,1.59,0,0,0,492.53,461Z" style="fill:#8b8f9e"/><path d="M490.4,378l-3.1-6.89h-.05V378h-.88v-7.88h1.46l3.1,6.89H491v-6.89h.88V378Z" style="fill:#4d4d4d"/><path d="M494.11,370.18a.69.69,0,0,1,0-.25.47.47,0,0,1,.12-.18.76.76,0,0,1,.19-.12.74.74,0,0,1,.48,0,.57.57,0,0,1,.18.12.33.33,0,0,1,.11.18.62.62,0,0,1,0,.25.6.6,0,0,1,0,.24.42.42,0,0,1-.11.18.54.54,0,0,1-.18.11.74.74,0,0,1-.48,0,.72.72,0,0,1-.19-.11.57.57,0,0,1-.12-.18A.61.61,0,0,1,494.11,370.18Zm1.05,1.88V378h-.92v-5.84Z" style="fill:#4d4d4d"/><path d="M497,375a4.37,4.37,0,0,1,.18-1.31,2.94,2.94,0,0,1,.52-1,2.22,2.22,0,0,1,.79-.58,2.39,2.39,0,0,1,1-.2,2.73,2.73,0,0,1,.94.15,1.87,1.87,0,0,1,.71.45,2,2,0,0,1,.44.74,3.11,3.11,0,0,1,.15,1v.37a1.09,1.09,0,0,1,0,.18.88.88,0,0,1,0,.17h-3.75a2.78,2.78,0,0,0,.14,1,1.77,1.77,0,0,0,.39.67,1.54,1.54,0,0,0,.59.38,2.11,2.11,0,0,0,.77.13,3.64,3.64,0,0,0,.48,0,3.11,3.11,0,0,0,.44-.06,3.6,3.6,0,0,0,.44-.12,3.75,3.75,0,0,0,.43-.16v.82a3.35,3.35,0,0,1-.46.18l-.44.11a3.17,3.17,0,0,1-.46.07,4.63,4.63,0,0,1-.54,0,3.23,3.23,0,0,1-1.11-.18,2.16,2.16,0,0,1-.86-.55,2.48,2.48,0,0,1-.54-.93A4.48,4.48,0,0,1,497,375Zm.94-.71h2.76a2.76,2.76,0,0,0-.08-.68,1.38,1.38,0,0,0-.25-.5,1.15,1.15,0,0,0-.42-.3,1.6,1.6,0,0,0-.56-.09,1.12,1.12,0,0,0-.51.11,1.31,1.31,0,0,0-.44.31,1.48,1.48,0,0,0-.32.5A2.47,2.47,0,0,0,497.9,374.33Z" style="fill:#4d4d4d"/><path d="M504.19,372.06V376a1.8,1.8,0,0,0,.08.54,1.09,1.09,0,0,0,.25.4,1.22,1.22,0,0,0,.4.24,1.87,1.87,0,0,0,.55.08l.39,0,.32-.05.3-.09.37-.14v-4.78l.92-.07V378h-.89v-.36a2.61,2.61,0,0,1-.37.19,2.79,2.79,0,0,1-.37.14l-.39.08a3,3,0,0,1-.43,0,2.59,2.59,0,0,1-.88-.13,1.58,1.58,0,0,1-.64-.38,1.68,1.68,0,0,1-.39-.63,2.55,2.55,0,0,1-.13-.86v-3.92Z" style="fill:#4d4d4d"/><path d="M517.37,372.1,515.52,378h-1.17l-1.08-3.56h-.06l-1,3.56H511l-1.86-5.87h1l1.43,5h.06l1.16-3.86-.38-1.17h1l1.49,5H515l1.4-5Z" style="fill:#4d4d4d"/><path d="M518.64,375v-.84h3.11V375Z" style="fill:#4d4d4d"/><path d="M525.21,378,523,370.09h1.07l1.79,6.93h.06l1.66-4.86-.68-2.07h1l2.23,6.93h.06l1.82-6.93h1L530.79,378h-1.25l-1.48-4.58h0L526.48,378Z" style="fill:#4d4d4d"/><path d="M533.7,375a4.37,4.37,0,0,1,.18-1.31,2.78,2.78,0,0,1,.53-1,2.13,2.13,0,0,1,.79-.58,2.38,2.38,0,0,1,.95-.2,2.79,2.79,0,0,1,1,.15,1.84,1.84,0,0,1,.7.45,2,2,0,0,1,.44.74,3.11,3.11,0,0,1,.15,1v.37a1.09,1.09,0,0,1,0,.18c0,.06,0,.12,0,.17h-3.76a3,3,0,0,0,.14,1,1.77,1.77,0,0,0,.39.67,1.58,1.58,0,0,0,.6.38,2.06,2.06,0,0,0,.76.13,3.64,3.64,0,0,0,.48,0l.45-.06a3.45,3.45,0,0,0,.43-.12,3.16,3.16,0,0,0,.43-.16v.82a3.83,3.83,0,0,1-.45.18l-.44.11a3.54,3.54,0,0,1-.47.07,4.5,4.5,0,0,1-.54,0,3.23,3.23,0,0,1-1.11-.18,2.12,2.12,0,0,1-.85-.55,2.37,2.37,0,0,1-.55-.93A4.48,4.48,0,0,1,533.7,375Zm.95-.71h2.76a2.33,2.33,0,0,0-.09-.68,1.24,1.24,0,0,0-.25-.5,1.12,1.12,0,0,0-.41-.3,1.64,1.64,0,0,0-.56-.09,1.13,1.13,0,0,0-.52.11,1.42,1.42,0,0,0-.44.31,1.48,1.48,0,0,0-.32.5A2.47,2.47,0,0,0,534.65,374.33Z" style="fill:#4d4d4d"/><path d="M539.75,375a4.37,4.37,0,0,1,.18-1.31,2.78,2.78,0,0,1,.53-1,2.1,2.1,0,0,1,.78-.58,2.39,2.39,0,0,1,1-.2,2.83,2.83,0,0,1,.95.15,1.84,1.84,0,0,1,.7.45,2,2,0,0,1,.44.74,3.11,3.11,0,0,1,.15,1v.37a1.09,1.09,0,0,1,0,.18.88.88,0,0,1,0,.17h-3.75a2.78,2.78,0,0,0,.14,1,1.77,1.77,0,0,0,.39.67,1.62,1.62,0,0,0,.59.38,2.11,2.11,0,0,0,.77.13,3.64,3.64,0,0,0,.48,0l.45-.06.43-.12a3.75,3.75,0,0,0,.43-.16v.82a3.83,3.83,0,0,1-.45.18l-.44.11a3.54,3.54,0,0,1-.47.07,4.63,4.63,0,0,1-.54,0,3.23,3.23,0,0,1-1.11-.18,2.23,2.23,0,0,1-.86-.55,2.48,2.48,0,0,1-.54-.93A4.48,4.48,0,0,1,539.75,375Zm.94-.71h2.76a2.35,2.35,0,0,0-.08-.68,1.38,1.38,0,0,0-.25-.5,1.08,1.08,0,0,0-.42-.3,1.59,1.59,0,0,0-.55-.09,1.13,1.13,0,0,0-.52.11,1.31,1.31,0,0,0-.44.31,1.48,1.48,0,0,0-.32.5A2.47,2.47,0,0,0,540.69,374.33Z" style="fill:#4d4d4d"/><path d="M549,372.11l-.11.9-.18,0-.16,0-.16,0h-.17a1.45,1.45,0,0,0-.29,0,1,1,0,0,0-.27.11l-.27.18a2.68,2.68,0,0,0-.31.29V378h-.92v-5.84l.9-.07v.69a3.42,3.42,0,0,1,.33-.33,1.5,1.5,0,0,1,.3-.23,2,2,0,0,1,.31-.12,1.1,1.1,0,0,1,.31,0h.34l.17,0Z" style="fill:#4d4d4d"/><path d="M554.87,369.58V378H554v-.39a2.79,2.79,0,0,1-.33.19,2.39,2.39,0,0,1-.37.15l-.39.09-.41,0a2.46,2.46,0,0,1-1-.19,2.11,2.11,0,0,1-.78-.54,2.63,2.63,0,0,1-.52-.9,3.88,3.88,0,0,1-.18-1.23,4.05,4.05,0,0,1,.21-1.34,2.91,2.91,0,0,1,.61-1,2.68,2.68,0,0,1,.94-.61A3.27,3.27,0,0,1,553,372h.29a2.06,2.06,0,0,1,.26,0l.23,0a.65.65,0,0,1,.21.06v-2.51Zm-2,3.25a2,2,0,0,0-.8.15,1.68,1.68,0,0,0-.61.44,1.8,1.8,0,0,0-.39.72,3.11,3.11,0,0,0-.14.95,3.19,3.19,0,0,0,.13.92,1.73,1.73,0,0,0,.35.66,1.53,1.53,0,0,0,.55.4,2,2,0,0,0,.7.13,2,2,0,0,0,.36,0,1.65,1.65,0,0,0,.32-.06,1.48,1.48,0,0,0,.29-.12,2.19,2.19,0,0,0,.3-.16v-3.9l-.27-.05-.25,0h-.54Z" style="fill:#4d4d4d"/><path d="M556.89,370.18a.7.7,0,0,1,.05-.25.32.32,0,0,1,.12-.18.57.57,0,0,1,.18-.12.74.74,0,0,1,.48,0,.57.57,0,0,1,.18.12.41.41,0,0,1,.12.18.87.87,0,0,1,0,.25.86.86,0,0,1,0,.24.57.57,0,0,1-.12.18.54.54,0,0,1-.18.11.74.74,0,0,1-.48,0,.54.54,0,0,1-.18-.11.36.36,0,0,1-.12-.18A.6.6,0,0,1,556.89,370.18Zm1.05,1.88V378H557v-5.84Z" style="fill:#4d4d4d"/><path d="M563.72,378v-3.86a1.6,1.6,0,0,0-.08-.51,1.14,1.14,0,0,0-.25-.39A1.17,1.17,0,0,0,563,373a1.6,1.6,0,0,0-.56-.09H562l-.33.06a1.89,1.89,0,0,0-.34.09,2.4,2.4,0,0,0-.36.14V378h-.91v-5.84l.87-.07v.4a3,3,0,0,1,.4-.2,2.84,2.84,0,0,1,.38-.13,2.24,2.24,0,0,1,.39-.08,3,3,0,0,1,.44,0,2.67,2.67,0,0,1,.88.13,1.83,1.83,0,0,1,.65.38,1.68,1.68,0,0,1,.39.63,2.45,2.45,0,0,1,.13.85v4Z" style="fill:#4d4d4d"/><path d="M567.43,376.54a.45.45,0,0,0,0,.2.37.37,0,0,0,.13.15.45.45,0,0,0,.23.1,1.06,1.06,0,0,0,.33,0l1.57.05a2.53,2.53,0,0,1,.72.11,1.39,1.39,0,0,1,.5.26,1.08,1.08,0,0,1,.3.4,1.36,1.36,0,0,1,.09.51,1.85,1.85,0,0,1-.17.78,1.7,1.7,0,0,1-.53.61,2.44,2.44,0,0,1-.89.41,4.5,4.5,0,0,1-1.23.15,4.22,4.22,0,0,1-1-.11,2.35,2.35,0,0,1-.75-.31,1.46,1.46,0,0,1-.47-.49,1.26,1.26,0,0,1-.16-.63,1.15,1.15,0,0,1,.07-.39,1.27,1.27,0,0,1,.2-.36,2.27,2.27,0,0,1,.31-.31,2.08,2.08,0,0,1,.38-.22v0l-.19-.13a.57.57,0,0,1-.15-.16,2,2,0,0,1-.1-.21.88.88,0,0,1,0-.24.75.75,0,0,1,0-.26A1,1,0,0,1,567,376a.94.94,0,0,1,.26-.14v0a1.9,1.9,0,0,1-.37-.26,1.39,1.39,0,0,1-.28-.35,1.7,1.7,0,0,1-.18-.46,2.29,2.29,0,0,1-.07-.55,2.63,2.63,0,0,1,.16-.91,1.82,1.82,0,0,1,.46-.69,2,2,0,0,1,.75-.43,3,3,0,0,1,1-.15H569l.24,0,.23,0,.19,0h1.8v.69h-1.1v0a.8.8,0,0,1,.23.22,1.75,1.75,0,0,1,.18.29,1.09,1.09,0,0,1,.12.36,1.74,1.74,0,0,1,0,.39,2.24,2.24,0,0,1-.17.89,1.54,1.54,0,0,1-.47.63,2.18,2.18,0,0,1-.76.39,3.56,3.56,0,0,1-1,.13h-.34l-.17,0-.15,0-.15.07-.12.11-.08.13A.4.4,0,0,0,567.43,376.54Zm-.46,2.09a.77.77,0,0,0,.11.39,1,1,0,0,0,.32.3,2,2,0,0,0,.51.19,3.58,3.58,0,0,0,.7.06,4.51,4.51,0,0,0,.87-.07,2.1,2.1,0,0,0,.6-.21,1,1,0,0,0,.34-.32.78.78,0,0,0,.07-.69.39.39,0,0,0-.16-.2,1,1,0,0,0-.28-.13,2.22,2.22,0,0,0-.42-.06l-2-.09a1.15,1.15,0,0,0-.27.14.91.91,0,0,0-.21.18.56.56,0,0,0-.12.23A.87.87,0,0,0,567,378.63Zm1.61-3.16a2.22,2.22,0,0,0,.62-.08,1,1,0,0,0,.69-.68,2,2,0,0,0,.08-.64,1.7,1.7,0,0,0-.09-.57,1,1,0,0,0-.26-.4,1.27,1.27,0,0,0-.42-.25,1.89,1.89,0,0,0-.56-.08,1.94,1.94,0,0,0-.56.08,1.1,1.1,0,0,0-.43.26,1.12,1.12,0,0,0-.27.43,1.8,1.8,0,0,0-.09.6,1.89,1.89,0,0,0,.09.62,1.13,1.13,0,0,0,.27.41,1,1,0,0,0,.41.23A1.72,1.72,0,0,0,568.58,375.47Z" style="fill:#4d4d4d"/><path d="M572.54,375a4.06,4.06,0,0,1,.19-1.31,2.76,2.76,0,0,1,.52-1,2.22,2.22,0,0,1,.79-.58,2.39,2.39,0,0,1,1-.2,2.77,2.77,0,0,1,.94.15,1.76,1.76,0,0,1,.7.45,1.9,1.9,0,0,1,.44.74,3.11,3.11,0,0,1,.15,1v.55c0,.06,0,.12,0,.17h-3.76a3,3,0,0,0,.14,1,1.77,1.77,0,0,0,.39.67,1.58,1.58,0,0,0,.6.38,2.06,2.06,0,0,0,.76.13,3.91,3.91,0,0,0,.49,0,3.11,3.11,0,0,0,.44-.06,3,3,0,0,0,.43-.12,3.89,3.89,0,0,0,.44-.16v.82a3.35,3.35,0,0,1-.46.18l-.44.11a3.31,3.31,0,0,1-.47.07,4.33,4.33,0,0,1-.53,0,3.33,3.33,0,0,1-1.12-.18,2.19,2.19,0,0,1-.85-.55,2.24,2.24,0,0,1-.54-.93A4.17,4.17,0,0,1,572.54,375Zm1-.71h2.76a2.76,2.76,0,0,0-.08-.68,1.25,1.25,0,0,0-.26-.5,1.12,1.12,0,0,0-.41-.3,1.6,1.6,0,0,0-.56-.09,1.12,1.12,0,0,0-.51.11,1.31,1.31,0,0,0-.44.31,1.67,1.67,0,0,0-.33.5A2.47,2.47,0,0,0,573.49,374.33Z" style="fill:#4d4d4d"/><path d="M531.59,384.66a2.1,2.1,0,1,1,2.1-2.1A2.11,2.11,0,0,1,531.59,384.66Zm0-3.7a1.6,1.6,0,1,0,1.6,1.6A1.6,1.6,0,0,0,531.59,381Z" style="fill:#8b8f9e"/><path d="M444.24,560.6v-.89l.51.1.46.07.45,0h.47a3,3,0,0,0,.76-.1,2,2,0,0,0,.6-.29,1.09,1.09,0,0,0,.37-.43,1.33,1.33,0,0,0,.13-.57,1.45,1.45,0,0,0-.07-.44.94.94,0,0,0-.22-.35,1.48,1.48,0,0,0-.38-.3,5.34,5.34,0,0,0-.57-.25l-1-.33a2.68,2.68,0,0,1-.59-.28,2.28,2.28,0,0,1-.46-.41,1.94,1.94,0,0,1-.29-.53,1.91,1.91,0,0,1-.1-.64,2.12,2.12,0,0,1,.19-.91,2.1,2.1,0,0,1,.55-.71,2.59,2.59,0,0,1,.87-.47,3.56,3.56,0,0,1,1.12-.17h.44l.4,0,.38.05.37.07-.1.85-.38-.07-.37,0-.38,0H447a2.39,2.39,0,0,0-.73.1,1.6,1.6,0,0,0-.54.26,1.14,1.14,0,0,0-.34.39,1.06,1.06,0,0,0-.11.51,1.31,1.31,0,0,0,.06.41.92.92,0,0,0,.19.33,1.43,1.43,0,0,0,.33.25,2.16,2.16,0,0,0,.48.21l1,.34a2.84,2.84,0,0,1,.7.32,1.71,1.71,0,0,1,.49.43,1.81,1.81,0,0,1,.29.55,2.4,2.4,0,0,1,.09.69,2.22,2.22,0,0,1-.2,1,2.17,2.17,0,0,1-.58.76,2.49,2.49,0,0,1-.91.49,4,4,0,0,1-1.19.17h-.48l-.45,0-.43-.05Z" style="fill:#4d4d4d"/><path d="M454.41,554.9l-.11.83-.33-.07-.27,0-.26,0h-.29a1.57,1.57,0,0,0-.68.15,1.5,1.5,0,0,0-.56.42,2,2,0,0,0-.38.68,2.83,2.83,0,0,0-.14.9,3.24,3.24,0,0,0,.14,1,1.78,1.78,0,0,0,.39.69,1.39,1.39,0,0,0,.57.39,1.88,1.88,0,0,0,.72.13h.32l.31,0,.29-.06.29-.07v.83l-.31.08-.3.05-.33,0h-.38a3,3,0,0,1-1.07-.18,2,2,0,0,1-.83-.54,2.64,2.64,0,0,1-.56-.94,4.17,4.17,0,0,1-.19-1.34,3.38,3.38,0,0,1,.22-1.27,2.9,2.9,0,0,1,.6-1,2.35,2.35,0,0,1,.87-.6,2.78,2.78,0,0,1,1-.2h.33l.29,0,.3.05Z" style="fill:#4d4d4d"/><path d="M459.57,560.7v-3.86a1.36,1.36,0,0,0-.09-.51,1,1,0,0,0-.25-.39,1.13,1.13,0,0,0-.41-.25,1.64,1.64,0,0,0-.56-.09h-.38a3.43,3.43,0,0,0-.34.06l-.33.09a2.4,2.4,0,0,0-.36.14v4.8h-.91v-8.32l.91-.07v2.85l.39-.18a2.84,2.84,0,0,1,.38-.13l.38-.07a2.89,2.89,0,0,1,.43,0,2.61,2.61,0,0,1,.87.13,1.75,1.75,0,0,1,.65.38,1.58,1.58,0,0,1,.4.63,2.71,2.71,0,0,1,.13.85v4Z" style="fill:#4d4d4d"/><path d="M467.5,557.7a3.57,3.57,0,0,1-.22,1.29,3.07,3.07,0,0,1-.59,1,2.54,2.54,0,0,1-.88.61,2.66,2.66,0,0,1-1.05.21,3,3,0,0,1-1.06-.18,2,2,0,0,1-.81-.57,2.62,2.62,0,0,1-.52-.93,4.17,4.17,0,0,1-.18-1.28,3.9,3.9,0,0,1,.22-1.3,2.64,2.64,0,0,1,1.46-1.6,2.5,2.5,0,0,1,1.05-.22,2.83,2.83,0,0,1,1.07.19,2.13,2.13,0,0,1,.81.57,2.33,2.33,0,0,1,.52.93A4.19,4.19,0,0,1,467.5,557.7Zm-.95,0a4,4,0,0,0-.11-1,1.86,1.86,0,0,0-.34-.69,1.37,1.37,0,0,0-.54-.42,1.83,1.83,0,0,0-.73-.14,1.57,1.57,0,0,0-.68.15,1.55,1.55,0,0,0-.54.45,2.2,2.2,0,0,0-.35.72,3.86,3.86,0,0,0,0,1.91,1.82,1.82,0,0,0,.33.7,1.44,1.44,0,0,0,.54.41,1.86,1.86,0,0,0,.73.14,1.42,1.42,0,0,0,.68-.16,1.45,1.45,0,0,0,.54-.45,2.2,2.2,0,0,0,.35-.72A3.4,3.4,0,0,0,466.55,557.73Z" style="fill:#4d4d4d"/><path d="M474.24,557.7A3.79,3.79,0,0,1,474,559a3.28,3.28,0,0,1-.6,1,2.5,2.5,0,0,1-.87.61,2.73,2.73,0,0,1-1.05.21,3,3,0,0,1-1.07-.18,2.17,2.17,0,0,1-.81-.57,2.6,2.6,0,0,1-.51-.93,4.17,4.17,0,0,1-.18-1.28,3.9,3.9,0,0,1,.21-1.3,3,3,0,0,1,.6-1,2.64,2.64,0,0,1,.87-.61,2.46,2.46,0,0,1,1-.22,2.83,2.83,0,0,1,1.07.19,2.25,2.25,0,0,1,.82.57,2.44,2.44,0,0,1,.51.93A4.19,4.19,0,0,1,474.24,557.7Zm-.95,0a3.52,3.52,0,0,0-.11-1,1.86,1.86,0,0,0-.34-.69,1.24,1.24,0,0,0-.54-.42,1.81,1.81,0,0,0-.72-.14,1.58,1.58,0,0,0-.69.15,1.75,1.75,0,0,0-.54.45,2.18,2.18,0,0,0-.34.72,3.48,3.48,0,0,0-.12.95,3.52,3.52,0,0,0,.11,1,2,2,0,0,0,.34.7,1.3,1.3,0,0,0,.54.41,1.81,1.81,0,0,0,.72.14,1.46,1.46,0,0,0,.69-.16,1.63,1.63,0,0,0,.54-.45,2.18,2.18,0,0,0,.34-.72A3.4,3.4,0,0,0,473.29,557.73Z" style="fill:#4d4d4d"/><path d="M479.67,560.7v-3.86a1.36,1.36,0,0,0-.09-.51,1,1,0,0,0-.25-.39,1.13,1.13,0,0,0-.41-.25,1.64,1.64,0,0,0-.56-.09H478a3.43,3.43,0,0,0-.34.06l-.34.09a2.4,2.4,0,0,0-.36.14v4.8H476v-5.84l.88-.07v.4a2.89,2.89,0,0,1,.39-.2,3.43,3.43,0,0,1,.38-.13,2.7,2.7,0,0,1,.39-.08,3.24,3.24,0,0,1,.45,0,2.61,2.61,0,0,1,.87.13,1.75,1.75,0,0,1,.65.38,1.58,1.58,0,0,1,.4.63,2.71,2.71,0,0,1,.13.85v4Z" style="fill:#4d4d4d"/><path d="M482.29,557.77a4.35,4.35,0,0,1,.19-1.31,2.76,2.76,0,0,1,.52-1,2.22,2.22,0,0,1,.79-.58,2.39,2.39,0,0,1,1-.2,2.73,2.73,0,0,1,.94.15,1.79,1.79,0,0,1,1.14,1.19,2.86,2.86,0,0,1,.16,1v.37c0,.06,0,.12,0,.18a.88.88,0,0,1,0,.17h-3.75a3.05,3.05,0,0,0,.13,1,1.79,1.79,0,0,0,.4.66,1.39,1.39,0,0,0,.59.39,2.07,2.07,0,0,0,.77.13l.48,0a3.11,3.11,0,0,0,.44-.06,3.6,3.6,0,0,0,.44-.12,3.75,3.75,0,0,0,.43-.16v.82a3.35,3.35,0,0,1-.46.18l-.44.11a3.31,3.31,0,0,1-.47.07,4.33,4.33,0,0,1-.53,0,3.23,3.23,0,0,1-1.11-.18A2.16,2.16,0,0,1,483,560a2.36,2.36,0,0,1-.54-.93A4.46,4.46,0,0,1,482.29,557.77Zm.95-.71H486a2.76,2.76,0,0,0-.08-.68,1.38,1.38,0,0,0-.25-.5,1.15,1.15,0,0,0-.42-.3,1.6,1.6,0,0,0-.56-.09,1.12,1.12,0,0,0-.51.11,1.31,1.31,0,0,0-.44.31,1.48,1.48,0,0,0-.32.5A2.14,2.14,0,0,0,483.24,557.06Z" style="fill:#4d4d4d"/><path d="M493.56,557.59a3.81,3.81,0,0,1-.22,1.34,2.73,2.73,0,0,1-.64,1,2.63,2.63,0,0,1-1,.63,3.6,3.6,0,0,1-1.25.21H490l-.42,0a3.42,3.42,0,0,1-.44,0l-.47-.06v-8.26l.91-.07v2.84L490,555a2.78,2.78,0,0,1,.38-.12l.38-.07a2.75,2.75,0,0,1,.41,0,2.64,2.64,0,0,1,1,.17,2,2,0,0,1,.76.53,2.3,2.3,0,0,1,.48.89A3.87,3.87,0,0,1,493.56,557.59Zm-.95.08a3.18,3.18,0,0,0-.12-.93,1.67,1.67,0,0,0-.34-.65,1.34,1.34,0,0,0-.54-.37,2,2,0,0,0-.72-.12h-.33c-.1,0-.21,0-.31.06a1.81,1.81,0,0,0-.31.09l-.33.14v4l.26,0,.24,0h.49a2.32,2.32,0,0,0,.8-.13,2.09,2.09,0,0,0,.64-.42,2,2,0,0,0,.42-.72A3.17,3.17,0,0,0,492.61,557.67Z" style="fill:#4d4d4d"/><path d="M495,557.77a4.06,4.06,0,0,1,.19-1.31,2.76,2.76,0,0,1,.52-1,2.22,2.22,0,0,1,.79-.58,2.39,2.39,0,0,1,1-.2,2.77,2.77,0,0,1,.94.15,1.76,1.76,0,0,1,.7.45,1.9,1.9,0,0,1,.44.74,3.11,3.11,0,0,1,.15,1v.55c0,.06,0,.12,0,.17h-3.76a3,3,0,0,0,.14,1,1.66,1.66,0,0,0,.39.66,1.49,1.49,0,0,0,.6.39,2.06,2.06,0,0,0,.76.13,3.91,3.91,0,0,0,.49,0,3.11,3.11,0,0,0,.44-.06,3,3,0,0,0,.43-.12,3.89,3.89,0,0,0,.44-.16v.82a3.35,3.35,0,0,1-.46.18l-.44.11a3.31,3.31,0,0,1-.47.07,4.33,4.33,0,0,1-.53,0,3.33,3.33,0,0,1-1.12-.18,2.19,2.19,0,0,1-.85-.55,2.24,2.24,0,0,1-.54-.93A4.17,4.17,0,0,1,495,557.77Zm.95-.71h2.76a2.76,2.76,0,0,0-.08-.68,1.25,1.25,0,0,0-.26-.5,1.12,1.12,0,0,0-.41-.3,1.6,1.6,0,0,0-.56-.09,1.12,1.12,0,0,0-.51.11,1.31,1.31,0,0,0-.44.31,1.67,1.67,0,0,0-.33.5A2.47,2.47,0,0,0,496,557.06Z" style="fill:#4d4d4d"/><path d="M501.05,557.77a4.06,4.06,0,0,1,.19-1.31,2.61,2.61,0,0,1,.52-1,2.13,2.13,0,0,1,.79-.58,2.38,2.38,0,0,1,.95-.2,2.79,2.79,0,0,1,.95.15,1.84,1.84,0,0,1,.7.45,2,2,0,0,1,.44.74,3.11,3.11,0,0,1,.15,1v.55c0,.06,0,.12,0,.17H502a3,3,0,0,0,.14,1,1.66,1.66,0,0,0,.39.66,1.49,1.49,0,0,0,.6.39,2.06,2.06,0,0,0,.76.13,3.64,3.64,0,0,0,.48,0,3.25,3.25,0,0,0,.45-.06,3.45,3.45,0,0,0,.43-.12,3.89,3.89,0,0,0,.44-.16v.82a3.93,3.93,0,0,1-.46.18l-.44.11a3.54,3.54,0,0,1-.47.07,4.39,4.39,0,0,1-.54,0,3.27,3.27,0,0,1-1.11-.18,2.12,2.12,0,0,1-.85-.55,2.24,2.24,0,0,1-.54-.93A4.17,4.17,0,0,1,501.05,557.77Zm.95-.71h2.76a2.33,2.33,0,0,0-.09-.68,1.24,1.24,0,0,0-.25-.5,1.12,1.12,0,0,0-.41-.3,1.64,1.64,0,0,0-.56-.09,1.16,1.16,0,0,0-.52.11,1.27,1.27,0,0,0-.43.31,1.5,1.5,0,0,0-.33.5A2.47,2.47,0,0,0,502,557.06Z" style="fill:#4d4d4d"/><path d="M508.37,557.89v2.81h-.91v-8.32l.91-.07v4.77h.53l2-2.25H512l-2.28,2.52,2.49,3.35H511L509,557.89Z" style="fill:#4d4d4d"/><path d="M478,567.39a2.1,2.1,0,1,1,2.1-2.1A2.1,2.1,0,0,1,478,567.39Zm0-3.7a1.6,1.6,0,1,0,1.6,1.6A1.6,1.6,0,0,0,478,563.69Z" style="fill:#8b8f9e"/><path d="M534.59,498.21v-.84h4.87v.87l-4,6.12v.05h4.07v.84h-5.13v-.87l4-6.13v0Z" style="fill:#4d4d4d"/><path d="M548.67,499.38l-1.85,5.87h-1.16l-1.08-3.55h-.06l-1,3.55h-1.16l-1.86-5.87h1l1.43,5H543l1.17-3.86-.39-1.17h1l1.49,5h.06l1.4-5Z" style="fill:#4d4d4d"/><path d="M554.07,501.19v4.06h-.85v-.41a4.33,4.33,0,0,1-.42.22,2.74,2.74,0,0,1-.4.15,2,2,0,0,1-.43.08,3.58,3.58,0,0,1-.49,0,2.24,2.24,0,0,1-.76-.12,1.64,1.64,0,0,1-.58-.32,1.36,1.36,0,0,1-.36-.5,1.6,1.6,0,0,1,0-1.35,1.65,1.65,0,0,1,.5-.56,2.66,2.66,0,0,1,.83-.37,4.86,4.86,0,0,1,1.15-.13h.89v-.63a1.62,1.62,0,0,0-.08-.52,1,1,0,0,0-.25-.38,1.2,1.2,0,0,0-.42-.23,2.12,2.12,0,0,0-.59-.07,3,3,0,0,0-.42,0l-.42.07-.43.12-.45.17-.19-.77.52-.21c.17-.06.33-.1.49-.14a3.85,3.85,0,0,1,.49-.08l.54,0a3,3,0,0,1,.89.12,1.92,1.92,0,0,1,.66.37,1.62,1.62,0,0,1,.4.59A2.28,2.28,0,0,1,554.07,501.19Zm-3.47,2.47a.84.84,0,0,0,.07.35.66.66,0,0,0,.2.27.65.65,0,0,0,.33.17,1.53,1.53,0,0,0,.46.07,2.86,2.86,0,0,0,.42,0,1.61,1.61,0,0,0,.38-.08,2.32,2.32,0,0,0,.37-.13,3,3,0,0,0,.36-.18v-1.37h-.91a4.34,4.34,0,0,0-.78.07,1.57,1.57,0,0,0-.52.21.76.76,0,0,0-.38.68Z" style="fill:#4d4d4d"/><path d="M559,499.39l-.11.9-.18,0-.16,0-.16,0h-.17a1.43,1.43,0,0,0-.29,0,1,1,0,0,0-.27.11,1.93,1.93,0,0,0-.27.19,2.53,2.53,0,0,0-.31.28v4.44h-.92v-5.84l.9-.07V500a3.42,3.42,0,0,1,.33-.33,2,2,0,0,1,.3-.23,2,2,0,0,1,.31-.12,1.1,1.1,0,0,1,.31,0h.34l.17,0Z" style="fill:#4d4d4d"/><path d="M559.83,500.11v-.73h.71v-1l.91-.14v1.17H563v.73h-1.53v3.32a1.7,1.7,0,0,0,.06.48.88.88,0,0,0,.2.34.84.84,0,0,0,.29.2,1.11,1.11,0,0,0,.37.07h.21l.18,0,.19,0,.21,0v.77l-.27.06-.24,0-.25,0h-.26a1.81,1.81,0,0,1-.63-.1,1.35,1.35,0,0,1-.51-.31,1.4,1.4,0,0,1-.34-.57,2.7,2.7,0,0,1-.12-.86v-3.37Z" style="fill:#4d4d4d"/><path d="M564.22,502.32a4.06,4.06,0,0,1,.19-1.31,2.76,2.76,0,0,1,.52-1,2.13,2.13,0,0,1,.79-.58,2.38,2.38,0,0,1,.95-.2,2.79,2.79,0,0,1,1,.15,1.76,1.76,0,0,1,.7.45,2,2,0,0,1,.44.74,3.11,3.11,0,0,1,.15,1v.55c0,.06,0,.12,0,.17h-3.76a3,3,0,0,0,.14,1,1.77,1.77,0,0,0,.39.67,1.58,1.58,0,0,0,.6.38,2.06,2.06,0,0,0,.76.13,3.64,3.64,0,0,0,.48,0,3.25,3.25,0,0,0,.45-.06l.43-.11.44-.17v.83a3.78,3.78,0,0,1-.46.17l-.44.11a3.54,3.54,0,0,1-.47.07,4.33,4.33,0,0,1-.53,0,3.29,3.29,0,0,1-1.12-.18,2.12,2.12,0,0,1-.85-.55,2.24,2.24,0,0,1-.54-.93A4.17,4.17,0,0,1,564.22,502.32Zm.95-.71h2.76a2.38,2.38,0,0,0-.09-.68,1.24,1.24,0,0,0-.25-.5,1.12,1.12,0,0,0-.41-.3,1.64,1.64,0,0,0-.56-.09,1.16,1.16,0,0,0-.52.11,1.27,1.27,0,0,0-.43.31,1.61,1.61,0,0,0-.33.5A2.47,2.47,0,0,0,565.17,501.61Z" style="fill:#4d4d4d"/><path d="M577.78,505.25v-3.84a1.74,1.74,0,0,0-.08-.53,1,1,0,0,0-.24-.39,1.09,1.09,0,0,0-.4-.25,1.55,1.55,0,0,0-.55-.09h-.37l-.33.06-.32.09-.37.14v4.8h-.92v-3.87a1.7,1.7,0,0,0-.07-.53.85.85,0,0,0-.23-.39,1.08,1.08,0,0,0-.39-.24,2,2,0,0,0-.58-.07h-.39l-.33,0a1.81,1.81,0,0,0-.31.09l-.36.15v4.8h-.91v-5.84l.87-.07v.4l.41-.21.37-.13.38-.07.43,0a4.28,4.28,0,0,1,.52,0,2.12,2.12,0,0,1,.45.12,1.43,1.43,0,0,1,.37.19,1.48,1.48,0,0,1,.3.26,4.53,4.53,0,0,1,.5-.29,3.25,3.25,0,0,1,.46-.17,3.84,3.84,0,0,1,.46-.11,4.12,4.12,0,0,1,.51,0,2.67,2.67,0,0,1,.88.13,1.63,1.63,0,0,1,.64.38,1.8,1.8,0,0,1,.38.63,2.49,2.49,0,0,1,.13.85v3.95Z" style="fill:#4d4d4d"/><path d="M580.41,502.32a4.37,4.37,0,0,1,.18-1.31,2.78,2.78,0,0,1,.53-1,2.06,2.06,0,0,1,.79-.58,2.38,2.38,0,0,1,1-.2,2.83,2.83,0,0,1,.95.15,1.84,1.84,0,0,1,.7.45,2,2,0,0,1,.44.74,3.11,3.11,0,0,1,.15,1V502a1.09,1.09,0,0,1,0,.18c0,.06,0,.12,0,.17h-3.76a3,3,0,0,0,.14,1,1.77,1.77,0,0,0,.39.67,1.58,1.58,0,0,0,.6.38,2,2,0,0,0,.76.13,3.64,3.64,0,0,0,.48,0,3.47,3.47,0,0,0,.45-.06l.43-.11.43-.17v.83a3.67,3.67,0,0,1-.45.17l-.44.11a3.54,3.54,0,0,1-.47.07,4.63,4.63,0,0,1-.54,0,3.23,3.23,0,0,1-1.11-.18,2.12,2.12,0,0,1-.85-.55,2.37,2.37,0,0,1-.55-.93A4.48,4.48,0,0,1,580.41,502.32Zm1-.71h2.76a2.38,2.38,0,0,0-.09-.68,1.24,1.24,0,0,0-.25-.5,1.12,1.12,0,0,0-.41-.3,1.64,1.64,0,0,0-.56-.09,1.13,1.13,0,0,0-.52.11,1.42,1.42,0,0,0-.44.31,1.59,1.59,0,0,0-.32.5A2.47,2.47,0,0,0,581.36,501.61Z" style="fill:#4d4d4d"/><path d="M586.46,502.32a4.37,4.37,0,0,1,.18-1.31,2.78,2.78,0,0,1,.53-1,2.1,2.1,0,0,1,.78-.58,2.39,2.39,0,0,1,1-.2,2.73,2.73,0,0,1,.94.15,1.8,1.8,0,0,1,.71.45,2,2,0,0,1,.44.74,3.11,3.11,0,0,1,.15,1V502a1.09,1.09,0,0,1,0,.18.88.88,0,0,1,0,.17h-3.75a2.78,2.78,0,0,0,.14,1,1.77,1.77,0,0,0,.39.67,1.54,1.54,0,0,0,.59.38,2.11,2.11,0,0,0,.77.13,3.64,3.64,0,0,0,.48,0,3.11,3.11,0,0,0,.44-.06l.44-.11.43-.17v.83a3.25,3.25,0,0,1-.46.17l-.43.11a3.54,3.54,0,0,1-.47.07,4.63,4.63,0,0,1-.54,0,3.23,3.23,0,0,1-1.11-.18,2.23,2.23,0,0,1-.86-.55,2.48,2.48,0,0,1-.54-.93A4.48,4.48,0,0,1,586.46,502.32Zm.94-.71h2.76a2.4,2.4,0,0,0-.08-.68,1.38,1.38,0,0,0-.25-.5,1.08,1.08,0,0,0-.42-.3,1.59,1.59,0,0,0-.55-.09,1.13,1.13,0,0,0-.52.11,1.31,1.31,0,0,0-.44.31,1.59,1.59,0,0,0-.32.5A2.47,2.47,0,0,0,587.4,501.61Z" style="fill:#4d4d4d"/><path d="M595.7,499.39l-.11.9-.18,0-.16,0-.16,0h-.17a1.43,1.43,0,0,0-.29,0,1,1,0,0,0-.27.11,1.93,1.93,0,0,0-.27.19,2.53,2.53,0,0,0-.31.28v4.44h-.92v-5.84l.9-.07V500a3.42,3.42,0,0,1,.33-.33,2,2,0,0,1,.3-.23,2,2,0,0,1,.31-.12,1.1,1.1,0,0,1,.31,0h.34l.17,0Z" style="fill:#4d4d4d"/><path d="M565,511.94a2.1,2.1,0,1,1,2.1-2.1A2.1,2.1,0,0,1,565,511.94Zm0-3.7a1.6,1.6,0,1,0,1.6,1.6A1.6,1.6,0,0,0,565,508.24Z" style="fill:#8b8f9e"/><path d="M153,402.69h-2.14v-7.87h2.08a5.39,5.39,0,0,1,1.67.24,3.28,3.28,0,0,1,1.24.7,3,3,0,0,1,.77,1.17,4.69,4.69,0,0,1,.26,1.61,5.5,5.5,0,0,1-.27,1.8,3.52,3.52,0,0,1-.79,1.3,3.26,3.26,0,0,1-1.22.79A4.52,4.52,0,0,1,153,402.69Zm-1.19-7.06v6.26H153a3.45,3.45,0,0,0,1.19-.2,2.3,2.3,0,0,0,.9-.6,2.67,2.67,0,0,0,.58-1,4.65,4.65,0,0,0,.21-1.47,3.75,3.75,0,0,0-.21-1.31,2.35,2.35,0,0,0-.59-.93,2.43,2.43,0,0,0-.95-.55,4.21,4.21,0,0,0-1.28-.18Z" style="fill:#4d4d4d"/><path d="M166.13,396.83l-1.85,5.86h-1.16L162,399.14H162l-1,3.55h-1.17l-1.86-5.86H159l1.42,5h.06l1.17-3.85-.39-1.17h1l1.49,5h.06l1.4-5Z" style="fill:#4d4d4d"/><path d="M167.41,394.91a.7.7,0,0,1,.05-.25.35.35,0,0,1,.12-.19.78.78,0,0,1,.18-.11.74.74,0,0,1,.48,0,.78.78,0,0,1,.18.11.57.57,0,0,1,.12.18.8.8,0,0,1,0,.5.57.57,0,0,1-.12.18.78.78,0,0,1-.18.11.74.74,0,0,1-.48,0,.78.78,0,0,1-.18-.11.36.36,0,0,1-.12-.18A.69.69,0,0,1,167.41,394.91Zm1.05,1.88v5.9h-.91v-5.83Z" style="fill:#4d4d4d"/><path d="M174.24,402.69v-3.85a1.6,1.6,0,0,0-.08-.51,1,1,0,0,0-.25-.39,1.19,1.19,0,0,0-.42-.26,1.6,1.6,0,0,0-.56-.09l-.37,0a1.91,1.91,0,0,0-.33.06,1.89,1.89,0,0,0-.34.09l-.36.13v4.8h-.91v-5.83l.87-.07v.4a3,3,0,0,1,.4-.2,2.84,2.84,0,0,1,.38-.13,1.59,1.59,0,0,1,.39-.08,2.94,2.94,0,0,1,.44,0,2.66,2.66,0,0,1,.88.14,1.58,1.58,0,0,1,.64.38,1.62,1.62,0,0,1,.4.62,2.55,2.55,0,0,1,.13.86v3.94Z" style="fill:#4d4d4d"/><path d="M178,401.27a.41.41,0,0,0,0,.19.4.4,0,0,0,.13.16.55.55,0,0,0,.23.1,1.06,1.06,0,0,0,.33,0l1.57.05a2.55,2.55,0,0,1,.72.1,1.58,1.58,0,0,1,.5.27,1.14,1.14,0,0,1,.3.39,1.46,1.46,0,0,1,.09.52,1.77,1.77,0,0,1-.17.77,1.65,1.65,0,0,1-.53.62,2.62,2.62,0,0,1-.89.41A4.57,4.57,0,0,1,179,405a4.4,4.4,0,0,1-1-.1,2.57,2.57,0,0,1-.75-.32,1.35,1.35,0,0,1-.46-.49,1.19,1.19,0,0,1-.16-.62,1.07,1.07,0,0,1,.07-.39,1.27,1.27,0,0,1,.2-.36,1.82,1.82,0,0,1,.31-.31,2.4,2.4,0,0,1,.37-.22v-.05l-.18-.12a.61.61,0,0,1-.15-.17,1.24,1.24,0,0,1-.1-.2.88.88,0,0,1,0-.24.75.75,0,0,1,0-.26.8.8,0,0,1,.13-.24,1,1,0,0,1,.2-.2.91.91,0,0,1,.26-.13v0a1.9,1.9,0,0,1-.37-.26,1.35,1.35,0,0,1-.28-.35,1.7,1.7,0,0,1-.18-.46,2.36,2.36,0,0,1-.07-.55,2.59,2.59,0,0,1,.16-.91,1.82,1.82,0,0,1,.46-.69,2,2,0,0,1,.74-.43,3.05,3.05,0,0,1,1-.15h.24l.24,0,.23,0,.19,0h1.8v.69h-1.1v0a.8.8,0,0,1,.23.22,1.41,1.41,0,0,1,.18.29,1.9,1.9,0,0,1,.12.36,1.67,1.67,0,0,1,0,.39,2.16,2.16,0,0,1-.17.88,1.51,1.51,0,0,1-.47.64,2.18,2.18,0,0,1-.76.39,3.56,3.56,0,0,1-1,.13h-.18l-.16,0-.17,0-.15,0-.15.07-.12.11a.57.57,0,0,0-.08.13A.4.4,0,0,0,178,401.27Zm-.46,2.08a.71.71,0,0,0,.11.39.85.85,0,0,0,.32.3,1.7,1.7,0,0,0,.51.2,3.54,3.54,0,0,0,.69.06,4.55,4.55,0,0,0,.88-.07,2.1,2.1,0,0,0,.6-.21,1,1,0,0,0,.34-.32.79.79,0,0,0,.12-.42A.76.76,0,0,0,181,403a.45.45,0,0,0-.16-.2.81.81,0,0,0-.28-.13,2.22,2.22,0,0,0-.42-.06l-2-.09a1.69,1.69,0,0,0-.27.13l-.21.18a.68.68,0,0,0-.12.24A.86.86,0,0,0,177.49,403.35Zm1.61-3.15a2.22,2.22,0,0,0,.62-.08,1,1,0,0,0,.43-.24,1.07,1.07,0,0,0,.26-.44,2.38,2.38,0,0,0,.08-.64,1.7,1.7,0,0,0-.09-.57,1,1,0,0,0-.26-.4,1.27,1.27,0,0,0-.42-.25,1.89,1.89,0,0,0-.56-.08,1.94,1.94,0,0,0-.56.08,1.1,1.1,0,0,0-.43.26,1,1,0,0,0-.27.43,1.58,1.58,0,0,0-.09.6,1.89,1.89,0,0,0,.09.62,1,1,0,0,0,.27.41,1.18,1.18,0,0,0,.41.23A2.11,2.11,0,0,0,179.1,400.2Z" style="fill:#4d4d4d"/><path d="M183.06,399.77a4.06,4.06,0,0,1,.19-1.31,2.59,2.59,0,0,1,.52-1,2.31,2.31,0,0,1,1.75-.78,2.77,2.77,0,0,1,.94.15,1.76,1.76,0,0,1,.7.45,1.83,1.83,0,0,1,.44.74,3.11,3.11,0,0,1,.15,1v.55c0,.06,0,.11,0,.17H184a3,3,0,0,0,.14.95,1.63,1.63,0,0,0,.39.67,1.49,1.49,0,0,0,.6.39,2.28,2.28,0,0,0,.76.13,3.64,3.64,0,0,0,.48,0c.16,0,.31,0,.45-.06a3.45,3.45,0,0,0,.43-.12,4,4,0,0,0,.44-.17v.83l-.46.18-.44.11a3.31,3.31,0,0,1-.47.07,4.33,4.33,0,0,1-.53,0,3.33,3.33,0,0,1-1.12-.18,2.31,2.31,0,0,1-.85-.55,2.28,2.28,0,0,1-.54-.94A4.1,4.1,0,0,1,183.06,399.77Zm.95-.71h2.76a2.84,2.84,0,0,0-.08-.69,1.34,1.34,0,0,0-.26-.49,1,1,0,0,0-.41-.3,1.6,1.6,0,0,0-.56-.09,1.25,1.25,0,0,0-.51.1,1.5,1.5,0,0,0-.44.32,1.75,1.75,0,0,0-.33.49A2.66,2.66,0,0,0,184,399.06Z" style="fill:#4d4d4d"/><path d="M190.38,394.31v8.38h-.91v-8.31Z" style="fill:#4d4d4d"/><path d="M197.49,399.69a3.71,3.71,0,0,1-.22,1.29,3,3,0,0,1-.59,1,2.52,2.52,0,0,1-.88.62,2.66,2.66,0,0,1-1.05.21,3,3,0,0,1-1.06-.18,2.13,2.13,0,0,1-.81-.57,2.47,2.47,0,0,1-.52-.93,4.21,4.21,0,0,1-.18-1.28,3.62,3.62,0,0,1,.22-1.3,2.87,2.87,0,0,1,.59-1,2.55,2.55,0,0,1,1.92-.83,2.78,2.78,0,0,1,1.06.19,2.26,2.26,0,0,1,.82.56,2.62,2.62,0,0,1,.52.93A4.28,4.28,0,0,1,197.49,399.69Zm-1,0a3.5,3.5,0,0,0-.12-1,1.71,1.71,0,0,0-.33-.69,1.37,1.37,0,0,0-.54-.42,1.9,1.9,0,0,0-.73-.14,1.54,1.54,0,0,0-.68.15,1.45,1.45,0,0,0-.54.45,2.2,2.2,0,0,0-.35.72,3.48,3.48,0,0,0-.12,1,4,4,0,0,0,.11,1,1.86,1.86,0,0,0,.34.69,1.37,1.37,0,0,0,.54.42,1.83,1.83,0,0,0,.73.14,1.52,1.52,0,0,0,1.22-.61,2.2,2.2,0,0,0,.35-.72A3.4,3.4,0,0,0,196.54,399.73Z" style="fill:#4d4d4d"/><path d="M204.23,399.69A3.49,3.49,0,0,1,204,401a2.87,2.87,0,0,1-.59,1,2.35,2.35,0,0,1-.88.62,2.66,2.66,0,0,1-1,.21,3,3,0,0,1-1.06-.18,2.21,2.21,0,0,1-.81-.57,2.62,2.62,0,0,1-.52-.93,4.55,4.55,0,0,1-.18-1.28,3.85,3.85,0,0,1,.22-1.3,2.89,2.89,0,0,1,.6-1,2.74,2.74,0,0,1,.86-.62,2.66,2.66,0,0,1,1.05-.21,2.83,2.83,0,0,1,1.07.19,2.22,2.22,0,0,1,.81.56,2.47,2.47,0,0,1,.52.93A4.28,4.28,0,0,1,204.23,399.69Zm-.95,0a4,4,0,0,0-.11-1,1.86,1.86,0,0,0-.34-.69,1.37,1.37,0,0,0-.54-.42,1.81,1.81,0,0,0-.72-.14,1.58,1.58,0,0,0-.69.15,1.45,1.45,0,0,0-.54.45,2.2,2.2,0,0,0-.35.72,3.86,3.86,0,0,0,0,1.91,1.71,1.71,0,0,0,.33.69,1.37,1.37,0,0,0,.54.42,1.9,1.9,0,0,0,.73.14,1.42,1.42,0,0,0,.68-.16,1.45,1.45,0,0,0,.54-.45,2.2,2.2,0,0,0,.35-.72A3.4,3.4,0,0,0,203.28,399.73Z" style="fill:#4d4d4d"/><path d="M177.36,409.39a2.1,2.1,0,1,1,2.09-2.1A2.11,2.11,0,0,1,177.36,409.39Zm0-3.7a1.6,1.6,0,1,0,1.59,1.6A1.6,1.6,0,0,0,177.36,405.69Z" style="fill:#8b8f9e"/><path d="M279.73,231.45l2.48,8.52h-1.95l-.47-1.83h-2.88l-.47,1.83h-1.76l2.5-8.52Zm-.29,5.35-1.05-4h-.09l-1.05,4Z" style="fill:#4d4d4d"/><path d="M283.15,239.88V238.5a6.07,6.07,0,0,0,.93.17,7,7,0,0,0,.9.06,1.83,1.83,0,0,0,.93-.17.48.48,0,0,0,.25-.42.47.47,0,0,0-.16-.37,1.72,1.72,0,0,0-.66-.29l-.82-.25a2.08,2.08,0,0,1-1-.62,1.6,1.6,0,0,1-.37-1.11,1.8,1.8,0,0,1,.73-1.47,3.19,3.19,0,0,1,2-.58,7.69,7.69,0,0,1,.85,0,6.82,6.82,0,0,1,.74.09l-.09,1.34c-.29,0-.55-.08-.8-.1s-.5,0-.77,0a1.74,1.74,0,0,0-.84.15.46.46,0,0,0-.26.38.45.45,0,0,0,.13.34,1.34,1.34,0,0,0,.58.27l.77.21a2.29,2.29,0,0,1,1.2.67,1.69,1.69,0,0,1,.35,1.08,1.89,1.89,0,0,1-.73,1.59,3.2,3.2,0,0,1-2,.57c-.36,0-.7,0-1,0A4.62,4.62,0,0,1,283.15,239.88Z" style="fill:#4d4d4d"/><path d="M289,239.88V238.5a6.07,6.07,0,0,0,.93.17,7,7,0,0,0,.9.06,1.83,1.83,0,0,0,.93-.17.48.48,0,0,0,.25-.42.47.47,0,0,0-.16-.37,1.72,1.72,0,0,0-.66-.29l-.82-.25a2.08,2.08,0,0,1-1-.62,1.6,1.6,0,0,1-.37-1.11,1.8,1.8,0,0,1,.73-1.47,3.19,3.19,0,0,1,2-.58,7.69,7.69,0,0,1,.85,0,6.82,6.82,0,0,1,.74.09l-.09,1.34c-.29,0-.55-.08-.8-.1s-.5,0-.77,0a1.74,1.74,0,0,0-.84.15.46.46,0,0,0-.26.38.45.45,0,0,0,.13.34,1.34,1.34,0,0,0,.58.27l.77.21a2.21,2.21,0,0,1,1.19.67,1.64,1.64,0,0,1,.36,1.08,1.89,1.89,0,0,1-.73,1.59,3.2,3.2,0,0,1-2,.57c-.36,0-.7,0-1,0A4.62,4.62,0,0,1,289,239.88Z" style="fill:#4d4d4d"/><path d="M294.85,236.76a3.33,3.33,0,0,1,.86-2.49,2.83,2.83,0,0,1,2.09-.86,2.53,2.53,0,0,1,1.88.7,2.61,2.61,0,0,1,.7,1.94c0,.21,0,.43,0,.64s0,.39,0,.53h-3.95a1.77,1.77,0,0,0,.62,1.13,2.22,2.22,0,0,0,1.34.36,5.58,5.58,0,0,0,1-.07c.27,0,.57-.12.88-.21v1.3q-.53.15-1,.24a6.67,6.67,0,0,1-1.09.08,3.42,3.42,0,0,1-2.4-.81A3.17,3.17,0,0,1,294.85,236.76Zm1.53-.69h2.47a1.65,1.65,0,0,0-.32-1,1,1,0,0,0-.85-.4,1.13,1.13,0,0,0-.85.37A1.85,1.85,0,0,0,296.38,236.07Z" style="fill:#4d4d4d"/><path d="M305.91,240v-3.88a1.21,1.21,0,0,0-.29-.91,1.2,1.2,0,0,0-.83-.26,3.37,3.37,0,0,0-.58,0,4.42,4.42,0,0,0-.59.16V240H302v-6.41l1.55-.06V234a3,3,0,0,1,.82-.41,3.07,3.07,0,0,1,.88-.12,2.2,2.2,0,0,1,1.64.59,2.28,2.28,0,0,1,.6,1.71V240Z" style="fill:#4d4d4d"/><path d="M291.54,246.86a2.1,2.1,0,1,1,2.1-2.1A2.1,2.1,0,0,1,291.54,246.86Zm0-3.7a1.6,1.6,0,1,0,1.6,1.6A1.6,1.6,0,0,0,291.54,243.16Z" style="fill:#8b8f9e"/></svg>