<svg xmlns="http://www.w3.org/2000/svg" viewBox="0 0 621 734"><path d="M299.05,20.74l4.28-1.59,4.9,4.34,4.18,5.22,2.22,3.77,3.28,7,1,3.21,2.39-1.1,1.23,1.14,4-3,1.85-.46,2.73,3.93L344.85,29l3.41-1.19,1.33-1.08.88-1.55,1.95,1.07,1.24.16,6,4.76,2,4.91,1.62,2.43,2.51,2.05,4.76,2.13,2.69,3.25.86,2.53.38,5.62-.32,4.86,1.21,1.59,2.49,1.85,4.68,6.92,1.8,5.16.18,1.91-1.76,6.79-1.39,2.79-.1,4.85-.68,1.43-.84.94-5.75,2.21-6.26,1.19-1.25,1.74-.06,1.85.57,1.19.72.62,2.51.56,1,.84.44,1.07L370,105.86l-3.19,1-.79,1.36.42,5.2-.44,5-.52,3.65-1.26,1.55,0,1,3.13.41,1.08,2.37.18,5.6,2.11.68,3.29,0,.65,1.2.9,2.86,1.64,2.32.25,5,3,3.7.9,3.91,1.75,1.55-1.81,2.61v2l3.59.82,1.77,1.28,3.9-.36.16,1-.53,1.8-2.22,1.43-.65,1.69.85,3.29,2.13,1.56,2.69.65.84,1.5-.08,1.63.68.62.58-.62.06-.92L393.88,173l-.6-1.69,1.24.51.24-.47-.66-.5.74-1.34,1.43,1.54.3-3,.44-1.79.44-.22,1.41.16,1.3-.56,2,.62,3.47-.16,4.6,3.44,4.86.66,2.17.82,2.17,0,.86.66,4.16-.36,3.05.87.16-1.49,2.07.72.74-1,3.65-1,.26.82.95.2.22.88,1,.87,6.51.06,2.53-.71,2.77-.12.18-4.37,2.09-1.37,1.26-.22.64-1.38,5.95-.35,3.51-1.5,1.79.88,4.07-.26,5.14.62-.1,2.57,2.21,3.12,1.29,3.71,6.36,6.66,2.59,5.23,1.87.72,2.07.1.64.62.14,2.83,1.73,3.9,1.06,1.38,3.05,1.49,1,1,1.08.36,6-2.15L516.59,197l11.34-2.31.22-.52,1,.58.1.81,1.95.82.62,1.24,1.4,1-1,2.09.22.84,2.65,2.45,2.65-2,1.33-.46.54-1.65.76-.62,1.67.52,1.54,2.15,1.55-2.71,1.32.1,6.49,3.43.88.81.57,1.7-.06,1.23-1,1.5.88.45-.06,2.81.41,1.44-.41,3.28-3.35,5.38,4.64,2.16,6.87,1.27,5.4,2.51,14.21-.1h0l-1.36,10.6-1.09,1.73-.28-.71-.8-.3-1.83,1.73.28,1.34,1.49,1.43.06,1.44-3.9,4.86L561,251.52l.7,1.33-.18,1.54-2,4.14-1.07.46-.12,2,.48.56,0,6h8.6l12.26,5.87,3.07,2.71,1,2.12,2.15.85,10.72,8.79,0,1.89.58.66,5.7.88,1,3.26-.31,3.57,1,4.08-.6,2.22-.91,1.61-4.19.16-1.55,1.47-3.31,1.18-.87,6.53.06,4.35L590,323.08l.72.82-5,6.12-5.77,2.39-.06,1.79-.64.66-4.66,1.63L573,339.28l-3,1.44-5.22-4.13-1-1.11-.22-2-.78.4-.64-.26-1.11-2.75-1.58,0-1.51-.91-1.53.46-12.56,5.95-2,2.09-1.11.1-1.58-.55-14.58,4.88-3.79,2.61-2.33,2.23-.91.06-1.4-1.89-2.39,1-2.33,2.49-3.13,2-3.58,1.5-3,2.07-.92.88-.06,1.47-1.33,1.89-6.4,1.72-2.71,1.59-1.69-.62-3.19-4.28-1.4-1.17-1.69,1.39-3.88,1.93-1-.81-.58-2.85-3.41-1.14-.81-1.21-5.2-.46-1.62-1.48-.69.3.26,1.34-1.24,3.46.22.7,4.84,3.89,2.33.59.16.82-2.41,3.37,0,1.93,1.42,2.95-.16.36-1.2-.32,1,3.53-.28.81-1,.34-5.3-3.51-4.9-.14-2-.91.44-1.38-1.2-3-2.27-2-9.4-1.23-5.82.56-1.62-7.28-.81-.51.38-1.52-3.39-1.63-1.57-.2-1.1-1.08-2.39-.36-1.4.56L425.42,354l-2.53.78-5.12-.1-1.38-.46-5.77.7-1.52-.36-3.9-2.29-4.41-4.52-.22-2,2.42-.46-.78-.92.1-1.07-6.76-5.14-.41.95-3.75-2.35L384.2,338l-2.13,1.63-2.34-1.83L378.6,340l-1-.6-.63.6.13,1.33-1.57,1.28,4.88.1,3.35,2.39,2.19,1,1.73,4.84.2,2.81,6.14,4.94-.12,3.05.7,7-6.76-2.43-4.72-1-5.42.2-4.06-.92L371,363.33l-5-4.42-3.59-2.26-1.73,3.21-2.05.88.73,1.67-.3,1.12-3.74,2.09-2.65,2.45-1-1.08L348,368.37l-1.62,3.21-3.7,1.87-4.59.52-2.94-1.12-2.41-.2L330.11,371l-5.1,6.32,4.18,3.24-1,1.32-.46-.36-.43.46-.74-.56-.38.32-.5-.46-.58.66.2,1,5.36,2.89,1.16,2.05,3.25,2.53.14.72-1.14.72.72.76-1.2,2.33,1,2.09,2-.06,1.44,1,.93-.32.34.52-2.07,2.09-.34,2.69,2.17,2.49-.16,1.47-9.62,7.15-1.08.32-.65.86,0,2.53h-1.2l-.32,1-.7.35-3.62.24-1.3-1.35-.06-.92L319,415.91l-2.23-1.12h-1.36l-1-5.7-6-7.61-2-.36-6.54.86-.12,1.18,1.72,6.25-1.78,1.87h0l-4.72-.85L280.74,412l-7.64,2-4.6,0-2.17-.45-2.59-1.28-1.85-1.57L260.23,408l.36-.3-.85-1.48-2.4-2.43-1.41-.81-6.06-1-1.51-1.47-2.25-3.87-2.39-2.29-5.9-1-3.37-2.13L232.28,388l-1.87-5.53-2.07-2.3-1.62-.45-3.94.1-1.8-.72-5.28-3.45-4-1-3.83.77-5.57.4L200.88,377l-2.33,3.86-2,.62L190,379.87,185.12,375l-2-1H182l-3.06,1.31-1.14,2.19-.46,2.89L176,382.36l-1.74,1.23-3.94,1-2.05.3-4.39-.4-3.14-1.32L157.81,379l-1-.66-2.59,0-1,.82-1.57,2.85L148,386.84l-5.48,9.3-2,6.5-.3,6.67L139,411.44l-1.59,1.16-10,4.58-6.33,4.37-1.48.09-4.22-1.51-3.51-.32-2.23.78-2.43,2-2,.66-2.31-.88-3.27-2.93-2.27-1-1.79-.2-7.42,1.61-6.25-1.51-4.09.16L66.7,421.39l-.12-3.71,3.64-3.05,1.4-2.07-1.48-1.28L69.57,410l.14-2,.93-2.69-.22-1.48-7.19-3.5L60,397l-1.57-.82-1.91-.3-1.84.8-3.07,3.27-2.23.3-1.13-.46-2.77-3.05-1.4-2.95-1.57-1.07,0-1.42-.74-.76-8.45-3.86L31,384.51l-1.69-4.13-1.85-1.33h0l4.72.1,2.05-9.92-6.77-.92-1.89-3.15.67-2.81-1.15-3.7.81-.86,3.59,3.15,8-.2,3,1.21,1-1.17,3.57-1.42,1.18-1.11-2.18-1.34-.79-1.73.49-1.73,2.59-1.28,3.83,0,2.19-1.23,2.09-3.11.34-2.49.9-.72,1.87.58,2-.52,3.39.82.72-1.38.58-4.34,4.36-8.09,1.49.7-.2-3.21,4-5.86L73.79,322l.92-.2,9.1-17.36h0l4.32,2.81,4.05.88,1.69-.42,2.25-2,2.77-5.36,1.36-1.67,2.39-.62,2.49,1.47,3.69,3.83,3.5,1.89,4,1.08,5.1.66,4.88,3.26,2.69.16,3.84-1.95,3.13-4,2.49-1.73,2.67-.42,4.58,1,3-.2,9.9-3.79,4.15-3.5,2.07-1.14,8.61,1.7,5.56-.62,1.81.46,4.3,2.61,2.07,1.89,10.19,3.76,2.27,3.63,2.27,1.79,2.45,1.06,8.17,2.09,5.34,3.59L221,313.8l1.82,1-.14-2.61,1.87-.46,0-3.05-1.37-3.33-.06-1.37.81-1.28.34-2.15-3.19-3.77-.69-4.18-1.36-2.11-2-.4-2.53-2.35-1.3-1.38-.27-3.26-.54-.88-1-1.08-.76.82-3.08-3.37,1.73,0,.42-8.94-6-2.25.42-3.53-2.41-1,1.11-3,.78-7.53-.34-.7.92-3.79-.52-4-.88,0-1-1.24-.26-3.68-1.2-.82.6-1.43-.54-2.93-2.13.32.16,1-.68.14-.81-1-2.81.72.22,1.32,1,.32,0,.71.8.66-.88,2.05,1.7.46-.16,1.34-.22,1-2.55-.76-1,1.8,2.09.85-3,3.23-2.63-.56-2.79.2-.82,2.77-3.71,0-2.67.94L174.08,248l-.19-1-1.26-.3L172,246l3.41-4.34,4.54-2.87-.42-5.32,2.75-2.67.16-1-2.21-1.43,6.52.67v-.71l-1.32-.72.06-1.75-1.53-.5-1.46-1.79.72.13.44-2.86,3.44-.5,1.54-3-4.24-2.11-.22-.76.59-3-3.24-.1L179,210.36l.43-3.45-.89-.3.2-1.08-2.06-.87-.15-.78-12-1.63-5-1.8.26-1.85-.52-3.07-1-1,1.35-1.08,2.37.72,1.3-1.08.81-3.94-.1-3L151,175.57l3.63-15.6h0l4.66-1.79,35-10,1.17-1.66,2.11-5.76,10.44-32.25,3.69-5.72.78-.76,4.58-1,1.08.16,1.43,1.81,2.15-1.75,7.81-3.71,1.14.36,1.51,1.59,8.61-7.37,2.93.06,3-.88,2.65-2.59,3.46-1.37,2.27-1.65.76-1.3,1.61-1.28-.53-1,.18-.72.67-.16,1.2,1.1.82,0,4.92-4,.38-.71,1.13-.32L273,71.19l2.49-1.49,6.13-6,.66-2,3.49-5.06L283.94,54l.1-.58L288.47,45l.87-.42,2.21.74.6-.62,0-1,2-5.46.82-5,1.95-2.85Z" style="fill:#e5e5e5"/><path d="M342.73,308.66v-.84h4.87v.87l-4,6.12v.05h4.07v.84h-5.14v-.87l4-6.13v0Z" style="fill:#4d4d4d"/><path d="M349,312.77a4.37,4.37,0,0,1,.18-1.31,2.69,2.69,0,0,1,.53-1,2.1,2.1,0,0,1,.78-.58,2.23,2.23,0,0,1,1-.2,2.73,2.73,0,0,1,.94.15,1.8,1.8,0,0,1,.71.45,2,2,0,0,1,.44.74,3.11,3.11,0,0,1,.15,1v.37a1.09,1.09,0,0,1,0,.18.88.88,0,0,1,0,.17h-3.75a2.78,2.78,0,0,0,.14,1,1.66,1.66,0,0,0,.39.66,1.52,1.52,0,0,0,.59.39,2.11,2.11,0,0,0,.77.13,3.64,3.64,0,0,0,.48,0l.45-.06.43-.12a3.75,3.75,0,0,0,.43-.16v.82l-.46.18-.43.11a3.54,3.54,0,0,1-.47.07,4.63,4.63,0,0,1-.54,0,3.23,3.23,0,0,1-1.11-.18,2.35,2.35,0,0,1-.86-.55,2.48,2.48,0,0,1-.54-.93A4.48,4.48,0,0,1,349,312.77Zm.94-.71h2.76a2.42,2.42,0,0,0-.08-.69,1.42,1.42,0,0,0-.25-.49,1,1,0,0,0-.42-.3,1.59,1.59,0,0,0-.55-.09,1.13,1.13,0,0,0-.52.11,1.31,1.31,0,0,0-.44.31,1.54,1.54,0,0,0-.32.49A2.66,2.66,0,0,0,350,312.06Z" style="fill:#4d4d4d"/><path d="M356.69,315.7l-2-5.87h1l1.61,5h.06l1.52-5h.94l-2,5.87Z" style="fill:#4d4d4d"/><path d="M360.85,312.77a4.06,4.06,0,0,1,.19-1.31,2.67,2.67,0,0,1,.52-1,2.31,2.31,0,0,1,1.74-.78,2.79,2.79,0,0,1,.95.15,1.76,1.76,0,0,1,.7.45,1.9,1.9,0,0,1,.44.74,3.11,3.11,0,0,1,.15,1v.55c0,.06,0,.12,0,.17h-3.76a3,3,0,0,0,.14,1,1.66,1.66,0,0,0,.39.66,1.49,1.49,0,0,0,.6.39,2.06,2.06,0,0,0,.76.13,3.64,3.64,0,0,0,.48,0c.16,0,.31,0,.45-.06a3.45,3.45,0,0,0,.43-.12,3.89,3.89,0,0,0,.44-.16v.82l-.46.18-.44.11a3.31,3.31,0,0,1-.47.07,4.39,4.39,0,0,1-.54,0,3.31,3.31,0,0,1-1.11-.18,2.24,2.24,0,0,1-1.39-1.48A4.17,4.17,0,0,1,360.85,312.77Zm.95-.71h2.76a2.4,2.4,0,0,0-.09-.69,1.26,1.26,0,0,0-.25-.49,1,1,0,0,0-.41-.3,1.64,1.64,0,0,0-.56-.09,1.16,1.16,0,0,0-.52.11,1.27,1.27,0,0,0-.43.31,1.56,1.56,0,0,0-.33.49A2.66,2.66,0,0,0,361.8,312.06Z" style="fill:#4d4d4d"/><path d="M370.88,315.7v-3.86a1.6,1.6,0,0,0-.08-.51,1,1,0,0,0-.67-.64,1.4,1.4,0,0,0-.56-.09h-.37a1.91,1.91,0,0,0-.33.06,1.89,1.89,0,0,0-.34.09,2.4,2.4,0,0,0-.36.14v4.8h-.91v-5.84l.87-.07v.4a3,3,0,0,1,.4-.2,2.84,2.84,0,0,1,.38-.13,1.59,1.59,0,0,1,.39-.08,3,3,0,0,1,.44,0,2.67,2.67,0,0,1,.88.13,1.75,1.75,0,0,1,.65.38,1.68,1.68,0,0,1,.39.63,2.45,2.45,0,0,1,.13.85v3.95Z" style="fill:#4d4d4d"/><path d="M377.85,311.64v4.06H377v-.41l-.41.22a3.25,3.25,0,0,1-.4.15,2,2,0,0,1-.43.08,3.73,3.73,0,0,1-.5,0,2.19,2.19,0,0,1-.75-.12,1.55,1.55,0,0,1-.58-.32,1.46,1.46,0,0,1-.37-.51,1.62,1.62,0,0,1-.12-.64,1.4,1.4,0,0,1,.17-.7,1.61,1.61,0,0,1,.49-.56,2.54,2.54,0,0,1,.83-.37,4.47,4.47,0,0,1,1.16-.13H377v-.64a1.36,1.36,0,0,0-.09-.51.88.88,0,0,0-.24-.38,1.2,1.2,0,0,0-.42-.23,2.15,2.15,0,0,0-.6-.07,2.88,2.88,0,0,0-.41,0,3.07,3.07,0,0,0-.42.07l-.43.12a4.13,4.13,0,0,0-.45.17l-.19-.77.52-.21a2.9,2.9,0,0,1,.48-.14,2.74,2.74,0,0,1,.5-.08,4.52,4.52,0,0,1,.54,0,3,3,0,0,1,.89.12,1.66,1.66,0,0,1,1.06,1A2.24,2.24,0,0,1,377.85,311.64Zm-3.46,2.47a1,1,0,0,0,.06.35.78.78,0,0,0,.53.44,1.68,1.68,0,0,0,.47.06l.41,0a2.45,2.45,0,0,0,.39-.08,2.72,2.72,0,0,0,.37-.13l.36-.18v-1.37h-.92a4.22,4.22,0,0,0-.77.07,1.48,1.48,0,0,0-.52.21.69.69,0,0,0-.29.3A.79.79,0,0,0,374.39,314.11Z" style="fill:#4d4d4d"/><path d="M383.91,311.64v4.06h-.85v-.41l-.41.22a3.25,3.25,0,0,1-.4.15,2,2,0,0,1-.43.08,3.73,3.73,0,0,1-.5,0,2.19,2.19,0,0,1-.75-.12,1.55,1.55,0,0,1-.58-.32,1.46,1.46,0,0,1-.37-.51,1.62,1.62,0,0,1-.12-.64,1.4,1.4,0,0,1,.17-.7,1.61,1.61,0,0,1,.49-.56,2.54,2.54,0,0,1,.83-.37,4.47,4.47,0,0,1,1.16-.13H383v-.64a1.36,1.36,0,0,0-.09-.51.88.88,0,0,0-.24-.38,1.2,1.2,0,0,0-.42-.23,2.15,2.15,0,0,0-.6-.07,2.88,2.88,0,0,0-.41,0,3.07,3.07,0,0,0-.42.07l-.43.12a4.13,4.13,0,0,0-.45.17l-.19-.77.52-.21a2.9,2.9,0,0,1,.48-.14,2.74,2.74,0,0,1,.5-.08,4.52,4.52,0,0,1,.54,0,3,3,0,0,1,.89.12,1.66,1.66,0,0,1,1.06,1A2.24,2.24,0,0,1,383.91,311.64Zm-3.46,2.47a1,1,0,0,0,.06.35.78.78,0,0,0,.53.44,1.68,1.68,0,0,0,.47.06l.41,0a2.92,2.92,0,0,0,.76-.21l.36-.18v-1.37h-.92a4.22,4.22,0,0,0-.77.07,1.48,1.48,0,0,0-.52.21.69.69,0,0,0-.29.3A.79.79,0,0,0,380.45,314.11Z" style="fill:#4d4d4d"/><path d="M388.82,309.84l-.11.9-.18,0-.16,0-.15,0H388a.9.9,0,0,0-.28,0,1,1,0,0,0-.27.11,1.86,1.86,0,0,0-.28.18,3.85,3.85,0,0,0-.31.29v4.44H386v-5.84l.9-.07v.69a3.4,3.4,0,0,1,.32-.33,1.9,1.9,0,0,1,.31-.23,1.17,1.17,0,0,1,.31-.12,1.06,1.06,0,0,1,.31,0h.34a.9.9,0,0,1,.16,0Z" style="fill:#4d4d4d"/><path d="M365.62,322.39a2.1,2.1,0,1,1,2.1-2.1A2.1,2.1,0,0,1,365.62,322.39Zm0-3.7a1.6,1.6,0,1,0,1.6,1.6A1.6,1.6,0,0,0,365.62,318.69Z" style="fill:#8b8f9e"/><path d="M438.76,355.1h-.06l-.29,6.92h-.9l.37-7.87h1.44l2.1,5.21h.05l2.06-5.21h1.39l.38,7.87h-.95l-.3-6.92H444l-2.14,5.3h-.92Z" style="fill:#4d4d4d"/><path d="M447.21,359.09a4.46,4.46,0,0,1,.18-1.31,2.78,2.78,0,0,1,.53-1,2.25,2.25,0,0,1,.79-.58,2.38,2.38,0,0,1,1-.2,2.56,2.56,0,0,1,.95.16,1.81,1.81,0,0,1,.7.44,2,2,0,0,1,.44.74,3.13,3.13,0,0,1,.15,1v.36a1.09,1.09,0,0,1,0,.18c0,.06,0,.12,0,.18h-3.76a3,3,0,0,0,.14.95,1.77,1.77,0,0,0,.39.67,1.73,1.73,0,0,0,.6.39,2.29,2.29,0,0,0,.76.12l.48,0,.45-.07a2.26,2.26,0,0,0,.43-.11,3.2,3.2,0,0,0,.43-.17v.83a3.67,3.67,0,0,1-.45.17l-.44.12-.47.07-.54,0a3.27,3.27,0,0,1-1.11-.18,2.21,2.21,0,0,1-.85-.54,2.49,2.49,0,0,1-.55-.94A4.43,4.43,0,0,1,447.21,359.09Zm1-.71h2.76a2.38,2.38,0,0,0-.09-.68,1.24,1.24,0,0,0-.25-.5,1,1,0,0,0-.41-.29,1.43,1.43,0,0,0-.56-.1,1.27,1.27,0,0,0-.52.11,1.6,1.6,0,0,0-.44.31,1.79,1.79,0,0,0-.32.5A2.58,2.58,0,0,0,448.16,358.38Z" style="fill:#4d4d4d"/><path d="M454.34,360.59a.45.45,0,0,0,0,.2.61.61,0,0,0,.12.16.7.7,0,0,0,.23.1,1.72,1.72,0,0,0,.34,0l1.57.05a3,3,0,0,1,.72.11,1.39,1.39,0,0,1,.5.26,1.11,1.11,0,0,1,.29.4,1.21,1.21,0,0,1,.1.52,1.68,1.68,0,0,1-.18.77,1.7,1.7,0,0,1-.52.62,2.93,2.93,0,0,1-.89.41,5.08,5.08,0,0,1-1.23.14,4.37,4.37,0,0,1-1-.11,2.32,2.32,0,0,1-.75-.31,1.46,1.46,0,0,1-.47-.49,1.22,1.22,0,0,1-.09-1,1.53,1.53,0,0,1,.21-.37,1.77,1.77,0,0,1,.31-.3,1.57,1.57,0,0,1,.37-.22v-.05a.94.94,0,0,1-.18-.12.8.8,0,0,1-.15-.17,1.24,1.24,0,0,1-.1-.2,1,1,0,0,1,0-.25.74.74,0,0,1,0-.25.9.9,0,0,1,.12-.24,1.34,1.34,0,0,1,.21-.2.82.82,0,0,1,.26-.14v0a2,2,0,0,1-.37-.26,1.25,1.25,0,0,1-.28-.36,1.51,1.51,0,0,1-.18-.45,1.93,1.93,0,0,1-.07-.55,2.47,2.47,0,0,1,.16-.92,1.82,1.82,0,0,1,.46-.69,2.15,2.15,0,0,1,.74-.43,3,3,0,0,1,1-.15h.24l.24,0a.85.85,0,0,1,.23,0l.19,0h1.8v.68h-1.1v0a1.12,1.12,0,0,1,.23.21,1.49,1.49,0,0,1,.18.3,1.8,1.8,0,0,1,.12.35,1.75,1.75,0,0,1,0,.4,2.19,2.19,0,0,1-.16.88,1.67,1.67,0,0,1-.47.64,2.15,2.15,0,0,1-.77.39,3.87,3.87,0,0,1-1,.13H455l-.16,0a.4.4,0,0,0-.15,0,.41.41,0,0,0-.15.07l-.12.11a.44.44,0,0,0-.11.27Zm-.46,2.09a.77.77,0,0,0,.11.39.85.85,0,0,0,.32.3,1.7,1.7,0,0,0,.51.19,2.87,2.87,0,0,0,.69.07,4.37,4.37,0,0,0,.87-.07,1.9,1.9,0,0,0,.6-.21,1,1,0,0,0,.35-.33.73.73,0,0,0,.12-.41.78.78,0,0,0-.05-.28.51.51,0,0,0-.16-.2A.91.91,0,0,0,457,362a2.34,2.34,0,0,0-.43-.06l-2-.1a1.46,1.46,0,0,0-.28.14.7.7,0,0,0-.2.18.76.76,0,0,0-.13.23A.86.86,0,0,0,453.88,362.68Zm1.61-3.15a2.28,2.28,0,0,0,.62-.08,1,1,0,0,0,.69-.68,2.43,2.43,0,0,0,.08-.64,1.62,1.62,0,0,0-.09-.57,1.15,1.15,0,0,0-.26-.41,1.24,1.24,0,0,0-.42-.24,1.64,1.64,0,0,0-.56-.09,1.7,1.7,0,0,0-.57.09,1.06,1.06,0,0,0-.43.26,1,1,0,0,0-.27.43,1.8,1.8,0,0,0-.09.6,1.59,1.59,0,0,0,.1.61,1,1,0,0,0,.27.42,1.08,1.08,0,0,0,.41.22A1.67,1.67,0,0,0,455.49,359.53Z" style="fill:#4d4d4d"/><path d="M463.41,356.22l-.11.83L463,357l-.27-.05-.27,0h-.29a1.72,1.72,0,0,0-.68.14,1.65,1.65,0,0,0-.56.43,1.93,1.93,0,0,0-.37.68,2.5,2.5,0,0,0-.14.9,3,3,0,0,0,.14,1,1.72,1.72,0,0,0,.38.68,1.51,1.51,0,0,0,.57.4,2.09,2.09,0,0,0,.72.12h.32l.31,0,.29,0,.29-.07v.82a1.92,1.92,0,0,1-.3.08l-.31.05-.33,0h-.38a3.29,3.29,0,0,1-1.07-.17,2.12,2.12,0,0,1-.83-.55,2.49,2.49,0,0,1-.55-.94,3.86,3.86,0,0,1-.2-1.34,3.42,3.42,0,0,1,.22-1.27,3,3,0,0,1,.6-1,2.44,2.44,0,0,1,.87-.59,2.59,2.59,0,0,1,1-.2h.33l.3,0,.29,0Z" style="fill:#4d4d4d"/><path d="M468.57,362v-3.85a1.42,1.42,0,0,0-.09-.52,1,1,0,0,0-.25-.39,1.13,1.13,0,0,0-.41-.25,1.64,1.64,0,0,0-.56-.09l-.38,0-.33.05-.33.09a2.67,2.67,0,0,0-.36.14V362h-.92V353.7l.92-.07v2.86l.39-.19a2.29,2.29,0,0,1,.37-.12,1.59,1.59,0,0,1,.38-.07,2.9,2.9,0,0,1,.43,0,2.57,2.57,0,0,1,.87.13,1.69,1.69,0,0,1,.65.39,1.48,1.48,0,0,1,.4.62,2.49,2.49,0,0,1,.13.85V362Z" style="fill:#4d4d4d"/><path d="M471.2,359.09a4.46,4.46,0,0,1,.18-1.31,2.78,2.78,0,0,1,.53-1,2.21,2.21,0,0,1,.78-.58,2.39,2.39,0,0,1,1-.2,2.5,2.5,0,0,1,.94.16,1.78,1.78,0,0,1,.71.44,2,2,0,0,1,.44.74,3.13,3.13,0,0,1,.15,1v.36a1.09,1.09,0,0,1,0,.18,1.1,1.1,0,0,1,0,.18h-3.75a2.75,2.75,0,0,0,.14.95,1.63,1.63,0,0,0,1,1.06,2.35,2.35,0,0,0,.77.12l.48,0,.45-.07a2.47,2.47,0,0,0,.43-.11,3.83,3.83,0,0,0,.43-.17v.83a3.25,3.25,0,0,1-.46.17c-.14.05-.29.08-.43.12l-.47.07-.54,0a3.23,3.23,0,0,1-1.11-.18,2.33,2.33,0,0,1-.86-.54,2.61,2.61,0,0,1-.54-.94A4.43,4.43,0,0,1,471.2,359.09Zm.94-.71h2.76a2.4,2.4,0,0,0-.08-.68,1.38,1.38,0,0,0-.25-.5,1,1,0,0,0-.42-.29,1.38,1.38,0,0,0-.55-.1,1.27,1.27,0,0,0-.52.11,1.47,1.47,0,0,0-.44.31,1.59,1.59,0,0,0-.32.5A2.59,2.59,0,0,0,472.14,358.38Z" style="fill:#4d4d4d"/><path d="M478.52,353.63V362h-.92V353.7Z" style="fill:#4d4d4d"/><path d="M480.32,359.09a4.46,4.46,0,0,1,.18-1.31,2.78,2.78,0,0,1,.53-1,2.21,2.21,0,0,1,.78-.58,2.43,2.43,0,0,1,1-.2,2.5,2.5,0,0,1,.94.16,1.78,1.78,0,0,1,.71.44,2,2,0,0,1,.44.74,3.13,3.13,0,0,1,.15,1v.36a1.09,1.09,0,0,1,0,.18,1.1,1.1,0,0,1,0,.18h-3.75a2.75,2.75,0,0,0,.14.95,1.77,1.77,0,0,0,.39.67,1.69,1.69,0,0,0,.59.39,2.35,2.35,0,0,0,.77.12l.48,0,.44-.07a2.36,2.36,0,0,0,.44-.11,3.83,3.83,0,0,0,.43-.17v.83a3.67,3.67,0,0,1-.45.17L484,362l-.47.07-.54,0a3.23,3.23,0,0,1-1.11-.18,2.33,2.33,0,0,1-.86-.54,2.61,2.61,0,0,1-.54-.94A4.43,4.43,0,0,1,480.32,359.09Zm.94-.71H484a2.4,2.4,0,0,0-.08-.68,1.38,1.38,0,0,0-.25-.5,1,1,0,0,0-.42-.29,1.38,1.38,0,0,0-.55-.1,1.27,1.27,0,0,0-.52.11,1.47,1.47,0,0,0-.44.31,1.59,1.59,0,0,0-.32.5A2.59,2.59,0,0,0,481.26,358.38Z" style="fill:#4d4d4d"/><path d="M490.35,362v-3.85a1.42,1.42,0,0,0-.09-.52,1,1,0,0,0-.25-.39,1.13,1.13,0,0,0-.41-.25,1.64,1.64,0,0,0-.56-.09l-.37,0-.34.05-.33.09a2.67,2.67,0,0,0-.36.14V362h-.92v-5.83l.88-.07v.39l.4-.2.37-.13a2.66,2.66,0,0,1,.39-.07,3.19,3.19,0,0,1,.45,0,2.57,2.57,0,0,1,.87.13,1.69,1.69,0,0,1,.65.39,1.48,1.48,0,0,1,.4.62,2.49,2.49,0,0,1,.13.85V362Z" style="fill:#4d4d4d"/><path d="M464.41,368.71a2.1,2.1,0,1,1,2.1-2.09A2.1,2.1,0,0,1,464.41,368.71Zm0-3.69a1.6,1.6,0,1,0,1.6,1.6A1.6,1.6,0,0,0,464.41,365Z" style="fill:#8b8f9e"/><path d="M288.34,324.17V316.3h3.89v.84h-2.94v2.55h2.65v.84h-2.65v2.8h3v.84Z" style="fill:#4d4d4d"/><path d="M295.14,315.78v8.39h-.91v-8.32Z" style="fill:#4d4d4d"/><path d="M296.84,324.05v-.83l.4.1.42.07.42,0,.45,0a2.23,2.23,0,0,0,.55-.07,1.19,1.19,0,0,0,.41-.18.83.83,0,0,0,.25-.28.88.88,0,0,0,0-.66.62.62,0,0,0-.17-.25,1.51,1.51,0,0,0-.31-.2,2.56,2.56,0,0,0-.45-.16l-.68-.21a2.18,2.18,0,0,1-.54-.22,1.76,1.76,0,0,1-.39-.32,1.64,1.64,0,0,1-.24-.43,1.78,1.78,0,0,1-.08-.53,1.53,1.53,0,0,1,.15-.67,1.62,1.62,0,0,1,.43-.55,2,2,0,0,1,.67-.35,2.75,2.75,0,0,1,.88-.13h.39l.36,0,.34,0,.32.06-.1.79-.34-.06-.32,0-.33,0H299a2,2,0,0,0-.51.06,1.21,1.21,0,0,0-.38.17.66.66,0,0,0-.24.26.71.71,0,0,0-.07.32.91.91,0,0,0,0,.3.54.54,0,0,0,.15.22.86.86,0,0,0,.26.18,2.21,2.21,0,0,0,.37.14l.68.18a2.36,2.36,0,0,1,.62.24,1.49,1.49,0,0,1,.44.33,1.17,1.17,0,0,1,.27.42,1.6,1.6,0,0,1,.08.51,1.71,1.71,0,0,1-.16.75,1.79,1.79,0,0,1-.46.6,2,2,0,0,1-.7.39,2.65,2.65,0,0,1-.9.14H298l-.41,0a2.44,2.44,0,0,1-.39-.06Z" style="fill:#4d4d4d"/><path d="M301.87,319v-.73h.7v-1l.91-.13v1.16H305V319h-1.54v3.32a1.62,1.62,0,0,0,.07.48.86.86,0,0,0,.19.34.75.75,0,0,0,.3.2,1.06,1.06,0,0,0,.37.07h.2l.19,0,.19,0,.21,0v.77l-.27.06-.25,0-.24,0h-.26a1.83,1.83,0,0,1-.64-.1,1.2,1.2,0,0,1-.5-.31,1.35,1.35,0,0,1-.35-.57,2.7,2.7,0,0,1-.12-.86V319Z" style="fill:#4d4d4d"/><path d="M296.41,330.86a2.1,2.1,0,1,1,2.1-2.1A2.1,2.1,0,0,1,296.41,330.86Zm0-3.69a1.6,1.6,0,1,0,1.6,1.59A1.6,1.6,0,0,0,296.41,327.17Z" style="fill:#8b8f9e"/><path d="M435.62,268.93v-.84h4.87V269l-4,6.12v.05h4.07V276H435.4v-.86l4-6.14v0Z" style="fill:#4d4d4d"/><path d="M441.9,273a4.41,4.41,0,0,1,.18-1.31,2.78,2.78,0,0,1,.53-1,2.21,2.21,0,0,1,.78-.58,2.39,2.39,0,0,1,1-.2,2.73,2.73,0,0,1,.94.15,1.92,1.92,0,0,1,.71.45,2,2,0,0,1,.44.74,3.13,3.13,0,0,1,.15,1v.36a1.09,1.09,0,0,1,0,.18,1.1,1.1,0,0,1,0,.18h-3.75a2.75,2.75,0,0,0,.14.95,1.77,1.77,0,0,0,.39.67,1.64,1.64,0,0,0,.59.39,2.35,2.35,0,0,0,.77.12,3.7,3.7,0,0,0,.48,0l.44-.07a3.54,3.54,0,0,0,.44-.11,3.83,3.83,0,0,0,.43-.17v.83a3.67,3.67,0,0,1-.45.17l-.44.12-.47.07a4.7,4.7,0,0,1-.54,0,3.23,3.23,0,0,1-1.11-.18,2.25,2.25,0,0,1-.86-.54,2.61,2.61,0,0,1-.54-.94A4.48,4.48,0,0,1,441.9,273Zm.94-.71h2.76a2.4,2.4,0,0,0-.08-.68,1.47,1.47,0,0,0-.25-.5,1,1,0,0,0-.42-.29,1.38,1.38,0,0,0-.55-.1,1.27,1.27,0,0,0-.52.11,1.47,1.47,0,0,0-.44.31,1.59,1.59,0,0,0-.32.5A2.59,2.59,0,0,0,442.84,272.32Z" style="fill:#4d4d4d"/><path d="M449.22,267.57V276h-.92v-8.32Z" style="fill:#4d4d4d"/><path d="M455,276v-3.85a1.67,1.67,0,0,0-.08-.52,1,1,0,0,0-.26-.39,1.13,1.13,0,0,0-.41-.25,1.6,1.6,0,0,0-.56-.09l-.38,0-.33.05-.33.09-.36.14V276h-.91v-8.32l.91-.07v2.86a3.49,3.49,0,0,1,.39-.19,2.65,2.65,0,0,1,.37-.12,2.33,2.33,0,0,1,.38-.08l.43,0a2.67,2.67,0,0,1,.88.13,1.72,1.72,0,0,1,.64.39,1.48,1.48,0,0,1,.4.62,2.49,2.49,0,0,1,.13.85V276Z" style="fill:#4d4d4d"/><path d="M457.63,273a4.41,4.41,0,0,1,.18-1.31,2.78,2.78,0,0,1,.53-1,2.21,2.21,0,0,1,.78-.58,2.46,2.46,0,0,1,1-.2,2.79,2.79,0,0,1,.95.15,2,2,0,0,1,.7.45,2,2,0,0,1,.44.74,3.13,3.13,0,0,1,.15,1v.36a1.09,1.09,0,0,1,0,.18c0,.06,0,.12,0,.18h-3.76a3,3,0,0,0,.14.95,1.77,1.77,0,0,0,.39.67,1.6,1.6,0,0,0,.6.39,2.24,2.24,0,0,0,.76.12,3.7,3.7,0,0,0,.48,0l.45-.07a3.39,3.39,0,0,0,.43-.11,3.83,3.83,0,0,0,.43-.17v.83a3.67,3.67,0,0,1-.45.17l-.44.12-.47.07a4.61,4.61,0,0,1-.54,0,3.23,3.23,0,0,1-1.11-.18,2.21,2.21,0,0,1-.85-.54,2.49,2.49,0,0,1-.55-.94A4.48,4.48,0,0,1,457.63,273Zm.95-.71h2.76a2.38,2.38,0,0,0-.09-.68,1.31,1.31,0,0,0-.25-.5,1,1,0,0,0-.41-.29,1.43,1.43,0,0,0-.56-.1,1.27,1.27,0,0,0-.52.11,1.47,1.47,0,0,0-.76.81A2.58,2.58,0,0,0,458.58,272.32Z" style="fill:#4d4d4d"/><path d="M471.19,276v-3.84a1.67,1.67,0,0,0-.08-.52,1,1,0,0,0-.24-.4,1.09,1.09,0,0,0-.4-.25,1.59,1.59,0,0,0-.55-.09l-.38,0-.32.05-.32.09-.38.14V276h-.91V272.1a1.81,1.81,0,0,0-.07-.54,1,1,0,0,0-.23-.39.94.94,0,0,0-.39-.23,2,2,0,0,0-.58-.08l-.39,0-.33.05a1.81,1.81,0,0,0-.31.09l-.36.14V276H464v-5.83l.87-.07v.39l.4-.2a1.9,1.9,0,0,1,.38-.13,2.33,2.33,0,0,1,.38-.08l.43,0a3,3,0,0,1,.52,0,2.12,2.12,0,0,1,.45.11,2.15,2.15,0,0,1,.37.19,2.55,2.55,0,0,1,.3.26,4.35,4.35,0,0,1,.5-.28,2.19,2.19,0,0,1,.46-.18,2.52,2.52,0,0,1,.46-.1,2.78,2.78,0,0,1,.51,0,2.67,2.67,0,0,1,.88.13,1.61,1.61,0,0,1,.63.39,1.57,1.57,0,0,1,.39.62,2.49,2.49,0,0,1,.13.85V276Z" style="fill:#4d4d4d"/><path d="M454.05,282.65a2.1,2.1,0,1,1,2.1-2.09A2.1,2.1,0,0,1,454.05,282.65Zm0-3.69a1.6,1.6,0,1,0,1.6,1.6A1.6,1.6,0,0,0,454.05,279Z" style="fill:#8b8f9e"/><path d="M547.12,294l-2.19-7.87H546l1.79,6.92h.06l1.66-4.86-.68-2.06h1l2.23,6.92h.06l1.82-6.92h1L552.71,294h-1.26L550,289.39h-.05L548.38,294Z" style="fill:#4d4d4d"/><path d="M556.22,286.17a.69.69,0,0,1,0-.25.47.47,0,0,1,.12-.18.76.76,0,0,1,.19-.12.74.74,0,0,1,.48,0,.57.57,0,0,1,.18.12.46.46,0,0,1,.11.18.62.62,0,0,1,0,.25.61.61,0,0,1,0,.24.54.54,0,0,1-.11.18.42.42,0,0,1-.18.11.6.6,0,0,1-.48,0,.52.52,0,0,1-.19-.11.57.57,0,0,1-.12-.18A.61.61,0,0,1,556.22,286.17Zm1,1.88V294h-.92v-5.84Z" style="fill:#4d4d4d"/><path d="M563.05,294v-3.85a1.38,1.38,0,0,0-.09-.52,1,1,0,0,0-.25-.39,1.13,1.13,0,0,0-.41-.25,1.64,1.64,0,0,0-.56-.09h-.37c-.11,0-.23,0-.34.06a2,2,0,0,0-.33.09,2.67,2.67,0,0,0-.36.14V294h-.92v-5.84l.88-.07v.4a3,3,0,0,1,.4-.2,2.92,2.92,0,0,1,.76-.21l.45,0a2.67,2.67,0,0,1,.88.13,1.7,1.7,0,0,1,.64.38,1.58,1.58,0,0,1,.4.63,2.45,2.45,0,0,1,.13.85V294Z" style="fill:#4d4d4d"/><path d="M565.51,288.82v-.73h.71v-1l.91-.13v1.16h1.53v.73h-1.53v3.32a1.39,1.39,0,0,0,.07.48.75.75,0,0,0,.19.34.84.84,0,0,0,.29.2,1.11,1.11,0,0,0,.37.07h.21l.18,0,.19,0,.21,0v.77l-.27.06-.24,0-.25,0h-.26a1.81,1.81,0,0,1-.63-.1,1.31,1.31,0,0,1-.85-.88,2.7,2.7,0,0,1-.12-.86v-3.37Z" style="fill:#4d4d4d"/><path d="M569.9,291a4.1,4.1,0,0,1,.19-1.31,2.76,2.76,0,0,1,.52-1,2.25,2.25,0,0,1,.79-.58,2.39,2.39,0,0,1,1-.2,2.77,2.77,0,0,1,.94.15,1.76,1.76,0,0,1,.7.45,1.9,1.9,0,0,1,.44.74,3.11,3.11,0,0,1,.15,1v.55c0,.06,0,.12,0,.17h-3.76a3,3,0,0,0,.14,1,1.77,1.77,0,0,0,.39.67,1.58,1.58,0,0,0,.6.38,2.06,2.06,0,0,0,.76.13l.48,0,.45-.07.43-.11.44-.17v.83a3.78,3.78,0,0,1-.46.17l-.44.11-.47.08-.53,0a3.33,3.33,0,0,1-1.12-.18,2.19,2.19,0,0,1-.85-.55,2.24,2.24,0,0,1-.54-.93A4.17,4.17,0,0,1,569.9,291Zm1-.71h2.76a2.82,2.82,0,0,0-.08-.68,1.39,1.39,0,0,0-.26-.5,1,1,0,0,0-.41-.29,1.4,1.4,0,0,0-.56-.1,1.12,1.12,0,0,0-.51.11,1.22,1.22,0,0,0-.44.31,1.61,1.61,0,0,0-.33.5A2.47,2.47,0,0,0,570.85,290.32Z" style="fill:#4d4d4d"/><path d="M579.14,288.1l-.11.9-.18,0-.16,0-.15,0h-.18a1.26,1.26,0,0,0-.28,0,1.53,1.53,0,0,0-.27.11,2,2,0,0,0-.28.19,2.44,2.44,0,0,0-.31.28V294h-.91v-5.84l.9-.07v.69a3.4,3.4,0,0,1,.32-.33,1.79,1.79,0,0,1,.31-.22,1.3,1.3,0,0,1,.3-.13,1.17,1.17,0,0,1,.32,0h.34l.16,0Z" style="fill:#4d4d4d"/><path d="M580.05,293.84V293l.41.1.42.07.42,0,.44,0a2.31,2.31,0,0,0,.56-.07,2,2,0,0,0,.41-.18.83.83,0,0,0,.25-.28.86.86,0,0,0,.08-.36,1.06,1.06,0,0,0,0-.31.69.69,0,0,0-.18-.24,1.42,1.42,0,0,0-.3-.2,2.36,2.36,0,0,0-.45-.16l-.69-.21a2,2,0,0,1-.53-.22,1.39,1.39,0,0,1-.39-.32,1.22,1.22,0,0,1-.24-.43,1.51,1.51,0,0,1-.09-.53,1.53,1.53,0,0,1,.15-.67,1.65,1.65,0,0,1,.44-.55,2.14,2.14,0,0,1,.67-.36,3,3,0,0,1,.87-.12h.39c.13,0,.24,0,.36,0l.34,0a3,3,0,0,1,.32.06l-.09.79-.34-.06-.32,0-.33,0h-.37a2.06,2.06,0,0,0-.52.06,1.21,1.21,0,0,0-.38.17.71.71,0,0,0-.23.26.72.72,0,0,0-.08.32.94.94,0,0,0,0,.3.54.54,0,0,0,.15.22,1.08,1.08,0,0,0,.26.18,1.92,1.92,0,0,0,.37.14l.68.18a2.5,2.5,0,0,1,.62.24,1.64,1.64,0,0,1,.44.33,1,1,0,0,1,.26.42,1.36,1.36,0,0,1,.09.51,1.72,1.72,0,0,1-.17.75,1.64,1.64,0,0,1-.45.6,2,2,0,0,1-.71.39,2.83,2.83,0,0,1-.9.14h-.47l-.41,0c-.13,0-.26,0-.38-.06Z" style="fill:#4d4d4d"/><path d="M593.05,288.09,591.2,294H590L589,290.4h-.06l-1,3.56H586.7l-1.86-5.87h1l1.43,5h.06l1.17-3.85-.39-1.18h1l1.49,5h.06l1.4-5Z" style="fill:#4d4d4d"/><path d="M594.33,286.17a.7.7,0,0,1,0-.25.37.37,0,0,1,.11-.18.76.76,0,0,1,.19-.12.74.74,0,0,1,.48,0,.57.57,0,0,1,.18.12.47.47,0,0,1,.12.18.87.87,0,0,1,0,.25.86.86,0,0,1,0,.24.57.57,0,0,1-.12.18.42.42,0,0,1-.18.11.6.6,0,0,1-.48,0,.52.52,0,0,1-.19-.11.42.42,0,0,1-.11-.18A.6.6,0,0,1,594.33,286.17Zm1,1.88V294h-.92v-5.84Z" style="fill:#4d4d4d"/><path d="M598.45,288.05v6.24a2.26,2.26,0,0,1-.13.81,1.54,1.54,0,0,1-.36.59,1.77,1.77,0,0,1-.54.4,2.87,2.87,0,0,1-.7.22l-.12-.77a1.74,1.74,0,0,0,.41-.18,1.25,1.25,0,0,0,.3-.25.84.84,0,0,0,.17-.34,1.68,1.68,0,0,0,.06-.47v-6.18Zm-1.05-1.88a.7.7,0,0,1,.05-.25.32.32,0,0,1,.12-.18.57.57,0,0,1,.18-.12.74.74,0,0,1,.48,0,.57.57,0,0,1,.18.12.47.47,0,0,1,.12.18.87.87,0,0,1,0,.25.86.86,0,0,1,0,.24.57.57,0,0,1-.12.18.42.42,0,0,1-.18.11.6.6,0,0,1-.48,0,.42.42,0,0,1-.18-.11.36.36,0,0,1-.12-.18A.6.6,0,0,1,597.4,286.17Z" style="fill:#4d4d4d"/><path d="M601.52,291.15V294h-.91v-8.32l.91-.07v4.78h.53l2-2.26h1.11l-2.28,2.52,2.49,3.35H604.2l-2.07-2.81Z" style="fill:#4d4d4d"/><path d="M575.17,300.65a2.1,2.1,0,1,1,2.1-2.1A2.1,2.1,0,0,1,575.17,300.65Zm0-3.7a1.6,1.6,0,1,0,1.6,1.6A1.6,1.6,0,0,0,575.17,297Z" style="fill:#8b8f9e"/><path d="M521.2,311.49l2.41,7.87h-1.05l-.63-2.12h-3.07l-.63,2.12h-1l2.47-7.87Zm.5,4.94-1.24-4.21h-.11l-1.25,4.21Z" style="fill:#4d4d4d"/><path d="M529,315.3v4.06h-.85V319a3.42,3.42,0,0,1-.42.22,2.74,2.74,0,0,1-.4.15,2.84,2.84,0,0,1-.42.09l-.5,0a2.58,2.58,0,0,1-.76-.11,1.78,1.78,0,0,1-.57-.33,1.24,1.24,0,0,1-.37-.5,1.7,1.7,0,0,1-.13-.64,1.48,1.48,0,0,1,.17-.7,1.65,1.65,0,0,1,.5-.56,2.35,2.35,0,0,1,.83-.37,4.44,4.44,0,0,1,1.16-.14h.88v-.64a1.37,1.37,0,0,0-.08-.51,1,1,0,0,0-.67-.61,2.1,2.1,0,0,0-.59-.08l-.41,0a3.1,3.1,0,0,0-.42.08l-.44.12-.45.16-.19-.76.52-.21.49-.15a3.85,3.85,0,0,1,.49-.07,4.63,4.63,0,0,1,.54,0,2.75,2.75,0,0,1,.9.13,1.71,1.71,0,0,1,.65.36,1.48,1.48,0,0,1,.4.6A2.18,2.18,0,0,1,529,315.3Zm-3.47,2.47a.81.81,0,0,0,.07.35.69.69,0,0,0,.2.28,1,1,0,0,0,.33.17,1.6,1.6,0,0,0,.46.06l.42,0,.39-.08.36-.13.36-.19v-1.37h-.91a3.43,3.43,0,0,0-.77.07,1.55,1.55,0,0,0-.53.2.91.91,0,0,0-.29.3A.85.85,0,0,0,525.55,317.77Z" style="fill:#4d4d4d"/><path d="M532,311v8.39h-.91V311Z" style="fill:#4d4d4d"/><path d="M533.64,314.22v-.73h.71v-1l.91-.13v1.16h1.54v.73h-1.54v3.32a1.45,1.45,0,0,0,.07.49.83.83,0,0,0,.48.53.9.9,0,0,0,.37.07h.21l.18,0,.2,0,.21,0v.77l-.27.06-.25,0-.24,0H536a2.08,2.08,0,0,1-.63-.09,1.37,1.37,0,0,1-.51-.32,1.34,1.34,0,0,1-.34-.57,2.66,2.66,0,0,1-.12-.86v-3.37Z" style="fill:#4d4d4d"/><path d="M538,316.43a4.15,4.15,0,0,1,.19-1.31,2.76,2.76,0,0,1,.52-1,2.34,2.34,0,0,1,.79-.58,2.39,2.39,0,0,1,1-.2,2.77,2.77,0,0,1,.94.15,1.76,1.76,0,0,1,.7.45,1.9,1.9,0,0,1,.44.74,3.13,3.13,0,0,1,.15,1v.54c0,.06,0,.12,0,.18h-3.76a3,3,0,0,0,.14,1,1.77,1.77,0,0,0,.39.67,1.73,1.73,0,0,0,.6.39,2.29,2.29,0,0,0,.76.12l.49,0,.44-.07a2.09,2.09,0,0,0,.43-.11l.44-.17v.83a3.78,3.78,0,0,1-.46.17c-.14,0-.29.08-.44.12l-.47.07-.53,0a3.33,3.33,0,0,1-1.12-.18,2.29,2.29,0,0,1-.85-.54,2.35,2.35,0,0,1-.54-.94A4.13,4.13,0,0,1,538,316.43Zm1-.71h2.76a2.82,2.82,0,0,0-.08-.68,1.25,1.25,0,0,0-.26-.5,1,1,0,0,0-.41-.29,1.4,1.4,0,0,0-.56-.1,1.26,1.26,0,0,0-.51.11,1.47,1.47,0,0,0-.44.31,1.81,1.81,0,0,0-.33.5A2.58,2.58,0,0,0,539,315.72Z" style="fill:#4d4d4d"/><path d="M548.06,319.36v-3.85A1.42,1.42,0,0,0,548,315a1.14,1.14,0,0,0-.25-.39,1.09,1.09,0,0,0-.42-.25,1.59,1.59,0,0,0-.55-.09l-.38,0-.33.05-.34.09-.36.14v4.8h-.91v-5.83l.88-.07v.39a3.6,3.6,0,0,1,.39-.2l.38-.13a2.26,2.26,0,0,1,.39-.07,3,3,0,0,1,.44,0,2.67,2.67,0,0,1,.88.13,1.76,1.76,0,0,1,.65.39,1.46,1.46,0,0,1,.39.62,2.48,2.48,0,0,1,.14.85v3.95Z" style="fill:#4d4d4d"/><path d="M533.56,326.05a2.1,2.1,0,1,1,2.1-2.09A2.1,2.1,0,0,1,533.56,326.05Zm0-3.69a1.6,1.6,0,1,0,1.6,1.6A1.6,1.6,0,0,0,533.56,322.36Z" style="fill:#8b8f9e"/><path d="M571.41,314.49h.94v3.43H573l2.8-3.43H577l-3.07,3.72,3.15,4.15h-1.22l-2.75-3.6h-.71v3.6h-.94Z" style="fill:#4d4d4d"/><path d="M583.23,319.36a3.79,3.79,0,0,1-.22,1.29,2.87,2.87,0,0,1-.59,1,2.6,2.6,0,0,1-1.93.83,2.94,2.94,0,0,1-1.06-.19,2,2,0,0,1-.81-.56,2.6,2.6,0,0,1-.52-.94,4.17,4.17,0,0,1-.18-1.28,3.57,3.57,0,0,1,.22-1.29,2.69,2.69,0,0,1,.59-1,2.61,2.61,0,0,1,1.92-.84,3,3,0,0,1,1.06.19,2.17,2.17,0,0,1,.82.57,2.62,2.62,0,0,1,.52.93A4.19,4.19,0,0,1,583.23,319.36Zm-1,0a3.38,3.38,0,0,0-.12-.95,1.82,1.82,0,0,0-.33-.7,1.58,1.58,0,0,0-.54-.42,1.86,1.86,0,0,0-.73-.13,1.54,1.54,0,0,0-.68.15,1.52,1.52,0,0,0-.54.44,2.2,2.2,0,0,0-.35.72,3.48,3.48,0,0,0-.12.95,3.84,3.84,0,0,0,.11,1,2,2,0,0,0,.34.7,1.44,1.44,0,0,0,.54.41,1.67,1.67,0,0,0,.73.14,1.45,1.45,0,0,0,1.22-.61,2,2,0,0,0,.35-.72A3.4,3.4,0,0,0,582.28,319.39Z" style="fill:#4d4d4d"/><path d="M584.5,317.22v-.73h.71v-1l.91-.13v1.16h1.53v.73h-1.53v3.32a1.65,1.65,0,0,0,.06.48.88.88,0,0,0,.2.34.72.72,0,0,0,.29.2,1.11,1.11,0,0,0,.37.07h.21l.18,0,.19,0,.21,0v.77l-.27.06-.24,0-.25,0h-.26a1.81,1.81,0,0,1-.63-.1,1.23,1.23,0,0,1-.51-.31,1.34,1.34,0,0,1-.34-.57,2.7,2.7,0,0,1-.12-.86v-3.37Z" style="fill:#4d4d4d"/><path d="M588.72,317.22v-.73h.71v-1l.91-.13v1.16h1.54v.73h-1.54v3.32a1.35,1.35,0,0,0,.07.48.86.86,0,0,0,.19.34.72.72,0,0,0,.29.2,1.17,1.17,0,0,0,.38.07h.2l.19,0,.19,0,.21,0v.77l-.27.06-.25,0-.24,0H591a1.81,1.81,0,0,1-.63-.1,1.23,1.23,0,0,1-.51-.31,1.44,1.44,0,0,1-.34-.57,2.7,2.7,0,0,1-.12-.86v-3.37Z" style="fill:#4d4d4d"/><path d="M593.11,319.43a4.4,4.4,0,0,1,.19-1.31,2.76,2.76,0,0,1,.52-1,2.34,2.34,0,0,1,.79-.58,2.39,2.39,0,0,1,1-.2,2.73,2.73,0,0,1,.94.15,1.87,1.87,0,0,1,.71.45,2.17,2.17,0,0,1,.44.74,3.11,3.11,0,0,1,.15,1v.37c0,.06,0,.12,0,.18s0,.12,0,.17H594a3.05,3.05,0,0,0,.13,1,2.08,2.08,0,0,0,.39.67,1.58,1.58,0,0,0,.6.38,2.07,2.07,0,0,0,.77.13l.48,0,.44-.07a3.54,3.54,0,0,0,.44-.11l.43-.17v.83a3.25,3.25,0,0,1-.46.17l-.44.11a3.29,3.29,0,0,1-.47.08l-.53,0a3.23,3.23,0,0,1-1.11-.18,2.16,2.16,0,0,1-.86-.55,2.36,2.36,0,0,1-.54-.93A4.46,4.46,0,0,1,593.11,319.43Zm.95-.71h2.76a2.82,2.82,0,0,0-.08-.68,1.38,1.38,0,0,0-.25-.5,1,1,0,0,0-.42-.29,1.4,1.4,0,0,0-.56-.1,1.26,1.26,0,0,0-.51.11,1.31,1.31,0,0,0-.44.31,1.59,1.59,0,0,0-.32.5A2.14,2.14,0,0,0,594.06,318.72Z" style="fill:#4d4d4d"/><path d="M603.15,322.36v-3.85a1.38,1.38,0,0,0-.09-.52,1,1,0,0,0-.25-.39,1.13,1.13,0,0,0-.41-.25,1.69,1.69,0,0,0-.56-.09,2.3,2.3,0,0,0-.38,0l-.33.05-.34.09-.36.14v4.8h-.91v-5.83l.88-.08v.4a2.89,2.89,0,0,1,.39-.2l.38-.13a2.45,2.45,0,0,1,.39-.08l.45,0a2.65,2.65,0,0,1,.87.13,1.89,1.89,0,0,1,.65.38,1.58,1.58,0,0,1,.4.63,2.76,2.76,0,0,1,.13.85v3.95Z" style="fill:#4d4d4d"/><path d="M587.7,312.66a2.1,2.1,0,1,1,2.1-2.1A2.1,2.1,0,0,1,587.7,312.66Zm0-3.7a1.6,1.6,0,1,0,1.6,1.6A1.6,1.6,0,0,0,587.7,309Z" style="fill:#8b8f9e"/><path d="M224.8,265.36v-7.88h3.89v.84h-2.94v2.56h2.65v.84h-2.65v2.8h3v.84Z" style="fill:#4d4d4d"/><path d="M235.19,257v8.39h-.89V265a1.77,1.77,0,0,1-.33.19,2.28,2.28,0,0,1-.36.15,2.59,2.59,0,0,1-.4.09,2.83,2.83,0,0,1-.41,0,2.46,2.46,0,0,1-1-.19,2.11,2.11,0,0,1-.78-.54,2.46,2.46,0,0,1-.51-.9,3.61,3.61,0,0,1-.19-1.23,4.05,4.05,0,0,1,.21-1.34,2.78,2.78,0,0,1,.62-1,2.55,2.55,0,0,1,.93-.61,3.27,3.27,0,0,1,1.19-.21h.3a1.9,1.9,0,0,1,.25,0l.24,0a.83.83,0,0,1,.21.06V257Zm-2,3.25a2,2,0,0,0-.8.15,1.76,1.76,0,0,0-.61.44,2.08,2.08,0,0,0-.39.72,3.12,3.12,0,0,0-.13,1,3.26,3.26,0,0,0,.12.92,2,2,0,0,0,.36.66,1.41,1.41,0,0,0,.54.4,2,2,0,0,0,.71.13l.36,0a1.55,1.55,0,0,0,.31-.06,1.88,1.88,0,0,0,.3-.12l.3-.16v-3.9l-.27-.05-.26,0h-.54Z" style="fill:#4d4d4d"/><path d="M237,262.43a4.06,4.06,0,0,1,.19-1.31,2.61,2.61,0,0,1,.52-1,2.13,2.13,0,0,1,.79-.58,2.38,2.38,0,0,1,.95-.2,2.79,2.79,0,0,1,.95.15,1.76,1.76,0,0,1,.7.45,1.9,1.9,0,0,1,.44.74,3.11,3.11,0,0,1,.15,1v.55c0,.06,0,.12,0,.17H237.9a3,3,0,0,0,.14,1,1.66,1.66,0,0,0,.39.66,1.49,1.49,0,0,0,.6.39,2.06,2.06,0,0,0,.76.13,3.64,3.64,0,0,0,.48,0,3.25,3.25,0,0,0,.45-.06,3.45,3.45,0,0,0,.43-.12,3.89,3.89,0,0,0,.44-.16V265a3.93,3.93,0,0,1-.46.18l-.44.11a3.54,3.54,0,0,1-.47.07,4.39,4.39,0,0,1-.54,0,3.27,3.27,0,0,1-1.11-.18,2.12,2.12,0,0,1-.85-.55,2.24,2.24,0,0,1-.54-.93A4.17,4.17,0,0,1,237,262.43Zm.95-.71h2.76a2.33,2.33,0,0,0-.09-.68,1.24,1.24,0,0,0-.25-.5,1.12,1.12,0,0,0-.41-.3,1.64,1.64,0,0,0-.56-.09,1.16,1.16,0,0,0-.52.11,1.27,1.27,0,0,0-.43.31,1.5,1.5,0,0,0-.33.5A2.47,2.47,0,0,0,237.94,261.72Z" style="fill:#4d4d4d"/><path d="M233,272.05a2.1,2.1,0,1,1,2.1-2.1A2.1,2.1,0,0,1,233,272.05Zm0-3.7a1.6,1.6,0,1,0,1.6,1.6A1.6,1.6,0,0,0,233,268.35Z" style="fill:#8b8f9e"/><path d="M162,168.59l-3.11-6.89h-.05v6.89h-.87v-7.87h1.45l3.11,6.89h.06v-6.89h.87v7.87Z" style="fill:#4d4d4d"/><path d="M165.68,160.8a.61.61,0,0,1,0-.24.52.52,0,0,1,.12-.19.4.4,0,0,1,.19-.11.6.6,0,0,1,.24,0,.69.69,0,0,1,.24,0,.42.42,0,0,1,.18.11.78.78,0,0,1,.11.18.66.66,0,0,1,0,.25.61.61,0,0,1,0,.24.61.61,0,0,1-.11.18.57.57,0,0,1-.18.12,1,1,0,0,1-.24,0,.86.86,0,0,1-.24,0,.52.52,0,0,1-.19-.12.47.47,0,0,1-.12-.18A.61.61,0,0,1,165.68,160.8Zm1,1.89v5.9h-.91v-5.83Z" style="fill:#4d4d4d"/><path d="M169.79,162.69v6.24a2.45,2.45,0,0,1-.12.8,1.83,1.83,0,0,1-.36.59,1.81,1.81,0,0,1-.55.4,2.53,2.53,0,0,1-.69.22l-.12-.76a1.55,1.55,0,0,0,.41-.19,1,1,0,0,0,.29-.25.92.92,0,0,0,.18-.34,2.09,2.09,0,0,0,0-.46v-6.18Zm-1-1.89a.61.61,0,0,1,0-.24.52.52,0,0,1,.12-.19.45.45,0,0,1,.19-.11.6.6,0,0,1,.48,0,.42.42,0,0,1,.18.11.54.54,0,0,1,.11.18.66.66,0,0,1,0,.25.61.61,0,0,1,0,.24.46.46,0,0,1-.11.18.57.57,0,0,1-.18.12.74.74,0,0,1-.48,0,.62.62,0,0,1-.19-.12.47.47,0,0,1-.12-.18A.61.61,0,0,1,168.75,160.8Z" style="fill:#4d4d4d"/><path d="M172.87,165.78v2.81H172v-8.31l.92-.08V165h.52l2-2.26h1.12l-2.28,2.53,2.48,3.34h-1.14l-2.06-2.81Z" style="fill:#4d4d4d"/><path d="M177.34,165.66a4,4,0,0,1,.19-1.3,2.59,2.59,0,0,1,.52-1,2.27,2.27,0,0,1,1.75-.79,2.54,2.54,0,0,1,.94.16,1.74,1.74,0,0,1,.7.44,1.9,1.9,0,0,1,.44.74,3.13,3.13,0,0,1,.15,1v.54c0,.06,0,.12,0,.18h-3.76a3,3,0,0,0,.14.95,1.91,1.91,0,0,0,.39.67,1.6,1.6,0,0,0,.6.39,2.29,2.29,0,0,0,.76.12,3.7,3.7,0,0,0,.48,0l.45-.07a2.26,2.26,0,0,0,.43-.11,4,4,0,0,0,.44-.17v.83a3.78,3.78,0,0,1-.46.17c-.14.05-.29.08-.44.12l-.47.07-.53,0a3.33,3.33,0,0,1-1.12-.18,2.29,2.29,0,0,1-.85-.54,2.35,2.35,0,0,1-.54-.94A4.13,4.13,0,0,1,177.34,165.66Zm.95-.71h2.76a2.82,2.82,0,0,0-.08-.68,1.25,1.25,0,0,0-.26-.5,1,1,0,0,0-.41-.29,1.4,1.4,0,0,0-.56-.1,1.26,1.26,0,0,0-.51.11,1.47,1.47,0,0,0-.44.31,2,2,0,0,0-.33.5A2.58,2.58,0,0,0,178.29,165Z" style="fill:#4d4d4d"/><path d="M186.58,162.74l-.11.89-.18,0-.16,0-.15,0h-.18a1.33,1.33,0,0,0-.28,0,1.53,1.53,0,0,0-.27.11,2,2,0,0,0-.28.19c-.09.08-.2.17-.31.28v4.44h-.91v-5.83l.9-.07v.68A3.4,3.4,0,0,1,185,163a1.79,1.79,0,0,1,.31-.22,1.2,1.2,0,0,1,.31-.13,1.06,1.06,0,0,1,.31,0h.34l.16,0Z" style="fill:#4d4d4d"/><path d="M188.87,165.78v2.81H188v-8.31l.91-.08V165h.53l2-2.26h1.12l-2.28,2.53,2.48,3.34h-1.14l-2.06-2.81Z" style="fill:#4d4d4d"/><path d="M174.86,175.28a2.1,2.1,0,1,1,2.1-2.09A2.1,2.1,0,0,1,174.86,175.28Zm0-3.69a1.6,1.6,0,1,0,1.6,1.6A1.6,1.6,0,0,0,174.86,171.59Z" style="fill:#8b8f9e"/><path d="M196.51,195h1v3.43h.67l2.81-3.43h1.11L199,198.69l3.16,4.15h-1.23l-2.74-3.6h-.71v3.6h-1Z" style="fill:#4d4d4d"/><path d="M208.33,199.84a3.49,3.49,0,0,1-.22,1.29,2.87,2.87,0,0,1-.59,1,2.35,2.35,0,0,1-.88.62,2.66,2.66,0,0,1-1,.21,3,3,0,0,1-1.06-.18,2.3,2.3,0,0,1-.81-.57,2.6,2.6,0,0,1-.51-.93A4.21,4.21,0,0,1,203,200a3.85,3.85,0,0,1,.21-1.3,2.89,2.89,0,0,1,.6-1,2.67,2.67,0,0,1,.87-.62,2.58,2.58,0,0,1,1-.21,2.83,2.83,0,0,1,1.07.19,2.22,2.22,0,0,1,.81.56,2.47,2.47,0,0,1,.52.93A4.28,4.28,0,0,1,208.33,199.84Zm-1,0a4,4,0,0,0-.11-1,1.86,1.86,0,0,0-.34-.69,1.37,1.37,0,0,0-.54-.42,1.81,1.81,0,0,0-.72-.14,1.58,1.58,0,0,0-.69.15,1.45,1.45,0,0,0-.54.45,2.2,2.2,0,0,0-.35.72,3.86,3.86,0,0,0,0,1.91,1.85,1.85,0,0,0,.33.69,1.37,1.37,0,0,0,.54.42,1.9,1.9,0,0,0,.73.14,1.39,1.39,0,0,0,.68-.16,1.45,1.45,0,0,0,.54-.45,2,2,0,0,0,.35-.72A3.4,3.4,0,0,0,207.38,199.88Z" style="fill:#4d4d4d"/><path d="M215.07,199.84a3.71,3.71,0,0,1-.21,1.29,2.89,2.89,0,0,1-.6,1,2.4,2.4,0,0,1-.87.62,2.66,2.66,0,0,1-1,.21,3,3,0,0,1-1.06-.18,2.13,2.13,0,0,1-.81-.57,2.47,2.47,0,0,1-.52-.93,4.21,4.21,0,0,1-.18-1.28,3.62,3.62,0,0,1,.22-1.3,2.87,2.87,0,0,1,.59-1,2.55,2.55,0,0,1,1.91-.83,2.8,2.8,0,0,1,1.07.19,2.35,2.35,0,0,1,.82.56,2.6,2.6,0,0,1,.51.93A4.28,4.28,0,0,1,215.07,199.84Zm-.94,0a3.5,3.5,0,0,0-.12-1,1.85,1.85,0,0,0-.33-.69,1.37,1.37,0,0,0-.54-.42,1.9,1.9,0,0,0-.73-.14,1.51,1.51,0,0,0-.68.15,1.45,1.45,0,0,0-.54.45,2,2,0,0,0-.35.72,3.48,3.48,0,0,0-.12.95,4,4,0,0,0,.11,1,1.86,1.86,0,0,0,.34.69,1.37,1.37,0,0,0,.54.42,1.81,1.81,0,0,0,.72.14,1.53,1.53,0,0,0,1.23-.61,2.2,2.2,0,0,0,.35-.72A3.4,3.4,0,0,0,214.13,199.88Z" style="fill:#4d4d4d"/><path d="M216.35,197.71V197h.7v-1l.91-.13V197h1.54v.73H218V201a1.73,1.73,0,0,0,.07.48,1,1,0,0,0,.19.34,1,1,0,0,0,.3.2,1.06,1.06,0,0,0,.37.06h.2l.19,0,.19,0,.21,0v.76l-.27.06-.25,0-.24,0h-.26a2.1,2.1,0,0,1-.64-.1,1.31,1.31,0,0,1-.5-.31,1.49,1.49,0,0,1-.35-.57,2.75,2.75,0,0,1-.12-.86v-3.37Z" style="fill:#4d4d4d"/><path d="M228.54,197l-1.85,5.86h-1.16l-1.08-3.55h-.06l-1,3.55h-1.16L220.33,197h1l1.43,5h.06l1.17-3.85-.39-1.17h1l1.49,5h.06l1.4-5Z" style="fill:#4d4d4d"/><path d="M229.82,195.06a1,1,0,0,1,0-.25.52.52,0,0,1,.12-.19,1.18,1.18,0,0,1,.19-.11.74.74,0,0,1,.48,0,.78.78,0,0,1,.18.11.42.42,0,0,1,.11.18.71.71,0,0,1,.05.26.69.69,0,0,1-.05.24.42.42,0,0,1-.11.18.78.78,0,0,1-.18.11.74.74,0,0,1-.48,0,1.18,1.18,0,0,1-.19-.11.57.57,0,0,1-.12-.18A1,1,0,0,1,229.82,195.06Zm1.05,1.88v5.9H230V197Z" style="fill:#4d4d4d"/><path d="M233.94,196.94v6.24a2.2,2.2,0,0,1-.13.8,1.58,1.58,0,0,1-.36.6,2.07,2.07,0,0,1-.54.39,3,3,0,0,1-.7.23l-.12-.77a1.74,1.74,0,0,0,.41-.18,1.25,1.25,0,0,0,.3-.25.88.88,0,0,0,.17-.35,1.56,1.56,0,0,0,.06-.46V197Zm-1.05-1.88a.7.7,0,0,1,.05-.25.35.35,0,0,1,.12-.19.78.78,0,0,1,.18-.11.74.74,0,0,1,.48,0,.78.78,0,0,1,.18.11.57.57,0,0,1,.12.18.8.8,0,0,1,0,.5.57.57,0,0,1-.12.18.78.78,0,0,1-.18.11.74.74,0,0,1-.48,0,.78.78,0,0,1-.18-.11.36.36,0,0,1-.12-.18A.69.69,0,0,1,232.89,195.06Z" style="fill:#4d4d4d"/><path d="M237,200v2.8h-.91v-8.31l.91-.07v4.77h.53l2-2.25h1.11l-2.28,2.52,2.49,3.34h-1.14l-2.07-2.8Z" style="fill:#4d4d4d"/><path d="M241.49,199.92a4.37,4.37,0,0,1,.18-1.31,2.61,2.61,0,0,1,.53-1,2.1,2.1,0,0,1,.78-.58,2.23,2.23,0,0,1,1-.2,2.73,2.73,0,0,1,.94.15,1.87,1.87,0,0,1,.71.45,2,2,0,0,1,.44.74,3.11,3.11,0,0,1,.15,1v.37a1.09,1.09,0,0,1,0,.18,1,1,0,0,1,0,.17H242.4a2.72,2.72,0,0,0,.14.95,1.7,1.7,0,0,0,.39.67,1.45,1.45,0,0,0,.59.39,2.34,2.34,0,0,0,.77.13,3.64,3.64,0,0,0,.48,0c.15,0,.3,0,.44-.06a3.6,3.6,0,0,0,.44-.12,3.83,3.83,0,0,0,.43-.17v.83l-.46.18-.43.11a3.54,3.54,0,0,1-.47.07,4.63,4.63,0,0,1-.54,0,3.23,3.23,0,0,1-1.11-.18,2.27,2.27,0,0,1-.86-.55,2.53,2.53,0,0,1-.54-.94A4.41,4.41,0,0,1,241.49,199.92Zm.94-.71h2.76a2.42,2.42,0,0,0-.08-.69,1.33,1.33,0,0,0-.25-.49,1,1,0,0,0-.42-.3,1.6,1.6,0,0,0-.56-.09,1.25,1.25,0,0,0-.51.1,1.5,1.5,0,0,0-.44.32,1.54,1.54,0,0,0-.32.49A2.29,2.29,0,0,0,242.43,199.21Z" style="fill:#4d4d4d"/><path d="M250.72,197l-.1.9-.18,0-.16,0-.16,0H250a.92.92,0,0,0-.29,0,1,1,0,0,0-.27.11,1.41,1.41,0,0,0-.27.18l-.32.28v4.44h-.91V197l.9-.07v.68c.12-.12.22-.23.33-.33a1.91,1.91,0,0,1,.3-.22,1.17,1.17,0,0,1,.31-.12,1.12,1.12,0,0,1,.31,0h.34a.76.76,0,0,1,.16,0Z" style="fill:#4d4d4d"/><path d="M257,199.74a3.71,3.71,0,0,1-.22,1.33,2.8,2.8,0,0,1-.63,1,2.75,2.75,0,0,1-1,.63,3.56,3.56,0,0,1-1.25.21h-.45l-.42,0-.44,0-.46-.07v-8.25l.91-.07v2.84a3.14,3.14,0,0,1,.37-.18,2.78,2.78,0,0,1,.38-.12,2.66,2.66,0,0,1,.39-.07,2.6,2.6,0,0,1,.4,0,2.64,2.64,0,0,1,1,.18,1.91,1.91,0,0,1,.76.53,2.34,2.34,0,0,1,.49.88A4.26,4.26,0,0,1,257,199.74Zm-.94.08a3.3,3.3,0,0,0-.12-.94,1.64,1.64,0,0,0-.35-.64,1.27,1.27,0,0,0-.53-.38,2.11,2.11,0,0,0-.73-.12l-.33,0-.31.06-.31.09L253,198v4l.26,0h.24l.23,0H254a2.1,2.1,0,0,0,.8-.14,1.7,1.7,0,0,0,.64-.42,1.82,1.82,0,0,0,.43-.72A3.11,3.11,0,0,0,256,199.82Z" style="fill:#4d4d4d"/><path d="M261.6,197l-.11.9-.18,0-.16,0-.16,0h-.17a.86.86,0,0,0-.28,0,.81.81,0,0,0-.27.11,1.47,1.47,0,0,0-.28.18,3.73,3.73,0,0,0-.31.28v4.44h-.91V197l.9-.07v.68c.11-.12.21-.23.32-.33a2.52,2.52,0,0,1,.3-.22,1.32,1.32,0,0,1,.31-.12,1.18,1.18,0,0,1,.31,0h.35l.16,0Z" style="fill:#4d4d4d"/><path d="M267.92,199.84a3.71,3.71,0,0,1-.21,1.29,3,3,0,0,1-.6,1,2.35,2.35,0,0,1-.88.62,2.65,2.65,0,0,1-1,.21,3,3,0,0,1-1.07-.18,2.3,2.3,0,0,1-.81-.57,2.6,2.6,0,0,1-.51-.93,4.21,4.21,0,0,1-.18-1.28,3.85,3.85,0,0,1,.21-1.3,3,3,0,0,1,.6-1,2.67,2.67,0,0,1,.87-.62,2.58,2.58,0,0,1,1-.21,2.83,2.83,0,0,1,1.07.19,2.22,2.22,0,0,1,.81.56,2.47,2.47,0,0,1,.52.93A4.28,4.28,0,0,1,267.92,199.84Zm-.95,0a3.52,3.52,0,0,0-.11-1,1.86,1.86,0,0,0-.34-.69,1.24,1.24,0,0,0-.54-.42,1.81,1.81,0,0,0-.72-.14,1.58,1.58,0,0,0-.69.15,1.63,1.63,0,0,0-.54.45,2.18,2.18,0,0,0-.34.72,3.46,3.46,0,0,0-.13.95,3.5,3.5,0,0,0,.12,1,1.72,1.72,0,0,0,.34.69,1.27,1.27,0,0,0,.53.42,1.9,1.9,0,0,0,.73.14A1.39,1.39,0,0,0,266,202a1.45,1.45,0,0,0,.54-.45,2,2,0,0,0,.35-.72A3.4,3.4,0,0,0,267,199.88Z" style="fill:#4d4d4d"/><path d="M269.36,199.92a4.06,4.06,0,0,1,.19-1.31,2.59,2.59,0,0,1,.52-1,2.13,2.13,0,0,1,.79-.58,2.22,2.22,0,0,1,.95-.2,2.79,2.79,0,0,1,.95.15,1.76,1.76,0,0,1,.7.45,1.83,1.83,0,0,1,.44.74,3.11,3.11,0,0,1,.15,1v.55c0,.06,0,.11,0,.17h-3.76a3,3,0,0,0,.14.95,1.7,1.7,0,0,0,.39.67,1.49,1.49,0,0,0,.6.39,2.28,2.28,0,0,0,.76.13,3.64,3.64,0,0,0,.48,0c.16,0,.31,0,.45-.06a3.45,3.45,0,0,0,.43-.12,4,4,0,0,0,.44-.17v.83l-.46.18-.44.11a3.31,3.31,0,0,1-.47.07,4.33,4.33,0,0,1-.53,0,3.33,3.33,0,0,1-1.12-.18,2.31,2.31,0,0,1-.85-.55,2.28,2.28,0,0,1-.54-.94A4.1,4.1,0,0,1,269.36,199.92Zm.95-.71h2.76a2.4,2.4,0,0,0-.09-.69,1.2,1.2,0,0,0-.25-.49,1,1,0,0,0-.41-.3,1.64,1.64,0,0,0-.56-.09,1.3,1.3,0,0,0-.52.1,1.46,1.46,0,0,0-.43.32,1.56,1.56,0,0,0-.33.49A2.66,2.66,0,0,0,270.31,199.21Z" style="fill:#4d4d4d"/><path d="M276.68,200v2.8h-.91v-8.31l.91-.07v4.77h.53l2-2.25h1.11L278,199.5l2.49,3.34h-1.14l-2.07-2.8Z" style="fill:#4d4d4d"/><path d="M238.05,209.54a2.1,2.1,0,1,1,2.1-2.1A2.11,2.11,0,0,1,238.05,209.54Zm0-3.7a1.6,1.6,0,1,0,1.6,1.6A1.6,1.6,0,0,0,238.05,205.84Z" style="fill:#8b8f9e"/><path d="M314.12,168.18l2.4,7.87h-1l-.64-2.12h-3.07l-.62,2.12h-1l2.48-7.87Zm.49,4.95-1.24-4.22h-.11L312,173.13Z" style="fill:#4d4d4d"/><path d="M318,178.35v-8.13l.88-.07v.37l.36-.17a2.84,2.84,0,0,1,.38-.13,1.77,1.77,0,0,1,.4-.08,3.15,3.15,0,0,1,.44,0,2.55,2.55,0,0,1,1,.18,1.94,1.94,0,0,1,.77.53,2.39,2.39,0,0,1,.48.91,4.32,4.32,0,0,1,.17,1.26,3.66,3.66,0,0,1-.22,1.32,2.72,2.72,0,0,1-1.62,1.61,3.62,3.62,0,0,1-1.26.21h-.43l-.21,0-.21,0v2.31Zm1.9-3a2.36,2.36,0,0,0,.8-.14,1.76,1.76,0,0,0,.64-.43,1.91,1.91,0,0,0,.42-.71,2.91,2.91,0,0,0,.15-1,3.4,3.4,0,0,0-.12-1,1.72,1.72,0,0,0-.34-.66,1.36,1.36,0,0,0-.54-.38,2,2,0,0,0-.73-.12l-.32,0a1.7,1.7,0,0,0-.31.06l-.31.08-.33.14v4l.25,0,.24,0,.24,0Z" style="fill:#4d4d4d"/><path d="M324.25,173.13a4.06,4.06,0,0,1,.19-1.31,2.46,2.46,0,0,1,.52-1,2.13,2.13,0,0,1,.79-.58,2.22,2.22,0,0,1,.95-.2,2.79,2.79,0,0,1,.95.15,1.76,1.76,0,0,1,.7.45,2,2,0,0,1,.44.74,3.11,3.11,0,0,1,.15,1V173c0,.05,0,.11,0,.17h-3.76a3,3,0,0,0,.14.95,1.7,1.7,0,0,0,.39.67,1.49,1.49,0,0,0,.6.39,2.29,2.29,0,0,0,.76.12,3.7,3.7,0,0,0,.48,0c.16,0,.3,0,.45-.06a3.45,3.45,0,0,0,.43-.12,4,4,0,0,0,.44-.17v.83l-.46.18L328,176a3.54,3.54,0,0,1-.47.07,4.33,4.33,0,0,1-.53,0,3.33,3.33,0,0,1-1.12-.18,2.23,2.23,0,0,1-.85-.55,2.28,2.28,0,0,1-.54-.94A4.1,4.1,0,0,1,324.25,173.13Zm.95-.71H328a2.4,2.4,0,0,0-.09-.69,1.2,1.2,0,0,0-.25-.49,1,1,0,0,0-.41-.3,1.64,1.64,0,0,0-.56-.09,1.3,1.3,0,0,0-.52.1,1.46,1.46,0,0,0-.43.32,1.56,1.56,0,0,0-.33.49A2.66,2.66,0,0,0,325.2,172.42Z" style="fill:#4d4d4d"/><path d="M331.57,167.67v8.38h-.91v-8.31Z" style="fill:#4d4d4d"/><path d="M338.23,167.67v8.38h-.89v-.38a1.77,1.77,0,0,1-.33.19,2.28,2.28,0,0,1-.36.15,2.59,2.59,0,0,1-.4.09c-.14,0-.27,0-.41,0a2.64,2.64,0,0,1-1-.19,2.13,2.13,0,0,1-.78-.55,2.46,2.46,0,0,1-.51-.9,3.55,3.55,0,0,1-.19-1.22,3.77,3.77,0,0,1,.22-1.34,2.48,2.48,0,0,1,.61-1,2.58,2.58,0,0,1,.93-.62,3.27,3.27,0,0,1,1.19-.21h.3l.25,0,.24.05a.83.83,0,0,1,.21.06v-2.51Zm-2,3.25a2,2,0,0,0-.8.15,1.64,1.64,0,0,0-.61.44,2,2,0,0,0-.39.72,3.52,3.52,0,0,0,0,1.86,2,2,0,0,0,.36.67,1.39,1.39,0,0,0,.54.39,1.83,1.83,0,0,0,.71.13,2.17,2.17,0,0,0,.36,0,2.84,2.84,0,0,0,.31-.06l.3-.12.3-.17V171l-.27,0-.26,0-.26,0Z" style="fill:#4d4d4d"/><path d="M345.33,173.05a3.71,3.71,0,0,1-.21,1.29,2.89,2.89,0,0,1-.6,1,2.4,2.4,0,0,1-.87.62,2.7,2.7,0,0,1-1,.21,3,3,0,0,1-1.06-.18,2.13,2.13,0,0,1-.81-.57,2.47,2.47,0,0,1-.52-.93,4.21,4.21,0,0,1-.18-1.28,3.62,3.62,0,0,1,.22-1.3,2.87,2.87,0,0,1,.59-1,2.55,2.55,0,0,1,1.91-.83,2.8,2.8,0,0,1,1.07.19,2.35,2.35,0,0,1,.82.56,2.6,2.6,0,0,1,.51.93A4.28,4.28,0,0,1,345.33,173.05Zm-.94,0a3.5,3.5,0,0,0-.12-1,1.85,1.85,0,0,0-.33-.69,1.37,1.37,0,0,0-.54-.42,1.9,1.9,0,0,0-.73-.14,1.51,1.51,0,0,0-.68.15,1.45,1.45,0,0,0-.54.45,1.94,1.94,0,0,0-.35.72,3.48,3.48,0,0,0-.12,1,4,4,0,0,0,.11,1,1.86,1.86,0,0,0,.34.69,1.37,1.37,0,0,0,.54.42,1.81,1.81,0,0,0,.72.14,1.53,1.53,0,0,0,1.23-.61,2.2,2.2,0,0,0,.35-.72A3.4,3.4,0,0,0,344.39,173.09Z" style="fill:#4d4d4d"/><path d="M352.08,173.05a3.49,3.49,0,0,1-.22,1.29,2.87,2.87,0,0,1-.59,1,2.44,2.44,0,0,1-.88.62,2.66,2.66,0,0,1-1.05.21,3,3,0,0,1-1.06-.18,2.13,2.13,0,0,1-.81-.57,2.62,2.62,0,0,1-.52-.93,4.21,4.21,0,0,1-.18-1.28,3.85,3.85,0,0,1,.22-1.3,2.87,2.87,0,0,1,.59-1,2.78,2.78,0,0,1,.87-.62,2.66,2.66,0,0,1,1.05-.21,2.83,2.83,0,0,1,1.07.19,2.31,2.31,0,0,1,.81.56,2.47,2.47,0,0,1,.52.93A4.28,4.28,0,0,1,352.08,173.05Zm-.95,0a4,4,0,0,0-.11-1,1.86,1.86,0,0,0-.34-.69,1.37,1.37,0,0,0-.54-.42,1.83,1.83,0,0,0-.73-.14,1.57,1.57,0,0,0-.68.15,1.45,1.45,0,0,0-.54.45,2.1,2.1,0,0,0-.35.72,3.86,3.86,0,0,0,0,1.91,1.71,1.71,0,0,0,.33.69,1.37,1.37,0,0,0,.54.42,1.86,1.86,0,0,0,.73.14,1.42,1.42,0,0,0,.68-.16,1.45,1.45,0,0,0,.54-.45A2.2,2.2,0,0,0,351,174,3.4,3.4,0,0,0,351.13,173.09Z" style="fill:#4d4d4d"/><path d="M356.71,170.2l-.11.9-.18,0a.45.45,0,0,0-.16,0l-.16,0h-.17a.86.86,0,0,0-.28,0,.81.81,0,0,0-.27.11,1.86,1.86,0,0,0-.28.18c-.09.08-.2.17-.31.28v4.44h-.91v-5.83l.9-.07v.68l.32-.33a2.58,2.58,0,0,1,.31-.22,1.25,1.25,0,0,1,.3-.12,1.19,1.19,0,0,1,.32,0h.34l.16,0Z" style="fill:#4d4d4d"/><path d="M361.71,176.05V172.2a1.37,1.37,0,0,0-.08-.51,1,1,0,0,0-.25-.39A1.11,1.11,0,0,0,361,171a1.59,1.59,0,0,0-.55-.09l-.38,0-.33.06-.34.08-.36.14v4.8h-.91v-5.83l.87-.07v.4a3,3,0,0,1,.4-.2,3.43,3.43,0,0,1,.38-.13,1.59,1.59,0,0,1,.39-.08,3,3,0,0,1,.44,0,2.66,2.66,0,0,1,.88.14,1.62,1.62,0,0,1,.65.38,1.6,1.6,0,0,1,.39.62,2.55,2.55,0,0,1,.13.86v3.94Z" style="fill:#4d4d4d"/><path d="M336.84,182.75a2.1,2.1,0,1,1,2.1-2.1A2.11,2.11,0,0,1,336.84,182.75Zm0-3.7a1.6,1.6,0,1,0,1.6,1.6A1.6,1.6,0,0,0,336.84,179.05Z" style="fill:#8b8f9e"/><path d="M344.27,227.4v-7.87h3.88v.84h-2.94v2.56h2.66v.84h-2.66v2.79h3v.84Z" style="fill:#4d4d4d"/><path d="M349.8,224.47a4.35,4.35,0,0,1,.18-1.3,2.61,2.61,0,0,1,.53-1,2.28,2.28,0,0,1,.79-.59,2.37,2.37,0,0,1,.95-.19,2.79,2.79,0,0,1,.95.15,1.84,1.84,0,0,1,.7.45,2,2,0,0,1,.44.73,3.17,3.17,0,0,1,.15,1v.36a1.09,1.09,0,0,1,0,.18c0,.06,0,.12,0,.18h-3.76a3,3,0,0,0,.14.95,1.7,1.7,0,0,0,.39.67,1.49,1.49,0,0,0,.6.39,2.24,2.24,0,0,0,.76.12,3.7,3.7,0,0,0,.48,0l.45-.07a2.26,2.26,0,0,0,.43-.11,3.2,3.2,0,0,0,.43-.17v.83a3.67,3.67,0,0,1-.45.17,3.6,3.6,0,0,1-.44.12l-.47.07a4.61,4.61,0,0,1-.54,0,3.23,3.23,0,0,1-1.11-.18,2.21,2.21,0,0,1-.85-.54,2.49,2.49,0,0,1-.55-.94A4.43,4.43,0,0,1,349.8,224.47Zm.95-.7h2.76a2.4,2.4,0,0,0-.09-.69,1.31,1.31,0,0,0-.25-.5,1,1,0,0,0-.41-.29,1.64,1.64,0,0,0-.56-.1,1.27,1.27,0,0,0-.52.11,1.6,1.6,0,0,0-.44.31,1.71,1.71,0,0,0-.32.5A2.66,2.66,0,0,0,350.75,223.77Z" style="fill:#4d4d4d"/><path d="M359,221.55l-.11.9-.18,0-.16,0h-.33a.86.86,0,0,0-.28,0,1.08,1.08,0,0,0-.27.1,2,2,0,0,0-.28.19,3.73,3.73,0,0,0-.31.28v4.44h-.91v-5.83l.9-.07v.68a3.4,3.4,0,0,1,.32-.33,2,2,0,0,1,.31-.22,1.3,1.3,0,0,1,.3-.13,1.76,1.76,0,0,1,.31,0h.35l.16,0Z" style="fill:#4d4d4d"/><path d="M365.28,224.29a4,4,0,0,1-.22,1.34,2.77,2.77,0,0,1-.64,1,2.64,2.64,0,0,1-1,.62,3.52,3.52,0,0,1-1.25.21h-.45l-.42,0-.43,0-.47-.07v-8.25l.91-.08v2.85a3.26,3.26,0,0,1,.38-.18,2.4,2.4,0,0,1,.38-.12,2.32,2.32,0,0,1,.38-.07,2.63,2.63,0,0,1,.41,0,2.55,2.55,0,0,1,1,.18,1.91,1.91,0,0,1,.76.52,2.33,2.33,0,0,1,.49.89A4.22,4.22,0,0,1,365.28,224.29Zm-.95.09a3.3,3.3,0,0,0-.12-.94,1.74,1.74,0,0,0-.34-.65,1.45,1.45,0,0,0-.54-.37,2.07,2.07,0,0,0-.73-.12l-.32,0-.31.05-.32.1-.32.13v4a2.3,2.3,0,0,0,.26,0l.24,0h.48a2.28,2.28,0,0,0,.8-.14,1.62,1.62,0,0,0,.64-.42,1.85,1.85,0,0,0,.43-.72A3.11,3.11,0,0,0,364.33,224.38Z" style="fill:#4d4d4d"/><path d="M366.72,224.47a4.35,4.35,0,0,1,.18-1.3,2.61,2.61,0,0,1,.53-1,2.28,2.28,0,0,1,.79-.59,2.37,2.37,0,0,1,.95-.19,2.79,2.79,0,0,1,.95.15,1.84,1.84,0,0,1,.7.45,2,2,0,0,1,.44.73,3.17,3.17,0,0,1,.15,1v.36a1.09,1.09,0,0,1,0,.18c0,.06,0,.12,0,.18h-3.76a3,3,0,0,0,.14.95,1.7,1.7,0,0,0,.39.67,1.49,1.49,0,0,0,.6.39,2.24,2.24,0,0,0,.76.12,3.7,3.7,0,0,0,.48,0l.45-.07a2.26,2.26,0,0,0,.43-.11,3.2,3.2,0,0,0,.43-.17v.83a3.67,3.67,0,0,1-.45.17,3.6,3.6,0,0,1-.44.12l-.47.07a4.61,4.61,0,0,1-.54,0,3.23,3.23,0,0,1-1.11-.18,2.21,2.21,0,0,1-.85-.54,2.49,2.49,0,0,1-.55-.94A4.43,4.43,0,0,1,366.72,224.47Zm.95-.7h2.76a2.4,2.4,0,0,0-.09-.69,1.31,1.31,0,0,0-.25-.5,1,1,0,0,0-.41-.29,1.64,1.64,0,0,0-.56-.1,1.27,1.27,0,0,0-.52.11,1.6,1.6,0,0,0-.44.31,1.71,1.71,0,0,0-.32.5A2.66,2.66,0,0,0,367.67,223.77Z" style="fill:#4d4d4d"/><path d="M372.77,224.47a4.35,4.35,0,0,1,.18-1.3,2.61,2.61,0,0,1,.53-1,2.24,2.24,0,0,1,.78-.59,2.38,2.38,0,0,1,1-.19,2.73,2.73,0,0,1,.94.15,1.8,1.8,0,0,1,.71.45,2,2,0,0,1,.44.73,3.17,3.17,0,0,1,.15,1v.36a1.09,1.09,0,0,1,0,.18,1.1,1.1,0,0,1,0,.18h-3.75a2.75,2.75,0,0,0,.14.95,1.7,1.7,0,0,0,.39.67,1.52,1.52,0,0,0,.59.39,2.35,2.35,0,0,0,.77.12,3.7,3.7,0,0,0,.48,0l.45-.07a2.47,2.47,0,0,0,.43-.11,3.83,3.83,0,0,0,.43-.17v.83a3.25,3.25,0,0,1-.46.17,3.45,3.45,0,0,1-.43.12l-.47.07a4.7,4.7,0,0,1-.54,0,3.23,3.23,0,0,1-1.11-.18,2.33,2.33,0,0,1-.86-.54,2.61,2.61,0,0,1-.54-.94A4.43,4.43,0,0,1,372.77,224.47Zm.94-.7h2.76a2.42,2.42,0,0,0-.08-.69,1.47,1.47,0,0,0-.25-.5,1,1,0,0,0-.42-.29,1.58,1.58,0,0,0-.55-.1,1.27,1.27,0,0,0-.52.11,1.47,1.47,0,0,0-.44.31,1.71,1.71,0,0,0-.32.5A2.66,2.66,0,0,0,373.71,223.77Z" style="fill:#4d4d4d"/><path d="M380.09,224.59v2.81h-.92v-8.31l.92-.08v4.78h.52l2-2.26h1.12l-2.28,2.53,2.48,3.34h-1.14l-2.06-2.81Z" style="fill:#4d4d4d"/><path d="M363.63,234.09a2.1,2.1,0,1,1,2.1-2.09A2.1,2.1,0,0,1,363.63,234.09Zm0-3.69a1.6,1.6,0,1,0,1.6,1.6A1.6,1.6,0,0,0,363.63,230.4Z" style="fill:#8b8f9e"/><path d="M526.52,228.65v-7.87h3.89v.84h-2.94v2.55h2.65V225h-2.65v2.8h3v.84Z" style="fill:#4d4d4d"/><path d="M532.28,220.86a.64.64,0,0,1,0-.24.52.52,0,0,1,.12-.19.45.45,0,0,1,.19-.11.74.74,0,0,1,.48,0,.45.45,0,0,1,.29.29.66.66,0,0,1,.05.25.6.6,0,0,1-.05.24.42.42,0,0,1-.11.18.57.57,0,0,1-.18.12.74.74,0,0,1-.48,0,.62.62,0,0,1-.19-.12.57.57,0,0,1-.12-.18A.61.61,0,0,1,532.28,220.86Zm1,1.89v5.9h-.91v-5.83Z" style="fill:#4d4d4d"/><path d="M540.34,225.54a3.77,3.77,0,0,1-.22,1.34,2.64,2.64,0,0,1-1.61,1.63,3.56,3.56,0,0,1-1.25.21h-.45l-.42,0-.44,0-.47-.07v-8.26l.92-.07v2.85a1.57,1.57,0,0,1,.37-.18,2.78,2.78,0,0,1,.38-.12l.39-.08.4,0a2.86,2.86,0,0,1,1,.17,2.13,2.13,0,0,1,.76.53,2.63,2.63,0,0,1,.49.89A4.24,4.24,0,0,1,540.34,225.54Zm-.94.09a3.25,3.25,0,0,0-.12-.94,1.76,1.76,0,0,0-.35-.65,1.22,1.22,0,0,0-.54-.37,2,2,0,0,0-.72-.12l-.33,0-.31.05-.31.1-.32.13v4l.25,0,.24,0h.49a2.32,2.32,0,0,0,.8-.14,1.7,1.7,0,0,0,.64-.42,2,2,0,0,0,.43-.72A3.11,3.11,0,0,0,539.4,225.63Z" style="fill:#4d4d4d"/><path d="M541.79,225.72a4.46,4.46,0,0,1,.18-1.31,2.94,2.94,0,0,1,.52-1,2.34,2.34,0,0,1,.79-.58,2.39,2.39,0,0,1,1-.2,2.73,2.73,0,0,1,.94.15,1.78,1.78,0,0,1,.71.46,1.9,1.9,0,0,1,.44.73,3.13,3.13,0,0,1,.15,1v.36c0,.06,0,.12,0,.18a1.1,1.1,0,0,1,0,.18H542.7a3,3,0,0,0,.13.95,1.84,1.84,0,0,0,.4.67,1.6,1.6,0,0,0,.59.39,2.35,2.35,0,0,0,.77.12l.48,0,.44-.07a2.36,2.36,0,0,0,.44-.11,3.83,3.83,0,0,0,.43-.17v.83a3.25,3.25,0,0,1-.46.17c-.14.05-.29.08-.44.12l-.46.07-.54,0a3.23,3.23,0,0,1-1.11-.18,2.25,2.25,0,0,1-.86-.54,2.61,2.61,0,0,1-.54-.94A4.48,4.48,0,0,1,541.79,225.72Zm.94-.71h2.76a2.82,2.82,0,0,0-.08-.68,1.38,1.38,0,0,0-.25-.5,1,1,0,0,0-.42-.29,1.4,1.4,0,0,0-.56-.1,1.26,1.26,0,0,0-.51.11,1.47,1.47,0,0,0-.44.31,1.59,1.59,0,0,0-.32.5A2.32,2.32,0,0,0,542.73,225Z" style="fill:#4d4d4d"/><path d="M551,222.79l-.1.91-.18,0-.17,0h-.33a1.33,1.33,0,0,0-.28,0l-.27.11a1.48,1.48,0,0,0-.27.19,3.54,3.54,0,0,0-.32.28v4.44h-.91v-5.83l.9-.07v.68a3.42,3.42,0,0,1,.33-.33,1.91,1.91,0,0,1,.3-.22,1.2,1.2,0,0,1,.31-.13,1.1,1.1,0,0,1,.31,0h.34l.16,0Z" style="fill:#4d4d4d"/><path d="M553.12,227.22a.46.46,0,0,0,0,.2.45.45,0,0,0,.12.16.83.83,0,0,0,.23.1,1.72,1.72,0,0,0,.34,0l1.57,0a2.86,2.86,0,0,1,.71.11,1.63,1.63,0,0,1,.51.26,1.11,1.11,0,0,1,.29.4,1.42,1.42,0,0,1,.1.52,1.68,1.68,0,0,1-.18.77,1.63,1.63,0,0,1-.53.62,2.76,2.76,0,0,1-.88.41,5.08,5.08,0,0,1-1.23.14,4.37,4.37,0,0,1-1-.11,2.15,2.15,0,0,1-.75-.31,1.46,1.46,0,0,1-.47-.49,1.22,1.22,0,0,1-.16-.62,1.07,1.07,0,0,1,.07-.39,1.53,1.53,0,0,1,.21-.37,1.48,1.48,0,0,1,.31-.3,1.57,1.57,0,0,1,.37-.22v-.05a1,1,0,0,1-.19-.12.8.8,0,0,1-.15-.17.72.72,0,0,1-.09-.2.69.69,0,0,1,0-.25.85.85,0,0,1,0-.26.57.57,0,0,1,.12-.23,1.26,1.26,0,0,1,.2-.2,1.15,1.15,0,0,1,.27-.14v0a2,2,0,0,1-.37-.26,1.28,1.28,0,0,1-.29-.36,2.34,2.34,0,0,1-.18-.45,2.38,2.38,0,0,1-.06-.55,2.69,2.69,0,0,1,.15-.92,1.84,1.84,0,0,1,.47-.69,2.15,2.15,0,0,1,.74-.43,3,3,0,0,1,1-.15h.23l.25,0a.91.91,0,0,1,.23,0l.19,0h1.8v.68H556v0a1,1,0,0,1,.24.21,1.49,1.49,0,0,1,.18.3,2.06,2.06,0,0,1,.12.35,1.75,1.75,0,0,1,0,.4,2.19,2.19,0,0,1-.16.88,1.77,1.77,0,0,1-.48.64,2.1,2.1,0,0,1-.76.39,3.92,3.92,0,0,1-1,.13h-.35l-.16,0a.8.8,0,0,0-.15,0,.35.35,0,0,0-.15.07.43.43,0,0,0-.12.11.38.38,0,0,0-.09.13A.35.35,0,0,0,553.12,227.22Zm-.45,2.09a.68.68,0,0,0,.11.39.81.81,0,0,0,.31.3,1.7,1.7,0,0,0,.51.19,3,3,0,0,0,.7.07,5.27,5.27,0,0,0,.87-.07,2.1,2.1,0,0,0,.6-.21,1,1,0,0,0,.35-.33.81.81,0,0,0,.11-.41.61.61,0,0,0-.05-.28.48.48,0,0,0-.15-.2.91.91,0,0,0-.28-.12,2.34,2.34,0,0,0-.43-.06l-2-.1a1.46,1.46,0,0,0-.28.14.7.7,0,0,0-.2.18.76.76,0,0,0-.13.23A.86.86,0,0,0,552.67,229.31Zm1.61-3.16a2.18,2.18,0,0,0,.61-.07,1.06,1.06,0,0,0,.44-.25,1,1,0,0,0,.25-.43,2.06,2.06,0,0,0,.09-.64,1.62,1.62,0,0,0-.09-.57,1,1,0,0,0-.27-.41,1.08,1.08,0,0,0-.42-.24,1.59,1.59,0,0,0-.55-.09,1.7,1.7,0,0,0-.57.09,1,1,0,0,0-.7.69,1.8,1.8,0,0,0-.09.6,1.59,1.59,0,0,0,.1.61,1,1,0,0,0,.27.42,1.11,1.11,0,0,0,.4.22A1.74,1.74,0,0,0,554.28,226.15Z" style="fill:#4d4d4d"/><path d="M558.24,225.72a4.46,4.46,0,0,1,.18-1.31,2.78,2.78,0,0,1,.53-1,2.21,2.21,0,0,1,.78-.58,2.43,2.43,0,0,1,1-.2,2.73,2.73,0,0,1,.94.15,1.72,1.72,0,0,1,.71.46,1.9,1.9,0,0,1,.44.73,3.13,3.13,0,0,1,.15,1v.36a1.09,1.09,0,0,1,0,.18,1.1,1.1,0,0,1,0,.18h-3.75a2.75,2.75,0,0,0,.14.95,1.63,1.63,0,0,0,1,1.06,2.35,2.35,0,0,0,.77.12l.48,0,.44-.07a2.36,2.36,0,0,0,.44-.11,3.83,3.83,0,0,0,.43-.17v.83a3.67,3.67,0,0,1-.45.17l-.44.12-.47.07-.54,0a3.23,3.23,0,0,1-1.11-.18A2.33,2.33,0,0,1,559,228a2.61,2.61,0,0,1-.54-.94A4.48,4.48,0,0,1,558.24,225.72Zm.94-.71h2.76a2.4,2.4,0,0,0-.08-.68,1.38,1.38,0,0,0-.25-.5,1,1,0,0,0-.42-.29,1.38,1.38,0,0,0-.55-.1,1.27,1.27,0,0,0-.52.11,1.47,1.47,0,0,0-.44.31,1.59,1.59,0,0,0-.32.5A2.71,2.71,0,0,0,559.18,225Z" style="fill:#4d4d4d"/><path d="M568.27,228.65V224.8a1.46,1.46,0,0,0-.09-.52,1,1,0,0,0-.25-.39,1.13,1.13,0,0,0-.41-.25,1.64,1.64,0,0,0-.56-.09l-.37,0-.34.05-.33.09a2.67,2.67,0,0,0-.36.14v4.8h-.92v-5.83l.88-.07v.39a2.87,2.87,0,0,1,.4-.19,2.79,2.79,0,0,1,.37-.14l.39-.08.45,0a2.57,2.57,0,0,1,.87.13,1.69,1.69,0,0,1,.65.39,1.48,1.48,0,0,1,.4.62,2.49,2.49,0,0,1,.13.85v4Z" style="fill:#4d4d4d"/><path d="M547.82,235.34a2.1,2.1,0,1,1,2.1-2.09A2.1,2.1,0,0,1,547.82,235.34Zm0-3.69a1.6,1.6,0,1,0,1.6,1.6A1.6,1.6,0,0,0,547.82,231.65Z" style="fill:#8b8f9e"/><path d="M257.44,130.84V123h3.89v.84h-2.94v2.56H261v.84h-2.65V130h3v.84Z" style="fill:#4d4d4d"/><path d="M264.25,122.46v8.38h-.92v-8.31Z" style="fill:#4d4d4d"/><path d="M265.94,130.72v-.83a2.75,2.75,0,0,0,.41.11,2.7,2.7,0,0,0,.41.06l.43,0h.44a2.26,2.26,0,0,0,.55-.06,1.42,1.42,0,0,0,.41-.19.65.65,0,0,0,.25-.27.74.74,0,0,0,.09-.36.78.78,0,0,0-.06-.31.66.66,0,0,0-.17-.25,1,1,0,0,0-.31-.19,1.93,1.93,0,0,0-.45-.17l-.68-.2a2.65,2.65,0,0,1-.54-.22,1.79,1.79,0,0,1-.39-.33,1.44,1.44,0,0,1-.24-.42,1.78,1.78,0,0,1-.08-.53,1.5,1.5,0,0,1,.15-.67,1.62,1.62,0,0,1,.43-.55,1.84,1.84,0,0,1,.68-.36,2.94,2.94,0,0,1,.87-.13h.39l.36,0,.34,0a1.65,1.65,0,0,1,.32.06l-.1.79-.34-.06-.32,0-.33,0h-.37a2,2,0,0,0-.51.06,1,1,0,0,0-.38.17.74.74,0,0,0-.24.26.68.68,0,0,0-.07.32.85.85,0,0,0,0,.29.91.91,0,0,0,.15.23,1.3,1.3,0,0,0,.26.17,1.59,1.59,0,0,0,.37.14l.68.18a3.35,3.35,0,0,1,.62.24,2,2,0,0,1,.45.33,1.33,1.33,0,0,1,.26.42,1.7,1.7,0,0,1,.08.51,1.76,1.76,0,0,1-.16.76,1.89,1.89,0,0,1-.45.6,2,2,0,0,1-.71.39,2.88,2.88,0,0,1-.9.14l-.47,0c-.14,0-.28,0-.41,0l-.39-.06Z" style="fill:#4d4d4d"/><path d="M271.49,133.14V125l.88-.07v.37l.37-.17a2.72,2.72,0,0,1,.37-.13,1.86,1.86,0,0,1,.41-.08,3,3,0,0,1,.43,0,2.64,2.64,0,0,1,1,.18,1.91,1.91,0,0,1,.76.53,2.55,2.55,0,0,1,.49.91,4.33,4.33,0,0,1,.16,1.26,3.66,3.66,0,0,1-.22,1.32,2.66,2.66,0,0,1-1.62,1.61,3.6,3.6,0,0,1-1.25.21h-.44a1.2,1.2,0,0,1-.2,0l-.21,0v2.31Zm1.9-3a2.28,2.28,0,0,0,.8-.14,1.8,1.8,0,0,0,.65-.43,1.91,1.91,0,0,0,.42-.71,2.91,2.91,0,0,0,.15-1,3.4,3.4,0,0,0-.12-1,1.73,1.73,0,0,0-.35-.66,1.24,1.24,0,0,0-.54-.38,2,2,0,0,0-.72-.12l-.33,0-.31.06a1.81,1.81,0,0,0-.31.09,2.69,2.69,0,0,0-.32.13v4l.25,0,.24,0,.24,0Z" style="fill:#4d4d4d"/><path d="M277.79,127.92a4.35,4.35,0,0,1,.19-1.31,2.74,2.74,0,0,1,.52-1,2.31,2.31,0,0,1,1.75-.78,2.73,2.73,0,0,1,.94.15,1.87,1.87,0,0,1,.71.45,2,2,0,0,1,.44.74,3.11,3.11,0,0,1,.15,1v.37c0,.06,0,.12,0,.18a1,1,0,0,1,0,.17h-3.75a3,3,0,0,0,.13.95,1.84,1.84,0,0,0,.4.67,1.39,1.39,0,0,0,.59.39,2.34,2.34,0,0,0,.77.13,3.64,3.64,0,0,0,.48,0c.15,0,.3,0,.44-.06a3.6,3.6,0,0,0,.44-.12,3.83,3.83,0,0,0,.43-.17v.83l-.46.18-.44.11a3.17,3.17,0,0,1-.46.07,4.63,4.63,0,0,1-.54,0,3.23,3.23,0,0,1-1.11-.18,2.27,2.27,0,0,1-.86-.55,2.53,2.53,0,0,1-.54-.94A4.39,4.39,0,0,1,277.79,127.92Zm.95-.71h2.76a2.84,2.84,0,0,0-.08-.69,1.33,1.33,0,0,0-.25-.49,1,1,0,0,0-.42-.3,1.6,1.6,0,0,0-.56-.09,1.25,1.25,0,0,0-.51.1,1.5,1.5,0,0,0-.44.32,1.54,1.54,0,0,0-.32.49A2.29,2.29,0,0,0,278.74,127.21Z" style="fill:#4d4d4d"/><path d="M283.84,127.92a4.06,4.06,0,0,1,.19-1.31,2.59,2.59,0,0,1,.52-1,2.31,2.31,0,0,1,1.75-.78,2.77,2.77,0,0,1,.94.15,1.87,1.87,0,0,1,.71.45,1.93,1.93,0,0,1,.43.74,3.11,3.11,0,0,1,.15,1v.55c0,.06,0,.11,0,.17h-3.76a3,3,0,0,0,.14.95,1.82,1.82,0,0,0,.39.67,1.49,1.49,0,0,0,.6.39,2.28,2.28,0,0,0,.76.13,3.91,3.91,0,0,0,.49,0c.15,0,.3,0,.44-.06a3,3,0,0,0,.43-.12,4,4,0,0,0,.44-.17v.83l-.46.18-.44.11a3.31,3.31,0,0,1-.47.07,4.33,4.33,0,0,1-.53,0,3.33,3.33,0,0,1-1.12-.18,2.31,2.31,0,0,1-.85-.55,2.28,2.28,0,0,1-.54-.94A4.1,4.1,0,0,1,283.84,127.92Zm1-.71h2.76a2.84,2.84,0,0,0-.08-.69,1.21,1.21,0,0,0-.26-.49,1,1,0,0,0-.41-.3,1.6,1.6,0,0,0-.56-.09,1.25,1.25,0,0,0-.51.1,1.5,1.5,0,0,0-.44.32,1.75,1.75,0,0,0-.33.49A2.66,2.66,0,0,0,284.79,127.21Z" style="fill:#4d4d4d"/><path d="M289.72,125.71V125h.71v-1l.91-.13V125h1.54v.73h-1.54V129a1.43,1.43,0,0,0,.07.48.86.86,0,0,0,.19.34.84.84,0,0,0,.29.2,1.16,1.16,0,0,0,.38.06h.2l.19,0,.19,0,.21,0v.76l-.27.06-.25,0-.24,0H292a2.08,2.08,0,0,1-.63-.1,1.35,1.35,0,0,1-.51-.31,1.6,1.6,0,0,1-.34-.57,2.75,2.75,0,0,1-.12-.86v-3.37Z" style="fill:#4d4d4d"/><path d="M274.89,137.54a2.1,2.1,0,1,1,2.1-2.1A2.1,2.1,0,0,1,274.89,137.54Zm0-3.7a1.6,1.6,0,1,0,1.6,1.6A1.6,1.6,0,0,0,274.89,133.84Z" style="fill:#8b8f9e"/><path d="M342.93,41V37.37h-3.6V41h-.95V33.11h.95v3.42h3.6V33.11h.95V41Z" style="fill:#4d4d4d"/><path d="M350.23,36.93v4h-.85v-.4l-.41.22a3.25,3.25,0,0,1-.4.15,2,2,0,0,1-.43.08,3.73,3.73,0,0,1-.5,0,2.19,2.19,0,0,1-.75-.12,1.55,1.55,0,0,1-.58-.32,1.46,1.46,0,0,1-.37-.51,1.66,1.66,0,0,1-.12-.64,1.51,1.51,0,0,1,.17-.7,1.61,1.61,0,0,1,.49-.56,2.64,2.64,0,0,1,.83-.37,4.47,4.47,0,0,1,1.16-.13h.89v-.64a1.36,1.36,0,0,0-.09-.51.88.88,0,0,0-.24-.38,1.06,1.06,0,0,0-.42-.23,2.13,2.13,0,0,0-.6-.08l-.41,0a3.07,3.07,0,0,0-.42.07l-.43.12a4.13,4.13,0,0,0-.45.17l-.19-.77.52-.21a3,3,0,0,1,.49-.14,2.51,2.51,0,0,1,.49-.08,4.5,4.5,0,0,1,.54,0,3,3,0,0,1,.89.13,1.65,1.65,0,0,1,.65.37,1.57,1.57,0,0,1,.41.59A2.24,2.24,0,0,1,350.23,36.93Zm-3.46,2.46a1,1,0,0,0,.06.36.78.78,0,0,0,.53.44,1.68,1.68,0,0,0,.47.06l.41,0a2.45,2.45,0,0,0,.39-.08L349,40a2.09,2.09,0,0,0,.36-.19V38.46h-.92a3.49,3.49,0,0,0-.77.07,1.71,1.71,0,0,0-.52.2.79.79,0,0,0-.38.68Z" style="fill:#4d4d4d"/><path d="M351.78,35.85v-.73h.71v-1l.91-.13v1.17h1.54v.73H353.4v3.32a1.43,1.43,0,0,0,.07.48.86.86,0,0,0,.19.34.93.93,0,0,0,.3.2,1.06,1.06,0,0,0,.37.06h.2l.19,0,.19,0,.21,0v.76l-.27.06-.25.05-.24,0h-.27a2.08,2.08,0,0,1-.63-.1,1.24,1.24,0,0,1-.5-.31,1.49,1.49,0,0,1-.35-.57,2.75,2.75,0,0,1-.12-.86V35.85Z" style="fill:#4d4d4d"/><path d="M356,35.85v-.73h.7v-1l.92-.13v1.17h1.53v.73h-1.53v3.32a1.75,1.75,0,0,0,.06.48,1,1,0,0,0,.19.34,1.21,1.21,0,0,0,.3.2,1.06,1.06,0,0,0,.37.06h.2l.19,0,.19,0,.21,0v.76a1.31,1.31,0,0,1-.27.06l-.25.05-.24,0h-.26a2.1,2.1,0,0,1-.64-.1,1.39,1.39,0,0,1-.5-.31,1.62,1.62,0,0,1-.35-.57,2.75,2.75,0,0,1-.12-.86V35.85Z" style="fill:#4d4d4d"/><path d="M360.4,38.06a4.37,4.37,0,0,1,.18-1.31,2.61,2.61,0,0,1,.53-1,2.06,2.06,0,0,1,.79-.58,2.22,2.22,0,0,1,1-.2,2.79,2.79,0,0,1,.95.15,1.84,1.84,0,0,1,.7.45,2,2,0,0,1,.44.74,3.11,3.11,0,0,1,.15,1v.37a1.09,1.09,0,0,1,0,.18c0,.06,0,.11,0,.17h-3.76a3,3,0,0,0,.14,1,1.63,1.63,0,0,0,.39.67,1.49,1.49,0,0,0,.6.39,2.24,2.24,0,0,0,.76.13,3.64,3.64,0,0,0,.48,0l.45-.06a3.45,3.45,0,0,0,.43-.12l.43-.16v.82l-.45.18-.44.11a3.54,3.54,0,0,1-.47.07,4.5,4.5,0,0,1-.54,0,3.23,3.23,0,0,1-1.11-.18,2.35,2.35,0,0,1-.86-.55,2.53,2.53,0,0,1-.54-.94A4.41,4.41,0,0,1,360.4,38.06Zm1-.71h2.76a2.4,2.4,0,0,0-.09-.69,1.2,1.2,0,0,0-.25-.49,1,1,0,0,0-.41-.3,1.64,1.64,0,0,0-.56-.09,1.27,1.27,0,0,0-.52.1,1.65,1.65,0,0,0-.44.32,1.54,1.54,0,0,0-.32.49A2.66,2.66,0,0,0,361.35,37.35Z" style="fill:#4d4d4d"/><path d="M369.64,35.13l-.11.9-.18,0-.16,0-.16,0h-.17a.86.86,0,0,0-.28,0,.81.81,0,0,0-.27.11,1.47,1.47,0,0,0-.28.18,3.73,3.73,0,0,0-.31.28V41h-.91V35.15l.9-.07v.68l.32-.33a2,2,0,0,1,.31-.22,1.25,1.25,0,0,1,.3-.12A1.18,1.18,0,0,1,369,35h.35l.16,0Z" style="fill:#4d4d4d"/><path d="M374.64,41V37.13a1.6,1.6,0,0,0-.08-.51,1,1,0,0,0-.25-.39,1.19,1.19,0,0,0-.42-.26,1.6,1.6,0,0,0-.56-.09l-.37,0-.34.06a2,2,0,0,0-.33.09l-.36.13V41H371V35.15l.87-.07v.4a3,3,0,0,1,.4-.2,2.84,2.84,0,0,1,.38-.13,1.59,1.59,0,0,1,.39-.08,2.94,2.94,0,0,1,.44,0,2.66,2.66,0,0,1,.88.14,1.69,1.69,0,0,1,.65.38,1.72,1.72,0,0,1,.39.62,2.55,2.55,0,0,1,.13.86V41Z" style="fill:#4d4d4d"/><path d="M356.94,47.68a2.1,2.1,0,1,1,2.09-2.1A2.1,2.1,0,0,1,356.94,47.68Zm0-3.7a1.6,1.6,0,1,0,1.59,1.6A1.6,1.6,0,0,0,356.94,44Z" style="fill:#8b8f9e"/><path d="M262.38,149.6a3.81,3.81,0,0,1-1.18-.17,2.22,2.22,0,0,1-.85-.52,2.25,2.25,0,0,1-.52-.87,3.78,3.78,0,0,1-.18-1.22v-5.17h1v5.06a3.48,3.48,0,0,0,.11.93,1.56,1.56,0,0,0,.33.64,1.5,1.5,0,0,0,.58.36,2.57,2.57,0,0,0,.84.12,2.39,2.39,0,0,0,.79-.12,1.5,1.5,0,0,0,.57-.38,1.63,1.63,0,0,0,.36-.63,2.77,2.77,0,0,0,.12-.85v-5.13h.92v5.08A3.51,3.51,0,0,1,265,148a2.31,2.31,0,0,1-.57.9,2.45,2.45,0,0,1-.9.56A3.34,3.34,0,0,1,262.38,149.6Z" style="fill:#4d4d4d"/><path d="M272,141.13v8.39h-.89v-.39a2.9,2.9,0,0,1-.33.2l-.37.14-.39.09-.41,0a2.46,2.46,0,0,1-1-.19,2.11,2.11,0,0,1-.78-.54,2.63,2.63,0,0,1-.52-.9,3.88,3.88,0,0,1-.18-1.23,4,4,0,0,1,.21-1.33,2.86,2.86,0,0,1,.61-1,2.68,2.68,0,0,1,.94-.61,3.27,3.27,0,0,1,1.19-.21h.29l.26,0,.23,0,.21.06V141.2Zm-2,3.25a2,2,0,0,0-.8.15,1.68,1.68,0,0,0-.61.44,1.8,1.8,0,0,0-.39.72,3.16,3.16,0,0,0-.14.95,3.19,3.19,0,0,0,.13.92,1.73,1.73,0,0,0,.35.66,1.53,1.53,0,0,0,.55.4,1.78,1.78,0,0,0,.7.13l.36,0,.32-.07a1.45,1.45,0,0,0,.29-.11l.3-.17v-3.9l-.27,0a1.07,1.07,0,0,0-.25,0l-.27,0Z" style="fill:#4d4d4d"/><path d="M278.7,141.13v8.39h-.89v-.39a2.9,2.9,0,0,1-.33.2l-.37.14a2.59,2.59,0,0,1-.4.09,2.69,2.69,0,0,1-.4,0,2.46,2.46,0,0,1-1-.19,2.11,2.11,0,0,1-.78-.54,2.63,2.63,0,0,1-.52-.9,3.88,3.88,0,0,1-.18-1.23,4,4,0,0,1,.21-1.33,2.86,2.86,0,0,1,.61-1,2.68,2.68,0,0,1,.94-.61,3.27,3.27,0,0,1,1.19-.21h.29l.26,0,.23,0,.21.06V141.2Zm-2,3.25a2,2,0,0,0-.79.15,1.8,1.8,0,0,0-.62.44,1.91,1.91,0,0,0-.38.72,3.16,3.16,0,0,0-.14.95,3.19,3.19,0,0,0,.13.92,1.73,1.73,0,0,0,.35.66,1.53,1.53,0,0,0,.55.4,1.78,1.78,0,0,0,.7.13l.36,0,.32-.07a1.45,1.45,0,0,0,.29-.11l.3-.17v-3.9l-.27,0a1.07,1.07,0,0,0-.25,0l-.27,0Z" style="fill:#4d4d4d"/><path d="M280.5,146.59a4.41,4.41,0,0,1,.18-1.31,2.78,2.78,0,0,1,.53-1,2.21,2.21,0,0,1,.78-.58,2.39,2.39,0,0,1,1-.2,2.73,2.73,0,0,1,.94.15,1.8,1.8,0,0,1,.71.45,2,2,0,0,1,.44.74,3.11,3.11,0,0,1,.15,1v.37a1.09,1.09,0,0,1,0,.18.88.88,0,0,1,0,.17h-3.75a2.78,2.78,0,0,0,.14,1,1.77,1.77,0,0,0,.39.67,1.54,1.54,0,0,0,.59.38,2.11,2.11,0,0,0,.77.13l.48,0,.44-.07a3.54,3.54,0,0,0,.44-.11l.43-.17v.83a3.25,3.25,0,0,1-.46.17l-.43.11a3.55,3.55,0,0,1-.47.08l-.54,0a3.23,3.23,0,0,1-1.11-.18,2.16,2.16,0,0,1-.86-.55,2.48,2.48,0,0,1-.54-.93A4.48,4.48,0,0,1,280.5,146.59Zm.94-.71h2.76a2.4,2.4,0,0,0-.08-.68,1.38,1.38,0,0,0-.25-.5,1,1,0,0,0-.42-.29,1.38,1.38,0,0,0-.55-.1,1.27,1.27,0,0,0-.52.11,1.31,1.31,0,0,0-.44.31,1.59,1.59,0,0,0-.32.5A2.47,2.47,0,0,0,281.44,145.88Z" style="fill:#4d4d4d"/><path d="M287.82,141.13v8.39h-.92V141.2Z" style="fill:#4d4d4d"/><path d="M273.78,156.21a2.1,2.1,0,1,1,2.1-2.1A2.1,2.1,0,0,1,273.78,156.21Zm0-3.69a1.6,1.6,0,1,0,1.6,1.59A1.6,1.6,0,0,0,273.78,152.52Z" style="fill:#8b8f9e"/><path d="M260.19,88.43l-3.1-6.89h0v6.89h-.88V80.55h1.46l3.1,6.89h.06V80.55h.88v7.88Z" style="fill:#4d4d4d"/><path d="M264.86,82.52v3.89A1.53,1.53,0,0,0,265,87a1,1,0,0,0,.24.4,1.22,1.22,0,0,0,.4.24,1.87,1.87,0,0,0,.55.08l.39,0,.32-.05.3-.09.38-.14V82.59l.91-.07v5.91h-.89v-.36a2.61,2.61,0,0,1-.37.19,2.35,2.35,0,0,1-.37.14l-.39.08a2.9,2.9,0,0,1-.43,0,2.59,2.59,0,0,1-.88-.13,1.58,1.58,0,0,1-.64-.38,1.68,1.68,0,0,1-.39-.63,2.55,2.55,0,0,1-.13-.86V82.59Z" style="fill:#4d4d4d"/><path d="M274.22,88.43V84.57a1.6,1.6,0,0,0-.08-.51,1,1,0,0,0-.26-.39,1.13,1.13,0,0,0-.41-.25,1.6,1.6,0,0,0-.56-.09h-.37c-.11,0-.22,0-.33.06a1.89,1.89,0,0,0-.34.09,2.4,2.4,0,0,0-.36.14v4.8h-.91V82.59l.87-.07v.4a3,3,0,0,1,.4-.2,2.84,2.84,0,0,1,.38-.13,2.24,2.24,0,0,1,.39-.08,3,3,0,0,1,.44,0,2.67,2.67,0,0,1,.88.13,1.83,1.83,0,0,1,.65.38,1.68,1.68,0,0,1,.39.63,2.45,2.45,0,0,1,.13.85v4Z" style="fill:#4d4d4d"/><path d="M277.21,90.72V82.59l.87-.07v.37l.37-.17a2.84,2.84,0,0,1,.38-.13,2.57,2.57,0,0,1,.4-.08,3.17,3.17,0,0,1,.44,0,2.55,2.55,0,0,1,1,.17,2,2,0,0,1,.77.53,2.47,2.47,0,0,1,.48.91,4.39,4.39,0,0,1,.17,1.27,3.64,3.64,0,0,1-.22,1.31,2.72,2.72,0,0,1-1.62,1.61,3.62,3.62,0,0,1-1.26.21h-.43l-.21,0-.21,0v2.31Zm1.9-3a2.14,2.14,0,0,0,.8-.14,1.76,1.76,0,0,0,.64-.43,1.87,1.87,0,0,0,.42-.7,3,3,0,0,0,.15-1,3.4,3.4,0,0,0-.12-1,1.87,1.87,0,0,0-.34-.66,1.34,1.34,0,0,0-.54-.37,2,2,0,0,0-.73-.12h-.32a2.84,2.84,0,0,0-.31.06,1.58,1.58,0,0,0-.31.09,1.56,1.56,0,0,0-.33.14v4l.25,0,.24,0,.24,0Z" style="fill:#4d4d4d"/><path d="M283.51,85.5a4.06,4.06,0,0,1,.19-1.31,2.61,2.61,0,0,1,.52-1,2.13,2.13,0,0,1,.79-.58,2.38,2.38,0,0,1,.95-.2,2.79,2.79,0,0,1,1,.15,1.84,1.84,0,0,1,.7.45,2,2,0,0,1,.44.74,3.11,3.11,0,0,1,.15,1v.55a1.11,1.11,0,0,0,0,.17h-3.76a3,3,0,0,0,.14,1,1.77,1.77,0,0,0,.39.67,1.58,1.58,0,0,0,.6.38,2.06,2.06,0,0,0,.76.13,3.64,3.64,0,0,0,.48,0,3.25,3.25,0,0,0,.45-.06,3.45,3.45,0,0,0,.43-.12,3.16,3.16,0,0,0,.43-.16v.82a3.83,3.83,0,0,1-.45.18l-.44.11a3.54,3.54,0,0,1-.47.07,4.5,4.5,0,0,1-.54,0,3.23,3.23,0,0,1-1.11-.18,2.12,2.12,0,0,1-.85-.55,2.24,2.24,0,0,1-.54-.93A4.17,4.17,0,0,1,283.51,85.5Zm.95-.71h2.76a2.33,2.33,0,0,0-.09-.68,1.24,1.24,0,0,0-.25-.5,1.12,1.12,0,0,0-.41-.3,1.64,1.64,0,0,0-.56-.09,1.13,1.13,0,0,0-.52.11,1.27,1.27,0,0,0-.43.31,1.37,1.37,0,0,0-.33.5A2.47,2.47,0,0,0,284.46,84.79Z" style="fill:#4d4d4d"/><path d="M289.56,85.5a4.37,4.37,0,0,1,.18-1.31,2.78,2.78,0,0,1,.53-1,2.1,2.1,0,0,1,.78-.58,2.43,2.43,0,0,1,1-.2,2.83,2.83,0,0,1,.95.15,1.84,1.84,0,0,1,.7.45,2,2,0,0,1,.44.74,3.11,3.11,0,0,1,.15,1v.37a1.09,1.09,0,0,1,0,.18.88.88,0,0,1,0,.17h-3.75a3,3,0,0,0,.14,1,1.77,1.77,0,0,0,.39.67,1.62,1.62,0,0,0,.59.38,2.11,2.11,0,0,0,.77.13,3.64,3.64,0,0,0,.48,0,3.23,3.23,0,0,0,.88-.18,3.75,3.75,0,0,0,.43-.16v.82a3.83,3.83,0,0,1-.45.18l-.44.11a3.54,3.54,0,0,1-.47.07,4.63,4.63,0,0,1-.54,0,3.23,3.23,0,0,1-1.11-.18,2.12,2.12,0,0,1-.85-.55,2.37,2.37,0,0,1-.55-.93A4.48,4.48,0,0,1,289.56,85.5Zm.94-.71h2.77a2.33,2.33,0,0,0-.09-.68,1.38,1.38,0,0,0-.25-.5,1.12,1.12,0,0,0-.41-.3,1.64,1.64,0,0,0-.56-.09,1.13,1.13,0,0,0-.52.11,1.31,1.31,0,0,0-.44.31,1.48,1.48,0,0,0-.32.5A2.93,2.93,0,0,0,290.5,84.79Z" style="fill:#4d4d4d"/><path d="M295.44,83.29v-.73h.7v-1l.92-.14v1.17h1.53v.73h-1.53v3.32a1.75,1.75,0,0,0,.06.48,1,1,0,0,0,.19.34,1,1,0,0,0,.3.2,1.06,1.06,0,0,0,.37.06h.21l.18,0,.19,0,.21,0v.77l-.27.06-.25,0-.24,0h-.26a1.77,1.77,0,0,1-.63-.1,1.35,1.35,0,0,1-.51-.31,1.4,1.4,0,0,1-.34-.57,2.73,2.73,0,0,1-.13-.86V83.29Z" style="fill:#4d4d4d"/><path d="M277.11,95.12A2.1,2.1,0,1,1,279.2,93,2.1,2.1,0,0,1,277.11,95.12Zm0-3.7A1.6,1.6,0,1,0,278.7,93,1.6,1.6,0,0,0,277.11,91.42Z" style="fill:#8b8f9e"/><path d="M76.84,307.7v.82l-.44.09-.38.05-.42,0h-.49a3.91,3.91,0,0,1-1.43-.25,3.09,3.09,0,0,1-1.15-.73,3.2,3.2,0,0,1-.76-1.2,4.74,4.74,0,0,1-.27-1.66,5.17,5.17,0,0,1,.31-1.84,3.71,3.71,0,0,1,.85-1.32,3.53,3.53,0,0,1,1.22-.78,4.19,4.19,0,0,1,1.41-.25h.43l.37,0,.35,0a3.24,3.24,0,0,1,.39.07l-.11.84-.44-.08-.33-.05-.32,0h-.4a2.78,2.78,0,0,0-1,.2,2.47,2.47,0,0,0-.88.6,2.81,2.81,0,0,0-.61,1,4,4,0,0,0-.22,1.4,3.87,3.87,0,0,0,.21,1.37,2.55,2.55,0,0,0,.58,1,2.44,2.44,0,0,0,.87.59,3,3,0,0,0,1.08.19h.43l.37,0,.39,0Z" style="fill:#4d4d4d"/><path d="M79.21,302.72v3.89a1.53,1.53,0,0,0,.08.54,1,1,0,0,0,.25.4,1.12,1.12,0,0,0,.4.24,1.82,1.82,0,0,0,.55.08l.38,0,.32-.05.31-.09.37-.14v-4.78l.91-.07v5.91h-.89v-.36a2.16,2.16,0,0,1-.37.19,2.35,2.35,0,0,1-.37.14l-.38.08a3.15,3.15,0,0,1-.44,0,2.63,2.63,0,0,1-.88-.13,1.65,1.65,0,0,1-.64-.38,1.68,1.68,0,0,1-.39-.63,2.83,2.83,0,0,1-.13-.86v-3.92Z" style="fill:#4d4d4d"/><path d="M85.85,300.24v8.39h-.91v-8.32Z" style="fill:#4d4d4d"/><path d="M87.65,305.7a4.06,4.06,0,0,1,.19-1.31,2.76,2.76,0,0,1,.52-1,2.22,2.22,0,0,1,.79-.58,2.39,2.39,0,0,1,1-.2,2.77,2.77,0,0,1,.94.15,1.87,1.87,0,0,1,.71.45,2,2,0,0,1,.43.74,3.11,3.11,0,0,1,.15,1v.55c0,.06,0,.12,0,.17H88.56a3,3,0,0,0,.14,1,1.91,1.91,0,0,0,.39.67,1.58,1.58,0,0,0,.6.38,2.07,2.07,0,0,0,.77.13,3.87,3.87,0,0,0,.48,0,3.11,3.11,0,0,0,.44-.06,3.6,3.6,0,0,0,.44-.12c.14,0,.28-.1.43-.16v.82a3.35,3.35,0,0,1-.46.18l-.44.11a3.31,3.31,0,0,1-.47.07,4.33,4.33,0,0,1-.53,0,3.33,3.33,0,0,1-1.12-.18,2.19,2.19,0,0,1-.85-.55,2.24,2.24,0,0,1-.54-.93A4.17,4.17,0,0,1,87.65,305.7Zm.95-.71h2.76a2.76,2.76,0,0,0-.08-.68,1.38,1.38,0,0,0-.25-.5,1.25,1.25,0,0,0-.42-.3,1.6,1.6,0,0,0-.56-.09,1.12,1.12,0,0,0-.51.11,1.31,1.31,0,0,0-.44.31,1.48,1.48,0,0,0-.32.5A2.14,2.14,0,0,0,88.6,305Z" style="fill:#4d4d4d"/><path d="M101.21,308.63v-3.84a1.48,1.48,0,0,0-.08-.53,1,1,0,0,0-.24-.39,1,1,0,0,0-.4-.25,1.55,1.55,0,0,0-.55-.09h-.37c-.11,0-.22,0-.33.06l-.31.09a3.06,3.06,0,0,0-.38.14v4.8h-.91v-3.87a1.69,1.69,0,0,0-.08-.53.83.83,0,0,0-.22-.39,1.07,1.07,0,0,0-.4-.24,1.93,1.93,0,0,0-.57-.07H96l-.33,0-.31.09-.36.15v4.8h-.91v-5.84l.88-.07v.4l.4-.21a2.72,2.72,0,0,1,.37-.13l.38-.07a3,3,0,0,1,.43,0,4.17,4.17,0,0,1,.52,0,1.84,1.84,0,0,1,.45.12,1.69,1.69,0,0,1,.38.19,1.2,1.2,0,0,1,.29.26,5.68,5.68,0,0,1,.5-.29l.46-.18.47-.1a3.89,3.89,0,0,1,.51,0,2.61,2.61,0,0,1,.87.13,1.63,1.63,0,0,1,.64.38,1.66,1.66,0,0,1,.38.63,2.45,2.45,0,0,1,.13.85v3.95Z" style="fill:#4d4d4d"/><path d="M109.06,305.52a3.81,3.81,0,0,1-.22,1.34,2.73,2.73,0,0,1-.64,1,2.59,2.59,0,0,1-1,.63,3.51,3.51,0,0,1-1.24.21h-.45l-.42,0a3.42,3.42,0,0,1-.44,0l-.47-.06v-8.26l.91-.07v2.84l.38-.18a2.78,2.78,0,0,1,.38-.12l.38-.07a2.75,2.75,0,0,1,.41,0,2.55,2.55,0,0,1,1,.17,2,2,0,0,1,.77.53,2.3,2.3,0,0,1,.48.89A4.18,4.18,0,0,1,109.06,305.52Zm-1,.08a3.18,3.18,0,0,0-.12-.93,1.67,1.67,0,0,0-.34-.65,1.34,1.34,0,0,0-.54-.37,2,2,0,0,0-.73-.12h-.32c-.1,0-.21,0-.31.06a1.58,1.58,0,0,0-.31.09l-.33.14v4l.26,0,.24,0h.49a2.26,2.26,0,0,0,.79-.13,2,2,0,0,0,.65-.42,2,2,0,0,0,.42-.72A3.17,3.17,0,0,0,108.11,305.6Z" style="fill:#4d4d4d"/><path d="M115.8,305.63a3.79,3.79,0,0,1-.21,1.29,3.09,3.09,0,0,1-.6,1,2.5,2.5,0,0,1-.87.61,2.66,2.66,0,0,1-1.05.21,3,3,0,0,1-1.06-.18,2,2,0,0,1-.81-.57,2.47,2.47,0,0,1-.52-.93,4.17,4.17,0,0,1-.18-1.28,3.66,3.66,0,0,1,.22-1.3,2.87,2.87,0,0,1,.59-1,2.64,2.64,0,0,1,.87-.61,2.49,2.49,0,0,1,1-.22,2.8,2.8,0,0,1,1.07.19,2.25,2.25,0,0,1,.82.57,2.44,2.44,0,0,1,.51.93A4.19,4.19,0,0,1,115.8,305.63Zm-.94,0a3.5,3.5,0,0,0-.12-1,1.93,1.93,0,0,0-.33-.69,1.47,1.47,0,0,0-.54-.42,1.9,1.9,0,0,0-.73-.14,1.39,1.39,0,0,0-.68.16,1.42,1.42,0,0,0-.54.44,2,2,0,0,0-.35.72,3.48,3.48,0,0,0-.12,1,4,4,0,0,0,.11,1,1.86,1.86,0,0,0,.34.69,1.37,1.37,0,0,0,.54.42,1.81,1.81,0,0,0,.72.14,1.53,1.53,0,0,0,1.23-.61,2.2,2.2,0,0,0,.35-.72A3.4,3.4,0,0,0,114.86,305.66Z" style="fill:#4d4d4d"/><path d="M120.44,302.77l-.11.9-.18,0-.16,0-.16,0h-.17a1.26,1.26,0,0,0-.28,0,1,1,0,0,0-.28.11l-.27.18a2.68,2.68,0,0,0-.31.29v4.44h-.92v-5.84l.9-.07v.69a3.42,3.42,0,0,1,.33-.33,1.5,1.5,0,0,1,.3-.23,2,2,0,0,1,.31-.12,1.1,1.1,0,0,1,.31,0h.34l.17,0Z" style="fill:#4d4d4d"/><path d="M122.54,307.2a.45.45,0,0,0,0,.2.37.37,0,0,0,.13.15.45.45,0,0,0,.22.1,1.18,1.18,0,0,0,.34,0l1.57.05a2.46,2.46,0,0,1,.71.11,1.36,1.36,0,0,1,.51.26,1,1,0,0,1,.29.4,1.19,1.19,0,0,1,.1.51,1.72,1.72,0,0,1-.18.78,1.67,1.67,0,0,1-.52.61,2.52,2.52,0,0,1-.89.41,4.6,4.6,0,0,1-1.23.15,4.37,4.37,0,0,1-1-.11,2.56,2.56,0,0,1-.75-.31,1.56,1.56,0,0,1-.47-.49,1.37,1.37,0,0,1-.16-.63,1.46,1.46,0,0,1,.07-.39,1.31,1.31,0,0,1,.21-.36,2.27,2.27,0,0,1,.31-.31,2,2,0,0,1,.37-.22v0L122,308a.57.57,0,0,1-.15-.16,1,1,0,0,1-.1-.21.86.86,0,0,1,0-.24.8.8,0,0,1,.05-.26.72.72,0,0,1,.12-.23,1,1,0,0,1,.21-.2.94.94,0,0,1,.26-.14v0a1.64,1.64,0,0,1-.37-.26,1.2,1.2,0,0,1-.28-.35,1.7,1.7,0,0,1-.18-.46,1.88,1.88,0,0,1-.07-.55,2.42,2.42,0,0,1,.16-.91,1.71,1.71,0,0,1,.46-.69,2,2,0,0,1,.74-.43,3,3,0,0,1,1-.15h.23l.25,0,.23,0,.19,0h1.8v.69h-1.1v0a1.19,1.19,0,0,1,.23.22,1.75,1.75,0,0,1,.18.29,1.9,1.9,0,0,1,.12.36,1.72,1.72,0,0,1,0,.39,2.24,2.24,0,0,1-.16.89,1.74,1.74,0,0,1-.47.63,2.23,2.23,0,0,1-.77.39,3.48,3.48,0,0,1-1,.13h-.35l-.16,0-.15,0a.52.52,0,0,0-.15.07l-.12.11a.46.46,0,0,0-.08.13A.4.4,0,0,0,122.54,307.2Zm-.46,2.09a.77.77,0,0,0,.11.39,1,1,0,0,0,.32.3,2,2,0,0,0,.51.19,3.54,3.54,0,0,0,.69.06,4.37,4.37,0,0,0,.87-.07,1.9,1.9,0,0,0,.6-.21,1,1,0,0,0,.35-.32.76.76,0,0,0,.11-.42.77.77,0,0,0,0-.27.53.53,0,0,0-.16-.2,1.22,1.22,0,0,0-.28-.13,2.34,2.34,0,0,0-.43-.06l-2-.09a1,1,0,0,0-.28.14.7.7,0,0,0-.2.18.58.58,0,0,0-.13.23A.86.86,0,0,0,122.08,309.29Zm1.61-3.16a2.28,2.28,0,0,0,.62-.08,1.07,1.07,0,0,0,.43-.24,1.12,1.12,0,0,0,.26-.44,2.38,2.38,0,0,0,.08-.64,1.7,1.7,0,0,0-.09-.57,1.11,1.11,0,0,0-.26-.4,1.27,1.27,0,0,0-.42-.25,1.94,1.94,0,0,0-.56-.08,2,2,0,0,0-.57.08,1.18,1.18,0,0,0-.43.26,1.12,1.12,0,0,0-.27.43,1.8,1.8,0,0,0-.09.6,1.65,1.65,0,0,0,.1.62.92.92,0,0,0,.27.41,1,1,0,0,0,.41.23A1.68,1.68,0,0,0,123.69,306.13Z" style="fill:#4d4d4d"/><path d="M99,315.32a2.1,2.1,0,1,1,2.09-2.1A2.1,2.1,0,0,1,99,315.32Zm0-3.7a1.6,1.6,0,1,0,1.59,1.6A1.6,1.6,0,0,0,99,311.62Z" style="fill:#8b8f9e"/><path d="M77.89,375.94v-.84h4.88V376l-4,6.12v.05h4.06V383H77.68v-.86l4-6.14v0Z" style="fill:#4d4d4d"/><path d="M88.51,378.91V383h-.85v-.41a3.32,3.32,0,0,1-.41.22,3.25,3.25,0,0,1-.4.15,3,3,0,0,1-.43.09l-.5,0a2.47,2.47,0,0,1-.75-.11,1.72,1.72,0,0,1-.58-.33,1.42,1.42,0,0,1-.37-.5,1.69,1.69,0,0,1-.12-.64,1.37,1.37,0,0,1,.17-.7,1.53,1.53,0,0,1,.49-.56,2.35,2.35,0,0,1,.83-.37,4.44,4.44,0,0,1,1.16-.14h.89v-.64a1.46,1.46,0,0,0-.09-.52.85.85,0,0,0-.24-.37,1.06,1.06,0,0,0-.42-.23,2.18,2.18,0,0,0-.6-.08l-.41,0a3.1,3.1,0,0,0-.42.08l-.43.11-.45.17-.2-.76.53-.21.48-.15.49-.08.55,0a2.73,2.73,0,0,1,.89.13,1.61,1.61,0,0,1,1.06.95A2.28,2.28,0,0,1,88.51,378.91ZM85,381.38a1,1,0,0,0,.07.35.68.68,0,0,0,.2.27.88.88,0,0,0,.33.18,1.68,1.68,0,0,0,.47.06,2.73,2.73,0,0,0,.41,0,2.66,2.66,0,0,0,.39-.07l.37-.13.36-.19v-1.37h-.92a3.49,3.49,0,0,0-.77.07,1.43,1.43,0,0,0-.53.2.88.88,0,0,0-.28.3A.83.83,0,0,0,85,381.38Z" style="fill:#4d4d4d"/><path d="M91.5,374.58V383h-.91v-8.32Z" style="fill:#4d4d4d"/><path d="M93.13,377.83v-.73h.71v-1l.91-.13v1.16h1.54v.73H94.75v3.32a1.62,1.62,0,0,0,.07.48A.86.86,0,0,0,95,382a.8.8,0,0,0,.29.2,1,1,0,0,0,.38.07h.2l.19,0,.19,0,.21,0v.77l-.27.06L96,383l-.24,0h-.27a2.08,2.08,0,0,1-.63-.09,1.37,1.37,0,0,1-.51-.32,1.44,1.44,0,0,1-.34-.57,2.7,2.7,0,0,1-.12-.86v-3.37Z" style="fill:#4d4d4d"/><path d="M102.75,379.86a3.76,3.76,0,0,1-.23,1.34,2.64,2.64,0,0,1-1.61,1.63,3.56,3.56,0,0,1-1.25.21h-.87l-.44,0-.47-.07v-8.26l.92-.07v2.85a1.64,1.64,0,0,1,.38-.18,2.65,2.65,0,0,1,.37-.12,2.7,2.7,0,0,1,.39-.08l.41,0a2.8,2.8,0,0,1,1,.17,2.13,2.13,0,0,1,.76.53,2.54,2.54,0,0,1,.49.89A4.22,4.22,0,0,1,102.75,379.86Zm-1,.09a3.25,3.25,0,0,0-.12-.94,1.9,1.9,0,0,0-.34-.65,1.31,1.31,0,0,0-.55-.37,2,2,0,0,0-.72-.12l-.32,0-.32.05-.31.1-.32.13v4l.25,0,.24,0h.49a2.32,2.32,0,0,0,.8-.14,1.7,1.7,0,0,0,.64-.42,1.85,1.85,0,0,0,.43-.72A3.11,3.11,0,0,0,101.8,380Z" style="fill:#4d4d4d"/><path d="M109.49,380a3.57,3.57,0,0,1-.22,1.29,2.87,2.87,0,0,1-.59,1,2.56,2.56,0,0,1-.88.62,2.66,2.66,0,0,1-1,.21,2.78,2.78,0,0,1-1.06-.19,2.15,2.15,0,0,1-.81-.56,2.5,2.5,0,0,1-.51-.94,4.17,4.17,0,0,1-.18-1.28,3.79,3.79,0,0,1,.21-1.29,2.74,2.74,0,0,1,.6-1,2.53,2.53,0,0,1,.87-.62,2.58,2.58,0,0,1,1-.22,2.83,2.83,0,0,1,1.07.2,2,2,0,0,1,.81.56,2.47,2.47,0,0,1,.52.93A4.19,4.19,0,0,1,109.49,380Zm-.95,0a3.84,3.84,0,0,0-.11-1,2,2,0,0,0-.34-.7,1.44,1.44,0,0,0-.54-.41,1.65,1.65,0,0,0-.72-.14,1.58,1.58,0,0,0-.69.15,1.52,1.52,0,0,0-.54.44,2.2,2.2,0,0,0-.35.72,3.9,3.9,0,0,0,0,1.92,2,2,0,0,0,.33.69,1.44,1.44,0,0,0,.54.41,1.7,1.7,0,0,0,.73.14,1.54,1.54,0,0,0,.68-.15,1.58,1.58,0,0,0,.54-.46,2.05,2.05,0,0,0,.35-.71A3.51,3.51,0,0,0,108.54,380Z" style="fill:#4d4d4d"/><path d="M118.44,383v-3.84a1.67,1.67,0,0,0-.08-.52,1,1,0,0,0-.24-.4,1.09,1.09,0,0,0-.4-.25,1.55,1.55,0,0,0-.55-.09l-.37,0-.33.05-.32.09-.37.14V383h-.91v-3.86a1.8,1.8,0,0,0-.08-.54,1,1,0,0,0-.23-.39.94.94,0,0,0-.39-.23,1.93,1.93,0,0,0-.58-.08l-.39,0-.33.05a1.81,1.81,0,0,0-.31.09l-.36.14V383h-.91v-5.83l.87-.07v.39a3.81,3.81,0,0,1,.41-.2,1.63,1.63,0,0,1,.37-.13,2.33,2.33,0,0,1,.38-.08l.43,0a2.89,2.89,0,0,1,.52,0,2.12,2.12,0,0,1,.45.11,1.84,1.84,0,0,1,.37.19,1.52,1.52,0,0,1,.3.26,4.35,4.35,0,0,1,.5-.28,2.42,2.42,0,0,1,.46-.18,2.52,2.52,0,0,1,.46-.1,2.78,2.78,0,0,1,.51,0,2.67,2.67,0,0,1,.88.13,1.65,1.65,0,0,1,.64.39,1.67,1.67,0,0,1,.38.62,2.49,2.49,0,0,1,.13.85v4Z" style="fill:#4d4d4d"/><path d="M128.58,383v-3.84a1.67,1.67,0,0,0-.08-.52,1,1,0,0,0-.24-.4,1.09,1.09,0,0,0-.4-.25,1.55,1.55,0,0,0-.55-.09l-.37,0-.33.05-.32.09-.37.14V383H125v-3.86a1.81,1.81,0,0,0-.07-.54,1.07,1.07,0,0,0-.22-.39,1.05,1.05,0,0,0-.4-.23,1.93,1.93,0,0,0-.58-.08l-.39,0-.33.05a1.81,1.81,0,0,0-.31.09l-.36.14V383h-.91v-5.83l.87-.07v.39a3.81,3.81,0,0,1,.41-.2,1.82,1.82,0,0,1,.37-.13,2.33,2.33,0,0,1,.38-.08l.43,0a2.89,2.89,0,0,1,.52,0,2.12,2.12,0,0,1,.45.11,1.84,1.84,0,0,1,.37.19,1.52,1.52,0,0,1,.3.26,5.39,5.39,0,0,1,.5-.28,2.42,2.42,0,0,1,.46-.18,2.46,2.46,0,0,1,.47-.1,2.6,2.6,0,0,1,.5,0,2.67,2.67,0,0,1,.88.13,1.65,1.65,0,0,1,.64.39,1.67,1.67,0,0,1,.38.62,2.49,2.49,0,0,1,.13.85v4Z" style="fill:#4d4d4d"/><path d="M131.21,380a4.41,4.41,0,0,1,.18-1.31,2.78,2.78,0,0,1,.53-1,2.25,2.25,0,0,1,.79-.58,2.38,2.38,0,0,1,.95-.2,2.79,2.79,0,0,1,1,.15,1.84,1.84,0,0,1,.7.45,2,2,0,0,1,.44.74,3.13,3.13,0,0,1,.15,1v.36a1.09,1.09,0,0,1,0,.18c0,.06,0,.12,0,.18h-3.76a3,3,0,0,0,.14.95,1.77,1.77,0,0,0,.39.67,1.73,1.73,0,0,0,.6.39,2.29,2.29,0,0,0,.76.12l.48,0,.45-.07a3.39,3.39,0,0,0,.43-.11l.43-.17v.83a3.67,3.67,0,0,1-.45.17l-.44.12-.47.07-.54,0a3.27,3.27,0,0,1-1.11-.18,2.21,2.21,0,0,1-.85-.54,2.49,2.49,0,0,1-.55-.94A4.48,4.48,0,0,1,131.21,380Zm.95-.71h2.76a2.38,2.38,0,0,0-.09-.68,1.24,1.24,0,0,0-.25-.5,1,1,0,0,0-.41-.29,1.43,1.43,0,0,0-.56-.1,1.27,1.27,0,0,0-.52.11,1.6,1.6,0,0,0-.44.31,1.79,1.79,0,0,0-.32.5A2.58,2.58,0,0,0,132.16,379.33Z" style="fill:#4d4d4d"/><path d="M138.53,374.58V383h-.91v-8.32Z" style="fill:#4d4d4d"/><path d="M108.44,389.66a2.1,2.1,0,1,1,2.1-2.1A2.1,2.1,0,0,1,108.44,389.66Zm0-3.69a1.6,1.6,0,1,0,1.6,1.59A1.59,1.59,0,0,0,108.44,386Z" style="fill:#8b8f9e"/><path d="M294.78,394.75v-.84h2.4v3.59l-.55.1-.54.06-.56,0h-.6a4,4,0,0,1-1.45-.25,3.36,3.36,0,0,1-1.19-.72,3.22,3.22,0,0,1-.79-1.21,4.51,4.51,0,0,1-.29-1.66,4.79,4.79,0,0,1,.35-1.89,3.62,3.62,0,0,1,.93-1.31,3.77,3.77,0,0,1,1.32-.75,4.73,4.73,0,0,1,1.51-.24h.47l.42,0,.39,0,.42.07-.1.84-.52-.08-.32,0-.37,0h-.43a3.44,3.44,0,0,0-1.16.19,2.65,2.65,0,0,0-1,.58,2.79,2.79,0,0,0-.69,1,3.73,3.73,0,0,0-.25,1.43,3.92,3.92,0,0,0,.22,1.38,2.62,2.62,0,0,0,1.52,1.58,3.24,3.24,0,0,0,1.09.19h.6l.29,0,.31,0v-2.06Z" style="fill:#4d4d4d"/><path d="M302.13,391.78l-.1.9-.18,0-.16,0-.16,0h-.17a1,1,0,0,0-.29,0,1,1,0,0,0-.27.11,1.41,1.41,0,0,0-.27.18,3.82,3.82,0,0,0-.32.29v4.43h-.91V391.8l.9-.07v.68l.33-.33a1.91,1.91,0,0,1,.3-.22,1.32,1.32,0,0,1,.31-.12,1.1,1.1,0,0,1,.31,0h.34l.17,0Z" style="fill:#4d4d4d"/><path d="M308.46,394.63a3.49,3.49,0,0,1-.22,1.29,2.87,2.87,0,0,1-.59,1,2.35,2.35,0,0,1-.88.62,2.66,2.66,0,0,1-1,.21,3,3,0,0,1-1.06-.18,2.3,2.3,0,0,1-.81-.57,2.78,2.78,0,0,1-.52-.93,4.22,4.22,0,0,1-.17-1.28,3.85,3.85,0,0,1,.21-1.3,3,3,0,0,1,.59-1,2.89,2.89,0,0,1,.87-.62,2.66,2.66,0,0,1,1.05-.21,2.83,2.83,0,0,1,1.07.19,2.22,2.22,0,0,1,.81.56,2.47,2.47,0,0,1,.52.93A4.28,4.28,0,0,1,308.46,394.63Zm-.95,0a4,4,0,0,0-.11-1,1.86,1.86,0,0,0-.34-.69,1.37,1.37,0,0,0-.54-.42,1.83,1.83,0,0,0-.73-.14,1.57,1.57,0,0,0-.68.15,1.45,1.45,0,0,0-.54.45,2.2,2.2,0,0,0-.35.72,3.86,3.86,0,0,0,0,1.91,1.85,1.85,0,0,0,.33.69,1.37,1.37,0,0,0,.54.42,1.86,1.86,0,0,0,.73.14,1.42,1.42,0,0,0,.68-.16,1.45,1.45,0,0,0,.54-.45,2,2,0,0,0,.35-.72A3.4,3.4,0,0,0,307.51,394.67Z" style="fill:#4d4d4d"/><path d="M309.9,394.71a4.37,4.37,0,0,1,.18-1.31,2.69,2.69,0,0,1,.53-1,2.13,2.13,0,0,1,.79-.58,2.22,2.22,0,0,1,1-.2,2.79,2.79,0,0,1,.95.15,1.84,1.84,0,0,1,.7.45,2,2,0,0,1,.44.74,3.11,3.11,0,0,1,.15,1v.37a1.09,1.09,0,0,1,0,.18c0,.06,0,.11,0,.17h-3.76a3.08,3.08,0,0,0,.14,1,1.66,1.66,0,0,0,.39.66,1.49,1.49,0,0,0,.6.39,2.28,2.28,0,0,0,.76.13,3.64,3.64,0,0,0,.48,0l.45-.06a3.45,3.45,0,0,0,.43-.12l.43-.16v.82l-.45.18-.44.11a3.54,3.54,0,0,1-.47.07,4.5,4.5,0,0,1-.54,0,3.27,3.27,0,0,1-1.11-.18,2.23,2.23,0,0,1-.85-.55,2.41,2.41,0,0,1-.55-.94A4.41,4.41,0,0,1,309.9,394.71Zm1-.71h2.76a2.4,2.4,0,0,0-.09-.69,1.2,1.2,0,0,0-.25-.49,1,1,0,0,0-.41-.3,1.64,1.64,0,0,0-.56-.09,1.3,1.3,0,0,0-.52.1,1.65,1.65,0,0,0-.44.32,1.73,1.73,0,0,0-.32.49A2.66,2.66,0,0,0,310.85,394Z" style="fill:#4d4d4d"/><path d="M315.84,397.51v-.82l.41.1a2.7,2.7,0,0,0,.41.06l.43,0h.44a2.26,2.26,0,0,0,.55-.06,1.42,1.42,0,0,0,.41-.19.65.65,0,0,0,.25-.27.74.74,0,0,0,.09-.36.81.81,0,0,0-.06-.31.66.66,0,0,0-.17-.25,1.27,1.27,0,0,0-.31-.19,1.93,1.93,0,0,0-.45-.17l-.68-.2a2.65,2.65,0,0,1-.54-.22,1.79,1.79,0,0,1-.39-.33,1.44,1.44,0,0,1-.24-.42,1.78,1.78,0,0,1-.08-.53,1.5,1.5,0,0,1,.15-.67,1.62,1.62,0,0,1,.43-.55,1.84,1.84,0,0,1,.68-.36,3,3,0,0,1,.87-.12h.39l.36,0,.34,0a1.65,1.65,0,0,1,.32.06l-.1.79-.34-.06-.32,0-.33,0H318a2,2,0,0,0-.51.06,1.21,1.21,0,0,0-.38.17.74.74,0,0,0-.24.26.71.71,0,0,0-.07.32.85.85,0,0,0,0,.29.91.91,0,0,0,.15.23,1.3,1.3,0,0,0,.26.17,1.59,1.59,0,0,0,.37.14l.68.18a3.35,3.35,0,0,1,.62.24,2,2,0,0,1,.45.33,1.33,1.33,0,0,1,.26.42,1.7,1.7,0,0,1,.08.51,1.76,1.76,0,0,1-.16.76,1.89,1.89,0,0,1-.45.6,2,2,0,0,1-.71.39,2.88,2.88,0,0,1-.9.14H317l-.41,0-.39-.06Z" style="fill:#4d4d4d"/><path d="M326.25,394.53a3.71,3.71,0,0,1-.22,1.33,2.8,2.8,0,0,1-.63,1,2.75,2.75,0,0,1-1,.63,3.56,3.56,0,0,1-1.25.21h-.45l-.42,0-.44,0-.47-.07v-8.25l.92-.07v2.84a3.14,3.14,0,0,1,.37-.18,2.78,2.78,0,0,1,.38-.12,2.66,2.66,0,0,1,.39-.07,2.55,2.55,0,0,1,.4,0,2.64,2.64,0,0,1,1,.17,1.91,1.91,0,0,1,.76.53,2.49,2.49,0,0,1,.49.88A4.26,4.26,0,0,1,326.25,394.53Zm-.94.08a3.3,3.3,0,0,0-.12-.94,1.71,1.71,0,0,0-.35-.64,1.24,1.24,0,0,0-.54-.38,2,2,0,0,0-.72-.12l-.33,0-.31.06a1.81,1.81,0,0,0-.31.09l-.32.13v4l.25,0h.24l.24,0h.25a2.1,2.1,0,0,0,.8-.14,1.7,1.7,0,0,0,.64-.42,1.82,1.82,0,0,0,.43-.72A3.11,3.11,0,0,0,325.31,394.61Z" style="fill:#4d4d4d"/><path d="M327.7,394.71a4.37,4.37,0,0,1,.18-1.31,2.84,2.84,0,0,1,.52-1,2.31,2.31,0,0,1,1.75-.78,2.73,2.73,0,0,1,.94.15,1.87,1.87,0,0,1,.71.45,2,2,0,0,1,.44.74,3.11,3.11,0,0,1,.15,1v.37c0,.06,0,.12,0,.18a1,1,0,0,1,0,.17h-3.75a2.81,2.81,0,0,0,.14,1,1.66,1.66,0,0,0,.39.66,1.39,1.39,0,0,0,.59.39,2.34,2.34,0,0,0,.77.13,3.64,3.64,0,0,0,.48,0c.15,0,.3,0,.44-.06a3.6,3.6,0,0,0,.44-.12l.43-.16v.82l-.46.18-.44.11a3.17,3.17,0,0,1-.46.07,4.63,4.63,0,0,1-.54,0,3.23,3.23,0,0,1-1.11-.18,2.27,2.27,0,0,1-.86-.55,2.53,2.53,0,0,1-.54-.94A4.41,4.41,0,0,1,327.7,394.71Zm.94-.71h2.76a2.42,2.42,0,0,0-.08-.69,1.33,1.33,0,0,0-.25-.49,1,1,0,0,0-.42-.3,1.6,1.6,0,0,0-.56-.09,1.25,1.25,0,0,0-.51.1,1.5,1.5,0,0,0-.44.32,1.54,1.54,0,0,0-.32.49A2.29,2.29,0,0,0,328.64,394Z" style="fill:#4d4d4d"/><path d="M333.74,394.71a4.06,4.06,0,0,1,.19-1.31,2.67,2.67,0,0,1,.52-1,2.31,2.31,0,0,1,1.75-.78,2.77,2.77,0,0,1,.94.15,1.87,1.87,0,0,1,.71.45,1.93,1.93,0,0,1,.43.74,3.11,3.11,0,0,1,.15,1v.55c0,.06,0,.11,0,.17h-3.76a3.08,3.08,0,0,0,.14,1,1.78,1.78,0,0,0,.39.66,1.49,1.49,0,0,0,.6.39,2.28,2.28,0,0,0,.76.13,3.91,3.91,0,0,0,.49,0c.15,0,.3,0,.44-.06a3.6,3.6,0,0,0,.44-.12l.43-.16v.82l-.46.18-.44.11a3.31,3.31,0,0,1-.47.07,4.33,4.33,0,0,1-.53,0,3.33,3.33,0,0,1-1.12-.18,2.31,2.31,0,0,1-.85-.55,2.28,2.28,0,0,1-.54-.94A4.1,4.1,0,0,1,333.74,394.71Zm.95-.71h2.76a2.84,2.84,0,0,0-.08-.69,1.33,1.33,0,0,0-.25-.49,1.12,1.12,0,0,0-.42-.3,1.6,1.6,0,0,0-.56-.09,1.25,1.25,0,0,0-.51.1,1.5,1.5,0,0,0-.44.32,1.54,1.54,0,0,0-.32.49A2.29,2.29,0,0,0,334.69,394Z" style="fill:#4d4d4d"/><path d="M341.06,394.83v2.8h-.91v-8.31l.91-.07V394h.53l2-2.25h1.11l-2.28,2.52,2.49,3.34h-1.14l-2.07-2.8Z" style="fill:#4d4d4d"/><path d="M317.87,404.33a2.1,2.1,0,1,1,2.09-2.1A2.1,2.1,0,0,1,317.87,404.33Zm0-3.7a1.6,1.6,0,1,0,1.59,1.6A1.6,1.6,0,0,0,317.87,400.63Z" style="fill:#8b8f9e"/><path d="M267.49,374.66l-3.1-6.89h-.05v6.89h-.88v-7.88h1.46l3.1,6.89h.06v-6.89H269v7.88Z" style="fill:#4d4d4d"/><path d="M271.2,366.87a1,1,0,0,1,0-.25.4.4,0,0,1,.13-.18.57.57,0,0,1,.18-.12.74.74,0,0,1,.48,0,.57.57,0,0,1,.18.12.34.34,0,0,1,.11.17.71.71,0,0,1,.05.26.64.64,0,0,1-.05.24.42.42,0,0,1-.11.18.54.54,0,0,1-.18.11.74.74,0,0,1-.48,0,.54.54,0,0,1-.18-.11.46.46,0,0,1-.13-.18A.93.93,0,0,1,271.2,366.87Zm1.05,1.88v5.91h-.92v-5.84Z" style="fill:#4d4d4d"/><path d="M275.32,368.75V375a2.26,2.26,0,0,1-.13.81,1.54,1.54,0,0,1-.36.59,1.74,1.74,0,0,1-.54.39,2.5,2.5,0,0,1-.7.23l-.12-.77a1.74,1.74,0,0,0,.41-.18,1.25,1.25,0,0,0,.3-.25.82.82,0,0,0,.17-.35,1.56,1.56,0,0,0,.06-.46v-6.18Zm-1.05-1.88a.7.7,0,0,1,.05-.25.32.32,0,0,1,.12-.18.57.57,0,0,1,.18-.12.74.74,0,0,1,.48,0,.57.57,0,0,1,.18.12.43.43,0,0,1,.12.17,1,1,0,0,1,0,.26.93.93,0,0,1,0,.24.57.57,0,0,1-.12.18.54.54,0,0,1-.18.11.74.74,0,0,1-.48,0,.54.54,0,0,1-.18-.11.36.36,0,0,1-.12-.18A.64.64,0,0,1,274.27,366.87Z" style="fill:#4d4d4d"/><path d="M284.63,374.66v-3.84a1.74,1.74,0,0,0-.08-.53,1,1,0,0,0-.24-.39,1,1,0,0,0-.4-.25,1.55,1.55,0,0,0-.55-.09H283l-.33.06-.32.09-.37.14v4.8h-.92v-3.87a1.7,1.7,0,0,0-.07-.53.85.85,0,0,0-.23-.39,1,1,0,0,0-.39-.24,2,2,0,0,0-.58-.07h-.39l-.33.05a1.81,1.81,0,0,0-.31.09l-.36.15v4.8h-.91v-5.84l.87-.07v.4l.41-.21a2.32,2.32,0,0,1,.37-.13l.38-.07a3,3,0,0,1,.43,0,4.28,4.28,0,0,1,.52,0,3,3,0,0,1,.45.11,1.86,1.86,0,0,1,.37.2,1.48,1.48,0,0,1,.3.26,4.53,4.53,0,0,1,.5-.29l.46-.18.46-.1a4.12,4.12,0,0,1,.51,0,2.67,2.67,0,0,1,.88.13,1.63,1.63,0,0,1,.64.38,1.8,1.8,0,0,1,.38.63,2.45,2.45,0,0,1,.13.85v4Z" style="fill:#4d4d4d"/><path d="M287.26,371.73a4.37,4.37,0,0,1,.18-1.31,2.69,2.69,0,0,1,.53-1,2.13,2.13,0,0,1,.79-.58,2.38,2.38,0,0,1,.95-.2,2.79,2.79,0,0,1,1,.15,1.84,1.84,0,0,1,.7.45,2,2,0,0,1,.44.74,3.11,3.11,0,0,1,.15,1v.37a1.09,1.09,0,0,1,0,.18c0,.06,0,.12,0,.17h-3.76a3,3,0,0,0,.14,1,1.66,1.66,0,0,0,.39.66,1.49,1.49,0,0,0,.6.39,2.06,2.06,0,0,0,.76.13,3.64,3.64,0,0,0,.48,0l.45-.06a3.45,3.45,0,0,0,.43-.12,3.75,3.75,0,0,0,.43-.16v.82a3.83,3.83,0,0,1-.45.18l-.44.11a3.54,3.54,0,0,1-.47.07,4.5,4.5,0,0,1-.54,0,3.23,3.23,0,0,1-1.11-.18A2.12,2.12,0,0,1,288,374a2.37,2.37,0,0,1-.55-.93A4.48,4.48,0,0,1,287.26,371.73Zm.95-.71H291a2.33,2.33,0,0,0-.09-.68,1.24,1.24,0,0,0-.25-.5,1.12,1.12,0,0,0-.41-.3,1.64,1.64,0,0,0-.56-.09,1.13,1.13,0,0,0-.52.11,1.42,1.42,0,0,0-.44.31,1.54,1.54,0,0,0-.32.49A2.66,2.66,0,0,0,288.21,371Z" style="fill:#4d4d4d"/><path d="M294.39,373.23a.48.48,0,0,0,0,.2.44.44,0,0,0,.12.15.54.54,0,0,0,.23.1,1.18,1.18,0,0,0,.34,0l1.57,0a2.46,2.46,0,0,1,.71.11,1.36,1.36,0,0,1,.51.26,1,1,0,0,1,.29.39,1.27,1.27,0,0,1,.1.52,1.72,1.72,0,0,1-.18.78,1.67,1.67,0,0,1-.52.61,2.52,2.52,0,0,1-.89.41,4.6,4.6,0,0,1-1.23.15,4.37,4.37,0,0,1-1-.11,2.56,2.56,0,0,1-.75-.31,1.56,1.56,0,0,1-.47-.49,1.37,1.37,0,0,1-.16-.63,1.46,1.46,0,0,1,.07-.39,1.31,1.31,0,0,1,.21-.36,2.27,2.27,0,0,1,.31-.31,2,2,0,0,1,.37-.22v-.05a.94.94,0,0,1-.18-.12.57.57,0,0,1-.15-.16,1,1,0,0,1-.1-.21.86.86,0,0,1,0-.24.75.75,0,0,1,.05-.26.9.9,0,0,1,.12-.24,1.29,1.29,0,0,1,.21-.19.82.82,0,0,1,.26-.14v0a1.64,1.64,0,0,1-.37-.26,1.2,1.2,0,0,1-.28-.35,1.7,1.7,0,0,1-.18-.46,1.88,1.88,0,0,1-.07-.55,2.42,2.42,0,0,1,.16-.91,1.71,1.71,0,0,1,.46-.69,2,2,0,0,1,.74-.43,3,3,0,0,1,1-.15h.23l.25,0,.23,0,.19,0h1.8v.69h-1.1v0a1.19,1.19,0,0,1,.23.22,1.75,1.75,0,0,1,.18.29,1.9,1.9,0,0,1,.12.36,1.72,1.72,0,0,1,0,.39,2.24,2.24,0,0,1-.16.89,1.74,1.74,0,0,1-.47.63,2.23,2.23,0,0,1-.77.39,3.48,3.48,0,0,1-1,.13h-.35l-.16,0-.15,0a.52.52,0,0,0-.15.07l-.12.11a.35.35,0,0,0-.08.13A.4.4,0,0,0,294.39,373.23Zm-.46,2.09a.77.77,0,0,0,.11.39,1,1,0,0,0,.32.3,2,2,0,0,0,.51.19,3.54,3.54,0,0,0,.69.06,4.37,4.37,0,0,0,.87-.07,1.9,1.9,0,0,0,.6-.21,1,1,0,0,0,.35-.32.76.76,0,0,0,.11-.42.77.77,0,0,0,0-.27.53.53,0,0,0-.16-.2,1.22,1.22,0,0,0-.28-.13,2.34,2.34,0,0,0-.43-.06l-2-.09a1,1,0,0,0-.28.14.7.7,0,0,0-.2.18.58.58,0,0,0-.13.23A.86.86,0,0,0,293.93,375.32Zm1.61-3.16a2.28,2.28,0,0,0,.62-.08,1.07,1.07,0,0,0,.43-.24,1.12,1.12,0,0,0,.26-.44,2.38,2.38,0,0,0,.08-.64,1.7,1.7,0,0,0-.09-.57,1.11,1.11,0,0,0-.26-.4,1.27,1.27,0,0,0-.42-.25,1.94,1.94,0,0,0-.56-.08,2,2,0,0,0-.57.08,1.18,1.18,0,0,0-.43.26,1.12,1.12,0,0,0-.27.43,1.8,1.8,0,0,0-.09.6,1.65,1.65,0,0,0,.1.62.92.92,0,0,0,.27.41,1.09,1.09,0,0,0,.41.23A1.68,1.68,0,0,0,295.54,372.16Z" style="fill:#4d4d4d"/><path d="M299.5,371.73a4.37,4.37,0,0,1,.18-1.31,2.69,2.69,0,0,1,.53-1,2.13,2.13,0,0,1,.79-.58,2.38,2.38,0,0,1,.95-.2,2.83,2.83,0,0,1,.95.15,1.84,1.84,0,0,1,.7.45,2,2,0,0,1,.44.74,3.11,3.11,0,0,1,.15,1v.37a1.09,1.09,0,0,1,0,.18c0,.06,0,.12,0,.17h-3.76a3,3,0,0,0,.14,1,1.66,1.66,0,0,0,.39.66,1.49,1.49,0,0,0,.6.39,2,2,0,0,0,.76.13,3.64,3.64,0,0,0,.48,0l.45-.06a3.45,3.45,0,0,0,.43-.12,3.75,3.75,0,0,0,.43-.16v.82a3.83,3.83,0,0,1-.45.18l-.44.11a3.54,3.54,0,0,1-.47.07,4.63,4.63,0,0,1-.54,0,3.23,3.23,0,0,1-1.11-.18,2.12,2.12,0,0,1-.85-.55,2.37,2.37,0,0,1-.55-.93A4.48,4.48,0,0,1,299.5,371.73Zm.95-.71h2.76a2.33,2.33,0,0,0-.09-.68,1.24,1.24,0,0,0-.25-.5,1.12,1.12,0,0,0-.41-.3,1.64,1.64,0,0,0-.56-.09,1.13,1.13,0,0,0-.52.11,1.42,1.42,0,0,0-.44.31,1.54,1.54,0,0,0-.32.49A2.66,2.66,0,0,0,300.45,371Z" style="fill:#4d4d4d"/><path d="M309.53,374.66V370.8a1.6,1.6,0,0,0-.08-.51,1,1,0,0,0-.26-.39,1.13,1.13,0,0,0-.41-.25,1.6,1.6,0,0,0-.56-.09h-.37l-.34.06a2,2,0,0,0-.33.09,2.4,2.4,0,0,0-.36.14v4.8h-.91v-5.84l.87-.07v.4a3,3,0,0,1,.4-.2,2.84,2.84,0,0,1,.38-.13,2.24,2.24,0,0,1,.39-.08,3,3,0,0,1,.44,0,2.67,2.67,0,0,1,.88.13,1.7,1.7,0,0,1,.64.38,1.58,1.58,0,0,1,.4.63,2.45,2.45,0,0,1,.13.85v4Z" style="fill:#4d4d4d"/><path d="M286.92,381.35a2.1,2.1,0,1,1,2.1-2.1A2.11,2.11,0,0,1,286.92,381.35Zm0-3.7a1.6,1.6,0,1,0,1.6,1.6A1.6,1.6,0,0,0,286.92,377.65Z" style="fill:#8b8f9e"/><path d="M300.11,281.52l2.48,8.53h-1.95l-.47-1.83h-2.88l-.47,1.83h-1.76l2.5-8.53Zm-.29,5.36-1.05-3.95h-.09l-1.06,3.95Z" style="fill:#4d4d4d"/><path d="M307.57,283.61l-.11,1.53a3,3,0,0,0-.36-.08l-.36,0a2.29,2.29,0,0,0-.62.1,2.74,2.74,0,0,0-.63.33v4.58h-1.6v-6.41l1.59-.06v.74a2.12,2.12,0,0,1,.64-.61,1.28,1.28,0,0,1,.69-.19l.41,0Z" style="fill:#4d4d4d"/><path d="M312.55,290.05v-3.89a1.2,1.2,0,0,0-.29-.9,1.17,1.17,0,0,0-.83-.27,3.51,3.51,0,0,0-.59.05,3.44,3.44,0,0,0-.58.16v4.85h-1.6v-6.41l1.55-.06v.48a2.86,2.86,0,0,1,.82-.41,3,3,0,0,1,.88-.13,2.26,2.26,0,0,1,1.64.59,2.31,2.31,0,0,1,.6,1.71v4.23Z" style="fill:#4d4d4d"/><path d="M320,290.05v-3.89a1.2,1.2,0,0,0-.29-.9,1.17,1.17,0,0,0-.83-.27,3.64,3.64,0,0,0-.6.05,2.74,2.74,0,0,0-.57.16v4.85h-1.6v-9l1.6-.08V284a3.55,3.55,0,0,1,.82-.39,2.82,2.82,0,0,1,.83-.12,2.26,2.26,0,0,1,1.64.59,2.31,2.31,0,0,1,.6,1.71v4.23Z" style="fill:#4d4d4d"/><path d="M323.12,286.84a3.36,3.36,0,0,1,.86-2.5,2.86,2.86,0,0,1,2.09-.85,2.53,2.53,0,0,1,1.88.7,2.58,2.58,0,0,1,.7,1.93c0,.22,0,.44,0,.65s0,.39,0,.52h-4a1.79,1.79,0,0,0,.62,1.14,2.2,2.2,0,0,0,1.34.36,5.39,5.39,0,0,0,1-.07,6.78,6.78,0,0,0,.89-.22v1.3a7.46,7.46,0,0,1-1,.24,5.67,5.67,0,0,1-1.1.09,3.41,3.41,0,0,1-2.39-.81A3.19,3.19,0,0,1,323.12,286.84Zm1.53-.69h2.47a1.65,1.65,0,0,0-.32-1,1,1,0,0,0-.85-.4,1.13,1.13,0,0,0-.85.37A1.79,1.79,0,0,0,324.65,286.15Z" style="fill:#4d4d4d"/><path d="M337.94,290.05v-3.86a1.25,1.25,0,0,0-.29-.92,1.15,1.15,0,0,0-.82-.28,4.32,4.32,0,0,0-.56,0,3.05,3.05,0,0,0-.56.17v4.85h-1.6v-3.86a1.2,1.2,0,0,0-.29-.92A1.09,1.09,0,0,0,333,285a2.94,2.94,0,0,0-.57.05,3.2,3.2,0,0,0-.55.16v4.85h-1.6v-6.41l1.55-.06v.48a3.48,3.48,0,0,1,.82-.41,2.94,2.94,0,0,1,.87-.13,2.45,2.45,0,0,1,1,.19,2,2,0,0,1,.71.53,3.71,3.71,0,0,1,1-.53,3.14,3.14,0,0,1,1.08-.19,2.19,2.19,0,0,1,1.64.6,2.36,2.36,0,0,1,.59,1.72v4.21Z" style="fill:#4d4d4d"/><path d="M317.75,296.93a2.1,2.1,0,1,1,2.09-2.1A2.1,2.1,0,0,1,317.75,296.93Zm0-3.69a1.6,1.6,0,1,0,1.59,1.59A1.6,1.6,0,0,0,317.75,293.24Z" style="fill:#8b8f9e"/></svg>