<svg xmlns="http://www.w3.org/2000/svg" viewBox="0 0 621 734"><path d="M362.74,114.85l2.18,1.41,2.49-.27,6.82-6.31L376,109l9.24,3.73,1.11,3.12-.2,2.49L385,120.26l-9.24-1.88-.37,1.68,8.3,2-.57,2.42-4.3-.8-.54,1.41,7,1.68,3.63-.44,4,1.08.37-1.78-4.3-.81-.84-1,2.25-8.54,10.41,3.29,11.76,11.22-.27,4.2-4.2,11.83-.57,12.46,3,3,4.74,8.1-1.45,2.32,1.92.8.7,1.62-.7,9.33,3,9.07-.17,4.27,3,13.24L422.7,212h3.36l9.68,8.6,2.25,2.92,2.65.37v1.51l-2,.44-1.18,4.26,5.54,1.78,1.45,2.05,1.81-.27,6.49,2.39,1.74,1.34,2.93-.1,2.82.88,8.46,4.09,2.82.64,3.67,3.36,3.76,2.22,8.7,3.36,6.95-.27,3.4,1.14,1.27,1.41,15.72-.37,2.22-3.19,6-1.14,2-2.22h1.44l.1,2.32-1.44.44-3.22,4.33L519,256.68l-1.11,7.89.94,6.28-4.26,11.79.27,3.36,1.91,1,.27,2.48,1.54,1.78,3.83,1.85,1.35,1.58,2.11.27,1,1.84,6.85.27,2.49-.87.06,1.41.64.17,8.33.37,5.41,4,6.28,1.68,3.66-1.42,4.94,3.73,6.28,1.15,1.45,1.24,9.61,2.38.84.81,1-.87-.74-2.05,1.58-3.9,1.82,12.5-.2,4,2.21,6.72.71,15.86-.81,2.65-3.36,3.9-.84,2.22,9.78,7.15.17,2.05-8.3,3.73-4.4.17-5.68,10.78-.17,2.22-1.37,2.75-.21,8.5-3.35,6.18-1.85,1.24,2.11,14.75,9.58,7.06-1.11,29.39L587.17,507l2.72,7-4.3,5.37-13.17,46.06-.8,5.21-40.78,67.62L522,649.54l-1.18,2.55,2.66,9.91h0l-10.68.54.47-5,1.34-4.13-.57-.34-2.18,1.25-1.45-.44-2.08-3-1.38-.54-7.86-11.49-2,.17-1.65-6.25-12.66-1.31,15.08-36.64-11.22-3-4.5-4.67-.64.16L454,545.7l-15.15-20.86-25.3-25.46-30.3-34.57-8.4-7.86-10.51-12.09-22.84-23.48-2.66-3.8-4.2-2.82-22.07-1.14-9.13,2.48-22,10-.1-6.08-2.29-1.14-1.21-4.17-2.35-1.84L271.94,403l-2.39-.88-2.65-3.52-6.85-6h-4.4L254,386.17v-3.36l-2.35-4-1.28-.17-6.75,2.93-3.83-10.72-7.86-13.71-2-.1.2-1.78-3.56-6.92-3.73-.17-14.41-6.28L204,343.07l-4.77-.1-9,2.93-9,1.78-.3,3.09-4.67,4.5-3.76,1-.57,1.08-7.33,5-5.2,2.22-.91,1.78-.74,6.82-2.39,2.48-2.08.71-3.63,5.91-3.29,3.26-.91,6-8.12,21.57-1.21,11.32-3.93,1.24-6.76,17.74L110.86,438h0l-12.76-5.1L95,427.93l-3.9-3.8L83.32,420l-14.68.6-17.5-2.65L44.45,412,35,400.15l.84-22.37,1.47-9.31,6.82-12.56.84-2.82,3.5-3.36.74-4.71L50.73,344l3.2-.37,1.91-3,3.46-2.83,2.49-4.16.8-3.29,1.72-1.95.73-4-2.28-3.09L61.92,317l-4.37-3.46-1.47-5.57,9.2-1.51.2-4.34-.74-2.48,2.39-1.95.33-1.35-1.54-2.21,3.22-1.25.91-1.84-.27-2.49,2.29-2,1.37-2.82,1-.1,1.38,1.78L77.1,284h1.48l.27-3.09L77,275.66,78,265.44l3.93-2.31L86,264.37l.81-.64.63-3.73,1.58-1.85.27-3.09L91,252.41l4.63-1.68,3.13-3.63L97.36,245l-5-1.15-.21-.8L95,218.45l-9.75-4.27-8.83-2.12-6.22,4.37-3.72.44L64.1,214l-1.47-5.61-2-3-2.28-1.24-17.54-4.81L37,196.14l-1.82-2.85-2.72-8L32,174l12.4-18.07h0l1.91-1.07,2.76-.27.91.87-1,1.14.27,1.35,2.11.1,20.19-6,5.17-.37,4.47,1.35,17.44,9.77,2.65,1.78,4.47,6.69h.8l7.7-4.81,6-5.44,16.16-7.39,15-5.78,22.34-3.73,66.08-7.55L255.88,132l9.41-3.73,8.09-4.47,15-6,25.12-8.2,23.92-3h5.78L356.63,111l6.11,3.83ZM158.93,58.55l2.49.43-.27,2.22-7.22-1-5.68.37-.74-1.41.94-1.52,3-.26,7.49,1.14Zm94.9-5.18H257l.57.64-.27,1-1.81.8.43,1.78-.57.64L248,55.52l-1.21-1.88.47-1.41,3.56-.43,3,1.57Zm15.79-15.18.27,1.08-.64.7-4.84-1.61-2.65.64-.3,1.88,3.12,2.69-.17,1.94-10.88-5.17-2.18-.44-6.42,1.25-1.28-1.68.21-1.41L247,34.29l3.39-1,11.49,1.24ZM204.18,36l4.84.37L212.78,38l9.11,7.6-.1,1.24-1.82.27-6.85-2.22-2.12.37-2.75-3.39-.64.1L206.5,43.5l1,3.56-1,1.88-5.31.1-2.65-1-2.86,2,2,2.32-.37,1.94L194.71,56,190,54.65l-2.38-1.95-1.18-7.05-6.28-4.47L178,37.89l-.34-6.52,2.92-8.46,2,.27,2.28,7.76L204.18,36Z" style="fill:#e5e5e5"/><rect width="16" height="16" style="fill:none"/><path d="M222.7,318v-1.38h2.88v4.18c-.43.08-.85.15-1.27.19s-.86,0-1.32,0a4.53,4.53,0,0,1-3.11-1,3.84,3.84,0,0,1-1.18-3.06,4.37,4.37,0,0,1,1.32-3.47,5,5,0,0,1,3.34-1.15c.39,0,.73,0,1,0a9.06,9.06,0,0,1,.91.13l-.11,1.43c-.36-.05-.68-.08-1-.1s-.59,0-.92,0a2.84,2.84,0,0,0-2.06.76,3,3,0,0,0-.77,2.23,2.87,2.87,0,0,0,.75,2.15,2.53,2.53,0,0,0,1.82.73l.46,0,.45,0V318Z" style="fill:#4d4d4d"/><path d="M231.17,314.51l-.11,1.52-.36-.07a2.12,2.12,0,0,0-.37,0,2.09,2.09,0,0,0-1.24.43v4.57h-1.6v-6.41l1.58-.06v.74a2.14,2.14,0,0,1,.65-.61,1.37,1.37,0,0,1,.69-.18,2.49,2.49,0,0,1,.4,0A1.44,1.44,0,0,1,231.17,314.51Z" style="fill:#4d4d4d"/><path d="M238.21,317.6a3.31,3.31,0,0,1-1,2.52,3.17,3.17,0,0,1-2.28.94,3.08,3.08,0,0,1-2.2-.81,3.12,3.12,0,0,1-.87-2.4,3.36,3.36,0,0,1,1-2.53,3.16,3.16,0,0,1,2.27-.94,3.07,3.07,0,0,1,2.21.82A3.17,3.17,0,0,1,238.21,317.6Zm-1.62,0a2,2,0,0,0-.43-1.4,1.48,1.48,0,0,0-1.11-.46,1.37,1.37,0,0,0-1.08.52,2.2,2.2,0,0,0-.45,1.5,2,2,0,0,0,.42,1.39,1.43,1.43,0,0,0,1.11.47,1.41,1.41,0,0,0,1.09-.52A2.24,2.24,0,0,0,236.59,317.64Z" style="fill:#4d4d4d"/><path d="M243.76,320.94v-3.88a1.21,1.21,0,0,0-.28-.91,1.22,1.22,0,0,0-.84-.26,3.45,3.45,0,0,0-.58,0,4.86,4.86,0,0,0-.59.16v4.85h-1.59v-6.41l1.54-.06V315a3,3,0,0,1,.82-.41,3.09,3.09,0,0,1,.89-.12,2.19,2.19,0,0,1,1.63.59,2.28,2.28,0,0,1,.6,1.71v4.22Z" style="fill:#4d4d4d"/><path d="M247.15,312.74a.92.92,0,0,1,.25-.64.85.85,0,0,1,.68-.27.9.9,0,0,1,.68.26,1,1,0,0,1,0,1.27.86.86,0,0,1-.68.26.88.88,0,0,1-.68-.25A.85.85,0,0,1,247.15,312.74Zm1.73,1.73v6.47h-1.6v-6.41Z" style="fill:#4d4d4d"/><path d="M254.8,320.94v-3.88a1.21,1.21,0,0,0-.29-.91,1.2,1.2,0,0,0-.83-.26,3.37,3.37,0,0,0-.58,0,4.42,4.42,0,0,0-.59.16v4.85h-1.6v-6.41l1.55-.06V315a3,3,0,0,1,.82-.41,3.07,3.07,0,0,1,.88-.12,2.22,2.22,0,0,1,1.64.59,2.28,2.28,0,0,1,.6,1.71v4.22Z" style="fill:#4d4d4d"/><path d="M259.45,319.21a.39.39,0,0,0,.19.34,1.33,1.33,0,0,0,.66.12h1.49a2.56,2.56,0,0,1,1.59.42,1.42,1.42,0,0,1,.49,1.15,2,2,0,0,1-.82,1.59,4.19,4.19,0,0,1-2.6.65,3.82,3.82,0,0,1-2.08-.45,1.36,1.36,0,0,1-.41-2,1.65,1.65,0,0,1,.76-.55v0a.86.86,0,0,1-.41-.33,1,1,0,0,1-.16-.56.92.92,0,0,1,.21-.58,1.37,1.37,0,0,1,.57-.42v0a1.74,1.74,0,0,1-.73-.64,1.8,1.8,0,0,1-.28-1,2.2,2.2,0,0,1,.76-1.79,3,3,0,0,1,2-.63,2.89,2.89,0,0,1,.52,0,3.86,3.86,0,0,1,.49.1h2.11v1h-1v0a1.26,1.26,0,0,1,.38.43,1.4,1.4,0,0,1,.18.74,1.86,1.86,0,0,1-.72,1.57,3.31,3.31,0,0,1-2.07.56l-.42,0-.41-.08a.42.42,0,0,0-.19.16A.47.47,0,0,0,259.45,319.21Zm-.34,2.31a.68.68,0,0,0,.37.6,2.12,2.12,0,0,0,1.1.23,3.19,3.19,0,0,0,1.45-.24.7.7,0,0,0,.43-.59.52.52,0,0,0-.21-.43,1.12,1.12,0,0,0-.64-.16l-2.17-.06a.81.81,0,0,0-.24.28A.75.75,0,0,0,259.11,321.52Zm1.53-3.62a1.28,1.28,0,0,0,.91-.3,1.23,1.23,0,0,0,.32-.93,1.11,1.11,0,0,0-.3-.85,1.49,1.49,0,0,0-1.81,0,1.17,1.17,0,0,0-.35.93,1.08,1.08,0,0,0,.32.86A1.32,1.32,0,0,0,260.64,317.9Z" style="fill:#4d4d4d"/><path d="M264.85,317.73a3.37,3.37,0,0,1,.86-2.49,2.83,2.83,0,0,1,2.09-.86,2.51,2.51,0,0,1,1.88.7,2.61,2.61,0,0,1,.71,1.94c0,.21,0,.43,0,.64s0,.39,0,.53h-3.95a1.73,1.73,0,0,0,.63,1.13,2.17,2.17,0,0,0,1.33.36,5.58,5.58,0,0,0,1-.07c.27-.05.57-.12.88-.21v1.3q-.53.15-1,.24a6.67,6.67,0,0,1-1.09.08,3.42,3.42,0,0,1-2.4-.81A3.17,3.17,0,0,1,264.85,317.73Zm1.53-.69h2.47a1.59,1.59,0,0,0-.32-1,1,1,0,0,0-.85-.4,1.13,1.13,0,0,0-.85.37A1.85,1.85,0,0,0,266.38,317Z" style="fill:#4d4d4d"/><path d="M275.91,320.94v-3.88a1.21,1.21,0,0,0-.29-.91,1.2,1.2,0,0,0-.83-.26,3.45,3.45,0,0,0-.58,0,4.42,4.42,0,0,0-.59.16v4.85H272v-6.41l1.55-.06V315a3,3,0,0,1,.82-.41,3.07,3.07,0,0,1,.88-.12,2.2,2.2,0,0,1,1.64.59,2.28,2.28,0,0,1,.6,1.71v4.22Z" style="fill:#4d4d4d"/><path d="M140.35,289.1v-.84h4.88v.87l-4,6.12v0h4.06v.84h-5.13v-.86l4-6.13v0Z" style="fill:#4d4d4d"/><path d="M147.82,290.23v3.88a1.82,1.82,0,0,0,.08.55,1,1,0,0,0,.25.39,1,1,0,0,0,.4.24,1.55,1.55,0,0,0,.55.09l.39,0,.31-.05.31-.09.37-.14V290.3l.91-.07v5.9h-.88v-.36a2.81,2.81,0,0,1-.38.2,2.6,2.6,0,0,1-.36.13l-.39.09a3,3,0,0,1-.43,0,2.69,2.69,0,0,1-.89-.13,1.55,1.55,0,0,1-.63-.38,1.68,1.68,0,0,1-.39-.63,2.57,2.57,0,0,1-.13-.87V290.3Z" style="fill:#4d4d4d"/><path d="M153.42,288.35a1,1,0,0,1,0-.25.52.52,0,0,1,.12-.19,1.18,1.18,0,0,1,.19-.11.74.74,0,0,1,.48,0,.78.78,0,0,1,.18.11.42.42,0,0,1,.11.18.71.71,0,0,1,.05.26.69.69,0,0,1-.05.24.42.42,0,0,1-.11.18.78.78,0,0,1-.18.11.74.74,0,0,1-.48,0,1.18,1.18,0,0,1-.19-.11.57.57,0,0,1-.12-.18A1,1,0,0,1,153.42,288.35Zm1.05,1.88v5.9h-.92V290.3Z" style="fill:#4d4d4d"/><path d="M161.13,287.75v8.38h-.89v-.38a2.79,2.79,0,0,1-.33.19,2.39,2.39,0,0,1-.37.15,2.74,2.74,0,0,1-.39.09l-.41,0a2.64,2.64,0,0,1-1-.19,2.13,2.13,0,0,1-.78-.55,2.63,2.63,0,0,1-.52-.9,3.82,3.82,0,0,1-.18-1.22,4,4,0,0,1,.21-1.34,2.81,2.81,0,0,1,.61-1,2.7,2.7,0,0,1,.94-.62,3.27,3.27,0,0,1,1.19-.21h.29l.26,0,.23,0a.65.65,0,0,1,.21.06v-2.51Zm-2,3.25a2,2,0,0,0-.8.15,1.68,1.68,0,0,0-.61.44,1.8,1.8,0,0,0-.39.72,3.27,3.27,0,0,0,0,1.86,1.85,1.85,0,0,0,.35.67,1.5,1.5,0,0,0,.55.39,1.78,1.78,0,0,0,.7.14,2,2,0,0,0,.36,0,3,3,0,0,0,.32-.06,1.48,1.48,0,0,0,.29-.12l.3-.16v-3.91l-.27,0-.25,0-.27,0Z" style="fill:#4d4d4d"/><path d="M166.91,296.13v-3.85a1.6,1.6,0,0,0-.08-.51.9.9,0,0,0-.26-.39,1.15,1.15,0,0,0-.41-.26,1.6,1.6,0,0,0-.56-.09l-.38,0a1.91,1.91,0,0,0-.33.06l-.33.09-.36.13v4.8h-.91v-8.31l.91-.07v2.85a3.39,3.39,0,0,1,.39-.18,1.82,1.82,0,0,1,.37-.13,2.32,2.32,0,0,1,.38-.07,3,3,0,0,1,.43,0,2.66,2.66,0,0,1,.88.14,1.58,1.58,0,0,1,.64.38,1.62,1.62,0,0,1,.4.62,2.55,2.55,0,0,1,.13.86v3.94Z" style="fill:#4d4d4d"/><path d="M174.84,293.13a3.71,3.71,0,0,1-.21,1.29,3,3,0,0,1-.6,1,2.4,2.4,0,0,1-.87.62,2.73,2.73,0,0,1-1,.21,3,3,0,0,1-1.07-.18,2.3,2.3,0,0,1-.81-.57,2.6,2.6,0,0,1-.51-.93,4.21,4.21,0,0,1-.18-1.28,3.85,3.85,0,0,1,.21-1.3,3,3,0,0,1,.6-1,2.67,2.67,0,0,1,.87-.62,2.61,2.61,0,0,1,1-.21,2.83,2.83,0,0,1,1.07.19,2.35,2.35,0,0,1,.82.56,2.6,2.6,0,0,1,.51.93A4.28,4.28,0,0,1,174.84,293.13Zm-1,0a3.52,3.52,0,0,0-.11-1,1.86,1.86,0,0,0-.34-.69,1.24,1.24,0,0,0-.54-.42,1.81,1.81,0,0,0-.72-.14,1.58,1.58,0,0,0-.69.15,1.63,1.63,0,0,0-.54.45,2.18,2.18,0,0,0-.34.72,3.48,3.48,0,0,0-.12,1,3.52,3.52,0,0,0,.11,1,1.86,1.86,0,0,0,.34.69,1.24,1.24,0,0,0,.54.42,1.81,1.81,0,0,0,.72.14,1.46,1.46,0,0,0,.69-.16,1.63,1.63,0,0,0,.54-.45,2.18,2.18,0,0,0,.34-.72A3.4,3.4,0,0,0,173.89,293.17Z" style="fill:#4d4d4d"/><path d="M179.47,290.28l-.1.9-.18,0a.51.51,0,0,0-.17,0l-.15,0h-.18a.9.9,0,0,0-.28,0,1,1,0,0,0-.27.11,1.41,1.41,0,0,0-.27.18l-.32.28v4.44h-.91V290.3l.9-.07v.68l.33-.33a1.91,1.91,0,0,1,.3-.22,1.17,1.17,0,0,1,.31-.12,1.12,1.12,0,0,1,.31-.05h.34a.9.9,0,0,1,.16,0Z" style="fill:#4d4d4d"/><path d="M184.48,296.13v-3.85a1.36,1.36,0,0,0-.09-.51.88.88,0,0,0-.25-.39,1.15,1.15,0,0,0-.41-.26,1.64,1.64,0,0,0-.56-.09l-.37,0a2,2,0,0,0-.34.06l-.33.09a2.6,2.6,0,0,0-.36.13v4.8h-.92V290.3l.88-.07v.4a3,3,0,0,1,.4-.2,2.72,2.72,0,0,1,.37-.13,1.8,1.8,0,0,1,.39-.08,3.19,3.19,0,0,1,.45,0,2.56,2.56,0,0,1,.87.14,1.56,1.56,0,0,1,.65.38,1.62,1.62,0,0,1,.4.62,2.55,2.55,0,0,1,.13.86v3.94Z" style="fill:#4d4d4d"/><path d="M163.06,302.83a2.1,2.1,0,1,1,2.1-2.1A2.11,2.11,0,0,1,163.06,302.83Zm0-3.7a1.6,1.6,0,1,0,1.6,1.6A1.6,1.6,0,0,0,163.06,299.13Z" style="fill:#8b8f9e"/><path d="M253.17,248.13H251v-7.87h2a4.36,4.36,0,0,1,1.15.14,2.19,2.19,0,0,1,.84.4,1.63,1.63,0,0,1,.5.61,2.08,2.08,0,0,1,.16.8,2.88,2.88,0,0,1-.07.63,1.69,1.69,0,0,1-.21.49,1.75,1.75,0,0,1-.35.37,2,2,0,0,1-.46.26v0a2.22,2.22,0,0,1,.61.24,1.84,1.84,0,0,1,.44.39,1.66,1.66,0,0,1,.27.53,2.15,2.15,0,0,1,.09.64,2.55,2.55,0,0,1-.18,1,2,2,0,0,1-.53.74,2.53,2.53,0,0,1-.88.46A4,4,0,0,1,253.17,248.13Zm-.26-7.06h-1v2.61h1a3.56,3.56,0,0,0,.79-.08,1.5,1.5,0,0,0,.54-.25,1,1,0,0,0,.31-.43,1.66,1.66,0,0,0,.1-.61,1.25,1.25,0,0,0-.1-.53.92.92,0,0,0-.31-.39,1.5,1.5,0,0,0-.54-.24A3.05,3.05,0,0,0,252.91,241.07Zm0,3.42h-1v2.84h1.23a2.71,2.71,0,0,0,.79-.1,1.65,1.65,0,0,0,.58-.28,1.35,1.35,0,0,0,.35-.47,1.48,1.48,0,0,0,.12-.61,1.57,1.57,0,0,0-.11-.6,1,1,0,0,0-.35-.43,1.77,1.77,0,0,0-.65-.26A4.61,4.61,0,0,0,252.89,244.49Z" style="fill:#4d4d4d"/><path d="M257.53,245.21a4.35,4.35,0,0,1,.19-1.31,2.59,2.59,0,0,1,.52-1,2.31,2.31,0,0,1,1.75-.78,2.73,2.73,0,0,1,.94.15,1.87,1.87,0,0,1,.71.45,2,2,0,0,1,.44.74,3.11,3.11,0,0,1,.15,1v.37c0,.06,0,.12,0,.18a1,1,0,0,1,0,.17h-3.75a2.72,2.72,0,0,0,.14,1,1.63,1.63,0,0,0,.39.67,1.39,1.39,0,0,0,.59.39,2.34,2.34,0,0,0,.77.13,3.64,3.64,0,0,0,.48,0c.15,0,.3,0,.44-.06a3.6,3.6,0,0,0,.44-.12l.43-.16v.82l-.46.18-.44.11a3.11,3.11,0,0,1-.47.07,4.33,4.33,0,0,1-.53,0,3.23,3.23,0,0,1-1.11-.18,2.27,2.27,0,0,1-.86-.55,2.4,2.4,0,0,1-.54-.94A4.39,4.39,0,0,1,257.53,245.21Zm1-.71h2.76a2.84,2.84,0,0,0-.08-.69,1.33,1.33,0,0,0-.25-.49,1,1,0,0,0-.42-.3,1.6,1.6,0,0,0-.56-.09,1.25,1.25,0,0,0-.51.1,1.5,1.5,0,0,0-.44.32,1.54,1.54,0,0,0-.32.49A2.29,2.29,0,0,0,258.48,244.5Z" style="fill:#4d4d4d"/><path d="M268.44,239.75v8.38h-.89v-.38a1.77,1.77,0,0,1-.33.19,1.94,1.94,0,0,1-.36.15,2.59,2.59,0,0,1-.4.09,2.73,2.73,0,0,1-.41,0,2.64,2.64,0,0,1-1-.19,2.13,2.13,0,0,1-.78-.55,2.46,2.46,0,0,1-.51-.9,3.55,3.55,0,0,1-.19-1.22,3.77,3.77,0,0,1,.22-1.34,2.68,2.68,0,0,1,.61-1,2.61,2.61,0,0,1,.94-.62,3.22,3.22,0,0,1,1.18-.21h.3l.26,0,.23.05a.65.65,0,0,1,.21.06v-2.51Zm-2,3.25a2.07,2.07,0,0,0-.8.15,1.76,1.76,0,0,0-.61.44,2.08,2.08,0,0,0-.39.72,3.12,3.12,0,0,0-.13.95,2.82,2.82,0,0,0,.13.91,1.85,1.85,0,0,0,.35.67,1.35,1.35,0,0,0,.55.39,1.75,1.75,0,0,0,.7.14,2,2,0,0,0,.36,0,3,3,0,0,0,.32-.06,1.78,1.78,0,0,0,.29-.12l.3-.16v-3.91l-.27,0-.26,0-.26,0Z" style="fill:#4d4d4d"/><path d="M271.43,242.23v3.88a1.82,1.82,0,0,0,.08.55,1,1,0,0,0,.25.39,1,1,0,0,0,.4.24,1.59,1.59,0,0,0,.55.09l.39,0,.32-.05.3-.09.37-.14V242.3l.92-.07v5.9h-.89v-.36a2.58,2.58,0,0,1-.74.33,2.23,2.23,0,0,1-.39.09,3,3,0,0,1-.43,0,2.59,2.59,0,0,1-.88-.13,1.52,1.52,0,0,1-.64-.38,1.68,1.68,0,0,1-.39-.63,2.57,2.57,0,0,1-.13-.87V242.3Z" style="fill:#4d4d4d"/><path d="M284.32,248.13v-3.84a1.72,1.72,0,0,0-.08-.52.92.92,0,0,0-.24-.39,1.11,1.11,0,0,0-.4-.26,1.59,1.59,0,0,0-.55-.09l-.38,0a1.65,1.65,0,0,0-.32.06l-.32.09-.38.13v4.8h-.91v-3.86a1.7,1.7,0,0,0-.07-.53.85.85,0,0,0-.23-.39.86.86,0,0,0-.39-.24,2,2,0,0,0-.58-.08l-.39,0-.33,0a1.81,1.81,0,0,0-.31.09l-.36.14v4.8h-.91V242.3l.87-.07v.4l.4-.21a2.84,2.84,0,0,1,.38-.13,2.32,2.32,0,0,1,.38-.07,2.81,2.81,0,0,1,.43,0,4.38,4.38,0,0,1,.52,0,2.12,2.12,0,0,1,.45.11,2.18,2.18,0,0,1,.37.2,1.81,1.81,0,0,1,.3.25l.5-.28a4.37,4.37,0,0,1,.46-.18,3.78,3.78,0,0,1,.46-.1,4.06,4.06,0,0,1,.51,0,2.66,2.66,0,0,1,.88.14,1.48,1.48,0,0,1,.63.38,1.72,1.72,0,0,1,.39.62,2.55,2.55,0,0,1,.13.86v3.94Z" style="fill:#4d4d4d"/><path d="M268.06,254.83a2.1,2.1,0,1,1,2.1-2.1A2.11,2.11,0,0,1,268.06,254.83Zm0-3.7a1.6,1.6,0,1,0,1.6,1.6A1.6,1.6,0,0,0,268.06,251.13Z" style="fill:#8b8f9e"/><path d="M378.31,291v-.89l.51.1.46.07.45,0,.47,0a2.58,2.58,0,0,0,.76-.11,1.75,1.75,0,0,0,.6-.28,1.17,1.17,0,0,0,.37-.43,1.33,1.33,0,0,0,.13-.57,1.45,1.45,0,0,0-.07-.44.87.87,0,0,0-.22-.35,1.48,1.48,0,0,0-.38-.3,5.34,5.34,0,0,0-.57-.25l-1-.33a2.7,2.7,0,0,1-.59-.29,2,2,0,0,1-.46-.4,2.1,2.1,0,0,1-.29-.53,1.91,1.91,0,0,1-.1-.64,2.12,2.12,0,0,1,.19-.91,2,2,0,0,1,.55-.71,2.59,2.59,0,0,1,.87-.47,3.56,3.56,0,0,1,1.12-.17h.44l.4,0,.38,0,.37.06-.1.86-.38-.07-.37-.05-.38,0h-.42a2.39,2.39,0,0,0-.73.1,1.6,1.6,0,0,0-.54.26,1.14,1.14,0,0,0-.34.39,1,1,0,0,0-.11.5,1.33,1.33,0,0,0,.06.42.8.8,0,0,0,.19.32,1.23,1.23,0,0,0,.33.26,2.16,2.16,0,0,0,.48.21l1,.34a2.84,2.84,0,0,1,.7.31,1.9,1.9,0,0,1,.49.44,1.7,1.7,0,0,1,.29.55,2.4,2.4,0,0,1,.09.69,2.25,2.25,0,0,1-.2,1,2.17,2.17,0,0,1-.58.76,2.65,2.65,0,0,1-.91.49,4,4,0,0,1-1.19.17l-.48,0-.45,0-.43,0Z" style="fill:#4d4d4d"/><path d="M384.74,283.35a.7.7,0,0,1,.05-.25.35.35,0,0,1,.12-.19.78.78,0,0,1,.18-.11.74.74,0,0,1,.48,0,.78.78,0,0,1,.18.11.57.57,0,0,1,.12.18.8.8,0,0,1,0,.5.57.57,0,0,1-.12.18.78.78,0,0,1-.18.11.74.74,0,0,1-.48,0,.78.78,0,0,1-.18-.11.36.36,0,0,1-.12-.18A.69.69,0,0,1,384.74,283.35Zm1.05,1.88v5.9h-.91V285.3Z" style="fill:#4d4d4d"/><path d="M392.45,282.75v8.38h-.89v-.38a1.77,1.77,0,0,1-.33.19,2.39,2.39,0,0,1-.37.15,2.46,2.46,0,0,1-.39.09,2.83,2.83,0,0,1-.41,0,2.64,2.64,0,0,1-1-.19,2.13,2.13,0,0,1-.78-.55,2.63,2.63,0,0,1-.52-.9,3.82,3.82,0,0,1-.18-1.22,4,4,0,0,1,.21-1.34,2.69,2.69,0,0,1,.62-1,2.58,2.58,0,0,1,.93-.62,3.27,3.27,0,0,1,1.19-.21h.29l.26,0,.24,0,.21.06v-2.51Zm-2,3.25a2,2,0,0,0-.8.15,1.68,1.68,0,0,0-.61.44,2.08,2.08,0,0,0-.39.72,3.52,3.52,0,0,0,0,1.86,1.87,1.87,0,0,0,.36.67,1.39,1.39,0,0,0,.54.39,1.78,1.78,0,0,0,.7.14,2,2,0,0,0,.36,0,2.61,2.61,0,0,0,.32-.06l.3-.12.3-.16v-3.91l-.27,0-.26,0-.27,0Z" style="fill:#4d4d4d"/><path d="M399.11,282.75v8.38h-.89v-.38a1.77,1.77,0,0,1-.33.19,2.39,2.39,0,0,1-.37.15,2.46,2.46,0,0,1-.39.09,2.83,2.83,0,0,1-.41,0,2.64,2.64,0,0,1-1-.19,2.13,2.13,0,0,1-.78-.55,2.63,2.63,0,0,1-.52-.9,3.82,3.82,0,0,1-.18-1.22,4,4,0,0,1,.21-1.34,2.69,2.69,0,0,1,.62-1,2.58,2.58,0,0,1,.93-.62,3.27,3.27,0,0,1,1.19-.21h.29l.26,0,.24,0,.21.06v-2.51Zm-2,3.25a2,2,0,0,0-.8.15,1.68,1.68,0,0,0-.61.44,2.08,2.08,0,0,0-.39.72,3.52,3.52,0,0,0,0,1.86,1.87,1.87,0,0,0,.36.67,1.39,1.39,0,0,0,.54.39,1.78,1.78,0,0,0,.7.14,2,2,0,0,0,.36,0,2.61,2.61,0,0,0,.32-.06l.3-.12.3-.16v-3.91l-.27,0-.26,0-.27,0Z" style="fill:#4d4d4d"/><path d="M400.91,288.21a4.37,4.37,0,0,1,.18-1.31,2.61,2.61,0,0,1,.53-1,2.13,2.13,0,0,1,.79-.58,2.22,2.22,0,0,1,.95-.2,2.79,2.79,0,0,1,.95.15,1.84,1.84,0,0,1,.7.45,2,2,0,0,1,.44.74,3.11,3.11,0,0,1,.15,1v.37a1.09,1.09,0,0,1,0,.18c0,.06,0,.11,0,.17h-3.76a3,3,0,0,0,.14.95,1.63,1.63,0,0,0,.39.67,1.49,1.49,0,0,0,.6.39,2.24,2.24,0,0,0,.76.13,3.64,3.64,0,0,0,.48,0l.45-.06a3.45,3.45,0,0,0,.43-.12l.43-.16v.82l-.45.18-.44.11a3.54,3.54,0,0,1-.47.07,4.5,4.5,0,0,1-.54,0,3.23,3.23,0,0,1-1.11-.18,2.23,2.23,0,0,1-.85-.55,2.41,2.41,0,0,1-.55-.94A4.41,4.41,0,0,1,400.91,288.21Zm.95-.71h2.76a2.4,2.4,0,0,0-.09-.69,1.2,1.2,0,0,0-.25-.49,1,1,0,0,0-.41-.3,1.64,1.64,0,0,0-.56-.09,1.27,1.27,0,0,0-.52.1,1.65,1.65,0,0,0-.44.32,1.54,1.54,0,0,0-.32.49A2.66,2.66,0,0,0,401.86,287.5Z" style="fill:#4d4d4d"/><path d="M412.18,288a3.71,3.71,0,0,1-.23,1.33,2.69,2.69,0,0,1-1.61,1.64,3.56,3.56,0,0,1-1.25.21h-.45l-.42,0-.44,0-.46-.07v-8.25l.91-.07v2.84a3.26,3.26,0,0,1,.38-.18,3.48,3.48,0,0,1,1.17-.22,2.59,2.59,0,0,1,1,.18,1.84,1.84,0,0,1,.76.53,2.34,2.34,0,0,1,.49.88A4.25,4.25,0,0,1,412.18,288Zm-.95.08a3.3,3.3,0,0,0-.12-.94,1.76,1.76,0,0,0-.34-.64,1.36,1.36,0,0,0-.54-.38,2.11,2.11,0,0,0-.73-.12l-.32,0a1.8,1.8,0,0,0-.32.06l-.31.09-.32.13v4l.26,0h.24l.23,0h.25a2.07,2.07,0,0,0,.8-.14,1.79,1.79,0,0,0,1.07-1.14A3.11,3.11,0,0,0,411.23,288.11Z" style="fill:#4d4d4d"/><path d="M414.8,285.23v3.88a1.55,1.55,0,0,0,.09.55,1,1,0,0,0,.24.39,1,1,0,0,0,.41.24,1.55,1.55,0,0,0,.55.09l.38,0,.32-.05.31-.09.37-.14V285.3l.91-.07v5.9h-.89v-.36a2.72,2.72,0,0,1-.37.2,2.32,2.32,0,0,1-.37.13,2.23,2.23,0,0,1-.39.09,2.9,2.9,0,0,1-.43,0,2.63,2.63,0,0,1-.88-.13,1.65,1.65,0,0,1-.64-.38,1.68,1.68,0,0,1-.39-.63,2.84,2.84,0,0,1-.13-.87V285.3Z" style="fill:#4d4d4d"/><path d="M423.37,285.28l-.11.9-.18,0a.45.45,0,0,0-.16,0l-.15,0h-.18a.9.9,0,0,0-.28,0,1,1,0,0,0-.27.11,1.86,1.86,0,0,0-.28.18c-.09.08-.2.17-.31.28v4.44h-.91V285.3l.9-.07v.68l.32-.33a2.58,2.58,0,0,1,.31-.22,1.17,1.17,0,0,1,.31-.12,1.06,1.06,0,0,1,.31-.05H423a.9.9,0,0,1,.16,0Z" style="fill:#4d4d4d"/><path d="M424.39,288.21a4.06,4.06,0,0,1,.19-1.31,2.59,2.59,0,0,1,.52-1,2.31,2.31,0,0,1,1.75-.78,2.77,2.77,0,0,1,.94.15,1.76,1.76,0,0,1,.7.45,1.83,1.83,0,0,1,.44.74,3.11,3.11,0,0,1,.15,1v.55c0,.06,0,.11,0,.17H425.3a3,3,0,0,0,.14.95,1.63,1.63,0,0,0,.39.67,1.49,1.49,0,0,0,.6.39,2.28,2.28,0,0,0,.76.13,3.91,3.91,0,0,0,.49,0c.15,0,.3,0,.44-.06a3,3,0,0,0,.43-.12L429,290v.82l-.46.18-.44.11a3.31,3.31,0,0,1-.47.07,4.33,4.33,0,0,1-.53,0A3.33,3.33,0,0,1,426,291a2.31,2.31,0,0,1-.85-.55,2.28,2.28,0,0,1-.54-.94A4.1,4.1,0,0,1,424.39,288.21Zm.95-.71h2.76a2.84,2.84,0,0,0-.08-.69,1.21,1.21,0,0,0-.26-.49,1,1,0,0,0-.41-.3,1.6,1.6,0,0,0-.56-.09,1.25,1.25,0,0,0-.51.1,1.5,1.5,0,0,0-.44.32,1.75,1.75,0,0,0-.33.49A2.66,2.66,0,0,0,425.34,287.5Z" style="fill:#4d4d4d"/><path d="M434.42,291.13v-3.85a1.37,1.37,0,0,0-.08-.51,1,1,0,0,0-.25-.39,1.11,1.11,0,0,0-.42-.26,1.59,1.59,0,0,0-.55-.09l-.38,0a1.91,1.91,0,0,0-.33.06,2.14,2.14,0,0,0-.34.09l-.36.13v4.8h-.91V285.3l.88-.07v.4a2.4,2.4,0,0,1,.39-.2,3.43,3.43,0,0,1,.38-.13,1.59,1.59,0,0,1,.39-.08,3,3,0,0,1,.44,0,2.66,2.66,0,0,1,.88.14,1.62,1.62,0,0,1,.65.38,1.6,1.6,0,0,1,.39.62,2.54,2.54,0,0,1,.14.86v3.94Z" style="fill:#4d4d4d"/><path d="M407.06,297.83a2.1,2.1,0,1,1,2.1-2.1A2.11,2.11,0,0,1,407.06,297.83Zm0-3.7a1.6,1.6,0,1,0,1.6,1.6A1.6,1.6,0,0,0,407.06,294.13Z" style="fill:#8b8f9e"/><path d="M321.67,370.13v-3.61h-3.61v3.61h-.94v-7.87h.94v3.42h3.61v-3.42h.94v7.87Z" style="fill:#4d4d4d"/><path d="M329.93,367.13a3.71,3.71,0,0,1-.21,1.29,2.89,2.89,0,0,1-.6,1,2.4,2.4,0,0,1-.87.62,2.73,2.73,0,0,1-1.05.21,3,3,0,0,1-1.07-.18,2.3,2.3,0,0,1-.81-.57,2.6,2.6,0,0,1-.51-.93,4.21,4.21,0,0,1-.18-1.28,3.85,3.85,0,0,1,.21-1.3,3,3,0,0,1,.6-1,2.67,2.67,0,0,1,.87-.62,2.61,2.61,0,0,1,1-.21,2.83,2.83,0,0,1,1.07.19,2.35,2.35,0,0,1,.82.56,2.6,2.6,0,0,1,.51.93A4.28,4.28,0,0,1,329.93,367.13Zm-.95,0a3.52,3.52,0,0,0-.11-1,1.72,1.72,0,0,0-.34-.69,1.24,1.24,0,0,0-.54-.42,1.81,1.81,0,0,0-.72-.14,1.51,1.51,0,0,0-.68.15,1.45,1.45,0,0,0-.54.45,2,2,0,0,0-.35.72,3.48,3.48,0,0,0-.12,1,3.52,3.52,0,0,0,.11,1,1.86,1.86,0,0,0,.34.69,1.24,1.24,0,0,0,.54.42,1.81,1.81,0,0,0,.72.14,1.46,1.46,0,0,0,.69-.16,1.63,1.63,0,0,0,.54-.45,2.18,2.18,0,0,0,.34-.72A3.4,3.4,0,0,0,329,367.17Z" style="fill:#4d4d4d"/><path d="M336.68,367.13a3.71,3.71,0,0,1-.22,1.29,2.87,2.87,0,0,1-.59,1,2.52,2.52,0,0,1-.88.62,2.66,2.66,0,0,1-1.05.21,3,3,0,0,1-1.06-.18,2.13,2.13,0,0,1-.81-.57,2.47,2.47,0,0,1-.52-.93,4.21,4.21,0,0,1-.18-1.28,3.62,3.62,0,0,1,.22-1.3,2.87,2.87,0,0,1,.59-1,2.55,2.55,0,0,1,1.92-.83,2.87,2.87,0,0,1,1.07.19,2.31,2.31,0,0,1,.81.56,2.62,2.62,0,0,1,.52.93A4.28,4.28,0,0,1,336.68,367.13Zm-.95,0a3.5,3.5,0,0,0-.12-1,1.71,1.71,0,0,0-.33-.69,1.37,1.37,0,0,0-.54-.42A1.86,1.86,0,0,0,334,365a1.54,1.54,0,0,0-.68.15,1.45,1.45,0,0,0-.54.45,2.2,2.2,0,0,0-.35.72,3.48,3.48,0,0,0-.12,1,4,4,0,0,0,.11,1,1.86,1.86,0,0,0,.34.69,1.37,1.37,0,0,0,.54.42,1.83,1.83,0,0,0,.73.14,1.52,1.52,0,0,0,1.22-.61,2.2,2.2,0,0,0,.35-.72A3.4,3.4,0,0,0,335.73,367.17Z" style="fill:#4d4d4d"/><path d="M339.2,368.71a.41.41,0,0,0,0,.19.48.48,0,0,0,.12.16.7.7,0,0,0,.23.1,1.18,1.18,0,0,0,.34,0l1.57.05a2.61,2.61,0,0,1,.72.1,1.58,1.58,0,0,1,.5.27,1,1,0,0,1,.29.39,1.27,1.27,0,0,1,.1.52,1.65,1.65,0,0,1-.18.77,1.62,1.62,0,0,1-.52.62,2.71,2.71,0,0,1-.89.41,4.62,4.62,0,0,1-1.23.14,4.4,4.4,0,0,1-1-.1,2.57,2.57,0,0,1-.75-.32,1.38,1.38,0,0,1-.47-.49,1.3,1.3,0,0,1-.16-.62,1.34,1.34,0,0,1,.07-.39,1.31,1.31,0,0,1,.21-.36,1.82,1.82,0,0,1,.31-.31,2,2,0,0,1,.37-.22v-.05l-.18-.12a.61.61,0,0,1-.15-.17,1.24,1.24,0,0,1-.1-.2.86.86,0,0,1,0-.24.75.75,0,0,1,.05-.26.77.77,0,0,1,.12-.24,2,2,0,0,1,.21-.2.79.79,0,0,1,.26-.13v0a1.64,1.64,0,0,1-.37-.26,1.35,1.35,0,0,1-.28-.35,1.7,1.7,0,0,1-.18-.46,1.93,1.93,0,0,1-.07-.55,2.38,2.38,0,0,1,.16-.91,1.71,1.71,0,0,1,.46-.69,2,2,0,0,1,.74-.43,3,3,0,0,1,1-.15h.24l.24,0,.23,0,.19,0h1.8V365h-1.1v0a1.19,1.19,0,0,1,.23.22,1.41,1.41,0,0,1,.18.29,1.9,1.9,0,0,1,.12.36,1.67,1.67,0,0,1,0,.39,2.16,2.16,0,0,1-.16.88,1.69,1.69,0,0,1-.47.64,2.23,2.23,0,0,1-.77.39,3.48,3.48,0,0,1-1,.13h-.18l-.17,0-.16,0-.15,0a.52.52,0,0,0-.15.07l-.12.11a.35.35,0,0,0-.08.13A.4.4,0,0,0,339.2,368.71Zm-.46,2.08a.71.71,0,0,0,.11.39.85.85,0,0,0,.32.3,1.7,1.7,0,0,0,.51.2,3.54,3.54,0,0,0,.69.06,4.37,4.37,0,0,0,.87-.07,1.9,1.9,0,0,0,.6-.21,1,1,0,0,0,.35-.32.78.78,0,0,0,.11-.42.77.77,0,0,0,0-.27.53.53,0,0,0-.16-.2.91.91,0,0,0-.28-.13,2.34,2.34,0,0,0-.43-.06l-2-.09a1.46,1.46,0,0,0-.28.13,1.2,1.2,0,0,0-.2.18.7.7,0,0,0-.13.24A.84.84,0,0,0,338.74,370.79Zm1.61-3.15a2.28,2.28,0,0,0,.62-.08,1.07,1.07,0,0,0,.43-.24,1.2,1.2,0,0,0,.26-.44,2.38,2.38,0,0,0,.08-.64,1.7,1.7,0,0,0-.09-.57,1,1,0,0,0-.26-.4A1.27,1.27,0,0,0,341,365a1.94,1.94,0,0,0-.56-.08,2,2,0,0,0-.57.08,1.18,1.18,0,0,0-.43.26,1.05,1.05,0,0,0-.27.43,1.8,1.8,0,0,0-.09.6,1.65,1.65,0,0,0,.1.62.92.92,0,0,0,.27.41,1.09,1.09,0,0,0,.41.23A2,2,0,0,0,340.35,367.64Z" style="fill:#4d4d4d"/><path d="M344.31,367.21a4.37,4.37,0,0,1,.18-1.31,2.61,2.61,0,0,1,.53-1,2.13,2.13,0,0,1,.79-.58,2.22,2.22,0,0,1,.95-.2,2.79,2.79,0,0,1,.95.15,1.84,1.84,0,0,1,.7.45,2,2,0,0,1,.44.74,3.11,3.11,0,0,1,.15,1v.37a1.09,1.09,0,0,1,0,.18c0,.06,0,.11,0,.17h-3.76a3,3,0,0,0,.14.95,1.63,1.63,0,0,0,.39.67,1.49,1.49,0,0,0,.6.39,2.28,2.28,0,0,0,.76.13,3.64,3.64,0,0,0,.48,0l.45-.06a3.45,3.45,0,0,0,.43-.12l.43-.16v.82l-.45.18-.44.11a3.54,3.54,0,0,1-.47.07,4.5,4.5,0,0,1-.54,0,3.23,3.23,0,0,1-1.11-.18,2.23,2.23,0,0,1-.85-.55,2.41,2.41,0,0,1-.55-.94A4.41,4.41,0,0,1,344.31,367.21Zm.95-.71H348a2.4,2.4,0,0,0-.09-.69,1.2,1.2,0,0,0-.25-.49,1,1,0,0,0-.41-.3,1.64,1.64,0,0,0-.56-.09,1.27,1.27,0,0,0-.52.1,1.65,1.65,0,0,0-.44.32,1.54,1.54,0,0,0-.32.49A2.66,2.66,0,0,0,345.26,366.5Z" style="fill:#4d4d4d"/><path d="M350.28,365v-.76h3.92V365l-3.08,4.29v.05h3.14v.76h-4.14v-.78l3.07-4.28v0Z" style="fill:#4d4d4d"/><path d="M359.8,366.08v4.05H359v-.4c-.15.08-.28.16-.42.22a2.74,2.74,0,0,1-.4.15,2,2,0,0,1-.42.08,3.84,3.84,0,0,1-.5,0,2.29,2.29,0,0,1-.76-.12,1.59,1.59,0,0,1-.57-.32,1.34,1.34,0,0,1-.37-.51,1.66,1.66,0,0,1-.13-.64,1.51,1.51,0,0,1,.17-.7,1.65,1.65,0,0,1,.5-.56,2.54,2.54,0,0,1,.83-.37,4.47,4.47,0,0,1,1.16-.13h.88v-.64a1.37,1.37,0,0,0-.08-.51,1,1,0,0,0-.25-.38.94.94,0,0,0-.42-.23,2.1,2.1,0,0,0-.59-.08,2.83,2.83,0,0,0-.41,0,3.07,3.07,0,0,0-.42.07l-.44.12-.45.17-.19-.77.52-.21a3.32,3.32,0,0,1,.49-.14,2.64,2.64,0,0,1,.49-.08,4.63,4.63,0,0,1,.54,0,3,3,0,0,1,.9.13,1.73,1.73,0,0,1,.65.37,1.44,1.44,0,0,1,.4.59A2.24,2.24,0,0,1,359.8,366.08Zm-3.47,2.46a.86.86,0,0,0,.07.36.73.73,0,0,0,.2.27.86.86,0,0,0,.33.17,1.6,1.6,0,0,0,.46.06l.42,0a2.7,2.7,0,0,0,.39-.08l.36-.13a2.09,2.09,0,0,0,.36-.19v-1.37H358a3.43,3.43,0,0,0-.77.07,1.78,1.78,0,0,0-.53.2.85.85,0,0,0-.29.31A.78.78,0,0,0,356.33,368.54Z" style="fill:#4d4d4d"/><path d="M365.5,370.13v-3.85a1.6,1.6,0,0,0-.08-.51.9.9,0,0,0-.26-.39,1.15,1.15,0,0,0-.41-.26,1.6,1.6,0,0,0-.56-.09l-.37,0-.34.06-.33.09-.36.13v4.8h-.91V364.3l.87-.07v.4a3,3,0,0,1,.4-.2,2.84,2.84,0,0,1,.38-.13,1.59,1.59,0,0,1,.39-.08,2.94,2.94,0,0,1,.44,0,2.66,2.66,0,0,1,.88.14,1.58,1.58,0,0,1,.64.38,1.62,1.62,0,0,1,.4.62,2.55,2.55,0,0,1,.13.86v3.94Z" style="fill:#4d4d4d"/><path d="M373,361.75v8.38h-.89v-.38a1.77,1.77,0,0,1-.33.19,2.39,2.39,0,0,1-.37.15,2.46,2.46,0,0,1-.39.09,2.83,2.83,0,0,1-.41,0,2.64,2.64,0,0,1-1-.19,2.13,2.13,0,0,1-.78-.55,2.63,2.63,0,0,1-.52-.9,3.82,3.82,0,0,1-.18-1.22,4,4,0,0,1,.21-1.34,2.69,2.69,0,0,1,.62-1,2.58,2.58,0,0,1,.93-.62,3.27,3.27,0,0,1,1.19-.21h.29l.26,0,.24,0,.21.06v-2.51ZM371,365a2,2,0,0,0-.8.15,1.68,1.68,0,0,0-.61.44,2.08,2.08,0,0,0-.39.72,3.52,3.52,0,0,0,0,1.86,1.87,1.87,0,0,0,.36.67,1.39,1.39,0,0,0,.54.39,1.78,1.78,0,0,0,.7.14,2,2,0,0,0,.36,0,2.61,2.61,0,0,0,.32-.06l.3-.12.3-.16v-3.91l-.27,0-.26,0-.27,0Z" style="fill:#4d4d4d"/><path d="M345.06,376.83a2.1,2.1,0,1,1,2.1-2.1A2.11,2.11,0,0,1,345.06,376.83Zm0-3.7a1.6,1.6,0,1,0,1.6,1.6A1.6,1.6,0,0,0,345.06,373.13Z" style="fill:#8b8f9e"/><path d="M387.66,419.13l-2.5-7.87h1.07l2.11,6.93h.05l2.16-6.93h1L389,419.13Z" style="fill:#4d4d4d"/><path d="M392.2,416.21a4.35,4.35,0,0,1,.19-1.31,2.59,2.59,0,0,1,.52-1,2.31,2.31,0,0,1,1.75-.78,2.73,2.73,0,0,1,.94.15,1.87,1.87,0,0,1,.71.45,2,2,0,0,1,.44.74,3.11,3.11,0,0,1,.15,1v.37c0,.06,0,.12,0,.18a1,1,0,0,1,0,.17h-3.75a3,3,0,0,0,.13.95,1.76,1.76,0,0,0,.4.67,1.39,1.39,0,0,0,.59.39,2.34,2.34,0,0,0,.77.13,3.75,3.75,0,0,0,.48,0c.15,0,.3,0,.44-.06a3.6,3.6,0,0,0,.44-.12l.43-.16v.82l-.46.18-.44.11a3.11,3.11,0,0,1-.47.07,4.33,4.33,0,0,1-.53,0,3.23,3.23,0,0,1-1.11-.18,2.27,2.27,0,0,1-.86-.55,2.4,2.4,0,0,1-.54-.94A4.39,4.39,0,0,1,392.2,416.21Zm.95-.71h2.76a2.84,2.84,0,0,0-.08-.69,1.33,1.33,0,0,0-.25-.49,1,1,0,0,0-.42-.3,1.6,1.6,0,0,0-.56-.09,1.25,1.25,0,0,0-.51.1,1.5,1.5,0,0,0-.44.32,1.54,1.54,0,0,0-.32.49A2.29,2.29,0,0,0,393.15,415.5Z" style="fill:#4d4d4d"/><path d="M398.25,416.21a4.06,4.06,0,0,1,.19-1.31,2.59,2.59,0,0,1,.52-1,2.31,2.31,0,0,1,1.75-.78,2.77,2.77,0,0,1,.94.15,1.76,1.76,0,0,1,.7.45,1.83,1.83,0,0,1,.44.74,3.11,3.11,0,0,1,.15,1v.55c0,.06,0,.11,0,.17h-3.76a3,3,0,0,0,.14.95,1.75,1.75,0,0,0,.39.67,1.49,1.49,0,0,0,.6.39,2.28,2.28,0,0,0,.76.13,3.91,3.91,0,0,0,.49,0c.15,0,.3,0,.44-.06a3,3,0,0,0,.43-.12l.44-.16v.82l-.46.18-.44.11a3.31,3.31,0,0,1-.47.07,4.33,4.33,0,0,1-.53,0,3.33,3.33,0,0,1-1.12-.18,2.31,2.31,0,0,1-.85-.55,2.28,2.28,0,0,1-.54-.94A4.1,4.1,0,0,1,398.25,416.21Zm.95-.71H402a2.84,2.84,0,0,0-.08-.69,1.21,1.21,0,0,0-.26-.49,1,1,0,0,0-.41-.3,1.6,1.6,0,0,0-.56-.09,1.25,1.25,0,0,0-.51.1,1.5,1.5,0,0,0-.44.32,1.75,1.75,0,0,0-.33.49A2.66,2.66,0,0,0,399.2,415.5Z" style="fill:#4d4d4d"/><path d="M408.28,419.13v-3.85a1.37,1.37,0,0,0-.08-.51,1,1,0,0,0-.25-.39,1.11,1.11,0,0,0-.42-.26A1.59,1.59,0,0,0,407,414l-.38,0a1.91,1.91,0,0,0-.33.06,2.14,2.14,0,0,0-.34.09l-.36.13v4.8h-.91V413.3l.88-.07v.4a2.4,2.4,0,0,1,.39-.2,3.43,3.43,0,0,1,.38-.13,1.59,1.59,0,0,1,.39-.08,3,3,0,0,1,.44,0,2.66,2.66,0,0,1,.88.14,1.62,1.62,0,0,1,.65.38,1.6,1.6,0,0,1,.39.62,2.54,2.54,0,0,1,.14.86v3.94Z" style="fill:#4d4d4d"/><path d="M415.77,410.75v8.38h-.89v-.38a1.77,1.77,0,0,1-.33.19,1.94,1.94,0,0,1-.36.15,2.59,2.59,0,0,1-.4.09,2.73,2.73,0,0,1-.41,0,2.64,2.64,0,0,1-1-.19,2.13,2.13,0,0,1-.78-.55,2.46,2.46,0,0,1-.51-.9,3.55,3.55,0,0,1-.19-1.22,3.77,3.77,0,0,1,.22-1.34,2.68,2.68,0,0,1,.61-1,2.61,2.61,0,0,1,.94-.62,3.22,3.22,0,0,1,1.18-.21h.3l.26,0,.23,0a.65.65,0,0,1,.21.06v-2.51Zm-2,3.25a2.07,2.07,0,0,0-.8.15,1.76,1.76,0,0,0-.61.44,2.08,2.08,0,0,0-.39.72,3.12,3.12,0,0,0-.13.95,2.82,2.82,0,0,0,.13.91,1.85,1.85,0,0,0,.35.67,1.35,1.35,0,0,0,.55.39,1.75,1.75,0,0,0,.7.14,2,2,0,0,0,.36,0,3,3,0,0,0,.32-.06,1.78,1.78,0,0,0,.29-.12l.3-.16v-3.91l-.27,0-.26,0-.26,0Z" style="fill:#4d4d4d"/><path d="M421.92,415.08v4.05h-.86v-.4l-.41.22a3.25,3.25,0,0,1-.4.15,2,2,0,0,1-.43.08,3.73,3.73,0,0,1-.5,0,2.19,2.19,0,0,1-.75-.12,1.55,1.55,0,0,1-.58-.32,1.32,1.32,0,0,1-.36-.51,1.58,1.58,0,0,1,0-1.34,1.65,1.65,0,0,1,.5-.56A2.49,2.49,0,0,1,419,416a4.52,4.52,0,0,1,1.16-.13H421v-.64a1.6,1.6,0,0,0-.08-.51,1,1,0,0,0-.25-.38,1.06,1.06,0,0,0-.42-.23,2.1,2.1,0,0,0-.59-.08l-.42,0a3.07,3.07,0,0,0-.42.07l-.43.12a4.13,4.13,0,0,0-.45.17l-.19-.77.52-.21a3,3,0,0,1,.49-.14,2.64,2.64,0,0,1,.49-.08,4.63,4.63,0,0,1,.54,0,3,3,0,0,1,.89.13,1.77,1.77,0,0,1,.66.37,1.54,1.54,0,0,1,.4.59A2.24,2.24,0,0,1,421.92,415.08Zm-3.47,2.46a1,1,0,0,0,.06.36.78.78,0,0,0,.53.44,1.68,1.68,0,0,0,.47.06l.41,0a2.24,2.24,0,0,0,.39-.08l.37-.13A2.09,2.09,0,0,0,421,418v-1.37h-.92a3.55,3.55,0,0,0-.77.07,1.71,1.71,0,0,0-.52.2.85.85,0,0,0-.29.31A.78.78,0,0,0,418.45,417.54Z" style="fill:#4d4d4d"/><path d="M431.14,419.13v-3.84a1.72,1.72,0,0,0-.07-.52,1.17,1.17,0,0,0-.24-.39,1.15,1.15,0,0,0-.41-.26,1.55,1.55,0,0,0-.55-.09l-.37,0a1.65,1.65,0,0,0-.32.06,1.92,1.92,0,0,0-.32.09l-.38.13v4.8h-.91v-3.86a2.06,2.06,0,0,0-.07-.53.94.94,0,0,0-.23-.39,1,1,0,0,0-.4-.24,1.91,1.91,0,0,0-.57-.08l-.39,0-.33.05a1.92,1.92,0,0,0-.32.09l-.36.14v4.8H424V413.3l.88-.07v.4l.4-.21a2.72,2.72,0,0,1,.37-.13,2.44,2.44,0,0,1,.39-.07,2.77,2.77,0,0,1,.42,0,4.07,4.07,0,0,1,.52,0,1.85,1.85,0,0,1,.45.11,2.28,2.28,0,0,1,.38.2,1.81,1.81,0,0,1,.3.25c.17-.11.34-.2.49-.28a4.52,4.52,0,0,1,.47-.18,3.41,3.41,0,0,1,.46-.1,3.77,3.77,0,0,1,.51,0,2.56,2.56,0,0,1,.87.14,1.52,1.52,0,0,1,.64.38,1.58,1.58,0,0,1,.38.62,2.54,2.54,0,0,1,.14.86v3.94Z" style="fill:#4d4d4d"/><path d="M409.06,425.83a2.1,2.1,0,1,1,2.1-2.1A2.11,2.11,0,0,1,409.06,425.83Zm0-3.7a1.6,1.6,0,1,0,1.6,1.6A1.6,1.6,0,0,0,409.06,422.13Z" style="fill:#8b8f9e"/><path d="M427.65,519v-.89l.51.1.46.07.45,0,.46,0a2.65,2.65,0,0,0,.77-.11,1.85,1.85,0,0,0,.6-.28,1.27,1.27,0,0,0,.37-.43,1.32,1.32,0,0,0,.12-.57,1.46,1.46,0,0,0-.06-.44,1,1,0,0,0-.22-.35,1.68,1.68,0,0,0-.38-.3,5.34,5.34,0,0,0-.57-.25l-1-.33a2.49,2.49,0,0,1-.59-.29,2,2,0,0,1-.46-.4,1.83,1.83,0,0,1-.29-.53,1.91,1.91,0,0,1-.1-.64,2.12,2.12,0,0,1,.19-.91,2,2,0,0,1,.55-.71,2.64,2.64,0,0,1,.86-.47,3.67,3.67,0,0,1,1.13-.17h.44l.4,0,.38,0,.37.06-.1.86-.38-.07-.37,0-.38,0h-.42a2.39,2.39,0,0,0-.73.1,1.65,1.65,0,0,0-.55.26,1.11,1.11,0,0,0-.33.39,1,1,0,0,0-.11.5,1.09,1.09,0,0,0,.06.42.7.7,0,0,0,.19.32,1,1,0,0,0,.33.26,2.16,2.16,0,0,0,.48.21l1,.34a2.84,2.84,0,0,1,.7.31,1.9,1.9,0,0,1,.49.44,1.7,1.7,0,0,1,.29.55,2.54,2.54,0,0,1-.11,1.66,2.17,2.17,0,0,1-.58.76,2.7,2.7,0,0,1-.92.49,4,4,0,0,1-1.18.17l-.48,0-.45,0-.44,0Z" style="fill:#4d4d4d"/><path d="M433.69,514v-.73h.71v-1l.91-.13v1.17h1.53V514h-1.53v3.32a1.75,1.75,0,0,0,.06.48.88.88,0,0,0,.2.34,1,1,0,0,0,.29.2,1.06,1.06,0,0,0,.37.06h.21l.18,0,.19,0,.21,0v.76l-.27.06-.25,0-.24,0H436a2,2,0,0,1-.63-.1,1.35,1.35,0,0,1-.51-.31,1.47,1.47,0,0,1-.34-.57,2.75,2.75,0,0,1-.12-.86V514Z" style="fill:#4d4d4d"/><path d="M442.42,515.08v4h-.85v-.4l-.41.22a3.39,3.39,0,0,1-.41.15,1.84,1.84,0,0,1-.42.08,3.84,3.84,0,0,1-.5,0,2.29,2.29,0,0,1-.76-.12,1.59,1.59,0,0,1-.57-.32,1.46,1.46,0,0,1-.37-.51,1.66,1.66,0,0,1-.12-.64,1.5,1.5,0,0,1,.16-.7,1.76,1.76,0,0,1,.5-.56,2.54,2.54,0,0,1,.83-.37,4.47,4.47,0,0,1,1.16-.13h.89v-.64a1.36,1.36,0,0,0-.09-.51,1,1,0,0,0-.24-.38,1.06,1.06,0,0,0-.42-.23,2.18,2.18,0,0,0-.6-.08l-.41,0a3.07,3.07,0,0,0-.42.07,3.45,3.45,0,0,0-.43.12,4.13,4.13,0,0,0-.45.17l-.2-.77.53-.21a2.9,2.9,0,0,1,.48-.14,2.78,2.78,0,0,1,.49-.08,4.63,4.63,0,0,1,.54,0,3,3,0,0,1,.9.13,1.65,1.65,0,0,1,.65.37,1.44,1.44,0,0,1,.4.59A2,2,0,0,1,442.42,515.08ZM439,517.54a1,1,0,0,0,.07.36.78.78,0,0,0,.53.44,1.63,1.63,0,0,0,.47.06l.41,0a2.7,2.7,0,0,0,.39-.08l.37-.13a2.09,2.09,0,0,0,.36-.19v-1.37h-.92a3.49,3.49,0,0,0-.77.07,1.9,1.9,0,0,0-.53.2.82.82,0,0,0-.28.31A.69.69,0,0,0,439,517.54Z" style="fill:#4d4d4d"/><path d="M449,510.75v8.38h-.89v-.38a1.77,1.77,0,0,1-.33.19,2.39,2.39,0,0,1-.37.15,2.46,2.46,0,0,1-.39.09,2.83,2.83,0,0,1-.41,0,2.64,2.64,0,0,1-1-.19,2.13,2.13,0,0,1-.78-.55,2.63,2.63,0,0,1-.52-.9,3.82,3.82,0,0,1-.18-1.22,4,4,0,0,1,.21-1.34,2.69,2.69,0,0,1,.62-1,2.58,2.58,0,0,1,.93-.62,3.27,3.27,0,0,1,1.19-.21h.29l.26,0,.24,0a.83.83,0,0,1,.21.06v-2.51ZM447,514a2,2,0,0,0-.8.15,1.68,1.68,0,0,0-.61.44,2.08,2.08,0,0,0-.39.72,3.52,3.52,0,0,0,0,1.86,1.87,1.87,0,0,0,.36.67,1.39,1.39,0,0,0,.54.39,1.78,1.78,0,0,0,.7.14,2,2,0,0,0,.36,0,2.61,2.61,0,0,0,.32-.06,1.88,1.88,0,0,0,.3-.12l.3-.16v-3.91l-.27,0-.26,0-.27,0Z" style="fill:#4d4d4d"/><path d="M450.69,519v-.83a3.11,3.11,0,0,0,.41.11,2.7,2.7,0,0,0,.41.06l.43,0h.44a2.26,2.26,0,0,0,.55-.06,1.42,1.42,0,0,0,.41-.19.65.65,0,0,0,.25-.27.74.74,0,0,0,.09-.36.78.78,0,0,0-.06-.31.66.66,0,0,0-.17-.25,1.67,1.67,0,0,0-.31-.2,2.56,2.56,0,0,0-.45-.16l-.68-.2a2.35,2.35,0,0,1-.53-.22,1.42,1.42,0,0,1-.39-.33,1.1,1.1,0,0,1-.24-.42,1.59,1.59,0,0,1,.06-1.2,1.62,1.62,0,0,1,.43-.55,1.93,1.93,0,0,1,.68-.36,2.94,2.94,0,0,1,.87-.13h.39l.36,0,.34,0a1.65,1.65,0,0,1,.32.06l-.09.79-.34-.06-.33,0-.32,0h-.38a2,2,0,0,0-.51.06,1.21,1.21,0,0,0-.38.17.71.71,0,0,0-.23.26.59.59,0,0,0-.08.32.65.65,0,0,0,.05.29.57.57,0,0,0,.15.23,1,1,0,0,0,.25.17,1.78,1.78,0,0,0,.37.14l.68.18a3.78,3.78,0,0,1,.63.24,2.2,2.2,0,0,1,.44.33,1.33,1.33,0,0,1,.26.42,1.44,1.44,0,0,1,.08.51,1.76,1.76,0,0,1-.61,1.36,2,2,0,0,1-.71.39,2.83,2.83,0,0,1-.9.14l-.47,0c-.14,0-.28,0-.41,0l-.38-.06Z" style="fill:#4d4d4d"/><path d="M457.16,516.33v2.8h-.91v-8.31l.91-.07v4.77h.53l2-2.25h1.12l-2.28,2.52,2.48,3.34h-1.14l-2.06-2.8Z" style="fill:#4d4d4d"/><path d="M466.19,515.08v4h-.85v-.4l-.41.22a3.25,3.25,0,0,1-.4.15,2,2,0,0,1-.43.08,3.73,3.73,0,0,1-.5,0,2.19,2.19,0,0,1-.75-.12,1.55,1.55,0,0,1-.58-.32,1.46,1.46,0,0,1-.37-.51,1.66,1.66,0,0,1-.12-.64,1.4,1.4,0,0,1,.17-.7,1.61,1.61,0,0,1,.49-.56,2.54,2.54,0,0,1,.83-.37,4.47,4.47,0,0,1,1.16-.13h.89v-.64a1.36,1.36,0,0,0-.09-.51.88.88,0,0,0-.24-.38,1.06,1.06,0,0,0-.42-.23,2.13,2.13,0,0,0-.6-.08l-.41,0a3.07,3.07,0,0,0-.42.07l-.43.12a4.13,4.13,0,0,0-.45.17l-.19-.77.52-.21a2.9,2.9,0,0,1,.48-.14,2.74,2.74,0,0,1,.5-.08,4.39,4.39,0,0,1,.54,0,3,3,0,0,1,.89.13,1.65,1.65,0,0,1,.65.37,1.57,1.57,0,0,1,.41.59A2.24,2.24,0,0,1,466.19,515.08Zm-3.46,2.46a1,1,0,0,0,.06.36.78.78,0,0,0,.53.44,1.68,1.68,0,0,0,.47.06l.41,0a2.45,2.45,0,0,0,.39-.08l.37-.13a2.09,2.09,0,0,0,.36-.19v-1.37h-.92a3.49,3.49,0,0,0-.77.07,1.71,1.71,0,0,0-.52.2.79.79,0,0,0-.38.68Z" style="fill:#4d4d4d"/><path d="M471.89,519.13v-3.85a1.37,1.37,0,0,0-.08-.51,1,1,0,0,0-.25-.39,1.11,1.11,0,0,0-.42-.26,1.59,1.59,0,0,0-.55-.09l-.38,0-.33.06a2.14,2.14,0,0,0-.34.09l-.36.13v4.8h-.91V513.3l.88-.07v.4a2.4,2.4,0,0,1,.39-.2,3.43,3.43,0,0,1,.38-.13,1.59,1.59,0,0,1,.39-.08,3,3,0,0,1,.44,0,2.66,2.66,0,0,1,.88.14,1.62,1.62,0,0,1,.65.38,1.6,1.6,0,0,1,.39.62,2.54,2.54,0,0,1,.14.86v3.94Z" style="fill:#4d4d4d"/><path d="M478.87,515.08v4H478v-.4l-.41.22a3.25,3.25,0,0,1-.4.15,2,2,0,0,1-.43.08,3.73,3.73,0,0,1-.5,0,2.19,2.19,0,0,1-.75-.12,1.55,1.55,0,0,1-.58-.32,1.32,1.32,0,0,1-.36-.51,1.58,1.58,0,0,1,0-1.34,1.65,1.65,0,0,1,.5-.56,2.49,2.49,0,0,1,.82-.37,4.52,4.52,0,0,1,1.16-.13H478v-.64a1.6,1.6,0,0,0-.08-.51,1,1,0,0,0-.25-.38,1.06,1.06,0,0,0-.42-.23,2.1,2.1,0,0,0-.59-.08l-.42,0a3.07,3.07,0,0,0-.42.07l-.43.12a4.13,4.13,0,0,0-.45.17l-.19-.77.52-.21a3,3,0,0,1,.49-.14,2.64,2.64,0,0,1,.49-.08,4.63,4.63,0,0,1,.54,0,3,3,0,0,1,.89.13,1.77,1.77,0,0,1,.66.37,1.54,1.54,0,0,1,.4.59A2.24,2.24,0,0,1,478.87,515.08Zm-3.47,2.46a1,1,0,0,0,.06.36.78.78,0,0,0,.53.44,1.68,1.68,0,0,0,.47.06l.41,0a2.24,2.24,0,0,0,.39-.08l.37-.13A2.09,2.09,0,0,0,478,518v-1.37h-.92a3.55,3.55,0,0,0-.77.07,1.82,1.82,0,0,0-.52.2.85.85,0,0,0-.29.31A.78.78,0,0,0,475.4,517.54Z" style="fill:#4d4d4d"/><path d="M484.93,515.08v4h-.86v-.4l-.41.22a3.25,3.25,0,0,1-.4.15,2,2,0,0,1-.43.08,3.73,3.73,0,0,1-.5,0,2.19,2.19,0,0,1-.75-.12,1.55,1.55,0,0,1-.58-.32,1.32,1.32,0,0,1-.36-.51,1.58,1.58,0,0,1,0-1.34,1.65,1.65,0,0,1,.5-.56A2.49,2.49,0,0,1,482,516a4.52,4.52,0,0,1,1.16-.13h.89v-.64a1.6,1.6,0,0,0-.08-.51,1,1,0,0,0-.25-.38,1.06,1.06,0,0,0-.42-.23,2.1,2.1,0,0,0-.59-.08l-.42,0a3.07,3.07,0,0,0-.42.07l-.43.12a4.13,4.13,0,0,0-.45.17l-.19-.77.52-.21a3,3,0,0,1,.49-.14,2.64,2.64,0,0,1,.49-.08,4.63,4.63,0,0,1,.54,0,3,3,0,0,1,.89.13,1.77,1.77,0,0,1,.66.37,1.54,1.54,0,0,1,.4.59A2.24,2.24,0,0,1,484.93,515.08Zm-3.47,2.46a1,1,0,0,0,.06.36.78.78,0,0,0,.53.44,1.68,1.68,0,0,0,.47.06l.41,0a2.24,2.24,0,0,0,.39-.08l.37-.13a2.09,2.09,0,0,0,.36-.19v-1.37h-.92a3.55,3.55,0,0,0-.77.07,1.71,1.71,0,0,0-.52.2.79.79,0,0,0-.38.68Z" style="fill:#4d4d4d"/><path d="M487.91,510.75v8.38H487v-8.31Z" style="fill:#4d4d4d"/><path d="M458.06,525.83a2.1,2.1,0,1,1,2.1-2.1A2.11,2.11,0,0,1,458.06,525.83Zm0-3.7a1.6,1.6,0,1,0,1.6,1.6A1.6,1.6,0,0,0,458.06,522.13Z" style="fill:#8b8f9e"/><path d="M487,337.13v-7.87h3.89v.84H488v2.58h2.65v.84H488v3.61Z" style="fill:#4d4d4d"/><path d="M492.5,329.35a.69.69,0,0,1,0-.25.52.52,0,0,1,.12-.19.78.78,0,0,1,.18-.11.67.67,0,0,1,.24,0,.61.61,0,0,1,.24,0,.5.5,0,0,1,.18.11.57.57,0,0,1,.12.18.71.71,0,0,1,0,.26.67.67,0,0,1,0,.24.57.57,0,0,1-.12.18.5.5,0,0,1-.18.11.61.61,0,0,1-.24,0,.67.67,0,0,1-.24,0,.78.78,0,0,1-.18-.11.57.57,0,0,1-.12-.18A.67.67,0,0,1,492.5,329.35Zm1,1.88v5.9h-.91V331.3Z" style="fill:#4d4d4d"/><path d="M499.32,337.13v-3.85a1.37,1.37,0,0,0-.08-.51,1,1,0,0,0-.25-.39,1.11,1.11,0,0,0-.42-.26A1.59,1.59,0,0,0,498,332l-.38,0a1.91,1.91,0,0,0-.33.06,2.14,2.14,0,0,0-.34.09l-.36.13v4.8h-.91V331.3l.88-.07v.4a2.4,2.4,0,0,1,.39-.2,3.43,3.43,0,0,1,.38-.13,1.59,1.59,0,0,1,.39-.08,3,3,0,0,1,.44,0,2.66,2.66,0,0,1,.88.14,1.62,1.62,0,0,1,.65.38,1.6,1.6,0,0,1,.39.62,2.54,2.54,0,0,1,.14.86v3.94Z" style="fill:#4d4d4d"/><path d="M501.84,337v-.83a3.59,3.59,0,0,0,.41.11l.42.06.42,0h.45a2.32,2.32,0,0,0,.55-.06,1.55,1.55,0,0,0,.41-.19.72.72,0,0,0,.25-.27.86.86,0,0,0,.08-.36,1,1,0,0,0-.05-.31.83.83,0,0,0-.18-.25,2,2,0,0,0-.3-.2,3.33,3.33,0,0,0-.45-.16l-.69-.2a2.56,2.56,0,0,1-.53-.22,1.42,1.42,0,0,1-.39-.33,1.44,1.44,0,0,1-.24-.42,1.66,1.66,0,0,1,.07-1.2,1.62,1.62,0,0,1,.43-.55,1.8,1.8,0,0,1,.67-.36,3.06,3.06,0,0,1,.88-.13h.38l.36,0,.34,0a1.75,1.75,0,0,1,.33.06l-.1.79-.34-.06-.32,0-.33,0H504a2,2,0,0,0-.51.06,1.28,1.28,0,0,0-.39.17.71.71,0,0,0-.23.26.69.69,0,0,0-.08.32.84.84,0,0,0,0,.29.57.57,0,0,0,.15.23,1.06,1.06,0,0,0,.26.17,1.43,1.43,0,0,0,.37.14l.68.18a3.65,3.65,0,0,1,.62.24,1.94,1.94,0,0,1,.44.33,1.37,1.37,0,0,1,.27.42,1.7,1.7,0,0,1,.08.51,1.91,1.91,0,0,1-.16.76,1.79,1.79,0,0,1-.46.6,2,2,0,0,1-.7.39,2.94,2.94,0,0,1-.91.14l-.46,0c-.15,0-.28,0-.42,0l-.38-.06Z" style="fill:#4d4d4d"/><path d="M506.87,332v-.73h.71v-1l.91-.13v1.17H510V332h-1.54v3.32a1.43,1.43,0,0,0,.07.48.86.86,0,0,0,.19.34,1,1,0,0,0,.29.2,1.16,1.16,0,0,0,.38.06h.2l.19,0,.19,0,.21,0v.76l-.27.06-.25.05-.24,0h-.27a2.08,2.08,0,0,1-.63-.1,1.35,1.35,0,0,1-.51-.31,1.6,1.6,0,0,1-.34-.57,2.75,2.75,0,0,1-.12-.86V332Z" style="fill:#4d4d4d"/><path d="M511.26,334.21a4.35,4.35,0,0,1,.19-1.31,2.59,2.59,0,0,1,.52-1,2.31,2.31,0,0,1,1.75-.78,2.73,2.73,0,0,1,.94.15,1.87,1.87,0,0,1,.71.45,2,2,0,0,1,.44.74,3.11,3.11,0,0,1,.15,1v.37c0,.06,0,.12,0,.18a1,1,0,0,1,0,.17h-3.75a3,3,0,0,0,.13.95,1.76,1.76,0,0,0,.4.67,1.39,1.39,0,0,0,.59.39,2.34,2.34,0,0,0,.77.13,3.64,3.64,0,0,0,.48,0c.15,0,.3,0,.44-.06a3.6,3.6,0,0,0,.44-.12l.43-.16v.82l-.46.18-.44.11a3.11,3.11,0,0,1-.47.07,4.33,4.33,0,0,1-.53,0,3.23,3.23,0,0,1-1.11-.18,2.27,2.27,0,0,1-.86-.55,2.4,2.4,0,0,1-.54-.94A4.39,4.39,0,0,1,511.26,334.21Zm1-.71H515a2.84,2.84,0,0,0-.08-.69,1.33,1.33,0,0,0-.25-.49,1,1,0,0,0-.42-.3,1.6,1.6,0,0,0-.56-.09,1.25,1.25,0,0,0-.51.1,1.5,1.5,0,0,0-.44.32,1.54,1.54,0,0,0-.32.49A2.29,2.29,0,0,0,512.21,333.5Z" style="fill:#4d4d4d"/><path d="M520.5,331.28l-.1.9-.18,0a.51.51,0,0,0-.17,0l-.15,0h-.18a.9.9,0,0,0-.28,0,1,1,0,0,0-.27.11,1.41,1.41,0,0,0-.27.18l-.32.28v4.44h-.91V331.3l.9-.07v.68q.16-.18.33-.33a1.91,1.91,0,0,1,.3-.22,1.17,1.17,0,0,1,.31-.12,1.12,1.12,0,0,1,.31-.05h.34a.9.9,0,0,1,.16,0Z" style="fill:#4d4d4d"/><path d="M529.32,331.27l-1.84,5.86h-1.17l-1.08-3.55h-.06l-1,3.55H523l-1.86-5.86h1l1.43,5h.06l1.16-3.85-.38-1.17h1l1.48,5H527l1.41-5Z" style="fill:#4d4d4d"/><path d="M535.68,334.13a3.71,3.71,0,0,1-.21,1.29,2.89,2.89,0,0,1-.6,1,2.4,2.4,0,0,1-.87.62,2.66,2.66,0,0,1-1,.21,3,3,0,0,1-1.06-.18,2.13,2.13,0,0,1-.81-.57,2.47,2.47,0,0,1-.52-.93,4.21,4.21,0,0,1-.18-1.28,3.62,3.62,0,0,1,.22-1.3,2.87,2.87,0,0,1,.59-1,2.55,2.55,0,0,1,1.91-.83,2.8,2.8,0,0,1,1.07.19,2.35,2.35,0,0,1,.82.56,2.6,2.6,0,0,1,.51.93A4.28,4.28,0,0,1,535.68,334.13Zm-.94,0a3.5,3.5,0,0,0-.12-1,1.85,1.85,0,0,0-.33-.69,1.37,1.37,0,0,0-.54-.42A1.9,1.9,0,0,0,533,332a1.51,1.51,0,0,0-.68.15,1.45,1.45,0,0,0-.54.45,2,2,0,0,0-.35.72,3.48,3.48,0,0,0-.12,1,4,4,0,0,0,.11,1,1.86,1.86,0,0,0,.34.69,1.37,1.37,0,0,0,.54.42,1.81,1.81,0,0,0,.72.14,1.53,1.53,0,0,0,1.23-.61,2.2,2.2,0,0,0,.35-.72A3.4,3.4,0,0,0,534.74,334.17Z" style="fill:#4d4d4d"/><path d="M538.4,328.75v8.38h-.92v-8.31Z" style="fill:#4d4d4d"/><path d="M545.06,328.75v8.38h-.89v-.38a2.79,2.79,0,0,1-.33.19,2.39,2.39,0,0,1-.37.15,2.74,2.74,0,0,1-.39.09l-.41,0a2.64,2.64,0,0,1-1-.19,2.13,2.13,0,0,1-.78-.55,2.63,2.63,0,0,1-.52-.9,3.82,3.82,0,0,1-.18-1.22,4,4,0,0,1,.21-1.34,2.81,2.81,0,0,1,.61-1,2.7,2.7,0,0,1,.94-.62,3.27,3.27,0,0,1,1.19-.21h.29l.26,0,.23,0a.65.65,0,0,1,.21.06v-2.51Zm-2,3.25a2,2,0,0,0-.8.15,1.68,1.68,0,0,0-.61.44,1.8,1.8,0,0,0-.39.72,3.27,3.27,0,0,0,0,1.86,1.85,1.85,0,0,0,.35.67,1.5,1.5,0,0,0,.55.39,1.78,1.78,0,0,0,.7.14,2,2,0,0,0,.36,0,3,3,0,0,0,.32-.06,1.48,1.48,0,0,0,.29-.12l.3-.16v-3.91l-.27,0-.25,0-.27,0Z" style="fill:#4d4d4d"/><path d="M546.86,334.21a4.37,4.37,0,0,1,.18-1.31,2.61,2.61,0,0,1,.53-1,2.1,2.1,0,0,1,.78-.58,2.23,2.23,0,0,1,1-.2,2.73,2.73,0,0,1,.94.15,1.8,1.8,0,0,1,.71.45,2,2,0,0,1,.44.74,3.11,3.11,0,0,1,.15,1v.37a1.09,1.09,0,0,1,0,.18,1,1,0,0,1,0,.17h-3.75a2.72,2.72,0,0,0,.14.95,1.63,1.63,0,0,0,.39.67,1.45,1.45,0,0,0,.59.39,2.34,2.34,0,0,0,.77.13,3.64,3.64,0,0,0,.48,0c.15,0,.3,0,.44-.06a3.6,3.6,0,0,0,.44-.12l.43-.16v.82L551,337l-.43.11a3.54,3.54,0,0,1-.47.07,4.63,4.63,0,0,1-.54,0,3.23,3.23,0,0,1-1.11-.18,2.27,2.27,0,0,1-.86-.55,2.53,2.53,0,0,1-.54-.94A4.41,4.41,0,0,1,546.86,334.21Zm.94-.71h2.76a2.42,2.42,0,0,0-.08-.69,1.33,1.33,0,0,0-.25-.49,1,1,0,0,0-.42-.3,1.59,1.59,0,0,0-.55-.09,1.27,1.27,0,0,0-.52.1,1.5,1.5,0,0,0-.44.32,1.54,1.54,0,0,0-.32.49A2.66,2.66,0,0,0,547.8,333.5Z" style="fill:#4d4d4d"/><path d="M519.06,343.83a2.1,2.1,0,1,1,2.1-2.1A2.11,2.11,0,0,1,519.06,343.83Zm0-3.7a1.6,1.6,0,1,0,1.6,1.6A1.6,1.6,0,0,0,519.06,340.13Z" style="fill:#8b8f9e"/><path d="M525.15,410.13h-2.21v-7.87h2a4.5,4.5,0,0,1,1.16.14,2.22,2.22,0,0,1,.83.4,1.63,1.63,0,0,1,.5.61,1.91,1.91,0,0,1,.16.8,2.38,2.38,0,0,1-.07.63,1.54,1.54,0,0,1-.55.86,2.37,2.37,0,0,1-.47.26v0a2.22,2.22,0,0,1,.61.24,1.52,1.52,0,0,1,.44.39,1.66,1.66,0,0,1,.27.53,2.15,2.15,0,0,1,.1.64,2.55,2.55,0,0,1-.19,1,1.87,1.87,0,0,1-.53.74,2.53,2.53,0,0,1-.88.46A4,4,0,0,1,525.15,410.13Zm-.25-7.06h-1v2.61h1a3.53,3.53,0,0,0,.78-.08,1.5,1.5,0,0,0,.54-.25,1,1,0,0,0,.31-.43,1.66,1.66,0,0,0,.11-.61,1.25,1.25,0,0,0-.11-.53.85.85,0,0,0-.31-.39,1.5,1.5,0,0,0-.54-.24A3,3,0,0,0,524.9,403.07Zm0,3.42h-1v2.84h1.23a2.71,2.71,0,0,0,.79-.1,1.65,1.65,0,0,0,.58-.28,1.35,1.35,0,0,0,.35-.47,1.48,1.48,0,0,0,.12-.61,1.57,1.57,0,0,0-.11-.6,1,1,0,0,0-.35-.43,1.77,1.77,0,0,0-.65-.26A4.54,4.54,0,0,0,524.87,406.49Z" style="fill:#4d4d4d"/><path d="M529.52,407.21a4.37,4.37,0,0,1,.18-1.31,2.61,2.61,0,0,1,.53-1,2.1,2.1,0,0,1,.78-.58,2.27,2.27,0,0,1,1-.2,2.83,2.83,0,0,1,.95.15,1.84,1.84,0,0,1,.7.45,2,2,0,0,1,.44.74,3.11,3.11,0,0,1,.15,1v.37a1.09,1.09,0,0,1,0,.18,1,1,0,0,1,0,.17h-3.75a2.72,2.72,0,0,0,.14.95,1.63,1.63,0,0,0,.39.67,1.52,1.52,0,0,0,.59.39,2.34,2.34,0,0,0,.77.13,3.64,3.64,0,0,0,.48,0c.15,0,.3,0,.45-.06l.43-.12.43-.16v.82l-.45.18-.44.11a3.54,3.54,0,0,1-.47.07,4.63,4.63,0,0,1-.54,0,3.23,3.23,0,0,1-1.11-.18,2.35,2.35,0,0,1-.86-.55,2.53,2.53,0,0,1-.54-.94A4.41,4.41,0,0,1,529.52,407.21Zm.94-.71h2.76a2.42,2.42,0,0,0-.08-.69,1.33,1.33,0,0,0-.25-.49,1,1,0,0,0-.42-.3,1.59,1.59,0,0,0-.55-.09,1.27,1.27,0,0,0-.52.1,1.5,1.5,0,0,0-.44.32,1.54,1.54,0,0,0-.32.49A2.66,2.66,0,0,0,530.46,406.5Z" style="fill:#4d4d4d"/><path d="M536.84,401.75v8.38h-.92v-8.31Z" style="fill:#4d4d4d"/><path d="M539.91,401.75v8.38H539v-8.31Z" style="fill:#4d4d4d"/><path d="M541.94,402.35a.69.69,0,0,1,0-.25.52.52,0,0,1,.12-.19.78.78,0,0,1,.18-.11.67.67,0,0,1,.24,0,.61.61,0,0,1,.24,0,.5.5,0,0,1,.18.11.57.57,0,0,1,.12.18.71.71,0,0,1,0,.26.67.67,0,0,1,0,.24.57.57,0,0,1-.12.18.5.5,0,0,1-.18.11.61.61,0,0,1-.24,0,.67.67,0,0,1-.24,0,.78.78,0,0,1-.18-.11.57.57,0,0,1-.12-.18A.67.67,0,0,1,541.94,402.35Zm1,1.88v5.9h-.91V404.3Z" style="fill:#4d4d4d"/><path d="M548.76,410.13v-3.85a1.37,1.37,0,0,0-.08-.51,1,1,0,0,0-.25-.39,1.11,1.11,0,0,0-.42-.26,1.59,1.59,0,0,0-.55-.09l-.38,0a1.91,1.91,0,0,0-.33.06,2.14,2.14,0,0,0-.34.09l-.36.13v4.8h-.91V404.3l.88-.07v.4a2.4,2.4,0,0,1,.39-.2,3.43,3.43,0,0,1,.38-.13,1.59,1.59,0,0,1,.39-.08,3,3,0,0,1,.44,0,2.66,2.66,0,0,1,.88.14,1.62,1.62,0,0,1,.65.38,1.6,1.6,0,0,1,.39.62,2.54,2.54,0,0,1,.14.86v3.94Z" style="fill:#4d4d4d"/><path d="M552.47,408.71a.58.58,0,0,0,0,.19.4.4,0,0,0,.13.16.61.61,0,0,0,.23.1,1.11,1.11,0,0,0,.33,0l1.58.05a2.48,2.48,0,0,1,.71.1,1.58,1.58,0,0,1,.5.27,1,1,0,0,1,.3.39,1.46,1.46,0,0,1,.09.52,1.65,1.65,0,0,1-.7,1.39,2.53,2.53,0,0,1-.89.41,4.53,4.53,0,0,1-1.23.14,4.31,4.31,0,0,1-1-.1,2.36,2.36,0,0,1-.75-.32,1.3,1.3,0,0,1-.47-.49,1.19,1.19,0,0,1-.16-.62,1.07,1.07,0,0,1,.07-.39,1.58,1.58,0,0,1,.2-.36,1.88,1.88,0,0,1,.32-.31,2,2,0,0,1,.37-.22v-.05a.76.76,0,0,1-.19-.12.61.61,0,0,1-.15-.17.72.72,0,0,1-.09-.2.61.61,0,0,1,0-.24.75.75,0,0,1,0-.26.8.8,0,0,1,.13-.24,1.26,1.26,0,0,1,.2-.2.84.84,0,0,1,.27-.13v0a2,2,0,0,1-.38-.26,1.6,1.6,0,0,1-.28-.35,2.75,2.75,0,0,1-.18-.46,2.38,2.38,0,0,1-.06-.55,2.59,2.59,0,0,1,.15-.91,1.94,1.94,0,0,1,.46-.69,2.13,2.13,0,0,1,.75-.43,3,3,0,0,1,1-.15H554l.25,0,.22,0,.2,0h1.8V405h-1.11v0a1,1,0,0,1,.24.22c.06.09.12.18.18.29a1.9,1.9,0,0,1,.12.36,2.45,2.45,0,0,1,0,.39,2.34,2.34,0,0,1-.16.88,1.62,1.62,0,0,1-.48.64,2.18,2.18,0,0,1-.76.39,3.53,3.53,0,0,1-1,.13h-.18l-.17,0-.16,0-.15,0a.52.52,0,0,0-.15.07.43.43,0,0,0-.12.11.38.38,0,0,0-.09.13A.4.4,0,0,0,552.47,408.71Zm-.45,2.08a.71.71,0,0,0,.1.39.93.93,0,0,0,.32.3,1.7,1.7,0,0,0,.51.2,3.58,3.58,0,0,0,.7.06,4.51,4.51,0,0,0,.87-.07,2.1,2.1,0,0,0,.6-.21,1.09,1.09,0,0,0,.35-.32.88.88,0,0,0,.11-.42.76.76,0,0,0-.05-.27.43.43,0,0,0-.15-.2,1,1,0,0,0-.29-.13,2.11,2.11,0,0,0-.42-.06l-2-.09a1.69,1.69,0,0,0-.27.13l-.21.18a.9.9,0,0,0-.12.24A.84.84,0,0,0,552,410.79Zm1.6-3.15a2.22,2.22,0,0,0,.62-.08,1,1,0,0,0,.43-.24,1,1,0,0,0,.26-.44,2,2,0,0,0,.09-.64,1.7,1.7,0,0,0-.09-.57,1,1,0,0,0-.27-.4,1.09,1.09,0,0,0-.42-.25,1.89,1.89,0,0,0-.56-.08,2,2,0,0,0-.56.08,1.1,1.1,0,0,0-.43.26,1.05,1.05,0,0,0-.27.43,1.8,1.8,0,0,0-.09.6,1.89,1.89,0,0,0,.09.62,1.13,1.13,0,0,0,.27.41,1.27,1.27,0,0,0,.41.23A2.11,2.11,0,0,0,553.62,407.64Z" style="fill:#4d4d4d"/><path d="M565.38,404.27l-1.84,5.86h-1.17l-1.08-3.55h-.06l-1,3.55H559l-1.86-5.86h1l1.43,5h.06l1.16-3.85-.38-1.17h1l1.48,5H563l1.41-5Z" style="fill:#4d4d4d"/><path d="M571.74,407.13a3.71,3.71,0,0,1-.21,1.29,2.89,2.89,0,0,1-.6,1,2.4,2.4,0,0,1-.87.62,2.66,2.66,0,0,1-1,.21,3,3,0,0,1-1.06-.18,2.13,2.13,0,0,1-.81-.57,2.47,2.47,0,0,1-.52-.93,4.21,4.21,0,0,1-.18-1.28,3.62,3.62,0,0,1,.22-1.3,2.87,2.87,0,0,1,.59-1,2.55,2.55,0,0,1,1.91-.83,2.8,2.8,0,0,1,1.07.19,2.35,2.35,0,0,1,.82.56,2.6,2.6,0,0,1,.51.93A4.28,4.28,0,0,1,571.74,407.13Zm-.94,0a3.5,3.5,0,0,0-.12-1,1.85,1.85,0,0,0-.33-.69,1.37,1.37,0,0,0-.54-.42,1.9,1.9,0,0,0-.73-.14,1.51,1.51,0,0,0-.68.15,1.45,1.45,0,0,0-.54.45,2,2,0,0,0-.35.72,3.48,3.48,0,0,0-.12,1,4,4,0,0,0,.11,1,1.86,1.86,0,0,0,.34.69,1.37,1.37,0,0,0,.54.42,1.81,1.81,0,0,0,.72.14,1.53,1.53,0,0,0,1.23-.61,2.2,2.2,0,0,0,.35-.72A3.4,3.4,0,0,0,570.8,407.17Z" style="fill:#4d4d4d"/><path d="M574.46,401.75v8.38h-.92v-8.31Z" style="fill:#4d4d4d"/><path d="M581.12,401.75v8.38h-.89v-.38a2.79,2.79,0,0,1-.33.19,2.39,2.39,0,0,1-.37.15,2.74,2.74,0,0,1-.39.09l-.41,0a2.64,2.64,0,0,1-1-.19,2.13,2.13,0,0,1-.78-.55,2.63,2.63,0,0,1-.52-.9,3.82,3.82,0,0,1-.18-1.22,4,4,0,0,1,.21-1.34,2.81,2.81,0,0,1,.61-1,2.7,2.7,0,0,1,.94-.62,3.27,3.27,0,0,1,1.19-.21h.29l.26,0,.23,0a.65.65,0,0,1,.21.06v-2.51Zm-2,3.25a2,2,0,0,0-.8.15,1.68,1.68,0,0,0-.61.44,1.8,1.8,0,0,0-.39.72,3.27,3.27,0,0,0,0,1.86,1.85,1.85,0,0,0,.35.67,1.5,1.5,0,0,0,.55.39,1.78,1.78,0,0,0,.7.14,2,2,0,0,0,.36,0,3,3,0,0,0,.32-.06,1.48,1.48,0,0,0,.29-.12l.3-.16v-3.91l-.27,0-.25,0-.27,0Z" style="fill:#4d4d4d"/><path d="M582.92,407.21a4.37,4.37,0,0,1,.18-1.31,2.61,2.61,0,0,1,.53-1,2.1,2.1,0,0,1,.78-.58,2.23,2.23,0,0,1,1-.2,2.73,2.73,0,0,1,.94.15,1.8,1.8,0,0,1,.71.45,2,2,0,0,1,.44.74,3.11,3.11,0,0,1,.15,1v.37a1.09,1.09,0,0,1,0,.18,1,1,0,0,1,0,.17h-3.75a2.72,2.72,0,0,0,.14.95,1.63,1.63,0,0,0,.39.67,1.45,1.45,0,0,0,.59.39,2.34,2.34,0,0,0,.77.13,3.64,3.64,0,0,0,.48,0c.15,0,.3,0,.44-.06a3.6,3.6,0,0,0,.44-.12l.43-.16v.82l-.46.18-.43.11a3.54,3.54,0,0,1-.47.07,4.63,4.63,0,0,1-.54,0,3.23,3.23,0,0,1-1.11-.18,2.27,2.27,0,0,1-.86-.55,2.53,2.53,0,0,1-.54-.94A4.41,4.41,0,0,1,582.92,407.21Zm.94-.71h2.76a2.42,2.42,0,0,0-.08-.69,1.33,1.33,0,0,0-.25-.49,1,1,0,0,0-.42-.3,1.59,1.59,0,0,0-.55-.09,1.27,1.27,0,0,0-.52.1,1.5,1.5,0,0,0-.44.32,1.54,1.54,0,0,0-.32.49A2.66,2.66,0,0,0,583.86,406.5Z" style="fill:#4d4d4d"/><path d="M555.06,416.83a2.1,2.1,0,1,1,2.1-2.1A2.11,2.11,0,0,1,555.06,416.83Zm0-3.7a1.6,1.6,0,1,0,1.6,1.6A1.6,1.6,0,0,0,555.06,413.13Z" style="fill:#8b8f9e"/><path d="M503.34,479.13l-2.5-7.87h1.07l2.11,6.93h.05l2.16-6.93h1l-2.54,7.87Z" style="fill:#4d4d4d"/><path d="M509.54,470.75v8.38h-.91v-8.31Z" style="fill:#4d4d4d"/><path d="M515.69,475.08v4.05h-.86v-.4l-.41.22a3.25,3.25,0,0,1-.4.15,2,2,0,0,1-.43.08,3.73,3.73,0,0,1-.5,0,2.19,2.19,0,0,1-.75-.12,1.55,1.55,0,0,1-.58-.32,1.32,1.32,0,0,1-.36-.51,1.58,1.58,0,0,1,0-1.34,1.65,1.65,0,0,1,.5-.56,2.49,2.49,0,0,1,.82-.37,4.52,4.52,0,0,1,1.16-.13h.89v-.64a1.6,1.6,0,0,0-.08-.51,1,1,0,0,0-.25-.38,1.06,1.06,0,0,0-.42-.23,2.1,2.1,0,0,0-.59-.08l-.42,0a3.07,3.07,0,0,0-.42.07l-.43.12a4.13,4.13,0,0,0-.45.17l-.19-.77.52-.21a3,3,0,0,1,.49-.14,2.64,2.64,0,0,1,.49-.08,4.63,4.63,0,0,1,.54,0,3,3,0,0,1,.89.13,1.77,1.77,0,0,1,.66.37,1.54,1.54,0,0,1,.4.59A2.24,2.24,0,0,1,515.69,475.08Zm-3.47,2.46a.75.75,0,0,0,.26.63.84.84,0,0,0,.34.17,1.56,1.56,0,0,0,.46.06l.42,0a2.33,2.33,0,0,0,.38-.08l.37-.13a2.09,2.09,0,0,0,.36-.19v-1.37h-.92a3.55,3.55,0,0,0-.77.07,1.82,1.82,0,0,0-.52.2.85.85,0,0,0-.29.31A.78.78,0,0,0,512.22,477.54Z" style="fill:#4d4d4d"/><path d="M518.48,477.71a.58.58,0,0,0,0,.19.4.4,0,0,0,.13.16.61.61,0,0,0,.23.1,1.11,1.11,0,0,0,.33,0l1.58.05a2.48,2.48,0,0,1,.71.1,1.58,1.58,0,0,1,.5.27,1,1,0,0,1,.3.39,1.46,1.46,0,0,1,.09.52,1.65,1.65,0,0,1-.7,1.39,2.53,2.53,0,0,1-.89.41,4.53,4.53,0,0,1-1.23.14,4.31,4.31,0,0,1-1-.1,2.36,2.36,0,0,1-.75-.32,1.3,1.3,0,0,1-.47-.49,1.19,1.19,0,0,1-.16-.62,1.07,1.07,0,0,1,.07-.39,1.58,1.58,0,0,1,.2-.36,1.88,1.88,0,0,1,.32-.31,2,2,0,0,1,.37-.22v-.05a.76.76,0,0,1-.19-.12.61.61,0,0,1-.15-.17.72.72,0,0,1-.09-.2.61.61,0,0,1,0-.24.75.75,0,0,1,0-.26.8.8,0,0,1,.13-.24,1.26,1.26,0,0,1,.2-.2.84.84,0,0,1,.27-.13v0a2,2,0,0,1-.38-.26,1.6,1.6,0,0,1-.28-.35,2.75,2.75,0,0,1-.18-.46,2.38,2.38,0,0,1-.06-.55,2.59,2.59,0,0,1,.15-.91,1.94,1.94,0,0,1,.46-.69,2.13,2.13,0,0,1,.75-.43,3,3,0,0,1,1-.15H520l.25,0,.22,0,.2,0h1.8V474h-1.11v0a1,1,0,0,1,.24.22c.06.09.12.18.18.29a1.9,1.9,0,0,1,.12.36,2.45,2.45,0,0,1,0,.39,2.34,2.34,0,0,1-.16.88,1.62,1.62,0,0,1-.48.64,2.18,2.18,0,0,1-.76.39,3.53,3.53,0,0,1-1,.13h-.18l-.17,0-.16,0-.15,0a.52.52,0,0,0-.15.07.43.43,0,0,0-.12.11.38.38,0,0,0-.09.13A.4.4,0,0,0,518.48,477.71Zm-.45,2.08a.71.71,0,0,0,.1.39.93.93,0,0,0,.32.3,1.7,1.7,0,0,0,.51.2,3.58,3.58,0,0,0,.7.06,4.51,4.51,0,0,0,.87-.07,2.1,2.1,0,0,0,.6-.21,1.09,1.09,0,0,0,.35-.32.88.88,0,0,0,.11-.42.76.76,0,0,0-.05-.27.43.43,0,0,0-.15-.2,1,1,0,0,0-.29-.13,2.11,2.11,0,0,0-.42-.06l-2-.09a1.69,1.69,0,0,0-.27.13l-.21.18a.9.9,0,0,0-.12.24A.84.84,0,0,0,518,479.79Zm1.6-3.15a2.22,2.22,0,0,0,.62-.08,1,1,0,0,0,.43-.24,1,1,0,0,0,.26-.44,2,2,0,0,0,.09-.64,1.7,1.7,0,0,0-.09-.57,1,1,0,0,0-.27-.4,1.09,1.09,0,0,0-.42-.25,1.89,1.89,0,0,0-.56-.08,2,2,0,0,0-.56.08,1.1,1.1,0,0,0-.43.26,1.05,1.05,0,0,0-.27.43,1.8,1.8,0,0,0-.09.6,1.89,1.89,0,0,0,.09.62,1.13,1.13,0,0,0,.27.41,1.27,1.27,0,0,0,.41.23A2.11,2.11,0,0,0,519.63,476.64Z" style="fill:#4d4d4d"/><path d="M523.43,474v-.73h.7v-1l.92-.13v1.17h1.53V474h-1.53v3.32a1.75,1.75,0,0,0,.06.48,1,1,0,0,0,.19.34,1.21,1.21,0,0,0,.3.2,1.06,1.06,0,0,0,.37.06h.2l.19,0,.19,0,.21,0v.76a1.31,1.31,0,0,1-.27.06l-.25.05-.24,0h-.26a2.1,2.1,0,0,1-.64-.1,1.39,1.39,0,0,1-.5-.31,1.47,1.47,0,0,1-.34-.57,2.47,2.47,0,0,1-.13-.86V474Z" style="fill:#4d4d4d"/><path d="M535.62,473.27l-1.85,5.86h-1.16l-1.08-3.55h-.06l-1,3.55h-1.16l-1.86-5.86h1l1.43,5h.06l1.17-3.85-.39-1.17h1l1.49,5h.06l1.4-5Z" style="fill:#4d4d4d"/><path d="M536.67,476.21a4.35,4.35,0,0,1,.19-1.31,2.59,2.59,0,0,1,.52-1,2.31,2.31,0,0,1,1.75-.78,2.73,2.73,0,0,1,.94.15,1.87,1.87,0,0,1,.71.45,2,2,0,0,1,.44.74,3.11,3.11,0,0,1,.15,1v.37c0,.06,0,.12,0,.18a1,1,0,0,1,0,.17h-3.75a3,3,0,0,0,.13.95,1.76,1.76,0,0,0,.4.67,1.39,1.39,0,0,0,.59.39,2.34,2.34,0,0,0,.77.13,3.87,3.87,0,0,0,.48,0c.15,0,.3,0,.44-.06a3.6,3.6,0,0,0,.44-.12l.43-.16v.82l-.46.18-.44.11a3.31,3.31,0,0,1-.47.07,4.33,4.33,0,0,1-.53,0,3.23,3.23,0,0,1-1.11-.18,2.27,2.27,0,0,1-.86-.55,2.4,2.4,0,0,1-.54-.94A4.39,4.39,0,0,1,536.67,476.21Zm1-.71h2.76a2.84,2.84,0,0,0-.08-.69,1.33,1.33,0,0,0-.25-.49,1,1,0,0,0-.42-.3,1.6,1.6,0,0,0-.56-.09,1.25,1.25,0,0,0-.51.1,1.5,1.5,0,0,0-.44.32,1.54,1.54,0,0,0-.32.49A2.29,2.29,0,0,0,537.62,475.5Z" style="fill:#4d4d4d"/><path d="M547.58,470.75v8.38h-.89v-.38a1.77,1.77,0,0,1-.33.19,1.94,1.94,0,0,1-.36.15,2.59,2.59,0,0,1-.4.09,2.73,2.73,0,0,1-.41,0,2.64,2.64,0,0,1-1-.19,2.13,2.13,0,0,1-.78-.55,2.46,2.46,0,0,1-.51-.9,3.55,3.55,0,0,1-.19-1.22,3.77,3.77,0,0,1,.22-1.34,2.68,2.68,0,0,1,.61-1,2.61,2.61,0,0,1,.94-.62,3.22,3.22,0,0,1,1.18-.21h.3l.26,0,.23,0a.65.65,0,0,1,.21.06v-2.51Zm-2,3.25a2.07,2.07,0,0,0-.8.15,1.76,1.76,0,0,0-.61.44,2.08,2.08,0,0,0-.39.72,3.12,3.12,0,0,0-.13.95,2.82,2.82,0,0,0,.13.91,1.85,1.85,0,0,0,.35.67,1.35,1.35,0,0,0,.55.39,1.75,1.75,0,0,0,.7.14,2,2,0,0,0,.36,0,3,3,0,0,0,.32-.06,1.78,1.78,0,0,0,.29-.12l.3-.16v-3.91l-.27,0-.26,0-.26,0Z" style="fill:#4d4d4d"/><path d="M554.24,470.75v8.38h-.89v-.38a1.77,1.77,0,0,1-.33.19,1.94,1.94,0,0,1-.36.15,2.59,2.59,0,0,1-.4.09,2.73,2.73,0,0,1-.41,0,2.64,2.64,0,0,1-1-.19,2.13,2.13,0,0,1-.78-.55,2.46,2.46,0,0,1-.51-.9,3.55,3.55,0,0,1-.19-1.22,3.77,3.77,0,0,1,.22-1.34,2.68,2.68,0,0,1,.61-1,2.61,2.61,0,0,1,.94-.62,3.22,3.22,0,0,1,1.18-.21h.3l.26,0,.23,0a.65.65,0,0,1,.21.06v-2.51Zm-2,3.25a2.07,2.07,0,0,0-.8.15,1.76,1.76,0,0,0-.61.44,2.08,2.08,0,0,0-.39.72,3.12,3.12,0,0,0-.13.95,2.82,2.82,0,0,0,.13.91,1.85,1.85,0,0,0,.35.67,1.35,1.35,0,0,0,.55.39,1.75,1.75,0,0,0,.7.14,2,2,0,0,0,.36,0,3,3,0,0,0,.32-.06,1.78,1.78,0,0,0,.29-.12l.3-.16v-3.91l-.27,0-.26,0-.26,0Z" style="fill:#4d4d4d"/><path d="M556,476.21a4.06,4.06,0,0,1,.19-1.31,2.59,2.59,0,0,1,.52-1,2.31,2.31,0,0,1,1.75-.78,2.77,2.77,0,0,1,.94.15,1.76,1.76,0,0,1,.7.45,1.83,1.83,0,0,1,.44.74,3.11,3.11,0,0,1,.15,1v.55c0,.06,0,.11,0,.17H557a3,3,0,0,0,.14.95,1.63,1.63,0,0,0,.39.67,1.49,1.49,0,0,0,.6.39,2.28,2.28,0,0,0,.76.13,3.91,3.91,0,0,0,.49,0c.15,0,.3,0,.44-.06a3,3,0,0,0,.43-.12l.44-.16v.82l-.46.18-.44.11a3.31,3.31,0,0,1-.47.07,4.33,4.33,0,0,1-.53,0,3.33,3.33,0,0,1-1.12-.18,2.31,2.31,0,0,1-.85-.55,2.28,2.28,0,0,1-.54-.94A4.1,4.1,0,0,1,556,476.21Zm1-.71h2.76a2.84,2.84,0,0,0-.08-.69,1.21,1.21,0,0,0-.26-.49,1,1,0,0,0-.41-.3,1.6,1.6,0,0,0-.56-.09,1.25,1.25,0,0,0-.51.1,1.5,1.5,0,0,0-.44.32,1.75,1.75,0,0,0-.33.49A2.66,2.66,0,0,0,557,475.5Z" style="fill:#4d4d4d"/><path d="M531.06,485.83a2.1,2.1,0,1,1,2.1-2.1A2.11,2.11,0,0,1,531.06,485.83Zm0-3.7a1.6,1.6,0,1,0,1.6,1.6A1.6,1.6,0,0,0,531.06,482.13Z" style="fill:#8b8f9e"/><path d="M526.22,552v-.89l.51.1.46.07.45,0,.46,0a2.65,2.65,0,0,0,.77-.11,1.7,1.7,0,0,0,.59-.28,1.08,1.08,0,0,0,.37-.43,1.36,1.36,0,0,0,.06-1,.84.84,0,0,0-.21-.35,1.54,1.54,0,0,0-.39-.3,4,4,0,0,0-.57-.25l-1-.33a2.94,2.94,0,0,1-.59-.29,2.15,2.15,0,0,1-.45-.4,1.86,1.86,0,0,1-.3-.53,2.2,2.2,0,0,1-.1-.64,2.28,2.28,0,0,1,.19-.91,2,2,0,0,1,.56-.71,2.54,2.54,0,0,1,.86-.47,3.62,3.62,0,0,1,1.13-.17h.44l.4,0,.38,0,.36.06-.09.86-.39-.07-.36,0-.39,0H529a2.34,2.34,0,0,0-.73.1,1.65,1.65,0,0,0-.55.26,1.14,1.14,0,0,0-.34.39,1.18,1.18,0,0,0-.11.5,1.33,1.33,0,0,0,.06.42.8.8,0,0,0,.19.32,1.23,1.23,0,0,0,.33.26,2.25,2.25,0,0,0,.49.21l1,.34a3,3,0,0,1,.7.31,1.85,1.85,0,0,1,.48.44,1.53,1.53,0,0,1,.29.55,2.09,2.09,0,0,1,.1.69,2.25,2.25,0,0,1-.21,1,2.06,2.06,0,0,1-.58.76,2.56,2.56,0,0,1-.91.49,4,4,0,0,1-1.18.17l-.48,0-.45,0-.44,0Z" style="fill:#4d4d4d"/><path d="M532.42,549.21a4.06,4.06,0,0,1,.19-1.31,2.59,2.59,0,0,1,.52-1,2.13,2.13,0,0,1,.79-.58,2.22,2.22,0,0,1,1-.2,2.79,2.79,0,0,1,1,.15,1.76,1.76,0,0,1,.7.45,1.83,1.83,0,0,1,.44.74,3.11,3.11,0,0,1,.15,1v.55c0,.06,0,.11,0,.17h-3.76a3,3,0,0,0,.14.95,1.63,1.63,0,0,0,.39.67,1.49,1.49,0,0,0,.6.39,2.28,2.28,0,0,0,.76.13,3.64,3.64,0,0,0,.48,0c.16,0,.31,0,.45-.06a3.45,3.45,0,0,0,.43-.12L537,551v.82l-.46.18-.44.11a3.31,3.31,0,0,1-.47.07,4.33,4.33,0,0,1-.53,0A3.33,3.33,0,0,1,534,552a2.23,2.23,0,0,1-.85-.55,2.28,2.28,0,0,1-.54-.94A4.1,4.1,0,0,1,532.42,549.21Zm1-.71h2.76a2.4,2.4,0,0,0-.09-.69,1.2,1.2,0,0,0-.25-.49,1,1,0,0,0-.41-.3,1.64,1.64,0,0,0-.56-.09,1.3,1.3,0,0,0-.52.1,1.46,1.46,0,0,0-.43.32,1.56,1.56,0,0,0-.33.49A2.66,2.66,0,0,0,533.37,548.5Z" style="fill:#4d4d4d"/><path d="M539.74,543.75v8.38h-.91v-8.31Z" style="fill:#4d4d4d"/><path d="M542.81,543.75v8.38h-.91v-8.31Z" style="fill:#4d4d4d"/><path d="M544.84,544.35a.69.69,0,0,1,0-.25.52.52,0,0,1,.12-.19.86.86,0,0,1,.19-.11.74.74,0,0,1,.48,0,.78.78,0,0,1,.18.11.54.54,0,0,1,.11.18.71.71,0,0,1,0,.26.67.67,0,0,1,0,.24.54.54,0,0,1-.11.18.78.78,0,0,1-.18.11.74.74,0,0,1-.48,0,.86.86,0,0,1-.19-.11.57.57,0,0,1-.12-.18A.67.67,0,0,1,544.84,544.35Zm1,1.88v5.9H545V546.3Z" style="fill:#4d4d4d"/><path d="M551.67,552.13v-3.85a1.36,1.36,0,0,0-.09-.51.88.88,0,0,0-.25-.39,1.15,1.15,0,0,0-.41-.26,1.64,1.64,0,0,0-.56-.09l-.37,0a3.75,3.75,0,0,0-.67.15,2.6,2.6,0,0,0-.36.13v4.8H548V546.3l.88-.07v.4a3,3,0,0,1,.4-.2,2.72,2.72,0,0,1,.37-.13,1.8,1.8,0,0,1,.39-.08,3.19,3.19,0,0,1,.45,0,2.56,2.56,0,0,1,.87.14,1.56,1.56,0,0,1,.65.38,1.62,1.62,0,0,1,.4.62,2.55,2.55,0,0,1,.13.86v3.94Z" style="fill:#4d4d4d"/><path d="M555.38,550.71a.41.41,0,0,0,0,.19.48.48,0,0,0,.12.16.7.7,0,0,0,.23.1,1.18,1.18,0,0,0,.34,0l1.57,0a2.48,2.48,0,0,1,.71.1,1.53,1.53,0,0,1,.51.27,1,1,0,0,1,.29.39,1.27,1.27,0,0,1,.1.52,1.65,1.65,0,0,1-.18.77,1.62,1.62,0,0,1-.52.62,2.71,2.71,0,0,1-.89.41,4.62,4.62,0,0,1-1.23.14,4.4,4.4,0,0,1-1-.1,2.57,2.57,0,0,1-.75-.32,1.38,1.38,0,0,1-.47-.49,1.3,1.3,0,0,1-.16-.62,1.34,1.34,0,0,1,.07-.39,1.31,1.31,0,0,1,.21-.36,1.82,1.82,0,0,1,.31-.31,2,2,0,0,1,.37-.22v0l-.18-.12a.61.61,0,0,1-.15-.17.75.75,0,0,1-.1-.2.86.86,0,0,1,0-.24.75.75,0,0,1,0-.26.77.77,0,0,1,.12-.24,2,2,0,0,1,.21-.2.79.79,0,0,1,.26-.13v0a1.64,1.64,0,0,1-.37-.26,1.35,1.35,0,0,1-.28-.35,1.7,1.7,0,0,1-.18-.46,1.93,1.93,0,0,1-.07-.55,2.38,2.38,0,0,1,.16-.91,1.71,1.71,0,0,1,.46-.69,2,2,0,0,1,.74-.43,3,3,0,0,1,1-.15h.23l.25,0,.23,0,.19,0h1.8V547h-1.1v0a1.19,1.19,0,0,1,.23.22,1.41,1.41,0,0,1,.18.29,1.9,1.9,0,0,1,.12.36,1.67,1.67,0,0,1,0,.39,2.16,2.16,0,0,1-.16.88,1.69,1.69,0,0,1-.47.64,2.23,2.23,0,0,1-.77.39,3.48,3.48,0,0,1-1,.13h-.18l-.17,0-.16,0-.15,0a.52.52,0,0,0-.15.07l-.12.11a.35.35,0,0,0-.08.13A.4.4,0,0,0,555.38,550.71Zm-.46,2.08a.71.71,0,0,0,.11.39.85.85,0,0,0,.32.3,1.7,1.7,0,0,0,.51.2,3.54,3.54,0,0,0,.69.06,4.37,4.37,0,0,0,.87-.07,1.9,1.9,0,0,0,.6-.21,1,1,0,0,0,.35-.32.78.78,0,0,0,.11-.42.77.77,0,0,0,0-.27.53.53,0,0,0-.16-.2.91.91,0,0,0-.28-.13,2.34,2.34,0,0,0-.43-.06l-2-.09a1.46,1.46,0,0,0-.28.13,1.2,1.2,0,0,0-.2.18.7.7,0,0,0-.13.24A.84.84,0,0,0,554.92,552.79Zm1.61-3.15a2.28,2.28,0,0,0,.62-.08,1.07,1.07,0,0,0,.43-.24,1.2,1.2,0,0,0,.26-.44,2.38,2.38,0,0,0,.08-.64,1.7,1.7,0,0,0-.09-.57,1,1,0,0,0-.26-.4,1.27,1.27,0,0,0-.42-.25,1.94,1.94,0,0,0-.56-.08,2,2,0,0,0-.57.08,1.18,1.18,0,0,0-.43.26,1.05,1.05,0,0,0-.27.43,1.8,1.8,0,0,0-.09.6,1.65,1.65,0,0,0,.1.62.92.92,0,0,0,.27.41,1.09,1.09,0,0,0,.41.23A2,2,0,0,0,556.53,549.64Z" style="fill:#4d4d4d"/><path d="M560.49,549.21a4.37,4.37,0,0,1,.18-1.31,2.61,2.61,0,0,1,.53-1,2.06,2.06,0,0,1,.79-.58,2.22,2.22,0,0,1,1-.2,2.79,2.79,0,0,1,.95.15,1.84,1.84,0,0,1,.7.45,2,2,0,0,1,.44.74,3.11,3.11,0,0,1,.15,1v.37a1.09,1.09,0,0,1,0,.18c0,.06,0,.11,0,.17H561.4a3,3,0,0,0,.14.95,1.63,1.63,0,0,0,.39.67,1.49,1.49,0,0,0,.6.39,2.24,2.24,0,0,0,.76.13,3.64,3.64,0,0,0,.48,0l.45-.06a3.45,3.45,0,0,0,.43-.12l.43-.16v.82l-.45.18-.44.11a3.54,3.54,0,0,1-.47.07,4.5,4.5,0,0,1-.54,0,3.23,3.23,0,0,1-1.11-.18,2.23,2.23,0,0,1-.85-.55,2.41,2.41,0,0,1-.55-.94A4.41,4.41,0,0,1,560.49,549.21Zm1-.71h2.76a2.4,2.4,0,0,0-.09-.69,1.2,1.2,0,0,0-.25-.49,1,1,0,0,0-.41-.3,1.64,1.64,0,0,0-.56-.09,1.27,1.27,0,0,0-.52.1,1.65,1.65,0,0,0-.44.32,1.54,1.54,0,0,0-.32.49A2.66,2.66,0,0,0,561.44,548.5Z" style="fill:#4d4d4d"/><path d="M570.52,552.13v-3.85a1.6,1.6,0,0,0-.08-.51.9.9,0,0,0-.26-.39,1.15,1.15,0,0,0-.41-.26,1.6,1.6,0,0,0-.56-.09l-.37,0-.34.06a2,2,0,0,0-.33.09l-.36.13v4.8h-.91V546.3l.87-.07v.4a3,3,0,0,1,.4-.2,2.84,2.84,0,0,1,.38-.13,1.59,1.59,0,0,1,.39-.08,2.94,2.94,0,0,1,.44,0,2.66,2.66,0,0,1,.88.14,1.58,1.58,0,0,1,.64.38,1.62,1.62,0,0,1,.4.62,2.55,2.55,0,0,1,.13.86v3.94Z" style="fill:#4d4d4d"/><path d="M549.06,558.83a2.1,2.1,0,1,1,2.1-2.1A2.11,2.11,0,0,1,549.06,558.83Zm0-3.7a1.6,1.6,0,1,0,1.6,1.6A1.6,1.6,0,0,0,549.06,555.13Z" style="fill:#8b8f9e"/><path d="M494.94,607.1v7H494v-7h-2.3v-.84h5.55v.84Z" style="fill:#4d4d4d"/><path d="M497.62,611.21a4.37,4.37,0,0,1,.18-1.31,2.61,2.61,0,0,1,.53-1,2.1,2.1,0,0,1,.78-.58,2.27,2.27,0,0,1,1-.2,2.83,2.83,0,0,1,.95.15,1.84,1.84,0,0,1,.7.45,2,2,0,0,1,.44.74,3.11,3.11,0,0,1,.15,1v.37a1.09,1.09,0,0,1,0,.18,1,1,0,0,1,0,.17h-3.75a2.72,2.72,0,0,0,.14.95,1.63,1.63,0,0,0,.39.67,1.52,1.52,0,0,0,.59.39,2.34,2.34,0,0,0,.77.13,3.64,3.64,0,0,0,.48,0l.45-.06.43-.12.43-.16v.82l-.45.18-.44.11a3.54,3.54,0,0,1-.47.07,4.63,4.63,0,0,1-.54,0,3.23,3.23,0,0,1-1.11-.18,2.35,2.35,0,0,1-.86-.55,2.53,2.53,0,0,1-.54-.94A4.41,4.41,0,0,1,497.62,611.21Zm.94-.71h2.76a2.42,2.42,0,0,0-.08-.69,1.33,1.33,0,0,0-.25-.49,1,1,0,0,0-.42-.3,1.59,1.59,0,0,0-.55-.09,1.27,1.27,0,0,0-.52.1,1.65,1.65,0,0,0-.44.32,1.54,1.54,0,0,0-.32.49A2.66,2.66,0,0,0,498.56,610.5Z" style="fill:#4d4d4d"/><path d="M506.86,608.28l-.11.9-.18,0-.16,0-.16,0h-.17a1,1,0,0,0-.29,0,1,1,0,0,0-.27.11,1.81,1.81,0,0,0-.27.18,3.73,3.73,0,0,0-.31.28v4.44H504V608.3l.9-.07v.68c.12-.12.22-.23.33-.33a1.91,1.91,0,0,1,.3-.22,1.32,1.32,0,0,1,.31-.12,1.12,1.12,0,0,1,.31,0h.34l.17,0Z" style="fill:#4d4d4d"/><path d="M514.16,606.26l2.4,7.87h-1l-.64-2.12h-3.07l-.62,2.12h-1l2.48-7.87Zm.5,5L513.41,607h-.1l-1.26,4.22Z" style="fill:#4d4d4d"/><path d="M518,616.43V608.3l.88-.07v.37l.36-.17a2.84,2.84,0,0,1,.38-.13,1.77,1.77,0,0,1,.4-.08,3.15,3.15,0,0,1,.44,0,2.64,2.64,0,0,1,1,.18,1.91,1.91,0,0,1,.76.53,2.39,2.39,0,0,1,.48.91,4,4,0,0,1,.17,1.26,3.66,3.66,0,0,1-.22,1.32A2.72,2.72,0,0,1,521,614a3.6,3.6,0,0,1-1.25.21h-.44l-.21,0-.21,0v2.31Zm1.9-3a2.32,2.32,0,0,0,.8-.14,1.76,1.76,0,0,0,.64-.43,1.91,1.91,0,0,0,.42-.71,2.91,2.91,0,0,0,.15-1,3.4,3.4,0,0,0-.12-1,1.72,1.72,0,0,0-.34-.66,1.36,1.36,0,0,0-.54-.38,2,2,0,0,0-.72-.12l-.33,0a1.7,1.7,0,0,0-.31.06,1.81,1.81,0,0,0-.31.09,2.81,2.81,0,0,0-.33.13v4l.26,0,.24,0,.24,0Z" style="fill:#4d4d4d"/><path d="M524.29,611.21a4.06,4.06,0,0,1,.19-1.31,2.59,2.59,0,0,1,.52-1,2.31,2.31,0,0,1,1.75-.78,2.77,2.77,0,0,1,.94.15,1.76,1.76,0,0,1,.7.45,1.83,1.83,0,0,1,.44.74,3.11,3.11,0,0,1,.15,1v.55c0,.06,0,.11,0,.17H525.2a3,3,0,0,0,.14.95,1.75,1.75,0,0,0,.39.67,1.49,1.49,0,0,0,.6.39,2.28,2.28,0,0,0,.76.13,3.91,3.91,0,0,0,.49,0c.15,0,.3,0,.44-.06a3,3,0,0,0,.43-.12l.44-.16v.82l-.46.18-.44.11a3.31,3.31,0,0,1-.47.07,4.33,4.33,0,0,1-.53,0,3.33,3.33,0,0,1-1.12-.18,2.31,2.31,0,0,1-.85-.55,2.28,2.28,0,0,1-.54-.94A4.1,4.1,0,0,1,524.29,611.21Zm1-.71H528a2.84,2.84,0,0,0-.08-.69,1.21,1.21,0,0,0-.26-.49,1,1,0,0,0-.41-.3,1.6,1.6,0,0,0-.56-.09,1.25,1.25,0,0,0-.51.1,1.5,1.5,0,0,0-.44.32,1.75,1.75,0,0,0-.33.49A2.66,2.66,0,0,0,525.24,610.5Z" style="fill:#4d4d4d"/><path d="M531.61,605.75v8.38h-.91v-8.31Z" style="fill:#4d4d4d"/><path d="M512.06,620.83a2.1,2.1,0,1,1,2.1-2.1A2.11,2.11,0,0,1,512.06,620.83Zm0-3.7a1.6,1.6,0,1,0,1.6,1.6A1.6,1.6,0,0,0,512.06,617.13Z" style="fill:#8b8f9e"/><path d="M467.69,253.13h-2.14v-7.87h2.08a5.34,5.34,0,0,1,1.67.24,3.21,3.21,0,0,1,1.24.7,2.89,2.89,0,0,1,.77,1.17,4.46,4.46,0,0,1,.26,1.61,5.5,5.5,0,0,1-.27,1.8,3.39,3.39,0,0,1-.79,1.3,3.18,3.18,0,0,1-1.22.79A4.44,4.44,0,0,1,467.69,253.13Zm-1.19-7.06v6.26h1.21a3.41,3.41,0,0,0,1.19-.2,2.3,2.3,0,0,0,.9-.6,2.66,2.66,0,0,0,.59-1,4.86,4.86,0,0,0,.2-1.46,4,4,0,0,0-.2-1.31,2.49,2.49,0,0,0-.6-.93,2.43,2.43,0,0,0-1-.55,4.19,4.19,0,0,0-1.27-.18Z" style="fill:#4d4d4d"/><path d="M477.41,249.08v4h-.86v-.4l-.41.22a3.25,3.25,0,0,1-.4.15,2,2,0,0,1-.43.08,3.73,3.73,0,0,1-.5,0,2.19,2.19,0,0,1-.75-.12,1.55,1.55,0,0,1-.58-.32,1.32,1.32,0,0,1-.36-.51,1.58,1.58,0,0,1,0-1.34,1.65,1.65,0,0,1,.5-.56,2.49,2.49,0,0,1,.82-.37,4.52,4.52,0,0,1,1.16-.13h.89v-.64a1.6,1.6,0,0,0-.08-.51,1,1,0,0,0-.25-.38,1.06,1.06,0,0,0-.42-.23,2.1,2.1,0,0,0-.59-.08,3,3,0,0,0-.42,0,3.07,3.07,0,0,0-.42.07l-.43.12a4.13,4.13,0,0,0-.45.17l-.19-.77.52-.21a3,3,0,0,1,.49-.14,2.64,2.64,0,0,1,.49-.08,4.63,4.63,0,0,1,.54,0,3,3,0,0,1,.89.13,1.77,1.77,0,0,1,.66.37,1.54,1.54,0,0,1,.4.59A2.24,2.24,0,0,1,477.41,249.08Zm-3.47,2.46a.75.75,0,0,0,.26.63.84.84,0,0,0,.34.17,1.56,1.56,0,0,0,.46.06l.42,0a2.33,2.33,0,0,0,.38-.08l.37-.13a2.09,2.09,0,0,0,.36-.19v-1.37h-.92a3.55,3.55,0,0,0-.77.07,1.82,1.82,0,0,0-.52.2.85.85,0,0,0-.29.31A.78.78,0,0,0,473.94,251.54Z" style="fill:#4d4d4d"/><path d="M480.39,244.75v8.38h-.91v-8.31Z" style="fill:#4d4d4d"/><path d="M483.47,244.75v8.38h-.92v-8.31Z" style="fill:#4d4d4d"/><path d="M485.49,245.35a.7.7,0,0,1,.05-.25.35.35,0,0,1,.12-.19.78.78,0,0,1,.18-.11.74.74,0,0,1,.48,0,.78.78,0,0,1,.18.11.57.57,0,0,1,.12.18.8.8,0,0,1,0,.5.57.57,0,0,1-.12.18.78.78,0,0,1-.18.11.74.74,0,0,1-.48,0,.78.78,0,0,1-.18-.11.36.36,0,0,1-.12-.18A.69.69,0,0,1,485.49,245.35Zm1.05,1.88v5.9h-.91V247.3Z" style="fill:#4d4d4d"/><path d="M492.32,253.13v-3.85a1.6,1.6,0,0,0-.08-.51,1,1,0,0,0-.25-.39,1.19,1.19,0,0,0-.42-.26A1.6,1.6,0,0,0,491,248l-.37,0a1.91,1.91,0,0,0-.33.06,1.89,1.89,0,0,0-.34.09l-.36.13v4.8h-.91V247.3l.87-.07v.4a3,3,0,0,1,.4-.2,2.84,2.84,0,0,1,.38-.13,1.59,1.59,0,0,1,.39-.08,2.94,2.94,0,0,1,.44,0,2.66,2.66,0,0,1,.88.14,1.69,1.69,0,0,1,.65.38,1.72,1.72,0,0,1,.39.62,2.55,2.55,0,0,1,.13.86v3.94Z" style="fill:#4d4d4d"/><path d="M496,251.71a.41.41,0,0,0,0,.19.4.4,0,0,0,.13.16.55.55,0,0,0,.23.1,1.06,1.06,0,0,0,.33,0l1.57.05a2.55,2.55,0,0,1,.72.1,1.58,1.58,0,0,1,.5.27,1.14,1.14,0,0,1,.3.39,1.46,1.46,0,0,1,.09.52,1.77,1.77,0,0,1-.17.77,1.65,1.65,0,0,1-.53.62,2.62,2.62,0,0,1-.89.41,4.53,4.53,0,0,1-1.23.14,4.25,4.25,0,0,1-1-.1,2.36,2.36,0,0,1-.75-.32,1.3,1.3,0,0,1-.47-.49,1.19,1.19,0,0,1-.16-.62,1.07,1.07,0,0,1,.07-.39,1.27,1.27,0,0,1,.2-.36,1.82,1.82,0,0,1,.31-.31,2.08,2.08,0,0,1,.38-.22v0a.76.76,0,0,1-.19-.12.61.61,0,0,1-.15-.17,1.24,1.24,0,0,1-.1-.2.88.88,0,0,1,0-.24.75.75,0,0,1,0-.26.8.8,0,0,1,.13-.24,1.26,1.26,0,0,1,.2-.2.91.91,0,0,1,.26-.13v0a1.9,1.9,0,0,1-.37-.26,1.6,1.6,0,0,1-.28-.35,1.7,1.7,0,0,1-.18-.46,2.36,2.36,0,0,1-.07-.55,2.59,2.59,0,0,1,.16-.91,1.82,1.82,0,0,1,.46-.69,2,2,0,0,1,.75-.43,3,3,0,0,1,1-.15h.24l.24,0,.23,0,.19,0H500V248h-1.1v0a.8.8,0,0,1,.23.22,1.41,1.41,0,0,1,.18.29,1.09,1.09,0,0,1,.12.36,1.67,1.67,0,0,1,.05.39,2.16,2.16,0,0,1-.17.88,1.51,1.51,0,0,1-.47.64,2.18,2.18,0,0,1-.76.39,3.56,3.56,0,0,1-1,.13h-.18l-.16,0-.17,0-.15,0-.15.07-.12.11a.57.57,0,0,0-.08.13A.4.4,0,0,0,496,251.71Zm-.46,2.08a.71.71,0,0,0,.11.39.85.85,0,0,0,.32.3,1.7,1.7,0,0,0,.51.2,3.58,3.58,0,0,0,.7.06,4.51,4.51,0,0,0,.87-.07,2.1,2.1,0,0,0,.6-.21,1,1,0,0,0,.34-.32.79.79,0,0,0,.12-.42.76.76,0,0,0-.05-.27.39.39,0,0,0-.16-.2.81.81,0,0,0-.28-.13,2.22,2.22,0,0,0-.42-.06l-2-.09a1.69,1.69,0,0,0-.27.13l-.21.18a.68.68,0,0,0-.12.24A.86.86,0,0,0,495.57,253.79Zm1.61-3.15a2.22,2.22,0,0,0,.62-.08,1,1,0,0,0,.43-.24,1.07,1.07,0,0,0,.26-.44,2,2,0,0,0,.08-.64,1.7,1.7,0,0,0-.09-.57.93.93,0,0,0-.26-.4,1.27,1.27,0,0,0-.42-.25,1.89,1.89,0,0,0-.56-.08,1.94,1.94,0,0,0-.56.08,1.1,1.1,0,0,0-.43.26,1.05,1.05,0,0,0-.27.43,1.8,1.8,0,0,0-.09.6,1.89,1.89,0,0,0,.09.62,1.13,1.13,0,0,0,.27.41,1.18,1.18,0,0,0,.41.23A2.11,2.11,0,0,0,497.18,250.64Z" style="fill:#4d4d4d"/><path d="M501.14,250.21a4.06,4.06,0,0,1,.19-1.31,2.59,2.59,0,0,1,.52-1,2.31,2.31,0,0,1,1.75-.78,2.77,2.77,0,0,1,.94.15,1.76,1.76,0,0,1,.7.45,1.83,1.83,0,0,1,.44.74,3.11,3.11,0,0,1,.15,1v.55c0,.06,0,.11,0,.17h-3.76a3,3,0,0,0,.14,1,1.63,1.63,0,0,0,.39.67,1.49,1.49,0,0,0,.6.39,2.28,2.28,0,0,0,.76.13,3.91,3.91,0,0,0,.49,0c.15,0,.3,0,.44-.06a3,3,0,0,0,.43-.12l.44-.16v.82l-.46.18-.44.11a3.31,3.31,0,0,1-.47.07,4.33,4.33,0,0,1-.53,0,3.33,3.33,0,0,1-1.12-.18,2.31,2.31,0,0,1-.85-.55,2.28,2.28,0,0,1-.54-.94A4.1,4.1,0,0,1,501.14,250.21Zm.95-.71h2.76a2.84,2.84,0,0,0-.08-.69,1.21,1.21,0,0,0-.26-.49,1,1,0,0,0-.41-.3,1.6,1.6,0,0,0-.56-.09,1.25,1.25,0,0,0-.51.1,1.5,1.5,0,0,0-.44.32,1.75,1.75,0,0,0-.33.49A2.66,2.66,0,0,0,502.09,249.5Z" style="fill:#4d4d4d"/><path d="M515,247.27l-1.85,5.86H512l-1.08-3.55h-.06l-1,3.55h-1.17l-1.86-5.86h1.05l1.42,5h.06l1.17-3.85-.39-1.17h1l1.49,5h.06l1.4-5Z" style="fill:#4d4d4d"/><path d="M516.05,250.21a4.37,4.37,0,0,1,.18-1.31,2.61,2.61,0,0,1,.53-1,2.1,2.1,0,0,1,.78-.58,2.23,2.23,0,0,1,1-.2,2.73,2.73,0,0,1,.94.15,1.8,1.8,0,0,1,.71.45,2,2,0,0,1,.44.74,3.11,3.11,0,0,1,.15,1v.37a1.09,1.09,0,0,1,0,.18,1,1,0,0,1,0,.17H517a2.72,2.72,0,0,0,.14,1,1.63,1.63,0,0,0,.39.67,1.45,1.45,0,0,0,.59.39,2.34,2.34,0,0,0,.77.13,3.64,3.64,0,0,0,.48,0c.15,0,.3,0,.44-.06a3.6,3.6,0,0,0,.44-.12l.43-.16v.82l-.46.18-.43.11a3.54,3.54,0,0,1-.47.07,4.63,4.63,0,0,1-.54,0,3.23,3.23,0,0,1-1.11-.18,2.27,2.27,0,0,1-.86-.55,2.53,2.53,0,0,1-.54-.94A4.41,4.41,0,0,1,516.05,250.21Zm.94-.71h2.76a2.42,2.42,0,0,0-.08-.69,1.33,1.33,0,0,0-.25-.49,1,1,0,0,0-.42-.3,1.59,1.59,0,0,0-.55-.09,1.27,1.27,0,0,0-.52.1,1.5,1.5,0,0,0-.44.32,1.54,1.54,0,0,0-.32.49A2.66,2.66,0,0,0,517,249.5Z" style="fill:#4d4d4d"/><path d="M522.09,250.21a4.35,4.35,0,0,1,.19-1.31,2.59,2.59,0,0,1,.52-1,2.31,2.31,0,0,1,1.75-.78,2.73,2.73,0,0,1,.94.15,1.87,1.87,0,0,1,.71.45,1.93,1.93,0,0,1,.43.74,2.86,2.86,0,0,1,.16,1v.37c0,.06,0,.12,0,.18a1,1,0,0,1,0,.17H523a3,3,0,0,0,.13,1,1.88,1.88,0,0,0,.39.67,1.49,1.49,0,0,0,.6.39,2.3,2.3,0,0,0,.77.13,3.87,3.87,0,0,0,.48,0c.15,0,.3,0,.44-.06a3.6,3.6,0,0,0,.44-.12l.43-.16v.82l-.46.18-.44.11a3.31,3.31,0,0,1-.47.07,4.33,4.33,0,0,1-.53,0,3.23,3.23,0,0,1-1.11-.18,2.21,2.21,0,0,1-1.4-1.49A4.39,4.39,0,0,1,522.09,250.21Zm.95-.71h2.76a2.84,2.84,0,0,0-.08-.69,1.33,1.33,0,0,0-.25-.49,1,1,0,0,0-.42-.3,1.6,1.6,0,0,0-.56-.09,1.25,1.25,0,0,0-.51.1,1.5,1.5,0,0,0-.44.32,1.54,1.54,0,0,0-.32.49A2.29,2.29,0,0,0,523,249.5Z" style="fill:#4d4d4d"/><path d="M531.33,247.28l-.1.9-.18,0a.51.51,0,0,0-.17,0l-.15,0h-.18a.9.9,0,0,0-.28,0,1,1,0,0,0-.27.11,1.41,1.41,0,0,0-.27.18l-.32.28v4.44h-.91V247.3l.9-.07v.68q.17-.18.33-.33a1.91,1.91,0,0,1,.3-.22,1.17,1.17,0,0,1,.31-.12,1.12,1.12,0,0,1,.31-.05H531a.9.9,0,0,1,.16,0Z" style="fill:#4d4d4d"/><path d="M498.06,259.83a2.1,2.1,0,1,1,2.1-2.1A2.11,2.11,0,0,1,498.06,259.83Zm0-3.7a1.6,1.6,0,1,0,1.6,1.6A1.6,1.6,0,0,0,498.06,256.13Z" style="fill:#8b8f9e"/><path d="M133.52,198.13v-7.87h.95v7h3v.84Z" style="fill:#4d4d4d"/><path d="M138.59,195.21a4.37,4.37,0,0,1,.18-1.31,2.61,2.61,0,0,1,.53-1,2.1,2.1,0,0,1,.78-.58,2.23,2.23,0,0,1,1-.2,2.83,2.83,0,0,1,1,.15,1.84,1.84,0,0,1,.7.45,2,2,0,0,1,.44.74,3.11,3.11,0,0,1,.15,1v.37a1.09,1.09,0,0,1,0,.18c0,.06,0,.11,0,.17H139.5a3,3,0,0,0,.14,1,1.63,1.63,0,0,0,.39.67,1.52,1.52,0,0,0,.59.39,2.34,2.34,0,0,0,.77.13,3.64,3.64,0,0,0,.48,0c.15,0,.3,0,.45-.06l.43-.12.43-.16v.82l-.45.18-.44.11a3.54,3.54,0,0,1-.47.07,4.63,4.63,0,0,1-.54,0,3.23,3.23,0,0,1-1.11-.18,2.35,2.35,0,0,1-.86-.55,2.53,2.53,0,0,1-.54-.94A4.41,4.41,0,0,1,138.59,195.21Zm.94-.71h2.77a2.4,2.4,0,0,0-.09-.69,1.33,1.33,0,0,0-.25-.49,1,1,0,0,0-.41-.3,1.69,1.69,0,0,0-.56-.09,1.27,1.27,0,0,0-.52.1,1.65,1.65,0,0,0-.44.32,1.54,1.54,0,0,0-.32.49A3.18,3.18,0,0,0,139.53,194.5Z" style="fill:#4d4d4d"/><path d="M144.63,195.21a4.35,4.35,0,0,1,.19-1.31,2.74,2.74,0,0,1,.52-1,2.31,2.31,0,0,1,1.75-.78,2.73,2.73,0,0,1,.94.15,1.87,1.87,0,0,1,.71.45,2,2,0,0,1,.44.74,3.11,3.11,0,0,1,.15,1v.37c0,.06,0,.12,0,.18a1,1,0,0,1,0,.17h-3.75a3,3,0,0,0,.13,1,1.76,1.76,0,0,0,.4.67,1.45,1.45,0,0,0,.59.39,2.34,2.34,0,0,0,.77.13,3.64,3.64,0,0,0,.48,0c.15,0,.3,0,.44-.06a3.6,3.6,0,0,0,.44-.12l.43-.16v.82l-.46.18-.44.11a3.17,3.17,0,0,1-.46.07,4.63,4.63,0,0,1-.54,0,3.23,3.23,0,0,1-1.11-.18,2.27,2.27,0,0,1-.86-.55,2.53,2.53,0,0,1-.54-.94A4.39,4.39,0,0,1,144.63,195.21Zm1-.71h2.76a2.84,2.84,0,0,0-.08-.69,1.33,1.33,0,0,0-.25-.49,1,1,0,0,0-.42-.3,1.6,1.6,0,0,0-.56-.09,1.25,1.25,0,0,0-.51.1,1.5,1.5,0,0,0-.44.32,1.54,1.54,0,0,0-.32.49A2.29,2.29,0,0,0,145.58,194.5Z" style="fill:#4d4d4d"/><path d="M154.67,198.13v-3.85a1.36,1.36,0,0,0-.09-.51.88.88,0,0,0-.25-.39,1.15,1.15,0,0,0-.41-.26,1.64,1.64,0,0,0-.56-.09l-.37,0a1.86,1.86,0,0,0-.34.06l-.34.09-.36.13v4.8H151V192.3l.88-.07v.4a2.89,2.89,0,0,1,.39-.2,3.43,3.43,0,0,1,.38-.13,1.8,1.8,0,0,1,.39-.08,3.19,3.19,0,0,1,.45,0,2.6,2.6,0,0,1,.87.14,1.6,1.6,0,0,1,1,1,2.83,2.83,0,0,1,.13.86v3.94Z" style="fill:#4d4d4d"/><path d="M157.19,198v-.83a3,3,0,0,0,.4.11,3,3,0,0,0,.42.06l.42,0h.45a2.26,2.26,0,0,0,.55-.06,1.42,1.42,0,0,0,.41-.19.72.72,0,0,0,.25-.27.73.73,0,0,0,.08-.36.78.78,0,0,0,0-.31A.79.79,0,0,0,160,196a2.09,2.09,0,0,0-.31-.2,2.56,2.56,0,0,0-.45-.16l-.68-.2a2.65,2.65,0,0,1-.54-.22,1.79,1.79,0,0,1-.39-.33,1.44,1.44,0,0,1-.24-.42,1.78,1.78,0,0,1-.08-.53,1.5,1.5,0,0,1,.15-.67,1.62,1.62,0,0,1,.43-.55,1.88,1.88,0,0,1,.67-.36,3.06,3.06,0,0,1,.88-.13h.39l.35,0,.35.05a1.8,1.8,0,0,1,.32.06l-.1.79-.34-.06-.32,0-.33,0h-.37a2,2,0,0,0-.51.06,1.39,1.39,0,0,0-.39.17.71.71,0,0,0-.23.26.69.69,0,0,0-.08.32.84.84,0,0,0,.05.29.57.57,0,0,0,.15.23,1.06,1.06,0,0,0,.26.17,1.59,1.59,0,0,0,.37.14l.68.18a3.35,3.35,0,0,1,.62.24,1.94,1.94,0,0,1,.44.33,1.37,1.37,0,0,1,.27.42,1.7,1.7,0,0,1,.08.51,1.76,1.76,0,0,1-.16.76,1.79,1.79,0,0,1-.46.6,2,2,0,0,1-.7.39,2.93,2.93,0,0,1-.9.14l-.47,0c-.14,0-.28,0-.41,0l-.39-.06C157.44,198.07,157.31,198.05,157.19,198Z" style="fill:#4d4d4d"/><path d="M147.06,204.83a2.1,2.1,0,1,1,2.1-2.1A2.11,2.11,0,0,1,147.06,204.83Zm0-3.7a1.6,1.6,0,1,0,1.6,1.6A1.6,1.6,0,0,0,147.06,201.13Z" style="fill:#8b8f9e"/><path d="M155,158.11v3h-.95v-7.87h2.09a3.9,3.9,0,0,1,1.13.16,2.43,2.43,0,0,1,.84.46,1.92,1.92,0,0,1,.52.71,2.58,2.58,0,0,1,.17.94,3.08,3.08,0,0,1-.2,1.13,2.2,2.2,0,0,1-.57.83,2.56,2.56,0,0,1-.92.5,4.22,4.22,0,0,1-1.24.17h-.42l-.21,0Zm0-4v3.24l.22,0,.19,0h.42a2.85,2.85,0,0,0,.86-.11,1.83,1.83,0,0,0,.62-.33,1.3,1.3,0,0,0,.38-.54,2,2,0,0,0,.13-.73,1.85,1.85,0,0,0-.12-.69,1.21,1.21,0,0,0-.33-.49,1.58,1.58,0,0,0-.56-.3,3,3,0,0,0-.78-.09Z" style="fill:#4d4d4d"/><path d="M160.38,153.35a.7.7,0,0,1,.05-.25.52.52,0,0,1,.12-.19.78.78,0,0,1,.18-.11.74.74,0,0,1,.48,0,.61.61,0,0,1,.18.11.57.57,0,0,1,.12.18.71.71,0,0,1,0,.26.67.67,0,0,1,0,.24.57.57,0,0,1-.12.18.61.61,0,0,1-.18.11.74.74,0,0,1-.48,0,.78.78,0,0,1-.18-.11.57.57,0,0,1-.12-.18A.69.69,0,0,1,160.38,153.35Zm1.05,1.88v5.9h-.91V155.3Z" style="fill:#4d4d4d"/><path d="M163.23,158.21a4.06,4.06,0,0,1,.19-1.31,2.46,2.46,0,0,1,.52-1,2.13,2.13,0,0,1,.79-.58,2.22,2.22,0,0,1,1-.2,2.79,2.79,0,0,1,.95.15,1.84,1.84,0,0,1,.7.45,2,2,0,0,1,.44.74,3.11,3.11,0,0,1,.15,1v.55a1,1,0,0,0,0,.17h-3.76a3,3,0,0,0,.14,1,1.63,1.63,0,0,0,.39.67,1.49,1.49,0,0,0,.6.39,2.28,2.28,0,0,0,.76.13,3.64,3.64,0,0,0,.48,0c.16,0,.3,0,.45-.06a3.45,3.45,0,0,0,.43-.12l.43-.16v.82l-.45.18-.44.11a3.54,3.54,0,0,1-.47.07,4.39,4.39,0,0,1-.54,0,3.23,3.23,0,0,1-1.11-.18,2.23,2.23,0,0,1-.85-.55,2.28,2.28,0,0,1-.54-.94A4.1,4.1,0,0,1,163.23,158.21Zm1-.71h2.76a2.4,2.4,0,0,0-.09-.69,1.2,1.2,0,0,0-.25-.49,1,1,0,0,0-.41-.3,1.64,1.64,0,0,0-.56-.09,1.27,1.27,0,0,0-.52.1,1.65,1.65,0,0,0-.44.32,1.54,1.54,0,0,0-.32.49A2.66,2.66,0,0,0,164.18,157.5Z" style="fill:#4d4d4d"/><path d="M169.11,156v-.73h.71v-1l.91-.13v1.17h1.53V156h-1.53v3.32a1.43,1.43,0,0,0,.07.48.75.75,0,0,0,.19.34,1,1,0,0,0,.29.2,1.1,1.1,0,0,0,.37.06h.21l.18,0,.19,0,.21,0v.76a1.31,1.31,0,0,1-.27.06l-.24.05-.25,0h-.26a2.08,2.08,0,0,1-.63-.1,1.35,1.35,0,0,1-.51-.31,1.47,1.47,0,0,1-.34-.57,2.75,2.75,0,0,1-.12-.86V156Z" style="fill:#4d4d4d"/><path d="M173.5,158.21a4.06,4.06,0,0,1,.19-1.31,2.59,2.59,0,0,1,.52-1,2.13,2.13,0,0,1,.79-.58,2.22,2.22,0,0,1,.95-.2,2.79,2.79,0,0,1,1,.15,1.76,1.76,0,0,1,.7.45,1.83,1.83,0,0,1,.44.74,3.11,3.11,0,0,1,.15,1v.55c0,.06,0,.11,0,.17h-3.76a3,3,0,0,0,.14,1,1.63,1.63,0,0,0,.39.67,1.49,1.49,0,0,0,.6.39,2.28,2.28,0,0,0,.76.13,3.64,3.64,0,0,0,.48,0c.16,0,.31,0,.45-.06a3.45,3.45,0,0,0,.43-.12l.44-.16v.82l-.46.18-.44.11a3.54,3.54,0,0,1-.47.07,4.33,4.33,0,0,1-.53,0,3.33,3.33,0,0,1-1.12-.18,2.31,2.31,0,0,1-.85-.55,2.28,2.28,0,0,1-.54-.94A4.1,4.1,0,0,1,173.5,158.21Zm.95-.71h2.76a2.4,2.4,0,0,0-.09-.69,1.2,1.2,0,0,0-.25-.49,1,1,0,0,0-.41-.3,1.64,1.64,0,0,0-.56-.09,1.3,1.3,0,0,0-.52.1,1.46,1.46,0,0,0-.43.32,1.56,1.56,0,0,0-.33.49A2.66,2.66,0,0,0,174.45,157.5Z" style="fill:#4d4d4d"/><path d="M182.74,155.28l-.11.9-.18,0a.45.45,0,0,0-.16,0l-.16,0H182a.86.86,0,0,0-.28,0,1,1,0,0,0-.27.11,1.86,1.86,0,0,0-.28.18c-.09.08-.2.17-.31.28v4.44h-.91V155.3l.9-.07v.68l.32-.33a2.58,2.58,0,0,1,.31-.22,1.25,1.25,0,0,1,.3-.12,1.19,1.19,0,0,1,.32-.05h.34l.16,0Z" style="fill:#4d4d4d"/><path d="M189,158a3.71,3.71,0,0,1-.22,1.33,2.69,2.69,0,0,1-.64,1,2.59,2.59,0,0,1-1,.63,3.51,3.51,0,0,1-1.24.21h-.45l-.42,0-.44,0-.47-.07v-8.25l.91-.07v2.84l.38-.18a2.4,2.4,0,0,1,.38-.12,2.53,2.53,0,0,1,.38-.07,2.73,2.73,0,0,1,.41,0,2.55,2.55,0,0,1,1,.18,1.94,1.94,0,0,1,.77.53,2.33,2.33,0,0,1,.48.88A4.25,4.25,0,0,1,189,158Zm-.95.08a3.3,3.3,0,0,0-.12-.94,1.63,1.63,0,0,0-.34-.64,1.36,1.36,0,0,0-.54-.38,2,2,0,0,0-.73-.12l-.32,0a1.7,1.7,0,0,0-.31.06,1.58,1.58,0,0,0-.31.09l-.33.13v4l.26,0h.24l.23,0H186a2.05,2.05,0,0,0,.79-.14,1.73,1.73,0,0,0,.65-.42,1.81,1.81,0,0,0,.42-.72A3.11,3.11,0,0,0,188,158.11Z" style="fill:#4d4d4d"/><path d="M191.61,155.23v3.88a1.82,1.82,0,0,0,.08.55,1,1,0,0,0,.25.39,1,1,0,0,0,.4.24,1.55,1.55,0,0,0,.55.09l.39,0,.31-.05.31-.09.37-.14V155.3l.91-.07v5.9h-.88v-.36a2.81,2.81,0,0,1-.38.2,2.6,2.6,0,0,1-.36.13l-.39.09a3,3,0,0,1-.43,0,2.69,2.69,0,0,1-.89-.13,1.55,1.55,0,0,1-.63-.38,1.68,1.68,0,0,1-.39-.63,2.57,2.57,0,0,1-.13-.87V155.3Z" style="fill:#4d4d4d"/><path d="M200.18,155.28l-.11.9-.18,0-.16,0-.16,0h-.17a1,1,0,0,0-.29,0,1,1,0,0,0-.27.11,1.81,1.81,0,0,0-.27.18,3.73,3.73,0,0,0-.31.28v4.44h-.92V155.3l.9-.07v.68l.33-.33a1.91,1.91,0,0,1,.3-.22,1.32,1.32,0,0,1,.31-.12,1.12,1.12,0,0,1,.31-.05h.34l.17,0Z" style="fill:#4d4d4d"/><path d="M201.2,158.21a4.37,4.37,0,0,1,.18-1.31,2.61,2.61,0,0,1,.53-1,2.1,2.1,0,0,1,.78-.58,2.23,2.23,0,0,1,1-.2,2.73,2.73,0,0,1,.94.15,1.8,1.8,0,0,1,.71.45,2,2,0,0,1,.44.74,3.11,3.11,0,0,1,.15,1v.37a1.09,1.09,0,0,1,0,.18,1,1,0,0,1,0,.17h-3.75a2.72,2.72,0,0,0,.14,1,1.63,1.63,0,0,0,.39.67,1.52,1.52,0,0,0,.59.39,2.34,2.34,0,0,0,.77.13,3.64,3.64,0,0,0,.48,0c.15,0,.3,0,.44-.06a3.6,3.6,0,0,0,.44-.12l.43-.16v.82l-.45.18-.44.11a3.54,3.54,0,0,1-.47.07,4.63,4.63,0,0,1-.54,0,3.23,3.23,0,0,1-1.11-.18,2.35,2.35,0,0,1-.86-.55,2.53,2.53,0,0,1-.54-.94A4.41,4.41,0,0,1,201.2,158.21Zm.94-.71h2.76a2.42,2.42,0,0,0-.08-.69,1.33,1.33,0,0,0-.25-.49,1,1,0,0,0-.42-.3,1.59,1.59,0,0,0-.55-.09,1.27,1.27,0,0,0-.52.1,1.5,1.5,0,0,0-.44.32,1.54,1.54,0,0,0-.32.49A2.66,2.66,0,0,0,202.14,157.5Z" style="fill:#4d4d4d"/><path d="M211.23,161.13v-3.85a1.36,1.36,0,0,0-.09-.51.88.88,0,0,0-.25-.39,1.15,1.15,0,0,0-.41-.26,1.64,1.64,0,0,0-.56-.09l-.37,0a3.75,3.75,0,0,0-.67.15,2.6,2.6,0,0,0-.36.13v4.8h-.92V155.3l.88-.07v.4a3,3,0,0,1,.4-.2,2.72,2.72,0,0,1,.37-.13,1.8,1.8,0,0,1,.39-.08,3.19,3.19,0,0,1,.45,0,2.56,2.56,0,0,1,.87.14,1.56,1.56,0,0,1,.65.38,1.62,1.62,0,0,1,.4.62,2.55,2.55,0,0,1,.13.86v3.94Z" style="fill:#4d4d4d"/><path d="M183.06,167.83a2.1,2.1,0,1,1,2.1-2.1A2.11,2.11,0,0,1,183.06,167.83Zm0-3.7a1.6,1.6,0,1,0,1.6,1.6A1.6,1.6,0,0,0,183.06,164.13Z" style="fill:#8b8f9e"/><path d="M276.23,155.22a3.53,3.53,0,0,1-1.18-.18,2.17,2.17,0,0,1-.85-.52,2.11,2.11,0,0,1-.52-.87,3.73,3.73,0,0,1-.18-1.22v-5.17h.95v5.06a3.62,3.62,0,0,0,.11.94,1.46,1.46,0,0,0,.33.63,1.41,1.41,0,0,0,.58.37,2.57,2.57,0,0,0,.84.12,2.15,2.15,0,0,0,.79-.13,1.4,1.4,0,0,0,.57-.38,1.59,1.59,0,0,0,.36-.62,2.84,2.84,0,0,0,.12-.86v-5.13h.92v5.09a3.32,3.32,0,0,1-.2,1.22,2.47,2.47,0,0,1-.57.9,2.5,2.5,0,0,1-.9.56A3.59,3.59,0,0,1,276.23,155.22Z" style="fill:#4d4d4d"/><path d="M281.26,147.35a.69.69,0,0,1,0-.25.35.35,0,0,1,.12-.19.78.78,0,0,1,.18-.11.74.74,0,0,1,.48,0,.61.61,0,0,1,.18.11.57.57,0,0,1,.12.18.8.8,0,0,1,0,.5.57.57,0,0,1-.12.18.61.61,0,0,1-.18.11.74.74,0,0,1-.48,0,.78.78,0,0,1-.18-.11.36.36,0,0,1-.12-.18A.67.67,0,0,1,281.26,147.35Zm1,1.88v5.9h-.91V149.3Z" style="fill:#4d4d4d"/><path d="M283.93,150v-.73h.71v-1l.91-.13v1.17h1.54V150h-1.54v3.32a1.43,1.43,0,0,0,.07.48.75.75,0,0,0,.19.34,1,1,0,0,0,.29.2,1.1,1.1,0,0,0,.37.06h.21l.18,0,.2,0,.21,0v.76l-.27.06-.25.05-.24,0h-.27a2.08,2.08,0,0,1-.63-.1,1.35,1.35,0,0,1-.51-.31,1.47,1.47,0,0,1-.34-.57,2.75,2.75,0,0,1-.12-.86V150Z" style="fill:#4d4d4d"/><path d="M292.31,155.13v-3.85a1.36,1.36,0,0,0-.09-.51.88.88,0,0,0-.25-.39,1.15,1.15,0,0,0-.41-.26A1.64,1.64,0,0,0,291,150l-.38,0a1.86,1.86,0,0,0-.34.06l-.33.09-.36.13v4.8h-.91v-8.31l.91-.07v2.85l.39-.18a1.9,1.9,0,0,1,.38-.13,2.32,2.32,0,0,1,.38-.07,2.81,2.81,0,0,1,.43,0,2.6,2.6,0,0,1,.87.14,1.6,1.6,0,0,1,1,1,2.83,2.83,0,0,1,.13.86v3.94Z" style="fill:#4d4d4d"/><path d="M296.12,149.23v3.88a1.55,1.55,0,0,0,.09.55.86.86,0,0,0,.24.39,1,1,0,0,0,.4.24,1.6,1.6,0,0,0,.56.09l.38,0,.32-.05.3-.09.38-.14V149.3l.91-.07v5.9h-.89v-.36a2.72,2.72,0,0,1-.37.2,2.32,2.32,0,0,1-.37.13,2.23,2.23,0,0,1-.39.09,2.9,2.9,0,0,1-.43,0,2.59,2.59,0,0,1-.88-.13,1.58,1.58,0,0,1-.64-.38,1.68,1.68,0,0,1-.39-.63,2.57,2.57,0,0,1-.13-.87V149.3Z" style="fill:#4d4d4d"/><path d="M301.73,147.35a.69.69,0,0,1,0-.25.52.52,0,0,1,.12-.19.78.78,0,0,1,.18-.11.67.67,0,0,1,.24,0,.61.61,0,0,1,.24,0,.5.5,0,0,1,.18.11.57.57,0,0,1,.12.18.71.71,0,0,1,0,.26.67.67,0,0,1,0,.24.57.57,0,0,1-.12.18.5.5,0,0,1-.18.11.61.61,0,0,1-.24,0,.67.67,0,0,1-.24,0,.78.78,0,0,1-.18-.11.57.57,0,0,1-.12-.18A.67.67,0,0,1,301.73,147.35Zm1,1.88v5.9h-.91V149.3Z" style="fill:#4d4d4d"/><path d="M304.5,150v-.76h3.91V150l-3.07,4.29v.05h3.13v.76h-4.14v-.78l3.07-4.28v0Z" style="fill:#4d4d4d"/><path d="M309.67,152.21a4.06,4.06,0,0,1,.19-1.31,2.59,2.59,0,0,1,.52-1,2.13,2.13,0,0,1,.79-.58,2.22,2.22,0,0,1,.95-.2,2.79,2.79,0,0,1,.95.15,1.76,1.76,0,0,1,.7.45,1.83,1.83,0,0,1,.44.74,3.11,3.11,0,0,1,.15,1v.55c0,.06,0,.11,0,.17h-3.76a3,3,0,0,0,.14,1,1.63,1.63,0,0,0,.39.67,1.49,1.49,0,0,0,.6.39,2.28,2.28,0,0,0,.76.13,3.64,3.64,0,0,0,.48,0c.16,0,.31,0,.45-.06a3.45,3.45,0,0,0,.43-.12l.44-.16v.82l-.46.18-.44.11a3.54,3.54,0,0,1-.47.07,4.33,4.33,0,0,1-.53,0,3.33,3.33,0,0,1-1.12-.18,2.23,2.23,0,0,1-.85-.55,2.28,2.28,0,0,1-.54-.94A4.1,4.1,0,0,1,309.67,152.21Zm.95-.71h2.76a2.4,2.4,0,0,0-.09-.69,1.2,1.2,0,0,0-.25-.49,1,1,0,0,0-.41-.3,1.64,1.64,0,0,0-.56-.09,1.3,1.3,0,0,0-.52.1,1.46,1.46,0,0,0-.43.32,1.56,1.56,0,0,0-.33.49A2.66,2.66,0,0,0,310.62,151.5Z" style="fill:#4d4d4d"/><path d="M319.7,155.13v-3.85a1.6,1.6,0,0,0-.08-.51,1,1,0,0,0-.25-.39,1.19,1.19,0,0,0-.42-.26,1.6,1.6,0,0,0-.56-.09l-.37,0-.33.06a1.89,1.89,0,0,0-.34.09l-.36.13v4.8h-.91V149.3l.87-.07v.4a3,3,0,0,1,.4-.2,2.84,2.84,0,0,1,.38-.13,1.59,1.59,0,0,1,.39-.08,2.94,2.94,0,0,1,.44,0,2.66,2.66,0,0,1,.88.14,1.69,1.69,0,0,1,.65.38,1.72,1.72,0,0,1,.39.62,2.55,2.55,0,0,1,.13.86v3.94Z" style="fill:#4d4d4d"/><path d="M297.06,161.83a2.1,2.1,0,1,1,2.1-2.1A2.11,2.11,0,0,1,297.06,161.83Zm0-3.7a1.6,1.6,0,1,0,1.6,1.6A1.6,1.6,0,0,0,297.06,158.13Z" style="fill:#8b8f9e"/><path d="M413.14,219.13H411v-7.87h2.08a5.39,5.39,0,0,1,1.67.24,3.28,3.28,0,0,1,1.24.7,3,3,0,0,1,.77,1.17A4.69,4.69,0,0,1,417,215a5.5,5.5,0,0,1-.27,1.8,3.52,3.52,0,0,1-.79,1.3,3.26,3.26,0,0,1-1.22.79A4.48,4.48,0,0,1,413.14,219.13ZM412,212.07v6.26h1.21a3.45,3.45,0,0,0,1.19-.2,2.3,2.3,0,0,0,.9-.6,2.64,2.64,0,0,0,.58-1A4.55,4.55,0,0,0,416,215a3.75,3.75,0,0,0-.21-1.31,2.35,2.35,0,0,0-.59-.93,2.43,2.43,0,0,0-.95-.55,4.21,4.21,0,0,0-1.28-.18Z" style="fill:#4d4d4d"/><path d="M418.51,216.21a4.06,4.06,0,0,1,.19-1.31,2.59,2.59,0,0,1,.52-1,2.13,2.13,0,0,1,.79-.58,2.22,2.22,0,0,1,.95-.2,2.79,2.79,0,0,1,1,.15,1.76,1.76,0,0,1,.7.45,1.83,1.83,0,0,1,.44.74,3.11,3.11,0,0,1,.15,1v.55c0,.06,0,.11,0,.17h-3.76a3,3,0,0,0,.14,1,1.63,1.63,0,0,0,.39.67,1.49,1.49,0,0,0,.6.39,2.28,2.28,0,0,0,.76.13,3.64,3.64,0,0,0,.48,0c.16,0,.3,0,.45-.06a3.45,3.45,0,0,0,.43-.12l.44-.16v.82l-.46.18-.44.11a3.54,3.54,0,0,1-.47.07,4.33,4.33,0,0,1-.53,0,3.33,3.33,0,0,1-1.12-.18,2.23,2.23,0,0,1-.85-.55,2.28,2.28,0,0,1-.54-.94A4.1,4.1,0,0,1,418.51,216.21Zm.95-.71h2.76a2.4,2.4,0,0,0-.09-.69,1.2,1.2,0,0,0-.25-.49,1,1,0,0,0-.41-.3,1.64,1.64,0,0,0-.56-.09,1.3,1.3,0,0,0-.52.1,1.46,1.46,0,0,0-.43.32,1.56,1.56,0,0,0-.33.49A2.66,2.66,0,0,0,419.46,215.5Z" style="fill:#4d4d4d"/><path d="M425.83,210.75v8.38h-.91v-8.31Z" style="fill:#4d4d4d"/><path d="M428.17,214h-.72v-.73h.72v-.68a2.11,2.11,0,0,1,.13-.77,1.64,1.64,0,0,1,.37-.59,1.8,1.8,0,0,1,.63-.38,2.94,2.94,0,0,1,.87-.13h.23l.21,0,.2,0,.18,0-.11.79-.17,0-.18,0h-.38a1.75,1.75,0,0,0-.48.06.77.77,0,0,0-.34.2.89.89,0,0,0-.19.33,1.53,1.53,0,0,0-.06.45v.7h1.51V214h-1.51v5.13h-.91Z" style="fill:#4d4d4d"/><path d="M431.54,214v-.76h3.91V214l-3.07,4.29v.05h3.13v.76h-4.14v-.78l3.08-4.28v0Z" style="fill:#4d4d4d"/><path d="M436.71,216.21a4.35,4.35,0,0,1,.19-1.31,2.59,2.59,0,0,1,.52-1,2.31,2.31,0,0,1,1.75-.78,2.73,2.73,0,0,1,.94.15,1.87,1.87,0,0,1,.71.45,2,2,0,0,1,.44.74,3.11,3.11,0,0,1,.15,1v.37c0,.06,0,.12,0,.18a1,1,0,0,1,0,.17h-3.75a3,3,0,0,0,.13,1,1.76,1.76,0,0,0,.4.67,1.39,1.39,0,0,0,.59.39,2.34,2.34,0,0,0,.77.13,3.87,3.87,0,0,0,.48,0c.15,0,.3,0,.44-.06a3.6,3.6,0,0,0,.44-.12l.43-.16v.82l-.46.18-.44.11a3.31,3.31,0,0,1-.47.07,4.33,4.33,0,0,1-.53,0,3.23,3.23,0,0,1-1.11-.18,2.27,2.27,0,0,1-.86-.55,2.4,2.4,0,0,1-.54-.94A4.39,4.39,0,0,1,436.71,216.21Zm1-.71h2.76a2.84,2.84,0,0,0-.08-.69,1.33,1.33,0,0,0-.25-.49,1,1,0,0,0-.42-.3,1.6,1.6,0,0,0-.56-.09,1.25,1.25,0,0,0-.51.1,1.5,1.5,0,0,0-.44.32,1.54,1.54,0,0,0-.32.49A2.29,2.29,0,0,0,437.66,215.5Z" style="fill:#4d4d4d"/><path d="M443,211.35a.69.69,0,0,1,0-.25.52.52,0,0,1,.12-.19.86.86,0,0,1,.19-.11.74.74,0,0,1,.48,0,.78.78,0,0,1,.18.11.54.54,0,0,1,.11.18.71.71,0,0,1,0,.26.67.67,0,0,1,0,.24.54.54,0,0,1-.11.18.78.78,0,0,1-.18.11.74.74,0,0,1-.48,0,.86.86,0,0,1-.19-.11.57.57,0,0,1-.12-.18A.67.67,0,0,1,443,211.35Zm1,1.88v5.9h-.91V213.3Z" style="fill:#4d4d4d"/><path d="M447.11,210.75v8.38h-.92v-8.31Z" style="fill:#4d4d4d"/><path d="M429.06,225.83a2.1,2.1,0,1,1,2.1-2.1A2.11,2.11,0,0,1,429.06,225.83Zm0-3.7a1.6,1.6,0,1,0,1.6,1.6A1.6,1.6,0,0,0,429.06,222.13Z" style="fill:#8b8f9e"/><path d="M354.66,140.26a5.47,5.47,0,0,1,.26-1.73,3.75,3.75,0,0,1,.74-1.3,3.08,3.08,0,0,1,1.1-.81,3.45,3.45,0,0,1,1.37-.27,3.27,3.27,0,0,1,1.29.26,2.91,2.91,0,0,1,1,.75,3.62,3.62,0,0,1,.68,1.26,5.63,5.63,0,0,1,.24,1.72,5.51,5.51,0,0,1-.26,1.73,3.66,3.66,0,0,1-.73,1.3,3.18,3.18,0,0,1-1.1.8,3.37,3.37,0,0,1-1.36.27,3.27,3.27,0,0,1-1.3-.25,2.94,2.94,0,0,1-1-.76,3.66,3.66,0,0,1-.69-1.25A5.63,5.63,0,0,1,354.66,140.26Zm1-.12a5.45,5.45,0,0,0,.18,1.5,2.71,2.71,0,0,0,.51,1,2,2,0,0,0,.75.57,2.6,2.6,0,0,0,.93.17,2.38,2.38,0,0,0,.88-.17,2.2,2.2,0,0,0,.76-.55,3,3,0,0,0,.54-1,4.47,4.47,0,0,0,.2-1.44,5.16,5.16,0,0,0-.18-1.51,2.7,2.7,0,0,0-.5-1,2,2,0,0,0-.75-.56A2.42,2.42,0,0,0,358,137a2.19,2.19,0,0,0-.87.18,2.11,2.11,0,0,0-.76.55,2.55,2.55,0,0,0-.54,1A4.38,4.38,0,0,0,355.64,140.14Z" style="fill:#4d4d4d"/><path d="M364.05,138.23v3.88a1.55,1.55,0,0,0,.09.55,1,1,0,0,0,.24.39,1,1,0,0,0,.41.24,1.55,1.55,0,0,0,.55.09l.38,0,.32-.05.31-.09.37-.14V138.3l.91-.07v5.9h-.89v-.36a2.24,2.24,0,0,1-.37.2,2.6,2.6,0,0,1-.36.13l-.39.09a3,3,0,0,1-.44,0,2.63,2.63,0,0,1-.88-.13,1.55,1.55,0,0,1-.63-.38,1.58,1.58,0,0,1-.4-.63,2.84,2.84,0,0,1-.13-.87V138.3Z" style="fill:#4d4d4d"/><path d="M374.29,135.75v8.38h-.89v-.38a1.77,1.77,0,0,1-.33.19,2.28,2.28,0,0,1-.36.15,2.59,2.59,0,0,1-.4.09,2.83,2.83,0,0,1-.41,0,2.64,2.64,0,0,1-1-.19,2.13,2.13,0,0,1-.78-.55,2.46,2.46,0,0,1-.51-.9,3.55,3.55,0,0,1-.19-1.22,3.77,3.77,0,0,1,.22-1.34,2.67,2.67,0,0,1,1.54-1.61,3.27,3.27,0,0,1,1.19-.21h.3l.25,0,.24.05a.83.83,0,0,1,.21.06v-2.51Zm-2,3.25a2,2,0,0,0-.8.15,1.76,1.76,0,0,0-.61.44,2.08,2.08,0,0,0-.39.72,3.52,3.52,0,0,0,0,1.86,2,2,0,0,0,.36.67,1.39,1.39,0,0,0,.54.39,1.83,1.83,0,0,0,.71.14,2.19,2.19,0,0,0,.36,0,2.84,2.84,0,0,0,.31-.06,1.88,1.88,0,0,0,.3-.12l.3-.16v-3.91l-.27,0-.26,0-.26,0Z" style="fill:#4d4d4d"/><path d="M376.09,141.21a4.06,4.06,0,0,1,.19-1.31,2.59,2.59,0,0,1,.52-1,2.13,2.13,0,0,1,.79-.58,2.23,2.23,0,0,1,1-.2,2.77,2.77,0,0,1,.94.15,1.76,1.76,0,0,1,.7.45,1.83,1.83,0,0,1,.44.74,3.11,3.11,0,0,1,.15,1v.55c0,.06,0,.11,0,.17H377a3,3,0,0,0,.14,1,1.63,1.63,0,0,0,.39.67,1.49,1.49,0,0,0,.6.39,2.28,2.28,0,0,0,.76.13,3.64,3.64,0,0,0,.48,0c.16,0,.3,0,.45-.06a3.45,3.45,0,0,0,.43-.12l.44-.16v.82l-.46.18-.44.11a3.31,3.31,0,0,1-.47.07,4.33,4.33,0,0,1-.53,0,3.33,3.33,0,0,1-1.12-.18,2.23,2.23,0,0,1-.85-.55,2.28,2.28,0,0,1-.54-.94A4.1,4.1,0,0,1,376.09,141.21Zm1-.71h2.76a2.84,2.84,0,0,0-.08-.69,1.34,1.34,0,0,0-.26-.49,1,1,0,0,0-.41-.3,1.64,1.64,0,0,0-.56-.09,1.3,1.3,0,0,0-.52.1,1.46,1.46,0,0,0-.43.32,1.56,1.56,0,0,0-.33.49A2.66,2.66,0,0,0,377,140.5Z" style="fill:#4d4d4d"/><path d="M382,144v-.83a3.11,3.11,0,0,0,.41.11,2.7,2.7,0,0,0,.41.06l.43,0h.44a2.26,2.26,0,0,0,.55-.06,1.42,1.42,0,0,0,.41-.19.65.65,0,0,0,.25-.27.74.74,0,0,0,.09-.36.78.78,0,0,0-.06-.31.66.66,0,0,0-.17-.25,1.67,1.67,0,0,0-.31-.2,2.56,2.56,0,0,0-.45-.16l-.68-.2a2.35,2.35,0,0,1-.53-.22,1.42,1.42,0,0,1-.39-.33,1.1,1.1,0,0,1-.24-.42,1.59,1.59,0,0,1,.06-1.2,1.75,1.75,0,0,1,.43-.55,1.84,1.84,0,0,1,.68-.36,2.94,2.94,0,0,1,.87-.13h.39l.36,0,.34.05a1.65,1.65,0,0,1,.32.06l-.09.79-.34-.06-.33,0-.33,0h-.37a2,2,0,0,0-.51.06,1.21,1.21,0,0,0-.38.17.71.71,0,0,0-.23.26.59.59,0,0,0-.08.32.65.65,0,0,0,0,.29.57.57,0,0,0,.15.23,1,1,0,0,0,.25.17,1.78,1.78,0,0,0,.37.14l.68.18a3.78,3.78,0,0,1,.63.24,2.2,2.2,0,0,1,.44.33,1.17,1.17,0,0,1,.26.42,1.44,1.44,0,0,1,.08.51,1.76,1.76,0,0,1-.61,1.36,2,2,0,0,1-.71.39,2.83,2.83,0,0,1-.9.14l-.47,0c-.14,0-.28,0-.41,0l-.38-.06Z" style="fill:#4d4d4d"/><path d="M391.19,138.34l-.11.83-.33-.07-.27,0-.26,0h-.29a1.57,1.57,0,0,0-.68.15,1.5,1.5,0,0,0-.56.42,2,2,0,0,0-.38.68,2.83,2.83,0,0,0-.14.9,3.24,3.24,0,0,0,.14,1,1.78,1.78,0,0,0,.39.69,1.39,1.39,0,0,0,.57.39,2.09,2.09,0,0,0,.72.13l.32,0a1.63,1.63,0,0,0,.31,0l.29,0,.29-.07V144l-.31.07-.3.06-.33,0-.38,0a3,3,0,0,1-1.07-.18,2.1,2.1,0,0,1-.83-.54,2.69,2.69,0,0,1-.56-1,4.1,4.1,0,0,1-.19-1.33,3.44,3.44,0,0,1,.22-1.28,3.12,3.12,0,0,1,.6-1,2.44,2.44,0,0,1,.87-.59,2.78,2.78,0,0,1,1-.2h.33l.29,0,.3,0Z" style="fill:#4d4d4d"/><path d="M396.35,144.13v-3.85a1.36,1.36,0,0,0-.09-.51.88.88,0,0,0-.25-.39,1.15,1.15,0,0,0-.41-.26A1.64,1.64,0,0,0,395,139l-.38,0a1.86,1.86,0,0,0-.34.06l-.33.09-.36.13v4.8h-.91v-8.31l.91-.07v2.85l.39-.18a1.9,1.9,0,0,1,.38-.13,2.32,2.32,0,0,1,.38-.07,2.81,2.81,0,0,1,.43,0,2.6,2.6,0,0,1,.87.14,1.6,1.6,0,0,1,1.05,1,2.83,2.83,0,0,1,.13.86v3.94Z" style="fill:#4d4d4d"/><path d="M399.2,136.35a1,1,0,0,1,0-.25.52.52,0,0,1,.12-.19,1.18,1.18,0,0,1,.19-.11.74.74,0,0,1,.48,0,.78.78,0,0,1,.18.11.42.42,0,0,1,.11.18.71.71,0,0,1,.05.26.69.69,0,0,1-.05.24.42.42,0,0,1-.11.18.78.78,0,0,1-.18.11.74.74,0,0,1-.48,0,1.18,1.18,0,0,1-.19-.11.57.57,0,0,1-.12-.18A1,1,0,0,1,399.2,136.35Zm1.05,1.88v5.9h-.92V138.3Z" style="fill:#4d4d4d"/><path d="M402.41,146.43V138.3l.87-.07v.37l.37-.17a2.43,2.43,0,0,1,.38-.13,1.67,1.67,0,0,1,.4-.08,3,3,0,0,1,.44,0,2.59,2.59,0,0,1,1,.18,1.84,1.84,0,0,1,.76.53,2.4,2.4,0,0,1,.49.91,4.32,4.32,0,0,1,.17,1.26,3.65,3.65,0,0,1-.23,1.32,2.67,2.67,0,0,1-.63,1,2.82,2.82,0,0,1-1,.62,3.56,3.56,0,0,1-1.25.21h-.44l-.2,0-.21,0v2.31Zm1.89-3a2.38,2.38,0,0,0,.81-.14,1.85,1.85,0,0,0,.64-.43,1.91,1.91,0,0,0,.42-.71,2.91,2.91,0,0,0,.15-1,3.4,3.4,0,0,0-.12-1,1.86,1.86,0,0,0-.34-.66,1.36,1.36,0,0,0-.54-.38,2.11,2.11,0,0,0-.73-.12l-.32,0a1.8,1.8,0,0,0-.32.06l-.31.09a2.69,2.69,0,0,0-.32.13v4l.25,0,.24,0,.24,0Z" style="fill:#4d4d4d"/><path d="M381.06,132.83a2.1,2.1,0,1,1,2.1-2.1A2.11,2.11,0,0,1,381.06,132.83Zm0-3.7a1.6,1.6,0,1,0,1.6,1.6A1.6,1.6,0,0,0,381.06,129.13Z" style="fill:#8b8f9e"/><path d="M248.32,327.83a2.1,2.1,0,1,1,2.09-2.1A2.1,2.1,0,0,1,248.32,327.83Zm0-3.7a1.6,1.6,0,1,0,1.59,1.6A1.6,1.6,0,0,0,248.32,324.13Z" style="fill:#8b8f9e"/></svg>