<svg xmlns="http://www.w3.org/2000/svg" viewBox="0 0 621 734"><path d="M281.11,41.24l2.33-2.46-2.25-8.21.16-1.54,8.57-1.12,2.61.47,7.81,10,1.36,7.47h1.78l2.93,1.47,1.75,1.54.08,1.2,1.69,1.78,4.76-.32.91-.47.42-1.28h1.57l.73,3.74,15.76.39,4.62,3.4,8.86,3.81,2.4,2.46,1.31,3.13.83.61.92-.81L355,68l.2,1L354.46,71l-3.27-.4-.94.4-2.06,1.28-.5,1.9.73,4.42L350,80.51l.29,2.06.13,2.33-2,2.4,1,4-.29,2.74,1,2.46,3.29,2.12,5.67,1.59,9.72,3.87.58,1.2,2.48-.86.94.73v1.12h3.61l8.51,2.12-.07,4.07-1.28,2.07-.92.44-2.4,9.64-.73.13-2.41,7.37-1.57-.73,0,4.86-1.15,5.64,6.4,4.52,6,5.18,2.59,5,4.47,4.91,6.71,5.91,2.56,3.14,3.92,9.79,3.27,6.46,4.18,2.77,4.67,4.18,5.91,10.34-.08,13.83,2.07,4.65,2.14,8.28-1.94,14,.14,2.56-1.68.16-.49.78-.16,12-3.11,18.18,8.21-.39-.06,1.18-4.83,7.94,4.89,16.85-14.69,13.54-.16.91,1.18,3-10,2.17-.1,2.3-2.27,2.59-1.34,2.84-.15,3-1.91,3-.21,2.5-4.55,6.93-5.75,7.31L388,359.71l-.29,2.2L372,379.23l-5.49,3.37,5.85,12.49-.52,1-4.65-.27L365,396.87l-.13.94,1.17,7.16,1.44,16.93,3.68,7.16,2.64.86,4.39.19,1.21-1.18,1.56-.26,2.72-1.78,3.95-4.15,17.68-8.55,2.64,1.52,4.24,3.81-17,7.89-.5.79L409,437.08l.31,1.05-5.07,3.5-.2,2.74-1.62-.05-1.13.65-3.37-.34-6.71,2.51-1.31-.65-1.88,1-1.2,1.78L381,452.26l-6.29,1.13-1.6,4.46-1,.53.26,2-1,.19-1.18-1.44-.47,2.51-1.41.57-1.3,1.65-4.76,1.52-1.7,1.17-.55,3.35L355,475.86l-4.78,3.65-4.6,1.39-1.83-1.12-.62,1.59-1.86.26-1.64,2.48-4.89,3.77-2.48,5-3.84,1.39.68,2.11-2.2,3.48-2.27,2,.21,1.69-1,1.78.58,1.44L323.7,508l.08,4.39-2.64,1.7-2,.44.78,3.69-1.57.52-1.17-1.18-3.35-.07-3.13,1.12-.66-3.48-4-5.64-2.69-8.78-2.2-2.56L292,506.69,281,508.2l.73,4.08,4.94,6-.68,3.26-1.41.13-.24,1.18,2.64,6.69,2.46,3.08,4.36,2-.11,3.87,3.84,1.69-1,4.6.42,4.71-4.26,4.72,1.93,3.79,3,.19,6.67-2.67,5.35-4.26,8.15-1.83.63.13.79,1.75,3.13,2.17,1,1.78,2.54-.6.94-1,2.53-1,17.93-.6.55,1.25-4.68,12.13-.92,1.49-3.18,2.56,4.75,2.95-.15,2.92L345,584.6l9.36,2.67,1.57,1.25,2.22-.78,1.8,1.7-.47,3.21,5.38.58,1.86-1.31,1.2.13,3.63,1.18,2.25,2.48,1.07-2,1.36-.66-.58,2.62-2.53,1.69-.52,2-1.7,1.64-2.82,10.71.7,3.66,3.06,4.39,2,4.84-1.07,1.51-.65,3.27-1.07.52-.39,1.23-1.78,2-1.23,8.8-2-.26-4.78-3.14-.84-2.74-11.52,5.83-2.77,1-.91-.18-.29,9.07,1.41,2.14,1.15.52-.05,1.26,1.7,3.92-1.44,1.22-.76-.05.71,2-3.84,3.74-2.22,3.58-1,.58-2,.52-1.56-1.44-2.8-1.31-1.7-1.88-1.67-.26-2,1.52-2.09,3.24-.34,3.92,5.31,1.56,3.21,2.43,1.7,3.77,11.5,7,.07,1.05L345.15,696l-1.41,1.17,1.78,4.23-1.93-.07-6.2,1.43-8.28-.26-1.49-.57-.34-2.49-1.72-2-4.42-1-12,3.84-3.37,2.87-3.09,1-.23-2.62-.92-.26-3.55.4-1.83,2.22-5-3.66.05-3.71-1.57-4.37-9.85,5.07-4.34,4.5-.73-.19-1.77-6.32-5.47,3.53h-4.05l-2.66,1.41-2.87.6-6.75-9.51-3,1.7-.57-.21L244,683.5l-4.16.7-8.44,9.72L229.22,698h-4.7L221,695.62l-2.19,2.75-4.6.78-2.35,2.2-2.72-.45-1.41-1.17-2-.06.34-2.48,5.25-7.18,2-6.2-.18-1.7-3.58-7.36.08-1.36,2.71-3.87-.07-1.23-2.36-3.71-5.54-.47-.65-2.61h-2.35l-1.05-1.1-2.35.26-3.34-1.56-.55-.87.55-.91-.34-1.23-1.65-1.91-1,.4.78-3.45-2.9-3.66.71-1.05-1.33-.65-.08-2.09-.94-1.36.36-2.09.74-.78-.74-2.35,1-1.7-.42-3.09.36-.7-.78-1.13,3-2.53-1.57-2,1.07-1.44,2-.34,7.32-4.62h3.47l1.49-4.39,3.71-3.34,1.36-2,.91-7.52,1.28-1.91,3.14-.65,4.31,2.48,2.14-1.1,1.28-2.43v-4.83l1.21-3.61,5-6.27,2.33-7.31,4.49-2.25-.1-2.74-1.13-2.36-1.36-1.25-2.9-.52-3.32,2.9-3.13.78-2.82-1.51-.37-3.35,5.46-6.48,1.44-3.66,4.47-2.5,4-6.67,2.43-2.17,1-1.77.41-1.62-.39-6.3,3.82-7.08.26-1.65-1.67-2.87L237,521.4l-.5-1.91,2.77-4.52,2.77-6.69.34-6.45.62-1.05h2.3l5,2.64,2.48-.52,1.05-1.33.1-1.75-1.49-5.65,1-1.72,2.17-1.7.29-1.18-1.05-2.5-2.63-3.27-.16-2,2.35-2.3,3.21-.83,6.09,2.43,2.77-2.43.5-1.12.57-3.74-1.7-2.51-1.64-.71-4.52-.07-2-1.18-.58-2.56.65-2.38,5.88-7.21,1.49-.73,5.41-.65,1.91-6,4.05-2.82-7.71-6,.55-2.3-1.75-1.46-.24-2.1-1.9-1.43L264,431.36l-3.37,3.16-.81,2.56h-1l-2.22-2.17-.78-.07-1.62,2.32-1.93,1.1-1.86.13-3.53,3-2.22.57-1-2.43.42-1.43,1.23-1.34v-2l-1.23-.26-.13-1.51-1.91.39-.44-2,0-1.13,2.69-.78.34-.68-2-.44,1.05-3.56-3.84-3.94-5.17-1L231,417.75l-1.65,1.3-.36,1-1.54-.79-1.73,1.05-1.75-.66-.57.79-3.48.08L216.71,423l-3.27-1.18-.68-.78-1.57-.21-.36.78-1.05-.05-1.38-1.44-5.1,1.49-.65-1.22-1.49-.74-3.27-.26-2.27.58L193,415.76l-.13-1.1,1-.73-.94-2.3-4.83-2.51L156.61,396.3h0l12.07-3.69-.08,1.44,10.51-5.28L181,377.46l.62-16.15L200,335.13l84-26.21,24.28-20.8L283.23,245.4l-4.86-27.61-3.16-8.08-6.09-42,21.95,4.31,6.95,5.51,13.61-1.41,12.7-4.1,14.5-6,5,4L349,176.5l2.4-2.32.78-.13,1.2,1,1.21-1.12,1.07-.13.15-.74-1.9-2.19-1.23-2.77-.05-11.16-4.34-6.37-1.23-3.06-.57-4.49.23-6.2-1.3-4.52L335,122.13l-9.1-5.57-1.2-1.33-.65-3.32,3.13-6.32.08-3.06-2.64-1.2h-4.49l-1.49-1.51-.18-2.28,3.26-5-2.87-11.44L318,73l-1.59-1.47-6-2.53L299,67.47l-2.49-.6-4.44-2.2L289.19,61l-.89-6.93-1.91-7.86Z" style="fill:#e5e5e5"/><path d="M317.58,72.88V72H320v3.59l-.55.1-.54.06-.56,0h-.6a4,4,0,0,1-1.45-.25,3.36,3.36,0,0,1-1.19-.72,3.3,3.3,0,0,1-.79-1.21A4.51,4.51,0,0,1,314,72a4.8,4.8,0,0,1,.34-1.89,3.62,3.62,0,0,1,.93-1.31,3.77,3.77,0,0,1,1.32-.75,4.71,4.71,0,0,1,1.5-.24h.48l.42,0,.39,0,.42.07-.11.84-.51-.08-.32,0-.37,0h-.44a3.43,3.43,0,0,0-1.15.19,2.65,2.65,0,0,0-1,.58,2.79,2.79,0,0,0-.69,1,3.73,3.73,0,0,0-.25,1.43,3.92,3.92,0,0,0,.22,1.38,2.62,2.62,0,0,0,1.52,1.58,3.24,3.24,0,0,0,1.09.19h.61l.28,0,.31,0V72.88Z" style="fill:#4d4d4d"/><path d="M321.74,72.84a4.35,4.35,0,0,1,.19-1.31,2.59,2.59,0,0,1,.52-1,2.22,2.22,0,0,1,.79-.58,2.39,2.39,0,0,1,1-.2,2.77,2.77,0,0,1,.94.15,1.87,1.87,0,0,1,.71.45,1.81,1.81,0,0,1,.43.74,3.1,3.1,0,0,1,.16,1v.37c0,.06,0,.12,0,.18a1,1,0,0,1,0,.17h-3.75a3.1,3.1,0,0,0,.13,1,1.79,1.79,0,0,0,.4.66,1.39,1.39,0,0,0,.59.39,2.3,2.3,0,0,0,.77.13,3.87,3.87,0,0,0,.48,0,3.11,3.11,0,0,0,.44-.06,3.6,3.6,0,0,0,.44-.12,3.75,3.75,0,0,0,.43-.16v.82l-.46.18-.44.11a3.31,3.31,0,0,1-.47.07,4.33,4.33,0,0,1-.53,0,3.23,3.23,0,0,1-1.11-.18,2.16,2.16,0,0,1-.86-.55,2.28,2.28,0,0,1-.54-.94A4.39,4.39,0,0,1,321.74,72.84Zm.95-.71h2.76a2.91,2.91,0,0,0-.08-.69,1.21,1.21,0,0,0-.26-.49,1.12,1.12,0,0,0-.41-.3,1.6,1.6,0,0,0-.56-.09,1.25,1.25,0,0,0-.51.1,1.5,1.5,0,0,0-.44.32,1.75,1.75,0,0,0-.33.49A2.66,2.66,0,0,0,322.69,72.13Z" style="fill:#4d4d4d"/><path d="M331.78,75.77V71.91a1.36,1.36,0,0,0-.09-.51,1,1,0,0,0-.25-.39,1.31,1.31,0,0,0-.41-.26,1.64,1.64,0,0,0-.56-.09l-.37,0a1.86,1.86,0,0,0-.34.06,2.14,2.14,0,0,0-.34.09l-.36.13v4.81h-.91V69.93l.88-.07v.4a2.4,2.4,0,0,1,.39-.2,3.43,3.43,0,0,1,.38-.13,1.69,1.69,0,0,1,.39-.08,3,3,0,0,1,.44,0,2.62,2.62,0,0,1,.88.14,1.62,1.62,0,0,1,.65.38,1.49,1.49,0,0,1,.39.62,2.54,2.54,0,0,1,.14.86v4Z" style="fill:#4d4d4d"/><path d="M338.39,75.77V71.91a1.36,1.36,0,0,0-.09-.51.88.88,0,0,0-.25-.39,1.31,1.31,0,0,0-.41-.26,1.64,1.64,0,0,0-.56-.09l-.37,0a2,2,0,0,0-.34.06l-.34.09a3,3,0,0,0-.35.13v4.81h-.92V69.93l.88-.07v.4a3.64,3.64,0,0,1,.39-.2,3.43,3.43,0,0,1,.38-.13,1.8,1.8,0,0,1,.39-.08,3.19,3.19,0,0,1,.45,0,2.6,2.6,0,0,1,.87.14,1.56,1.56,0,0,1,.65.38,1.62,1.62,0,0,1,.4.62,2.55,2.55,0,0,1,.13.86v4Z" style="fill:#4d4d4d"/><path d="M341,72.84a4.37,4.37,0,0,1,.18-1.31,2.74,2.74,0,0,1,.52-1,2.22,2.22,0,0,1,.79-.58,2.39,2.39,0,0,1,1-.2,2.73,2.73,0,0,1,.94.15,1.87,1.87,0,0,1,.71.45,2,2,0,0,1,.44.74,3.11,3.11,0,0,1,.15,1v.37c0,.06,0,.12,0,.18a1,1,0,0,1,0,.17h-3.75a2.81,2.81,0,0,0,.14,1,1.66,1.66,0,0,0,.39.66,1.39,1.39,0,0,0,.59.39,2.34,2.34,0,0,0,.77.13,3.64,3.64,0,0,0,.48,0,3.11,3.11,0,0,0,.44-.06,3.6,3.6,0,0,0,.44-.12,3.75,3.75,0,0,0,.43-.16v.82l-.46.18-.44.11a3.17,3.17,0,0,1-.46.07,4.63,4.63,0,0,1-.54,0,3.23,3.23,0,0,1-1.11-.18,2.16,2.16,0,0,1-.86-.55,2.53,2.53,0,0,1-.54-.94A4.41,4.41,0,0,1,341,72.84Zm.94-.71h2.76a2.47,2.47,0,0,0-.08-.69,1.33,1.33,0,0,0-.25-.49,1.08,1.08,0,0,0-.42-.3,1.6,1.6,0,0,0-.56-.09,1.25,1.25,0,0,0-.51.1,1.5,1.5,0,0,0-.44.32,1.54,1.54,0,0,0-.32.49A2.29,2.29,0,0,0,342,72.13Z" style="fill:#4d4d4d"/><path d="M347.42,78.06V69.93l.88-.07v.37l.36-.17a2.84,2.84,0,0,1,.38-.13,1.75,1.75,0,0,1,.41-.08,2.9,2.9,0,0,1,.43,0,2.64,2.64,0,0,1,1,.18,1.91,1.91,0,0,1,.76.53,2.39,2.39,0,0,1,.48.91,4,4,0,0,1,.17,1.26,3.66,3.66,0,0,1-.22,1.32,2.72,2.72,0,0,1-1.62,1.61,3.6,3.6,0,0,1-1.25.21h-.44a1.52,1.52,0,0,1-.21,0l-.21,0v2.31Zm1.9-3a2.32,2.32,0,0,0,.8-.14,1.76,1.76,0,0,0,.64-.43,1.93,1.93,0,0,0,.43-.71,3.15,3.15,0,0,0,.14-1,3.4,3.4,0,0,0-.12-1,1.72,1.72,0,0,0-.34-.66,1.36,1.36,0,0,0-.54-.38,2,2,0,0,0-.72-.12l-.33,0a1.7,1.7,0,0,0-.31.06,1.81,1.81,0,0,0-.31.09,2.81,2.81,0,0,0-.33.13v4l.26,0,.24,0,.24,0Z" style="fill:#4d4d4d"/><path d="M333.25,82.46a2.1,2.1,0,1,1,2.1-2.1A2.1,2.1,0,0,1,333.25,82.46Zm0-3.7a1.6,1.6,0,1,0,1.6,1.6A1.6,1.6,0,0,0,333.25,78.76Z" style="fill:#8b8f9e"/><path d="M313.67,185.5l-2.49-7.87h1.07l2.11,6.93h.05l2.16-6.93h1L315,185.5Z" style="fill:#4d4d4d"/><path d="M318.22,182.58a4.06,4.06,0,0,1,.19-1.31,2.59,2.59,0,0,1,.52-1,2.31,2.31,0,0,1,1.75-.78,2.77,2.77,0,0,1,.94.15,1.76,1.76,0,0,1,.7.45,1.83,1.83,0,0,1,.44.74,3.11,3.11,0,0,1,.15,1v.55c0,.06,0,.11,0,.17h-3.76a3,3,0,0,0,.14,1,1.7,1.7,0,0,0,.39.67,1.49,1.49,0,0,0,.6.39,2.28,2.28,0,0,0,.76.13,3.91,3.91,0,0,0,.49,0c.15,0,.3,0,.44-.06a3,3,0,0,0,.43-.12,4,4,0,0,0,.44-.17v.83l-.46.18-.44.11a3.31,3.31,0,0,1-.47.07,4.33,4.33,0,0,1-.53,0,3.33,3.33,0,0,1-1.12-.18,2.45,2.45,0,0,1-.85-.55,2.28,2.28,0,0,1-.54-.94A4.1,4.1,0,0,1,318.22,182.58Zm.95-.71h2.76a2.84,2.84,0,0,0-.08-.69,1.34,1.34,0,0,0-.26-.49,1,1,0,0,0-.41-.3,1.6,1.6,0,0,0-.56-.09,1.25,1.25,0,0,0-.51.1,1.5,1.5,0,0,0-.44.32,1.56,1.56,0,0,0-.33.49A2.66,2.66,0,0,0,319.17,181.87Z" style="fill:#4d4d4d"/><path d="M328.25,185.5v-3.85a1.6,1.6,0,0,0-.08-.51,1,1,0,0,0-.25-.39,1.19,1.19,0,0,0-.42-.26,1.59,1.59,0,0,0-.55-.09l-.38,0-.33.06a1.89,1.89,0,0,0-.34.09l-.36.13v4.8h-.91v-5.83l.88-.07v.4a2.4,2.4,0,0,1,.39-.2,2.84,2.84,0,0,1,.38-.13,1.59,1.59,0,0,1,.39-.08,3.11,3.11,0,0,1,1.32.1,1.76,1.76,0,0,1,.65.39,1.6,1.6,0,0,1,.39.62,2.54,2.54,0,0,1,.14.86v3.94Z" style="fill:#4d4d4d"/><path d="M334.07,179.65l-.11.9-.18,0a.41.41,0,0,0-.16,0l-.15,0h-.18a.9.9,0,0,0-.28,0,1,1,0,0,0-.27.11,1.86,1.86,0,0,0-.28.18l-.31.28v4.44h-.91v-5.83l.9-.07v.68l.32-.33a2.58,2.58,0,0,1,.31-.22,1.17,1.17,0,0,1,.31-.12,1.06,1.06,0,0,1,.31-.05h.34a.9.9,0,0,1,.16,0Z" style="fill:#4d4d4d"/><path d="M339.44,181.45v4.05h-.86v-.4l-.41.22a3.25,3.25,0,0,1-.4.15,2,2,0,0,1-.43.08,3.58,3.58,0,0,1-.49,0,2.2,2.2,0,0,1-.76-.12,1.55,1.55,0,0,1-.58-.32,1.32,1.32,0,0,1-.36-.51,1.58,1.58,0,0,1,0-1.34,1.65,1.65,0,0,1,.5-.56,2.45,2.45,0,0,1,.83-.37,4.39,4.39,0,0,1,1.15-.13h.89v-.64a1.6,1.6,0,0,0-.08-.51,1,1,0,0,0-.25-.38,1.06,1.06,0,0,0-.42-.23,2.1,2.1,0,0,0-.59-.08,3,3,0,0,0-.42,0,3.07,3.07,0,0,0-.42.07l-.43.12a4.13,4.13,0,0,0-.45.17l-.19-.77.52-.21a3,3,0,0,1,.49-.14,2.64,2.64,0,0,1,.49-.08,4.63,4.63,0,0,1,.54,0,3,3,0,0,1,.89.13,1.77,1.77,0,0,1,.66.37,1.54,1.54,0,0,1,.4.59A2.24,2.24,0,0,1,339.44,181.45ZM336,183.91a.75.75,0,0,0,.26.63,1,1,0,0,0,.34.17,1.56,1.56,0,0,0,.46.06l.42,0a2.33,2.33,0,0,0,.38-.08l.37-.13a2.09,2.09,0,0,0,.36-.19V183h-.92a3.55,3.55,0,0,0-.77.07,1.82,1.82,0,0,0-.52.2.85.85,0,0,0-.29.31A.78.78,0,0,0,336,183.91Z" style="fill:#4d4d4d"/><path d="M342.77,185.27l-2-5.63h1l1.63,4.84h.05l1.4-4.84h.92l-2.13,6.66a3.55,3.55,0,0,1-.32.73,1.65,1.65,0,0,1-.42.48,1.37,1.37,0,0,1-.49.26,1.89,1.89,0,0,1-.6.09h-.33l-.15,0-.14,0V187l.16,0,.14,0h.26a1.38,1.38,0,0,0,.37-.05,1.08,1.08,0,0,0,.3-.16,1,1,0,0,0,.24-.29,3.75,3.75,0,0,0,.2-.44l.28-.84Z" style="fill:#4d4d4d"/><path d="M328.59,192.2a2.1,2.1,0,1,1,2.1-2.1A2.1,2.1,0,0,1,328.59,192.2Zm0-3.7a1.6,1.6,0,1,0,1.6,1.6A1.6,1.6,0,0,0,328.59,188.5Z" style="fill:#8b8f9e"/><path d="M402,209.56l2.41,7.87H403.4l-.63-2.13h-3.08l-.62,2.13h-1l2.48-7.87Zm.5,4.94-1.24-4.21h-.11l-1.26,4.21Z" style="fill:#4d4d4d"/><path d="M408.71,211.57l-.11.9-.18,0-.16,0-.16,0h-.17a1.43,1.43,0,0,0-.29,0,1.53,1.53,0,0,0-.27.11,1.93,1.93,0,0,0-.27.19,2.53,2.53,0,0,0-.31.28v4.44h-.92V211.6l.9-.08v.69a3.42,3.42,0,0,1,.33-.33,1.43,1.43,0,0,1,.3-.22,1.37,1.37,0,0,1,.31-.13,1.1,1.1,0,0,1,.31,0h.18l.16,0,.17,0Z" style="fill:#4d4d4d"/><path d="M413.69,211.63l-.11.83-.33-.07-.27,0a2.06,2.06,0,0,0-.26,0h-.29a1.56,1.56,0,0,0-.68.14,1.5,1.5,0,0,0-.56.42,2.14,2.14,0,0,0-.38.68,2.83,2.83,0,0,0-.14.9,3.15,3.15,0,0,0,.14,1,1.78,1.78,0,0,0,.39.69,1.39,1.39,0,0,0,.57.39,1.88,1.88,0,0,0,.72.13h.32l.31,0a1.5,1.5,0,0,0,.29-.06l.29-.07v.83l-.31.08-.3,0-.33,0h-.38a3.29,3.29,0,0,1-1.07-.17,2.12,2.12,0,0,1-.83-.55,2.64,2.64,0,0,1-.56-.94,4.17,4.17,0,0,1-.19-1.34,3.38,3.38,0,0,1,.22-1.27,2.9,2.9,0,0,1,.6-1,2.47,2.47,0,0,1,.87-.6,2.77,2.77,0,0,1,1-.19h.33a2.58,2.58,0,0,1,.29,0l.3,0Z" style="fill:#4d4d4d"/><path d="M414.86,214.5a4.1,4.1,0,0,1,.19-1.31,2.76,2.76,0,0,1,.52-1,2.34,2.34,0,0,1,.79-.58,2.39,2.39,0,0,1,1-.2,2.77,2.77,0,0,1,.94.15,1.76,1.76,0,0,1,.7.45,1.9,1.9,0,0,1,.44.74,3.11,3.11,0,0,1,.15,1v.55c0,.06,0,.12,0,.17h-3.76a3,3,0,0,0,.14,1,1.77,1.77,0,0,0,.39.67,1.58,1.58,0,0,0,.6.38,2.06,2.06,0,0,0,.76.13l.49,0,.44-.07.43-.11.44-.17v.82a2.71,2.71,0,0,1-.46.18l-.44.11a3.29,3.29,0,0,1-.47.08l-.53,0a3.33,3.33,0,0,1-1.12-.18,2.19,2.19,0,0,1-.85-.55,2.24,2.24,0,0,1-.54-.93A4.17,4.17,0,0,1,414.86,214.5Zm.95-.71h2.76a2.82,2.82,0,0,0-.08-.68,1.25,1.25,0,0,0-.26-.5,1,1,0,0,0-.41-.29,1.4,1.4,0,0,0-.56-.1,1.26,1.26,0,0,0-.51.11,1.31,1.31,0,0,0-.44.31,1.67,1.67,0,0,0-.33.5A2.47,2.47,0,0,0,415.81,213.79Z" style="fill:#4d4d4d"/><path d="M424.89,217.43v-3.85a1.62,1.62,0,0,0-.08-.52,1.14,1.14,0,0,0-.25-.39,1.09,1.09,0,0,0-.42-.25,1.59,1.59,0,0,0-.55-.09,2.3,2.3,0,0,0-.38,0l-.33.05a2.14,2.14,0,0,0-.34.09,2.4,2.4,0,0,0-.36.14v4.8h-.91V211.6l.88-.08v.4a2.4,2.4,0,0,1,.39-.2l.38-.13a2.24,2.24,0,0,1,.39-.08l.44,0a2.67,2.67,0,0,1,.88.13,1.89,1.89,0,0,1,.65.38,1.56,1.56,0,0,1,.39.63,2.48,2.48,0,0,1,.14.85v4Z" style="fill:#4d4d4d"/><path d="M412.4,224.12a2.1,2.1,0,1,1,2.09-2.1A2.1,2.1,0,0,1,412.4,224.12Zm0-3.7A1.6,1.6,0,1,0,414,222,1.6,1.6,0,0,0,412.4,220.42Z" style="fill:#8b8f9e"/><path d="M397.21,288.59l-2.5-7.87h1.07l2.11,6.92h.05l2.16-6.92h1l-2.53,7.87Z" style="fill:#4d4d4d"/><path d="M401.76,285.66a4.35,4.35,0,0,1,.18-1.3,2.61,2.61,0,0,1,.53-1,2.13,2.13,0,0,1,.78-.59,2.39,2.39,0,0,1,1-.2,2.5,2.5,0,0,1,.94.16,1.78,1.78,0,0,1,.71.44,2,2,0,0,1,.44.74,3.13,3.13,0,0,1,.15,1v.36a1.09,1.09,0,0,1,0,.18,1.1,1.1,0,0,1,0,.18h-3.75a2.75,2.75,0,0,0,.14.95,1.63,1.63,0,0,0,1,1.06,2.35,2.35,0,0,0,.77.12,3.7,3.7,0,0,0,.48,0l.45-.07a2.26,2.26,0,0,0,.43-.11,3.83,3.83,0,0,0,.43-.17v.83a3.67,3.67,0,0,1-.45.17l-.44.12-.47.07-.54,0a3.23,3.23,0,0,1-1.11-.18,2.33,2.33,0,0,1-.86-.54,2.61,2.61,0,0,1-.54-.94A4.43,4.43,0,0,1,401.76,285.66Zm.94-.71h2.76a2.4,2.4,0,0,0-.08-.68,1.38,1.38,0,0,0-.25-.5,1,1,0,0,0-.42-.29,1.38,1.38,0,0,0-.55-.1,1.27,1.27,0,0,0-.52.11,1.47,1.47,0,0,0-.44.31,1.71,1.71,0,0,0-.32.5A2.59,2.59,0,0,0,402.7,285Z" style="fill:#4d4d4d"/><path d="M411.79,288.59v-3.85a1.42,1.42,0,0,0-.09-.52,1,1,0,0,0-.25-.39,1.29,1.29,0,0,0-.41-.25,1.64,1.64,0,0,0-.56-.09l-.37,0-.34.05-.33.09a2.67,2.67,0,0,0-.36.14v4.8h-.92v-5.83l.88-.07v.39l.4-.2.37-.13a2.66,2.66,0,0,1,.39-.07,3.19,3.19,0,0,1,.45,0,2.57,2.57,0,0,1,.87.13,1.69,1.69,0,0,1,.65.39,1.48,1.48,0,0,1,.4.62,2.49,2.49,0,0,1,.13.85v3.95Z" style="fill:#4d4d4d"/><path d="M415.69,280.2v8.39h-.91v-8.32Z" style="fill:#4d4d4d"/><path d="M422.79,285.59a3.79,3.79,0,0,1-.21,1.29,3,3,0,0,1-.6,1,2.53,2.53,0,0,1-.87.62,2.73,2.73,0,0,1-1.05.21,2.8,2.8,0,0,1-1.07-.19,2.15,2.15,0,0,1-.81-.56,2.65,2.65,0,0,1-.51-.94,4.17,4.17,0,0,1-.18-1.28,3.79,3.79,0,0,1,.21-1.29,3,3,0,0,1,.6-1,2.67,2.67,0,0,1,.87-.62,2.62,2.62,0,0,1,1-.22,2.83,2.83,0,0,1,1.07.2,2.22,2.22,0,0,1,.82.56,2.6,2.6,0,0,1,.51.93A4.19,4.19,0,0,1,422.79,285.59Zm-1,0a3.47,3.47,0,0,0-.11-1,2,2,0,0,0-.34-.7,1.3,1.3,0,0,0-.54-.41,1.81,1.81,0,0,0-.72-.14,1.51,1.51,0,0,0-.68.15,1.56,1.56,0,0,0-.55.45,2,2,0,0,0-.34.71,4.06,4.06,0,0,0,0,1.92,2,2,0,0,0,.34.69,1.41,1.41,0,0,0,.54.42,1.81,1.81,0,0,0,.72.14,1.59,1.59,0,0,0,.69-.16,1.91,1.91,0,0,0,.54-.45,2.18,2.18,0,0,0,.34-.72A3.45,3.45,0,0,0,421.84,285.63Z" style="fill:#4d4d4d"/><path d="M409.07,295.28a2.1,2.1,0,1,1,2.1-2.09A2.1,2.1,0,0,1,409.07,295.28Zm0-3.69a1.6,1.6,0,1,0,1.6,1.6A1.6,1.6,0,0,0,409.07,291.59Z" style="fill:#8b8f9e"/><path d="M268.1,367.07v-3.61h-3.6v3.61h-.95V359.2h.95v3.42h3.6V359.2h.95v7.87Z" style="fill:#4d4d4d"/><path d="M271.06,364.14a4.4,4.4,0,0,1,.19-1.31,2.76,2.76,0,0,1,.52-1,2.34,2.34,0,0,1,.79-.58,2.39,2.39,0,0,1,1-.2,2.73,2.73,0,0,1,.94.15,1.87,1.87,0,0,1,.71.45,2,2,0,0,1,.44.74,3.43,3.43,0,0,1,.15,1v.36c0,.06,0,.12,0,.18a1.1,1.1,0,0,1,0,.18H272a3,3,0,0,0,.13.95,1.93,1.93,0,0,0,.4.67,1.6,1.6,0,0,0,.59.39,2.3,2.3,0,0,0,.77.12l.48,0,.44-.07a2.36,2.36,0,0,0,.44-.11,3.83,3.83,0,0,0,.43-.17v.83a3.25,3.25,0,0,1-.46.17c-.14.05-.29.08-.44.12l-.47.07-.53,0a3.23,3.23,0,0,1-1.11-.18,2.25,2.25,0,0,1-.86-.54,2.35,2.35,0,0,1-.54-.94A4.46,4.46,0,0,1,271.06,364.14Zm.95-.71h2.76a2.82,2.82,0,0,0-.08-.68,1.38,1.38,0,0,0-.25-.5A1,1,0,0,0,274,362a1.4,1.4,0,0,0-.56-.1,1.26,1.26,0,0,0-.51.11,1.47,1.47,0,0,0-.44.31,1.59,1.59,0,0,0-.32.5A2.23,2.23,0,0,0,272,363.43Z" style="fill:#4d4d4d"/><path d="M278.73,366.84l-2-5.64h1l1.64,4.85h0l1.41-4.85h.92l-2.13,6.66a3.33,3.33,0,0,1-.32.73,1.81,1.81,0,0,1-.42.48,1.51,1.51,0,0,1-.5.27,2.1,2.1,0,0,1-.59.08h-.17l-.16,0h-.15l-.14,0v-.78l.16,0,.14,0h.26a1.38,1.38,0,0,0,.37-.05,1,1,0,0,0,.3-.17,1,1,0,0,0,.24-.28,3.75,3.75,0,0,0,.2-.44l.28-.84Z" style="fill:#4d4d4d"/><path d="M282.61,361.93v-.73h.71v-1l.91-.13v1.16h1.53v.73h-1.53v3.32a1.65,1.65,0,0,0,.06.48.88.88,0,0,0,.2.34.72.72,0,0,0,.29.2.9.9,0,0,0,.37.07h.21l.18,0a.63.63,0,0,0,.19,0l.21,0V367l-.27.06-.24,0-.25,0h-.26a2,2,0,0,1-.63-.09,1.37,1.37,0,0,1-.51-.32,1.34,1.34,0,0,1-.34-.57,2.66,2.66,0,0,1-.12-.86v-3.37Z" style="fill:#4d4d4d"/><path d="M291,367.07v-3.85a1.72,1.72,0,0,0-.08-.52,1.14,1.14,0,0,0-.25-.39,1.17,1.17,0,0,0-.42-.25,1.59,1.59,0,0,0-.55-.09l-.38,0L289,362l-.33.09-.36.14v4.8h-.91v-8.32l.91-.07v2.86l.39-.19a2.65,2.65,0,0,1,.37-.12,2.45,2.45,0,0,1,.39-.08l.42,0a2.67,2.67,0,0,1,.88.13,1.76,1.76,0,0,1,.65.39,1.46,1.46,0,0,1,.39.62,2.48,2.48,0,0,1,.14.85v3.95Z" style="fill:#4d4d4d"/><path d="M294.8,361.17v3.88a1.8,1.8,0,0,0,.08.54,1,1,0,0,0,.25.4,1.22,1.22,0,0,0,.4.24,1.55,1.55,0,0,0,.55.08h.39a2.44,2.44,0,0,0,.31-.06,1.81,1.81,0,0,0,.31-.09,3,3,0,0,0,.37-.14v-4.77l.91-.07v5.9h-.88v-.36a2.32,2.32,0,0,1-.38.2l-.36.13a2.7,2.7,0,0,1-.39.08A3.27,3.27,0,0,1,295,367a1.56,1.56,0,0,1-.63-.39A1.68,1.68,0,0,1,294,366a2.47,2.47,0,0,1-.13-.86v-3.91Z" style="fill:#4d4d4d"/><path d="M301.79,366.84l-2-5.64h1l1.63,4.85h.05l1.4-4.85h.92l-2.13,6.66a3.33,3.33,0,0,1-.32.73,1.79,1.79,0,0,1-.41.48,1.62,1.62,0,0,1-.5.27,2.23,2.23,0,0,1-.6.08h-.16l-.16,0h-.15l-.15,0v-.78l.16,0,.15,0h.26a1.36,1.36,0,0,0,.36-.05.9.9,0,0,0,.3-.17,1,1,0,0,0,.24-.28,3.75,3.75,0,0,0,.2-.44l.29-.84Z" style="fill:#4d4d4d"/><path d="M305.73,367v-.83a3.06,3.06,0,0,0,.41.1l.41.07.43,0h.44a1.84,1.84,0,0,0,.55-.07,1.19,1.19,0,0,0,.41-.18.74.74,0,0,0,.25-.28.7.7,0,0,0,.09-.35.75.75,0,0,0-.06-.31.59.59,0,0,0-.17-.25,1.42,1.42,0,0,0-.3-.2,3.33,3.33,0,0,0-.45-.16l-.69-.21a2,2,0,0,1-.53-.22,1.39,1.39,0,0,1-.39-.32,1.22,1.22,0,0,1-.24-.43,1.47,1.47,0,0,1-.09-.53,1.53,1.53,0,0,1,.15-.67,1.61,1.61,0,0,1,.43-.54,1.93,1.93,0,0,1,.68-.36,2.65,2.65,0,0,1,.87-.13h.39l.36,0,.34,0,.32.06-.09.8-.34-.07-.33,0-.32,0h-.37a2,2,0,0,0-.52.06,1.21,1.21,0,0,0-.38.17.8.8,0,0,0-.23.26.61.61,0,0,0-.08.32.85.85,0,0,0,.05.3.48.48,0,0,0,.15.22.8.8,0,0,0,.25.18,2.61,2.61,0,0,0,.37.14l.69.18a2.67,2.67,0,0,1,.62.24,1.64,1.64,0,0,1,.44.33,1.14,1.14,0,0,1,.26.42,1.36,1.36,0,0,1,.09.51,1.72,1.72,0,0,1-.17.75,1.58,1.58,0,0,1-.45.6,2,2,0,0,1-.71.39,2.58,2.58,0,0,1-.9.14h-.47l-.41,0a2.32,2.32,0,0,1-.38-.06Z" style="fill:#4d4d4d"/><path d="M310.93,364.14a4.41,4.41,0,0,1,.18-1.31,2.78,2.78,0,0,1,.53-1,2.21,2.21,0,0,1,.78-.58,2.43,2.43,0,0,1,1-.2,2.83,2.83,0,0,1,.95.15,1.84,1.84,0,0,1,.7.45,2,2,0,0,1,.44.74,3.13,3.13,0,0,1,.15,1v.36a1.09,1.09,0,0,1,0,.18c0,.06,0,.12,0,.18h-3.76a2.75,2.75,0,0,0,.14.95,1.63,1.63,0,0,0,1,1.06,2.35,2.35,0,0,0,.77.12l.48,0,.45-.07a2.26,2.26,0,0,0,.43-.11,3.83,3.83,0,0,0,.43-.17v.83a3.67,3.67,0,0,1-.45.17l-.44.12-.47.07-.54,0a3.23,3.23,0,0,1-1.11-.18,2.33,2.33,0,0,1-.86-.54,2.61,2.61,0,0,1-.54-.94A4.48,4.48,0,0,1,310.93,364.14Zm.94-.71h2.76a2.4,2.4,0,0,0-.08-.68,1.38,1.38,0,0,0-.25-.5,1,1,0,0,0-.42-.29,1.38,1.38,0,0,0-.55-.1,1.27,1.27,0,0,0-.52.11,1.47,1.47,0,0,0-.76.81A2.59,2.59,0,0,0,311.87,363.43Z" style="fill:#4d4d4d"/><path d="M321,367.07v-3.85a1.46,1.46,0,0,0-.09-.52,1,1,0,0,0-.25-.39,1.13,1.13,0,0,0-.41-.25,1.64,1.64,0,0,0-.56-.09l-.37,0-.34.05-.33.09a2.67,2.67,0,0,0-.36.14v4.8h-.92v-5.83l.88-.07v.39l.4-.2.37-.13.39-.08.45,0a2.67,2.67,0,0,1,.88.13,1.72,1.72,0,0,1,.64.39,1.48,1.48,0,0,1,.4.62,2.49,2.49,0,0,1,.13.85v3.95Z" style="fill:#4d4d4d"/><path d="M292.68,373.76a2.1,2.1,0,1,1,2.1-2.09A2.1,2.1,0,0,1,292.68,373.76Zm0-3.69a1.6,1.6,0,1,0,1.6,1.6A1.6,1.6,0,0,0,292.68,370.07Z" style="fill:#8b8f9e"/><path d="M331.28,447.85v3h-.95V443h2.09a3.65,3.65,0,0,1,1.14.16,2.43,2.43,0,0,1,.84.46,1.82,1.82,0,0,1,.51.71,2.35,2.35,0,0,1,.18.94,3.08,3.08,0,0,1-.2,1.13,2.19,2.19,0,0,1-.58.82,2.49,2.49,0,0,1-.92.51,4.2,4.2,0,0,1-1.23.17h-.43l-.21,0Zm0-4.05V447l.23,0,.19,0h.41A3.1,3.1,0,0,0,333,447a1.88,1.88,0,0,0,.63-.33,1.47,1.47,0,0,0,.38-.54,2.25,2.25,0,0,0,0-1.42,1.26,1.26,0,0,0-.9-.79,3,3,0,0,0-.78-.1Z" style="fill:#4d4d4d"/><path d="M341.51,447.87a3.79,3.79,0,0,1-.22,1.29,2.87,2.87,0,0,1-.59,1,2.6,2.6,0,0,1-1.93.83,2.74,2.74,0,0,1-1.06-.19,2,2,0,0,1-.81-.56,2.44,2.44,0,0,1-.52-.94,4.1,4.1,0,0,1-.18-1.27,3.58,3.58,0,0,1,.22-1.3,2.87,2.87,0,0,1,.59-1,2.55,2.55,0,0,1,1.92-.83,2.78,2.78,0,0,1,1.06.19,2.14,2.14,0,0,1,.82.56,2.62,2.62,0,0,1,.52.93A4.19,4.19,0,0,1,341.51,447.87Zm-.95,0a3.45,3.45,0,0,0-.12-1,1.82,1.82,0,0,0-.33-.7,1.44,1.44,0,0,0-.54-.41,1.86,1.86,0,0,0-.73-.14,1.54,1.54,0,0,0-.68.15,1.45,1.45,0,0,0-.54.45,2.05,2.05,0,0,0-.35.71,3.55,3.55,0,0,0-.12,1,4,4,0,0,0,.11,1,1.94,1.94,0,0,0,.34.69,1.47,1.47,0,0,0,.54.42,1.83,1.83,0,0,0,.73.14,1.58,1.58,0,0,0,.68-.16,1.67,1.67,0,0,0,.54-.45,2.2,2.2,0,0,0,.35-.72A3.45,3.45,0,0,0,340.56,447.91Z" style="fill:#4d4d4d"/><path d="M342.84,450.75v-.83a2.73,2.73,0,0,0,.41.1l.41.07.43,0h.44a1.84,1.84,0,0,0,.55-.07,1.19,1.19,0,0,0,.41-.18.78.78,0,0,0,.34-.63.75.75,0,0,0-.06-.31.59.59,0,0,0-.17-.25,1.28,1.28,0,0,0-.31-.2,2.56,2.56,0,0,0-.45-.16l-.68-.2a2.2,2.2,0,0,1-.54-.23,1.76,1.76,0,0,1-.39-.32,1.49,1.49,0,0,1-.24-.43,1.72,1.72,0,0,1-.08-.52,1.54,1.54,0,0,1,.58-1.22,1.84,1.84,0,0,1,.68-.36,2.65,2.65,0,0,1,.87-.13h.39l.36,0,.34,0,.32.06-.1.8-.34-.06-.32,0-.33,0H345a2,2,0,0,0-.51.07,1.21,1.21,0,0,0-.38.16.84.84,0,0,0-.24.26.75.75,0,0,0-.07.33.85.85,0,0,0,0,.29.91.91,0,0,0,.15.23,1.3,1.3,0,0,0,.26.17,2.21,2.21,0,0,0,.37.14l.68.18a2.36,2.36,0,0,1,.62.24,2,2,0,0,1,.45.33,1.14,1.14,0,0,1,.26.42,1.65,1.65,0,0,1,.08.51,1.79,1.79,0,0,1-.16.76,1.89,1.89,0,0,1-.45.6,2.41,2.41,0,0,1-.71.39,2.88,2.88,0,0,1-.9.13H344l-.41,0-.39-.06Z" style="fill:#4d4d4d"/><path d="M347.87,445.73V445h.7v-1l.92-.13V445H351v.73h-1.53v3.32a1.77,1.77,0,0,0,.06.49,1.06,1.06,0,0,0,.19.33.83.83,0,0,0,.3.2.87.87,0,0,0,.37.07h.2l.19,0,.19,0,.21,0v.77l-.27.06-.25,0-.24,0h-.26a2.15,2.15,0,0,1-.64-.09,1.42,1.42,0,0,1-.5-.32,1.34,1.34,0,0,1-.34-.57,2.4,2.4,0,0,1-.13-.86v-3.37Z" style="fill:#4d4d4d"/><path d="M352.26,447.94a4.35,4.35,0,0,1,.18-1.3,2.61,2.61,0,0,1,.53-1,2.19,2.19,0,0,1,.79-.59,2.34,2.34,0,0,1,.95-.19,2.56,2.56,0,0,1,1,.15,1.84,1.84,0,0,1,.7.45,1.9,1.9,0,0,1,.44.73,3.13,3.13,0,0,1,.15,1v.36a1.09,1.09,0,0,1,0,.18c0,.06,0,.12,0,.18h-3.76a3,3,0,0,0,.14.95,1.7,1.7,0,0,0,.39.67,1.6,1.6,0,0,0,.6.39,2.29,2.29,0,0,0,.76.12,3.7,3.7,0,0,0,.48,0L356,450a2.26,2.26,0,0,0,.43-.11,3.83,3.83,0,0,0,.43-.17v.83a3.67,3.67,0,0,1-.45.17,3.6,3.6,0,0,1-.44.12l-.47.07a4.61,4.61,0,0,1-.54,0,3.23,3.23,0,0,1-1.11-.18,2.21,2.21,0,0,1-.85-.54,2.49,2.49,0,0,1-.55-.94A4.48,4.48,0,0,1,352.26,447.94Zm.95-.71H356a2.38,2.38,0,0,0-.09-.68,1.31,1.31,0,0,0-.25-.5,1,1,0,0,0-.41-.29,1.43,1.43,0,0,0-.56-.1,1.27,1.27,0,0,0-.52.11,1.6,1.6,0,0,0-.44.31,1.71,1.71,0,0,0-.32.5A2.7,2.7,0,0,0,353.21,447.23Z" style="fill:#4d4d4d"/><path d="M361.5,445l-.11.9-.18-.05-.16,0h-.33a.86.86,0,0,0-.28,0,1.08,1.08,0,0,0-.27.1,2,2,0,0,0-.28.19,3.73,3.73,0,0,0-.31.28v4.44h-.91V445l.9-.07v.68a3.4,3.4,0,0,1,.32-.33,2,2,0,0,1,.31-.22,1.3,1.3,0,0,1,.3-.13,1.15,1.15,0,0,1,.31,0h.35l.16,0Z" style="fill:#4d4d4d"/><path d="M366.5,450.87V447a1.72,1.72,0,0,0-.08-.52,1.14,1.14,0,0,0-.25-.39,1.34,1.34,0,0,0-.42-.25,1.6,1.6,0,0,0-.56-.09l-.37,0-.34,0-.33.09-.36.14v4.8h-.91v-8.31l.91-.08v2.86l.39-.19a2.65,2.65,0,0,1,.37-.12l.39-.08.42,0a3,3,0,0,1,.88.13,1.85,1.85,0,0,1,.65.39,1.57,1.57,0,0,1,.39.62,2.49,2.49,0,0,1,.13.85v3.95Z" style="fill:#4d4d4d"/><path d="M374.43,447.87a3.79,3.79,0,0,1-.21,1.29,2.89,2.89,0,0,1-.6,1,2.53,2.53,0,0,1-.87.62,2.66,2.66,0,0,1-1.05.21,2.74,2.74,0,0,1-1.06-.19,2,2,0,0,1-.81-.56,2.44,2.44,0,0,1-.52-.94,4.1,4.1,0,0,1-.18-1.27,3.58,3.58,0,0,1,.22-1.3,2.87,2.87,0,0,1,.59-1,2.55,2.55,0,0,1,1.91-.83,2.8,2.8,0,0,1,1.07.19,2.22,2.22,0,0,1,.82.56,2.6,2.6,0,0,1,.51.93A4.19,4.19,0,0,1,374.43,447.87Zm-.94,0a3.45,3.45,0,0,0-.12-1,2,2,0,0,0-.33-.7,1.44,1.44,0,0,0-.54-.41,1.9,1.9,0,0,0-.73-.14,1.51,1.51,0,0,0-.68.15,1.45,1.45,0,0,0-.54.45,1.89,1.89,0,0,0-.35.71,3.55,3.55,0,0,0-.12,1,4,4,0,0,0,.11,1,1.94,1.94,0,0,0,.34.69,1.47,1.47,0,0,0,.54.42,1.81,1.81,0,0,0,.72.14,1.59,1.59,0,0,0,.69-.16,1.67,1.67,0,0,0,.54-.45,2.2,2.2,0,0,0,.35-.72A3.45,3.45,0,0,0,373.49,447.91Z" style="fill:#4d4d4d"/><path d="M377.15,442.48v8.39h-.92v-8.31Z" style="fill:#4d4d4d"/><path d="M378.78,445.73V445h.71v-1l.91-.13V445h1.53v.73H380.4v3.32a1.77,1.77,0,0,0,.06.49.91.91,0,0,0,.2.33.72.72,0,0,0,.29.2.9.9,0,0,0,.37.07h.21l.18,0,.19,0,.21,0v.77l-.27.06-.24,0-.25,0h-.26a2,2,0,0,1-.63-.09,1.37,1.37,0,0,1-.51-.32,1.34,1.34,0,0,1-.34-.57,2.66,2.66,0,0,1-.12-.86v-3.37Z" style="fill:#4d4d4d"/><path d="M355.86,457.56a2.1,2.1,0,1,1,2.1-2.09A2.1,2.1,0,0,1,355.86,457.56Zm0-3.69a1.6,1.6,0,1,0,1.6,1.6A1.59,1.59,0,0,0,355.86,453.87Z" style="fill:#8b8f9e"/><path d="M266,537.24v-.89l.51.1.46.07.45,0h.46a2.71,2.71,0,0,0,.77-.1,1.9,1.9,0,0,0,.59-.28,1.17,1.17,0,0,0,.37-.43,1.22,1.22,0,0,0,.13-.57,1.16,1.16,0,0,0-.07-.44,1,1,0,0,0-.21-.36,1.8,1.8,0,0,0-.39-.29,3.11,3.11,0,0,0-.57-.25l-1-.34a2.46,2.46,0,0,1-.59-.28,1.76,1.76,0,0,1-.45-.41,1.68,1.68,0,0,1-.3-.52,1.93,1.93,0,0,1-.1-.65,2,2,0,0,1,.75-1.62,2.44,2.44,0,0,1,.86-.46,3.31,3.31,0,0,1,1.13-.17h.44l.4,0,.37.05.37.06-.09.85-.39-.06-.36-.05-.39,0h-.41a2.78,2.78,0,0,0-.74.09,1.71,1.71,0,0,0-.54.27,1.14,1.14,0,0,0-.34.39,1.18,1.18,0,0,0-.11.5,1.33,1.33,0,0,0,.06.42.8.8,0,0,0,.19.32,1.46,1.46,0,0,0,.33.26,4,4,0,0,0,.49.21l1,.33a3.36,3.36,0,0,1,.71.32,2,2,0,0,1,.48.43,1.66,1.66,0,0,1,.29.56,2.39,2.39,0,0,1,.1.69,2.25,2.25,0,0,1-.21,1,2.14,2.14,0,0,1-.58.76,2.73,2.73,0,0,1-.91.49,4,4,0,0,1-1.18.16h-.48l-.45,0-.44-.05Z" style="fill:#4d4d4d"/><path d="M272.43,529.54a.64.64,0,0,1,0-.24.52.52,0,0,1,.12-.19.5.5,0,0,1,.19-.11.61.61,0,0,1,.24,0,.67.67,0,0,1,.24,0,.54.54,0,0,1,.18.11.78.78,0,0,1,.11.18.66.66,0,0,1,0,.25.61.61,0,0,1,0,.24.5.5,0,0,1-.11.18.57.57,0,0,1-.18.12.67.67,0,0,1-.24,0,.61.61,0,0,1-.24,0,.52.52,0,0,1-.19-.12.41.41,0,0,1-.12-.18A.61.61,0,0,1,272.43,529.54Zm1,1.89v5.9h-.91V531.5Z" style="fill:#4d4d4d"/><path d="M275.1,532.2v-.74h.71v-1l.91-.13v1.16h1.54v.74h-1.54v3.31a1.45,1.45,0,0,0,.07.49.82.82,0,0,0,.19.33.75.75,0,0,0,.3.2.87.87,0,0,0,.37.07H278l.19,0,.21,0v.77l-.27.06-.25,0-.24,0h-.27a2.08,2.08,0,0,1-.63-.09,1.26,1.26,0,0,1-.5-.32,1.35,1.35,0,0,1-.35-.57,2.66,2.66,0,0,1-.12-.86V532.2Z" style="fill:#4d4d4d"/><path d="M279.33,532.2v-.74h.7v-1l.92-.13v1.16h1.53v.74H281v3.31a1.77,1.77,0,0,0,.06.49,1,1,0,0,0,.19.33.83.83,0,0,0,.3.2.87.87,0,0,0,.37.07h.39l.19,0,.21,0v.77l-.27.06-.25,0-.24,0h-.26a2,2,0,0,1-.63-.09,1.37,1.37,0,0,1-.51-.32,1.34,1.34,0,0,1-.34-.57,2.4,2.4,0,0,1-.13-.86V532.2Z" style="fill:#4d4d4d"/><path d="M288.06,533.28v4.05h-.85v-.41a3.46,3.46,0,0,1-.41.23,3.39,3.39,0,0,1-.41.15,2.61,2.61,0,0,1-.42.08,3.94,3.94,0,0,1-.5,0,2.29,2.29,0,0,1-.76-.11,1.76,1.76,0,0,1-.57-.32,1.46,1.46,0,0,1-.37-.51,1.66,1.66,0,0,1-.12-.64,1.47,1.47,0,0,1,.16-.7,1.76,1.76,0,0,1,.5-.56,2.54,2.54,0,0,1,.83-.37,4.47,4.47,0,0,1,1.16-.13h.89v-.64a1.36,1.36,0,0,0-.09-.51.92.92,0,0,0-.24-.38,1.06,1.06,0,0,0-.42-.23,2.13,2.13,0,0,0-.6-.08l-.41,0a3.07,3.07,0,0,0-.42.07,3.45,3.45,0,0,0-.43.12,4,4,0,0,0-.45.16l-.19-.76.52-.21.48-.15a4,4,0,0,1,.5-.07,4.33,4.33,0,0,1,.53,0,2.75,2.75,0,0,1,.9.13,1.64,1.64,0,0,1,.65.36,1.6,1.6,0,0,1,.41.6A2.2,2.2,0,0,1,288.06,533.28Zm-3.46,2.46a1,1,0,0,0,.06.35.69.69,0,0,0,.2.28,1,1,0,0,0,.33.17,1.63,1.63,0,0,0,.47.06l.41,0,.39-.08.37-.13a3.13,3.13,0,0,0,.36-.19v-1.37H287l-.3,0h-.42a3.49,3.49,0,0,0-.77.07,1.63,1.63,0,0,0-.53.2.82.82,0,0,0-.28.31A.68.68,0,0,0,284.6,535.74Z" style="fill:#4d4d4d"/><path d="M293,531.48l-.11.9-.18,0-.16,0h-.33a.86.86,0,0,0-.28,0,1.48,1.48,0,0,0-.27.1,2,2,0,0,0-.28.19c-.09.08-.2.17-.31.28v4.44h-.91V531.5l.9-.07v.68a3.4,3.4,0,0,1,.32-.33,2.58,2.58,0,0,1,.31-.22,1.3,1.3,0,0,1,.3-.13,1.75,1.75,0,0,1,.32,0h.34l.16,0Z" style="fill:#4d4d4d"/><path d="M298.85,528.94v8.39H298V537a2.59,2.59,0,0,1-.33.19,2.24,2.24,0,0,1-.36.14,2.59,2.59,0,0,1-.4.09,2.83,2.83,0,0,1-.41,0,2.64,2.64,0,0,1-1-.18,2.26,2.26,0,0,1-.78-.55,2.46,2.46,0,0,1-.51-.9,3.59,3.59,0,0,1-.19-1.22,3.77,3.77,0,0,1,.22-1.34,2.59,2.59,0,0,1,.61-1,2.69,2.69,0,0,1,.93-.61,3.27,3.27,0,0,1,1.19-.21h.3l.25,0,.24,0,.21.06V529Zm-2,3.26a2,2,0,0,0-.8.15,1.54,1.54,0,0,0-.61.44,1.91,1.91,0,0,0-.39.72,3.52,3.52,0,0,0,0,1.86,2,2,0,0,0,.36.67,1.5,1.5,0,0,0,.54.39,1.83,1.83,0,0,0,.71.13,2.17,2.17,0,0,0,.36,0l.31-.07a1.21,1.21,0,0,0,.3-.11l.3-.17v-3.9l-.27,0-.26,0-.26,0Z" style="fill:#4d4d4d"/><path d="M282.7,544a2.1,2.1,0,1,1,2.1-2.09A2.1,2.1,0,0,1,282.7,544Zm0-3.69a1.6,1.6,0,1,0,1.6,1.6A1.6,1.6,0,0,0,282.7,540.33Z" style="fill:#8b8f9e"/><path d="M304.61,555.19v-.88l.51.1a3.62,3.62,0,0,0,.46.06l.45,0h.46a2.66,2.66,0,0,0,.77-.1,1.9,1.9,0,0,0,.59-.28,1.23,1.23,0,0,0,.38-.44,1.32,1.32,0,0,0,.12-.57,1.51,1.51,0,0,0-.06-.44,1.2,1.2,0,0,0-.22-.35,1.65,1.65,0,0,0-.38-.29,3.87,3.87,0,0,0-.57-.25l-1-.34a2.6,2.6,0,0,1-.58-.28,2,2,0,0,1-.46-.41,1.52,1.52,0,0,1-.29-.53,1.87,1.87,0,0,1-.11-.64,2.13,2.13,0,0,1,.2-.91,2,2,0,0,1,.55-.71,2.64,2.64,0,0,1,.86-.47,3.62,3.62,0,0,1,1.13-.17h.44l.4,0,.38,0,.36.07-.09.85-.39-.07-.36,0a2.47,2.47,0,0,0-.39,0h-.41a2.7,2.7,0,0,0-.73.09,1.65,1.65,0,0,0-.55.26,1,1,0,0,0-.33.4,1.06,1.06,0,0,0-.12.5,1.33,1.33,0,0,0,.06.42,1,1,0,0,0,.19.32,1.81,1.81,0,0,0,.33.26,3.31,3.31,0,0,0,.49.2l1,.34a3,3,0,0,1,.7.32,1.87,1.87,0,0,1,.49.43,1.79,1.79,0,0,1,.28.55,2.17,2.17,0,0,1,.1.69,2.37,2.37,0,0,1-.2,1,2.21,2.21,0,0,1-.59.77,2.55,2.55,0,0,1-.91.48,4,4,0,0,1-1.18.17h-.48l-.45,0-.44-.05Z" style="fill:#4d4d4d"/><path d="M314.77,549.49l-.11.83-.32-.07-.27,0a2.06,2.06,0,0,0-.26,0h-.3a1.59,1.59,0,0,0-.68.14,1.72,1.72,0,0,0-.55.42,2.14,2.14,0,0,0-.38.68,2.83,2.83,0,0,0-.14.9,3.26,3.26,0,0,0,.14,1,1.94,1.94,0,0,0,.38.68,1.63,1.63,0,0,0,.58.4,2.08,2.08,0,0,0,.71.12h.33l.3,0,.3-.05.28-.08v.83l-.3.08-.31,0-.33,0h-.38a3.23,3.23,0,0,1-1.06-.17,2.23,2.23,0,0,1-.84-.55,2.63,2.63,0,0,1-.55-.94,4.15,4.15,0,0,1-.2-1.34,3.59,3.59,0,0,1,.22-1.27,2.9,2.9,0,0,1,.6-1,2.66,2.66,0,0,1,.87-.6,2.82,2.82,0,0,1,1-.19h.33l.29,0,.29,0Z" style="fill:#4d4d4d"/><path d="M319.93,555.29v-3.85a1.62,1.62,0,0,0-.08-.52,1.14,1.14,0,0,0-.25-.39,1.17,1.17,0,0,0-.42-.25,1.6,1.6,0,0,0-.56-.09,2.17,2.17,0,0,0-.37,0l-.34,0a2,2,0,0,0-.33.09l-.36.14v4.8h-.91V547l.91-.07v2.86l.39-.19.37-.13.39-.07.42,0a2.67,2.67,0,0,1,.88.13,2,2,0,0,1,.65.38,1.68,1.68,0,0,1,.39.63,2.49,2.49,0,0,1,.13.85v3.95Z" style="fill:#4d4d4d"/><path d="M322.79,547.5a.69.69,0,0,1,0-.25.57.57,0,0,1,.12-.18.52.52,0,0,1,.19-.12.71.71,0,0,1,.47,0,.52.52,0,0,1,.19.12.78.78,0,0,1,.11.18.62.62,0,0,1,0,.25.61.61,0,0,1,0,.24.78.78,0,0,1-.11.18.4.4,0,0,1-.19.11.59.59,0,0,1-.23.05.6.6,0,0,1-.24-.05.4.4,0,0,1-.19-.11.57.57,0,0,1-.12-.18A.61.61,0,0,1,322.79,547.5Zm1,1.88v5.91h-.91v-5.83Z" style="fill:#4d4d4d"/><path d="M329.61,555.29v-3.85a1.39,1.39,0,0,0-.08-.52,1,1,0,0,0-.25-.39,1.09,1.09,0,0,0-.42-.25,1.55,1.55,0,0,0-.55-.09,2.12,2.12,0,0,0-.37,0l-.34,0a2.14,2.14,0,0,0-.34.09l-.36.14v4.8H326v-5.83l.88-.08v.4a2.89,2.89,0,0,1,.39-.2l.38-.13a2.7,2.7,0,0,1,.39-.08l.45,0a2.61,2.61,0,0,1,.87.13,1.89,1.89,0,0,1,.65.38,1.58,1.58,0,0,1,.4.63,2.76,2.76,0,0,1,.13.85v3.95Z" style="fill:#4d4d4d"/><path d="M333.87,555.29l-2-5.87h1l1.61,5h.06l1.52-5H337l-2,5.87Z" style="fill:#4d4d4d"/><path d="M338,552.36a4.1,4.1,0,0,1,.19-1.31,2.61,2.61,0,0,1,.52-1,2.25,2.25,0,0,1,.79-.58,2.38,2.38,0,0,1,.95-.2,2.79,2.79,0,0,1,.95.15,1.84,1.84,0,0,1,.7.45,2,2,0,0,1,.44.74,3.11,3.11,0,0,1,.15,1v.55a1.11,1.11,0,0,0,0,.17H339a3,3,0,0,0,.14,1,1.77,1.77,0,0,0,.39.67,1.73,1.73,0,0,0,.6.39,2.29,2.29,0,0,0,.76.12l.48,0,.45-.07.43-.11.43-.17V555a3.67,3.67,0,0,1-.45.17l-.44.12-.47.07-.54,0a3.27,3.27,0,0,1-1.11-.18,2.12,2.12,0,0,1-.85-.55,2.24,2.24,0,0,1-.54-.93A4.17,4.17,0,0,1,338,552.36Zm.95-.71h2.76a2.38,2.38,0,0,0-.09-.68,1.24,1.24,0,0,0-.25-.5,1,1,0,0,0-.41-.29,1.43,1.43,0,0,0-.56-.1,1.31,1.31,0,0,0-.52.11,1.27,1.27,0,0,0-.43.31,1.61,1.61,0,0,0-.33.5A2.47,2.47,0,0,0,339,551.65Z" style="fill:#4d4d4d"/><path d="M345.36,546.9v8.39h-.91V547Z" style="fill:#4d4d4d"/><path d="M352,546.9v8.39h-.89v-.39a1.81,1.81,0,0,1-.33.2l-.36.14a2.59,2.59,0,0,1-.4.09,2.83,2.83,0,0,1-.41,0,2.46,2.46,0,0,1-1-.19,2.11,2.11,0,0,1-.78-.54,2.46,2.46,0,0,1-.51-.9,3.61,3.61,0,0,1-.19-1.23,4,4,0,0,1,.21-1.33,2.74,2.74,0,0,1,.62-1,2.55,2.55,0,0,1,.93-.61,3.27,3.27,0,0,1,1.19-.21h.3l.25,0,.24,0,.21.06V547Zm-2,3.25a2,2,0,0,0-.8.15,1.67,1.67,0,0,0-.61.45,2,2,0,0,0-.39.71,3.16,3.16,0,0,0-.13.95,3.21,3.21,0,0,0,.12.92,1.89,1.89,0,0,0,.36.66,1.41,1.41,0,0,0,.54.4,1.83,1.83,0,0,0,.71.13l.36,0,.31-.07.3-.11.3-.17v-3.9l-.27,0-.26,0-.26,0Z" style="fill:#4d4d4d"/><path d="M328.59,562a2.1,2.1,0,1,1,2.1-2.1A2.1,2.1,0,0,1,328.59,562Zm0-3.69a1.6,1.6,0,1,0,1.6,1.59A1.59,1.59,0,0,0,328.59,558.29Z" style="fill:#8b8f9e"/><path d="M318.91,601.18v-3.61h-3.6v3.61h-.95v-7.87h.95v3.42h3.6v-3.42h.95v7.87Z" style="fill:#4d4d4d"/><path d="M321.87,598.25a4.4,4.4,0,0,1,.19-1.31,2.94,2.94,0,0,1,.52-1,2.34,2.34,0,0,1,.79-.58,2.39,2.39,0,0,1,1-.2,2.73,2.73,0,0,1,.94.15,1.87,1.87,0,0,1,.71.45,2,2,0,0,1,.44.74,3.13,3.13,0,0,1,.15,1v.36a1.09,1.09,0,0,1,0,.18.88.88,0,0,1,0,.17h-3.75a2.78,2.78,0,0,0,.14,1,1.77,1.77,0,0,0,.39.67,1.69,1.69,0,0,0,.59.39,2.35,2.35,0,0,0,.77.12l.48,0,.44-.07a3.54,3.54,0,0,0,.44-.11l.43-.17v.83a3.25,3.25,0,0,1-.46.17c-.14.05-.29.08-.44.12l-.46.07-.54,0a3.23,3.23,0,0,1-1.11-.18,2.16,2.16,0,0,1-.86-.55,2.48,2.48,0,0,1-.54-.93A4.46,4.46,0,0,1,321.87,598.25Zm.95-.71h2.76a2.82,2.82,0,0,0-.08-.68,1.38,1.38,0,0,0-.25-.5,1,1,0,0,0-.42-.29,1.38,1.38,0,0,0-.55-.1,1.27,1.27,0,0,0-.52.11,1.47,1.47,0,0,0-.44.31,1.59,1.59,0,0,0-.32.5A2.59,2.59,0,0,0,322.82,597.54Z" style="fill:#4d4d4d"/><path d="M327.92,598.25a4.4,4.4,0,0,1,.19-1.31,2.76,2.76,0,0,1,.52-1,2.34,2.34,0,0,1,.79-.58,2.39,2.39,0,0,1,1-.2,2.77,2.77,0,0,1,.94.15,1.87,1.87,0,0,1,.71.45,2,2,0,0,1,.43.74,3.13,3.13,0,0,1,.15,1v.54a.88.88,0,0,1,0,.17h-3.75a3.05,3.05,0,0,0,.13,1,2.08,2.08,0,0,0,.39.67,1.73,1.73,0,0,0,.6.39,2.3,2.3,0,0,0,.77.12l.48,0,.44-.07a3.54,3.54,0,0,0,.44-.11l.43-.17v.83a3.25,3.25,0,0,1-.46.17c-.14.05-.29.08-.44.12l-.47.07-.53,0a3.23,3.23,0,0,1-1.11-.18,2.16,2.16,0,0,1-.86-.55,2.24,2.24,0,0,1-.54-.93A4.46,4.46,0,0,1,327.92,598.25Zm.95-.71h2.76a2.82,2.82,0,0,0-.08-.68,1.25,1.25,0,0,0-.26-.5,1,1,0,0,0-.41-.29,1.4,1.4,0,0,0-.56-.1,1.26,1.26,0,0,0-.51.11,1.47,1.47,0,0,0-.44.31,1.81,1.81,0,0,0-.33.5A2.58,2.58,0,0,0,328.87,597.54Z" style="fill:#4d4d4d"/><path d="M337.16,595.32l-.11.9-.18,0-.16,0-.15,0h-.18a1.33,1.33,0,0,0-.28,0,1.53,1.53,0,0,0-.27.11,2,2,0,0,0-.28.19c-.09.07-.19.17-.31.28v4.44h-.91v-5.83l.9-.08V596a3.4,3.4,0,0,1,.32-.33,1.79,1.79,0,0,1,.31-.22,1.2,1.2,0,0,1,.31-.13,1.06,1.06,0,0,1,.31,0h.34l.16,0Z" style="fill:#4d4d4d"/><path d="M339.45,592.79v8.39h-.91v-8.32Z" style="fill:#4d4d4d"/><path d="M341.26,598.25a4.41,4.41,0,0,1,.18-1.31,2.94,2.94,0,0,1,.52-1,2.34,2.34,0,0,1,.79-.58,2.39,2.39,0,0,1,1-.2,2.73,2.73,0,0,1,.94.15,1.87,1.87,0,0,1,.71.45,2,2,0,0,1,.44.74,3.13,3.13,0,0,1,.15,1v.36a1.09,1.09,0,0,1,0,.18.88.88,0,0,1,0,.17h-3.75a2.78,2.78,0,0,0,.14,1,1.77,1.77,0,0,0,.39.67,1.6,1.6,0,0,0,.59.39,2.35,2.35,0,0,0,.77.12l.48,0,.44-.07a3.54,3.54,0,0,0,.44-.11l.43-.17v.83a3.25,3.25,0,0,1-.46.17c-.14.05-.29.08-.44.12l-.46.07-.54,0a3.23,3.23,0,0,1-1.11-.18,2.16,2.16,0,0,1-.86-.55,2.48,2.48,0,0,1-.54-.93A4.48,4.48,0,0,1,341.26,598.25Zm.94-.71H345a2.4,2.4,0,0,0-.08-.68,1.38,1.38,0,0,0-.25-.5,1,1,0,0,0-.42-.29,1.4,1.4,0,0,0-.56-.1,1.26,1.26,0,0,0-.51.11,1.47,1.47,0,0,0-.44.31,1.59,1.59,0,0,0-.32.5A2.59,2.59,0,0,0,342.2,597.54Z" style="fill:#4d4d4d"/><path d="M351.29,601.18v-3.85a1.42,1.42,0,0,0-.09-.52,1,1,0,0,0-.25-.39,1.13,1.13,0,0,0-.41-.25,1.64,1.64,0,0,0-.56-.09l-.37,0-.34,0-.33.09a3.44,3.44,0,0,0-.37.14v4.8h-.91v-5.83l.88-.08v.4a3,3,0,0,1,.4-.2l.37-.13.39-.08.45,0a2.61,2.61,0,0,1,.87.13,1.76,1.76,0,0,1,.65.39,1.48,1.48,0,0,1,.4.62,2.76,2.76,0,0,1,.13.85v3.95Z" style="fill:#4d4d4d"/><path d="M333.25,607.87a2.1,2.1,0,1,1,2.1-2.1A2.1,2.1,0,0,1,333.25,607.87Zm0-3.69a1.6,1.6,0,1,0,1.6,1.59A1.6,1.6,0,0,0,333.25,604.18Z" style="fill:#8b8f9e"/><path d="M330.56,682.32l-2.49-7.87h1.07l2.11,6.92h.05l2.16-6.92h1l-2.53,7.87Z" style="fill:#4d4d4d"/><path d="M339.26,678.26v4.06h-.85v-.41a3.32,3.32,0,0,1-.41.22,3.25,3.25,0,0,1-.4.15,3,3,0,0,1-.43.09l-.5,0a2.47,2.47,0,0,1-.75-.11,1.72,1.72,0,0,1-.58-.33,1.42,1.42,0,0,1-.37-.5,1.69,1.69,0,0,1-.12-.64,1.37,1.37,0,0,1,.17-.7,1.53,1.53,0,0,1,.49-.56,2.35,2.35,0,0,1,.83-.37,4.44,4.44,0,0,1,1.16-.14h.89v-.64a1.46,1.46,0,0,0-.09-.52,1,1,0,0,0-.24-.38,1.19,1.19,0,0,0-.42-.22,2.13,2.13,0,0,0-.6-.08l-.41,0a3.1,3.1,0,0,0-.42.08l-.43.12a4,4,0,0,0-.45.16l-.19-.76.52-.21.48-.15a4,4,0,0,1,.5-.08l.54,0a2.73,2.73,0,0,1,.89.13,1.64,1.64,0,0,1,.65.36,1.6,1.6,0,0,1,.41.6A2.18,2.18,0,0,1,339.26,678.26Zm-3.46,2.47a1,1,0,0,0,.06.35.8.8,0,0,0,.2.28,1,1,0,0,0,.33.17,1.68,1.68,0,0,0,.47.06,2.73,2.73,0,0,0,.41,0,2.44,2.44,0,0,0,.39-.07l.37-.13.36-.19V679.8h-.92a3.5,3.5,0,0,0-.77.08,1.31,1.31,0,0,0-.52.2.76.76,0,0,0-.38.68Z" style="fill:#4d4d4d"/><path d="M345.32,678.26v4.06h-.85v-.41a3.32,3.32,0,0,1-.41.22,3.25,3.25,0,0,1-.4.15,3,3,0,0,1-.43.09l-.5,0a2.47,2.47,0,0,1-.75-.11,1.72,1.72,0,0,1-.58-.33,1.42,1.42,0,0,1-.37-.5,1.69,1.69,0,0,1-.12-.64,1.37,1.37,0,0,1,.17-.7,1.53,1.53,0,0,1,.49-.56,2.35,2.35,0,0,1,.83-.37,4.44,4.44,0,0,1,1.16-.14h.89v-.64a1.46,1.46,0,0,0-.09-.52,1,1,0,0,0-.24-.38,1.19,1.19,0,0,0-.42-.22,2.1,2.1,0,0,0-.59-.08l-.42,0a3.1,3.1,0,0,0-.42.08l-.43.12a4,4,0,0,0-.45.16l-.19-.76.52-.21.48-.15a4,4,0,0,1,.5-.08l.54,0a2.73,2.73,0,0,1,.89.13,1.64,1.64,0,0,1,.65.36,1.6,1.6,0,0,1,.41.6A2.18,2.18,0,0,1,345.32,678.26Zm-3.46,2.47a1,1,0,0,0,.06.35.8.8,0,0,0,.2.28,1,1,0,0,0,.33.17,1.68,1.68,0,0,0,.47.06,2.73,2.73,0,0,0,.41,0,2.44,2.44,0,0,0,.39-.07l.37-.13.36-.19V679.8h-.92a3.5,3.5,0,0,0-.77.08,1.31,1.31,0,0,0-.52.2.76.76,0,0,0-.38.68Z" style="fill:#4d4d4d"/><path d="M348.31,673.93v8.39h-.91V674Z" style="fill:#4d4d4d"/><path d="M350,682.2v-.83l.41.1.42.07.42,0h.45a1.88,1.88,0,0,0,.55-.07,1.28,1.28,0,0,0,.41-.18.83.83,0,0,0,.25-.28.85.85,0,0,0,.08-.35,1,1,0,0,0-.05-.31.72.72,0,0,0-.18-.25,1.42,1.42,0,0,0-.3-.2,3.33,3.33,0,0,0-.45-.16l-.69-.21a2.11,2.11,0,0,1-.53-.22,1.39,1.39,0,0,1-.39-.32,1.64,1.64,0,0,1-.24-.43,1.51,1.51,0,0,1-.08-.53,1.53,1.53,0,0,1,.15-.67,1.5,1.5,0,0,1,.43-.55,1.94,1.94,0,0,1,.67-.35,2.69,2.69,0,0,1,.87-.13h.39l.36,0,.34,0,.33.06-.1.79-.34-.06-.32,0-.33,0h-.37a2.12,2.12,0,0,0-.52.06,1.33,1.33,0,0,0-.38.17.8.8,0,0,0-.23.26.72.72,0,0,0-.08.32.9.9,0,0,0,.05.3.54.54,0,0,0,.15.22.86.86,0,0,0,.26.18,1.92,1.92,0,0,0,.37.14l.68.18a2.5,2.5,0,0,1,.62.24,1.64,1.64,0,0,1,.44.33,1,1,0,0,1,.26.42,1.36,1.36,0,0,1,.09.51,1.87,1.87,0,0,1-.16.75,1.69,1.69,0,0,1-.46.6,2,2,0,0,1-.7.39,2.67,2.67,0,0,1-.91.14h-.46l-.42,0a2.32,2.32,0,0,1-.38-.06Z" style="fill:#4d4d4d"/><path d="M341.23,689a2.1,2.1,0,1,1,2.1-2.1A2.11,2.11,0,0,1,341.23,689Zm0-3.69a1.6,1.6,0,1,0,1.6,1.59A1.6,1.6,0,0,0,341.23,685.32Z" style="fill:#8b8f9e"/><path d="M206.56,681v-7.87h3.89V674h-2.94v2.55h2.65v.84h-2.65v2.8h3V681Z" style="fill:#4d4d4d"/><path d="M212.32,673.2a.6.6,0,0,1,.05-.24.35.35,0,0,1,.12-.19.42.42,0,0,1,.18-.11.6.6,0,0,1,.48,0,.42.42,0,0,1,.18.11.57.57,0,0,1,.12.18.93.93,0,0,1,0,.25.86.86,0,0,1,0,.24.55.55,0,0,1-.3.3.74.74,0,0,1-.48,0,.57.57,0,0,1-.18-.12.36.36,0,0,1-.12-.18A.6.6,0,0,1,212.32,673.2Zm1.05,1.89V681h-.91v-5.83Z" style="fill:#4d4d4d"/><path d="M215.06,680.87V680l.41.1.41.07.43,0h.44a2.23,2.23,0,0,0,.55-.07,1.19,1.19,0,0,0,.41-.18.78.78,0,0,0,.34-.63.75.75,0,0,0-.06-.31.59.59,0,0,0-.17-.25,1.28,1.28,0,0,0-.31-.2,2.56,2.56,0,0,0-.45-.16l-.68-.21a2,2,0,0,1-.53-.22,1.39,1.39,0,0,1-.39-.32,1.22,1.22,0,0,1-.24-.43,1.51,1.51,0,0,1-.09-.53,1.53,1.53,0,0,1,.15-.67,1.75,1.75,0,0,1,.43-.55,2,2,0,0,1,.68-.35,2.65,2.65,0,0,1,.87-.13h.39l.36,0,.34,0,.32.06-.09.79-.34-.06-.33,0-.33,0h-.37a2,2,0,0,0-.51.06,1.21,1.21,0,0,0-.38.17.7.7,0,0,0-.23.26.61.61,0,0,0-.08.32.7.7,0,0,0,.05.3.64.64,0,0,0,.14.22,1,1,0,0,0,.26.18,2.61,2.61,0,0,0,.37.14l.68.18a2.58,2.58,0,0,1,.63.24,1.64,1.64,0,0,1,.44.33,1.14,1.14,0,0,1,.26.42,1.37,1.37,0,0,1,.08.51,1.71,1.71,0,0,1-.16.75,1.79,1.79,0,0,1-.45.6,2,2,0,0,1-.71.39,2.58,2.58,0,0,1-.9.14h-.47l-.41,0a2.32,2.32,0,0,1-.38-.06Z" style="fill:#4d4d4d"/><path d="M225.12,672.6V681h-.89v-.38l-.33.19-.37.14-.39.09-.41,0a2.64,2.64,0,0,1-1-.18,2.26,2.26,0,0,1-.78-.55,2.63,2.63,0,0,1-.52-.9,3.86,3.86,0,0,1-.18-1.22,4,4,0,0,1,.21-1.34,2.86,2.86,0,0,1,.61-1,2.68,2.68,0,0,1,.94-.61,3.27,3.27,0,0,1,1.19-.21h.29l.26,0,.23,0,.21.06v-2.51Zm-2,3.25a2,2,0,0,0-.8.15,1.59,1.59,0,0,0-.61.45,1.69,1.69,0,0,0-.39.71,3.16,3.16,0,0,0-.14,1,3.19,3.19,0,0,0,.13.92,1.73,1.73,0,0,0,.35.66,1.53,1.53,0,0,0,.55.4,1.78,1.78,0,0,0,.7.13l.36,0,.32-.07a1.45,1.45,0,0,0,.29-.11l.3-.17V676l-.27,0-.25,0-.27,0Z" style="fill:#4d4d4d"/><path d="M226.92,678.06a4.41,4.41,0,0,1,.18-1.31,2.78,2.78,0,0,1,.53-1,2.21,2.21,0,0,1,.78-.58,2.39,2.39,0,0,1,1-.2,2.73,2.73,0,0,1,.94.15,1.8,1.8,0,0,1,.71.45,2,2,0,0,1,.44.74,3.11,3.11,0,0,1,.15,1v.37a1.09,1.09,0,0,1,0,.18,1.1,1.1,0,0,1,0,.18h-3.75a2.75,2.75,0,0,0,.14.95,1.63,1.63,0,0,0,1,1.06,2.35,2.35,0,0,0,.77.12l.48,0,.45-.07a3.89,3.89,0,0,0,.43-.11l.43-.17v.83a3.25,3.25,0,0,1-.46.17c-.14,0-.29.08-.43.12l-.47.07-.54,0a3.23,3.23,0,0,1-1.11-.18,2.33,2.33,0,0,1-.86-.54,2.61,2.61,0,0,1-.54-.94A4.48,4.48,0,0,1,226.92,678.06Zm.94-.71h2.76a2.4,2.4,0,0,0-.08-.68,1.38,1.38,0,0,0-.25-.5,1,1,0,0,0-.42-.29,1.38,1.38,0,0,0-.55-.1,1.27,1.27,0,0,0-.52.11,1.47,1.47,0,0,0-.44.31,1.59,1.59,0,0,0-.32.5A2.59,2.59,0,0,0,227.86,677.35Z" style="fill:#4d4d4d"/><path d="M237,681v-3.85a1.38,1.38,0,0,0-.09-.52,1,1,0,0,0-.25-.39,1.13,1.13,0,0,0-.41-.25,1.64,1.64,0,0,0-.56-.09l-.37,0-.34.05-.33.09a2.67,2.67,0,0,0-.36.14V681h-.92v-5.83l.88-.07v.39l.4-.2.37-.13a2.7,2.7,0,0,1,.39-.08l.45,0a2.57,2.57,0,0,1,.87.13,1.69,1.69,0,0,1,.65.39,1.48,1.48,0,0,1,.4.62,2.49,2.49,0,0,1,.13.85v4Z" style="fill:#4d4d4d"/><path d="M222.18,687.68a2.1,2.1,0,1,1,2.1-2.1A2.11,2.11,0,0,1,222.18,687.68Zm0-3.69a1.6,1.6,0,1,0,1.6,1.59A1.6,1.6,0,0,0,222.18,684Z" style="fill:#8b8f9e"/><path d="M202.52,364.41l-2.19-7.87h1.07l1.78,6.92h.06l1.67-4.86-.68-2.06h1l2.23,6.92h.06l1.82-6.92h1l-2.25,7.87h-1.26l-1.47-4.57h-.05l-1.54,4.57Z" style="fill:#4d4d4d"/><path d="M211,361.48a4.41,4.41,0,0,1,.18-1.31,2.78,2.78,0,0,1,.53-1,2.16,2.16,0,0,1,.79-.58,2.34,2.34,0,0,1,1-.2,2.79,2.79,0,0,1,.95.15,1.84,1.84,0,0,1,.7.45,2,2,0,0,1,.44.74,3.13,3.13,0,0,1,.15,1v.36a1.09,1.09,0,0,1,0,.18c0,.06,0,.12,0,.18h-3.76a3,3,0,0,0,.14.95,1.77,1.77,0,0,0,.39.67,1.73,1.73,0,0,0,.6.39,2.29,2.29,0,0,0,.76.12l.48,0,.45-.07a3.39,3.39,0,0,0,.43-.11,3.83,3.83,0,0,0,.43-.17v.83a3.67,3.67,0,0,1-.45.17l-.44.12-.47.07-.54,0a3.23,3.23,0,0,1-1.11-.18,2.21,2.21,0,0,1-.85-.54,2.49,2.49,0,0,1-.55-.94A4.48,4.48,0,0,1,211,361.48Zm1-.71h2.76a2.38,2.38,0,0,0-.09-.68,1.24,1.24,0,0,0-.25-.5,1,1,0,0,0-.41-.29,1.43,1.43,0,0,0-.56-.1,1.27,1.27,0,0,0-.52.11,1.47,1.47,0,0,0-.76.81A2.58,2.58,0,0,0,212,360.77Z" style="fill:#4d4d4d"/><path d="M217.06,361.48a4.41,4.41,0,0,1,.18-1.31,2.78,2.78,0,0,1,.53-1,2.21,2.21,0,0,1,.78-.58,2.43,2.43,0,0,1,1-.2,2.73,2.73,0,0,1,.94.15,1.8,1.8,0,0,1,.71.45,2,2,0,0,1,.44.74,3.13,3.13,0,0,1,.15,1v.36a1.09,1.09,0,0,1,0,.18,1.1,1.1,0,0,1,0,.18H218a2.75,2.75,0,0,0,.14.95,1.77,1.77,0,0,0,.39.67,1.69,1.69,0,0,0,.59.39,2.35,2.35,0,0,0,.77.12l.48,0,.44-.07a3.54,3.54,0,0,0,.44-.11,3.83,3.83,0,0,0,.43-.17v.83a3.67,3.67,0,0,1-.45.17l-.44.12-.47.07-.54,0a3.23,3.23,0,0,1-1.11-.18,2.33,2.33,0,0,1-.86-.54,2.61,2.61,0,0,1-.54-.94A4.48,4.48,0,0,1,217.06,361.48Zm.94-.71h2.76a2.4,2.4,0,0,0-.08-.68,1.38,1.38,0,0,0-.25-.5,1,1,0,0,0-.42-.29,1.38,1.38,0,0,0-.55-.1,1.27,1.27,0,0,0-.52.11,1.47,1.47,0,0,0-.44.31,1.59,1.59,0,0,0-.32.5A2.59,2.59,0,0,0,218,360.77Z" style="fill:#4d4d4d"/><path d="M226.3,358.55l-.11.9-.18,0-.16,0-.16,0h-.17a1.43,1.43,0,0,0-.29,0,1.53,1.53,0,0,0-.27.11,1.93,1.93,0,0,0-.27.19,2.53,2.53,0,0,0-.31.28v4.44h-.92v-5.83l.9-.07v.68a3.42,3.42,0,0,1,.33-.33,1.43,1.43,0,0,1,.3-.22,1.37,1.37,0,0,1,.31-.13,1.1,1.1,0,0,1,.31,0H226l.17,0Z" style="fill:#4d4d4d"/><path d="M227.15,359.27v-.73h.71v-1l.91-.13v1.16h1.53v.73h-1.53v3.32a1.65,1.65,0,0,0,.06.48.88.88,0,0,0,.2.34.72.72,0,0,0,.29.2.9.9,0,0,0,.37.07h.21l.18,0a.63.63,0,0,0,.19,0l.21,0v.77l-.27.06-.24,0-.25,0h-.26a2.08,2.08,0,0,1-.63-.09,1.37,1.37,0,0,1-.51-.32,1.34,1.34,0,0,1-.34-.57,2.66,2.66,0,0,1-.12-.86v-3.37Z" style="fill:#4d4d4d"/><path d="M215.53,371.1a2.1,2.1,0,1,1,2.1-2.09A2.1,2.1,0,0,1,215.53,371.1Zm0-3.69a1.6,1.6,0,1,0,1.6,1.6A1.6,1.6,0,0,0,215.53,367.41Z" style="fill:#8b8f9e"/><path d="M314.94,403v3.29H314v-7.87h2.06a4,4,0,0,1,1.15.15,2.48,2.48,0,0,1,.86.43,1.76,1.76,0,0,1,.52.66,2.23,2.23,0,0,1,.17.88,2.76,2.76,0,0,1-.1.77,2.22,2.22,0,0,1-.3.64,2.19,2.19,0,0,1-.47.49,2.33,2.33,0,0,1-.64.35l2.09,3.5h-1.12L316.29,403Zm0-3.78v3H316a2.6,2.6,0,0,0,.71-.09,1.5,1.5,0,0,0,.55-.28,1.3,1.3,0,0,0,.35-.48,1.79,1.79,0,0,0,.12-.68,1.73,1.73,0,0,0-.11-.63,1.06,1.06,0,0,0-.33-.45,1.49,1.49,0,0,0-.55-.27,2.62,2.62,0,0,0-.79-.1Z" style="fill:#4d4d4d"/><path d="M325.74,403.31a3.79,3.79,0,0,1-.22,1.29,2.87,2.87,0,0,1-.59,1,2.6,2.6,0,0,1-1.93.83,2.74,2.74,0,0,1-1.06-.19,2,2,0,0,1-.81-.56,2.44,2.44,0,0,1-.52-.94,4.12,4.12,0,0,1-.18-1.28,3.57,3.57,0,0,1,.22-1.29,2.87,2.87,0,0,1,.59-1,2.53,2.53,0,0,1,.87-.62,2.67,2.67,0,0,1,1.05-.22,2.78,2.78,0,0,1,1.06.2,2,2,0,0,1,.82.56,2.62,2.62,0,0,1,.52.93A4.19,4.19,0,0,1,325.74,403.31Zm-.95,0a3.4,3.4,0,0,0-.12-1,1.82,1.82,0,0,0-.33-.7,1.44,1.44,0,0,0-.54-.41,1.86,1.86,0,0,0-.73-.14,1.54,1.54,0,0,0-.68.15,1.45,1.45,0,0,0-.54.45,2.05,2.05,0,0,0-.35.71,3.55,3.55,0,0,0-.12,1,4,4,0,0,0,.11,1,2,2,0,0,0,.34.69,1.58,1.58,0,0,0,.54.42,1.83,1.83,0,0,0,.73.13,1.57,1.57,0,0,0,.68-.15,1.67,1.67,0,0,0,.54-.45,2.2,2.2,0,0,0,.35-.72A3.45,3.45,0,0,0,324.79,403.35Z" style="fill:#4d4d4d"/><path d="M327.18,403.38a4.46,4.46,0,0,1,.18-1.31,2.78,2.78,0,0,1,.53-1,2.21,2.21,0,0,1,.78-.58,2.39,2.39,0,0,1,1-.2,2.73,2.73,0,0,1,.94.15,1.72,1.72,0,0,1,.71.46,1.9,1.9,0,0,1,.44.73,3.13,3.13,0,0,1,.15,1v.36a1.09,1.09,0,0,1,0,.18,1.1,1.1,0,0,1,0,.18h-3.75a2.75,2.75,0,0,0,.14.95,1.7,1.7,0,0,0,.39.67,1.79,1.79,0,0,0,.59.39,2.35,2.35,0,0,0,.77.12l.48,0,.44-.07a2.36,2.36,0,0,0,.44-.11,3.83,3.83,0,0,0,.43-.17V406a3.25,3.25,0,0,1-.46.17c-.14.05-.29.08-.43.12l-.47.07-.54,0a3.23,3.23,0,0,1-1.11-.18,2.33,2.33,0,0,1-.86-.54,2.61,2.61,0,0,1-.54-.94A4.48,4.48,0,0,1,327.18,403.38Zm.94-.71h2.76a2.4,2.4,0,0,0-.08-.68,1.38,1.38,0,0,0-.25-.5,1,1,0,0,0-.42-.29,1.38,1.38,0,0,0-.55-.1,1.27,1.27,0,0,0-.52.11,1.47,1.47,0,0,0-.44.31,1.59,1.59,0,0,0-.32.5A2.71,2.71,0,0,0,328.12,402.67Z" style="fill:#4d4d4d"/><path d="M336.42,400.45l-.11.91-.18-.05-.16,0h-.33a1.43,1.43,0,0,0-.29,0l-.27.11a1.93,1.93,0,0,0-.27.19,2.53,2.53,0,0,0-.31.28v4.44h-.92v-5.83l.9-.07v.68a3.42,3.42,0,0,1,.33-.33,1.91,1.91,0,0,1,.3-.22,1.37,1.37,0,0,1,.31-.13,1.1,1.1,0,0,1,.31,0h.34l.17,0Z" style="fill:#4d4d4d"/><path d="M345,406.31v-3.84a1.72,1.72,0,0,0-.08-.52,1,1,0,0,0-.24-.4,1.09,1.09,0,0,0-.4-.25,1.59,1.59,0,0,0-.55-.09l-.38,0-.32,0-.32.09-.38.14v4.8h-.91v-3.86a1.81,1.81,0,0,0-.07-.54,1,1,0,0,0-.23-.39.94.94,0,0,0-.39-.23,2,2,0,0,0-.58-.08l-.39,0-.33,0a1.81,1.81,0,0,0-.31.09l-.36.14v4.8h-.91v-5.83l.87-.07v.39c.15-.08.28-.15.4-.2a1.9,1.9,0,0,1,.38-.13l.38-.08.43,0a3,3,0,0,1,.52,0,2.12,2.12,0,0,1,.45.11,2.15,2.15,0,0,1,.37.19,1.87,1.87,0,0,1,.3.26l.5-.28a2.19,2.19,0,0,1,.46-.18,2.52,2.52,0,0,1,.46-.1,2.78,2.78,0,0,1,.51,0,2.67,2.67,0,0,1,.88.13,1.61,1.61,0,0,1,.63.39,1.57,1.57,0,0,1,.39.62,2.49,2.49,0,0,1,.13.85v3.95Z" style="fill:#4d4d4d"/><path d="M352.88,403.31a3.57,3.57,0,0,1-.22,1.29,2.87,2.87,0,0,1-.59,1,2.47,2.47,0,0,1-.88.62,2.66,2.66,0,0,1-1.05.21,2.78,2.78,0,0,1-1.06-.19,2.15,2.15,0,0,1-.81-.56,2.57,2.57,0,0,1-.51-.94,4.12,4.12,0,0,1-.18-1.28,3.79,3.79,0,0,1,.21-1.29,2.89,2.89,0,0,1,.6-1,2.53,2.53,0,0,1,.87-.62,2.58,2.58,0,0,1,1-.22,2.83,2.83,0,0,1,1.07.2,2,2,0,0,1,.81.56,2.47,2.47,0,0,1,.52.93A4.19,4.19,0,0,1,352.88,403.31Zm-.95,0a3.84,3.84,0,0,0-.11-1,2,2,0,0,0-.34-.7,1.44,1.44,0,0,0-.54-.41,1.81,1.81,0,0,0-.72-.14,1.58,1.58,0,0,0-.69.15,1.45,1.45,0,0,0-.54.45,2.05,2.05,0,0,0-.35.71,3.55,3.55,0,0,0-.12,1,3.5,3.5,0,0,0,.12,1,2,2,0,0,0,.33.69,1.58,1.58,0,0,0,.54.42,1.9,1.9,0,0,0,.73.13,1.51,1.51,0,0,0,.68-.15,1.67,1.67,0,0,0,.54-.45,2.2,2.2,0,0,0,.35-.72A3.45,3.45,0,0,0,351.93,403.35Z" style="fill:#4d4d4d"/><path d="M358.3,406.31v-3.85a1.46,1.46,0,0,0-.08-.52,1.14,1.14,0,0,0-.25-.39,1.09,1.09,0,0,0-.42-.25,1.59,1.59,0,0,0-.55-.09l-.38,0-.33,0-.34.09-.36.14v4.8h-.91v-5.83l.88-.07v.39a2.33,2.33,0,0,1,.39-.19,2.92,2.92,0,0,1,.38-.14l.39-.08.44,0a2.67,2.67,0,0,1,.88.13,1.76,1.76,0,0,1,.65.39,1.46,1.46,0,0,1,.39.62,2.48,2.48,0,0,1,.14.85v3.95Z" style="fill:#4d4d4d"/><path d="M365.79,397.92v8.39h-.89v-.38a2.59,2.59,0,0,1-.33.19,3,3,0,0,1-.36.14,2.59,2.59,0,0,1-.4.09,2.73,2.73,0,0,1-.41,0,2.64,2.64,0,0,1-1-.18,2.26,2.26,0,0,1-.78-.55,2.46,2.46,0,0,1-.51-.9,3.59,3.59,0,0,1-.19-1.22,3.73,3.73,0,0,1,.22-1.34,2.72,2.72,0,0,1,.61-1,2.59,2.59,0,0,1,.94-.61,3.22,3.22,0,0,1,1.18-.21h.3l.26,0,.23,0,.21.06V398Zm-2,3.25a2.07,2.07,0,0,0-.8.15,1.67,1.67,0,0,0-.61.45,2,2,0,0,0-.39.71,3.23,3.23,0,0,0-.13,1,2.86,2.86,0,0,0,.13.91,1.85,1.85,0,0,0,.35.67,1.45,1.45,0,0,0,.55.39,1.75,1.75,0,0,0,.7.13l.36,0,.32-.07a1.15,1.15,0,0,0,.29-.11,2.28,2.28,0,0,0,.3-.17v-3.9l-.27,0-.26,0-.26,0Z" style="fill:#4d4d4d"/><path d="M339.9,413a2.1,2.1,0,1,1,2.1-2.09A2.1,2.1,0,0,1,339.9,413Zm0-3.69a1.6,1.6,0,1,0,1.6,1.6A1.6,1.6,0,0,0,339.9,409.31Z" style="fill:#8b8f9e"/><path d="M383.87,316.2v7h-.95v-7h-2.3v-.84h5.56v.84Z" style="fill:#4d4d4d"/><path d="M386.55,320.3a4.35,4.35,0,0,1,.18-1.3,2.61,2.61,0,0,1,.53-1,2.28,2.28,0,0,1,.79-.59,2.37,2.37,0,0,1,.95-.19,2.79,2.79,0,0,1,.95.15,1.84,1.84,0,0,1,.7.45,2,2,0,0,1,.44.73,3.17,3.17,0,0,1,.15,1V320a1.09,1.09,0,0,1,0,.18c0,.06,0,.12,0,.18h-3.76a3,3,0,0,0,.14.95,1.77,1.77,0,0,0,.39.67,1.6,1.6,0,0,0,.6.39,2.29,2.29,0,0,0,.76.12,3.7,3.7,0,0,0,.48,0l.45-.07a2.26,2.26,0,0,0,.43-.11,3.2,3.2,0,0,0,.43-.17v.83a3.67,3.67,0,0,1-.45.17,3.6,3.6,0,0,1-.44.12l-.47.07a4.61,4.61,0,0,1-.54,0,3.23,3.23,0,0,1-1.11-.18,2.21,2.21,0,0,1-.85-.54,2.49,2.49,0,0,1-.55-.94A4.43,4.43,0,0,1,386.55,320.3Zm.95-.7h2.76a2.4,2.4,0,0,0-.09-.69,1.31,1.31,0,0,0-.25-.5,1,1,0,0,0-.41-.29,1.64,1.64,0,0,0-.56-.1,1.27,1.27,0,0,0-.52.11,1.6,1.6,0,0,0-.44.31,1.71,1.71,0,0,0-.32.5A2.66,2.66,0,0,0,387.5,319.6Z" style="fill:#4d4d4d"/><path d="M393.68,321.8a.42.42,0,0,0,0,.2.61.61,0,0,0,.12.16.7.7,0,0,0,.23.1,1.67,1.67,0,0,0,.34,0l1.57,0a3,3,0,0,1,.72.11,1.4,1.4,0,0,1,.5.27,1,1,0,0,1,.29.39,1.24,1.24,0,0,1,.1.52,1.65,1.65,0,0,1-.18.77,1.7,1.7,0,0,1-.52.62,2.93,2.93,0,0,1-.89.41,5.08,5.08,0,0,1-1.23.14,3.88,3.88,0,0,1-1-.11,2.32,2.32,0,0,1-.75-.31,1.46,1.46,0,0,1-.47-.49,1.22,1.22,0,0,1-.09-1,1.31,1.31,0,0,1,.21-.36A1.52,1.52,0,0,1,393,323a2,2,0,0,1,.37-.22v-.05a.94.94,0,0,1-.18-.12.8.8,0,0,1-.15-.17,1.24,1.24,0,0,1-.1-.2,1,1,0,0,1,0-.24.75.75,0,0,1,.05-.26.68.68,0,0,1,.12-.24,1.34,1.34,0,0,1,.21-.2,1.08,1.08,0,0,1,.26-.14v0a1.64,1.64,0,0,1-.37-.26,1.35,1.35,0,0,1-.28-.35,1.7,1.7,0,0,1-.18-.46,1.93,1.93,0,0,1-.07-.55,2.38,2.38,0,0,1,.16-.91,1.59,1.59,0,0,1,.46-.69,2,2,0,0,1,.74-.44,3,3,0,0,1,1-.15h.24l.24,0,.23,0,.19,0h1.8v.68h-1.1v0a1.31,1.31,0,0,1,.41.51,2.06,2.06,0,0,1,.12.35,1.75,1.75,0,0,1,0,.4,2.16,2.16,0,0,1-.16.88,1.78,1.78,0,0,1-.47.64,2.23,2.23,0,0,1-.77.39,3.48,3.48,0,0,1-1,.13h-.35l-.16,0-.15,0a.35.35,0,0,0-.15.07l-.12.11a.35.35,0,0,0-.08.13A.39.39,0,0,0,393.68,321.8Zm-.46,2.09a.71.71,0,0,0,.11.39.85.85,0,0,0,.32.3,1.46,1.46,0,0,0,.51.19,2.87,2.87,0,0,0,.69.07,4.37,4.37,0,0,0,.87-.07,1.9,1.9,0,0,0,.6-.21.93.93,0,0,0,.35-.33.72.72,0,0,0,.11-.41.82.82,0,0,0,0-.28.49.49,0,0,0-.16-.19.73.73,0,0,0-.28-.13,2.34,2.34,0,0,0-.43-.06l-2-.1a1.46,1.46,0,0,0-.28.14.8.8,0,0,0-.33.42A.8.8,0,0,0,393.22,323.89Zm1.61-3.15a2.28,2.28,0,0,0,.62-.08,1,1,0,0,0,.69-.68,2.43,2.43,0,0,0,.08-.64,1.62,1.62,0,0,0-.09-.57,1.15,1.15,0,0,0-.26-.41,1.44,1.44,0,0,0-.42-.24,1.65,1.65,0,0,0-.56-.08,1.71,1.71,0,0,0-.57.08,1.18,1.18,0,0,0-.43.26,1,1,0,0,0-.27.43,1.8,1.8,0,0,0-.09.6,1.59,1.59,0,0,0,.1.61,1,1,0,0,0,.68.64A1.67,1.67,0,0,0,394.83,320.74Z" style="fill:#4d4d4d"/><path d="M398.79,320.3A4.35,4.35,0,0,1,399,319a2.61,2.61,0,0,1,.53-1,2.28,2.28,0,0,1,.79-.59,2.37,2.37,0,0,1,.95-.19,2.79,2.79,0,0,1,.95.15,1.84,1.84,0,0,1,.7.45,2,2,0,0,1,.44.73,3.17,3.17,0,0,1,.15,1V320a1.09,1.09,0,0,1,0,.18c0,.06,0,.12,0,.18H399.7a3,3,0,0,0,.14.95,1.77,1.77,0,0,0,.39.67,1.6,1.6,0,0,0,.6.39,2.24,2.24,0,0,0,.76.12,3.7,3.7,0,0,0,.48,0l.45-.07a2.26,2.26,0,0,0,.43-.11,3.2,3.2,0,0,0,.43-.17v.83a3.67,3.67,0,0,1-.45.17,3.6,3.6,0,0,1-.44.12l-.47.07a4.61,4.61,0,0,1-.54,0,3.23,3.23,0,0,1-1.11-.18,2.21,2.21,0,0,1-.85-.54,2.49,2.49,0,0,1-.55-.94A4.43,4.43,0,0,1,398.79,320.3Zm.95-.7h2.76a2.4,2.4,0,0,0-.09-.69,1.31,1.31,0,0,0-.25-.5,1,1,0,0,0-.41-.29,1.64,1.64,0,0,0-.56-.1,1.27,1.27,0,0,0-.52.11,1.6,1.6,0,0,0-.44.31,1.71,1.71,0,0,0-.32.5A2.66,2.66,0,0,0,399.74,319.6Z" style="fill:#4d4d4d"/><path d="M406.11,314.84v8.39h-.91v-8.31Z" style="fill:#4d4d4d"/><path d="M407.91,320.3a4.35,4.35,0,0,1,.18-1.3,2.61,2.61,0,0,1,.53-1,2.28,2.28,0,0,1,.79-.59,2.37,2.37,0,0,1,.95-.19,2.83,2.83,0,0,1,.95.15,1.84,1.84,0,0,1,.7.45,2,2,0,0,1,.44.73,3.17,3.17,0,0,1,.15,1V320a1.09,1.09,0,0,1,0,.18c0,.06,0,.12,0,.18h-3.76a3,3,0,0,0,.14.95,1.77,1.77,0,0,0,.39.67,1.6,1.6,0,0,0,.6.39,2.24,2.24,0,0,0,.76.12,3.7,3.7,0,0,0,.48,0l.45-.07a2.26,2.26,0,0,0,.43-.11,3.83,3.83,0,0,0,.43-.17v.83a3.67,3.67,0,0,1-.45.17,3.6,3.6,0,0,1-.44.12l-.47.07a4.7,4.7,0,0,1-.54,0,3.23,3.23,0,0,1-1.11-.18,2.21,2.21,0,0,1-.85-.54,2.49,2.49,0,0,1-.55-.94A4.43,4.43,0,0,1,407.91,320.3Zm.95-.7h2.76a2.4,2.4,0,0,0-.09-.69,1.31,1.31,0,0,0-.25-.5,1,1,0,0,0-.41-.29,1.64,1.64,0,0,0-.56-.1,1.27,1.27,0,0,0-.52.11,1.6,1.6,0,0,0-.44.31,1.71,1.71,0,0,0-.32.5A2.66,2.66,0,0,0,408.86,319.6Z" style="fill:#4d4d4d"/><path d="M417.94,323.23v-3.85a1.72,1.72,0,0,0-.08-.52,1,1,0,0,0-.26-.39,1.29,1.29,0,0,0-.41-.25,1.6,1.6,0,0,0-.56-.09l-.37,0-.34.05-.33.09-.36.14v4.8h-.91V317.4l.87-.07v.39c.14-.08.27-.14.4-.2l.38-.13a2.26,2.26,0,0,1,.39-.07,3.11,3.11,0,0,1,1.32.1,1.72,1.72,0,0,1,.64.39,1.55,1.55,0,0,1,.4.62,2.49,2.49,0,0,1,.13.85v4Z" style="fill:#4d4d4d"/><path d="M400.11,314.38a2.1,2.1,0,1,1,2.09-2.1A2.1,2.1,0,0,1,400.11,314.38Zm0-3.7a1.6,1.6,0,1,0,1.59,1.6A1.6,1.6,0,0,0,400.11,310.68Z" style="fill:#8b8f9e"/><path d="M202.68,638.56a2.1,2.1,0,1,1,2.1-2.1A2.1,2.1,0,0,1,202.68,638.56Zm0-3.7a1.6,1.6,0,1,0,1.6,1.6A1.6,1.6,0,0,0,202.68,634.86Z" style="fill:#8b8f9e"/><path d="M174.45,624.75h-.08l-.22,6.93h-1.56l.35-8.53h2.65l1.6,5.07h.07l1.61-5.07h2.48l.41,8.53h-1.67l-.29-6.93h-.07L178,630.07h-1.79Z" style="fill:#4d4d4d"/><path d="M188.71,627.47v4.21h-1.48v-.41a2.7,2.7,0,0,1-.81.37,3.7,3.7,0,0,1-1,.12,2.15,2.15,0,0,1-1.53-.5,1.73,1.73,0,0,1-.52-1.31,1.79,1.79,0,0,1,.71-1.48,3.52,3.52,0,0,1,2.22-.57h.88v-.29a1,1,0,0,0-.32-.76,1.67,1.67,0,0,0-1.11-.28,4.19,4.19,0,0,0-.89.09,5.5,5.5,0,0,0-.93.3l-.21-1.34a7.09,7.09,0,0,1,1.14-.36,5.55,5.55,0,0,1,1.18-.12,2.87,2.87,0,0,1,2,.61A2.22,2.22,0,0,1,188.71,627.47ZM185,629.82a.61.61,0,0,0,.24.51,1.11,1.11,0,0,0,.67.18,3.53,3.53,0,0,0,.67-.07,3.48,3.48,0,0,0,.61-.22V629l-.41,0h-.41a2,2,0,0,0-1.05.22A.7.7,0,0,0,185,629.82Z" style="fill:#4d4d4d"/><path d="M195.51,627.47v4.21H194v-.41a2.7,2.7,0,0,1-.81.37,3.7,3.7,0,0,1-1,.12,2.15,2.15,0,0,1-1.53-.5,1.73,1.73,0,0,1-.52-1.31,1.81,1.81,0,0,1,.7-1.48,3.57,3.57,0,0,1,2.23-.57H194v-.29a.94.94,0,0,0-.31-.76,1.72,1.72,0,0,0-1.12-.28,4.17,4.17,0,0,0-.88.09,5.89,5.89,0,0,0-.94.3l-.2-1.34a7.09,7.09,0,0,1,1.14-.36,5.55,5.55,0,0,1,1.18-.12,2.83,2.83,0,0,1,2,.61A2.19,2.19,0,0,1,195.51,627.47Zm-3.72,2.35a.61.61,0,0,0,.24.51,1.09,1.09,0,0,0,.67.18,3.34,3.34,0,0,0,.66-.07,3,3,0,0,0,.61-.22V629l-.4,0h-.41a2,2,0,0,0-1,.22A.7.7,0,0,0,191.79,629.82Z" style="fill:#4d4d4d"/><path d="M197.08,631.59v-1.38a7.73,7.73,0,0,0,.94.17c.31,0,.61,0,.89,0a1.83,1.83,0,0,0,.93-.16.49.49,0,0,0,.26-.42.53.53,0,0,0-.16-.38,1.89,1.89,0,0,0-.66-.29l-.82-.24a2.24,2.24,0,0,1-1-.62,1.65,1.65,0,0,1-.36-1.11,1.8,1.8,0,0,1,.73-1.48,3.22,3.22,0,0,1,2-.58,7.81,7.81,0,0,1,.85,0l.73.09-.09,1.34c-.28,0-.55-.08-.79-.1s-.51,0-.77,0a1.61,1.61,0,0,0-.84.16.43.43,0,0,0-.26.37.51.51,0,0,0,.12.35,1.3,1.3,0,0,0,.59.26l.76.21a2.36,2.36,0,0,1,1.2.67,1.65,1.65,0,0,1,.36,1.09,1.9,1.9,0,0,1-.74,1.58,3.14,3.14,0,0,1-2,.58c-.35,0-.69,0-1,0A5.89,5.89,0,0,1,197.08,631.59Z" style="fill:#4d4d4d"/><path d="M202.75,626.44v-1.21h.78v-1.18l1.6-.13v1.31h1.62v1.21h-1.62v2.9a1,1,0,0,0,.27.78.94.94,0,0,0,.69.26,2.41,2.41,0,0,0,.4,0l.42-.09v1.34a4.3,4.3,0,0,1-.63.12,6.19,6.19,0,0,1-.67,0,2.11,2.11,0,0,1-1.51-.55,2.16,2.16,0,0,1-.57-1.64v-3.13Z" style="fill:#4d4d4d"/><path d="M211.91,625.24l-.1,1.52-.36-.07-.37,0a2.22,2.22,0,0,0-.61.1,2.6,2.6,0,0,0-.64.33v4.58h-1.59v-6.41l1.58-.07v.74a2.56,2.56,0,0,1,.64-.61,1.43,1.43,0,0,1,.7-.18l.4,0A1.81,1.81,0,0,1,211.91,625.24Z" style="fill:#4d4d4d"/><path d="M212.88,623.48a.93.93,0,0,1,.24-.64.85.85,0,0,1,.68-.27.89.89,0,0,1,.68.25.94.94,0,0,1,.24.66.89.89,0,0,1-.24.61.87.87,0,0,1-.68.27.91.91,0,0,1-.68-.25A.88.88,0,0,1,212.88,623.48Zm1.73,1.72v6.48H213v-6.41Z" style="fill:#4d4d4d"/><path d="M220.83,625.28l-.13,1.43-.55-.08a5.17,5.17,0,0,0-.57,0,1.57,1.57,0,0,0-1.22.5,2,2,0,0,0-.47,1.4,1.89,1.89,0,0,0,.49,1.43,1.74,1.74,0,0,0,1.22.45,5.85,5.85,0,0,0,.6,0,5.61,5.61,0,0,0,.61-.13v1.36a5.18,5.18,0,0,1-.66.14,5.27,5.27,0,0,1-.71,0,3.32,3.32,0,0,1-2.3-.78,3.09,3.09,0,0,1-.87-2.41,3.37,3.37,0,0,1,.95-2.53,3.14,3.14,0,0,1,2.26-.91c.27,0,.51,0,.71,0A4,4,0,0,1,220.83,625.28Z" style="fill:#4d4d4d"/><path d="M226.16,631.68v-3.89a1.2,1.2,0,0,0-.28-.9,1.18,1.18,0,0,0-.84-.27,3.61,3.61,0,0,0-.59,0,2.66,2.66,0,0,0-.58.16v4.85h-1.59v-9l1.59-.08v3.07a3.55,3.55,0,0,1,.82-.39,2.84,2.84,0,0,1,.84-.12,2.23,2.23,0,0,1,1.63.59,2.31,2.31,0,0,1,.6,1.71v4.23Z" style="fill:#4d4d4d"/><path d="M229.14,626.44v-1.21h.78v-1.18l1.6-.13v1.31h1.62v1.21h-1.62v2.9a1,1,0,0,0,.26.78,1,1,0,0,0,.7.26,2.41,2.41,0,0,0,.4,0l.42-.09v1.34a4.3,4.3,0,0,1-.63.12,6.23,6.23,0,0,1-.68,0,2.08,2.08,0,0,1-1.5-.55,2.16,2.16,0,0,1-.57-1.64v-3.13Z" style="fill:#4d4d4d"/></svg>