<svg xmlns="http://www.w3.org/2000/svg" viewBox="0 0 621 734"><path d="M182.15,28.41l3.31,4.3,1,2.79,2.16,2.84L203.92,56.2,207,57.93l8.21,11.29L218,72.07,203.92,87.68l-.52,3.45L195,95.34l-10,2.41-.93.65-2,3.42,8.75,22.54,4.9,10.69,2.21,7.69,2.68,3.55,1.48.93.55-.35,1.42,1.34,2.08,4.29,3.34-1.36,1,1.2,5.55.65,2.32-3.2,2.33-.08,3.44-1.28.47,1.86,3.88,2.21,1.23-.44.47,1,3.28,1.64h0l2.38-.22h0l2.3,3.86,2.54,1.91,3.09.22,1.48,2,2.19,1.42,1.17-.22,1.92-2.41,1.58.22,2.66,3.61,1.25.71,1.45-.19,1.56-2.29,3.31-.22,5.36-2.55,2.6-.13,1.48,2.54-1.18,1.42.14,3.2,3.2,2.87,3.36,1.21,1.1,1.42,3.93,2.35.25,1.48.88.93,1.34-.14,1.91,1.42-.44.93,2.74,3.42.71,3.48,1.86,2.62-.41,2.93,1.28,2.19.22,2.29,1.59,2.14h1.09l.39,2,.6.16,3.91-2.08,1.07-1.83,4.13.14,1.36-2.49,3.91,2,1.26-1,.3-1.64,2.6-1.91,1.21-2.19.46,1.61,1.18,1.15-.14,2.76,1.45,1.86,2.6,1.64,2.54.41,4.76-1.42,1.39-1.47,1.67-5.28,1.92,1-.08,1.78,1.8.71.49,1.12,3.29.35.9-.76,2.76.14,2.6,1.14h2.73l1.18,2.19,1.94.14.74,1.78,1,.08.22,1.5h1l.62-1.23L354,189.51l-1.34-4-1-8.26.3-1.34L365,165.25l3.56-2L396.14,157l26.34,12.53,14.77,5.14-2.22,5,.91.3.62,1.43-2.79,3.06.88,1.48-1.56,4.4,5,.3h0l.79.14,1.81,2.92,1.17.63,2.25,4.35-1.18,8.32-1.51,5.11-.27,5.61,20.51,18.1-5.9,2.22-2.49.14L450.32,237l-2.38.14-4.21-1.07-2.19,7.33-2.21,1.78-.17,1.07-15.07-3.07,10.78,22.51-3.06,24.45,6.94,5.34,2.66,1.56,2.59.49,11.44,8.78,3.58,1.47,7.14,2.14L491.7,309l4.93,1.15,2.62-.28,0,6.65,4.46-.93,19.12,5.52,14.69,5.47,2.92-1.06,6.1-6,1.62-2.47,4.76-11,4.81-3.39,2.16,2.76.25,1.83,3.55,8.51,3.56,14.8,4.84,4.4,6.23,14.14-.13,1.28,2.46-.13,4.43,1.75,1.78-1,1.26.55,0,2.18,2.22,3.42,4.24,12.86-.3,15.07L587,395.29l-.76,4.82-3.1,4.56.31,3.48-1,3.44-3.15,6.29-1.39,1.29-3.48,7.77-.3,2.1.14,3.17,1,3-.09,1.78-.57.41.22,3.17,2.46,2.63,4.46,10.2,8.67,9.68-1.92,4.43L579,473.62l-7.22.5-1.31,1L569.38,474,564,472.56l-3.8.84-1.09-.43-3,1.5-.33,1.53-2.08,1.78.3,4.57-2,5.22-2.35,3.09-3.83,8.23-4.43,6.79-.85.63-7.46,1.47-10.48,1.54-.85,1.34-.38,3.3-9.71,9-4.1,18.35-7.28,7L484.73,550H459.18l-19.5.14-7.41-3.44-9.44-1.76L416.46,542l4.6-7.38.57-4.52-.57-2,.08-3.85-1.2-.63,1.39-2,.08-1.7-.79-2.32-1.2-1.12-8.92-4.71-1.81-.14-2.13,3.72-2.11-2.95-2.29-.71-1,.85-.74,2.27-1.83.63-3.64,2.73-3.64-3.36-.3-1.15,1.4-2.87-1.92-1.34-.85-1.7-2.68-1.12-.13-1.12-1.32-.79-.3.71-15.56,3.17-17.2-2.82-8.26,3-1.48-.5-1.42-1.39-4.19-2.05-1.45-1.89-2.38-5.36-.19-3.88-.87-.85-2.85-.14-2.57-1-3.55-7.2-8.73-9.13-1.78-5.09-3-4.29.14-3.53-7.06-.85-5.58.36-2.46-1.21-4.82,2.05-8.17.5-.88,1.88-1.72.3-2.87,1.89-.25,6-3.8.17-3.47,1-9-.08-1.34-1.21-.3-1.2-1.31-.27-.36-1.12-5,1.34-1,1.39-2.85-1-.22,2.05-4.18-1.21-5.72.5-1.17-.91-3,.06-3-1.12-6.67-.9-6.32-4.74-4.76.22-2.81-.85-1.78.77-1.94-.22-.61.3-.6,2.46-.41,4.16-2-2.1-1,1.83.9.68L202,474l-1.7-.71.82,2.32,1.56,1.83-.08,1.26-.8.85-.93-.85.11-2.24-1.15-2.05-3.69-.9-2.92-2.14-1.18-4.51.9-2.33,3-2,.74-2.47-.22-1.42-5.36.49-2.44-1.75-4.92-1.12v-2.76l2.49-3.58-2.41-2.14-1.23-5.36-4.13-5.08-.35-6.84-2.25-3.17-1.23-3.94-.9-1.64-4.51-.06-2.9-.93-.25-7.68-1.48-3.26-4.29-.57.06-1.4,1.72-2.13.71-5,.6-6.92-.57-7.13,1.09-1.86,4.38-1.34,2.38-2-.61-1.48-1.36-1.15-3.45-.76-1-.85-.8-1.64.09-2.55,1.72-2.38,8.59-1.64,7.9-3,1.15-1.29.93-2,.14-6.64L186,352.3l2.41-9.33-.25-2.63-2.46-7.08-6.43-9.49-3.42-2.54L174.17,319l.43-6.67-.52-7.72-1.17-3.47-3.7-4.46-6.53-2.93L159.23,291,157,287.64l-2.77-6.73-8.31-6.53-1.7-.22-2.68-1.48-1.2,2.13-1.83,1.48-4.68,1.64L115,297.43,111.26,292l-2.54.63-5.5,4.11-1.7-1.56-3.28,1.5-1.37-4.4-4.51-9.58-3-5.16-5.74-7.17-6.73-6L71,266.64h0l-3.42-19.51-1.34-4-18.43-19.7-4-.71-10.23.17.17-18.76,25.68,0,1.18-1.91,2.24-.93,25.49-5.61L91.79,197,94,199.38l6.4-.79,10-5.61.63-1.56,14.33-3.14,9.74-6.46,2.27-2.62-.11-1.1-1.07-1.78L131,171.21l-7-1.91L117,163.25l-4.21-1.42-3-.22-5.75-2.27,0,1-1.86-.21-1-1.21-.16-2.43,4.89-5.55,4-2.77,2.46-2.92,1.4-.22,1.12-1.86-.08-2.49-1.86-4.13-1.45-1.12-.85.05V133l-1.48-2.57-3-1.56-4.38-15.12-3.06-7.9-1.56-2.44-8.34-7.9-1.56-.09-2.6-1.64L80.19,90,77.65,86.4l-8.48-5.86-3.8-1.83-5.12-.93-.9-.66H51.42l-.09-1.34-5.85-5.14-3.85-6.86h0L52,56.56l.63,1.09,5.28,3,1,2.93h1L61.59,62l2.33,1.2L68,63.07l1.56.93,2-.09,4,2.17,2.08.19,9-4.27,1.64-2.57,3.75-2.35,2.21-3.37,3.91-2.57.09-3.58.52-.79-.66-1.21,1.78-.85.16-1.5,4.51-.57,2.08-.85,4,1.64-.49-2.74.55-1.06,1.88-1.29,5.86-1.28,1.34,5.49,2.51,3.72,2,5.5,1.64.36,2.21,2,1.86.36,1.43-.09,1.34-1.14,3.58-1.21,5-.65,1.94,3.93,3.67-1.5,6.53-4,.88-1.59L153,41.13l4.89-2,5.61.62,2-.35,1.64-1.7,2.16-1.23,2.32-.22,5.26-3.33Z" style="fill:#e5e5e5"/><path d="M71.61,230.9h.94v3.43h.68L76,230.9h1.12l-3.07,3.72,3.15,4.15H76l-2.75-3.6h-.71v3.6h-.94Z" style="fill:#4d4d4d"/><path d="M82.71,234.71v4.06h-.86v-.41a3.32,3.32,0,0,1-.41.22,3.25,3.25,0,0,1-.4.15,3,3,0,0,1-.43.09l-.5,0a2.47,2.47,0,0,1-.75-.11,1.72,1.72,0,0,1-.58-.33,1.36,1.36,0,0,1-.36-.5,1.53,1.53,0,0,1-.13-.64,1.55,1.55,0,0,1,.17-.71A1.62,1.62,0,0,1,79,236a2.49,2.49,0,0,1,.82-.38,5,5,0,0,1,1.16-.13h.89v-.63a1.67,1.67,0,0,0-.08-.52,1,1,0,0,0-.25-.38,1.05,1.05,0,0,0-.42-.22,1.79,1.79,0,0,0-.59-.08l-.42,0-.42.07-.43.12-.45.17-.19-.77.52-.21a4.5,4.5,0,0,1,.49-.14,3.85,3.85,0,0,1,.49-.08l.54,0a3,3,0,0,1,.89.12,1.92,1.92,0,0,1,.66.37,1.62,1.62,0,0,1,.4.59A2.28,2.28,0,0,1,82.71,234.71Zm-3.47,2.47a1,1,0,0,0,.06.35.79.79,0,0,0,.2.27.88.88,0,0,0,.33.18,1.68,1.68,0,0,0,.47.06,2.73,2.73,0,0,0,.41,0,2.26,2.26,0,0,0,.39-.07,2.79,2.79,0,0,0,.37-.14l.36-.18v-1.37h-.92a3.5,3.5,0,0,0-.77.08,1.38,1.38,0,0,0-.52.2.91.91,0,0,0-.29.3A.82.82,0,0,0,79.24,237.18Z" style="fill:#4d4d4d"/><path d="M91.93,238.77v-3.84a1.68,1.68,0,0,0-.07-.52,1.22,1.22,0,0,0-.24-.4,1.13,1.13,0,0,0-.41-.25,1.55,1.55,0,0,0-.55-.09,2.17,2.17,0,0,0-.37,0l-.32.05a1.92,1.92,0,0,0-.32.09l-.38.14v4.8h-.91V234.9a2.13,2.13,0,0,0-.07-.53.94.94,0,0,0-.23-.39,1.05,1.05,0,0,0-.4-.23,1.64,1.64,0,0,0-.57-.08,2.3,2.3,0,0,0-.39,0l-.33,0a1.92,1.92,0,0,0-.32.09l-.36.15v4.8h-.91v-5.83l.88-.08v.4l.4-.2a2.79,2.79,0,0,1,.37-.14l.39-.07.42,0a4.17,4.17,0,0,1,.52,0,2.44,2.44,0,0,1,.45.12,1.69,1.69,0,0,1,.38.19,1.87,1.87,0,0,1,.3.26,4.27,4.27,0,0,1,.49-.28,2.27,2.27,0,0,1,.47-.18,3.43,3.43,0,0,1,.46-.11,3.89,3.89,0,0,1,.51,0,2.57,2.57,0,0,1,.87.13,1.76,1.76,0,0,1,.64.38,1.66,1.66,0,0,1,.38.63,2.48,2.48,0,0,1,.14.85v4Z" style="fill:#4d4d4d"/><path d="M94.92,241.06v-8.12l.88-.08v.38a3,3,0,0,1,.36-.18l.38-.13a2.57,2.57,0,0,1,.4-.08l.44,0a2.86,2.86,0,0,1,1,.17,2,2,0,0,1,.76.54,2.42,2.42,0,0,1,.48.9,4.11,4.11,0,0,1,.17,1.27,3.6,3.6,0,0,1-.22,1.31,2.72,2.72,0,0,1-1.62,1.61,3.6,3.6,0,0,1-1.25.21h-.44l-.21,0-.21,0v2.3Zm1.9-3a2.11,2.11,0,0,0,.8-.15,1.74,1.74,0,0,0,.64-.42,2,2,0,0,0,.42-.71,3,3,0,0,0,.15-1,3.28,3.28,0,0,0-.12-.95,1.72,1.72,0,0,0-.34-.66,1.27,1.27,0,0,0-.54-.38,2,2,0,0,0-.72-.12,1.77,1.77,0,0,0-.33,0l-.31.05a1.81,1.81,0,0,0-.31.09l-.33.14v4l.26,0,.24,0,.24,0Z" style="fill:#4d4d4d"/><path d="M101.22,235.84a4.1,4.1,0,0,1,.19-1.31,2.76,2.76,0,0,1,.52-1,2.34,2.34,0,0,1,.79-.58,2.39,2.39,0,0,1,1-.2,2.77,2.77,0,0,1,.94.15,1.76,1.76,0,0,1,.7.45,1.9,1.9,0,0,1,.44.74,3.11,3.11,0,0,1,.15,1v.55c0,.06,0,.12,0,.17h-3.76a3,3,0,0,0,.14,1,1.77,1.77,0,0,0,.39.67,1.58,1.58,0,0,0,.6.38,2.06,2.06,0,0,0,.76.13l.49,0,.44-.07a3,3,0,0,0,.43-.11l.44-.17v.83a3.78,3.78,0,0,1-.46.17l-.44.11a3.29,3.29,0,0,1-.47.08l-.53,0a3.33,3.33,0,0,1-1.12-.18,2.19,2.19,0,0,1-.85-.55,2.24,2.24,0,0,1-.54-.93A4.17,4.17,0,0,1,101.22,235.84Zm1-.71h2.76a2.82,2.82,0,0,0-.08-.68,1.25,1.25,0,0,0-.26-.5,1,1,0,0,0-.41-.29,1.4,1.4,0,0,0-.56-.1,1.26,1.26,0,0,0-.51.11,1.31,1.31,0,0,0-.44.31,1.81,1.81,0,0,0-.33.5A2.47,2.47,0,0,0,102.17,235.13Z" style="fill:#4d4d4d"/><path d="M111.25,238.77v-3.85a1.62,1.62,0,0,0-.08-.52,1.14,1.14,0,0,0-.25-.39,1.17,1.17,0,0,0-.42-.25,1.59,1.59,0,0,0-.55-.09,2.3,2.3,0,0,0-.38,0l-.33.05a1.89,1.89,0,0,0-.34.09l-.36.14v4.8h-.91v-5.83l.88-.08v.4a2.4,2.4,0,0,1,.39-.2l.38-.13a2.24,2.24,0,0,1,.39-.08l.44,0a2.67,2.67,0,0,1,.88.13,1.89,1.89,0,0,1,.65.38,1.56,1.56,0,0,1,.39.63,2.48,2.48,0,0,1,.14.85v4Z" style="fill:#4d4d4d"/><path d="M91.86,245.46a2.1,2.1,0,1,1,2.09-2.1A2.1,2.1,0,0,1,91.86,245.46Zm0-3.7a1.6,1.6,0,1,0,1.59,1.6A1.6,1.6,0,0,0,91.86,241.76Z" style="fill:#8b8f9e"/><path d="M122.44,188.45v-.84h2.39v3.58a5.12,5.12,0,0,1-.54.1l-.54.07-.56,0h-.6a4.07,4.07,0,0,1-1.46-.25,3.32,3.32,0,0,1-1.18-.72,3.24,3.24,0,0,1-.8-1.21,4.51,4.51,0,0,1-.28-1.66,4.71,4.71,0,0,1,.34-1.88,3.48,3.48,0,0,1,.94-1.32,3.82,3.82,0,0,1,1.31-.75,4.82,4.82,0,0,1,1.51-.24h.48l.42,0,.39.05.42.07-.11.84-.51-.08-.32,0-.37,0h-.44a3.38,3.38,0,0,0-1.15.19,2.75,2.75,0,0,0-1,.58,2.9,2.9,0,0,0-.68,1,3.73,3.73,0,0,0-.25,1.43,3.92,3.92,0,0,0,.22,1.38,2.61,2.61,0,0,0,.62,1,2.43,2.43,0,0,0,.9.59,3,3,0,0,0,1.08.19h.61l.28,0,.32,0v-2.05Z" style="fill:#4d4d4d"/><path d="M126.6,188.4a4.06,4.06,0,0,1,.19-1.31,2.61,2.61,0,0,1,.52-1,2.13,2.13,0,0,1,.79-.58,2.38,2.38,0,0,1,1-.2,2.79,2.79,0,0,1,.95.15,1.84,1.84,0,0,1,.7.45,2,2,0,0,1,.44.74,3.11,3.11,0,0,1,.15,1v.55c0,.06,0,.12,0,.17h-3.76a3,3,0,0,0,.14,1,1.77,1.77,0,0,0,.39.67,1.58,1.58,0,0,0,.6.38,2.06,2.06,0,0,0,.76.13,3.64,3.64,0,0,0,.48,0,3.25,3.25,0,0,0,.45-.06l.43-.11.44-.17V191a3.93,3.93,0,0,1-.46.18l-.44.11a3.54,3.54,0,0,1-.47.07,4.39,4.39,0,0,1-.54,0,3.23,3.23,0,0,1-1.11-.18,2.12,2.12,0,0,1-.85-.55,2.24,2.24,0,0,1-.54-.93A4.17,4.17,0,0,1,126.6,188.4Zm1-.71h2.76a2.33,2.33,0,0,0-.09-.68,1.24,1.24,0,0,0-.25-.5,1.12,1.12,0,0,0-.41-.3,1.64,1.64,0,0,0-.56-.09,1.13,1.13,0,0,0-.52.11,1.42,1.42,0,0,0-.44.31,1.48,1.48,0,0,0-.32.5A2.47,2.47,0,0,0,127.55,187.69Z" style="fill:#4d4d4d"/><path d="M136.63,191.33v-3.86a1.6,1.6,0,0,0-.08-.51,1,1,0,0,0-.26-.39,1.13,1.13,0,0,0-.41-.25,1.6,1.6,0,0,0-.56-.09H135l-.33.06a1.89,1.89,0,0,0-.34.09,2.4,2.4,0,0,0-.36.14v4.8H133v-5.84l.87-.07v.4a3,3,0,0,1,.4-.2,2.84,2.84,0,0,1,.38-.13,2.24,2.24,0,0,1,.39-.08,3,3,0,0,1,.44,0,2.67,2.67,0,0,1,.88.13,1.7,1.7,0,0,1,.64.38,1.58,1.58,0,0,1,.4.63,2.45,2.45,0,0,1,.13.85v4Z" style="fill:#4d4d4d"/><path d="M139.26,188.4a4.06,4.06,0,0,1,.19-1.31,2.61,2.61,0,0,1,.52-1,2.13,2.13,0,0,1,.79-.58,2.38,2.38,0,0,1,1-.2,2.79,2.79,0,0,1,.95.15,1.84,1.84,0,0,1,.7.45,2,2,0,0,1,.44.74,3.11,3.11,0,0,1,.15,1v.55a1.11,1.11,0,0,0,0,.17h-3.76a3,3,0,0,0,.14,1,1.77,1.77,0,0,0,.39.67,1.58,1.58,0,0,0,.6.38,2.06,2.06,0,0,0,.76.13,3.64,3.64,0,0,0,.48,0,3.25,3.25,0,0,0,.45-.06l.43-.11.43-.17V191a3.83,3.83,0,0,1-.45.18l-.44.11a3.54,3.54,0,0,1-.47.07,4.5,4.5,0,0,1-.54,0,3.23,3.23,0,0,1-1.11-.18,2.12,2.12,0,0,1-.85-.55,2.24,2.24,0,0,1-.54-.93A4.17,4.17,0,0,1,139.26,188.4Zm1-.71H143a2.33,2.33,0,0,0-.09-.68,1.24,1.24,0,0,0-.25-.5,1.12,1.12,0,0,0-.41-.3,1.64,1.64,0,0,0-.56-.09,1.13,1.13,0,0,0-.52.11,1.27,1.27,0,0,0-.43.31,1.37,1.37,0,0,0-.33.5A2.47,2.47,0,0,0,140.21,187.69Z" style="fill:#4d4d4d"/><path d="M152.82,191.33v-3.84a1.74,1.74,0,0,0-.08-.53,1,1,0,0,0-.24-.39,1.09,1.09,0,0,0-.4-.25,1.59,1.59,0,0,0-.55-.09h-.38l-.32.06-.32.09a3.79,3.79,0,0,0-.38.14v4.8h-.91v-3.87a1.7,1.7,0,0,0-.07-.53.85.85,0,0,0-.23-.39,1,1,0,0,0-.39-.24,2,2,0,0,0-.58-.07h-.39l-.33,0a1.81,1.81,0,0,0-.31.09l-.36.15v4.8h-.91v-5.84l.87-.07v.4l.4-.21a2.84,2.84,0,0,1,.38-.13l.38-.07a2.89,2.89,0,0,1,.43,0,4.41,4.41,0,0,1,.52,0,2.12,2.12,0,0,1,.45.12,1.62,1.62,0,0,1,.37.19,1.48,1.48,0,0,1,.3.26,4.53,4.53,0,0,1,.5-.29,4.37,4.37,0,0,1,.46-.18l.46-.1a4.12,4.12,0,0,1,.51,0,2.67,2.67,0,0,1,.88.13,1.59,1.59,0,0,1,.63.38,1.68,1.68,0,0,1,.39.63,2.45,2.45,0,0,1,.13.85v4Z" style="fill:#4d4d4d"/><path d="M156.63,185.42v3.89a1.53,1.53,0,0,0,.09.54,1.07,1.07,0,0,0,.24.4,1.27,1.27,0,0,0,.41.24,1.82,1.82,0,0,0,.55.08l.38,0,.32-.05.31-.09.37-.14v-4.78l.91-.07v5.91h-.89V191a2.16,2.16,0,0,1-.37.19,2.35,2.35,0,0,1-.37.14l-.38.08a3.15,3.15,0,0,1-.44,0,2.63,2.63,0,0,1-.88-.13,1.65,1.65,0,0,1-.64-.38,1.68,1.68,0,0,1-.39-.63,2.83,2.83,0,0,1-.13-.86v-3.92Z" style="fill:#4d4d4d"/><path d="M162.24,183.54a.69.69,0,0,1,0-.25.47.47,0,0,1,.12-.18.52.52,0,0,1,.19-.12.61.61,0,0,1,.24,0,.67.67,0,0,1,.24,0,.57.57,0,0,1,.18.12.5.5,0,0,1,.11.18.62.62,0,0,1,0,.25.61.61,0,0,1,0,.24.78.78,0,0,1-.11.18.54.54,0,0,1-.18.11.67.67,0,0,1-.24,0,.61.61,0,0,1-.24,0,.5.5,0,0,1-.19-.11.57.57,0,0,1-.12-.18A.61.61,0,0,1,162.24,183.54Zm1,1.88v5.91h-.91v-5.84Z" style="fill:#4d4d4d"/><path d="M169.94,182.94v8.39h-.89v-.39a1.77,1.77,0,0,1-.33.19,1.94,1.94,0,0,1-.36.15,2.59,2.59,0,0,1-.4.09,2.73,2.73,0,0,1-.41,0,2.46,2.46,0,0,1-1-.19,2.11,2.11,0,0,1-.78-.54,2.46,2.46,0,0,1-.51-.9,3.61,3.61,0,0,1-.19-1.23,3.81,3.81,0,0,1,.22-1.34,2.76,2.76,0,0,1,.61-1,2.59,2.59,0,0,1,.94-.61,3.22,3.22,0,0,1,1.18-.21h.3a2.06,2.06,0,0,1,.26,0l.23,0a.65.65,0,0,1,.21.06V183Zm-2,3.25a2.07,2.07,0,0,0-.8.15,1.76,1.76,0,0,0-.61.44,2.08,2.08,0,0,0-.39.72,3.12,3.12,0,0,0-.13.95,2.88,2.88,0,0,0,.13.92,1.73,1.73,0,0,0,.35.66,1.37,1.37,0,0,0,.55.4,1.94,1.94,0,0,0,.7.13,2,2,0,0,0,.36,0,1.65,1.65,0,0,0,.32-.06l.29-.11.3-.17v-3.9l-.27,0-.26,0H168Z" style="fill:#4d4d4d"/><path d="M171.74,188.4a4.06,4.06,0,0,1,.19-1.31,2.76,2.76,0,0,1,.52-1,2.22,2.22,0,0,1,.79-.58,2.39,2.39,0,0,1,1-.2,2.77,2.77,0,0,1,.94.15,1.76,1.76,0,0,1,.7.45,1.9,1.9,0,0,1,.44.74,3.11,3.11,0,0,1,.15,1v.55c0,.06,0,.12,0,.17h-3.76a3,3,0,0,0,.14,1,1.91,1.91,0,0,0,.39.67,1.58,1.58,0,0,0,.6.38,2.06,2.06,0,0,0,.76.13,3.91,3.91,0,0,0,.49,0,3.11,3.11,0,0,0,.44-.06l.43-.11.44-.17V191a3.35,3.35,0,0,1-.46.18l-.44.11a3.31,3.31,0,0,1-.47.07,4.33,4.33,0,0,1-.53,0,3.33,3.33,0,0,1-1.12-.18,2.19,2.19,0,0,1-.85-.55,2.24,2.24,0,0,1-.54-.93A4.17,4.17,0,0,1,171.74,188.4Zm.95-.71h2.76a2.76,2.76,0,0,0-.08-.68,1.25,1.25,0,0,0-.26-.5,1.12,1.12,0,0,0-.41-.3,1.6,1.6,0,0,0-.56-.09,1.12,1.12,0,0,0-.51.11,1.31,1.31,0,0,0-.44.31,1.67,1.67,0,0,0-.33.5A2.47,2.47,0,0,0,172.69,187.69Z" style="fill:#4d4d4d"/><path d="M181.77,191.33v-3.86a1.37,1.37,0,0,0-.08-.51,1.14,1.14,0,0,0-.25-.39,1.09,1.09,0,0,0-.42-.25,1.59,1.59,0,0,0-.55-.09h-.38l-.33.06a2.14,2.14,0,0,0-.34.09,2.4,2.4,0,0,0-.36.14v4.8h-.91v-5.84l.88-.07v.4a2.4,2.4,0,0,1,.39-.2,3.43,3.43,0,0,1,.38-.13,2.24,2.24,0,0,1,.39-.08,3.1,3.1,0,0,1,.44,0,2.67,2.67,0,0,1,.88.13,1.75,1.75,0,0,1,.65.38,1.56,1.56,0,0,1,.39.63,2.44,2.44,0,0,1,.14.85v4Z" style="fill:#4d4d4d"/><path d="M151,198a2.1,2.1,0,1,1,2.1-2.1A2.1,2.1,0,0,1,151,198Zm0-3.7a1.6,1.6,0,1,0,1.6,1.6A1.6,1.6,0,0,0,151,194.32Z" style="fill:#8b8f9e"/><path d="M295.32,206.7h-2.15v-7.87h2.09a5.33,5.33,0,0,1,1.66.23,3.34,3.34,0,0,1,1.24.7,2.89,2.89,0,0,1,.77,1.17,4.51,4.51,0,0,1,.27,1.62,5.49,5.49,0,0,1-.28,1.8,3.45,3.45,0,0,1-.78,1.3,3.19,3.19,0,0,1-1.22.78A4.51,4.51,0,0,1,295.32,206.7Zm-1.2-7.07v6.26h1.21a3.42,3.42,0,0,0,1.19-.19,2.56,2.56,0,0,0,.91-.61,2.81,2.81,0,0,0,.58-1,4.86,4.86,0,0,0,.2-1.46,4,4,0,0,0-.2-1.31,2.53,2.53,0,0,0-.6-.94,2.48,2.48,0,0,0-1-.55,4.19,4.19,0,0,0-1.27-.18Z" style="fill:#4d4d4d"/><path d="M300.68,203.77a4.4,4.4,0,0,1,.19-1.31,2.94,2.94,0,0,1,.52-1,2.34,2.34,0,0,1,.79-.58,2.39,2.39,0,0,1,1-.2,2.73,2.73,0,0,1,.94.15,1.87,1.87,0,0,1,.71.45,2,2,0,0,1,.44.74,3.11,3.11,0,0,1,.15,1v.37a1.09,1.09,0,0,1,0,.18.88.88,0,0,1,0,.17H301.6a3.05,3.05,0,0,0,.13,1,1.93,1.93,0,0,0,.4.67,1.47,1.47,0,0,0,.59.38,2.11,2.11,0,0,0,.77.13l.48,0,.44-.07a3.54,3.54,0,0,0,.44-.11l.43-.17v.83a3.25,3.25,0,0,1-.46.17l-.44.11a3.14,3.14,0,0,1-.46.08l-.54,0a3.23,3.23,0,0,1-1.11-.18,2.16,2.16,0,0,1-.86-.55,2.48,2.48,0,0,1-.54-.93A4.46,4.46,0,0,1,300.68,203.77Zm.95-.71h2.76a2.82,2.82,0,0,0-.08-.68,1.38,1.38,0,0,0-.25-.5,1,1,0,0,0-.42-.29,1.4,1.4,0,0,0-.56-.1,1.26,1.26,0,0,0-.51.11,1.31,1.31,0,0,0-.44.31,1.59,1.59,0,0,0-.32.5A2.14,2.14,0,0,0,301.63,203.06Z" style="fill:#4d4d4d"/><path d="M311.59,198.31v8.39h-.89v-.39a2.14,2.14,0,0,1-.32.2l-.37.14a2.59,2.59,0,0,1-.4.09,2.73,2.73,0,0,1-.41,0,2.46,2.46,0,0,1-1-.19,2.11,2.11,0,0,1-.78-.54,2.46,2.46,0,0,1-.51-.9,3.61,3.61,0,0,1-.19-1.23,3.71,3.71,0,0,1,.22-1.33,2.72,2.72,0,0,1,.61-1,2.59,2.59,0,0,1,.94-.61,3.22,3.22,0,0,1,1.18-.21h.3l.26,0,.23,0,.21.06v-2.51Zm-2,3.25a2.07,2.07,0,0,0-.8.15,1.76,1.76,0,0,0-.61.44,2.08,2.08,0,0,0-.39.72,3.16,3.16,0,0,0-.13.95,2.88,2.88,0,0,0,.13.92,1.73,1.73,0,0,0,.35.66,1.37,1.37,0,0,0,.55.4,1.75,1.75,0,0,0,.7.13l.36,0,.32-.07a1.72,1.72,0,0,0,.29-.11l.3-.17v-3.9l-.27,0a1.09,1.09,0,0,0-.26,0l-.26,0Z" style="fill:#4d4d4d"/><path d="M313.39,203.77a4.4,4.4,0,0,1,.19-1.31,2.76,2.76,0,0,1,.52-1,2.34,2.34,0,0,1,.79-.58,2.39,2.39,0,0,1,1-.2,2.77,2.77,0,0,1,.94.15,1.87,1.87,0,0,1,.71.45,2,2,0,0,1,.43.74,3.11,3.11,0,0,1,.15,1v.55c0,.06,0,.12,0,.17H314.3a3,3,0,0,0,.14,1,2.08,2.08,0,0,0,.39.67,1.58,1.58,0,0,0,.6.38,2.07,2.07,0,0,0,.77.13l.48,0,.44-.07a3,3,0,0,0,.43-.11l.44-.17v.83a3.25,3.25,0,0,1-.46.17l-.44.11a3.29,3.29,0,0,1-.47.08l-.53,0a3.33,3.33,0,0,1-1.12-.18,2.19,2.19,0,0,1-.85-.55,2.24,2.24,0,0,1-.54-.93A4.46,4.46,0,0,1,313.39,203.77Zm.95-.71h2.76a2.82,2.82,0,0,0-.08-.68,1.25,1.25,0,0,0-.26-.5,1,1,0,0,0-.41-.29,1.4,1.4,0,0,0-.56-.1,1.26,1.26,0,0,0-.51.11,1.31,1.31,0,0,0-.44.31,1.81,1.81,0,0,0-.33.5A2.47,2.47,0,0,0,314.34,203.06Z" style="fill:#4d4d4d"/><path d="M327,206.7v-3.84a1.68,1.68,0,0,0-.07-.52,1.09,1.09,0,0,0-.25-.4,1,1,0,0,0-.4-.25,1.55,1.55,0,0,0-.55-.09,2.12,2.12,0,0,0-.37,0l-.33,0a1.81,1.81,0,0,0-.31.09l-.38.14v4.8h-.91v-3.87a1.74,1.74,0,0,0-.08-.53.83.83,0,0,0-.22-.39,1.05,1.05,0,0,0-.4-.23,1.66,1.66,0,0,0-.58-.08,2.42,2.42,0,0,0-.39,0l-.33,0-.31.09-.36.15v4.8h-.91v-5.83l.88-.08v.4a3,3,0,0,1,.4-.2,2.79,2.79,0,0,1,.37-.14l.38-.07.43,0a4.28,4.28,0,0,1,.52,0,2.44,2.44,0,0,1,.45.12,1.43,1.43,0,0,1,.37.19,1.28,1.28,0,0,1,.3.26,5.39,5.39,0,0,1,.5-.28,2.42,2.42,0,0,1,.46-.18,4,4,0,0,1,.47-.11,3.89,3.89,0,0,1,.51,0,2.61,2.61,0,0,1,.87.13,1.76,1.76,0,0,1,.64.38,1.66,1.66,0,0,1,.38.63,2.49,2.49,0,0,1,.13.85v3.95Z" style="fill:#4d4d4d"/><path d="M329.47,206.58v-.83l.41.1.41.07.43,0,.44,0a2.31,2.31,0,0,0,.56-.07,1.34,1.34,0,0,0,.4-.18.77.77,0,0,0,.26-.28.86.86,0,0,0,.08-.36.94.94,0,0,0,0-.3.64.64,0,0,0-.18-.25,1.42,1.42,0,0,0-.3-.2,2.36,2.36,0,0,0-.45-.16l-.69-.21a2,2,0,0,1-.53-.22,1.39,1.39,0,0,1-.39-.32,1.22,1.22,0,0,1-.24-.43,1.51,1.51,0,0,1-.09-.53,1.53,1.53,0,0,1,.15-.67,1.75,1.75,0,0,1,.43-.55,2.31,2.31,0,0,1,.68-.36,3,3,0,0,1,.87-.12h.39l.36,0,.34,0,.32.06-.09.79-.34-.06-.32,0-.33,0h-.37a2.06,2.06,0,0,0-.52.06,1.21,1.21,0,0,0-.38.17.71.71,0,0,0-.23.26.72.72,0,0,0-.08.32.9.9,0,0,0,.05.3.54.54,0,0,0,.15.22,1,1,0,0,0,.25.18,2.61,2.61,0,0,0,.37.14l.69.18a2.67,2.67,0,0,1,.62.24,1.64,1.64,0,0,1,.44.33,1,1,0,0,1,.26.42,1.36,1.36,0,0,1,.09.51,1.72,1.72,0,0,1-.17.75,1.64,1.64,0,0,1-.45.6,2,2,0,0,1-.71.39,2.83,2.83,0,0,1-.9.14h-.47l-.41,0a2.32,2.32,0,0,1-.38-.06Z" style="fill:#4d4d4d"/><path d="M336.3,206.7l-2-5.87h1l1.61,5H337l1.53-5h.93l-2,5.87Z" style="fill:#4d4d4d"/><path d="M344.81,202.64v4.06H344v-.41a4.33,4.33,0,0,1-.42.22,2.74,2.74,0,0,1-.4.15,3,3,0,0,1-.43.09l-.49,0a2.53,2.53,0,0,1-.76-.11,1.83,1.83,0,0,1-.58-.33,1.36,1.36,0,0,1-.36-.5,1.53,1.53,0,0,1-.13-.64,1.55,1.55,0,0,1,.17-.71,1.62,1.62,0,0,1,.5-.55,2.46,2.46,0,0,1,.83-.38,4.86,4.86,0,0,1,1.15-.13h.89v-.63a1.67,1.67,0,0,0-.08-.52,1,1,0,0,0-.25-.38,1.05,1.05,0,0,0-.42-.22,1.79,1.79,0,0,0-.59-.08l-.42,0-.42.07-.43.12-.45.17-.19-.77.52-.21c.17-.06.33-.1.49-.14a3.85,3.85,0,0,1,.49-.08l.54,0a3,3,0,0,1,.89.12,1.92,1.92,0,0,1,.66.37,1.62,1.62,0,0,1,.4.59A2.28,2.28,0,0,1,344.81,202.64Zm-3.47,2.47a.81.81,0,0,0,.07.35.6.6,0,0,0,.2.27.75.75,0,0,0,.33.18,1.56,1.56,0,0,0,.46.06,2.86,2.86,0,0,0,.42,0,1.61,1.61,0,0,0,.38-.08,2.32,2.32,0,0,0,.37-.13,3,3,0,0,0,.36-.18v-1.37H343a3.53,3.53,0,0,0-.78.08,1.38,1.38,0,0,0-.52.2.91.91,0,0,0-.29.3A.82.82,0,0,0,341.34,205.11Z" style="fill:#4d4d4d"/><path d="M350.87,202.64v4.06H350v-.41a4.33,4.33,0,0,1-.42.22,2.74,2.74,0,0,1-.4.15,3,3,0,0,1-.43.09l-.49,0a2.53,2.53,0,0,1-.76-.11,1.83,1.83,0,0,1-.58-.33,1.36,1.36,0,0,1-.36-.5,1.53,1.53,0,0,1-.13-.64,1.55,1.55,0,0,1,.17-.71,1.62,1.62,0,0,1,.5-.55,2.46,2.46,0,0,1,.83-.38,4.86,4.86,0,0,1,1.15-.13H350v-.63a1.67,1.67,0,0,0-.08-.52,1,1,0,0,0-.25-.38,1.05,1.05,0,0,0-.42-.22,1.79,1.79,0,0,0-.59-.08l-.42,0-.42.07-.43.12-.45.17-.19-.77.52-.21c.17-.06.33-.1.49-.14a3.85,3.85,0,0,1,.49-.08l.54,0a3,3,0,0,1,.89.12,1.92,1.92,0,0,1,.66.37,1.62,1.62,0,0,1,.4.59A2.28,2.28,0,0,1,350.87,202.64Zm-3.47,2.47a.81.81,0,0,0,.07.35.6.6,0,0,0,.2.27.75.75,0,0,0,.33.18,1.56,1.56,0,0,0,.46.06,2.86,2.86,0,0,0,.42,0,1.61,1.61,0,0,0,.38-.08,2.32,2.32,0,0,0,.37-.13,3,3,0,0,0,.36-.18v-1.37h-.91a3.53,3.53,0,0,0-.78.08,1.38,1.38,0,0,0-.52.2.91.91,0,0,0-.29.3A.82.82,0,0,0,347.4,205.11Z" style="fill:#4d4d4d"/><path d="M355.78,200.84l-.11.9-.18,0-.16,0-.16,0H355a1.43,1.43,0,0,0-.29,0,1.53,1.53,0,0,0-.27.11,1.93,1.93,0,0,0-.27.19,2.53,2.53,0,0,0-.31.28v4.44h-.92v-5.83l.9-.08v.69a3.42,3.42,0,0,1,.33-.33,1.43,1.43,0,0,1,.3-.22,1.37,1.37,0,0,1,.31-.13,1.1,1.1,0,0,1,.31,0h.18l.16,0,.17,0Z" style="fill:#4d4d4d"/><path d="M356.63,201.56v-.73h.71v-1l.91-.13v1.16h1.53v.73h-1.53v3.32a1.65,1.65,0,0,0,.06.48.88.88,0,0,0,.2.34.72.72,0,0,0,.29.2,1.11,1.11,0,0,0,.37.07h.21l.18,0,.19,0,.21,0v.77l-.27.06-.24,0-.25,0h-.26a1.81,1.81,0,0,1-.63-.1,1.23,1.23,0,0,1-.51-.31,1.34,1.34,0,0,1-.34-.57,2.7,2.7,0,0,1-.12-.86v-3.37Z" style="fill:#4d4d4d"/><path d="M326.21,213.39a2.1,2.1,0,1,1,2.1-2.1A2.1,2.1,0,0,1,326.21,213.39Zm0-3.7a1.6,1.6,0,1,0,1.6,1.6A1.6,1.6,0,0,0,326.21,209.69Z" style="fill:#8b8f9e"/><path d="M374.42,226.39v-3.61h-3.6v3.61h-.95v-7.87h.95v3.42h3.6v-3.42h.95v7.87Z" style="fill:#4d4d4d"/><path d="M381.72,222.33v4.06h-.85V226a3.32,3.32,0,0,1-.41.22,3.25,3.25,0,0,1-.4.15,3,3,0,0,1-.43.09l-.5,0a2.47,2.47,0,0,1-.75-.11,1.72,1.72,0,0,1-.58-.33,1.28,1.28,0,0,1-.36-.5,1.53,1.53,0,0,1-.13-.64,1.48,1.48,0,0,1,.17-.7,1.53,1.53,0,0,1,.49-.56,2.43,2.43,0,0,1,.83-.37,4.44,4.44,0,0,1,1.16-.14h.89v-.64a1.72,1.72,0,0,0-.08-.52,1,1,0,0,0-.25-.37,1.06,1.06,0,0,0-.42-.23,2.1,2.1,0,0,0-.59-.08l-.42,0a3.1,3.1,0,0,0-.42.08l-.43.12a4,4,0,0,0-.45.16l-.19-.76.52-.21a4.58,4.58,0,0,1,.49-.15l.49-.08.54,0a2.73,2.73,0,0,1,.89.13,1.75,1.75,0,0,1,.66.36,1.58,1.58,0,0,1,.4.6A2.18,2.18,0,0,1,381.72,222.33Zm-3.46,2.47a1,1,0,0,0,.06.35.8.8,0,0,0,.2.28,1,1,0,0,0,.33.17,1.68,1.68,0,0,0,.47.06,2.73,2.73,0,0,0,.41,0,2.26,2.26,0,0,0,.39-.07l.37-.13.36-.19v-1.37h-.92a3.55,3.55,0,0,0-.77.07,1.31,1.31,0,0,0-.52.2.76.76,0,0,0-.38.68Z" style="fill:#4d4d4d"/><path d="M386.63,220.53l-.1.9-.18,0-.17,0-.15,0h-.18a1.33,1.33,0,0,0-.28,0,1.53,1.53,0,0,0-.27.11,1.48,1.48,0,0,0-.27.19,3.54,3.54,0,0,0-.32.28v4.44h-.91v-5.83l.9-.07v.68a2.57,2.57,0,0,1,.33-.33,1.43,1.43,0,0,1,.3-.22,1.2,1.2,0,0,1,.31-.13,1.1,1.1,0,0,1,.31,0h.34l.16,0Z" style="fill:#4d4d4d"/><path d="M392.51,218v8.39h-.89V226a2.59,2.59,0,0,1-.33.19,3,3,0,0,1-.36.14,2.59,2.59,0,0,1-.4.09,2.81,2.81,0,0,1-1.4-.15,2.32,2.32,0,0,1-.77-.55,2.35,2.35,0,0,1-.52-.9,3.59,3.59,0,0,1-.19-1.22,3.73,3.73,0,0,1,.22-1.34,2.72,2.72,0,0,1,.61-1,2.68,2.68,0,0,1,.94-.61,3.23,3.23,0,0,1,1.19-.21h.29l.26,0,.23,0,.21.06v-2.51Zm-2,3.25a2,2,0,0,0-.79.15,1.63,1.63,0,0,0-.62.45,2,2,0,0,0-.39.71,3.19,3.19,0,0,0-.13,1,2.86,2.86,0,0,0,.13.91,1.85,1.85,0,0,0,.35.67,1.53,1.53,0,0,0,.55.39,1.75,1.75,0,0,0,.7.13l.36,0,.32-.07a1.45,1.45,0,0,0,.29-.11l.3-.17v-3.9l-.27,0-.26,0-.26,0Z" style="fill:#4d4d4d"/><path d="M394.31,223.46a4.4,4.4,0,0,1,.19-1.31,2.76,2.76,0,0,1,.52-1,2.34,2.34,0,0,1,.79-.58,2.39,2.39,0,0,1,1-.2,2.77,2.77,0,0,1,.94.15,1.87,1.87,0,0,1,.71.45,2,2,0,0,1,.43.74,2.88,2.88,0,0,1,.15,1v.54c0,.06,0,.12,0,.18h-3.76a3,3,0,0,0,.14.95,2.08,2.08,0,0,0,.39.67,1.73,1.73,0,0,0,.6.39,2.3,2.3,0,0,0,.77.12l.48,0,.44-.07a3.54,3.54,0,0,0,.44-.11l.43-.17v.83a3.25,3.25,0,0,1-.46.17c-.14.05-.29.08-.44.12l-.47.07-.53,0a3.33,3.33,0,0,1-1.12-.18,2.29,2.29,0,0,1-.85-.54,2.35,2.35,0,0,1-.54-.94A4.46,4.46,0,0,1,394.31,223.46Zm.95-.71H398a2.82,2.82,0,0,0-.08-.68,1.38,1.38,0,0,0-.25-.5,1.1,1.1,0,0,0-.42-.29,1.4,1.4,0,0,0-.56-.1,1.26,1.26,0,0,0-.51.11,1.47,1.47,0,0,0-.44.31,1.59,1.59,0,0,0-.32.5A2.23,2.23,0,0,0,395.26,222.75Z" style="fill:#4d4d4d"/><path d="M404.34,226.39v-3.85a1.42,1.42,0,0,0-.08-.52,1,1,0,0,0-.25-.39,1.09,1.09,0,0,0-.42-.25,1.59,1.59,0,0,0-.55-.09l-.38,0-.33.05-.34.09-.36.14v4.8h-.91v-5.83l.88-.07v.39c.13-.08.27-.14.39-.2l.38-.13.39-.08.45,0a2.65,2.65,0,0,1,.87.13,1.76,1.76,0,0,1,.65.39,1.46,1.46,0,0,1,.39.62,2.48,2.48,0,0,1,.14.85v3.95Z" style="fill:#4d4d4d"/><path d="M412.19,223.28a3.77,3.77,0,0,1-.22,1.34,2.77,2.77,0,0,1-.64,1,2.73,2.73,0,0,1-1,.62,3.6,3.6,0,0,1-1.25.21h-.45l-.42,0-.44,0-.47-.07v-8.26l.91-.07v2.85a1.85,1.85,0,0,1,.38-.18,2.78,2.78,0,0,1,.38-.12,2.87,2.87,0,0,1,.38-.08l.41,0a2.86,2.86,0,0,1,1,.17,2.13,2.13,0,0,1,.76.53,2.37,2.37,0,0,1,.48.89A3.91,3.91,0,0,1,412.19,223.28Zm-.95.09a2.94,2.94,0,0,0-.12-.94,1.74,1.74,0,0,0-.34-.65,1.28,1.28,0,0,0-.54-.37,2,2,0,0,0-.72-.12l-.33,0-.31.05-.31.1-.33.13v4l.26,0,.24,0h.49a2.32,2.32,0,0,0,.8-.14,1.78,1.78,0,0,0,.64-.42,2,2,0,0,0,.42-.72A3.11,3.11,0,0,0,411.24,223.37Z" style="fill:#4d4d4d"/><path d="M413.63,223.46a4.4,4.4,0,0,1,.19-1.31,2.76,2.76,0,0,1,.52-1,2.34,2.34,0,0,1,.79-.58,2.39,2.39,0,0,1,1-.2,2.77,2.77,0,0,1,.94.15,1.87,1.87,0,0,1,.71.45,2,2,0,0,1,.43.74,3.13,3.13,0,0,1,.15,1v.54c0,.06,0,.12,0,.18h-3.76a3,3,0,0,0,.14.95,2.08,2.08,0,0,0,.39.67,1.73,1.73,0,0,0,.6.39,2.3,2.3,0,0,0,.77.12l.48,0,.44-.07a3,3,0,0,0,.43-.11l.44-.17v.83a3.25,3.25,0,0,1-.46.17c-.14.05-.29.08-.44.12l-.47.07-.53,0a3.33,3.33,0,0,1-1.12-.18,2.29,2.29,0,0,1-.85-.54,2.35,2.35,0,0,1-.54-.94A4.46,4.46,0,0,1,413.63,223.46Zm.95-.71h2.76a2.82,2.82,0,0,0-.08-.68,1.25,1.25,0,0,0-.26-.5,1,1,0,0,0-.41-.29,1.4,1.4,0,0,0-.56-.1,1.26,1.26,0,0,0-.51.11,1.47,1.47,0,0,0-.44.31,1.81,1.81,0,0,0-.33.5A2.58,2.58,0,0,0,414.58,222.75Z" style="fill:#4d4d4d"/><path d="M422.87,220.53l-.11.9-.18,0-.16,0-.15,0h-.18a1.33,1.33,0,0,0-.28,0,1.53,1.53,0,0,0-.27.11,2,2,0,0,0-.28.19,3.56,3.56,0,0,0-.31.28v4.44H420v-5.83l.9-.07v.68a3.4,3.4,0,0,1,.32-.33,1.79,1.79,0,0,1,.31-.22,1.2,1.2,0,0,1,.31-.13,1.06,1.06,0,0,1,.31,0h.34l.16,0Z" style="fill:#4d4d4d"/><path d="M425,225a.65.65,0,0,0,0,.2.48.48,0,0,0,.13.16.83.83,0,0,0,.23.1,1.65,1.65,0,0,0,.34,0l1.57.05a2.86,2.86,0,0,1,.71.11,1.39,1.39,0,0,1,.5.26,1.14,1.14,0,0,1,.3.4,1.38,1.38,0,0,1,.09.52,1.67,1.67,0,0,1-.17.77,1.73,1.73,0,0,1-.53.62,2.72,2.72,0,0,1-.89.41,5,5,0,0,1-1.23.14,4.28,4.28,0,0,1-1-.11,2.15,2.15,0,0,1-.75-.31,1.37,1.37,0,0,1-.47-.49,1.22,1.22,0,0,1-.16-.62,1.07,1.07,0,0,1,.07-.39,1.9,1.9,0,0,1,.2-.37,1.83,1.83,0,0,1,.32-.3,1.57,1.57,0,0,1,.37-.22v0a.76.76,0,0,1-.19-.12.8.8,0,0,1-.15-.17.67.67,0,0,1-.09-.21.61.61,0,0,1,0-.24.78.78,0,0,1,0-.26.76.76,0,0,1,.13-.23,1,1,0,0,1,.2-.2.87.87,0,0,1,.27-.14v0a2.55,2.55,0,0,1-.38-.26,1.45,1.45,0,0,1-.28-.36,2.34,2.34,0,0,1-.18-.45,2.38,2.38,0,0,1-.06-.55,2.69,2.69,0,0,1,.15-.92,1.84,1.84,0,0,1,.47-.69,2.15,2.15,0,0,1,.74-.43,3,3,0,0,1,1-.15h.23l.25,0a.78.78,0,0,1,.22,0l.2,0H429v.68h-1.11v0a1,1,0,0,1,.24.21l.18.3a1.8,1.8,0,0,1,.12.35,2.58,2.58,0,0,1,0,.4,2.19,2.19,0,0,1-.16.88,1.77,1.77,0,0,1-.48.64,2.18,2.18,0,0,1-.76.39,3.92,3.92,0,0,1-1,.13h-.35l-.16,0-.15,0a.35.35,0,0,0-.15.07.43.43,0,0,0-.12.11.38.38,0,0,0-.09.13A.35.35,0,0,0,425,225Zm-.45,2.09a.76.76,0,0,0,.1.39.93.93,0,0,0,.32.3,1.7,1.7,0,0,0,.51.19,2.91,2.91,0,0,0,.7.07,5.47,5.47,0,0,0,.87-.07,2.1,2.1,0,0,0,.6-.21,1.11,1.11,0,0,0,.35-.33.81.81,0,0,0,.11-.41.78.78,0,0,0-.05-.28.48.48,0,0,0-.15-.2,1,1,0,0,0-.29-.12,2.11,2.11,0,0,0-.42-.06l-2-.1a1.71,1.71,0,0,0-.27.14.91.91,0,0,0-.21.18,1,1,0,0,0-.12.23A.86.86,0,0,0,424.52,227.05Zm1.6-3.16a2.25,2.25,0,0,0,.62-.07,1.14,1.14,0,0,0,.43-.25.94.94,0,0,0,.26-.43,2.06,2.06,0,0,0,.09-.64,1.62,1.62,0,0,0-.09-.57,1,1,0,0,0-.27-.41,1,1,0,0,0-.42-.24,1.6,1.6,0,0,0-.56-.09,1.69,1.69,0,0,0-.56.09,1.09,1.09,0,0,0-.43.25,1.12,1.12,0,0,0-.27.43,1.91,1.91,0,0,0-.09.61,1.82,1.82,0,0,0,.09.61,1.27,1.27,0,0,0,.27.42,1.25,1.25,0,0,0,.41.22A1.72,1.72,0,0,0,426.12,223.89Z" style="fill:#4d4d4d"/><path d="M399.09,233.08a2.1,2.1,0,1,1,2.1-2.1A2.1,2.1,0,0,1,399.09,233.08Zm0-3.69a1.6,1.6,0,1,0,1.6,1.59A1.6,1.6,0,0,0,399.09,229.39Z" style="fill:#8b8f9e"/><path d="M293.32,255.18a5.4,5.4,0,0,1,.26-1.72,3.79,3.79,0,0,1,.74-1.31,3.12,3.12,0,0,1,1.11-.8,3.4,3.4,0,0,1,1.36-.27,3.26,3.26,0,0,1,1.29.25,2.94,2.94,0,0,1,1,.76,3.48,3.48,0,0,1,.68,1.25,5.67,5.67,0,0,1,.24,1.72,5.47,5.47,0,0,1-.26,1.73,3.58,3.58,0,0,1-.73,1.3,3.08,3.08,0,0,1-1.1.81,3.36,3.36,0,0,1-1.35.27,3.47,3.47,0,0,1-1.31-.25,2.94,2.94,0,0,1-1-.76,3.75,3.75,0,0,1-.69-1.25A5.69,5.69,0,0,1,293.32,255.18Zm1-.12a5.53,5.53,0,0,0,.18,1.51,2.71,2.71,0,0,0,.51,1,1.9,1.9,0,0,0,.75.56,2.41,2.41,0,0,0,.93.18,2.2,2.2,0,0,0,.88-.18,2,2,0,0,0,.76-.54,2.9,2.9,0,0,0,.54-1,4.39,4.39,0,0,0,.2-1.44,5.61,5.61,0,0,0-.17-1.51,2.87,2.87,0,0,0-.51-1,2,2,0,0,0-.75-.55,2.41,2.41,0,0,0-.93-.18,2.2,2.2,0,0,0-.88.18,2,2,0,0,0-.76.54,2.63,2.63,0,0,0-.54,1A4.46,4.46,0,0,0,294.3,255.06Z" style="fill:#4d4d4d"/><path d="M309,259.06v-3.84a1.67,1.67,0,0,0-.08-.52,1,1,0,0,0-.24-.4,1.09,1.09,0,0,0-.4-.25,1.59,1.59,0,0,0-.55-.09l-.38,0-.32.05-.32.09-.37.14v4.8h-.92V255.2a1.81,1.81,0,0,0-.07-.54,1,1,0,0,0-.23-.39.94.94,0,0,0-.39-.23,1.93,1.93,0,0,0-.58-.08l-.39,0-.33.05a1.81,1.81,0,0,0-.31.09l-.36.14v4.8h-.91v-5.83l.87-.07v.39a3.81,3.81,0,0,1,.41-.2,1.63,1.63,0,0,1,.37-.13,2.33,2.33,0,0,1,.38-.08l.43,0a2.89,2.89,0,0,1,.52,0,2.12,2.12,0,0,1,.45.11,1.84,1.84,0,0,1,.37.19,1.87,1.87,0,0,1,.3.26,4.35,4.35,0,0,1,.5-.28,2.19,2.19,0,0,1,.46-.18,2.52,2.52,0,0,1,.46-.1,2.78,2.78,0,0,1,.51,0,2.67,2.67,0,0,1,.88.13,1.72,1.72,0,0,1,.64.39,1.67,1.67,0,0,1,.38.62,2.49,2.49,0,0,1,.13.85v3.95Z" style="fill:#4d4d4d"/><path d="M319.18,259.06v-3.84a1.67,1.67,0,0,0-.08-.52,1,1,0,0,0-.24-.4,1.09,1.09,0,0,0-.4-.25,1.55,1.55,0,0,0-.55-.09l-.37,0-.33.05-.32.09-.37.14v4.8h-.92V255.2a1.81,1.81,0,0,0-.07-.54,1,1,0,0,0-.23-.39.94.94,0,0,0-.39-.23,2,2,0,0,0-.58-.08l-.39,0-.33.05a1.81,1.81,0,0,0-.31.09l-.36.14v4.8H312v-5.83l.87-.07v.39l.4-.2a1.9,1.9,0,0,1,.38-.13,2.33,2.33,0,0,1,.38-.08l.43,0a3,3,0,0,1,.52,0,2.12,2.12,0,0,1,.45.11,2.15,2.15,0,0,1,.37.19,1.87,1.87,0,0,1,.3.26,4.35,4.35,0,0,1,.5-.28,2.42,2.42,0,0,1,.46-.18,2.52,2.52,0,0,1,.46-.1,2.78,2.78,0,0,1,.51,0,2.67,2.67,0,0,1,.88.13,1.54,1.54,0,0,1,.63.39,1.57,1.57,0,0,1,.39.62,2.49,2.49,0,0,1,.13.85v3.95Z" style="fill:#4d4d4d"/><path d="M321.81,256.13a4.41,4.41,0,0,1,.18-1.31,2.78,2.78,0,0,1,.53-1,2.21,2.21,0,0,1,.78-.58,2.43,2.43,0,0,1,1-.2,2.83,2.83,0,0,1,.95.15,1.84,1.84,0,0,1,.7.45,2,2,0,0,1,.44.74,3.13,3.13,0,0,1,.15,1v.36a1.09,1.09,0,0,1,0,.18,1.1,1.1,0,0,1,0,.18h-3.75a3,3,0,0,0,.14.95,1.63,1.63,0,0,0,1,1.06,2.35,2.35,0,0,0,.77.12l.48,0,.45-.07a3.39,3.39,0,0,0,.43-.11,3.83,3.83,0,0,0,.43-.17v.83a3.67,3.67,0,0,1-.45.17l-.44.12-.47.07-.54,0a3.23,3.23,0,0,1-1.11-.18,2.21,2.21,0,0,1-.85-.54,2.49,2.49,0,0,1-.55-.94A4.48,4.48,0,0,1,321.81,256.13Zm.94-.71h2.77a2.38,2.38,0,0,0-.09-.68,1.24,1.24,0,0,0-.25-.5,1,1,0,0,0-.41-.29,1.43,1.43,0,0,0-.56-.1,1.27,1.27,0,0,0-.52.11,1.47,1.47,0,0,0-.44.31,1.59,1.59,0,0,0-.32.5A3.09,3.09,0,0,0,322.75,255.42Z" style="fill:#4d4d4d"/><path d="M331.84,259.06v-3.85a1.42,1.42,0,0,0-.09-.52.9.9,0,0,0-.25-.39,1.13,1.13,0,0,0-.41-.25,1.64,1.64,0,0,0-.56-.09l-.37,0-.34.05-.33.09a3.31,3.31,0,0,0-.36.14v4.8h-.92v-5.83l.88-.07v.39l.4-.2.38-.13.38-.08.45,0a2.57,2.57,0,0,1,.87.13,1.69,1.69,0,0,1,.65.39,1.48,1.48,0,0,1,.4.62,2.49,2.49,0,0,1,.13.85v3.95Z" style="fill:#4d4d4d"/><path d="M313.27,265.75a2.1,2.1,0,1,1,2.1-2.1A2.1,2.1,0,0,1,313.27,265.75Zm0-3.69a1.6,1.6,0,1,0,1.6,1.59A1.59,1.59,0,0,0,313.27,262.06Z" style="fill:#8b8f9e"/><path d="M234.58,352.5v3.29h-1v-7.87h2.06a4,4,0,0,1,1.15.15,2.48,2.48,0,0,1,.86.43,1.76,1.76,0,0,1,.52.66,2.26,2.26,0,0,1,.17.88,2.71,2.71,0,0,1-.1.77,2.1,2.1,0,0,1-.3.64,2.23,2.23,0,0,1-.47.5,2.6,2.6,0,0,1-.64.34l2.09,3.5h-1.12l-1.92-3.29Zm0-3.78v3h1.1a2.6,2.6,0,0,0,.71-.09,1.36,1.36,0,0,0,.55-.28,1.3,1.3,0,0,0,.35-.48,1.9,1.9,0,0,0,0-1.3,1.06,1.06,0,0,0-.33-.45,1.5,1.5,0,0,0-.55-.28,3,3,0,0,0-.79-.1Z" style="fill:#4d4d4d"/><path d="M244.42,351.74v4.05h-.86v-.41a3.46,3.46,0,0,1-.41.23,3.25,3.25,0,0,1-.4.15,3,3,0,0,1-.43.08,3.86,3.86,0,0,1-.5,0,2.19,2.19,0,0,1-.75-.11,1.71,1.71,0,0,1-.58-.32,1.46,1.46,0,0,1-.37-.51,1.66,1.66,0,0,1-.12-.64,1.48,1.48,0,0,1,.17-.7,1.65,1.65,0,0,1,.5-.56,2.49,2.49,0,0,1,.82-.37,4.52,4.52,0,0,1,1.16-.13h.89v-.64a1.6,1.6,0,0,0-.08-.51.94.94,0,0,0-.25-.38,1.06,1.06,0,0,0-.42-.23,2.1,2.1,0,0,0-.59-.08,3,3,0,0,0-.42,0,3.07,3.07,0,0,0-.42.07l-.43.12a4,4,0,0,0-.45.16l-.19-.76.52-.21a4.58,4.58,0,0,1,.49-.15,3.85,3.85,0,0,1,.49-.07,4.63,4.63,0,0,1,.54,0,2.73,2.73,0,0,1,.89.13,1.75,1.75,0,0,1,.66.36,1.58,1.58,0,0,1,.4.6A2.2,2.2,0,0,1,244.42,351.74ZM241,354.2a1,1,0,0,0,.06.35.8.8,0,0,0,.2.28,1,1,0,0,0,.33.17,1.68,1.68,0,0,0,.47.06l.41,0,.39-.08.37-.13a3.13,3.13,0,0,0,.36-.19v-1.37h-.2l-.3,0h-.42a3.55,3.55,0,0,0-.77.07,1.49,1.49,0,0,0-.52.2.85.85,0,0,0-.29.31A.78.78,0,0,0,241,354.2Z" style="fill:#4d4d4d"/><path d="M250.47,351.74v4.05h-.85v-.41a3.46,3.46,0,0,1-.41.23,3.25,3.25,0,0,1-.4.15,3,3,0,0,1-.43.08,3.86,3.86,0,0,1-.5,0,2.19,2.19,0,0,1-.75-.11,1.71,1.71,0,0,1-.58-.32,1.32,1.32,0,0,1-.36-.51,1.5,1.5,0,0,1-.13-.64,1.48,1.48,0,0,1,.17-.7,1.61,1.61,0,0,1,.49-.56,2.64,2.64,0,0,1,.83-.37,4.47,4.47,0,0,1,1.16-.13h.89v-.64a1.6,1.6,0,0,0-.08-.51.94.94,0,0,0-.25-.38,1.06,1.06,0,0,0-.42-.23,2.1,2.1,0,0,0-.59-.08,3,3,0,0,0-.42,0,3.07,3.07,0,0,0-.42.07l-.43.12a4,4,0,0,0-.45.16l-.19-.76.52-.21a4.58,4.58,0,0,1,.49-.15,3.85,3.85,0,0,1,.49-.07,4.63,4.63,0,0,1,.54,0,2.73,2.73,0,0,1,.89.13,1.75,1.75,0,0,1,.66.36,1.58,1.58,0,0,1,.4.6A2.2,2.2,0,0,1,250.47,351.74ZM247,354.2a1,1,0,0,0,.06.35.8.8,0,0,0,.2.28,1,1,0,0,0,.33.17,1.68,1.68,0,0,0,.47.06l.41,0,.39-.08.37-.13a3.13,3.13,0,0,0,.36-.19v-1.37h-.2l-.29,0h-.43a3.55,3.55,0,0,0-.77.07,1.49,1.49,0,0,0-.52.2.79.79,0,0,0-.38.68Z" style="fill:#4d4d4d"/><path d="M253.46,347.4v8.39h-.91v-8.31Z" style="fill:#4d4d4d"/><path d="M255.1,350.66v-.74h.7v-1l.91-.13v1.16h1.54v.74h-1.54V354a1.75,1.75,0,0,0,.07.49,1,1,0,0,0,.19.33.75.75,0,0,0,.3.2.87.87,0,0,0,.37.07H258l.19,0,.21-.05v.77l-.27.06-.25,0a2,2,0,0,1-.24,0h-.26a2.11,2.11,0,0,1-.64-.09,1.41,1.41,0,0,1-.85-.89,2.66,2.66,0,0,1-.12-.86v-3.36Z" style="fill:#4d4d4d"/><path d="M259.49,352.86a4.35,4.35,0,0,1,.18-1.3,2.61,2.61,0,0,1,.53-1A2.24,2.24,0,0,1,261,350a2.42,2.42,0,0,1,1-.19,2.73,2.73,0,0,1,.94.15,1.8,1.8,0,0,1,.71.45,2,2,0,0,1,.44.73,3.17,3.17,0,0,1,.15,1v.36a1.09,1.09,0,0,1,0,.18,1.1,1.1,0,0,1,0,.18H260.4a3,3,0,0,0,.14.95,1.7,1.7,0,0,0,.39.67,1.52,1.52,0,0,0,.59.39,2.35,2.35,0,0,0,.77.12,3.7,3.7,0,0,0,.48,0l.45-.07a2.47,2.47,0,0,0,.43-.11,3.83,3.83,0,0,0,.43-.17v.83a3.25,3.25,0,0,1-.46.17,3.45,3.45,0,0,1-.43.12l-.47.07a4.7,4.7,0,0,1-.54,0,3.23,3.23,0,0,1-1.11-.18,2.33,2.33,0,0,1-.86-.54,2.61,2.61,0,0,1-.54-.94A4.43,4.43,0,0,1,259.49,352.86Zm.94-.7h2.77a2.4,2.4,0,0,0-.09-.69,1.47,1.47,0,0,0-.25-.5,1,1,0,0,0-.41-.29,1.69,1.69,0,0,0-.56-.1,1.27,1.27,0,0,0-.52.11,1.47,1.47,0,0,0-.44.31,1.71,1.71,0,0,0-.32.5A3.18,3.18,0,0,0,260.43,352.16Z" style="fill:#4d4d4d"/><path d="M248.69,362.48a2.1,2.1,0,1,1,2.1-2.09A2.1,2.1,0,0,1,248.69,362.48Zm0-3.69a1.6,1.6,0,1,0,1.6,1.6A1.6,1.6,0,0,0,248.69,358.79Z" style="fill:#8b8f9e"/><path d="M299.54,427.8v-3.61h-3.6v3.61H295v-7.87h.95v3.42h3.6v-3.42h.94v7.87Z" style="fill:#4d4d4d"/><path d="M307.8,424.8a3.79,3.79,0,0,1-.21,1.29,2.89,2.89,0,0,1-.6,1,2.53,2.53,0,0,1-.87.62,2.84,2.84,0,0,1-1.05.2,3,3,0,0,1-1.06-.18,1.93,1.93,0,0,1-.81-.57,2.47,2.47,0,0,1-.52-.93,4.17,4.17,0,0,1-.18-1.28,3.79,3.79,0,0,1,.21-1.29,3,3,0,0,1,.6-1,2.64,2.64,0,0,1,.87-.61,2.49,2.49,0,0,1,1-.22,3,3,0,0,1,1.07.19,2.25,2.25,0,0,1,.82.57,2.44,2.44,0,0,1,.51.93A4.19,4.19,0,0,1,307.8,424.8Zm-.94,0a3.5,3.5,0,0,0-.12-1,1.93,1.93,0,0,0-.33-.69,1.58,1.58,0,0,0-.54-.42,1.9,1.9,0,0,0-.73-.14,1.55,1.55,0,0,0-1.22.6,2,2,0,0,0-.35.72,3.48,3.48,0,0,0-.12.95,3.9,3.9,0,0,0,.11,1,2,2,0,0,0,.34.7,1.37,1.37,0,0,0,.54.41,1.81,1.81,0,0,0,.72.14,1.46,1.46,0,0,0,.69-.16,1.53,1.53,0,0,0,.54-.45,2.1,2.1,0,0,0,.35-.72A3.4,3.4,0,0,0,306.86,424.83Z" style="fill:#4d4d4d"/><path d="M310.52,419.41v8.39h-.92v-8.32Z" style="fill:#4d4d4d"/><path d="M312.15,422.66v-.73h.71v-1l.91-.13v1.16h1.53v.73h-1.53V426a1.75,1.75,0,0,0,.06.48.88.88,0,0,0,.2.34.84.84,0,0,0,.29.2,1.06,1.06,0,0,0,.37.07h.21l.18,0,.19,0,.21,0v.77l-.27.06-.25,0-.24,0h-.26a1.77,1.77,0,0,1-.63-.1,1.31,1.31,0,0,1-.85-.88,2.7,2.7,0,0,1-.12-.86v-3.37Z" style="fill:#4d4d4d"/><path d="M316.54,424.87a4.41,4.41,0,0,1,.18-1.31,2.78,2.78,0,0,1,.53-1A2.25,2.25,0,0,1,318,422a2.38,2.38,0,0,1,.95-.2,2.79,2.79,0,0,1,.95.15,1.84,1.84,0,0,1,.7.45,2,2,0,0,1,.44.74,3.11,3.11,0,0,1,.15,1v.37a1.09,1.09,0,0,1,0,.18c0,.06,0,.12,0,.17h-3.76a3,3,0,0,0,.14,1,1.77,1.77,0,0,0,.39.67,1.58,1.58,0,0,0,.6.38,2.06,2.06,0,0,0,.76.13l.48,0,.45-.07.43-.11.43-.17v.83l-.45.17-.44.11-.47.08-.54,0a3.27,3.27,0,0,1-1.11-.18,2.12,2.12,0,0,1-.85-.55,2.37,2.37,0,0,1-.55-.93A4.48,4.48,0,0,1,316.54,424.87Zm.95-.71h2.76a2.33,2.33,0,0,0-.09-.68,1.24,1.24,0,0,0-.25-.5,1,1,0,0,0-.41-.29,1.43,1.43,0,0,0-.56-.1,1.13,1.13,0,0,0-.52.11,1.42,1.42,0,0,0-.44.31,1.79,1.79,0,0,0-.32.5A2.47,2.47,0,0,0,317.49,424.16Z" style="fill:#4d4d4d"/><path d="M326.57,427.8V424a1.62,1.62,0,0,0-.08-.52,1,1,0,0,0-.26-.39,1.13,1.13,0,0,0-.41-.25,1.6,1.6,0,0,0-.56-.09h-.37l-.34.06a2,2,0,0,0-.33.09l-.36.14v4.8H323V422l.87-.07v.4a3,3,0,0,1,.4-.2,2.84,2.84,0,0,1,.38-.13,2.24,2.24,0,0,1,.39-.08,3,3,0,0,1,.44,0,2.67,2.67,0,0,1,.88.13,1.83,1.83,0,0,1,.65.38,1.68,1.68,0,0,1,.39.63,2.45,2.45,0,0,1,.13.85v3.95Z" style="fill:#4d4d4d"/><path d="M311.2,434.49a2.1,2.1,0,1,1,2.1-2.1A2.1,2.1,0,0,1,311.2,434.49Zm0-3.7a1.6,1.6,0,1,0,1.6,1.6A1.6,1.6,0,0,0,311.2,430.79Z" style="fill:#8b8f9e"/><path d="M368.51,339.91,366,332h1.07l2.11,6.93h.05L371.4,332h1l-2.53,7.88Z" style="fill:#4d4d4d"/><path d="M376.61,334.05l-.11.9-.18,0-.16,0-.16,0h-.17a.86.86,0,0,0-.28,0,1,1,0,0,0-.27.11l-.28.18a2.68,2.68,0,0,0-.31.29v4.44h-.91v-5.84l.9-.07v.69a3.4,3.4,0,0,1,.32-.33,1.9,1.9,0,0,1,.31-.23l.3-.12a1.15,1.15,0,0,1,.31,0h.35l.16,0Z" style="fill:#4d4d4d"/><path d="M377.86,332.12a.69.69,0,0,1,0-.25.47.47,0,0,1,.12-.18.52.52,0,0,1,.19-.12.61.61,0,0,1,.24,0,.59.59,0,0,1,.23,0,.52.52,0,0,1,.19.12.56.56,0,0,1,.11.17.71.71,0,0,1,0,.26.64.64,0,0,1,0,.24.78.78,0,0,1-.11.18.5.5,0,0,1-.19.11.59.59,0,0,1-.23,0,.61.61,0,0,1-.24,0,.5.5,0,0,1-.19-.11.57.57,0,0,1-.12-.18A.64.64,0,0,1,377.86,332.12Zm1,1.88v5.91H378v-5.84Z" style="fill:#4d4d4d"/><path d="M380.7,337a4.06,4.06,0,0,1,.19-1.31,2.67,2.67,0,0,1,.52-1,2.13,2.13,0,0,1,.79-.58,2.39,2.39,0,0,1,1-.2,2.77,2.77,0,0,1,.94.15,1.76,1.76,0,0,1,.7.45,1.9,1.9,0,0,1,.44.74,3.11,3.11,0,0,1,.15,1v.55c0,.06,0,.12,0,.17h-3.76a3,3,0,0,0,.14,1,1.66,1.66,0,0,0,.39.66,1.49,1.49,0,0,0,.6.39,2.06,2.06,0,0,0,.76.13,3.64,3.64,0,0,0,.48,0,3.06,3.06,0,0,0,.45-.06,3.45,3.45,0,0,0,.43-.12,3.89,3.89,0,0,0,.44-.16v.82a3.93,3.93,0,0,1-.46.18l-.44.11a3.31,3.31,0,0,1-.47.07,4.33,4.33,0,0,1-.53,0,3.33,3.33,0,0,1-1.12-.18,2.19,2.19,0,0,1-.85-.55,2.24,2.24,0,0,1-.54-.93A4.17,4.17,0,0,1,380.7,337Zm.95-.71h2.76a2.76,2.76,0,0,0-.08-.68,1.25,1.25,0,0,0-.26-.5,1.12,1.12,0,0,0-.41-.3,1.6,1.6,0,0,0-.56-.09,1.19,1.19,0,0,0-.52.11,1.27,1.27,0,0,0-.43.31,1.75,1.75,0,0,0-.33.49A2.66,2.66,0,0,0,381.65,336.27Z" style="fill:#4d4d4d"/><path d="M386.68,334.81V334h3.91v.77l-3.07,4.28v.05h3.13v.77h-4.14v-.78l3.07-4.29v0Z" style="fill:#4d4d4d"/><path d="M391.85,337a4.06,4.06,0,0,1,.19-1.31,2.53,2.53,0,0,1,.52-1,2.06,2.06,0,0,1,.79-.58,2.38,2.38,0,0,1,.95-.2,2.79,2.79,0,0,1,.95.15,1.84,1.84,0,0,1,.7.45,2,2,0,0,1,.44.74,3.11,3.11,0,0,1,.15,1v.55a1.11,1.11,0,0,0,0,.17h-3.76a3,3,0,0,0,.14,1,1.66,1.66,0,0,0,.39.66,1.49,1.49,0,0,0,.6.39,2.06,2.06,0,0,0,.76.13,3.64,3.64,0,0,0,.48,0,3.25,3.25,0,0,0,.45-.06,3.45,3.45,0,0,0,.43-.12,3.16,3.16,0,0,0,.43-.16v.82a3.83,3.83,0,0,1-.45.18l-.44.11a3.54,3.54,0,0,1-.47.07,4.5,4.5,0,0,1-.54,0,3.23,3.23,0,0,1-1.11-.18,2.12,2.12,0,0,1-.85-.55,2.24,2.24,0,0,1-.54-.93A4.17,4.17,0,0,1,391.85,337Zm.95-.71h2.76a2.33,2.33,0,0,0-.09-.68,1.24,1.24,0,0,0-.25-.5,1.12,1.12,0,0,0-.41-.3,1.64,1.64,0,0,0-.56-.09,1.13,1.13,0,0,0-.52.11,1.42,1.42,0,0,0-.44.31,1.54,1.54,0,0,0-.32.49A2.66,2.66,0,0,0,392.8,336.27Z" style="fill:#4d4d4d"/><path d="M401.88,339.91v-3.86a1.6,1.6,0,0,0-.08-.51,1,1,0,0,0-.26-.39,1.13,1.13,0,0,0-.41-.25,1.6,1.6,0,0,0-.56-.09h-.37l-.33.06a1.89,1.89,0,0,0-.34.09,2.4,2.4,0,0,0-.36.14v4.8h-.91v-5.84l.87-.07v.4a3,3,0,0,1,.4-.2,2.84,2.84,0,0,1,.38-.13,2.24,2.24,0,0,1,.39-.08,3,3,0,0,1,.44,0,2.67,2.67,0,0,1,.88.13,1.7,1.7,0,0,1,.64.38,1.58,1.58,0,0,1,.4.63,2.45,2.45,0,0,1,.13.85v4Z" style="fill:#4d4d4d"/><path d="M406.14,339.91l-2-5.87h1l1.61,5h.06l1.53-5h.93l-2,5.87Z" style="fill:#4d4d4d"/><path d="M410.3,337a4.35,4.35,0,0,1,.19-1.31,2.84,2.84,0,0,1,.52-1,2.22,2.22,0,0,1,.79-.58,2.39,2.39,0,0,1,1-.2,2.73,2.73,0,0,1,.94.15,1.87,1.87,0,0,1,.71.45,2,2,0,0,1,.44.74,3.11,3.11,0,0,1,.15,1v.37c0,.06,0,.12,0,.18a.88.88,0,0,1,0,.17h-3.75a2.78,2.78,0,0,0,.14,1,1.66,1.66,0,0,0,.39.66,1.45,1.45,0,0,0,.59.39,2.11,2.11,0,0,0,.77.13,3.64,3.64,0,0,0,.48,0,3.11,3.11,0,0,0,.44-.06,3.6,3.6,0,0,0,.44-.12,3.75,3.75,0,0,0,.43-.16v.82a3.35,3.35,0,0,1-.46.18l-.44.11a3.17,3.17,0,0,1-.46.07,4.63,4.63,0,0,1-.54,0,3.23,3.23,0,0,1-1.11-.18,2.16,2.16,0,0,1-.86-.55,2.48,2.48,0,0,1-.54-.93A4.46,4.46,0,0,1,410.3,337Zm.95-.71H414a2.76,2.76,0,0,0-.08-.68,1.38,1.38,0,0,0-.25-.5,1.15,1.15,0,0,0-.42-.3,1.59,1.59,0,0,0-.55-.09,1.13,1.13,0,0,0-.52.11,1.31,1.31,0,0,0-.44.31,1.54,1.54,0,0,0-.32.49A2.66,2.66,0,0,0,411.25,336.27Z" style="fill:#4d4d4d"/><path d="M416.35,337a4.06,4.06,0,0,1,.19-1.31,2.67,2.67,0,0,1,.52-1,2.22,2.22,0,0,1,.79-.58,2.39,2.39,0,0,1,1-.2,2.77,2.77,0,0,1,.94.15,1.87,1.87,0,0,1,.71.45,2,2,0,0,1,.43.74,3.11,3.11,0,0,1,.15,1v.55c0,.06,0,.12,0,.17h-3.76a3,3,0,0,0,.14,1,1.78,1.78,0,0,0,.39.66,1.49,1.49,0,0,0,.6.39,2.06,2.06,0,0,0,.76.13,3.91,3.91,0,0,0,.49,0,3.11,3.11,0,0,0,.44-.06,3.6,3.6,0,0,0,.44-.12c.14,0,.28-.1.43-.16v.82a3.35,3.35,0,0,1-.46.18l-.44.11a3.31,3.31,0,0,1-.47.07,4.33,4.33,0,0,1-.53,0,3.33,3.33,0,0,1-1.12-.18,2.19,2.19,0,0,1-.85-.55,2.24,2.24,0,0,1-.54-.93A4.17,4.17,0,0,1,416.35,337Zm.95-.71h2.76a2.76,2.76,0,0,0-.08-.68,1.25,1.25,0,0,0-.26-.5,1.12,1.12,0,0,0-.41-.3,1.6,1.6,0,0,0-.56-.09,1.12,1.12,0,0,0-.51.11,1.31,1.31,0,0,0-.44.31,1.75,1.75,0,0,0-.33.49A2.66,2.66,0,0,0,417.3,336.27Z" style="fill:#4d4d4d"/><path d="M426.38,339.91v-3.86a1.37,1.37,0,0,0-.08-.51,1.14,1.14,0,0,0-.25-.39,1.09,1.09,0,0,0-.42-.25,1.59,1.59,0,0,0-.55-.09h-.38l-.33.06a2.14,2.14,0,0,0-.34.09,2.4,2.4,0,0,0-.36.14v4.8h-.91v-5.84l.88-.07v.4a2.4,2.4,0,0,1,.39-.2,3.43,3.43,0,0,1,.38-.13,2.24,2.24,0,0,1,.39-.08,3.1,3.1,0,0,1,.44,0,2.67,2.67,0,0,1,.88.13,1.75,1.75,0,0,1,.65.38,1.56,1.56,0,0,1,.39.63,2.44,2.44,0,0,1,.14.85v4Z" style="fill:#4d4d4d"/><path d="M397.11,346.6a2.1,2.1,0,1,1,2.1-2.1A2.1,2.1,0,0,1,397.11,346.6Zm0-3.7a1.6,1.6,0,1,0,1.6,1.6A1.6,1.6,0,0,0,397.11,342.9Z" style="fill:#8b8f9e"/><path d="M551.94,453.24a5.19,5.19,0,0,1,.27-1.73,3.6,3.6,0,0,1,.74-1.3,3,3,0,0,1,1.1-.81,3.4,3.4,0,0,1,1.36-.27,3.2,3.2,0,0,1,1.29.26,2.83,2.83,0,0,1,1,.75,3.46,3.46,0,0,1,.68,1.26,5.63,5.63,0,0,1,.24,1.72,5.52,5.52,0,0,1-.25,1.73,3.84,3.84,0,0,1-.74,1.3,3.14,3.14,0,0,1-1.09.8,3.4,3.4,0,0,1-1.36.27,3.24,3.24,0,0,1-1.3-.25,2.85,2.85,0,0,1-1-.76,3.35,3.35,0,0,1-.69-1.25A5.61,5.61,0,0,1,551.94,453.24Zm1-.12a5.45,5.45,0,0,0,.18,1.5,2.86,2.86,0,0,0,.5,1,2,2,0,0,0,.76.57,2.52,2.52,0,0,0,.93.17,2.42,2.42,0,0,0,.88-.17,2.08,2.08,0,0,0,.75-.55,2.79,2.79,0,0,0,.55-1,4.77,4.77,0,0,0,.2-1.44,5.53,5.53,0,0,0-.18-1.51,2.71,2.71,0,0,0-.51-1,1.85,1.85,0,0,0-.75-.56,2.34,2.34,0,0,0-.93-.18,2.23,2.23,0,0,0-.88.18,2.2,2.2,0,0,0-.76.55,2.85,2.85,0,0,0-.54,1A4.68,4.68,0,0,0,552.93,453.12Z" style="fill:#4d4d4d"/><path d="M561.78,457.11l-2-5.86h1l1.61,5h.06l1.52-5h.94l-2,5.86Z" style="fill:#4d4d4d"/><path d="M566,454.19a4.37,4.37,0,0,1,.18-1.31,2.61,2.61,0,0,1,.53-1,2.06,2.06,0,0,1,.79-.58,2.22,2.22,0,0,1,.95-.2,2.79,2.79,0,0,1,1,.15,1.84,1.84,0,0,1,.7.45,2,2,0,0,1,.44.74,3.11,3.11,0,0,1,.15,1v.37a1.09,1.09,0,0,1,0,.18c0,.06,0,.11,0,.17h-3.76a3.08,3.08,0,0,0,.14,1,1.66,1.66,0,0,0,.39.66,1.49,1.49,0,0,0,.6.39,2.24,2.24,0,0,0,.76.13,3.64,3.64,0,0,0,.48,0l.45-.06a3.45,3.45,0,0,0,.43-.12,3.75,3.75,0,0,0,.43-.16v.82l-.45.18-.44.11a3.54,3.54,0,0,1-.47.07,4.5,4.5,0,0,1-.54,0,3.23,3.23,0,0,1-1.11-.18,2.23,2.23,0,0,1-.85-.55,2.41,2.41,0,0,1-.55-.94A4.41,4.41,0,0,1,566,454.19Zm.95-.71h2.76a2.4,2.4,0,0,0-.09-.69,1.2,1.2,0,0,0-.25-.49,1,1,0,0,0-.41-.3,1.64,1.64,0,0,0-.56-.09,1.27,1.27,0,0,0-.52.1,1.65,1.65,0,0,0-.44.32,1.54,1.54,0,0,0-.32.49A2.66,2.66,0,0,0,566.9,453.48Z" style="fill:#4d4d4d"/><path d="M575.19,451.26l-.11.9-.18,0-.16,0-.16,0h-.17a.86.86,0,0,0-.28,0,.81.81,0,0,0-.27.11,1.86,1.86,0,0,0-.28.18,3.73,3.73,0,0,0-.31.28v4.44h-.91v-5.83l.9-.07v.68l.32-.33a2,2,0,0,1,.31-.22,1.25,1.25,0,0,1,.3-.12,1.18,1.18,0,0,1,.31-.05h.35l.16,0Z" style="fill:#4d4d4d"/><path d="M581.07,448.73v8.38h-.89v-.38a1.77,1.77,0,0,1-.33.19,2.39,2.39,0,0,1-.37.15,2.46,2.46,0,0,1-.39.09,2.83,2.83,0,0,1-.41,0,2.64,2.64,0,0,1-1-.19,2,2,0,0,1-.78-.55,2.63,2.63,0,0,1-.52-.9,3.78,3.78,0,0,1-.18-1.22,4,4,0,0,1,.21-1.34,2.72,2.72,0,0,1,1.55-1.61,3.27,3.27,0,0,1,1.19-.21h.29l.26,0,.24.05a.83.83,0,0,1,.21.06V448.8Zm-2,3.25a2,2,0,0,0-.8.15,1.68,1.68,0,0,0-.61.44,2.08,2.08,0,0,0-.39.72,3.12,3.12,0,0,0-.13.95,3.26,3.26,0,0,0,.12.92,1.9,1.9,0,0,0,.36.66,1.29,1.29,0,0,0,.54.39,1.78,1.78,0,0,0,.7.14,2,2,0,0,0,.36,0,2.61,2.61,0,0,0,.32-.06,1.88,1.88,0,0,0,.3-.12l.3-.16v-3.91l-.27,0-.26,0-.27,0Z" style="fill:#4d4d4d"/><path d="M583.1,449.33a.69.69,0,0,1,0-.25.52.52,0,0,1,.12-.19.78.78,0,0,1,.18-.11.67.67,0,0,1,.24,0,.61.61,0,0,1,.24,0,.5.5,0,0,1,.18.11.57.57,0,0,1,.12.18.71.71,0,0,1,0,.26.67.67,0,0,1,0,.24.57.57,0,0,1-.12.18.5.5,0,0,1-.18.11.61.61,0,0,1-.24,0,.67.67,0,0,1-.24,0,.78.78,0,0,1-.18-.11.57.57,0,0,1-.12-.18A.67.67,0,0,1,583.1,449.33Zm1,1.88v5.9h-.91v-5.83Z" style="fill:#4d4d4d"/><path d="M589.92,457.11v-3.85a1.6,1.6,0,0,0-.08-.51,1,1,0,0,0-.25-.39,1.19,1.19,0,0,0-.42-.26,1.59,1.59,0,0,0-.55-.09l-.38,0-.33.06a1.89,1.89,0,0,0-.34.09l-.36.13v4.8h-.91v-5.83l.88-.07v.4a2.4,2.4,0,0,1,.39-.2,3.43,3.43,0,0,1,.38-.13,1.59,1.59,0,0,1,.39-.08,2.94,2.94,0,0,1,.44,0,2.66,2.66,0,0,1,.88.14,1.62,1.62,0,0,1,.65.38,1.6,1.6,0,0,1,.39.62,2.54,2.54,0,0,1,.14.86v3.94Z" style="fill:#4d4d4d"/><path d="M593.82,454.31v2.8h-.91V448.8l.91-.07v4.77h.53l2-2.25h1.12l-2.28,2.52,2.48,3.34H596.5l-2.06-2.8Z" style="fill:#4d4d4d"/><path d="M598.3,454.19a4.06,4.06,0,0,1,.19-1.31,2.59,2.59,0,0,1,.52-1,2.13,2.13,0,0,1,.79-.58,2.22,2.22,0,0,1,1-.2,2.79,2.79,0,0,1,1,.15,1.84,1.84,0,0,1,.7.45,2,2,0,0,1,.44.74,3.11,3.11,0,0,1,.15,1V454c0,.06,0,.11,0,.17h-3.76a3.08,3.08,0,0,0,.14,1,1.66,1.66,0,0,0,.39.66,1.49,1.49,0,0,0,.6.39,2.28,2.28,0,0,0,.76.13,3.64,3.64,0,0,0,.48,0c.16,0,.3,0,.45-.06a3.45,3.45,0,0,0,.43-.12,3.89,3.89,0,0,0,.44-.16v.82l-.46.18-.44.11a3.54,3.54,0,0,1-.47.07,4.39,4.39,0,0,1-.54,0,3.27,3.27,0,0,1-1.11-.18,2.23,2.23,0,0,1-.85-.55,2.28,2.28,0,0,1-.54-.94A4.1,4.1,0,0,1,598.3,454.19Zm1-.71H602a2.4,2.4,0,0,0-.09-.69,1.2,1.2,0,0,0-.25-.49,1,1,0,0,0-.41-.3,1.64,1.64,0,0,0-.56-.09,1.3,1.3,0,0,0-.52.1,1.46,1.46,0,0,0-.43.32,1.56,1.56,0,0,0-.33.49A2.66,2.66,0,0,0,599.25,453.48Z" style="fill:#4d4d4d"/><path d="M605.62,448.73v8.38h-.91V448.8Z" style="fill:#4d4d4d"/><path d="M579.06,463.81a2.1,2.1,0,1,1,2.1-2.1A2.1,2.1,0,0,1,579.06,463.81Zm0-3.7a1.6,1.6,0,1,0,1.6,1.6A1.6,1.6,0,0,0,579.06,460.11Z" style="fill:#8b8f9e"/><path d="M524.28,343.6l-3.11-6.89h0v6.89h-.87v-7.87h1.45l3.1,6.89h.07v-6.89h.87v7.87Z" style="fill:#4d4d4d"/><path d="M533.06,340.6a3.79,3.79,0,0,1-.21,1.29,3,3,0,0,1-.6,1,2.53,2.53,0,0,1-.87.62,2.73,2.73,0,0,1-1,.21,2.8,2.8,0,0,1-1.07-.19,2.15,2.15,0,0,1-.81-.56,2.65,2.65,0,0,1-.51-.94,4.17,4.17,0,0,1-.18-1.28,3.79,3.79,0,0,1,.21-1.29,3,3,0,0,1,.6-1,2.67,2.67,0,0,1,.87-.62,2.62,2.62,0,0,1,1-.22,2.83,2.83,0,0,1,1.07.2,2.22,2.22,0,0,1,.82.56,2.6,2.6,0,0,1,.51.93A4.19,4.19,0,0,1,533.06,340.6Zm-.95,0a3.47,3.47,0,0,0-.11-1,2,2,0,0,0-.34-.7,1.37,1.37,0,0,0-.54-.41,1.81,1.81,0,0,0-.72-.14,1.58,1.58,0,0,0-.69.15,1.53,1.53,0,0,0-.54.45,2,2,0,0,0-.34.71,4.06,4.06,0,0,0,0,1.92,1.86,1.86,0,0,0,.34.69,1.41,1.41,0,0,0,.54.42,1.81,1.81,0,0,0,.72.13,1.58,1.58,0,0,0,.69-.15,1.74,1.74,0,0,0,.53-.45,2,2,0,0,0,.35-.72A3.45,3.45,0,0,0,532.11,340.64Z" style="fill:#4d4d4d"/><path d="M539.8,340.6a3.79,3.79,0,0,1-.21,1.29,2.87,2.87,0,0,1-.59,1,2.6,2.6,0,0,1-1.93.83,2.74,2.74,0,0,1-1.06-.19,2,2,0,0,1-.81-.56,2.52,2.52,0,0,1-.52-.94,4.17,4.17,0,0,1-.18-1.28,3.57,3.57,0,0,1,.22-1.29,2.87,2.87,0,0,1,.59-1,2.61,2.61,0,0,1,1.92-.84,2.78,2.78,0,0,1,1.06.2,2.22,2.22,0,0,1,.82.56,2.46,2.46,0,0,1,.51.93A3.91,3.91,0,0,1,539.8,340.6Zm-.94,0a3.45,3.45,0,0,0-.12-1,2,2,0,0,0-.33-.7,1.44,1.44,0,0,0-.54-.41,1.86,1.86,0,0,0-.73-.14,1.54,1.54,0,0,0-.68.15,1.45,1.45,0,0,0-.54.45,2.05,2.05,0,0,0-.35.71,3.55,3.55,0,0,0-.12,1,4,4,0,0,0,.11,1,2,2,0,0,0,.34.69,1.58,1.58,0,0,0,.54.42,1.83,1.83,0,0,0,.73.13,1.57,1.57,0,0,0,.68-.15,1.67,1.67,0,0,0,.54-.45,2.2,2.2,0,0,0,.35-.72A3.45,3.45,0,0,0,538.86,340.64Z" style="fill:#4d4d4d"/><path d="M544.44,337.74l-.11.9-.18,0-.16,0-.16,0h-.17a1.27,1.27,0,0,0-.28,0,1.09,1.09,0,0,0-.27.11,1.54,1.54,0,0,0-.28.19,2.53,2.53,0,0,0-.31.28v4.44h-.91v-5.83l.89-.07v.68a3.42,3.42,0,0,1,.33-.33,1.75,1.75,0,0,1,.3-.22,1.37,1.37,0,0,1,.31-.13,1.1,1.1,0,0,1,.31,0h.35l.16,0Z" style="fill:#4d4d4d"/><path d="M550.32,335.21v8.39h-.89v-.38l-.33.19-.37.14a2.46,2.46,0,0,1-.39.09l-.41,0a2.64,2.64,0,0,1-1-.18,2.26,2.26,0,0,1-.78-.55,2.63,2.63,0,0,1-.52-.9,3.86,3.86,0,0,1-.18-1.22,4,4,0,0,1,.21-1.34,2.74,2.74,0,0,1,.62-1,2.55,2.55,0,0,1,.93-.61,3.27,3.27,0,0,1,1.19-.21h.29l.26,0,.24,0,.2.06v-2.51Zm-2,3.25a2,2,0,0,0-.8.15,1.59,1.59,0,0,0-.61.45,1.67,1.67,0,0,0-.39.72,3.11,3.11,0,0,0-.14,1,3.17,3.17,0,0,0,.13.91,2,2,0,0,0,.35.67,1.63,1.63,0,0,0,.55.39,1.78,1.78,0,0,0,.7.13l.36,0,.32-.07a1.21,1.21,0,0,0,.3-.11,3.09,3.09,0,0,0,.29-.17v-3.9l-.27,0-.25,0-.27,0Z" style="fill:#4d4d4d"/><path d="M552.33,340.59v-.84h3.11v.84Z" style="fill:#4d4d4d"/><path d="M559.83,343.6h-2.15v-7.87h2.09a5.6,5.6,0,0,1,1.66.23,3.34,3.34,0,0,1,1.24.7,3.17,3.17,0,0,1,.78,1.17,4.75,4.75,0,0,1,.26,1.62,5.23,5.23,0,0,1-.28,1.8,3.45,3.45,0,0,1-.78,1.3,3.34,3.34,0,0,1-1.22.79A4.75,4.75,0,0,1,559.83,343.6Zm-1.2-7.07v6.27h1.21a3.37,3.37,0,0,0,1.19-.2,2.34,2.34,0,0,0,.91-.6,2.77,2.77,0,0,0,.58-1,4.56,4.56,0,0,0,.2-1.46,3.72,3.72,0,0,0-.2-1.31,2.47,2.47,0,0,0-.59-.93,2.41,2.41,0,0,0-1-.56,4.14,4.14,0,0,0-1.27-.18Z" style="fill:#4d4d4d"/><path d="M565.2,340.67a4.46,4.46,0,0,1,.18-1.31,2.78,2.78,0,0,1,.53-1,2.21,2.21,0,0,1,.78-.58,2.43,2.43,0,0,1,1-.2,2.59,2.59,0,0,1,1,.16,1.81,1.81,0,0,1,.7.44,2,2,0,0,1,.44.74,3.13,3.13,0,0,1,.15,1v.36a1.09,1.09,0,0,1,0,.18c0,.06,0,.12,0,.18h-3.76a2.75,2.75,0,0,0,.14.95,1.63,1.63,0,0,0,1,1.06,2.35,2.35,0,0,0,.77.12l.48,0,.45-.07a2.47,2.47,0,0,0,.43-.11,3.83,3.83,0,0,0,.43-.17v.83a3.67,3.67,0,0,1-.45.17l-.44.12-.47.07-.54,0a3.23,3.23,0,0,1-1.11-.18,2.33,2.33,0,0,1-.86-.54,2.61,2.61,0,0,1-.54-.94A4.43,4.43,0,0,1,565.2,340.67Zm.94-.71h2.76a2.4,2.4,0,0,0-.08-.68,1.38,1.38,0,0,0-.25-.5,1,1,0,0,0-.42-.29,1.38,1.38,0,0,0-.55-.1,1.27,1.27,0,0,0-.52.11,1.47,1.47,0,0,0-.76.81A2.59,2.59,0,0,0,566.14,340Z" style="fill:#4d4d4d"/><path d="M572.43,337.7v3.88a1.53,1.53,0,0,0,.09.54.9.9,0,0,0,.24.4,1.22,1.22,0,0,0,.4.24,1.61,1.61,0,0,0,.56.08h.38a1.65,1.65,0,0,0,.32-.06,1.71,1.71,0,0,0,.3-.09,3.79,3.79,0,0,0,.38-.14v-4.77l.91-.07v5.9h-.89v-.36a2.72,2.72,0,0,1-.37.2l-.37.13a2.24,2.24,0,0,1-.39.08,2.77,2.77,0,0,1-1.31-.09,1.6,1.6,0,0,1-.64-.39,1.68,1.68,0,0,1-.39-.63,2.47,2.47,0,0,1-.13-.86v-3.91Z" style="fill:#4d4d4d"/><path d="M581,337.74l-.11.9-.18,0-.16,0-.16,0h-.17a1.27,1.27,0,0,0-.28,0,1.53,1.53,0,0,0-.27.11,2,2,0,0,0-.28.19,3.56,3.56,0,0,0-.31.28v4.44h-.91v-5.83l.9-.07v.68a3.4,3.4,0,0,1,.32-.33,1.79,1.79,0,0,1,.31-.22,1.3,1.3,0,0,1,.3-.13,1.17,1.17,0,0,1,.32,0h.34l.16,0Z" style="fill:#4d4d4d"/><path d="M586,343.6v-3.85a1.42,1.42,0,0,0-.08-.52,1.14,1.14,0,0,0-.25-.39,1.23,1.23,0,0,0-.42-.25,1.59,1.59,0,0,0-.55-.09l-.38,0-.33.05-.34.09-.36.14v4.8h-.91v-5.83l.88-.07v.39a3.6,3.6,0,0,1,.39-.2l.38-.13a2.26,2.26,0,0,1,.39-.07,3,3,0,0,1,.44,0,2.67,2.67,0,0,1,.88.13,1.76,1.76,0,0,1,.65.39,1.46,1.46,0,0,1,.39.62,2.48,2.48,0,0,1,.14.85v4Z" style="fill:#4d4d4d"/><path d="M588.86,335.81a.61.61,0,0,1,0-.24.52.52,0,0,1,.12-.19.45.45,0,0,1,.19-.11.6.6,0,0,1,.48,0,.42.42,0,0,1,.18.11.54.54,0,0,1,.11.18.66.66,0,0,1,0,.25.61.61,0,0,1,0,.24.46.46,0,0,1-.11.18.57.57,0,0,1-.18.12.74.74,0,0,1-.48,0,.62.62,0,0,1-.19-.12.47.47,0,0,1-.12-.18A.61.61,0,0,1,588.86,335.81Zm1,1.89v5.9H589v-5.83Z" style="fill:#4d4d4d"/><path d="M595.69,343.6v-3.85a1.42,1.42,0,0,0-.09-.52,1,1,0,0,0-.25-.39,1.29,1.29,0,0,0-.41-.25,1.64,1.64,0,0,0-.56-.09l-.37,0-.34.05-.33.09a2.67,2.67,0,0,0-.36.14v4.8h-.92v-5.83l.88-.07v.39l.4-.2.37-.13a2.66,2.66,0,0,1,.39-.07,3.19,3.19,0,0,1,.45,0,2.57,2.57,0,0,1,.87.13,1.69,1.69,0,0,1,.65.39,1.48,1.48,0,0,1,.4.62,2.49,2.49,0,0,1,.13.85v4Z" style="fill:#4d4d4d"/><path d="M599.4,342.17a.45.45,0,0,0,0,.2.61.61,0,0,0,.12.16.7.7,0,0,0,.23.1,1.72,1.72,0,0,0,.34,0l1.57,0a2.86,2.86,0,0,1,.71.11,1.36,1.36,0,0,1,.51.26,1.11,1.11,0,0,1,.29.4,1.21,1.21,0,0,1,.1.52,1.68,1.68,0,0,1-.18.77,1.7,1.7,0,0,1-.52.62,2.93,2.93,0,0,1-.89.41,5.08,5.08,0,0,1-1.23.14,4.37,4.37,0,0,1-1-.11,2.32,2.32,0,0,1-.75-.31,1.46,1.46,0,0,1-.47-.49,1.22,1.22,0,0,1-.09-1,1.53,1.53,0,0,1,.21-.37,1.77,1.77,0,0,1,.31-.3,1.57,1.57,0,0,1,.37-.22v-.05a.94.94,0,0,1-.18-.12.8.8,0,0,1-.15-.17.75.75,0,0,1-.1-.2,1,1,0,0,1,0-.25.74.74,0,0,1,0-.25.68.68,0,0,1,.12-.24,1.34,1.34,0,0,1,.21-.2.82.82,0,0,1,.26-.14v0a2,2,0,0,1-.37-.26,1.25,1.25,0,0,1-.28-.36,1.51,1.51,0,0,1-.18-.45,1.93,1.93,0,0,1-.07-.55,2.38,2.38,0,0,1,.16-.91,1.68,1.68,0,0,1,.46-.7,2.15,2.15,0,0,1,.74-.43,3,3,0,0,1,1-.15h.23l.25,0a.85.85,0,0,1,.23,0l.19,0h1.8v.68h-1.1v0a1.12,1.12,0,0,1,.23.21,1.49,1.49,0,0,1,.18.3,1.8,1.8,0,0,1,.12.35,1.75,1.75,0,0,1,0,.4,2.19,2.19,0,0,1-.16.88,1.78,1.78,0,0,1-.47.64,2.23,2.23,0,0,1-.77.39,3.87,3.87,0,0,1-1,.13h-.35l-.16,0-.15,0a.35.35,0,0,0-.15.07l-.12.11a.44.44,0,0,0-.11.27Zm-.46,2.09a.77.77,0,0,0,.11.39.85.85,0,0,0,.32.3,1.7,1.7,0,0,0,.51.19,2.87,2.87,0,0,0,.69.07,4.37,4.37,0,0,0,.87-.07,1.9,1.9,0,0,0,.6-.21,1,1,0,0,0,.35-.33.72.72,0,0,0,.11-.41.79.79,0,0,0,0-.28.62.62,0,0,0-.16-.2.91.91,0,0,0-.28-.12,2.34,2.34,0,0,0-.43-.06l-2-.1a1.46,1.46,0,0,0-.28.14.8.8,0,0,0-.33.42A.77.77,0,0,0,598.94,344.26Zm1.61-3.15a2.28,2.28,0,0,0,.62-.08,1,1,0,0,0,.69-.68,2.43,2.43,0,0,0,.08-.64,1.62,1.62,0,0,0-.09-.57,1.15,1.15,0,0,0-.26-.41,1.24,1.24,0,0,0-.42-.24,1.64,1.64,0,0,0-.56-.09,1.7,1.7,0,0,0-.57.09,1.06,1.06,0,0,0-.43.26,1,1,0,0,0-.27.43,1.8,1.8,0,0,0-.09.6,1.59,1.59,0,0,0,.1.61,1,1,0,0,0,.68.64A1.67,1.67,0,0,0,600.55,341.11Z" style="fill:#4d4d4d"/><path d="M604.51,340.67a4.46,4.46,0,0,1,.18-1.31,2.78,2.78,0,0,1,.53-1,2.25,2.25,0,0,1,.79-.58,2.34,2.34,0,0,1,1-.2,2.56,2.56,0,0,1,.95.16,1.81,1.81,0,0,1,.7.44,2,2,0,0,1,.44.74,3.13,3.13,0,0,1,.15,1v.36a1.09,1.09,0,0,1,0,.18c0,.06,0,.12,0,.18h-3.76a3,3,0,0,0,.14.95,1.77,1.77,0,0,0,.39.67,1.73,1.73,0,0,0,.6.39,2.29,2.29,0,0,0,.76.12l.48,0,.45-.07a2.26,2.26,0,0,0,.43-.11,3.83,3.83,0,0,0,.43-.17v.83a3.67,3.67,0,0,1-.45.17l-.44.12-.47.07-.54,0a3.23,3.23,0,0,1-1.11-.18,2.21,2.21,0,0,1-.85-.54,2.49,2.49,0,0,1-.55-.94A4.43,4.43,0,0,1,604.51,340.67Zm1-.71h2.76a2.38,2.38,0,0,0-.09-.68,1.24,1.24,0,0,0-.25-.5,1,1,0,0,0-.41-.29,1.43,1.43,0,0,0-.56-.1,1.27,1.27,0,0,0-.52.11,1.47,1.47,0,0,0-.76.81A2.58,2.58,0,0,0,605.46,340Z" style="fill:#4d4d4d"/><path d="M614.54,343.6v-3.85a1.67,1.67,0,0,0-.08-.52,1,1,0,0,0-.26-.39,1.29,1.29,0,0,0-.41-.25,1.6,1.6,0,0,0-.56-.09l-.37,0-.34.05-.33.09-.36.14v4.8h-.91v-5.83l.87-.07v.39l.4-.2.38-.13a2.26,2.26,0,0,1,.39-.07,2.94,2.94,0,0,1,.44,0,2.67,2.67,0,0,1,.88.13,1.72,1.72,0,0,1,.64.39,1.48,1.48,0,0,1,.4.62,2.49,2.49,0,0,1,.13.85v4Z" style="fill:#4d4d4d"/><path d="M567.82,350.29a2.1,2.1,0,1,1,2.1-2.09A2.1,2.1,0,0,1,567.82,350.29Zm0-3.69a1.6,1.6,0,1,0,1.6,1.6A1.6,1.6,0,0,0,567.82,346.6Z" style="fill:#8b8f9e"/><path d="M406,366.68l2.41,7.87h-1l-.64-2.13h-3.07l-.63,2.13h-1l2.48-7.87Zm.5,4.94-1.24-4.21h-.11l-1.25,4.21Z" style="fill:#4d4d4d"/><path d="M410.76,366.16v8.39h-.91v-8.32Z" style="fill:#4d4d4d"/><path d="M420.07,374.55v-3.84a1.42,1.42,0,0,0-.08-.52,1,1,0,0,0-.24-.4,1,1,0,0,0-.4-.25,1.55,1.55,0,0,0-.55-.09,2.12,2.12,0,0,0-.37,0l-.33,0a1.81,1.81,0,0,0-.31.09l-.38.14v4.8h-.91v-3.87a1.74,1.74,0,0,0-.08-.53.83.83,0,0,0-.22-.39,1.05,1.05,0,0,0-.4-.23,1.66,1.66,0,0,0-.58-.08,2.42,2.42,0,0,0-.39,0l-.33,0-.31.09-.36.15v4.8h-.91v-5.83l.88-.08v.4a3,3,0,0,1,.4-.2,2.79,2.79,0,0,1,.37-.14l.38-.07.43,0a4.28,4.28,0,0,1,.52,0,2.44,2.44,0,0,1,.45.12,1.43,1.43,0,0,1,.37.19,1.28,1.28,0,0,1,.3.26,5.39,5.39,0,0,1,.5-.28,2.42,2.42,0,0,1,.46-.18,4,4,0,0,1,.47-.11,3.89,3.89,0,0,1,.51,0,2.61,2.61,0,0,1,.87.13,1.76,1.76,0,0,1,.64.38,1.66,1.66,0,0,1,.38.63,2.49,2.49,0,0,1,.13.85v3.95Z" style="fill:#4d4d4d"/><path d="M422.7,371.62a4.1,4.1,0,0,1,.19-1.31,2.76,2.76,0,0,1,.52-1,2.25,2.25,0,0,1,.79-.58,2.38,2.38,0,0,1,.95-.2,2.79,2.79,0,0,1,1,.15,1.76,1.76,0,0,1,.7.45,1.9,1.9,0,0,1,.44.74,3.11,3.11,0,0,1,.15,1v.55c0,.06,0,.12,0,.17h-3.76a3,3,0,0,0,.14,1,1.77,1.77,0,0,0,.39.67,1.58,1.58,0,0,0,.6.38,2.06,2.06,0,0,0,.76.13l.48,0,.45-.07.43-.11.44-.17v.83a3.78,3.78,0,0,1-.46.17l-.44.12-.47.07-.54,0a3.31,3.31,0,0,1-1.11-.18,2.12,2.12,0,0,1-.85-.55,2.24,2.24,0,0,1-.54-.93A4.17,4.17,0,0,1,422.7,371.62Zm.95-.71h2.76a2.38,2.38,0,0,0-.09-.68,1.24,1.24,0,0,0-.25-.5,1,1,0,0,0-.41-.29,1.43,1.43,0,0,0-.56-.1,1.31,1.31,0,0,0-.52.11,1.27,1.27,0,0,0-.43.31,1.61,1.61,0,0,0-.33.5A2.47,2.47,0,0,0,423.65,370.91Z" style="fill:#4d4d4d"/><path d="M430,366.16v8.39h-.91v-8.32Z" style="fill:#4d4d4d"/><path d="M437.12,371.55a3.79,3.79,0,0,1-.21,1.29,2.89,2.89,0,0,1-.6,1,2.53,2.53,0,0,1-.87.62,2.66,2.66,0,0,1-1.05.21,2.94,2.94,0,0,1-1.06-.19,2,2,0,0,1-.81-.56A2.6,2.6,0,0,1,432,373a4.17,4.17,0,0,1-.18-1.28,3.57,3.57,0,0,1,.22-1.29,2.69,2.69,0,0,1,.59-1,2.53,2.53,0,0,1,.87-.62,2.49,2.49,0,0,1,1-.22,3,3,0,0,1,1.07.19,2.25,2.25,0,0,1,.82.57,2.6,2.6,0,0,1,.51.93A4.19,4.19,0,0,1,437.12,371.55Zm-.94,0a3.5,3.5,0,0,0-.12-1,2,2,0,0,0-.33-.69,1.44,1.44,0,0,0-.54-.41,1.73,1.73,0,0,0-.73-.14,1.51,1.51,0,0,0-1.22.59,2,2,0,0,0-.35.72,3.48,3.48,0,0,0-.12.95,3.84,3.84,0,0,0,.11,1,2,2,0,0,0,.34.7,1.44,1.44,0,0,0,.54.41,1.65,1.65,0,0,0,.72.14,1.45,1.45,0,0,0,1.23-.61,2.05,2.05,0,0,0,.35-.71A3.53,3.53,0,0,0,436.18,371.58Z" style="fill:#4d4d4d"/><path d="M419.9,381.24a2.1,2.1,0,1,1,2.1-2.1A2.1,2.1,0,0,1,419.9,381.24Zm0-3.69a1.6,1.6,0,0,0,0,3.19,1.6,1.6,0,1,0,0-3.19Z" style="fill:#8b8f9e"/><path d="M379.85,460.07v-.84h2.4v3.59l-.55.1-.54.06-.56,0H380a4.11,4.11,0,0,1-1.46-.25,3.25,3.25,0,0,1-2-1.93,4.73,4.73,0,0,1-.28-1.66,5,5,0,0,1,.34-1.89,3.53,3.53,0,0,1,.94-1.31,3.82,3.82,0,0,1,1.31-.75,4.82,4.82,0,0,1,1.51-.24h.48l.42,0,.39.05.42.07L382,456l-.51-.08-.32,0-.37,0h-.44a3.64,3.64,0,0,0-1.15.18,2.74,2.74,0,0,0-1,.59,2.79,2.79,0,0,0-.69,1,3.69,3.69,0,0,0-.25,1.43,3.92,3.92,0,0,0,.22,1.38,2.69,2.69,0,0,0,.62,1,2.56,2.56,0,0,0,.9.59,3.23,3.23,0,0,0,1.08.19h.61l.28,0,.32,0v-2.06Z" style="fill:#4d4d4d"/><path d="M389.31,460a3.71,3.71,0,0,1-.21,1.29,2.89,2.89,0,0,1-.6,1,2.4,2.4,0,0,1-.87.62,2.7,2.7,0,0,1-1.05.21,3,3,0,0,1-1.06-.18,2.13,2.13,0,0,1-.81-.57,2.47,2.47,0,0,1-.52-.93,4.21,4.21,0,0,1-.18-1.28,3.62,3.62,0,0,1,.22-1.3,2.87,2.87,0,0,1,.59-1,2.55,2.55,0,0,1,1.91-.83,2.83,2.83,0,0,1,1.07.19,2.35,2.35,0,0,1,.82.56,2.6,2.6,0,0,1,.51.93A4.28,4.28,0,0,1,389.31,460Zm-.94,0a3.5,3.5,0,0,0-.12-1,1.85,1.85,0,0,0-.33-.69,1.37,1.37,0,0,0-.54-.42,1.9,1.9,0,0,0-.73-.14,1.51,1.51,0,0,0-.68.15,1.45,1.45,0,0,0-.54.45,2,2,0,0,0-.35.72,3.48,3.48,0,0,0-.12.95,4,4,0,0,0,.11,1,1.86,1.86,0,0,0,.34.69,1.37,1.37,0,0,0,.54.42,1.81,1.81,0,0,0,.72.14,1.53,1.53,0,0,0,1.23-.61,2.2,2.2,0,0,0,.35-.72A3.4,3.4,0,0,0,388.37,460Z" style="fill:#4d4d4d"/><path d="M396.06,460a3.49,3.49,0,0,1-.22,1.29,2.87,2.87,0,0,1-.59,1,2.44,2.44,0,0,1-.88.62,2.66,2.66,0,0,1-1.05.21,3,3,0,0,1-1.06-.18,2.13,2.13,0,0,1-.81-.57,2.47,2.47,0,0,1-.52-.93,4.21,4.21,0,0,1-.18-1.28,3.85,3.85,0,0,1,.22-1.3,2.7,2.7,0,0,1,1.46-1.61,2.66,2.66,0,0,1,1.05-.21,2.78,2.78,0,0,1,1.06.19,2.18,2.18,0,0,1,.82.56,2.62,2.62,0,0,1,.52.93A4.28,4.28,0,0,1,396.06,460Zm-.95,0a4,4,0,0,0-.11-1,1.86,1.86,0,0,0-.34-.69,1.37,1.37,0,0,0-.54-.42,1.83,1.83,0,0,0-.73-.14,1.54,1.54,0,0,0-.68.15,1.45,1.45,0,0,0-.54.45,2.2,2.2,0,0,0-.35.72,3.86,3.86,0,0,0,0,1.91,1.71,1.71,0,0,0,.33.69,1.37,1.37,0,0,0,.54.42,1.83,1.83,0,0,0,.73.14,1.42,1.42,0,0,0,.68-.16,1.45,1.45,0,0,0,.54-.45,2.2,2.2,0,0,0,.35-.72A3.4,3.4,0,0,0,395.11,460Z" style="fill:#4d4d4d"/><path d="M400.69,457.1l-.11.9-.18,0a.45.45,0,0,0-.16,0l-.16,0h-.17a.86.86,0,0,0-.28,0,1,1,0,0,0-.27.11,1.86,1.86,0,0,0-.28.18c-.09.08-.2.17-.31.28V463h-.91v-5.83l.9-.07v.68l.32-.33a2.58,2.58,0,0,1,.31-.22,1.25,1.25,0,0,1,.3-.12A1.19,1.19,0,0,1,400,457h.34l.16,0Z" style="fill:#4d4d4d"/><path d="M388.38,469.65a2.1,2.1,0,1,1,2.09-2.1A2.1,2.1,0,0,1,388.38,469.65Zm0-3.7a1.6,1.6,0,1,0,1.59,1.6A1.6,1.6,0,0,0,388.38,466Z" style="fill:#8b8f9e"/><path d="M426.45,514.86v-3.61h-3.6v3.61h-1V507h1v3.42h3.6V507h.94v7.87Z" style="fill:#4d4d4d"/><path d="M433.75,510.8v4.06h-.85v-.41a3.32,3.32,0,0,1-.41.22,3.25,3.25,0,0,1-.4.15,3,3,0,0,1-.43.09l-.5,0a2.47,2.47,0,0,1-.75-.11,1.72,1.72,0,0,1-.58-.33,1.34,1.34,0,0,1-.37-.5,1.69,1.69,0,0,1-.12-.64,1.37,1.37,0,0,1,.17-.7,1.61,1.61,0,0,1,.49-.56,2.35,2.35,0,0,1,.83-.37,4.44,4.44,0,0,1,1.16-.14h.89V511a1.36,1.36,0,0,0-.09-.51.83.83,0,0,0-.24-.38,1.06,1.06,0,0,0-.42-.23,2.13,2.13,0,0,0-.6-.08l-.41,0a3.1,3.1,0,0,0-.42.08l-.43.12a4,4,0,0,0-.45.16l-.19-.76.52-.21.48-.15a4,4,0,0,1,.5-.07,4.39,4.39,0,0,1,.54,0,2.73,2.73,0,0,1,.89.13,1.64,1.64,0,0,1,.65.36,1.6,1.6,0,0,1,.41.6A2.18,2.18,0,0,1,433.75,510.8Zm-3.46,2.47a1,1,0,0,0,.06.35.8.8,0,0,0,.2.28,1,1,0,0,0,.33.17,1.68,1.68,0,0,0,.47.06l.41,0,.39-.08.37-.13.36-.19v-1.37H432a3.49,3.49,0,0,0-.77.07,1.49,1.49,0,0,0-.52.2.82.82,0,0,0-.29.3A.85.85,0,0,0,430.29,513.27Z" style="fill:#4d4d4d"/><path d="M439.81,510.8v4.06H439v-.41a3.32,3.32,0,0,1-.41.22,3.25,3.25,0,0,1-.4.15,3,3,0,0,1-.43.09l-.5,0a2.47,2.47,0,0,1-.75-.11,1.72,1.72,0,0,1-.58-.33,1.34,1.34,0,0,1-.37-.5,1.69,1.69,0,0,1-.12-.64,1.37,1.37,0,0,1,.17-.7,1.61,1.61,0,0,1,.49-.56,2.35,2.35,0,0,1,.83-.37,4.44,4.44,0,0,1,1.16-.14h.89V511a1.36,1.36,0,0,0-.09-.51.83.83,0,0,0-.24-.38,1.06,1.06,0,0,0-.42-.23,2.13,2.13,0,0,0-.6-.08l-.41,0a3.1,3.1,0,0,0-.42.08l-.43.12a4,4,0,0,0-.45.16l-.19-.76.52-.21.48-.15a4,4,0,0,1,.5-.07,4.39,4.39,0,0,1,.54,0,2.73,2.73,0,0,1,.89.13,1.64,1.64,0,0,1,.65.36,1.6,1.6,0,0,1,.41.6A2.18,2.18,0,0,1,439.81,510.8Zm-3.46,2.47a1,1,0,0,0,.06.35.8.8,0,0,0,.2.28,1,1,0,0,0,.33.17,1.68,1.68,0,0,0,.47.06l.41,0,.39-.08.37-.13.36-.19v-1.37H438a3.49,3.49,0,0,0-.77.07,1.49,1.49,0,0,0-.52.2.82.82,0,0,0-.29.3A.85.85,0,0,0,436.35,513.27Z" style="fill:#4d4d4d"/><path d="M442.8,512.05v2.81h-.91v-8.32l.91-.07v4.78h.53l2-2.26h1.11l-2.28,2.53,2.49,3.34h-1.14l-2.07-2.81Z" style="fill:#4d4d4d"/><path d="M447.39,514.74v-.83a2.92,2.92,0,0,0,.4.1l.42.07.42,0h.45a1.84,1.84,0,0,0,.55-.07,1.19,1.19,0,0,0,.41-.18.83.83,0,0,0,.25-.28.69.69,0,0,0,.08-.35.75.75,0,0,0-.05-.31.7.7,0,0,0-.17-.25,1.51,1.51,0,0,0-.31-.2,2.9,2.9,0,0,0-.45-.16l-.68-.21a2.18,2.18,0,0,1-.54-.22,1.55,1.55,0,0,1-.39-.32,1.64,1.64,0,0,1-.24-.43,1.74,1.74,0,0,1-.08-.53,1.53,1.53,0,0,1,.15-.67,1.49,1.49,0,0,1,.43-.54,1.8,1.8,0,0,1,.67-.36,2.75,2.75,0,0,1,.88-.13H450l.36,0,.34,0,.33.06-.1.8-.34-.07-.32,0-.33,0h-.37a2,2,0,0,0-.51.06,1.76,1.76,0,0,0-.39.17.8.8,0,0,0-.23.26.76.76,0,0,0-.08.32.85.85,0,0,0,.05.3.48.48,0,0,0,.15.22.86.86,0,0,0,.26.18,1.92,1.92,0,0,0,.37.14l.68.18a2.36,2.36,0,0,1,.62.24,1.49,1.49,0,0,1,.44.33,1.17,1.17,0,0,1,.27.42,1.65,1.65,0,0,1,.08.51,1.71,1.71,0,0,1-.16.75,1.61,1.61,0,0,1-.46.6,2,2,0,0,1-.7.39,2.67,2.67,0,0,1-.91.14h-.46l-.42,0a2.5,2.5,0,0,1-.38-.06Z" style="fill:#4d4d4d"/><path d="M457.8,511.75a3.73,3.73,0,0,1-.22,1.34,2.77,2.77,0,0,1-.64,1,2.69,2.69,0,0,1-1,.62,3.51,3.51,0,0,1-1.24.21h-.45l-.42,0-.44,0-.47-.07v-8.26l.91-.07v2.85a1.85,1.85,0,0,1,.38-.18,2.78,2.78,0,0,1,.38-.12A1.8,1.8,0,0,1,455,509a2.73,2.73,0,0,1,.41,0,2.76,2.76,0,0,1,1,.17,2.08,2.08,0,0,1,.77.53,2.37,2.37,0,0,1,.48.89A3.91,3.91,0,0,1,457.8,511.75Zm-.95.09a3.25,3.25,0,0,0-.12-.94,1.74,1.74,0,0,0-.34-.65,1.34,1.34,0,0,0-.54-.37,2,2,0,0,0-.73-.12l-.32,0-.31.05-.31.1-.33.13v4l.26,0,.24,0h.49a2.26,2.26,0,0,0,.79-.14,1.73,1.73,0,0,0,.65-.42,2,2,0,0,0,.42-.72A3.11,3.11,0,0,0,456.85,511.84Z" style="fill:#4d4d4d"/><path d="M459.24,511.93a4.15,4.15,0,0,1,.19-1.31,2.76,2.76,0,0,1,.52-1,2.34,2.34,0,0,1,.79-.58,2.39,2.39,0,0,1,1-.2,2.77,2.77,0,0,1,.94.15,1.76,1.76,0,0,1,.7.45,1.9,1.9,0,0,1,.44.74,3.13,3.13,0,0,1,.15,1v.54c0,.06,0,.12,0,.18h-3.76a3,3,0,0,0,.14.95,1.77,1.77,0,0,0,.39.67,1.73,1.73,0,0,0,.6.39,2.29,2.29,0,0,0,.76.12l.49,0L463,514a2.09,2.09,0,0,0,.43-.11l.44-.17v.83a3.78,3.78,0,0,1-.46.17c-.14,0-.29.08-.44.12l-.47.07-.53,0a3.33,3.33,0,0,1-1.12-.18,2.29,2.29,0,0,1-.85-.54,2.35,2.35,0,0,1-.54-.94A4.13,4.13,0,0,1,459.24,511.93Zm.95-.71H463a2.82,2.82,0,0,0-.08-.68,1.39,1.39,0,0,0-.26-.5,1,1,0,0,0-.41-.29,1.4,1.4,0,0,0-.56-.1,1.35,1.35,0,0,0-.52.11,1.43,1.43,0,0,0-.43.31,1.61,1.61,0,0,0-.33.5A2.58,2.58,0,0,0,460.19,511.22Z" style="fill:#4d4d4d"/><path d="M468.48,509l-.11.9-.18,0-.16,0-.15,0h-.18a1.33,1.33,0,0,0-.28,0,1.53,1.53,0,0,0-.27.11,2,2,0,0,0-.28.19,3.56,3.56,0,0,0-.31.28v4.44h-.91V509l.9-.07v.68a3.4,3.4,0,0,1,.32-.33,1.79,1.79,0,0,1,.31-.22,1.2,1.2,0,0,1,.31-.13,1.06,1.06,0,0,1,.31,0h.34l.16,0Z" style="fill:#4d4d4d"/><path d="M470.58,513.43a.65.65,0,0,0,0,.2.48.48,0,0,0,.13.16.71.71,0,0,0,.23.1,1.61,1.61,0,0,0,.33,0l1.57.05a2.87,2.87,0,0,1,.72.11,1.39,1.39,0,0,1,.5.26,1.14,1.14,0,0,1,.3.4,1.38,1.38,0,0,1,.09.52,1.67,1.67,0,0,1-.17.77,1.73,1.73,0,0,1-.53.62,2.82,2.82,0,0,1-.89.41,5,5,0,0,1-1.23.14,4.22,4.22,0,0,1-1-.11,2.15,2.15,0,0,1-.75-.31,1.37,1.37,0,0,1-.47-.49,1.22,1.22,0,0,1-.16-.62,1.07,1.07,0,0,1,.07-.39,1.9,1.9,0,0,1,.2-.37,2.2,2.2,0,0,1,.31-.3,1.86,1.86,0,0,1,.38-.22v0a.76.76,0,0,1-.19-.12.8.8,0,0,1-.15-.17.72.72,0,0,1-.09-.2.69.69,0,0,1,0-.25.73.73,0,0,1,0-.25.7.7,0,0,1,.13-.24,1,1,0,0,1,.2-.2.87.87,0,0,1,.27-.14v0a2.55,2.55,0,0,1-.38-.26,1.45,1.45,0,0,1-.28-.36,1.84,1.84,0,0,1-.18-.45,2.38,2.38,0,0,1-.06-.55,2.69,2.69,0,0,1,.15-.92,1.94,1.94,0,0,1,.46-.69,2.3,2.3,0,0,1,.75-.43,3,3,0,0,1,1-.15h.23l.25,0a.78.78,0,0,1,.22,0l.2,0h1.8v.68h-1.11v0a1,1,0,0,1,.24.21l.18.3a1.8,1.8,0,0,1,.12.35,2.58,2.58,0,0,1,0,.4,2.38,2.38,0,0,1-.16.88,1.69,1.69,0,0,1-.48.64,2.18,2.18,0,0,1-.76.39,4,4,0,0,1-1,.13h-.34l-.16,0-.16,0a.37.37,0,0,0-.14.07.43.43,0,0,0-.12.11.38.38,0,0,0-.09.13A.35.35,0,0,0,470.58,513.43Zm-.46,2.09a.77.77,0,0,0,.11.39.85.85,0,0,0,.32.3,1.7,1.7,0,0,0,.51.19,2.91,2.91,0,0,0,.7.07,4.51,4.51,0,0,0,.87-.07,2.1,2.1,0,0,0,.6-.21,1.11,1.11,0,0,0,.35-.33.81.81,0,0,0,.11-.41.78.78,0,0,0-.05-.28.48.48,0,0,0-.15-.2,1,1,0,0,0-.29-.12,2.11,2.11,0,0,0-.42-.06l-2-.1a1.71,1.71,0,0,0-.27.14.91.91,0,0,0-.21.18,1,1,0,0,0-.12.23A.87.87,0,0,0,470.12,515.52Zm1.61-3.16a2.25,2.25,0,0,0,.62-.07,1,1,0,0,0,.43-.25.94.94,0,0,0,.26-.43,2.08,2.08,0,0,0,.08-.64,1.64,1.64,0,0,0-.08-.57,1,1,0,0,0-.27-.41,1.08,1.08,0,0,0-.42-.24,1.6,1.6,0,0,0-.56-.09,1.69,1.69,0,0,0-.56.09,1.09,1.09,0,0,0-.7.69,1.8,1.8,0,0,0-.09.6,1.82,1.82,0,0,0,.09.61,1.27,1.27,0,0,0,.27.42,1.16,1.16,0,0,0,.41.22A1.72,1.72,0,0,0,471.73,512.36Z" style="fill:#4d4d4d"/><path d="M475.69,511.93a4.45,4.45,0,0,1,.19-1.31,2.76,2.76,0,0,1,.52-1,2.34,2.34,0,0,1,.79-.58,2.39,2.39,0,0,1,1-.2,2.77,2.77,0,0,1,.94.15,1.87,1.87,0,0,1,.71.45,2,2,0,0,1,.43.74,3.13,3.13,0,0,1,.15,1v.54a1.1,1.1,0,0,1,0,.18h-3.75a3,3,0,0,0,.13.95,2.08,2.08,0,0,0,.39.67,1.73,1.73,0,0,0,.6.39,2.3,2.3,0,0,0,.77.12l.48,0,.44-.07a2.36,2.36,0,0,0,.44-.11l.43-.17v.83a3.25,3.25,0,0,1-.46.17c-.14,0-.29.08-.44.12l-.47.07-.53,0a3.23,3.23,0,0,1-1.11-.18,2.25,2.25,0,0,1-.86-.54,2.35,2.35,0,0,1-.54-.94A4.42,4.42,0,0,1,475.69,511.93Zm.95-.71h2.76a2.82,2.82,0,0,0-.08-.68,1.38,1.38,0,0,0-.25-.5,1.1,1.1,0,0,0-.42-.29,1.4,1.4,0,0,0-.56-.1,1.26,1.26,0,0,0-.51.11,1.47,1.47,0,0,0-.44.31,1.59,1.59,0,0,0-.32.5A2.23,2.23,0,0,0,476.64,511.22Z" style="fill:#4d4d4d"/><path d="M485.72,514.86V511a1.42,1.42,0,0,0-.08-.52,1.14,1.14,0,0,0-.25-.39,1.09,1.09,0,0,0-.42-.25,1.59,1.59,0,0,0-.55-.09l-.38,0-.33.05-.34.09-.36.14v4.8h-.91V509L483,509v.39c.13-.08.27-.14.39-.2l.38-.13a2.44,2.44,0,0,1,.39-.07,3,3,0,0,1,.44,0,2.63,2.63,0,0,1,.88.13,1.76,1.76,0,0,1,.65.39,1.37,1.37,0,0,1,.39.62,2.48,2.48,0,0,1,.14.85v3.95Z" style="fill:#4d4d4d"/><path d="M454.24,521.55a2.1,2.1,0,1,1,2.09-2.09A2.1,2.1,0,0,1,454.24,521.55Zm0-3.69a1.6,1.6,0,1,0,1.59,1.6A1.6,1.6,0,0,0,454.24,517.86Z" style="fill:#8b8f9e"/><path d="M455.58,441.54v-3.61H452v3.61H451v-7.87H452v3.42h3.61v-3.42h.94v7.87Z" style="fill:#4d4d4d"/><path d="M458.54,438.62a4.37,4.37,0,0,1,.18-1.31,2.69,2.69,0,0,1,.53-1,2.13,2.13,0,0,1,.79-.58,2.22,2.22,0,0,1,.95-.2,2.79,2.79,0,0,1,.95.15,1.84,1.84,0,0,1,.7.45,2,2,0,0,1,.44.74,3.11,3.11,0,0,1,.15,1v.37a1.09,1.09,0,0,1,0,.18c0,.06,0,.11,0,.17h-3.76a3.08,3.08,0,0,0,.14,1,1.66,1.66,0,0,0,.39.66,1.49,1.49,0,0,0,.6.39,2.06,2.06,0,0,0,.76.13,3.64,3.64,0,0,0,.48,0l.45-.06a3.45,3.45,0,0,0,.43-.12,3.16,3.16,0,0,0,.43-.16v.82l-.45.18-.44.11a3.54,3.54,0,0,1-.47.07,4.39,4.39,0,0,1-.54,0,3.27,3.27,0,0,1-1.11-.18,2.23,2.23,0,0,1-.85-.55,2.41,2.41,0,0,1-.55-.94A4.41,4.41,0,0,1,458.54,438.62Zm.95-.71h2.76a2.4,2.4,0,0,0-.09-.69,1.26,1.26,0,0,0-.25-.49,1,1,0,0,0-.41-.3,1.64,1.64,0,0,0-.56-.09,1.13,1.13,0,0,0-.52.11,1.42,1.42,0,0,0-.44.31,1.73,1.73,0,0,0-.32.49A2.66,2.66,0,0,0,459.49,437.91Z" style="fill:#4d4d4d"/><path d="M468.57,441.54v-3.85a1.6,1.6,0,0,0-.08-.51,1,1,0,0,0-.26-.39,1.15,1.15,0,0,0-.41-.26,1.61,1.61,0,0,0-.56-.08h-.37l-.34.06a2,2,0,0,0-.33.09l-.36.13v4.8H465v-5.83l.87-.07v.4a3,3,0,0,1,.4-.2,2.84,2.84,0,0,1,.38-.13,1.59,1.59,0,0,1,.39-.08,3,3,0,0,1,.44,0,2.67,2.67,0,0,1,.88.13,1.69,1.69,0,0,1,.65.38,1.72,1.72,0,0,1,.39.62,2.55,2.55,0,0,1,.13.86v3.94Z" style="fill:#4d4d4d"/><path d="M472.28,440.12a.41.41,0,0,0,0,.19.4.4,0,0,0,.13.16.56.56,0,0,0,.22.1,1.18,1.18,0,0,0,.34,0l1.57.05a2.61,2.61,0,0,1,.72.1,1.58,1.58,0,0,1,.5.27,1,1,0,0,1,.29.39,1.27,1.27,0,0,1,.1.52,1.77,1.77,0,0,1-.17.77,1.74,1.74,0,0,1-.53.62,2.62,2.62,0,0,1-.89.41,4.62,4.62,0,0,1-1.23.14,4.25,4.25,0,0,1-1-.1,2.8,2.8,0,0,1-.76-.31,1.42,1.42,0,0,1-.46-.49,1.27,1.27,0,0,1-.17-.63,1.13,1.13,0,0,1,.08-.39,1.27,1.27,0,0,1,.2-.36,2.27,2.27,0,0,1,.31-.31,2.08,2.08,0,0,1,.38-.22V441a.76.76,0,0,1-.19-.12.5.5,0,0,1-.15-.17,1.24,1.24,0,0,1-.1-.2.88.88,0,0,1,0-.24.75.75,0,0,1,0-.26,1.34,1.34,0,0,1,.12-.24,1.29,1.29,0,0,1,.21-.19.73.73,0,0,1,.26-.14v0a1.9,1.9,0,0,1-.37-.26,1.2,1.2,0,0,1-.28-.35,1.7,1.7,0,0,1-.18-.46,1.93,1.93,0,0,1-.07-.55,2.38,2.38,0,0,1,.16-.91,1.82,1.82,0,0,1,.46-.69,2,2,0,0,1,.74-.43,3.05,3.05,0,0,1,1-.15h.24l.24,0,.23,0,.19,0h1.8v.69h-1.1v0a1,1,0,0,1,.23.22,1.41,1.41,0,0,1,.18.29,1.9,1.9,0,0,1,.12.36,1.67,1.67,0,0,1,0,.39,2.16,2.16,0,0,1-.16.88,1.59,1.59,0,0,1-.47.64,2.18,2.18,0,0,1-.76.39,3.56,3.56,0,0,1-1,.13h-.18l-.17,0-.16,0-.15,0-.15.07-.12.11a.57.57,0,0,0-.08.13A.4.4,0,0,0,472.28,440.12Zm-.46,2.08a.71.71,0,0,0,.11.39.85.85,0,0,0,.32.3,1.7,1.7,0,0,0,.51.2,3.58,3.58,0,0,0,.7.06,4.33,4.33,0,0,0,.86-.07,1.9,1.9,0,0,0,.6-.21.92.92,0,0,0,.35-.32.79.79,0,0,0,.12-.42.76.76,0,0,0-.05-.27.45.45,0,0,0-.16-.2.81.81,0,0,0-.28-.13,2.22,2.22,0,0,0-.43-.06l-2-.09a1.36,1.36,0,0,0-.27.13,1.29,1.29,0,0,0-.21.19.46.46,0,0,0-.12.23A.86.86,0,0,0,471.82,442.2Zm1.61-3.15a2.22,2.22,0,0,0,.62-.08,1,1,0,0,0,.43-.24,1.07,1.07,0,0,0,.26-.44,2.38,2.38,0,0,0,.08-.64,1.7,1.7,0,0,0-.09-.57,1,1,0,0,0-.26-.4,1.27,1.27,0,0,0-.42-.25,1.94,1.94,0,0,0-.56-.08,1.89,1.89,0,0,0-.56.08,1.22,1.22,0,0,0-.44.26,1.32,1.32,0,0,0-.27.43,1.8,1.8,0,0,0-.09.6,1.87,1.87,0,0,0,.1.62.92.92,0,0,0,.27.41,1.18,1.18,0,0,0,.41.23A1.68,1.68,0,0,0,473.43,439.05Z" style="fill:#4d4d4d"/><path d="M477.39,438.62a4.06,4.06,0,0,1,.19-1.31,2.67,2.67,0,0,1,.52-1,2.13,2.13,0,0,1,.79-.58,2.22,2.22,0,0,1,.95-.2,2.79,2.79,0,0,1,1,.15,1.76,1.76,0,0,1,.7.45,1.83,1.83,0,0,1,.44.74,3.11,3.11,0,0,1,.15,1v.55c0,.06,0,.11,0,.17H478.3a3.08,3.08,0,0,0,.14,1,1.66,1.66,0,0,0,.39.66,1.49,1.49,0,0,0,.6.39,2.06,2.06,0,0,0,.76.13,3.64,3.64,0,0,0,.48,0c.16,0,.3,0,.45-.06a3.45,3.45,0,0,0,.43-.12,3.89,3.89,0,0,0,.44-.16v.82l-.46.18-.44.11a3.31,3.31,0,0,1-.47.07,4.33,4.33,0,0,1-.53,0,3.33,3.33,0,0,1-1.12-.18,2.31,2.31,0,0,1-.85-.55,2.28,2.28,0,0,1-.54-.94A4.1,4.1,0,0,1,477.39,438.62Zm.95-.71h2.76a2.4,2.4,0,0,0-.09-.69,1.14,1.14,0,0,0-.25-.49,1,1,0,0,0-.41-.3,1.64,1.64,0,0,0-.56-.09,1.16,1.16,0,0,0-.52.11,1.27,1.27,0,0,0-.43.31,1.75,1.75,0,0,0-.33.49A2.66,2.66,0,0,0,478.34,437.91Z" style="fill:#4d4d4d"/><path d="M484.71,433.16v8.38h-.91v-8.31Z" style="fill:#4d4d4d"/><path d="M491.81,438.54a3.71,3.71,0,0,1-.21,1.29,2.74,2.74,0,0,1-.6,1,2.4,2.4,0,0,1-.87.62,2.66,2.66,0,0,1-1.05.21,3,3,0,0,1-1.06-.18,2.13,2.13,0,0,1-.81-.57,2.47,2.47,0,0,1-.52-.93,4.21,4.21,0,0,1-.18-1.28,3.62,3.62,0,0,1,.22-1.3,2.87,2.87,0,0,1,.59-1,2.55,2.55,0,0,1,1.91-.83,2.8,2.8,0,0,1,1.07.19,2.35,2.35,0,0,1,.82.56,2.6,2.6,0,0,1,.51.93A4.28,4.28,0,0,1,491.81,438.54Zm-.94,0a3.5,3.5,0,0,0-.12-1,1.85,1.85,0,0,0-.33-.69,1.37,1.37,0,0,0-.54-.42,1.9,1.9,0,0,0-.73-.14,1.51,1.51,0,0,0-.68.15,1.45,1.45,0,0,0-.54.45,2,2,0,0,0-.35.72,3.48,3.48,0,0,0-.12.95,4,4,0,0,0,.11,1,1.86,1.86,0,0,0,.34.69,1.37,1.37,0,0,0,.54.42,1.81,1.81,0,0,0,.72.14,1.53,1.53,0,0,0,1.23-.61,2.2,2.2,0,0,0,.35-.72A3.4,3.4,0,0,0,490.87,438.58Z" style="fill:#4d4d4d"/><path d="M471.25,448.24a2.1,2.1,0,1,1,2.1-2.1A2.11,2.11,0,0,1,471.25,448.24Zm0-3.7a1.6,1.6,0,1,0,1.6,1.6A1.6,1.6,0,0,0,471.25,444.54Z" style="fill:#8b8f9e"/><path d="M498.51,486.2v-7.88h3.88v.84h-2.94v2.56h2.66v.84h-2.66v2.8h3v.84Z" style="fill:#4d4d4d"/><path d="M508,486.2v-3.86a1.6,1.6,0,0,0-.08-.51,1.14,1.14,0,0,0-.25-.39,1.17,1.17,0,0,0-.42-.25,1.6,1.6,0,0,0-.56-.09h-.37c-.11,0-.22,0-.33.06a1.89,1.89,0,0,0-.34.09,2.4,2.4,0,0,0-.36.14v4.8h-.91v-5.84l.87-.07v.4a3,3,0,0,1,.4-.2,2.84,2.84,0,0,1,.38-.13,2.24,2.24,0,0,1,.39-.08,3,3,0,0,1,.44,0,2.67,2.67,0,0,1,.88.13,1.83,1.83,0,0,1,.65.38,1.68,1.68,0,0,1,.39.63,2.45,2.45,0,0,1,.13.85v3.95Z" style="fill:#4d4d4d"/><path d="M510.54,486.08v-.83l.41.1.41.07.43,0h.44a2.4,2.4,0,0,0,.56-.06,1.66,1.66,0,0,0,.4-.18.72.72,0,0,0,.34-.64.81.81,0,0,0-.06-.31.56.56,0,0,0-.17-.24,1.12,1.12,0,0,0-.3-.2,3,3,0,0,0-.46-.17l-.68-.2a2.35,2.35,0,0,1-.53-.22,1.27,1.27,0,0,1-.39-.33,1.1,1.1,0,0,1-.24-.42,1.51,1.51,0,0,1-.09-.53,1.53,1.53,0,0,1,.15-.67,1.75,1.75,0,0,1,.43-.55,2.31,2.31,0,0,1,.68-.36,3,3,0,0,1,.87-.12h.39c.12,0,.24,0,.36,0l.34,0a1.65,1.65,0,0,1,.32.06l-.09.79-.34-.06-.33,0h-.69a2,2,0,0,0-.52.06,1.21,1.21,0,0,0-.38.17.71.71,0,0,0-.23.26.72.72,0,0,0-.08.32.94.94,0,0,0,.05.3.62.62,0,0,0,.15.22,1,1,0,0,0,.25.17,1.78,1.78,0,0,0,.37.14l.69.18a4,4,0,0,1,.62.24,2.2,2.2,0,0,1,.44.33,1.17,1.17,0,0,1,.26.42,1.44,1.44,0,0,1,.09.51,1.73,1.73,0,0,1-.17.76,1.76,1.76,0,0,1-.45.6,2,2,0,0,1-.71.39,2.83,2.83,0,0,1-.9.14h-.47l-.41,0-.38-.06Z" style="fill:#4d4d4d"/><path d="M519.7,480.4l-.11.83-.32-.07-.27-.05-.27,0h-.29a1.57,1.57,0,0,0-.68.15,1.5,1.5,0,0,0-.56.42,2.23,2.23,0,0,0-.38.68,2.84,2.84,0,0,0-.13.9,3.26,3.26,0,0,0,.13,1,1.92,1.92,0,0,0,.39.69,1.39,1.39,0,0,0,.57.39,1.88,1.88,0,0,0,.72.13h.32l.31,0a2.47,2.47,0,0,0,.29-.06l.29-.07v.83l-.31.08-.3.05-.33,0h-.38a3,3,0,0,1-1.07-.18,2,2,0,0,1-.83-.54,2.49,2.49,0,0,1-.55-.94,3.9,3.9,0,0,1-.2-1.34A3.38,3.38,0,0,1,516,482a2.9,2.9,0,0,1,.6-1,2.35,2.35,0,0,1,.87-.6,2.78,2.78,0,0,1,1-.2h.33l.3,0,.29.05Z" style="fill:#4d4d4d"/><path d="M524.86,486.2v-3.86a1.36,1.36,0,0,0-.09-.51,1,1,0,0,0-.25-.39,1.13,1.13,0,0,0-.41-.25,1.64,1.64,0,0,0-.56-.09h-.38a2.79,2.79,0,0,0-.33.06l-.33.09a1.78,1.78,0,0,0-.36.14v4.8h-.92v-8.32l.92-.07v2.85a3.39,3.39,0,0,1,.39-.18,2.32,2.32,0,0,1,.37-.13l.38-.07a3,3,0,0,1,.43,0,2.61,2.61,0,0,1,.87.13,1.67,1.67,0,0,1,.65.38,1.58,1.58,0,0,1,.4.63,2.45,2.45,0,0,1,.13.85v3.95Z" style="fill:#4d4d4d"/><path d="M527.49,483.27a4.37,4.37,0,0,1,.18-1.31,2.78,2.78,0,0,1,.53-1,2.1,2.1,0,0,1,.78-.58,2.39,2.39,0,0,1,1-.2,2.73,2.73,0,0,1,.94.15,1.87,1.87,0,0,1,.71.45,2,2,0,0,1,.44.74,3.11,3.11,0,0,1,.15,1v.37a1.09,1.09,0,0,1,0,.18.88.88,0,0,1,0,.17H528.4a2.78,2.78,0,0,0,.14,1,1.66,1.66,0,0,0,.39.66,1.45,1.45,0,0,0,.59.39,2.11,2.11,0,0,0,.77.13,3.64,3.64,0,0,0,.48,0,3.11,3.11,0,0,0,.44-.06,3.6,3.6,0,0,0,.44-.12,3.75,3.75,0,0,0,.43-.16v.82a3.35,3.35,0,0,1-.46.18l-.43.11a3.54,3.54,0,0,1-.47.07,4.63,4.63,0,0,1-.54,0,3.23,3.23,0,0,1-1.11-.18,2.16,2.16,0,0,1-.86-.55,2.48,2.48,0,0,1-.54-.93A4.48,4.48,0,0,1,527.49,483.27Zm.94-.71h2.76a2.35,2.35,0,0,0-.08-.68,1.38,1.38,0,0,0-.25-.5,1.08,1.08,0,0,0-.42-.3,1.6,1.6,0,0,0-.56-.09,1.12,1.12,0,0,0-.51.11,1.31,1.31,0,0,0-.44.31,1.48,1.48,0,0,0-.32.5A2.14,2.14,0,0,0,528.43,482.56Z" style="fill:#4d4d4d"/><path d="M538.39,477.81v8.39h-.89v-.39a2.07,2.07,0,0,1-.32.19,2.39,2.39,0,0,1-.37.15,2.59,2.59,0,0,1-.4.09,2.73,2.73,0,0,1-.41,0,2.38,2.38,0,0,1-1-.19,2.14,2.14,0,0,1-.79-.54,2.62,2.62,0,0,1-.51-.9,3.87,3.87,0,0,1-.19-1.23,4,4,0,0,1,.22-1.34,2.76,2.76,0,0,1,.61-1,2.59,2.59,0,0,1,.94-.61,3.22,3.22,0,0,1,1.18-.21h.3a2.06,2.06,0,0,1,.26,0l.23,0a.65.65,0,0,1,.21.06v-2.51Zm-2,3.25a2,2,0,0,0-.79.15,1.71,1.71,0,0,0-.62.44,2.08,2.08,0,0,0-.39.72,3.46,3.46,0,0,0-.13.95,2.92,2.92,0,0,0,.13.92,1.8,1.8,0,0,0,.35.66,1.37,1.37,0,0,0,.55.4,1.94,1.94,0,0,0,.7.13,2,2,0,0,0,.36,0,1.65,1.65,0,0,0,.32-.06,1.78,1.78,0,0,0,.29-.12,2.19,2.19,0,0,0,.3-.16v-3.91l-.27,0-.26,0h-.54Z" style="fill:#4d4d4d"/><path d="M540.19,483.27a4.06,4.06,0,0,1,.19-1.31,2.76,2.76,0,0,1,.52-1,2.22,2.22,0,0,1,.79-.58,2.39,2.39,0,0,1,1-.2,2.77,2.77,0,0,1,.94.15,1.76,1.76,0,0,1,.7.45,1.9,1.9,0,0,1,.44.74,3.11,3.11,0,0,1,.15,1v.55a.88.88,0,0,1,0,.17h-3.75a3.05,3.05,0,0,0,.13,1,1.92,1.92,0,0,0,.39.66,1.49,1.49,0,0,0,.6.39,2.07,2.07,0,0,0,.77.13,3.87,3.87,0,0,0,.48,0,3.11,3.11,0,0,0,.44-.06,3.6,3.6,0,0,0,.44-.12c.14,0,.28-.1.43-.16v.82a3.35,3.35,0,0,1-.46.18l-.44.11a3.31,3.31,0,0,1-.47.07,4.33,4.33,0,0,1-.53,0,3.23,3.23,0,0,1-1.11-.18,2.16,2.16,0,0,1-.86-.55,2.24,2.24,0,0,1-.54-.93A4.17,4.17,0,0,1,540.19,483.27Zm.95-.71h2.76a2.76,2.76,0,0,0-.08-.68,1.25,1.25,0,0,0-.26-.5,1.12,1.12,0,0,0-.41-.3,1.6,1.6,0,0,0-.56-.09,1.12,1.12,0,0,0-.51.11,1.31,1.31,0,0,0-.44.31,1.67,1.67,0,0,0-.33.5A2.47,2.47,0,0,0,541.14,482.56Z" style="fill:#4d4d4d"/><path d="M521.48,492.89a2.1,2.1,0,1,1,2.1-2.1A2.1,2.1,0,0,1,521.48,492.89Zm0-3.7a1.6,1.6,0,1,0,1.6,1.6A1.6,1.6,0,0,0,521.48,489.19Z" style="fill:#8b8f9e"/><path d="M542.63,373.51h-2.14v-7.88h2.08a5.34,5.34,0,0,1,1.67.24,3.28,3.28,0,0,1,1.24.7,3,3,0,0,1,.77,1.17,4.5,4.5,0,0,1,.26,1.61,5.5,5.5,0,0,1-.27,1.8,3.52,3.52,0,0,1-.79,1.3,3.14,3.14,0,0,1-1.22.79A4.47,4.47,0,0,1,542.63,373.51Zm-1.19-7.07v6.26h1.21a3.41,3.41,0,0,0,1.19-.2,2.3,2.3,0,0,0,.9-.6,2.69,2.69,0,0,0,.59-1,5,5,0,0,0,.2-1.47,3.9,3.9,0,0,0-.2-1.3,2.45,2.45,0,0,0-.6-.94,2.43,2.43,0,0,0-1-.55,4.19,4.19,0,0,0-1.27-.18Z" style="fill:#4d4d4d"/><path d="M548,370.58a4.06,4.06,0,0,1,.19-1.31,2.67,2.67,0,0,1,.52-1,2.22,2.22,0,0,1,.79-.58,2.39,2.39,0,0,1,1-.2,2.77,2.77,0,0,1,.94.15,1.76,1.76,0,0,1,.7.45,1.83,1.83,0,0,1,.44.74,3.11,3.11,0,0,1,.15,1v.55c0,.06,0,.11,0,.17h-3.76a3.08,3.08,0,0,0,.14,1,1.66,1.66,0,0,0,.39.66,1.49,1.49,0,0,0,.6.39,2.06,2.06,0,0,0,.76.13,3.91,3.91,0,0,0,.49,0,3.11,3.11,0,0,0,.44-.06,3,3,0,0,0,.43-.12,3.89,3.89,0,0,0,.44-.16v.82a3.35,3.35,0,0,1-.46.18l-.44.11a3.31,3.31,0,0,1-.47.07,4.33,4.33,0,0,1-.53,0,3.33,3.33,0,0,1-1.12-.18,2.19,2.19,0,0,1-.85-.55,2.28,2.28,0,0,1-.54-.94A4.1,4.1,0,0,1,548,370.58Zm1-.71h2.76a2.33,2.33,0,0,0-.09-.68,1.13,1.13,0,0,0-.66-.8,1.64,1.64,0,0,0-.56-.09,1.3,1.3,0,0,0-.52.1,1.46,1.46,0,0,0-.43.32,1.75,1.75,0,0,0-.33.49A2.66,2.66,0,0,0,549,369.87Z" style="fill:#4d4d4d"/><path d="M558,373.51v-3.86a1.6,1.6,0,0,0-.08-.51,1.14,1.14,0,0,0-.25-.39,1.36,1.36,0,0,0-.42-.26,1.88,1.88,0,0,0-.56-.09l-.37,0c-.11,0-.22,0-.33.06a2.14,2.14,0,0,0-.34.09l-.36.13v4.81h-.91v-5.84l.88-.07v.4a2.4,2.4,0,0,1,.39-.2,3.43,3.43,0,0,1,.38-.13,2.24,2.24,0,0,1,.39-.08,3,3,0,0,1,.44,0,2.67,2.67,0,0,1,.88.13,1.62,1.62,0,0,1,.65.38,1.72,1.72,0,0,1,.39.62,2.54,2.54,0,0,1,.14.86v3.95Z" style="fill:#4d4d4d"/><path d="M560.66,370.58a4.06,4.06,0,0,1,.19-1.31,2.67,2.67,0,0,1,.52-1,2.22,2.22,0,0,1,.79-.58,2.39,2.39,0,0,1,1-.2,2.77,2.77,0,0,1,.94.15,1.76,1.76,0,0,1,.7.45,1.83,1.83,0,0,1,.44.74,3.11,3.11,0,0,1,.15,1v.55c0,.06,0,.11,0,.17h-3.76a3.08,3.08,0,0,0,.14,1,1.66,1.66,0,0,0,.39.66,1.49,1.49,0,0,0,.6.39,2.06,2.06,0,0,0,.76.13,3.91,3.91,0,0,0,.49,0,3.11,3.11,0,0,0,.44-.06,3,3,0,0,0,.43-.12,3.89,3.89,0,0,0,.44-.16v.82a3.93,3.93,0,0,1-.46.18l-.44.11a3.31,3.31,0,0,1-.47.07,4.33,4.33,0,0,1-.53,0,3.33,3.33,0,0,1-1.12-.18,2.12,2.12,0,0,1-.85-.55,2.28,2.28,0,0,1-.54-.94A4.1,4.1,0,0,1,560.66,370.58Zm1-.71h2.76a2.76,2.76,0,0,0-.08-.68,1.39,1.39,0,0,0-.26-.5,1.12,1.12,0,0,0-.41-.3,1.6,1.6,0,0,0-.56-.09,1.34,1.34,0,0,0-.52.1,1.46,1.46,0,0,0-.43.32,1.56,1.56,0,0,0-.33.49A2.66,2.66,0,0,0,561.61,369.87Z" style="fill:#4d4d4d"/><path d="M568,370.7v2.81h-.91v-8.32l.91-.07v4.77h.53l2-2.25h1.11l-2.28,2.52,2.49,3.35h-1.14l-2.07-2.81Z" style="fill:#4d4d4d"/><path d="M577,369.45v4.06h-.86v-.41a3.32,3.32,0,0,1-.41.22,3.25,3.25,0,0,1-.4.15,2,2,0,0,1-.43.08,3.73,3.73,0,0,1-.5,0,2.19,2.19,0,0,1-.75-.12,1.64,1.64,0,0,1-.58-.32,1.32,1.32,0,0,1-.36-.51,1.47,1.47,0,0,1-.13-.64,1.51,1.51,0,0,1,.17-.7,1.65,1.65,0,0,1,.5-.56,2.49,2.49,0,0,1,.82-.37,4.52,4.52,0,0,1,1.16-.13h.89v-.63a1.62,1.62,0,0,0-.08-.52,1,1,0,0,0-.25-.38,1.06,1.06,0,0,0-.42-.23,2.1,2.1,0,0,0-.59-.08l-.42,0-.42.07-.43.12a4.13,4.13,0,0,0-.45.17l-.19-.77.52-.21a3,3,0,0,1,.49-.14,3.85,3.85,0,0,1,.49-.08,4.7,4.7,0,0,1,.54,0,3,3,0,0,1,.89.12,1.92,1.92,0,0,1,.66.37,1.62,1.62,0,0,1,.4.59A2.24,2.24,0,0,1,577,369.45Zm-3.47,2.46a.86.86,0,0,0,.07.36.74.74,0,0,0,.19.27.84.84,0,0,0,.34.17,1.56,1.56,0,0,0,.46.06,3,3,0,0,0,.42,0,3,3,0,0,0,.75-.21l.36-.18V371h-.92a4.31,4.31,0,0,0-.77.07,1.57,1.57,0,0,0-.52.21.76.76,0,0,0-.29.3A.78.78,0,0,0,573.55,371.91Z" style="fill:#4d4d4d"/><path d="M586.24,373.51v-3.85a1.72,1.72,0,0,0-.07-.52,1,1,0,0,0-.24-.39,1.38,1.38,0,0,0-.4-.26,1.88,1.88,0,0,0-.56-.09l-.37,0a3,3,0,0,0-.32.06,1.92,1.92,0,0,0-.32.09l-.38.13v4.81h-.91v-3.87a2.06,2.06,0,0,0-.07-.53.94.94,0,0,0-.23-.39,1,1,0,0,0-.4-.24,1.91,1.91,0,0,0-.57-.08l-.39,0-.33.05a1.58,1.58,0,0,0-.31.09l-.37.14v4.81h-.91v-5.84l.88-.07v.4l.4-.21a2.72,2.72,0,0,1,.37-.13l.39-.07a2.82,2.82,0,0,1,.42,0,4.17,4.17,0,0,1,.52,0,2.07,2.07,0,0,1,.46.11,2.18,2.18,0,0,1,.37.2,1.81,1.81,0,0,1,.3.25,5.14,5.14,0,0,1,.5-.28,3.66,3.66,0,0,1,.46-.18,3.41,3.41,0,0,1,.46-.1,4.12,4.12,0,0,1,.51,0,2.57,2.57,0,0,1,.87.13,1.52,1.52,0,0,1,.64.38,1.72,1.72,0,0,1,.39.62,2.83,2.83,0,0,1,.13.86v3.95Z" style="fill:#4d4d4d"/><path d="M589.23,375.8v-8.13l.88-.07V368l.36-.17a3.06,3.06,0,0,1,.78-.21,3.17,3.17,0,0,1,.44,0,2.64,2.64,0,0,1,1,.17,2,2,0,0,1,.76.53,2.47,2.47,0,0,1,.48.91,4,4,0,0,1,.17,1.27,3.64,3.64,0,0,1-.22,1.31,2.72,2.72,0,0,1-1.62,1.61,3.6,3.6,0,0,1-1.25.21h-.44a1.2,1.2,0,0,1-.2,0l-.22,0v2.31Zm1.9-3a2.07,2.07,0,0,0,.8-.14,1.76,1.76,0,0,0,.64-.43,2,2,0,0,0,.43-.71,3.15,3.15,0,0,0,.14-1,3.43,3.43,0,0,0-.11-1,1.73,1.73,0,0,0-.35-.66,1.22,1.22,0,0,0-.54-.37,2,2,0,0,0-.72-.13l-.33,0c-.1,0-.21,0-.31.06a1.81,1.81,0,0,0-.31.09l-.33.13v4l.26,0,.24,0,.24,0Z" style="fill:#4d4d4d"/><path d="M567.12,362.41a2.1,2.1,0,1,1,2.1-2.09A2.1,2.1,0,0,1,567.12,362.41Zm0-3.69a1.6,1.6,0,1,0,1.6,1.6A1.6,1.6,0,0,0,567.12,358.72Z" style="fill:#8b8f9e"/><path d="M154.36,265.14v-1.4H160v1.34l-3.93,5.73v.05h4v1.41h-5.9v-1.34l3.92-5.73v-.06Z" style="fill:#4d4d4d"/><path d="M170.31,265.82l-1.66,6.45h-2.16l-.94-3.52h0l-1.09,3.52h-2.07l-1.63-6.45h1.83l1,5.2h.07l1.3-4-.33-1.2h1.59l1.42,5.2h.06l1-5.2Z" style="fill:#4d4d4d"/><path d="M177.46,268.93a3.32,3.32,0,0,1-1,2.52,3.19,3.19,0,0,1-2.27.94,3.09,3.09,0,0,1-2.2-.82,3.12,3.12,0,0,1-.87-2.4,3.35,3.35,0,0,1,1-2.52,3.17,3.17,0,0,1,2.27-.95,3.11,3.11,0,0,1,2.21.82A3.19,3.19,0,0,1,177.46,268.93Zm-1.63,0a2,2,0,0,0-.42-1.4,1.45,1.45,0,0,0-1.11-.46,1.41,1.41,0,0,0-1.09.51,2.26,2.26,0,0,0-.44,1.5,2,2,0,0,0,.42,1.4,1.42,1.42,0,0,0,1.11.46,1.38,1.38,0,0,0,1.09-.52A2.21,2.21,0,0,0,175.83,269Z" style="fill:#4d4d4d"/><path d="M180.72,263.18v9.09h-1.6v-9Z" style="fill:#4d4d4d"/><path d="M184.35,263.18v9.09h-1.6v-9Z" style="fill:#4d4d4d"/><path d="M186,269.06a3.36,3.36,0,0,1,.87-2.5,2.86,2.86,0,0,1,2.08-.86,2.56,2.56,0,0,1,1.89.71,2.58,2.58,0,0,1,.7,1.93c0,.22,0,.43,0,.65s0,.38,0,.52h-3.95a1.72,1.72,0,0,0,.62,1.13,2.13,2.13,0,0,0,1.34.37,6.52,6.52,0,0,0,1-.07,7.19,7.19,0,0,0,.89-.22V272a7.19,7.19,0,0,1-1,.24,5.49,5.49,0,0,1-1.09.09,3.41,3.41,0,0,1-2.4-.82A3.19,3.19,0,0,1,186,269.06Zm1.54-.69H190a1.63,1.63,0,0,0-.32-1,1,1,0,0,0-.85-.4,1.11,1.11,0,0,0-.85.37A1.79,1.79,0,0,0,187.55,268.37Z" style="fill:#4d4d4d"/><path d="M173,279.15a2.1,2.1,0,1,1,2.1-2.1A2.1,2.1,0,0,1,173,279.15Zm0-3.69a1.6,1.6,0,1,0,1.6,1.59A1.6,1.6,0,0,0,173,275.46Z" style="fill:#8b8f9e"/></svg>