<svg xmlns="http://www.w3.org/2000/svg" viewBox="0 0 621 734"><path d="M198.17,529l6.4,2.55,2.17-2.47,7.49-3,2.46-2.34-4.55-2.8-1.68-3.64,1-3.64,5.43-2.67,8-.09,4.6-2.59,4.39-6.52.71-5.23,1.88-1.5,3.93,1.21,4.3-1.09,7.11,1.72,1.51-2.89,1.21-9.11,9.15-17,3.14,1.46-.42-6.73L275,450.44l-.55-2.67,1.93-.42,19.1-36.41h0l9.07,5.89,8.49,1.84,3.55-.88,4.72-4.18,5.81-11.24,2.85-3.51,5-1.3,5.23,3.09,7.73,8,7.36,4,8.4,2.26,10.7,1.38,10.25,6.85,5.64.34,8.07-4.1,6.56-8.44,5.23-3.64,5.6-.88,9.61,2.05,6.31-.42,20.78-7.94,8.7-7.36,4.34-2.38,18.06,3.55,11.67-1.29,3.8,1,9,5.48,4.35,4,21.36,7.9,4.76,7.61,4.77,3.76,5.14,2.21,17.14,4.39,11.2,7.53,6.65-5.9,3.81,2.14-.3-5.48,3.93-1,0-6.4-2.88-7-.13-2.88,1.72-2.68.71-4.51-6.69-7.91-1.46-8.77-2.85-4.44-4.13-.83-5.31-4.93L567.13,373l-.59-6.85-1.12-1.84-2-2.26-1.59,1.71-6.48-7.06,3.64-.09.87-18.76-12.58-4.73.88-7.4-5.06-2.17,2.34-6.31L547,301.45l-.71-1.46,1.92-7.94-1.08-8.4-1.84-.09L543.13,281l-.54-7.73-2.51-1.72,1.26-3-1.13-6.14-4.47.67.33,2-1.42.29-1.72-2L527,264.88l.46,2.76,2,.66,0,1.51,1.67,1.38-1.84,4.3,3.55,1-.33,2.8-.46,2.13-5.35-1.59-2.13,3.76,4.39,1.8-6.36,6.77L517.17,291l-5.85.42-1.71,5.81-7.78.08-5.6,2-11.37-6.77-.42-2.05-2.63-.63-1.25-1.42,7.14-9.11,9.53-6-.87-11.16,5.77-5.61.33-2-4.64-3,13.67,1.42v-1.51l-2.76-1.5.13-3.68-3.22-1.05-3.05-3.76,1.5.29.92-6,7.23-1,3.22-6.23-8.9-4.43-.46-1.59,1.25-6.27-6.81-.21-5.35-2.34.92-7.23-1.89-.63.42-2.26-4.3-1.84-.34-1.63-25.25-3.42-10.53-3.77.54-3.88-1.08-6.44-2.18-2.18,2.84-2.25,5,1.5,2.72-2.26,1.71-8.27-.21-6.36-27.05-22.07,7.61-32.73h0l-12.83-11L397.66,63.55h0L377.89,77.68l-19.32-3.43-6.27,5.69-3.93-1.72L337.8,100l-14.47,12.92-.42,24.58-1.63,8.61-5.22,12.29-13,24.21H291.35l-33.61-2.47-1.17-4.72,7.49-3.89,4.76-4.31,3.51-6.22L264,144.4,256,140l-2,4-28.38.75-8.45-2.38-13.42-6.56.05-6.15-2.72-3,13.84-6.27-9.12-8.94.17-3.77-2.55-8.19-3.51,3.14-2.18-.76-1.08-2.25.21-4.64-2.3-2.39-.09-4-3-6.35h4.73l2.09-2.93,5.05-2,5.06-.12.75-4.73,5.36-2.8,1.92-.46.92.88v2.38l2.17,1.09-.83-5.1-2.35-3.22L213.89,65l-3.18,2.26-1.42-1.5-5.18,6.14-6.27-5.27-3,.84-1.88,5-2.09-1.84-1.67,4.64-2.43.63-.87,2.8H183l-5.69-13.33-4.09-1.76-6.86-.21-3.38,1-5.31,3.81L154,74.25l-2,1L141.2,73.58l-2.51.76-5.27-2.89-5.06,2.13.88,9.41-3.3,1.17-2.18,1.92L123,89.22l-3.47.88L117.41,94l0,3.1-2.84,2.38L97,98.62l-2.26,1-8.4.41-2.72,1.09-5.1,4.18-1.63,1.63-3.18,6.69L63.15,122l-12.42,5.73-3.3-.67-7,.67.25,7.11,4.68,7.73-.13,10.58,1.09,5.68,4.47-.21L52.11,162,71,182.82l10,3.55,22.15,15.38-.16,1.51L89.4,208.53l2.47,16.88-3,1.43L88.56,228l-4.76.75L70.88,227l-3.68-2.92-1.54-6.31-3.85,2L55.62,221l-5.31,2.26-3.76,5.48-1.34,8.61L37.1,241,36,245.4l22.61,16.26-.37,9.74,1.13,16.34L60.56,293l3.72,4.47L64,303.21l6.52-1.63,20.56-.21-3.34,6.86-13.84,5L63,321.56l-8.53,13.3-4.76,3.51,1.13,8.06-5.81,4.18v3.85l1.84,6,7.4-.75,4.05-2.89,11,.42L73.56,355,79,365.41l-.59,1.38-26.5,6.57,5.85,7.81,5.06,1.72L67,388.66l-2.59,1.17,6.9,9.74,7.78,8.9,5,3.09,1.67,5.81,4.6,3.73,5.39,21.11,6.86-2.34,6.14-.55L121.63,436l5-6.31,2.44,2.55L132.91,452l7-3.47L144,464.89l3.83,5.56,8.34,4.17-.7,12.17,14.6-7,.69,4.86v6.95l2.44,10.43-2.78,5.21v4.87l20.5-9-2.09,4.52-.69,10.08,3.48,5.56-.7,4.51Z" style="fill:#e5e5e5"/><path d="M69.67,140.4h-.06l-.29,6.93h-.9l.37-7.88h1.44l2.1,5.21h0l2.06-5.21h1.39l.39,7.88h-.95L75,140.4H74.9l-2.14,5.31h-.93Z" style="fill:#4d4d4d"/><path d="M78.34,139.54a.7.7,0,0,1,0-.25.32.32,0,0,1,.12-.18.57.57,0,0,1,.18-.12.74.74,0,0,1,.48,0,.57.57,0,0,1,.18.12.41.41,0,0,1,.12.18.87.87,0,0,1,0,.25.86.86,0,0,1,0,.24.57.57,0,0,1-.12.18.54.54,0,0,1-.18.11.74.74,0,0,1-.48,0,.54.54,0,0,1-.18-.11.36.36,0,0,1-.12-.18A.6.6,0,0,1,78.34,139.54Zm1,1.88v5.91h-.91v-5.84Z" style="fill:#4d4d4d"/><path d="M82.46,141.42v6.24a2.26,2.26,0,0,1-.13.81,1.54,1.54,0,0,1-.36.59,1.81,1.81,0,0,1-.54.4,2.87,2.87,0,0,1-.7.22l-.12-.77a2,2,0,0,0,.42-.18,1.41,1.41,0,0,0,.29-.25.82.82,0,0,0,.17-.35,1.56,1.56,0,0,0,.06-.46v-6.18Zm-1-1.88a.69.69,0,0,1,0-.25.47.47,0,0,1,.12-.18.57.57,0,0,1,.18-.12.67.67,0,0,1,.24,0,.61.61,0,0,1,.24,0,.55.55,0,0,1,.3.3.62.62,0,0,1,0,.25.61.61,0,0,1,0,.24.57.57,0,0,1-.12.18.4.4,0,0,1-.18.11.61.61,0,0,1-.24,0,.67.67,0,0,1-.24,0,.54.54,0,0,1-.18-.11.57.57,0,0,1-.12-.18A.61.61,0,0,1,81.42,139.54Z" style="fill:#4d4d4d"/><path d="M89.12,138.94v8.39h-.89v-.39a1.77,1.77,0,0,1-.33.19,2.28,2.28,0,0,1-.36.15,2.59,2.59,0,0,1-.4.09,2.83,2.83,0,0,1-.41,0,2.46,2.46,0,0,1-1-.19,2.11,2.11,0,0,1-.78-.54,2.46,2.46,0,0,1-.51-.9,3.61,3.61,0,0,1-.19-1.23,3.81,3.81,0,0,1,.22-1.34,2.63,2.63,0,0,1,.61-1,2.55,2.55,0,0,1,.93-.61,3.27,3.27,0,0,1,1.19-.21h.3a1.9,1.9,0,0,1,.25,0l.24,0a.83.83,0,0,1,.21.06V139Zm-2,3.25a2,2,0,0,0-.8.15,1.76,1.76,0,0,0-.61.44,2.08,2.08,0,0,0-.39.72,3.12,3.12,0,0,0-.13.95,3.26,3.26,0,0,0,.12.92,2,2,0,0,0,.36.66,1.41,1.41,0,0,0,.54.4,2,2,0,0,0,.71.13,2.19,2.19,0,0,0,.36,0,1.55,1.55,0,0,0,.31-.06,1.88,1.88,0,0,0,.3-.12l.3-.16v-3.9l-.27,0-.26,0h-.54Z" style="fill:#4d4d4d"/><path d="M94.11,141.47l-.11.9-.18,0-.16,0-.15,0h-.18a1.35,1.35,0,0,0-.28,0,1,1,0,0,0-.27.11l-.28.18a3.85,3.85,0,0,0-.31.29v4.44h-.91v-5.84l.9-.07v.69a3.4,3.4,0,0,1,.32-.33,1.9,1.9,0,0,1,.31-.23,1.66,1.66,0,0,1,.31-.12,1.06,1.06,0,0,1,.31,0h.34l.16,0Z" style="fill:#4d4d4d"/><path d="M95.13,144.4a4.06,4.06,0,0,1,.19-1.31,2.76,2.76,0,0,1,.52-1,2.22,2.22,0,0,1,.79-.58,2.39,2.39,0,0,1,1-.2,2.77,2.77,0,0,1,.94.15,1.76,1.76,0,0,1,.7.45,1.9,1.9,0,0,1,.44.74,3.11,3.11,0,0,1,.15,1v.55c0,.06,0,.12,0,.17H96a3,3,0,0,0,.14,1,1.66,1.66,0,0,0,.39.66,1.49,1.49,0,0,0,.6.39,2.06,2.06,0,0,0,.76.13,3.91,3.91,0,0,0,.49,0,3.11,3.11,0,0,0,.44-.06,3,3,0,0,0,.43-.12,3.89,3.89,0,0,0,.44-.16V147a3.93,3.93,0,0,1-.46.18l-.44.11a3.31,3.31,0,0,1-.47.07,4.33,4.33,0,0,1-.53,0,3.33,3.33,0,0,1-1.12-.18,2.19,2.19,0,0,1-.85-.55,2.24,2.24,0,0,1-.54-.93A4.17,4.17,0,0,1,95.13,144.4Zm1-.71h2.76a2.76,2.76,0,0,0-.08-.68,1.25,1.25,0,0,0-.26-.5,1.12,1.12,0,0,0-.41-.3,1.6,1.6,0,0,0-.56-.09,1.12,1.12,0,0,0-.51.11,1.31,1.31,0,0,0-.44.31,1.67,1.67,0,0,0-.33.5A2.47,2.47,0,0,0,96.08,143.69Z" style="fill:#4d4d4d"/><path d="M105.14,141.53l-.11.83-.32-.07-.27,0-.27,0h-.29a1.57,1.57,0,0,0-.68.15,1.5,1.5,0,0,0-.56.42,2,2,0,0,0-.37.68,2.58,2.58,0,0,0-.14.9,3,3,0,0,0,.14,1,1.9,1.9,0,0,0,.38.69,1.42,1.42,0,0,0,.58.39,1.83,1.83,0,0,0,.71.13h.32l.31,0a2.47,2.47,0,0,0,.29-.06l.29-.07v.83l-.3.08-.31,0-.33,0h-.38a3,3,0,0,1-1.07-.18,2.06,2.06,0,0,1-.83-.54,2.49,2.49,0,0,1-.55-.94,4.15,4.15,0,0,1-.2-1.34,3.38,3.38,0,0,1,.22-1.27,2.9,2.9,0,0,1,.6-1,2.35,2.35,0,0,1,.87-.6,2.78,2.78,0,0,1,1-.2h.33l.3,0,.29,0Z" style="fill:#4d4d4d"/><path d="M110.3,147.33v-3.86a1.6,1.6,0,0,0-.08-.51,1.16,1.16,0,0,0-.26-.39,1.13,1.13,0,0,0-.41-.25,1.6,1.6,0,0,0-.56-.09h-.38l-.33.06a2,2,0,0,0-.33.09,2.4,2.4,0,0,0-.36.14v4.8h-.91V139l.91-.07v2.85a3.39,3.39,0,0,1,.39-.18,2.72,2.72,0,0,1,.37-.13l.38-.07a3,3,0,0,1,.43,0,2.57,2.57,0,0,1,.87.13,1.67,1.67,0,0,1,.65.38,1.58,1.58,0,0,1,.4.63,2.45,2.45,0,0,1,.13.85v4Z" style="fill:#4d4d4d"/><path d="M112.76,142.19v-.73h.71v-1l.91-.14v1.17h1.53v.73h-1.53v3.32a1.43,1.43,0,0,0,.07.48.75.75,0,0,0,.19.34.84.84,0,0,0,.29.2,1.1,1.1,0,0,0,.37.06h.21l.18,0,.2,0,.21,0v.77l-.28.06-.24,0-.24,0h-.27a1.81,1.81,0,0,1-.63-.1,1.35,1.35,0,0,1-.51-.31,1.47,1.47,0,0,1-.34-.57,2.75,2.75,0,0,1-.12-.86v-3.37Z" style="fill:#4d4d4d"/><path d="M92,154a2.1,2.1,0,1,1,2.1-2.1A2.1,2.1,0,0,1,92,154Zm0-3.7a1.6,1.6,0,1,0,1.6,1.6A1.6,1.6,0,0,0,92,150.32Z" style="fill:#8b8f9e"/><path d="M319.69,266v-.84h4.88V266l-4,6.12v.05h4.06V273h-5.13v-.87l4-6.13v0Z" style="fill:#4d4d4d"/><path d="M326,270.1a4.37,4.37,0,0,1,.18-1.31,2.78,2.78,0,0,1,.53-1,2.13,2.13,0,0,1,.79-.58,2.38,2.38,0,0,1,.95-.2,2.79,2.79,0,0,1,.95.15,1.84,1.84,0,0,1,.7.45,2,2,0,0,1,.44.74,3.11,3.11,0,0,1,.15,1v.37a1.09,1.09,0,0,1,0,.18c0,.06,0,.12,0,.17h-3.76a3,3,0,0,0,.14,1,1.77,1.77,0,0,0,.39.67,1.58,1.58,0,0,0,.6.38,2.06,2.06,0,0,0,.76.13,3.64,3.64,0,0,0,.48,0l.45-.06.43-.11.43-.17v.82a3.83,3.83,0,0,1-.45.18l-.44.11a3.54,3.54,0,0,1-.47.07,4.5,4.5,0,0,1-.54,0,3.27,3.27,0,0,1-1.11-.18,2.12,2.12,0,0,1-.85-.55,2.37,2.37,0,0,1-.55-.93A4.48,4.48,0,0,1,326,270.1Zm.95-.71h2.76a2.33,2.33,0,0,0-.09-.68,1.24,1.24,0,0,0-.25-.5,1.12,1.12,0,0,0-.41-.3,1.64,1.64,0,0,0-.56-.09,1.13,1.13,0,0,0-.52.11,1.42,1.42,0,0,0-.44.31,1.48,1.48,0,0,0-.32.5A2.47,2.47,0,0,0,326.92,269.39Z" style="fill:#4d4d4d"/><path d="M332.25,265.24a.69.69,0,0,1,0-.25.47.47,0,0,1,.12-.18.57.57,0,0,1,.18-.12.64.64,0,0,1,.24,0,.61.61,0,0,1,.24,0,.55.55,0,0,1,.3.3.62.62,0,0,1,0,.25.61.61,0,0,1,0,.24.57.57,0,0,1-.12.18.4.4,0,0,1-.18.11.61.61,0,0,1-.24,0,.64.64,0,0,1-.24,0,.54.54,0,0,1-.18-.11.57.57,0,0,1-.12-.18A.61.61,0,0,1,332.25,265.24Zm1,1.88V273h-.91v-5.84Z" style="fill:#4d4d4d"/><path d="M335,272.91v-.83l.41.1.41.07.43,0h.44a2.26,2.26,0,0,0,.55-.06,1.74,1.74,0,0,0,.41-.18.77.77,0,0,0,.28-.94.53.53,0,0,0-.17-.25,1,1,0,0,0-.31-.2,2.7,2.7,0,0,0-.44-.17l-.69-.2a2.35,2.35,0,0,1-.53-.22,1.27,1.27,0,0,1-.39-.33,1.1,1.1,0,0,1-.24-.42,1.51,1.51,0,0,1-.09-.53,1.53,1.53,0,0,1,.15-.67,1.75,1.75,0,0,1,.43-.55,2.31,2.31,0,0,1,.68-.36,3,3,0,0,1,.87-.12h.39l.36,0,.34,0a1.65,1.65,0,0,1,.32.06l-.09.79-.34-.06-.33,0h-.69a2,2,0,0,0-.52.06,1.21,1.21,0,0,0-.38.17.71.71,0,0,0-.23.26.61.61,0,0,0-.08.32.94.94,0,0,0,.05.3.54.54,0,0,0,.15.22,1.35,1.35,0,0,0,.25.18,2.64,2.64,0,0,0,.37.13l.68.18a3.78,3.78,0,0,1,.63.24,2.2,2.2,0,0,1,.44.33,1.17,1.17,0,0,1,.26.42,1.44,1.44,0,0,1,.08.51,1.73,1.73,0,0,1-.16.76,1.76,1.76,0,0,1-.45.6,2,2,0,0,1-.71.39,2.83,2.83,0,0,1-.9.14h-.47l-.41,0-.38-.06Z" style="fill:#4d4d4d"/><path d="M340,267.89v-.73h.71v-1l.91-.14v1.17h1.53v.73h-1.53v3.32a1.43,1.43,0,0,0,.07.48.75.75,0,0,0,.19.34.84.84,0,0,0,.29.2,1.1,1.1,0,0,0,.37.06h.21l.18,0,.19,0,.21,0V273l-.27.06-.24,0-.24,0h-.27a1.81,1.81,0,0,1-.63-.1,1.31,1.31,0,0,1-.85-.88,2.7,2.7,0,0,1-.12-.86v-3.37Z" style="fill:#4d4d4d"/><path d="M331.38,279.72a2.1,2.1,0,1,1,2.1-2.1A2.1,2.1,0,0,1,331.38,279.72Zm0-3.7a1.6,1.6,0,1,0,1.6,1.6A1.6,1.6,0,0,0,331.38,276Z" style="fill:#8b8f9e"/><path d="M191.23,342.86,188.12,336h-.05v6.89h-.87V335h1.45l3.11,6.89h.06V335h.87v7.87Z" style="fill:#4d4d4d"/><path d="M194.94,335.07a.61.61,0,0,1,0-.24.52.52,0,0,1,.12-.19.4.4,0,0,1,.19-.11.6.6,0,0,1,.24,0,.69.69,0,0,1,.24,0,.42.42,0,0,1,.18.11.78.78,0,0,1,.11.18.66.66,0,0,1,0,.25.61.61,0,0,1,0,.24.78.78,0,0,1-.11.18.57.57,0,0,1-.18.12,1,1,0,0,1-.24,0,.86.86,0,0,1-.24,0,.52.52,0,0,1-.19-.12.57.57,0,0,1-.12-.18A.61.61,0,0,1,194.94,335.07Zm1,1.89v5.9h-.91V337Z" style="fill:#4d4d4d"/><path d="M197.78,339.93a4.1,4.1,0,0,1,.19-1.31,2.76,2.76,0,0,1,.52-1,2.34,2.34,0,0,1,.79-.58,2.39,2.39,0,0,1,1-.2,2.77,2.77,0,0,1,.94.15,1.76,1.76,0,0,1,.7.45,1.9,1.9,0,0,1,.44.74,3.13,3.13,0,0,1,.15,1v.54c0,.06,0,.12,0,.18h-3.76a3,3,0,0,0,.14,1,1.77,1.77,0,0,0,.39.67,1.73,1.73,0,0,0,.6.39,2.29,2.29,0,0,0,.76.12l.49,0,.44-.07a3,3,0,0,0,.43-.11l.44-.17v.83a3.25,3.25,0,0,1-.46.17c-.14,0-.29.08-.44.12l-.47.07-.53,0a3.33,3.33,0,0,1-1.12-.18,2.29,2.29,0,0,1-.85-.54,2.35,2.35,0,0,1-.54-.94A4.17,4.17,0,0,1,197.78,339.93Zm.95-.71h2.76a2.82,2.82,0,0,0-.08-.68,1.25,1.25,0,0,0-.26-.5,1,1,0,0,0-.41-.29,1.4,1.4,0,0,0-.56-.1,1.26,1.26,0,0,0-.51.11,1.47,1.47,0,0,0-.44.31,1.81,1.81,0,0,0-.33.5A2.58,2.58,0,0,0,198.73,339.22Z" style="fill:#4d4d4d"/><path d="M205,337v3.88a1.8,1.8,0,0,0,.08.54,1,1,0,0,0,.25.4,1.22,1.22,0,0,0,.4.24,1.55,1.55,0,0,0,.55.08h.39A2.84,2.84,0,0,0,207,342a1.81,1.81,0,0,0,.31-.09l.37-.14V337l.91-.07v5.9h-.88v-.36a2.81,2.81,0,0,1-.38.2l-.36.13a2.7,2.7,0,0,1-.39.08,3.27,3.27,0,0,1-1.32-.09,1.56,1.56,0,0,1-.63-.39,1.68,1.68,0,0,1-.39-.63,2.47,2.47,0,0,1-.13-.86V337Z" style="fill:#4d4d4d"/><path d="M218.19,337l-1.84,5.87h-1.17l-1.08-3.55H214l-1,3.55h-1.16L210,337h1l1.43,5h.06l1.16-3.85L213.3,337h1l1.48,5h.06l1.41-5Z" style="fill:#4d4d4d"/><path d="M219.25,339.93a4.1,4.1,0,0,1,.19-1.31,2.61,2.61,0,0,1,.52-1,2.25,2.25,0,0,1,.79-.58,2.38,2.38,0,0,1,.95-.2,2.79,2.79,0,0,1,1,.15,1.84,1.84,0,0,1,.7.45,2,2,0,0,1,.44.74,3.13,3.13,0,0,1,.15,1v.54c0,.06,0,.12,0,.18h-3.76a3,3,0,0,0,.14,1,1.77,1.77,0,0,0,.39.67,1.73,1.73,0,0,0,.6.39,2.29,2.29,0,0,0,.76.12l.48,0L223,342a3.39,3.39,0,0,0,.43-.11l.44-.17v.83a3.78,3.78,0,0,1-.46.17l-.44.12-.47.07-.54,0a3.27,3.27,0,0,1-1.11-.18,2.21,2.21,0,0,1-.85-.54,2.35,2.35,0,0,1-.54-.94A4.17,4.17,0,0,1,219.25,339.93Zm.95-.71H223a2.38,2.38,0,0,0-.09-.68,1.24,1.24,0,0,0-.25-.5,1,1,0,0,0-.41-.29,1.43,1.43,0,0,0-.56-.1,1.31,1.31,0,0,0-.52.11,1.43,1.43,0,0,0-.43.31,1.61,1.61,0,0,0-.33.5A2.58,2.58,0,0,0,220.2,339.22Z" style="fill:#4d4d4d"/><path d="M226.38,341.43a.45.45,0,0,0,0,.2.48.48,0,0,0,.13.16.76.76,0,0,0,.22.1,1.72,1.72,0,0,0,.34,0l1.57.05a3,3,0,0,1,.72.11,1.39,1.39,0,0,1,.5.26,1.11,1.11,0,0,1,.29.4,1.21,1.21,0,0,1,.1.52,1.81,1.81,0,0,1-.17.77,1.83,1.83,0,0,1-.53.62,2.82,2.82,0,0,1-.89.41,5.08,5.08,0,0,1-1.23.14,4.37,4.37,0,0,1-1-.11,2.32,2.32,0,0,1-.75-.31,1.34,1.34,0,0,1-.46-.49,1.23,1.23,0,0,1-.17-.62,1.09,1.09,0,0,1,.08-.39,1.11,1.11,0,0,1,.2-.37,1.77,1.77,0,0,1,.31-.3,1.8,1.8,0,0,1,.37-.22v-.05l-.18-.12a.8.8,0,0,1-.15-.17,1.36,1.36,0,0,1-.1-.21.88.88,0,0,1,0-.24.82.82,0,0,1,0-.26,1,1,0,0,1,.12-.23,1.34,1.34,0,0,1,.21-.2.94.94,0,0,1,.26-.14v0a2.45,2.45,0,0,1-.37-.26,1.25,1.25,0,0,1-.28-.36,1.51,1.51,0,0,1-.18-.45,1.93,1.93,0,0,1-.07-.55,2.47,2.47,0,0,1,.16-.92,1.82,1.82,0,0,1,.46-.69,2.15,2.15,0,0,1,.74-.43,3.05,3.05,0,0,1,1-.15h.24l.24,0a.85.85,0,0,1,.23,0l.19,0h1.8v.68h-1.1v0a.91.91,0,0,1,.23.21,1.49,1.49,0,0,1,.18.3,1.8,1.8,0,0,1,.12.35,1.75,1.75,0,0,1,0,.4,2.19,2.19,0,0,1-.16.88,1.75,1.75,0,0,1-.47.64,2.18,2.18,0,0,1-.76.39,4,4,0,0,1-1,.13h-.35l-.16,0-.15,0a.51.51,0,0,0-.15.07l-.12.11a.57.57,0,0,0-.08.13A.35.35,0,0,0,226.38,341.43Zm-.46,2.09a.77.77,0,0,0,.11.39.85.85,0,0,0,.32.3,1.7,1.7,0,0,0,.51.19,2.87,2.87,0,0,0,.69.07,5.27,5.27,0,0,0,.87-.07,1.9,1.9,0,0,0,.6-.21.93.93,0,0,0,.35-.33.73.73,0,0,0,.12-.41.78.78,0,0,0-.05-.28.51.51,0,0,0-.16-.2.81.81,0,0,0-.28-.12,2.34,2.34,0,0,0-.43-.06l-2-.1-.28.14a.86.86,0,0,0-.2.18.76.76,0,0,0-.13.23A1.26,1.26,0,0,0,225.92,343.52Zm1.61-3.16a2.25,2.25,0,0,0,.62-.07,1.22,1.22,0,0,0,.43-.25,1,1,0,0,0,.26-.43,2.43,2.43,0,0,0,.08-.64,1.62,1.62,0,0,0-.09-.57,1.15,1.15,0,0,0-.26-.41,1.24,1.24,0,0,0-.42-.24,1.64,1.64,0,0,0-.56-.09,1.6,1.6,0,0,0-.56.09,1.12,1.12,0,0,0-.44.25,1.09,1.09,0,0,0-.27.44,2,2,0,0,0,0,1.21,1,1,0,0,0,.27.42,1.16,1.16,0,0,0,.41.22A1.68,1.68,0,0,0,227.53,340.36Z" style="fill:#4d4d4d"/><path d="M231.49,339.93a4.1,4.1,0,0,1,.19-1.31,2.61,2.61,0,0,1,.52-1,2.25,2.25,0,0,1,.79-.58,2.38,2.38,0,0,1,.95-.2,2.79,2.79,0,0,1,.95.15,1.84,1.84,0,0,1,.7.45,2,2,0,0,1,.44.74,3.13,3.13,0,0,1,.15,1v.54c0,.06,0,.12,0,.18H232.4a3,3,0,0,0,.14,1,1.77,1.77,0,0,0,.39.67,1.73,1.73,0,0,0,.6.39,2.29,2.29,0,0,0,.76.12l.48,0,.45-.07a3.39,3.39,0,0,0,.43-.11l.44-.17v.83a4.51,4.51,0,0,1-.46.17l-.44.12-.47.07-.54,0a3.27,3.27,0,0,1-1.11-.18,2.21,2.21,0,0,1-.85-.54,2.35,2.35,0,0,1-.54-.94A4.17,4.17,0,0,1,231.49,339.93Zm.95-.71h2.76a2.38,2.38,0,0,0-.09-.68,1.24,1.24,0,0,0-.25-.5,1,1,0,0,0-.41-.29,1.43,1.43,0,0,0-.56-.1,1.31,1.31,0,0,0-.52.11,1.43,1.43,0,0,0-.43.31,1.61,1.61,0,0,0-.33.5A2.58,2.58,0,0,0,232.44,339.22Z" style="fill:#4d4d4d"/><path d="M237.77,335.07a.61.61,0,0,1,0-.24.52.52,0,0,1,.12-.19.42.42,0,0,1,.18-.11.64.64,0,0,1,.24,0,.6.6,0,0,1,.24,0,.33.33,0,0,1,.18.11.57.57,0,0,1,.12.18.66.66,0,0,1,0,.25.61.61,0,0,1,0,.24.57.57,0,0,1-.12.18.41.41,0,0,1-.18.12.86.86,0,0,1-.24,0,.93.93,0,0,1-.24,0,.55.55,0,0,1-.3-.3A.61.61,0,0,1,237.77,335.07Zm1,1.89v5.9h-.91V337Z" style="fill:#4d4d4d"/><path d="M244.59,342.86V339a1.42,1.42,0,0,0-.08-.52,1.14,1.14,0,0,0-.25-.39,1.09,1.09,0,0,0-.42-.25,1.59,1.59,0,0,0-.55-.09l-.38,0-.33.05-.34.09-.36.14v4.8H241V337l.88-.07v.39a3.6,3.6,0,0,1,.39-.2l.38-.13.39-.08.44,0a2.67,2.67,0,0,1,.88.13,1.76,1.76,0,0,1,.65.39,1.46,1.46,0,0,1,.39.62,2.48,2.48,0,0,1,.14.85v3.95Z" style="fill:#4d4d4d"/><path d="M216.32,349.55a2.1,2.1,0,1,1,2.1-2.1A2.1,2.1,0,0,1,216.32,349.55Zm0-3.69a1.6,1.6,0,1,0,1.6,1.59A1.6,1.6,0,0,0,216.32,345.86Z" style="fill:#8b8f9e"/><path d="M129.41,404.49v-7.87h1v7h3v.84Z" style="fill:#4d4d4d"/><path d="M139.78,401.49a3.57,3.57,0,0,1-.22,1.29,2.87,2.87,0,0,1-.59,1,2.47,2.47,0,0,1-.88.62,2.66,2.66,0,0,1-1.05.21,2.78,2.78,0,0,1-1.06-.19,2.15,2.15,0,0,1-.81-.56,2.65,2.65,0,0,1-.51-.94,4.17,4.17,0,0,1-.18-1.28,3.79,3.79,0,0,1,.21-1.29,2.89,2.89,0,0,1,.6-1,2.53,2.53,0,0,1,.87-.62,2.58,2.58,0,0,1,1-.21,2.83,2.83,0,0,1,1.07.19,2,2,0,0,1,.81.56,2.47,2.47,0,0,1,.52.93A4.19,4.19,0,0,1,139.78,401.49Zm-.95,0a3.9,3.9,0,0,0-.11-1,2,2,0,0,0-.34-.7,1.44,1.44,0,0,0-.54-.41,1.65,1.65,0,0,0-.72-.14,1.58,1.58,0,0,0-.69.15,1.45,1.45,0,0,0-.54.45,2.05,2.05,0,0,0-.35.71,3.55,3.55,0,0,0-.12,1,3.5,3.5,0,0,0,.12,1,1.93,1.93,0,0,0,.33.69,1.47,1.47,0,0,0,.54.42,1.9,1.9,0,0,0,.73.13,1.51,1.51,0,0,0,.68-.15,1.67,1.67,0,0,0,.54-.45,2,2,0,0,0,.35-.72A3.45,3.45,0,0,0,138.83,401.53Z" style="fill:#4d4d4d"/><path d="M141.58,406.78v-8.12l.88-.07V399l.36-.18.38-.13.4-.08.44,0a2.76,2.76,0,0,1,1,.17,2.07,2.07,0,0,1,.77.54,2.42,2.42,0,0,1,.48.9,4.44,4.44,0,0,1,.17,1.27,3.56,3.56,0,0,1-.22,1.31,2.69,2.69,0,0,1-.64,1,2.56,2.56,0,0,1-1,.62,3.62,3.62,0,0,1-1.26.21h-.22l-.21,0-.21,0-.21,0v2.3Zm1.9-3a2.15,2.15,0,0,0,.8-.15,1.62,1.62,0,0,0,.64-.42,1.91,1.91,0,0,0,.42-.71,2.93,2.93,0,0,0,.15-1,3.33,3.33,0,0,0-.12-.95,1.72,1.72,0,0,0-.34-.66,1.36,1.36,0,0,0-.54-.38,2,2,0,0,0-.73-.12l-.32,0-.31,0-.31.09a2.33,2.33,0,0,0-.33.14v4l.25,0a1,1,0,0,0,.24,0l.24,0Z" style="fill:#4d4d4d"/><path d="M148.11,396.7a.61.61,0,0,1,0-.24.52.52,0,0,1,.12-.19.5.5,0,0,1,.19-.11.6.6,0,0,1,.24-.05.69.69,0,0,1,.24.05.54.54,0,0,1,.18.11.78.78,0,0,1,.11.18.66.66,0,0,1,0,.25.61.61,0,0,1,0,.24.61.61,0,0,1-.11.18.57.57,0,0,1-.18.12.67.67,0,0,1-.24,0,.61.61,0,0,1-.24,0,.52.52,0,0,1-.19-.12.47.47,0,0,1-.12-.18A.61.61,0,0,1,148.11,396.7Zm1,1.89v5.9h-.91v-5.83Z" style="fill:#4d4d4d"/><path d="M152.22,401.68v2.81h-.91v-8.31l.91-.08v4.78h.53l2-2.26h1.12l-2.28,2.53,2.48,3.34H154.9l-2.06-2.81Z" style="fill:#4d4d4d"/><path d="M142.28,411.18a2.1,2.1,0,1,1,2.09-2.1A2.1,2.1,0,0,1,142.28,411.18Zm0-3.69a1.6,1.6,0,1,0,1.59,1.59A1.59,1.59,0,0,0,142.28,407.49Z" style="fill:#8b8f9e"/><path d="M222.14,393.85,219.65,386h1.07l2.11,6.92h0L225,386h1l-2.53,7.87Z" style="fill:#4d4d4d"/><path d="M227.3,386.06a.6.6,0,0,1,0-.24.35.35,0,0,1,.12-.19.42.42,0,0,1,.18-.11.6.6,0,0,1,.48,0,.42.42,0,0,1,.18.11.57.57,0,0,1,.12.18.93.93,0,0,1,0,.25.86.86,0,0,1,0,.24.55.55,0,0,1-.3.3.74.74,0,0,1-.48,0,.57.57,0,0,1-.18-.12.36.36,0,0,1-.12-.18A.6.6,0,0,1,227.3,386.06Zm1,1.89v5.9h-.91V388Z" style="fill:#4d4d4d"/><path d="M234.49,389.79v4.06h-.85v-.41a3.32,3.32,0,0,1-.41.22,3.39,3.39,0,0,1-.41.15,2.59,2.59,0,0,1-.42.09l-.5,0a2.58,2.58,0,0,1-.76-.11,1.78,1.78,0,0,1-.57-.33,1.31,1.31,0,0,1-.37-.5,1.7,1.7,0,0,1-.13-.64,1.48,1.48,0,0,1,.17-.7,1.66,1.66,0,0,1,.5-.56,2.35,2.35,0,0,1,.83-.37,4.44,4.44,0,0,1,1.16-.14h.88V390a1.46,1.46,0,0,0-.08-.52.87.87,0,0,0-.25-.37.94.94,0,0,0-.42-.23,2.1,2.1,0,0,0-.59-.08l-.41,0a3.1,3.1,0,0,0-.42.08,3.45,3.45,0,0,0-.43.12,4,4,0,0,0-.45.16l-.2-.76.53-.21.48-.15.49-.08.54,0a2.75,2.75,0,0,1,.9.13,1.64,1.64,0,0,1,.65.36,1.48,1.48,0,0,1,.4.6A2,2,0,0,1,234.49,389.79ZM231,392.26a1,1,0,0,0,.07.35.69.69,0,0,0,.2.28,1,1,0,0,0,.33.17,1.6,1.6,0,0,0,.46.06,2.77,2.77,0,0,0,.42,0,2.66,2.66,0,0,0,.39-.07l.36-.13.36-.19v-1.37h-.91a3.43,3.43,0,0,0-.77.07,1.63,1.63,0,0,0-.53.2.91.91,0,0,0-.29.3A.82.82,0,0,0,231,392.26Z" style="fill:#4d4d4d"/><path d="M240.19,393.85V390a1.67,1.67,0,0,0-.08-.52,1.14,1.14,0,0,0-.25-.39,1.17,1.17,0,0,0-.42-.25,1.6,1.6,0,0,0-.56-.09l-.37,0-.34.05-.33.09-.36.14v4.8h-.91V388l.87-.07v.39l.4-.2.38-.13.39-.08.44,0a2.67,2.67,0,0,1,.88.13,1.72,1.72,0,0,1,.64.39,1.48,1.48,0,0,1,.4.62,2.49,2.49,0,0,1,.13.85v4Z" style="fill:#4d4d4d"/><path d="M242.82,390.92a4.41,4.41,0,0,1,.18-1.31,2.78,2.78,0,0,1,.53-1,2.25,2.25,0,0,1,.79-.58,2.38,2.38,0,0,1,1-.2,2.79,2.79,0,0,1,.95.15,1.84,1.84,0,0,1,.7.45,2,2,0,0,1,.44.74,3.13,3.13,0,0,1,.15,1v.36a1.09,1.09,0,0,1,0,.18c0,.06,0,.12,0,.18h-3.76a3,3,0,0,0,.14.95,1.77,1.77,0,0,0,.39.67,1.73,1.73,0,0,0,.6.39,2.29,2.29,0,0,0,.76.12l.48,0,.45-.07a3.39,3.39,0,0,0,.43-.11l.43-.17v.83a3.67,3.67,0,0,1-.45.17l-.44.12-.47.07-.54,0a3.27,3.27,0,0,1-1.11-.18,2.21,2.21,0,0,1-.85-.54,2.49,2.49,0,0,1-.55-.94A4.48,4.48,0,0,1,242.82,390.92Zm1-.71h2.76a2.38,2.38,0,0,0-.09-.68,1.24,1.24,0,0,0-.25-.5,1,1,0,0,0-.41-.29,1.43,1.43,0,0,0-.56-.1,1.27,1.27,0,0,0-.52.11,1.6,1.6,0,0,0-.44.31,1.79,1.79,0,0,0-.32.5A2.58,2.58,0,0,0,243.77,390.21Z" style="fill:#4d4d4d"/><path d="M252.85,393.85V390a1.67,1.67,0,0,0-.08-.52,1,1,0,0,0-.26-.39,1.13,1.13,0,0,0-.41-.25,1.6,1.6,0,0,0-.56-.09l-.37,0-.34.05-.33.09-.36.14v4.8h-.91V388l.87-.07v.39l.4-.2.38-.13.39-.08.44,0a2.67,2.67,0,0,1,.88.13,1.72,1.72,0,0,1,.64.39,1.48,1.48,0,0,1,.4.62,2.49,2.49,0,0,1,.13.85v4Z" style="fill:#4d4d4d"/><path d="M237.16,400.54a2.1,2.1,0,1,1,2.1-2.1A2.1,2.1,0,0,1,237.16,400.54Zm0-3.69a1.6,1.6,0,1,0,1.6,1.59A1.6,1.6,0,0,0,237.16,396.85Z" style="fill:#8b8f9e"/><path d="M208,487.4v-7.87h1v7h3v.84Z" style="fill:#4d4d4d"/><path d="M213,484.48a4.37,4.37,0,0,1,.18-1.31,2.61,2.61,0,0,1,.53-1,2.1,2.1,0,0,1,.78-.58,2.27,2.27,0,0,1,1-.2,2.73,2.73,0,0,1,.94.15,1.8,1.8,0,0,1,.71.45,2,2,0,0,1,.44.74,3.11,3.11,0,0,1,.15,1v.37a1.09,1.09,0,0,1,0,.18,1,1,0,0,1,0,.17h-3.75a2.68,2.68,0,0,0,.14.95,1.63,1.63,0,0,0,.39.67,1.52,1.52,0,0,0,.59.39,2.11,2.11,0,0,0,.77.13,3.64,3.64,0,0,0,.48,0l.45-.06.43-.12a3.75,3.75,0,0,0,.43-.16v.82l-.46.18-.43.11a3.54,3.54,0,0,1-.47.07,4.63,4.63,0,0,1-.54,0,3.23,3.23,0,0,1-1.11-.18,2.35,2.35,0,0,1-.86-.55,2.53,2.53,0,0,1-.54-.94A4.41,4.41,0,0,1,213,484.48Zm.94-.71h2.76a2.42,2.42,0,0,0-.08-.69,1.33,1.33,0,0,0-.25-.49,1,1,0,0,0-.42-.3,1.59,1.59,0,0,0-.55-.09,1.27,1.27,0,0,0-.52.1,1.5,1.5,0,0,0-.44.32,1.54,1.54,0,0,0-.32.49A2.66,2.66,0,0,0,214,483.77Z" style="fill:#4d4d4d"/><path d="M219.06,484.48a4.35,4.35,0,0,1,.19-1.31,2.59,2.59,0,0,1,.52-1,2.31,2.31,0,0,1,1.75-.78,2.73,2.73,0,0,1,.94.15,1.87,1.87,0,0,1,.71.45,2,2,0,0,1,.44.74,3.11,3.11,0,0,1,.15,1v.37c0,.06,0,.12,0,.18a1,1,0,0,1,0,.17H220a3,3,0,0,0,.13.95,1.76,1.76,0,0,0,.4.67,1.39,1.39,0,0,0,.59.39,2.11,2.11,0,0,0,.77.13,3.75,3.75,0,0,0,.48,0c.15,0,.3,0,.44-.06a3.6,3.6,0,0,0,.44-.12,3.75,3.75,0,0,0,.43-.16v.82l-.46.18-.44.11a3.31,3.31,0,0,1-.47.07,4.33,4.33,0,0,1-.53,0,3.23,3.23,0,0,1-1.11-.18,2.27,2.27,0,0,1-.86-.55,2.4,2.4,0,0,1-.54-.94A4.39,4.39,0,0,1,219.06,484.48Zm.95-.71h2.76a2.84,2.84,0,0,0-.08-.69,1.33,1.33,0,0,0-.25-.49,1,1,0,0,0-.42-.3,1.6,1.6,0,0,0-.56-.09,1.25,1.25,0,0,0-.51.1,1.5,1.5,0,0,0-.44.32,1.54,1.54,0,0,0-.32.49A2.29,2.29,0,0,0,220,483.77Z" style="fill:#4d4d4d"/><path d="M228.3,481.55l-.1.9-.18,0a.51.51,0,0,0-.17,0l-.15,0h-.18a.9.9,0,0,0-.28,0,1,1,0,0,0-.27.11,1.41,1.41,0,0,0-.27.18l-.32.28v4.44h-.91v-5.83l.9-.07v.68q.16-.18.33-.33a1.91,1.91,0,0,1,.3-.22,1.17,1.17,0,0,1,.31-.12,1.12,1.12,0,0,1,.31-.05H228a.9.9,0,0,1,.16,0Z" style="fill:#4d4d4d"/><path d="M234.18,479v8.38h-.88V487a2.79,2.79,0,0,1-.33.19,2.39,2.39,0,0,1-.37.15,2.59,2.59,0,0,1-.4.09,2.69,2.69,0,0,1-.4,0,2.64,2.64,0,0,1-1-.19,2.13,2.13,0,0,1-.78-.55,2.48,2.48,0,0,1-.52-.9,3.81,3.81,0,0,1-.19-1.22,4,4,0,0,1,.22-1.34,2.68,2.68,0,0,1,.61-1,2.7,2.7,0,0,1,.94-.62,3.23,3.23,0,0,1,1.19-.21h.29l.26,0,.23.05a.65.65,0,0,1,.21.06v-2.51Zm-2,3.25a2,2,0,0,0-.79.15,1.8,1.8,0,0,0-.62.44,2.08,2.08,0,0,0-.39.72,3.46,3.46,0,0,0-.13.95,2.92,2.92,0,0,0,.13.92,1.89,1.89,0,0,0,.35.66,1.32,1.32,0,0,0,.55.39,1.75,1.75,0,0,0,.7.14,2,2,0,0,0,.36,0,3,3,0,0,0,.32-.06,1.48,1.48,0,0,0,.29-.12,2.19,2.19,0,0,0,.3-.16v-3.91l-.27,0-.26,0-.26,0Z" style="fill:#4d4d4d"/><path d="M240.33,483.35v4h-.85V487l-.42.22a2.74,2.74,0,0,1-.4.15,2,2,0,0,1-.43.08,3.58,3.58,0,0,1-.49,0,2.24,2.24,0,0,1-.76-.12,1.64,1.64,0,0,1-.58-.32,1.32,1.32,0,0,1-.36-.51,1.58,1.58,0,0,1,0-1.34,1.65,1.65,0,0,1,.5-.56,2.45,2.45,0,0,1,.83-.37,4.39,4.39,0,0,1,1.15-.13h.89v-.64a1.6,1.6,0,0,0-.08-.51,1,1,0,0,0-.25-.38,1.06,1.06,0,0,0-.42-.23,2.1,2.1,0,0,0-.59-.08l-.42,0a3.07,3.07,0,0,0-.42.07l-.43.12a4.13,4.13,0,0,0-.45.17l-.19-.77.52-.21a3.32,3.32,0,0,1,.49-.14,2.64,2.64,0,0,1,.49-.08,4.63,4.63,0,0,1,.54,0,3,3,0,0,1,.89.13,1.77,1.77,0,0,1,.66.37,1.54,1.54,0,0,1,.4.59A2.24,2.24,0,0,1,240.33,483.35Zm-3.47,2.46a.86.86,0,0,0,.07.36.73.73,0,0,0,.53.44,1.56,1.56,0,0,0,.46.06l.42,0a3,3,0,0,0,.75-.21l.36-.18v-1.38h-.91a3.58,3.58,0,0,0-.78.07,1.82,1.82,0,0,0-.52.2.85.85,0,0,0-.29.31A.78.78,0,0,0,236.86,485.81Z" style="fill:#4d4d4d"/><path d="M249.56,487.4v-3.84a1.72,1.72,0,0,0-.08-.52.92.92,0,0,0-.24-.39,1.11,1.11,0,0,0-.4-.26,1.6,1.6,0,0,0-.56-.09l-.37,0a1.65,1.65,0,0,0-.32.06,1.92,1.92,0,0,0-.32.09l-.38.13v4.8H246v-3.86a1.7,1.7,0,0,0-.07-.53.94.94,0,0,0-.23-.39.9.9,0,0,0-.4-.24,1.91,1.91,0,0,0-.57-.08l-.39,0-.33.05a1.58,1.58,0,0,0-.31.09l-.36.14v4.8h-.92v-5.83l.88-.07v.4l.4-.21a3.3,3.3,0,0,1,.37-.13,2.66,2.66,0,0,1,.39-.07,2.77,2.77,0,0,1,.42,0,4.39,4.39,0,0,1,.53,0,2.12,2.12,0,0,1,.45.11,2.18,2.18,0,0,1,.37.2,1.81,1.81,0,0,1,.3.25,5.14,5.14,0,0,1,.5-.28,4.37,4.37,0,0,1,.46-.18,3.41,3.41,0,0,1,.46-.1,4.06,4.06,0,0,1,.51,0,2.66,2.66,0,0,1,.88.14,1.55,1.55,0,0,1,.63.38,1.72,1.72,0,0,1,.39.62,2.83,2.83,0,0,1,.13.86v3.94Z" style="fill:#4d4d4d"/><path d="M229.18,494.1a2.1,2.1,0,1,1,2.1-2.1A2.11,2.11,0,0,1,229.18,494.1Zm0-3.7a1.6,1.6,0,1,0,1.6,1.6A1.6,1.6,0,0,0,229.18,490.4Z" style="fill:#8b8f9e"/><path d="M173.66,419.12v-7.87h1v7h3v.84Z" style="fill:#4d4d4d"/><path d="M178.72,416.19a4.34,4.34,0,0,1,.19-1.3,2.59,2.59,0,0,1,.52-1,2.22,2.22,0,0,1,1.75-.78,2.73,2.73,0,0,1,.94.15,1.87,1.87,0,0,1,.71.45,2,2,0,0,1,.44.73,3.17,3.17,0,0,1,.15,1v.36c0,.06,0,.12,0,.18a1,1,0,0,1,0,.18h-3.75a3,3,0,0,0,.13.95,1.84,1.84,0,0,0,.4.67,1.39,1.39,0,0,0,.59.39,2.3,2.3,0,0,0,.77.13,3.87,3.87,0,0,0,.48,0c.15,0,.3,0,.44-.06a3.6,3.6,0,0,0,.44-.12c.14,0,.28-.1.43-.17v.83a3.25,3.25,0,0,1-.46.17,3.17,3.17,0,0,1-.44.12l-.47.07a4.44,4.44,0,0,1-.53,0,3.5,3.5,0,0,1-1.11-.17,2.4,2.4,0,0,1-.86-.55,2.47,2.47,0,0,1-.54-.94A4.42,4.42,0,0,1,178.72,416.19Zm.95-.7h2.76a2.84,2.84,0,0,0-.08-.69,1.47,1.47,0,0,0-.25-.5,1,1,0,0,0-.42-.29,1.6,1.6,0,0,0-.56-.1,1.26,1.26,0,0,0-.51.11,1.47,1.47,0,0,0-.44.31,1.71,1.71,0,0,0-.32.5A2.29,2.29,0,0,0,179.67,415.49Z" style="fill:#4d4d4d"/><path d="M189.56,419.12h-1.08l-1.5-2.37h0l-1.46,2.37h-1l2-3-1.9-2.88h1.1l1.38,2.21h.05l1.37-2.21h1l-1.9,2.82Z" style="fill:#4d4d4d"/><path d="M198.21,419.12v-3.84a1.46,1.46,0,0,0-.08-.52,1,1,0,0,0-.24-.4,1.14,1.14,0,0,0-.4-.25,1.55,1.55,0,0,0-.55-.09l-.37,0-.33,0-.31.1-.38.13v4.8h-.91v-3.86a1.8,1.8,0,0,0-.08-.54.94.94,0,0,0-.22-.39,1.05,1.05,0,0,0-.4-.23,1.93,1.93,0,0,0-.58-.08l-.39,0-.33,0-.31.09-.36.14v4.8h-.91v-5.83l.88-.07v.39c.14-.08.27-.14.4-.2a2.72,2.72,0,0,1,.37-.13,2.32,2.32,0,0,1,.38-.07,3,3,0,0,1,.43,0,2.89,2.89,0,0,1,.52,0,1.85,1.85,0,0,1,.45.11,1.84,1.84,0,0,1,.37.19,1.56,1.56,0,0,1,.3.26l.5-.28a2.42,2.42,0,0,1,.46-.18,3.94,3.94,0,0,1,.47-.1,2.64,2.64,0,0,1,.51,0,2.89,2.89,0,0,1,.87.13,1.65,1.65,0,0,1,.64.39,1.62,1.62,0,0,1,.38.62,2.53,2.53,0,0,1,.13.85v3.95Z" style="fill:#4d4d4d"/><path d="M206.14,416.12a3.75,3.75,0,0,1-.21,1.29,2.89,2.89,0,0,1-.6,1,2.53,2.53,0,0,1-.87.62,2.66,2.66,0,0,1-1.05.21,2.74,2.74,0,0,1-1.06-.19,2,2,0,0,1-.81-.56,2.44,2.44,0,0,1-.52-.94,4.1,4.1,0,0,1-.18-1.27,3.58,3.58,0,0,1,.22-1.3,2.87,2.87,0,0,1,.59-1,2.55,2.55,0,0,1,1.91-.83,2.8,2.8,0,0,1,1.07.19,2.22,2.22,0,0,1,.82.56,2.6,2.6,0,0,1,.51.93A4.19,4.19,0,0,1,206.14,416.12Zm-.94,0a3.5,3.5,0,0,0-.12-1,1.85,1.85,0,0,0-.33-.69,1.37,1.37,0,0,0-.54-.42,1.9,1.9,0,0,0-.73-.14,1.51,1.51,0,0,0-.68.15,1.45,1.45,0,0,0-.54.45,1.94,1.94,0,0,0-.35.72,3.43,3.43,0,0,0-.12,1,4,4,0,0,0,.11,1,1.86,1.86,0,0,0,.34.69,1.47,1.47,0,0,0,.54.42,1.81,1.81,0,0,0,.72.14,1.59,1.59,0,0,0,.69-.16,1.55,1.55,0,0,0,.54-.45,2.2,2.2,0,0,0,.35-.72A3.45,3.45,0,0,0,205.2,416.16Z" style="fill:#4d4d4d"/><path d="M211.57,419.12v-3.85a1.46,1.46,0,0,0-.09-.52,1,1,0,0,0-.25-.39,1.29,1.29,0,0,0-.41-.25,1.64,1.64,0,0,0-.56-.09l-.37,0-.34,0-.33.1a2.6,2.6,0,0,0-.36.13v4.8h-.92v-5.83l.88-.07v.39a2.87,2.87,0,0,1,.4-.19,2.79,2.79,0,0,1,.37-.14,2.66,2.66,0,0,1,.39-.07,3.19,3.19,0,0,1,.45,0,2.84,2.84,0,0,1,.87.13,1.69,1.69,0,0,1,.65.39,1.55,1.55,0,0,1,.4.62,2.53,2.53,0,0,1,.13.85v3.95Z" style="fill:#4d4d4d"/><path d="M219.06,410.73v8.39h-.89v-.38l-.33.19a2.35,2.35,0,0,1-.37.14l-.39.09-.41,0a2.64,2.64,0,0,1-1-.18,2.26,2.26,0,0,1-.78-.55,2.63,2.63,0,0,1-.52-.9,3.86,3.86,0,0,1-.18-1.22,4,4,0,0,1,.21-1.34,3,3,0,0,1,.61-1,2.82,2.82,0,0,1,.94-.61,3.27,3.27,0,0,1,1.19-.21h.29l.26,0,.23,0,.21.06v-2.5Zm-2,3.26a2,2,0,0,0-.8.15,1.57,1.57,0,0,0-.61.44,1.67,1.67,0,0,0-.39.72,3.27,3.27,0,0,0,0,1.86,1.85,1.85,0,0,0,.35.67,1.5,1.5,0,0,0,.55.39,1.78,1.78,0,0,0,.7.14,2,2,0,0,0,.36,0,3,3,0,0,0,.32-.06,1.48,1.48,0,0,0,.29-.12,2.28,2.28,0,0,0,.3-.17v-3.9l-.27,0-.25,0-.27,0Z" style="fill:#4d4d4d"/><path d="M196.37,425.81a2.1,2.1,0,1,1,2.1-2.09A2.1,2.1,0,0,1,196.37,425.81Zm0-3.69a1.6,1.6,0,1,0,1.6,1.6A1.6,1.6,0,0,0,196.37,422.12Z" style="fill:#8b8f9e"/><path d="M274.62,385.33v-.89l.51.1.46.07.45,0h.47a3,3,0,0,0,.76-.1,2,2,0,0,0,.6-.29,1.09,1.09,0,0,0,.37-.43,1.33,1.33,0,0,0,.13-.57,1.45,1.45,0,0,0-.07-.44.87.87,0,0,0-.22-.35,1.48,1.48,0,0,0-.38-.3,5.34,5.34,0,0,0-.57-.25l-1-.33a3.22,3.22,0,0,1-.59-.28,2.28,2.28,0,0,1-.46-.41,1.94,1.94,0,0,1-.29-.53,1.91,1.91,0,0,1-.1-.64,2.12,2.12,0,0,1,.19-.91,2.1,2.1,0,0,1,.55-.71,2.59,2.59,0,0,1,.87-.47,3.56,3.56,0,0,1,1.12-.17h.44l.4,0,.38.05.37.07-.1.85-.38-.07-.37-.05-.38,0h-.42a2.39,2.39,0,0,0-.73.1,1.6,1.6,0,0,0-.54.26,1.14,1.14,0,0,0-.34.39,1.09,1.09,0,0,0-.11.51,1.31,1.31,0,0,0,.06.41.92.92,0,0,0,.19.33,1.43,1.43,0,0,0,.33.25,2.16,2.16,0,0,0,.48.21l1,.34a2.84,2.84,0,0,1,.7.32,1.71,1.71,0,0,1,.49.43,1.81,1.81,0,0,1,.29.55,2.4,2.4,0,0,1,.09.69,2.22,2.22,0,0,1-.2,1,2.17,2.17,0,0,1-.58.76,2.49,2.49,0,0,1-.91.49,4,4,0,0,1-1.19.17H276l-.45,0-.43,0Z" style="fill:#4d4d4d"/><path d="M284.79,379.63l-.11.83-.33-.07-.27-.05-.26,0h-.29a1.57,1.57,0,0,0-.68.15,1.5,1.5,0,0,0-.56.42,2,2,0,0,0-.38.68,2.83,2.83,0,0,0-.14.9,3.24,3.24,0,0,0,.14,1,1.78,1.78,0,0,0,.39.69,1.39,1.39,0,0,0,.57.39,1.88,1.88,0,0,0,.72.13h.32l.31,0,.29-.06.29-.07v.83l-.31.08-.3.05-.33,0h-.38a3,3,0,0,1-1.07-.18,2.1,2.1,0,0,1-.83-.54,2.64,2.64,0,0,1-.56-.94,4.17,4.17,0,0,1-.19-1.34,3.35,3.35,0,0,1,.22-1.27,2.9,2.9,0,0,1,.6-1,2.35,2.35,0,0,1,.87-.6,2.78,2.78,0,0,1,1-.2h.33l.29,0,.3.05Z" style="fill:#4d4d4d"/><path d="M290,385.43v-3.86a1.36,1.36,0,0,0-.09-.51.94.94,0,0,0-.25-.39,1.13,1.13,0,0,0-.41-.25,1.64,1.64,0,0,0-.56-.09h-.38a3.43,3.43,0,0,0-.34.06l-.33.09a2.4,2.4,0,0,0-.36.14v4.8h-.91v-8.32l.91-.07v2.85l.39-.18a2.84,2.84,0,0,1,.38-.13,2.32,2.32,0,0,1,.38-.07,2.89,2.89,0,0,1,.43,0,2.61,2.61,0,0,1,.87.13,1.75,1.75,0,0,1,.65.38,1.58,1.58,0,0,1,.4.63,2.71,2.71,0,0,1,.13.85v3.95Z" style="fill:#4d4d4d"/><path d="M296.92,381.37v4.06h-.85V385a4.33,4.33,0,0,1-.42.22,2.74,2.74,0,0,1-.4.15,2,2,0,0,1-.43.08,3.68,3.68,0,0,1-.49,0,2.24,2.24,0,0,1-.76-.12,1.64,1.64,0,0,1-.58-.32,1.36,1.36,0,0,1-.36-.5,1.54,1.54,0,0,1-.13-.65,1.51,1.51,0,0,1,.17-.7,1.65,1.65,0,0,1,.5-.56,2.45,2.45,0,0,1,.83-.37,4.39,4.39,0,0,1,1.15-.13H296v-.64A1.6,1.6,0,0,0,296,381a1,1,0,0,0-.25-.38,1.2,1.2,0,0,0-.42-.23,2.12,2.12,0,0,0-.59-.07,3,3,0,0,0-.42,0,3.07,3.07,0,0,0-.42.07l-.43.12a4.13,4.13,0,0,0-.45.17l-.19-.77.52-.21a3.32,3.32,0,0,1,.49-.14,2.64,2.64,0,0,1,.49-.08,4.7,4.7,0,0,1,.54,0,3,3,0,0,1,.89.12,1.77,1.77,0,0,1,.66.37,1.62,1.62,0,0,1,.4.59A2.24,2.24,0,0,1,296.92,381.37Zm-3.47,2.47a.84.84,0,0,0,.07.35.74.74,0,0,0,.19.27.84.84,0,0,0,.34.17,1.56,1.56,0,0,0,.46.06,3,3,0,0,0,.42,0,3,3,0,0,0,.75-.21,3,3,0,0,0,.36-.18v-1.37h-.91a4.34,4.34,0,0,0-.78.07,1.57,1.57,0,0,0-.52.21.76.76,0,0,0-.29.3A.79.79,0,0,0,293.45,383.84Z" style="fill:#4d4d4d"/><path d="M299.9,377v8.39H299v-8.32Z" style="fill:#4d4d4d"/><path d="M303,382.62v2.81h-.91v-8.32L303,377v4.77h.53l2-2.25h1.12l-2.28,2.52,2.48,3.35h-1.14l-2.06-2.81Z" style="fill:#4d4d4d"/><path d="M315.47,379.56l-1.85,5.87h-1.16l-1.08-3.56h-.06l-1,3.56h-1.16l-1.86-5.87h1l1.43,5h.06l1.17-3.86-.39-1.17h1l1.49,5h.06l1.4-5Z" style="fill:#4d4d4d"/><path d="M316.75,377.64a.7.7,0,0,1,.05-.25.32.32,0,0,1,.12-.18.57.57,0,0,1,.18-.12.74.74,0,0,1,.48,0,.57.57,0,0,1,.18.12.41.41,0,0,1,.12.18.87.87,0,0,1,0,.25.86.86,0,0,1,0,.24.57.57,0,0,1-.12.18.54.54,0,0,1-.18.11.74.74,0,0,1-.48,0,.54.54,0,0,1-.18-.11.36.36,0,0,1-.12-.18A.6.6,0,0,1,316.75,377.64Zm1.05,1.88v5.91h-.92v-5.84Z" style="fill:#4d4d4d"/><path d="M320.87,379.52v6.24a2.26,2.26,0,0,1-.13.81,1.54,1.54,0,0,1-.36.59,2.17,2.17,0,0,1-.54.4,2.87,2.87,0,0,1-.7.22L319,387a1.74,1.74,0,0,0,.41-.18,1.25,1.25,0,0,0,.3-.25.82.82,0,0,0,.17-.35,1.56,1.56,0,0,0,.06-.46v-6.18Zm-1.05-1.88a.7.7,0,0,1,.05-.25.32.32,0,0,1,.12-.18.57.57,0,0,1,.18-.12.74.74,0,0,1,.48,0,.57.57,0,0,1,.18.12.41.41,0,0,1,.12.18.87.87,0,0,1,0,.25.86.86,0,0,1,0,.24.57.57,0,0,1-.12.18.54.54,0,0,1-.18.11.74.74,0,0,1-.48,0,.54.54,0,0,1-.18-.11.36.36,0,0,1-.12-.18A.6.6,0,0,1,319.82,377.64Z" style="fill:#4d4d4d"/><path d="M323.94,382.62v2.81H323v-8.32l.91-.07v4.77h.53l2-2.25h1.11l-2.28,2.52,2.49,3.35h-1.14l-2.07-2.81Z" style="fill:#4d4d4d"/><path d="M301,392.12a2.1,2.1,0,1,1,2.1-2.1A2.1,2.1,0,0,1,301,392.12Zm0-3.7a1.6,1.6,0,1,0,1.6,1.6A1.6,1.6,0,0,0,301,388.42Z" style="fill:#8b8f9e"/><path d="M412.08,179.36l2.41,7.87h-1.05l-.63-2.12h-3.08l-.62,2.12h-1l2.48-7.87Zm.5,4.94-1.24-4.21h-.11L410,184.3Z" style="fill:#4d4d4d"/><path d="M423.07,187.23v-3.84a1.67,1.67,0,0,0-.08-.52,1,1,0,0,0-.24-.4,1.09,1.09,0,0,0-.4-.25,1.6,1.6,0,0,0-.56-.09l-.37,0-.32,0-.32.09-.38.14v4.8h-.91v-3.86a1.81,1.81,0,0,0-.07-.54,1.09,1.09,0,0,0-.23-.39,1,1,0,0,0-.4-.23,1.91,1.91,0,0,0-.57-.08l-.39,0-.33,0a1.58,1.58,0,0,0-.31.09l-.36.14v4.8h-.92V181.4l.88-.07v.39a3.72,3.72,0,0,1,.4-.2,2.05,2.05,0,0,1,.37-.13l.39-.08.42,0a3,3,0,0,1,.53,0,2.12,2.12,0,0,1,.45.11,2.15,2.15,0,0,1,.37.19,1.87,1.87,0,0,1,.3.26,5.14,5.14,0,0,1,.5-.28,2.19,2.19,0,0,1,.46-.18,2.36,2.36,0,0,1,.46-.1,2.78,2.78,0,0,1,.51,0,2.67,2.67,0,0,1,.88.13,1.68,1.68,0,0,1,.63.39,1.57,1.57,0,0,1,.39.62,2.76,2.76,0,0,1,.13.85v3.95Z" style="fill:#4d4d4d"/><path d="M425.69,184.3a4.45,4.45,0,0,1,.19-1.31,2.76,2.76,0,0,1,.52-1,2.34,2.34,0,0,1,.79-.58,2.39,2.39,0,0,1,1-.2,2.77,2.77,0,0,1,.94.15,1.78,1.78,0,0,1,.71.46,1.89,1.89,0,0,1,.43.73,3.13,3.13,0,0,1,.15,1v.54c0,.06,0,.12,0,.18h-3.75a3,3,0,0,0,.13.95,2.08,2.08,0,0,0,.39.67,1.73,1.73,0,0,0,.6.39,2.3,2.3,0,0,0,.77.12l.48,0,.44-.07a2.36,2.36,0,0,0,.44-.11c.14,0,.28-.1.43-.17v.83a3.25,3.25,0,0,1-.46.17c-.14,0-.29.08-.44.12l-.47.07-.53,0a3.23,3.23,0,0,1-1.11-.18,2.25,2.25,0,0,1-.86-.54,2.35,2.35,0,0,1-.54-.94A4.46,4.46,0,0,1,425.69,184.3Zm.95-.71h2.76a2.82,2.82,0,0,0-.08-.68,1.38,1.38,0,0,0-.25-.5,1.1,1.1,0,0,0-.42-.29,1.4,1.4,0,0,0-.56-.1,1.26,1.26,0,0,0-.51.11,1.47,1.47,0,0,0-.44.31,1.59,1.59,0,0,0-.32.5A2.32,2.32,0,0,0,426.64,183.59Z" style="fill:#4d4d4d"/><path d="M434.93,181.37l-.1.9-.18,0-.17,0h-.33a1.33,1.33,0,0,0-.28,0,1.53,1.53,0,0,0-.27.11,1.48,1.48,0,0,0-.27.19,3.54,3.54,0,0,0-.32.28v4.44h-.91V181.4l.9-.07V182a2.57,2.57,0,0,1,.33-.33,1.91,1.91,0,0,1,.3-.22,1.2,1.2,0,0,1,.31-.13,1.1,1.1,0,0,1,.31,0h.34l.16,0Z" style="fill:#4d4d4d"/><path d="M435.85,187.11v-.83a2.92,2.92,0,0,0,.4.1l.42.07.42,0h.45a1.84,1.84,0,0,0,.55-.07,1.28,1.28,0,0,0,.41-.18.83.83,0,0,0,.25-.28.82.82,0,0,0,.08-.35.75.75,0,0,0-.05-.31.7.7,0,0,0-.17-.25,1.51,1.51,0,0,0-.31-.2,2.9,2.9,0,0,0-.45-.16l-.68-.21a2.18,2.18,0,0,1-.54-.22,1.55,1.55,0,0,1-.39-.32,1.64,1.64,0,0,1-.24-.43,1.74,1.74,0,0,1-.08-.53,1.53,1.53,0,0,1,.15-.67,1.49,1.49,0,0,1,.43-.54,1.8,1.8,0,0,1,.67-.36,2.75,2.75,0,0,1,.88-.13h.38l.36,0,.34,0,.33.06-.1.8-.34-.07-.32,0-.33,0H438a2,2,0,0,0-.51.06,1.28,1.28,0,0,0-.39.17.8.8,0,0,0-.23.26.76.76,0,0,0-.08.32.85.85,0,0,0,0,.3.48.48,0,0,0,.15.22.86.86,0,0,0,.26.18,1.92,1.92,0,0,0,.37.14l.68.18a2.36,2.36,0,0,1,.62.24,1.49,1.49,0,0,1,.44.33,1.17,1.17,0,0,1,.27.42,1.6,1.6,0,0,1,.08.51,1.87,1.87,0,0,1-.16.75,1.61,1.61,0,0,1-.46.6,2,2,0,0,1-.7.39,2.67,2.67,0,0,1-.91.14H437l-.42,0a2.5,2.5,0,0,1-.38-.06Z" style="fill:#4d4d4d"/><path d="M441.58,182.09h-.72v-.73h.72v-.67a2,2,0,0,1,.13-.77,1.47,1.47,0,0,1,.38-.59,1.52,1.52,0,0,1,.63-.38,2.57,2.57,0,0,1,.87-.13h.22l.21,0,.2,0,.18,0-.11.8-.17-.05-.18,0h-.38a1.43,1.43,0,0,0-.48.07.82.82,0,0,0-.33.19.79.79,0,0,0-.2.33,1.6,1.6,0,0,0-.06.46v.69H444v.73h-1.52v5.14h-.91Z" style="fill:#4d4d4d"/><path d="M450.33,184.23a3.57,3.57,0,0,1-.22,1.29,2.87,2.87,0,0,1-.59,1,2.56,2.56,0,0,1-.88.62,2.66,2.66,0,0,1-1.05.21,2.78,2.78,0,0,1-1.06-.19,2.15,2.15,0,0,1-.81-.56,2.67,2.67,0,0,1-.52-.94,4.46,4.46,0,0,1-.17-1.28,3.79,3.79,0,0,1,.21-1.29,2.74,2.74,0,0,1,.6-1,2.59,2.59,0,0,1,.86-.62,2.67,2.67,0,0,1,1.05-.22,2.83,2.83,0,0,1,1.07.2,2,2,0,0,1,.81.56,2.47,2.47,0,0,1,.52.93A4.19,4.19,0,0,1,450.33,184.23Zm-.95,0a3.84,3.84,0,0,0-.11-1,2,2,0,0,0-.34-.7,1.44,1.44,0,0,0-.54-.41,1.81,1.81,0,0,0-.72-.14,1.58,1.58,0,0,0-.69.15,1.45,1.45,0,0,0-.54.45,2.05,2.05,0,0,0-.35.71,3.55,3.55,0,0,0-.12,1,3.5,3.5,0,0,0,.12,1,2,2,0,0,0,.33.69,1.58,1.58,0,0,0,.54.42,1.86,1.86,0,0,0,.73.13,1.54,1.54,0,0,0,.68-.15,1.67,1.67,0,0,0,.54-.45,2.2,2.2,0,0,0,.35-.72A3.45,3.45,0,0,0,449.38,184.27Z" style="fill:#4d4d4d"/><path d="M457.07,184.23a3.79,3.79,0,0,1-.21,1.29,3,3,0,0,1-.6,1,2.53,2.53,0,0,1-.87.62,2.73,2.73,0,0,1-1.05.21,2.8,2.8,0,0,1-1.07-.19,2.15,2.15,0,0,1-.81-.56,2.65,2.65,0,0,1-.51-.94,4.12,4.12,0,0,1-.18-1.28,3.79,3.79,0,0,1,.21-1.29,3,3,0,0,1,.6-1,2.53,2.53,0,0,1,.87-.62,2.62,2.62,0,0,1,1-.22,2.83,2.83,0,0,1,1.07.2,2.11,2.11,0,0,1,.82.56,2.6,2.6,0,0,1,.51.93A4.19,4.19,0,0,1,457.07,184.23Zm-.95,0a3.43,3.43,0,0,0-.11-1,2,2,0,0,0-.34-.7,1.3,1.3,0,0,0-.54-.41,1.81,1.81,0,0,0-.72-.14,1.58,1.58,0,0,0-.69.15,1.63,1.63,0,0,0-.54.45,2,2,0,0,0-.34.71,4.06,4.06,0,0,0,0,1.92,2,2,0,0,0,.34.69,1.41,1.41,0,0,0,.54.42,1.81,1.81,0,0,0,.72.13,1.58,1.58,0,0,0,.69-.15,1.91,1.91,0,0,0,.54-.45,2.18,2.18,0,0,0,.34-.72A3.45,3.45,0,0,0,456.12,184.27Z" style="fill:#4d4d4d"/><path d="M461.7,181.37l-.1.9-.18,0-.17,0h-.33a1.33,1.33,0,0,0-.28,0,1.53,1.53,0,0,0-.27.11,1.48,1.48,0,0,0-.27.19,3.54,3.54,0,0,0-.32.28v4.44h-.91V181.4l.9-.07V182a2.57,2.57,0,0,1,.33-.33,1.91,1.91,0,0,1,.3-.22,1.2,1.2,0,0,1,.31-.13,1.1,1.1,0,0,1,.31,0h.34l.16,0Z" style="fill:#4d4d4d"/><path d="M462.56,182.09v-.73h.7v-1l.92-.13v1.16h1.53v.73h-1.53v3.32a1.77,1.77,0,0,0,.06.49,1.06,1.06,0,0,0,.19.33.83.83,0,0,0,.3.2.87.87,0,0,0,.37.07h.2l.19,0,.19,0,.21,0v.77l-.27.06-.25,0-.24,0h-.26a2,2,0,0,1-.63-.09,1.37,1.37,0,0,1-.51-.32,1.34,1.34,0,0,1-.34-.57,2.4,2.4,0,0,1-.13-.86v-3.37Z" style="fill:#4d4d4d"/><path d="M437.13,193.92a2.1,2.1,0,1,1,2.1-2.1A2.1,2.1,0,0,1,437.13,193.92Zm0-3.69a1.6,1.6,0,1,0,1.6,1.59A1.6,1.6,0,0,0,437.13,190.23Z" style="fill:#8b8f9e"/><path d="M358.29,145.33h-2.21v-7.87h2a4.05,4.05,0,0,1,1.16.14,2.37,2.37,0,0,1,.83.39,1.56,1.56,0,0,1,.5.62,1.87,1.87,0,0,1,.16.8,2.48,2.48,0,0,1-.07.63,1.69,1.69,0,0,1-.21.49,1.48,1.48,0,0,1-.34.37,2.12,2.12,0,0,1-.47.26v0a2.11,2.11,0,0,1,.61.25,1.71,1.71,0,0,1,.45.39,1.61,1.61,0,0,1,.27.52,2.22,2.22,0,0,1,.09.65,2.59,2.59,0,0,1-.18,1,1.86,1.86,0,0,1-.54.73,2.27,2.27,0,0,1-.87.47A4,4,0,0,1,358.29,145.33Zm-.25-7.07h-1v2.62h1a3.07,3.07,0,0,0,.79-.09,1.35,1.35,0,0,0,.54-.25,1,1,0,0,0,.31-.43,1.59,1.59,0,0,0,.1-.61,1.32,1.32,0,0,0-.1-.53,1.05,1.05,0,0,0-.31-.39,1.49,1.49,0,0,0-.54-.23A3.07,3.07,0,0,0,358,138.26Zm0,3.42h-1v2.85h1.24a3,3,0,0,0,.78-.1,1.51,1.51,0,0,0,.58-.29,1.2,1.2,0,0,0,.35-.46,1.52,1.52,0,0,0,.12-.62,1.55,1.55,0,0,0-.1-.59,1,1,0,0,0-.36-.43,1.7,1.7,0,0,0-.65-.27A4.45,4.45,0,0,0,358,141.68Z" style="fill:#4d4d4d"/><path d="M367,141.27v4.06h-.85v-.41a3.32,3.32,0,0,1-.41.22,3.25,3.25,0,0,1-.4.15,3,3,0,0,1-.43.09l-.5,0a2.47,2.47,0,0,1-.75-.11,1.72,1.72,0,0,1-.58-.33,1.42,1.42,0,0,1-.37-.5,1.69,1.69,0,0,1-.12-.64,1.37,1.37,0,0,1,.17-.7,1.53,1.53,0,0,1,.49-.56,2.35,2.35,0,0,1,.83-.37,4.44,4.44,0,0,1,1.16-.14h.89v-.64a1.46,1.46,0,0,0-.09-.52.85.85,0,0,0-.24-.37,1.06,1.06,0,0,0-.42-.23,2.13,2.13,0,0,0-.6-.08l-.41,0a3.1,3.1,0,0,0-.42.08l-.43.12a4,4,0,0,0-.45.16l-.19-.76.52-.21.48-.15.5-.08.54,0a2.73,2.73,0,0,1,.89.13,1.64,1.64,0,0,1,.65.36,1.6,1.6,0,0,1,.41.6A2.18,2.18,0,0,1,367,141.27Zm-3.46,2.47a1,1,0,0,0,.06.35.8.8,0,0,0,.2.28,1,1,0,0,0,.33.17,1.68,1.68,0,0,0,.47.06,2.73,2.73,0,0,0,.41,0,2.44,2.44,0,0,0,.39-.07l.37-.13.36-.19v-1.37h-.92a3.49,3.49,0,0,0-.77.07,1.49,1.49,0,0,0-.52.2.82.82,0,0,0-.29.3A.85.85,0,0,0,363.54,143.74Z" style="fill:#4d4d4d"/><path d="M373.06,141.27v4.06h-.85v-.41a3.32,3.32,0,0,1-.41.22,3.25,3.25,0,0,1-.4.15,3,3,0,0,1-.43.09l-.5,0a2.47,2.47,0,0,1-.75-.11,1.72,1.72,0,0,1-.58-.33,1.42,1.42,0,0,1-.37-.5,1.69,1.69,0,0,1-.12-.64,1.37,1.37,0,0,1,.17-.7,1.53,1.53,0,0,1,.49-.56,2.35,2.35,0,0,1,.83-.37,4.44,4.44,0,0,1,1.16-.14h.89v-.64a1.46,1.46,0,0,0-.09-.52.85.85,0,0,0-.24-.37,1.06,1.06,0,0,0-.42-.23,2.13,2.13,0,0,0-.6-.08l-.41,0a3.1,3.1,0,0,0-.42.08l-.43.12a4,4,0,0,0-.45.16l-.19-.76.52-.21a4.42,4.42,0,0,1,.48-.15l.5-.08.54,0a2.73,2.73,0,0,1,.89.13,1.64,1.64,0,0,1,.65.36,1.6,1.6,0,0,1,.41.6A2.18,2.18,0,0,1,373.06,141.27Zm-3.46,2.47a1,1,0,0,0,.06.35.8.8,0,0,0,.2.28,1,1,0,0,0,.33.17,1.68,1.68,0,0,0,.47.06,2.73,2.73,0,0,0,.41,0,2.44,2.44,0,0,0,.39-.07l.37-.13.36-.19v-1.37h-.92a3.49,3.49,0,0,0-.77.07,1.49,1.49,0,0,0-.52.2.82.82,0,0,0-.29.3A.85.85,0,0,0,369.6,143.74Z" style="fill:#4d4d4d"/><path d="M378,139.47l-.11.9-.18,0-.16,0-.15,0h-.18a1.33,1.33,0,0,0-.28,0,1.53,1.53,0,0,0-.27.11,2,2,0,0,0-.28.19,3.56,3.56,0,0,0-.31.28v4.44h-.91V139.5l.9-.07v.68a3.4,3.4,0,0,1,.32-.33,1.79,1.79,0,0,1,.31-.22,1.2,1.2,0,0,1,.31-.13,1.06,1.06,0,0,1,.31,0h.34l.16,0Z" style="fill:#4d4d4d"/><path d="M383,145.33v-3.85a1.42,1.42,0,0,0-.09-.52,1,1,0,0,0-.25-.39,1.13,1.13,0,0,0-.41-.25,1.64,1.64,0,0,0-.56-.09l-.37,0-.34.05-.34.09-.36.14v4.8h-.91V139.5l.88-.07v.39c.13-.08.27-.14.39-.2l.38-.13.39-.08.45,0a2.61,2.61,0,0,1,.87.13,1.76,1.76,0,0,1,.65.39,1.48,1.48,0,0,1,.4.62,2.76,2.76,0,0,1,.13.85v4Z" style="fill:#4d4d4d"/><path d="M370,152a2.1,2.1,0,1,1,2.09-2.1A2.1,2.1,0,0,1,370,152Zm0-3.69a1.6,1.6,0,1,0,1.59,1.59A1.59,1.59,0,0,0,370,148.33Z" style="fill:#8b8f9e"/><path d="M365.82,113.41h-2.21v-7.88h2a4.5,4.5,0,0,1,1.16.14,2.38,2.38,0,0,1,.83.4,1.63,1.63,0,0,1,.5.61,1.92,1.92,0,0,1,.16.81,2.35,2.35,0,0,1-.07.62,1.75,1.75,0,0,1-.21.5,1.46,1.46,0,0,1-.34.36,2.37,2.37,0,0,1-.47.26v0a2.23,2.23,0,0,1,.61.25,1.38,1.38,0,0,1,.44.39,1.51,1.51,0,0,1,.27.52,2.15,2.15,0,0,1,.09.64,2.55,2.55,0,0,1-.18,1,1.87,1.87,0,0,1-.53.74,2.38,2.38,0,0,1-.88.46A4,4,0,0,1,365.82,113.41Zm-.25-7.07h-1V109h1a3,3,0,0,0,.78-.08,1.35,1.35,0,0,0,.54-.25,1,1,0,0,0,.31-.43,1.62,1.62,0,0,0,.11-.61,1.25,1.25,0,0,0-.11-.53.85.85,0,0,0-.31-.39,1.69,1.69,0,0,0-.54-.24A3.53,3.53,0,0,0,365.57,106.34Zm0,3.42h-1v2.84h1.23a3.12,3.12,0,0,0,.79-.09,1.66,1.66,0,0,0,.58-.29,1.31,1.31,0,0,0,.35-.46,1.52,1.52,0,0,0,.12-.62,1.6,1.6,0,0,0-.11-.6,1,1,0,0,0-.35-.43,2,2,0,0,0-.65-.26A4.54,4.54,0,0,0,365.54,109.76Z" style="fill:#4d4d4d"/><path d="M371.37,107.5v3.89a1.53,1.53,0,0,0,.09.54,1.07,1.07,0,0,0,.24.4,1.27,1.27,0,0,0,.41.24,1.82,1.82,0,0,0,.55.08l.38,0,.32,0,.31-.09.37-.14v-4.78l.91-.07v5.91h-.89v-.36a2.61,2.61,0,0,1-.37.19,2.35,2.35,0,0,1-.37.14l-.39.08a2.9,2.9,0,0,1-.43,0,2.63,2.63,0,0,1-.88-.13A1.58,1.58,0,0,1,371,113a1.68,1.68,0,0,1-.39-.63,2.83,2.83,0,0,1-.13-.86v-3.92Z" style="fill:#4d4d4d"/><path d="M380.73,113.41v-3.86a1.6,1.6,0,0,0-.08-.51,1.14,1.14,0,0,0-.25-.39,1.17,1.17,0,0,0-.42-.25,1.59,1.59,0,0,0-.55-.09h-.38c-.11,0-.22,0-.33.06a2.14,2.14,0,0,0-.34.09,2.4,2.4,0,0,0-.36.14v4.8h-.91v-5.84l.88-.07v.4a2.4,2.4,0,0,1,.39-.2,3.43,3.43,0,0,1,.38-.13,2.24,2.24,0,0,1,.39-.08,3,3,0,0,1,.44,0,2.67,2.67,0,0,1,.88.13,1.75,1.75,0,0,1,.65.38,1.56,1.56,0,0,1,.39.63,2.44,2.44,0,0,1,.14.85v4Z" style="fill:#4d4d4d"/><path d="M383.25,113.29v-.83l.41.1.41.07.43,0H385a2.32,2.32,0,0,0,.55-.06,1.66,1.66,0,0,0,.4-.18.77.77,0,0,0,.26-.28.86.86,0,0,0,.08-.36,1.06,1.06,0,0,0-.05-.31.69.69,0,0,0-.18-.24,1.12,1.12,0,0,0-.3-.2,3.28,3.28,0,0,0-.45-.17l-.69-.2a2.56,2.56,0,0,1-.53-.22,1.27,1.27,0,0,1-.39-.33,1.44,1.44,0,0,1-.24-.42,1.51,1.51,0,0,1-.09-.53,1.53,1.53,0,0,1,.15-.67,1.75,1.75,0,0,1,.43-.55,2.31,2.31,0,0,1,.68-.36,3,3,0,0,1,.87-.12h.39c.13,0,.25,0,.36,0l.34,0a1.65,1.65,0,0,1,.32.06l-.09.79-.34-.06-.32,0h-.7a2.12,2.12,0,0,0-.52.06,1.21,1.21,0,0,0-.38.17.71.71,0,0,0-.23.26.72.72,0,0,0-.08.32.94.94,0,0,0,.05.3.54.54,0,0,0,.15.22,1.21,1.21,0,0,0,.25.17,1.68,1.68,0,0,0,.38.14l.68.18a3.65,3.65,0,0,1,.62.24,2.2,2.2,0,0,1,.44.33,1.17,1.17,0,0,1,.26.42,1.44,1.44,0,0,1,.09.51,1.88,1.88,0,0,1-.16.76,1.79,1.79,0,0,1-.46.6,2,2,0,0,1-.7.39,2.94,2.94,0,0,1-.91.14h-.46l-.42,0-.38-.06Z" style="fill:#4d4d4d"/><path d="M392.41,107.61l-.11.83-.32-.07-.27-.05-.27,0h-.29a1.57,1.57,0,0,0-.68.15,1.5,1.5,0,0,0-.56.42,2.23,2.23,0,0,0-.38.68,2.84,2.84,0,0,0-.13.9,3.26,3.26,0,0,0,.13,1,1.92,1.92,0,0,0,.39.69,1.46,1.46,0,0,0,.57.39,1.88,1.88,0,0,0,.72.13h.32l.31,0a2.47,2.47,0,0,0,.29-.06l.29-.07v.83l-.31.08-.3.05-.33,0h-.38a3,3,0,0,1-1.07-.18,2.06,2.06,0,0,1-.83-.54,2.49,2.49,0,0,1-.55-.94,4.15,4.15,0,0,1-.2-1.34,3.38,3.38,0,0,1,.22-1.27,2.9,2.9,0,0,1,.6-1,2.35,2.35,0,0,1,.87-.6,2.78,2.78,0,0,1,1-.2h.33l.3,0,.29,0Z" style="fill:#4d4d4d"/><path d="M397.57,113.41v-3.86a1.6,1.6,0,0,0-.08-.51,1.16,1.16,0,0,0-.26-.39,1.13,1.13,0,0,0-.41-.25,1.64,1.64,0,0,0-.56-.09h-.38a3.23,3.23,0,0,0-.33.06,2,2,0,0,0-.33.09,2.4,2.4,0,0,0-.36.14v4.8H394v-8.32l.91-.07v2.85a3.39,3.39,0,0,1,.39-.18,2.32,2.32,0,0,1,.37-.13l.38-.07a3,3,0,0,1,.43,0,2.57,2.57,0,0,1,.87.13,1.67,1.67,0,0,1,.65.38,1.58,1.58,0,0,1,.4.63,2.45,2.45,0,0,1,.13.85v4Z" style="fill:#4d4d4d"/><path d="M405.5,110.41a3.57,3.57,0,0,1-.22,1.29,3.07,3.07,0,0,1-.59,1,2.45,2.45,0,0,1-.88.61,2.66,2.66,0,0,1-1.05.21,3,3,0,0,1-1.06-.18,2.17,2.17,0,0,1-.81-.57,2.6,2.6,0,0,1-.51-.93,4.17,4.17,0,0,1-.18-1.28,3.9,3.9,0,0,1,.21-1.3,2.89,2.89,0,0,1,.6-1,2.64,2.64,0,0,1,.87-.61,2.43,2.43,0,0,1,1-.22,2.83,2.83,0,0,1,1.07.19,2.13,2.13,0,0,1,.81.57,2.33,2.33,0,0,1,.52.93A4.19,4.19,0,0,1,405.5,110.41Zm-.95,0a4,4,0,0,0-.11-1,1.94,1.94,0,0,0-.34-.69,1.58,1.58,0,0,0-.54-.42,1.81,1.81,0,0,0-.72-.14,1.46,1.46,0,0,0-.69.16,1.42,1.42,0,0,0-.54.44,2.2,2.2,0,0,0-.35.72,3.86,3.86,0,0,0,0,1.91,2,2,0,0,0,.33.7,1.44,1.44,0,0,0,.54.41,1.9,1.9,0,0,0,.73.14,1.39,1.39,0,0,0,.68-.16,1.45,1.45,0,0,0,.54-.45,2,2,0,0,0,.35-.72A3.4,3.4,0,0,0,404.55,110.44Z" style="fill:#4d4d4d"/><path d="M406.77,108.27v-.73h.71v-1l.91-.14v1.17h1.54v.73h-1.54v3.32a1.43,1.43,0,0,0,.07.48.86.86,0,0,0,.19.34.88.88,0,0,0,.3.2,1.06,1.06,0,0,0,.37.06h.2l.19,0,.19,0,.21,0v.77l-.27.06-.25,0-.24,0h-.27a1.81,1.81,0,0,1-.63-.1,1.24,1.24,0,0,1-.5-.31,1.41,1.41,0,0,1-.35-.57,2.7,2.7,0,0,1-.12-.86v-3.37Z" style="fill:#4d4d4d"/><path d="M411.16,110.48a4.35,4.35,0,0,1,.19-1.31,2.94,2.94,0,0,1,.52-1,2.22,2.22,0,0,1,.79-.58,2.39,2.39,0,0,1,1-.2,2.73,2.73,0,0,1,.94.15,1.87,1.87,0,0,1,.71.45,2,2,0,0,1,.44.74,3.11,3.11,0,0,1,.15,1v.37c0,.06,0,.12,0,.18a.88.88,0,0,1,0,.17h-3.75a3.05,3.05,0,0,0,.13,1,1.93,1.93,0,0,0,.4.67,1.54,1.54,0,0,0,.59.38,2.11,2.11,0,0,0,.77.13,3.64,3.64,0,0,0,.48,0,3.11,3.11,0,0,0,.44-.06l.44-.11.43-.17v.82a3.35,3.35,0,0,1-.46.18l-.44.11a3.17,3.17,0,0,1-.46.07,4.63,4.63,0,0,1-.54,0,3.23,3.23,0,0,1-1.11-.18,2.16,2.16,0,0,1-.86-.55,2.48,2.48,0,0,1-.54-.93A4.46,4.46,0,0,1,411.16,110.48Zm.95-.71h2.76a2.76,2.76,0,0,0-.08-.68,1.38,1.38,0,0,0-.25-.5,1.15,1.15,0,0,0-.42-.3,1.6,1.6,0,0,0-.56-.09,1.12,1.12,0,0,0-.51.11,1.31,1.31,0,0,0-.44.31,1.48,1.48,0,0,0-.32.5A2.14,2.14,0,0,0,412.11,109.77Z" style="fill:#4d4d4d"/><path d="M421.2,113.41v-3.86a1.36,1.36,0,0,0-.09-.51,1,1,0,0,0-.25-.39,1.13,1.13,0,0,0-.41-.25,1.64,1.64,0,0,0-.56-.09h-.37a3.43,3.43,0,0,0-.34.06l-.34.09a2,2,0,0,0-.35.14v4.8h-.92v-5.84l.88-.07v.4a2.89,2.89,0,0,1,.39-.2,3.43,3.43,0,0,1,.38-.13,2.7,2.7,0,0,1,.39-.08,3.24,3.24,0,0,1,.45,0,2.61,2.61,0,0,1,.87.13,1.75,1.75,0,0,1,.65.38,1.58,1.58,0,0,1,.4.63,2.45,2.45,0,0,1,.13.85v4Z" style="fill:#4d4d4d"/><path d="M424,110.39v-.84h3.11v.84Z" style="fill:#4d4d4d"/><path d="M428.85,113.31v-.89l.51.1.46.07.45,0h.47a2.59,2.59,0,0,0,.76-.1,2,2,0,0,0,.6-.28,1.2,1.2,0,0,0,.37-.44,1.33,1.33,0,0,0,.13-.57,1.5,1.5,0,0,0-.07-.44.94.94,0,0,0-.22-.35,1.27,1.27,0,0,0-.38-.29,3.84,3.84,0,0,0-.57-.26l-1-.33a2.68,2.68,0,0,1-.59-.28,2.28,2.28,0,0,1-.46-.41,1.94,1.94,0,0,1-.29-.53,1.91,1.91,0,0,1-.1-.64,2.12,2.12,0,0,1,.19-.91,2.1,2.1,0,0,1,.55-.71,2.59,2.59,0,0,1,.87-.47,3.56,3.56,0,0,1,1.12-.17h.44l.4,0,.38.05.37.07-.1.85-.38-.07-.37,0-.38,0h-.42a2.39,2.39,0,0,0-.73.1,1.6,1.6,0,0,0-.54.26,1.14,1.14,0,0,0-.34.39,1.09,1.09,0,0,0-.11.51,1.22,1.22,0,0,0,.06.41.92.92,0,0,0,.19.33,1.43,1.43,0,0,0,.33.25,2.16,2.16,0,0,0,.48.21l1,.34a2.84,2.84,0,0,1,.7.32,1.71,1.71,0,0,1,.49.43,1.81,1.81,0,0,1,.29.55,2.4,2.4,0,0,1,.09.69,2.22,2.22,0,0,1-.2,1,2.17,2.17,0,0,1-.58.76,2.49,2.49,0,0,1-.91.49,4,4,0,0,1-1.19.17h-.48l-.45,0-.43,0Z" style="fill:#4d4d4d"/><path d="M435.42,115.7v-8.13l.87-.07v.37l.37-.17a2.43,2.43,0,0,1,.38-.13,2.36,2.36,0,0,1,.4-.08,3.1,3.1,0,0,1,.44,0,2.59,2.59,0,0,1,1,.17,1.94,1.94,0,0,1,.76.53,2.48,2.48,0,0,1,.49.91,4.39,4.39,0,0,1,.17,1.27,3.64,3.64,0,0,1-.23,1.31,2.67,2.67,0,0,1-.63,1,2.82,2.82,0,0,1-1,.62,3.56,3.56,0,0,1-1.25.21h-.44l-.2,0-.21,0v2.31Zm1.89-3a2.16,2.16,0,0,0,.81-.14,1.82,1.82,0,0,0,1.06-1.13,3,3,0,0,0,.15-1,3.4,3.4,0,0,0-.12-1,2.06,2.06,0,0,0-.34-.66,1.34,1.34,0,0,0-.54-.37,2.11,2.11,0,0,0-.73-.12h-.32l-.32.06-.31.09a1.73,1.73,0,0,0-.32.14v4l.25,0,.24,0,.24,0Z" style="fill:#4d4d4d"/><path d="M446.06,109.35v4.06h-.85V113a3.42,3.42,0,0,1-.42.22,2.74,2.74,0,0,1-.4.15,2,2,0,0,1-.42.08,3.84,3.84,0,0,1-.5,0,2.29,2.29,0,0,1-.76-.12,1.59,1.59,0,0,1-.57-.32,1.39,1.39,0,0,1-.37-.5,1.71,1.71,0,0,1-.13-.65,1.51,1.51,0,0,1,.17-.7,1.65,1.65,0,0,1,.5-.56,2.54,2.54,0,0,1,.83-.37,4.47,4.47,0,0,1,1.16-.13h.88v-.63a1.39,1.39,0,0,0-.08-.52,1,1,0,0,0-.25-.38,1,1,0,0,0-.42-.23,2.12,2.12,0,0,0-.59-.07,2.82,2.82,0,0,0-.41,0l-.42.07-.44.12-.45.17-.19-.77.52-.21a3.32,3.32,0,0,1,.49-.14,3.85,3.85,0,0,1,.49-.08,4.7,4.7,0,0,1,.54,0,3.06,3.06,0,0,1,.9.12,1.87,1.87,0,0,1,.65.37,1.51,1.51,0,0,1,.4.59A2.24,2.24,0,0,1,446.06,109.35Zm-3.47,2.47a.84.84,0,0,0,.07.35.66.66,0,0,0,.2.27.86.86,0,0,0,.33.17,1.6,1.6,0,0,0,.46.06,2.82,2.82,0,0,0,.42,0,3,3,0,0,0,.75-.21,3,3,0,0,0,.36-.18v-1.37h-.91a4.13,4.13,0,0,0-.77.07,1.54,1.54,0,0,0-.53.21.76.76,0,0,0-.38.68Z" style="fill:#4d4d4d"/><path d="M449.05,110.6v2.81h-.91v-8.32l.91-.07v4.77h.53l2-2.25h1.12l-2.28,2.52,2.48,3.35h-1.14l-2.06-2.81Z" style="fill:#4d4d4d"/><path d="M453.52,110.48a4.35,4.35,0,0,1,.19-1.31,2.76,2.76,0,0,1,.52-1,2.22,2.22,0,0,1,.79-.58,2.39,2.39,0,0,1,1-.2,2.73,2.73,0,0,1,.94.15,1.87,1.87,0,0,1,.71.45,2,2,0,0,1,.44.74,3.11,3.11,0,0,1,.15,1v.37c0,.06,0,.12,0,.18a.88.88,0,0,1,0,.17h-3.75a3.05,3.05,0,0,0,.13,1,1.93,1.93,0,0,0,.4.67,1.47,1.47,0,0,0,.59.38,2.11,2.11,0,0,0,.77.13,3.87,3.87,0,0,0,.48,0,3.11,3.11,0,0,0,.44-.06l.44-.11.43-.17v.82a3.35,3.35,0,0,1-.46.18l-.44.11a3.31,3.31,0,0,1-.47.07,4.33,4.33,0,0,1-.53,0,3.23,3.23,0,0,1-1.11-.18,2.16,2.16,0,0,1-.86-.55,2.36,2.36,0,0,1-.54-.93A4.46,4.46,0,0,1,453.52,110.48Zm1-.71h2.76a2.76,2.76,0,0,0-.08-.68,1.38,1.38,0,0,0-.25-.5,1.15,1.15,0,0,0-.42-.3,1.6,1.6,0,0,0-.56-.09,1.12,1.12,0,0,0-.51.11,1.31,1.31,0,0,0-.44.31,1.48,1.48,0,0,0-.32.5A2.14,2.14,0,0,0,454.47,109.77Z" style="fill:#4d4d4d"/><path d="M463.56,113.41v-3.86a1.36,1.36,0,0,0-.09-.51,1,1,0,0,0-.25-.39,1.13,1.13,0,0,0-.41-.25,1.64,1.64,0,0,0-.56-.09h-.37a3.43,3.43,0,0,0-.34.06l-.34.09a2.4,2.4,0,0,0-.36.14v4.8h-.91v-5.84l.88-.07v.4a2.89,2.89,0,0,1,.39-.2,3.43,3.43,0,0,1,.38-.13,2.7,2.7,0,0,1,.39-.08,3.24,3.24,0,0,1,.45,0,2.61,2.61,0,0,1,.87.13,1.75,1.75,0,0,1,.65.38,1.58,1.58,0,0,1,.4.63,2.71,2.71,0,0,1,.13.85v4Z" style="fill:#4d4d4d"/><path d="M471.4,110.3a3.81,3.81,0,0,1-.22,1.34,2.84,2.84,0,0,1-.63,1,2.75,2.75,0,0,1-1,.63,3.56,3.56,0,0,1-1.25.21h-.45l-.42,0a3.42,3.42,0,0,1-.44,0l-.47-.06v-8.26l.92-.07v2.84a3.14,3.14,0,0,1,.37-.18,2.78,2.78,0,0,1,.38-.12l.39-.07a2.55,2.55,0,0,1,.4,0,2.64,2.64,0,0,1,1,.17,2,2,0,0,1,.76.53,2.45,2.45,0,0,1,.49.89A4.19,4.19,0,0,1,471.4,110.3Zm-.94.08a3.18,3.18,0,0,0-.12-.93,1.68,1.68,0,0,0-.35-.65,1.22,1.22,0,0,0-.54-.37,2,2,0,0,0-.72-.12h-.33l-.31.06a1.81,1.81,0,0,0-.31.09l-.32.14v4l.25,0,.24,0h.49a2.32,2.32,0,0,0,.8-.13,1.79,1.79,0,0,0,1.07-1.14A3.17,3.17,0,0,0,470.46,110.38Z" style="fill:#4d4d4d"/><path d="M474,107.5v3.89a1.53,1.53,0,0,0,.09.54,1,1,0,0,0,.24.4,1.22,1.22,0,0,0,.4.24,1.89,1.89,0,0,0,.56.08l.38,0,.32,0,.3-.09.38-.14v-4.78l.91-.07v5.91h-.89v-.36a2.61,2.61,0,0,1-.37.19,2.35,2.35,0,0,1-.37.14l-.39.08a2.9,2.9,0,0,1-.43,0,2.59,2.59,0,0,1-.88-.13,1.58,1.58,0,0,1-.64-.38,1.68,1.68,0,0,1-.39-.63,2.55,2.55,0,0,1-.13-.86v-3.92Z" style="fill:#4d4d4d"/><path d="M482.6,107.55l-.11.9-.18,0-.16,0-.16,0h-.17a1.26,1.26,0,0,0-.28,0,1,1,0,0,0-.27.11l-.28.18a3.85,3.85,0,0,0-.31.29v4.44h-.91v-5.84l.9-.07v.69a3.4,3.4,0,0,1,.32-.33,1.9,1.9,0,0,1,.31-.23,1.88,1.88,0,0,1,.3-.12,1.17,1.17,0,0,1,.32,0h.34l.16,0Z" style="fill:#4d4d4d"/><path d="M484.7,112a.45.45,0,0,0,0,.2.37.37,0,0,0,.13.15.45.45,0,0,0,.23.1,1.06,1.06,0,0,0,.33,0l1.57,0a2.53,2.53,0,0,1,.72.11,1.39,1.39,0,0,1,.5.26,1.08,1.08,0,0,1,.3.4,1.36,1.36,0,0,1,.09.51,1.85,1.85,0,0,1-.17.78,1.7,1.7,0,0,1-.53.61,2.44,2.44,0,0,1-.89.41,4.5,4.5,0,0,1-1.23.15,4.22,4.22,0,0,1-1-.11,2.35,2.35,0,0,1-.75-.31,1.46,1.46,0,0,1-.47-.49,1.23,1.23,0,0,1-.16-.63,1.06,1.06,0,0,1,.07-.38,1.2,1.2,0,0,1,.2-.37,2.27,2.27,0,0,1,.31-.31,2.08,2.08,0,0,1,.38-.22v-.05a.76.76,0,0,1-.19-.12.57.57,0,0,1-.15-.16,2,2,0,0,1-.1-.21.88.88,0,0,1,0-.24.78.78,0,0,1,0-.26,1,1,0,0,1,.33-.43.94.94,0,0,1,.26-.14v0a1.9,1.9,0,0,1-.37-.26,1.39,1.39,0,0,1-.28-.35,1.7,1.7,0,0,1-.18-.46,2.29,2.29,0,0,1-.07-.55,2.63,2.63,0,0,1,.16-.91,1.82,1.82,0,0,1,.46-.69,2,2,0,0,1,.75-.43,3,3,0,0,1,1-.15h.24l.24,0,.23,0,.19,0h1.8v.69h-1.1v0a.8.8,0,0,1,.23.22,1.75,1.75,0,0,1,.18.29,1.09,1.09,0,0,1,.12.36,1.74,1.74,0,0,1,.05.39,2.24,2.24,0,0,1-.17.89,1.54,1.54,0,0,1-.47.63,2.18,2.18,0,0,1-.76.39,3.56,3.56,0,0,1-1,.13h-.34l-.17,0-.15,0-.15.07-.12.11-.08.13A.4.4,0,0,0,484.7,112Zm-.46,2.09a.77.77,0,0,0,.11.39,1,1,0,0,0,.32.3,2,2,0,0,0,.51.19,3.58,3.58,0,0,0,.7.06,4.51,4.51,0,0,0,.87-.07,2.1,2.1,0,0,0,.6-.21,1,1,0,0,0,.34-.32.78.78,0,0,0,.07-.69.39.39,0,0,0-.16-.2,1,1,0,0,0-.28-.13,2.22,2.22,0,0,0-.42-.06l-2-.09a1.15,1.15,0,0,0-.27.14.91.91,0,0,0-.21.18.56.56,0,0,0-.12.23A.87.87,0,0,0,484.24,114.07Zm1.61-3.16a2.22,2.22,0,0,0,.62-.08,1,1,0,0,0,.69-.68,2,2,0,0,0,.08-.64,1.7,1.7,0,0,0-.09-.57,1,1,0,0,0-.26-.4,1.27,1.27,0,0,0-.42-.25,1.89,1.89,0,0,0-.56-.08,1.94,1.94,0,0,0-.56.08,1.24,1.24,0,0,0-.43.26,1.12,1.12,0,0,0-.27.43,1.8,1.8,0,0,0-.09.6,1.89,1.89,0,0,0,.09.62,1.13,1.13,0,0,0,.27.41,1,1,0,0,0,.41.23A1.72,1.72,0,0,0,485.85,110.91Z" style="fill:#4d4d4d"/><path d="M425.82,120.1a2.1,2.1,0,1,1,2.1-2.1A2.11,2.11,0,0,1,425.82,120.1Zm0-3.7a1.6,1.6,0,1,0,1.6,1.6A1.6,1.6,0,0,0,425.82,116.4Z" style="fill:#8b8f9e"/><path d="M286.16,235.12H284v-7.88h2a4.36,4.36,0,0,1,1.15.14,2.43,2.43,0,0,1,.84.4,1.63,1.63,0,0,1,.5.61,2.09,2.09,0,0,1,.16.81,2.86,2.86,0,0,1-.07.62,1.75,1.75,0,0,1-.21.5,1.7,1.7,0,0,1-.35.36,2,2,0,0,1-.46.26v0a2.22,2.22,0,0,1,.61.24,1.68,1.68,0,0,1,.44.4,1.51,1.51,0,0,1,.27.52,2.15,2.15,0,0,1,.09.64,2.55,2.55,0,0,1-.18,1,2,2,0,0,1-.53.74,2.38,2.38,0,0,1-.88.46A4,4,0,0,1,286.16,235.12Zm-.26-7.07h-1v2.61h1a3.05,3.05,0,0,0,.79-.08,1.5,1.5,0,0,0,.54-.25,1,1,0,0,0,.31-.43,1.66,1.66,0,0,0,.1-.61,1.25,1.25,0,0,0-.1-.53.92.92,0,0,0-.31-.39,1.69,1.69,0,0,0-.54-.24A3.56,3.56,0,0,0,285.9,228.05Zm0,3.42h-1v2.84h1.23a3.12,3.12,0,0,0,.79-.09,1.53,1.53,0,0,0,.57-.29,1.23,1.23,0,0,0,.36-.46,1.52,1.52,0,0,0,.12-.62,1.6,1.6,0,0,0-.11-.6,1,1,0,0,0-.35-.43,2,2,0,0,0-.65-.26A4.61,4.61,0,0,0,285.88,231.47Z" style="fill:#4d4d4d"/><path d="M290.75,227.33a1,1,0,0,1,0-.25.47.47,0,0,1,.12-.18.76.76,0,0,1,.19-.12.74.74,0,0,1,.48,0,.57.57,0,0,1,.18.12.33.33,0,0,1,.11.18.62.62,0,0,1,.05.25.6.6,0,0,1-.05.24.42.42,0,0,1-.11.18.54.54,0,0,1-.18.11.74.74,0,0,1-.48,0,.72.72,0,0,1-.19-.11.57.57,0,0,1-.12-.18A.86.86,0,0,1,290.75,227.33Zm1.05,1.88v5.91h-.92v-5.84Z" style="fill:#4d4d4d"/><path d="M294.87,226.73v8.39H294V226.8Z" style="fill:#4d4d4d"/><path d="M296.5,230v-.73h.71v-1l.91-.14v1.17h1.54V230h-1.54v3.32a1.43,1.43,0,0,0,.07.48.75.75,0,0,0,.19.34.84.84,0,0,0,.29.2,1.1,1.1,0,0,0,.37.06h.21l.18,0,.2,0,.21,0v.77l-.27.06-.25,0-.24,0h-.27a1.81,1.81,0,0,1-.63-.1,1.35,1.35,0,0,1-.51-.31,1.47,1.47,0,0,1-.34-.57,2.75,2.75,0,0,1-.12-.86V230Z" style="fill:#4d4d4d"/><path d="M304.88,235.12v-3.86a1.36,1.36,0,0,0-.09-.51,1,1,0,0,0-.25-.39,1.13,1.13,0,0,0-.41-.25,1.64,1.64,0,0,0-.56-.09h-.38a3.43,3.43,0,0,0-.34.06l-.33.09a2.4,2.4,0,0,0-.36.14v4.8h-.91V226.8l.91-.07v2.85l.39-.18a2.84,2.84,0,0,1,.38-.13l.38-.07a2.89,2.89,0,0,1,.43,0,2.61,2.61,0,0,1,.87.13,1.75,1.75,0,0,1,.65.38,1.58,1.58,0,0,1,.4.63,2.71,2.71,0,0,1,.13.85v4Z" style="fill:#4d4d4d"/><path d="M312.81,232.12a3.57,3.57,0,0,1-.22,1.29,3.07,3.07,0,0,1-.59,1,2.54,2.54,0,0,1-.88.61,2.66,2.66,0,0,1-1.05.21A3,3,0,0,1,309,235a2,2,0,0,1-.81-.57,2.62,2.62,0,0,1-.52-.93,4.17,4.17,0,0,1-.18-1.28,3.9,3.9,0,0,1,.22-1.3,2.64,2.64,0,0,1,1.46-1.6,2.5,2.5,0,0,1,1.05-.22,2.83,2.83,0,0,1,1.07.19,2.13,2.13,0,0,1,.81.57,2.33,2.33,0,0,1,.52.93A4.19,4.19,0,0,1,312.81,232.12Zm-.95,0a4,4,0,0,0-.11-1,1.94,1.94,0,0,0-.34-.69,1.47,1.47,0,0,0-.54-.42,1.83,1.83,0,0,0-.73-.14,1.45,1.45,0,0,0-.68.16,1.34,1.34,0,0,0-.54.44,2.2,2.2,0,0,0-.35.72,3.86,3.86,0,0,0,0,1.91,1.71,1.71,0,0,0,.33.69,1.37,1.37,0,0,0,.54.42,1.86,1.86,0,0,0,.73.14,1.42,1.42,0,0,0,.68-.16,1.45,1.45,0,0,0,.54-.45,2.2,2.2,0,0,0,.35-.72A3.4,3.4,0,0,0,311.86,232.15Z" style="fill:#4d4d4d"/><path d="M315.88,235.12l-2-5.87h1l1.61,5h.06l1.53-5H319l-2,5.87Z" style="fill:#4d4d4d"/><path d="M320,232.19a4.35,4.35,0,0,1,.19-1.31,2.76,2.76,0,0,1,.52-1,2.22,2.22,0,0,1,.79-.58,2.39,2.39,0,0,1,1-.2,2.73,2.73,0,0,1,.94.15,1.87,1.87,0,0,1,.71.45,2,2,0,0,1,.44.74,3.11,3.11,0,0,1,.15,1v.37c0,.06,0,.12,0,.18a.88.88,0,0,1,0,.17H321a3.05,3.05,0,0,0,.13,1,1.79,1.79,0,0,0,.4.66,1.39,1.39,0,0,0,.59.39,2.11,2.11,0,0,0,.77.13,3.87,3.87,0,0,0,.48,0,3.11,3.11,0,0,0,.44-.06,3.6,3.6,0,0,0,.44-.12,3.75,3.75,0,0,0,.43-.16v.82a3.35,3.35,0,0,1-.46.18l-.44.11a3.31,3.31,0,0,1-.47.07,4.33,4.33,0,0,1-.53,0,3.23,3.23,0,0,1-1.11-.18,2.16,2.16,0,0,1-.86-.55,2.36,2.36,0,0,1-.54-.93A4.46,4.46,0,0,1,320,232.19Zm.95-.71h2.76a2.76,2.76,0,0,0-.08-.68,1.38,1.38,0,0,0-.25-.5,1.15,1.15,0,0,0-.42-.3,1.6,1.6,0,0,0-.56-.09,1.12,1.12,0,0,0-.51.11,1.31,1.31,0,0,0-.44.31,1.48,1.48,0,0,0-.32.5A2.14,2.14,0,0,0,321,231.48Z" style="fill:#4d4d4d"/><path d="M330.08,235.12v-3.86a1.36,1.36,0,0,0-.09-.51,1,1,0,0,0-.25-.39,1.13,1.13,0,0,0-.41-.25,1.64,1.64,0,0,0-.56-.09h-.37a3.43,3.43,0,0,0-.34.06l-.34.09a2.4,2.4,0,0,0-.36.14v4.8h-.91v-5.84l.88-.07v.4a2.89,2.89,0,0,1,.39-.2,3.43,3.43,0,0,1,.38-.13,2.7,2.7,0,0,1,.39-.08,3.24,3.24,0,0,1,.45,0,2.61,2.61,0,0,1,.87.13,1.75,1.75,0,0,1,.65.38,1.58,1.58,0,0,1,.4.63,2.71,2.71,0,0,1,.13.85v4Z" style="fill:#4d4d4d"/><path d="M307.44,241.81a2.1,2.1,0,1,1,2.1-2.1A2.1,2.1,0,0,1,307.44,241.81Zm0-3.7a1.6,1.6,0,1,0,1.6,1.6A1.6,1.6,0,0,0,307.44,238.11Z" style="fill:#8b8f9e"/><path d="M173.35,222.87h-.06l-.28,6.92h-.9l.37-7.87h1.44l2.09,5.21h.05l2.06-5.21h1.39l.38,7.87H179l-.3-6.92h-.06l-2.15,5.31h-.92Z" style="fill:#4d4d4d"/><path d="M186.15,225.74v4h-.86v-.4a3.32,3.32,0,0,1-.41.22,3.25,3.25,0,0,1-.4.15,2,2,0,0,1-.43.08,3.73,3.73,0,0,1-.5,0,2.19,2.19,0,0,1-.75-.12,1.55,1.55,0,0,1-.58-.32,1.36,1.36,0,0,1-.36-.5,1.54,1.54,0,0,1-.13-.65,1.51,1.51,0,0,1,.17-.7,1.65,1.65,0,0,1,.5-.56,2.49,2.49,0,0,1,.82-.37,4.52,4.52,0,0,1,1.16-.13h.89v-.63a1.62,1.62,0,0,0-.08-.52,1,1,0,0,0-.25-.38,1.06,1.06,0,0,0-.42-.23,2.1,2.1,0,0,0-.59-.08,3,3,0,0,0-.42,0,3.07,3.07,0,0,0-.42.07l-.43.12a4.13,4.13,0,0,0-.45.17l-.19-.77.52-.21A3,3,0,0,1,183,224a3.85,3.85,0,0,1,.49-.08,4.7,4.7,0,0,1,.54,0,3,3,0,0,1,.89.12,1.92,1.92,0,0,1,.66.37,1.54,1.54,0,0,1,.4.59A2.24,2.24,0,0,1,186.15,225.74Zm-3.47,2.46a1,1,0,0,0,.06.36.9.9,0,0,0,.2.27.84.84,0,0,0,.34.17,1.56,1.56,0,0,0,.46.06,3,3,0,0,0,.42,0,3,3,0,0,0,.75-.21l.36-.18v-1.38h-.92a3.55,3.55,0,0,0-.77.07,1.82,1.82,0,0,0-.52.2.85.85,0,0,0-.29.31A.78.78,0,0,0,182.68,228.2Z" style="fill:#4d4d4d"/><path d="M192.21,225.74v4h-.86v-.4a3.32,3.32,0,0,1-.41.22,3.25,3.25,0,0,1-.4.15,2,2,0,0,1-.43.08,3.73,3.73,0,0,1-.5,0,2.19,2.19,0,0,1-.75-.12,1.55,1.55,0,0,1-.58-.32,1.36,1.36,0,0,1-.36-.5,1.54,1.54,0,0,1-.13-.65,1.51,1.51,0,0,1,.17-.7,1.65,1.65,0,0,1,.5-.56,2.49,2.49,0,0,1,.82-.37,4.52,4.52,0,0,1,1.16-.13h.89v-.63a1.62,1.62,0,0,0-.08-.52A1,1,0,0,0,191,225a1.06,1.06,0,0,0-.42-.23,2.1,2.1,0,0,0-.59-.08,3,3,0,0,0-.42,0,3.07,3.07,0,0,0-.42.07l-.43.12a4.13,4.13,0,0,0-.45.17l-.19-.77.52-.21a3,3,0,0,1,.49-.14,3.85,3.85,0,0,1,.49-.08,4.7,4.7,0,0,1,.54,0,3,3,0,0,1,.89.12,1.92,1.92,0,0,1,.66.37,1.54,1.54,0,0,1,.4.59A2.24,2.24,0,0,1,192.21,225.74Zm-3.47,2.46a1,1,0,0,0,.06.36.9.9,0,0,0,.2.27.84.84,0,0,0,.34.17,1.56,1.56,0,0,0,.46.06,3,3,0,0,0,.42,0,3,3,0,0,0,.75-.21l.36-.18v-1.38h-.92a3.55,3.55,0,0,0-.77.07,1.82,1.82,0,0,0-.52.2.85.85,0,0,0-.29.31A.78.78,0,0,0,188.74,228.2Z" style="fill:#4d4d4d"/><path d="M197.11,223.94l-.1.9-.18,0a.51.51,0,0,0-.17,0l-.15,0h-.18a1.35,1.35,0,0,0-.28,0,1,1,0,0,0-.27.11l-.27.18a3.82,3.82,0,0,0-.32.29v4.43h-.91V224l.9-.07v.68q.16-.18.33-.33a1.91,1.91,0,0,1,.3-.22,1.66,1.66,0,0,1,.31-.12,1.1,1.1,0,0,1,.31,0h.34l.16,0Z" style="fill:#4d4d4d"/><path d="M198,229.68v-.83l.4.1.42.07.42,0h.45a2.26,2.26,0,0,0,.55-.06,1.74,1.74,0,0,0,.41-.18.83.83,0,0,0,.25-.28.73.73,0,0,0,.08-.36.81.81,0,0,0,0-.31.66.66,0,0,0-.17-.24,1.18,1.18,0,0,0-.31-.2,2.51,2.51,0,0,0-.45-.17l-.68-.2a2.65,2.65,0,0,1-.54-.22,1.55,1.55,0,0,1-.39-.33,1.44,1.44,0,0,1-.24-.42,1.78,1.78,0,0,1-.08-.53,1.53,1.53,0,0,1,.15-.67,1.62,1.62,0,0,1,.43-.55,2.26,2.26,0,0,1,.67-.36,3.07,3.07,0,0,1,.88-.12h.39a2,2,0,0,1,.35,0l.35,0a1.8,1.8,0,0,1,.32.06l-.1.79-.34-.06-.32,0h-.7a2,2,0,0,0-.51.06,1.39,1.39,0,0,0-.39.17.71.71,0,0,0-.23.26.72.72,0,0,0-.08.32.94.94,0,0,0,.05.3.62.62,0,0,0,.15.22,1.06,1.06,0,0,0,.26.17,1.59,1.59,0,0,0,.37.14l.68.18a3.35,3.35,0,0,1,.62.24,1.94,1.94,0,0,1,.44.33,1.37,1.37,0,0,1,.27.42,1.7,1.7,0,0,1,.08.51,1.73,1.73,0,0,1-.16.76,1.79,1.79,0,0,1-.46.6,2,2,0,0,1-.7.39,2.93,2.93,0,0,1-.9.14h-.47l-.41,0-.39-.06Z" style="fill:#4d4d4d"/><path d="M203.11,229.68v-.83l.41.1.42.07.42,0h.45a2.32,2.32,0,0,0,.55-.06,2,2,0,0,0,.41-.18.83.83,0,0,0,.25-.28.86.86,0,0,0,.08-.36,1.06,1.06,0,0,0,0-.31.69.69,0,0,0-.18-.24,1.12,1.12,0,0,0-.3-.2,3.28,3.28,0,0,0-.45-.17l-.69-.2a2.56,2.56,0,0,1-.53-.22,1.27,1.27,0,0,1-.39-.33,1.44,1.44,0,0,1-.24-.42,1.51,1.51,0,0,1-.08-.53,1.53,1.53,0,0,1,.15-.67,1.62,1.62,0,0,1,.43-.55,2.14,2.14,0,0,1,.67-.36,3,3,0,0,1,.88-.12h.38a2,2,0,0,1,.36,0l.34,0a1.91,1.91,0,0,1,.33.06l-.1.79-.34-.06-.32,0h-.7a2,2,0,0,0-.51.06,1.28,1.28,0,0,0-.39.17.71.71,0,0,0-.23.26.72.72,0,0,0-.08.32.94.94,0,0,0,.05.3.62.62,0,0,0,.15.22,1.06,1.06,0,0,0,.26.17,1.43,1.43,0,0,0,.37.14l.68.18a3.65,3.65,0,0,1,.62.24,2.2,2.2,0,0,1,.44.33,1.17,1.17,0,0,1,.26.42,1.44,1.44,0,0,1,.09.51,1.88,1.88,0,0,1-.16.76,1.79,1.79,0,0,1-.46.6,2,2,0,0,1-.7.39,2.94,2.94,0,0,1-.91.14h-.46l-.42,0-.38-.06Z" style="fill:#4d4d4d"/><path d="M208.31,226.87a4.06,4.06,0,0,1,.19-1.31,2.76,2.76,0,0,1,.52-1,2.13,2.13,0,0,1,.79-.58,2.38,2.38,0,0,1,.95-.2,2.79,2.79,0,0,1,1,.15,1.76,1.76,0,0,1,.7.45,1.83,1.83,0,0,1,.44.74,3.11,3.11,0,0,1,.15,1v.55c0,.06,0,.12,0,.17h-3.76a3,3,0,0,0,.14,1,1.66,1.66,0,0,0,.39.66,1.49,1.49,0,0,0,.6.39,2.06,2.06,0,0,0,.76.13,3.64,3.64,0,0,0,.48,0,3.25,3.25,0,0,0,.45-.06,3.45,3.45,0,0,0,.43-.12,3.89,3.89,0,0,0,.44-.16v.82a3.93,3.93,0,0,1-.46.18l-.44.11a3.54,3.54,0,0,1-.47.07,4.33,4.33,0,0,1-.53,0,3.33,3.33,0,0,1-1.12-.18,2.12,2.12,0,0,1-.85-.55,2.22,2.22,0,0,1-.54-.94A4.1,4.1,0,0,1,208.31,226.87Zm.95-.71H212a2.33,2.33,0,0,0-.09-.68,1.18,1.18,0,0,0-.25-.5,1.12,1.12,0,0,0-.41-.3,1.64,1.64,0,0,0-.56-.09,1.3,1.3,0,0,0-.52.1,1.46,1.46,0,0,0-.43.32,1.5,1.5,0,0,0-.33.5A2.47,2.47,0,0,0,209.26,226.16Z" style="fill:#4d4d4d"/><path d="M218.34,229.79v-3.85a1.6,1.6,0,0,0-.08-.51A1,1,0,0,0,218,225a1.36,1.36,0,0,0-.42-.26,1.88,1.88,0,0,0-.56-.09l-.37,0-.33.06a1.89,1.89,0,0,0-.34.09l-.36.13v4.8h-.91V224l.87-.07v.4a3,3,0,0,1,.4-.2,2.84,2.84,0,0,1,.38-.13,2.24,2.24,0,0,1,.39-.08,3,3,0,0,1,.44,0,2.67,2.67,0,0,1,.88.13,1.69,1.69,0,0,1,.65.38,1.72,1.72,0,0,1,.39.62,2.55,2.55,0,0,1,.13.86v3.94Z" style="fill:#4d4d4d"/><path d="M195.7,236.49a2.1,2.1,0,1,1,2.1-2.1A2.1,2.1,0,0,1,195.7,236.49Zm0-3.7a1.6,1.6,0,1,0,1.6,1.6A1.6,1.6,0,0,0,195.7,232.79Z" style="fill:#8b8f9e"/><path d="M114.23,203.3h1v3.43h.67l2.81-3.43h1.11L116.7,207l3.16,4.15h-1.23l-2.75-3.6h-.7v3.6h-1Z" style="fill:#4d4d4d"/><path d="M126.05,208.17a3.53,3.53,0,0,1-.22,1.29,2.87,2.87,0,0,1-.59,1,2.44,2.44,0,0,1-.88.62,2.66,2.66,0,0,1-1,.21,3,3,0,0,1-1.06-.18,2.13,2.13,0,0,1-.81-.57,2.62,2.62,0,0,1-.52-.93,4.21,4.21,0,0,1-.18-1.28A3.85,3.85,0,0,1,121,207a2.7,2.7,0,0,1,1.46-1.61,2.66,2.66,0,0,1,1-.21,2.83,2.83,0,0,1,1.07.19,2.11,2.11,0,0,1,.81.56,2.47,2.47,0,0,1,.52.93A4.28,4.28,0,0,1,126.05,208.17Zm-1,0a4,4,0,0,0-.11-1,1.86,1.86,0,0,0-.34-.69,1.37,1.37,0,0,0-.54-.42,1.83,1.83,0,0,0-.73-.14,1.57,1.57,0,0,0-.68.15,1.45,1.45,0,0,0-.54.45,2.1,2.1,0,0,0-.35.72,3.86,3.86,0,0,0,0,1.91,1.71,1.71,0,0,0,.33.69,1.37,1.37,0,0,0,.54.42,1.86,1.86,0,0,0,.73.14,1.42,1.42,0,0,0,.68-.16,1.45,1.45,0,0,0,.54-.45,2.2,2.2,0,0,0,.35-.72A3.45,3.45,0,0,0,125.1,208.21Z" style="fill:#4d4d4d"/><path d="M131.45,205.38l-.11.82-.32-.06-.27,0-.27,0h-.29a1.72,1.72,0,0,0-.68.14,1.65,1.65,0,0,0-.56.43,2.23,2.23,0,0,0-.38.68,2.75,2.75,0,0,0-.13.9,3.26,3.26,0,0,0,.13,1,1.92,1.92,0,0,0,.39.69,1.39,1.39,0,0,0,.57.39,2.09,2.09,0,0,0,.72.12h.32a1.55,1.55,0,0,0,.31,0l.29-.05.29-.07v.83l-.31.07-.3.06-.33,0h-.38a3,3,0,0,1-1.07-.17,2.12,2.12,0,0,1-.83-.55,2.41,2.41,0,0,1-.55-.94,3.86,3.86,0,0,1-.2-1.34,3.42,3.42,0,0,1,.22-1.27,3.12,3.12,0,0,1,.6-1,2.44,2.44,0,0,1,.87-.59,2.78,2.78,0,0,1,1-.2h.33l.3,0,.29.05Z" style="fill:#4d4d4d"/><path d="M133.9,208.36v2.81H133v-8.31l.92-.08v4.78h.52l2-2.25h1.12l-2.28,2.52,2.48,3.34h-1.14l-2.06-2.81Z" style="fill:#4d4d4d"/><path d="M138.37,208.24a4,4,0,0,1,.19-1.3,2.59,2.59,0,0,1,.52-1,2.31,2.31,0,0,1,1.75-.78,2.77,2.77,0,0,1,.94.15,1.76,1.76,0,0,1,.7.45,1.86,1.86,0,0,1,.44.73,3.17,3.17,0,0,1,.15,1v.55c0,.05,0,.11,0,.17h-3.76a3,3,0,0,0,.14.95,1.7,1.7,0,0,0,.39.67,1.49,1.49,0,0,0,.6.39,2.29,2.29,0,0,0,.76.12,3.93,3.93,0,0,0,.49,0l.44-.06a3,3,0,0,0,.43-.12A4,4,0,0,0,143,210v.83a3.78,3.78,0,0,1-.46.17,3.17,3.17,0,0,1-.44.12l-.47.07a4.44,4.44,0,0,1-.53,0,3.33,3.33,0,0,1-1.12-.17,2.45,2.45,0,0,1-.85-.55,2.35,2.35,0,0,1-.54-.94A4.13,4.13,0,0,1,138.37,208.24Zm.95-.7h2.76a2.84,2.84,0,0,0-.08-.69,1.21,1.21,0,0,0-.26-.49.93.93,0,0,0-.41-.3,1.6,1.6,0,0,0-.56-.1,1.26,1.26,0,0,0-.51.11,1.67,1.67,0,0,0-.44.31,2,2,0,0,0-.33.5A2.66,2.66,0,0,0,139.32,207.54Z" style="fill:#4d4d4d"/><path d="M148.4,211.17v-3.85a1.37,1.37,0,0,0-.08-.51,1.09,1.09,0,0,0-.25-.4,1.23,1.23,0,0,0-.42-.25,1.59,1.59,0,0,0-.55-.09l-.38,0a1.91,1.91,0,0,0-.33.06l-.34.08-.36.14v4.8h-.91v-5.83l.88-.07v.39a3.49,3.49,0,0,1,.39-.19,2.14,2.14,0,0,1,.38-.13,1.59,1.59,0,0,1,.39-.08,3,3,0,0,1,.44,0,3,3,0,0,1,.88.13,1.76,1.76,0,0,1,.65.39,1.53,1.53,0,0,1,.39.62,2.5,2.5,0,0,1,.14.86v3.94Z" style="fill:#4d4d4d"/><path d="M152.11,209.74a.59.59,0,0,0,0,.2.4.4,0,0,0,.13.16.61.61,0,0,0,.23.1,1.11,1.11,0,0,0,.33,0l1.58,0a2.86,2.86,0,0,1,.71.11,1.4,1.4,0,0,1,.5.27,1,1,0,0,1,.3.39,1.42,1.42,0,0,1,.09.52,1.64,1.64,0,0,1-.17.77,1.73,1.73,0,0,1-.53.62,2.53,2.53,0,0,1-.89.41,5,5,0,0,1-1.23.14,4.31,4.31,0,0,1-1-.1,2.36,2.36,0,0,1-.75-.32,1.37,1.37,0,0,1-.47-.49,1.22,1.22,0,0,1-.16-.62,1.07,1.07,0,0,1,.07-.39,1.46,1.46,0,0,1,.52-.67,2,2,0,0,1,.37-.22v0a.76.76,0,0,1-.19-.12.61.61,0,0,1-.15-.17.72.72,0,0,1-.09-.2.61.61,0,0,1,0-.24.75.75,0,0,1,0-.26.7.7,0,0,1,.13-.24,1,1,0,0,1,.2-.2.84.84,0,0,1,.27-.13v0a2,2,0,0,1-.38-.26,1.6,1.6,0,0,1-.28-.35,2.75,2.75,0,0,1-.18-.46,2.38,2.38,0,0,1-.06-.55,2.59,2.59,0,0,1,.15-.91,1.86,1.86,0,0,1,.46-.69,2,2,0,0,1,.75-.43,2.76,2.76,0,0,1,1-.16h.23l.25,0,.22,0,.2,0h1.8V206H155v0a1,1,0,0,1,.24.22,2.45,2.45,0,0,1,.18.29,1.9,1.9,0,0,1,.12.36,2.45,2.45,0,0,1,0,.39,2.34,2.34,0,0,1-.16.88,1.69,1.69,0,0,1-.48.64,2.18,2.18,0,0,1-.76.39,3.53,3.53,0,0,1-1,.13H153l-.17,0-.16,0-.15,0a.52.52,0,0,0-.15.07.43.43,0,0,0-.12.11.38.38,0,0,0-.09.13A.39.39,0,0,0,152.11,209.74Zm-.45,2.09a.71.71,0,0,0,.1.39.93.93,0,0,0,.32.3,1.46,1.46,0,0,0,.51.19,2.91,2.91,0,0,0,.7.07,4.51,4.51,0,0,0,.87-.07,2.1,2.1,0,0,0,.6-.21,1.09,1.09,0,0,0,.35-.32.88.88,0,0,0,.11-.42.87.87,0,0,0-.05-.28.4.4,0,0,0-.15-.19.78.78,0,0,0-.29-.13,2.11,2.11,0,0,0-.42-.06l-2-.09a1.13,1.13,0,0,0-.27.13,1.24,1.24,0,0,0-.21.18.9.9,0,0,0-.12.24A.84.84,0,0,0,151.66,211.83Zm1.6-3.15a2.22,2.22,0,0,0,.62-.08.93.93,0,0,0,.43-.25.89.89,0,0,0,.26-.43,2,2,0,0,0,.09-.64,1.62,1.62,0,0,0-.09-.57,1,1,0,0,0-.27-.4,1.09,1.09,0,0,0-.42-.25,1.89,1.89,0,0,0-.56-.08,2,2,0,0,0-.56.08,1.1,1.1,0,0,0-.43.26,1.05,1.05,0,0,0-.27.43,1.8,1.8,0,0,0-.09.6,1.93,1.93,0,0,0,.09.62,1.22,1.22,0,0,0,.27.41,1.27,1.27,0,0,0,.41.23A2.11,2.11,0,0,0,153.26,208.68Z" style="fill:#4d4d4d"/><path d="M157.22,208.24a4.34,4.34,0,0,1,.19-1.3,2.59,2.59,0,0,1,.52-1,2.31,2.31,0,0,1,1.75-.78,2.77,2.77,0,0,1,.94.15,1.87,1.87,0,0,1,.71.45,2,2,0,0,1,.43.73,3.16,3.16,0,0,1,.16,1v.36c0,.07,0,.12,0,.19s0,.11,0,.17h-3.75a3,3,0,0,0,.13.95,2,2,0,0,0,.39.67,1.49,1.49,0,0,0,.6.39,2.3,2.3,0,0,0,.77.12,3.85,3.85,0,0,0,.48,0l.44-.06a3.6,3.6,0,0,0,.44-.12c.14,0,.28-.1.43-.17v.83a3.25,3.25,0,0,1-.46.17,3.17,3.17,0,0,1-.44.12l-.47.07a4.44,4.44,0,0,1-.53,0,3.23,3.23,0,0,1-1.11-.17,2.4,2.4,0,0,1-.86-.55,2.35,2.35,0,0,1-.54-.94A4.42,4.42,0,0,1,157.22,208.24Zm.95-.7h2.76a2.84,2.84,0,0,0-.08-.69,1.33,1.33,0,0,0-.25-.49,1,1,0,0,0-.42-.3,1.6,1.6,0,0,0-.56-.1,1.26,1.26,0,0,0-.51.11,1.67,1.67,0,0,0-.44.31,1.71,1.71,0,0,0-.32.5A2.29,2.29,0,0,0,158.17,207.54Z" style="fill:#4d4d4d"/><path d="M167.26,211.17v-3.85a1.36,1.36,0,0,0-.09-.51,1.09,1.09,0,0,0-.25-.4,1.29,1.29,0,0,0-.41-.25,1.69,1.69,0,0,0-.56-.09l-.38,0a1.91,1.91,0,0,0-.33.06l-.34.08-.36.14v4.8h-.91v-5.83l.88-.07v.39l.39-.19a2.14,2.14,0,0,1,.38-.13,1.59,1.59,0,0,1,.39-.08,3,3,0,0,1,.44,0,2.91,2.91,0,0,1,.88.13,1.76,1.76,0,0,1,.65.39,1.43,1.43,0,0,1,.39.62,2.5,2.5,0,0,1,.14.86v3.94Z" style="fill:#4d4d4d"/><path d="M141.17,217.87a2.1,2.1,0,1,1,2.09-2.1A2.11,2.11,0,0,1,141.17,217.87Zm0-3.7a1.6,1.6,0,1,0,1.59,1.6A1.6,1.6,0,0,0,141.17,214.17Z" style="fill:#8b8f9e"/><path d="M116.66,321.3h-.06l-.29,6.93h-.9l.37-7.87h1.44l2.1,5.2h0l2.06-5.2h1.39l.39,7.87h-1l-.3-6.93h-.06l-2.14,5.31h-.93Z" style="fill:#4d4d4d"/><path d="M130.41,325.23a3.57,3.57,0,0,1-.22,1.29,3,3,0,0,1-.59,1,2.45,2.45,0,0,1-.88.61,2.5,2.5,0,0,1-1,.22,3,3,0,0,1-1.06-.19,2.27,2.27,0,0,1-.81-.56,2.74,2.74,0,0,1-.51-.94,4.17,4.17,0,0,1-.18-1.28,3.9,3.9,0,0,1,.21-1.3,2.75,2.75,0,0,1,.6-1,2.53,2.53,0,0,1,.87-.62,2.43,2.43,0,0,1,1-.22,3,3,0,0,1,1.07.19,2.13,2.13,0,0,1,.81.57,2.47,2.47,0,0,1,.52.93A4.19,4.19,0,0,1,130.41,325.23Zm-.95,0a4,4,0,0,0-.11-1,2,2,0,0,0-.34-.69,1.58,1.58,0,0,0-.54-.42,1.81,1.81,0,0,0-.72-.13,1.58,1.58,0,0,0-.69.15,1.52,1.52,0,0,0-.54.44,2.2,2.2,0,0,0-.35.72,3.48,3.48,0,0,0-.12.95,3.4,3.4,0,0,0,.12,1,2,2,0,0,0,.33.7,1.44,1.44,0,0,0,.54.41,1.9,1.9,0,0,0,.73.14,1.39,1.39,0,0,0,.68-.16,1.45,1.45,0,0,0,.54-.45,1.86,1.86,0,0,0,.35-.72A3.4,3.4,0,0,0,129.46,325.26Z" style="fill:#4d4d4d"/><path d="M135.83,328.23v-3.86a1.37,1.37,0,0,0-.08-.51,1.14,1.14,0,0,0-.25-.39,1.09,1.09,0,0,0-.42-.25,1.59,1.59,0,0,0-.55-.09,2.3,2.3,0,0,0-.38,0l-.33.05a2.14,2.14,0,0,0-.34.09,2.4,2.4,0,0,0-.36.14v4.8h-.91V322.4l.88-.08v.4a2.4,2.4,0,0,1,.39-.2l.38-.13a2.24,2.24,0,0,1,.39-.08l.44,0a2.67,2.67,0,0,1,.88.13,1.89,1.89,0,0,1,.65.38,1.56,1.56,0,0,1,.39.63,2.48,2.48,0,0,1,.14.85v4Z" style="fill:#4d4d4d"/><path d="M138.29,323.09v-.73H139v-1l.91-.14v1.17h1.54v.73h-1.54v3.32a1.68,1.68,0,0,0,.07.48.86.86,0,0,0,.19.34.88.88,0,0,0,.3.2,1.06,1.06,0,0,0,.37.07h.2l.19,0,.19,0,.21,0v.77l-.27.06-.25,0-.24,0h-.27a1.81,1.81,0,0,1-.63-.1,1.24,1.24,0,0,1-.5-.31,1.35,1.35,0,0,1-.35-.57,2.7,2.7,0,0,1-.12-.86v-3.37Z" style="fill:#4d4d4d"/><path d="M143.23,323.09h-.72v-.73h.72v-.67a2.37,2.37,0,0,1,.12-.78,1.76,1.76,0,0,1,.38-.59,1.64,1.64,0,0,1,.63-.37,2.57,2.57,0,0,1,.87-.13h.22a1.46,1.46,0,0,1,.22,0l.2,0,.18,0-.11.79-.18,0-.18,0-.18,0h-.19a1.35,1.35,0,0,0-.48.07.75.75,0,0,0-.34.19.78.78,0,0,0-.19.33,1.56,1.56,0,0,0-.06.46v.69h1.51v.73h-1.51v5.14h-.91Z" style="fill:#4d4d4d"/><path d="M152,325.23a3.79,3.79,0,0,1-.21,1.29,3,3,0,0,1-.6,1,2.65,2.65,0,0,1-1.92.83,2.94,2.94,0,0,1-1.06-.19,2.11,2.11,0,0,1-.81-.56,2.6,2.6,0,0,1-.52-.94,4.17,4.17,0,0,1-.18-1.28,3.66,3.66,0,0,1,.22-1.3,2.73,2.73,0,0,1,.59-1,2.53,2.53,0,0,1,.87-.62,2.49,2.49,0,0,1,1-.22,3,3,0,0,1,1.07.19,2.25,2.25,0,0,1,.82.57,2.6,2.6,0,0,1,.51.93A4.19,4.19,0,0,1,152,325.23Zm-.94,0a3.5,3.5,0,0,0-.12-1,2,2,0,0,0-.33-.69,1.58,1.58,0,0,0-.54-.42,1.9,1.9,0,0,0-.73-.13,1.51,1.51,0,0,0-1.22.59,2,2,0,0,0-.35.72,3.48,3.48,0,0,0-.12.95,3.84,3.84,0,0,0,.11,1,2,2,0,0,0,.34.7,1.44,1.44,0,0,0,.54.41,1.81,1.81,0,0,0,.72.14,1.53,1.53,0,0,0,1.23-.61,2,2,0,0,0,.35-.72A3.4,3.4,0,0,0,151,325.26Z" style="fill:#4d4d4d"/><path d="M158.72,325.23a3.57,3.57,0,0,1-.22,1.29,3,3,0,0,1-.59,1,2.63,2.63,0,0,1-.88.61,2.5,2.5,0,0,1-1.05.22,3,3,0,0,1-1.06-.19,2.11,2.11,0,0,1-.81-.56,2.6,2.6,0,0,1-.52-.94,4.17,4.17,0,0,1-.18-1.28,3.9,3.9,0,0,1,.22-1.3,2.73,2.73,0,0,1,.59-1,2.62,2.62,0,0,1,.87-.62,2.5,2.5,0,0,1,1-.22,3.08,3.08,0,0,1,1.07.19,2.13,2.13,0,0,1,.81.57,2.62,2.62,0,0,1,.52.93A4.19,4.19,0,0,1,158.72,325.23Zm-.95,0a3.5,3.5,0,0,0-.12-1,1.85,1.85,0,0,0-.33-.69,1.58,1.58,0,0,0-.54-.42,1.86,1.86,0,0,0-.73-.13,1.54,1.54,0,0,0-.68.15,1.52,1.52,0,0,0-.54.44,2.2,2.2,0,0,0-.35.72,3.48,3.48,0,0,0-.12.95,3.4,3.4,0,0,0,.12,1,1.82,1.82,0,0,0,.33.7,1.44,1.44,0,0,0,.54.41,1.83,1.83,0,0,0,.73.14,1.53,1.53,0,0,0,1.22-.61,2,2,0,0,0,.35-.72A3.4,3.4,0,0,0,157.77,325.26Z" style="fill:#4d4d4d"/><path d="M163.35,322.37l-.11.9-.18,0-.16,0-.16,0h-.17a1.27,1.27,0,0,0-.28,0,1,1,0,0,0-.27.11,2,2,0,0,0-.28.19,3.56,3.56,0,0,0-.31.28v4.44h-.91V322.4l.9-.08V323a3.4,3.4,0,0,1,.32-.33,2.74,2.74,0,0,1,.31-.23l.3-.12a1.17,1.17,0,0,1,.32,0h.18l.16,0,.16,0Z" style="fill:#4d4d4d"/><path d="M164.2,323.09v-.73h.71v-1l.91-.14v1.17h1.54v.73h-1.54v3.32a1.39,1.39,0,0,0,.07.48.86.86,0,0,0,.19.34.84.84,0,0,0,.29.2,1.17,1.17,0,0,0,.38.07h.2l.19,0,.19,0,.21,0v.77l-.27.06-.25,0-.24,0h-.27a1.81,1.81,0,0,1-.63-.1,1.31,1.31,0,0,1-.85-.88,2.7,2.7,0,0,1-.12-.86v-3.37Z" style="fill:#4d4d4d"/><path d="M141.17,334.92a2.1,2.1,0,1,1,2.09-2.1A2.1,2.1,0,0,1,141.17,334.92Zm0-3.7a1.6,1.6,0,1,0,1.59,1.6A1.6,1.6,0,0,0,141.17,331.22Z" style="fill:#8b8f9e"/><path d="M441,364.81v-7.87H442v7h3v.84Z" style="fill:#4d4d4d"/><path d="M446.11,361.88a4.37,4.37,0,0,1,.18-1.31,2.78,2.78,0,0,1,.53-1,2.16,2.16,0,0,1,.79-.58,2.38,2.38,0,0,1,.95-.2,2.83,2.83,0,0,1,.95.15,1.84,1.84,0,0,1,.7.45,2,2,0,0,1,.44.74,3.11,3.11,0,0,1,.15,1v.37a1.09,1.09,0,0,1,0,.18c0,.06,0,.12,0,.17H447a3,3,0,0,0,.14,1,1.77,1.77,0,0,0,.39.67,1.58,1.58,0,0,0,.6.38,2,2,0,0,0,.76.13l.48,0,.45-.07.43-.11.43-.17v.82a3.83,3.83,0,0,1-.45.18l-.44.11-.47.08-.54,0a3.23,3.23,0,0,1-1.11-.18,2.12,2.12,0,0,1-.85-.55,2.37,2.37,0,0,1-.55-.93A4.48,4.48,0,0,1,446.11,361.88Zm.95-.71h2.76a2.33,2.33,0,0,0-.09-.68,1.24,1.24,0,0,0-.25-.5,1.12,1.12,0,0,0-.41-.3,1.64,1.64,0,0,0-.56-.09,1.13,1.13,0,0,0-.52.11,1.42,1.42,0,0,0-.44.31,1.48,1.48,0,0,0-.32.5A2.47,2.47,0,0,0,447.06,361.17Z" style="fill:#4d4d4d"/><path d="M452.16,361.88a4.37,4.37,0,0,1,.18-1.31,2.94,2.94,0,0,1,.52-1,2.34,2.34,0,0,1,.79-.58,2.39,2.39,0,0,1,1-.2,2.73,2.73,0,0,1,.94.15,1.8,1.8,0,0,1,.71.45,2,2,0,0,1,.44.74,3.11,3.11,0,0,1,.15,1v.37a1.09,1.09,0,0,1,0,.18.88.88,0,0,1,0,.17h-3.75a2.78,2.78,0,0,0,.14,1,1.77,1.77,0,0,0,.39.67,1.54,1.54,0,0,0,.59.38,2.11,2.11,0,0,0,.77.13l.48,0,.44-.07.44-.11.43-.17v.82a3.35,3.35,0,0,1-.46.18l-.43.11-.47.08-.54,0a3.23,3.23,0,0,1-1.11-.18,2.16,2.16,0,0,1-.86-.55,2.48,2.48,0,0,1-.54-.93A4.48,4.48,0,0,1,452.16,361.88Zm.94-.71h2.76a2.35,2.35,0,0,0-.08-.68,1.38,1.38,0,0,0-.25-.5,1.08,1.08,0,0,0-.42-.3,1.59,1.59,0,0,0-.55-.09,1.13,1.13,0,0,0-.52.11,1.31,1.31,0,0,0-.44.31,1.48,1.48,0,0,0-.32.5A2.47,2.47,0,0,0,453.1,361.17Z" style="fill:#4d4d4d"/><path d="M461.4,359l-.11.9-.18,0-.16,0-.16,0h-.17a1.45,1.45,0,0,0-.29,0,1.53,1.53,0,0,0-.27.11l-.27.18a2.68,2.68,0,0,0-.31.29v4.44h-.92V359l.9-.07v.69a3.42,3.42,0,0,1,.33-.33,1.5,1.5,0,0,1,.3-.23,2,2,0,0,1,.31-.12,1.1,1.1,0,0,1,.31,0h.34l.17,0Z" style="fill:#4d4d4d"/><path d="M462.31,364.69v-.83l.41.1.41.07.43,0H464a2.26,2.26,0,0,0,.55-.06,1.74,1.74,0,0,0,.41-.18.83.83,0,0,0,.25-.28.74.74,0,0,0,.09-.36.81.81,0,0,0-.06-.31.56.56,0,0,0-.17-.24,1.28,1.28,0,0,0-.31-.2,2.51,2.51,0,0,0-.45-.17l-.68-.2a2.18,2.18,0,0,1-.54-.22,1.55,1.55,0,0,1-.39-.33,1.44,1.44,0,0,1-.24-.42,1.78,1.78,0,0,1-.08-.53,1.53,1.53,0,0,1,.15-.67,1.62,1.62,0,0,1,.43-.55,2.19,2.19,0,0,1,.68-.36,3,3,0,0,1,.87-.12h.39l.36,0,.34,0a1.65,1.65,0,0,1,.32.06l-.1.79-.34-.06-.32,0h-.7a2,2,0,0,0-.51.06,1.21,1.21,0,0,0-.38.17.66.66,0,0,0-.24.26.71.71,0,0,0-.07.32,1,1,0,0,0,0,.3.54.54,0,0,0,.15.22,1.32,1.32,0,0,0,.26.18,3.67,3.67,0,0,0,.37.14l.68.17a3.35,3.35,0,0,1,.62.24,1.71,1.71,0,0,1,.44.34,1.22,1.22,0,0,1,.27.41,1.7,1.7,0,0,1,.08.51,1.73,1.73,0,0,1-.16.76,1.89,1.89,0,0,1-.45.6,2.13,2.13,0,0,1-.71.39,2.93,2.93,0,0,1-.9.14h-.47l-.41,0-.39-.06Z" style="fill:#4d4d4d"/><path d="M468.69,358.9v3.89a1.53,1.53,0,0,0,.09.54,1,1,0,0,0,.24.4,1.22,1.22,0,0,0,.4.24,1.89,1.89,0,0,0,.56.08l.38,0,.32,0,.3-.09.38-.14V359l.91-.07v5.91h-.89v-.36a2.61,2.61,0,0,1-.37.19,2.35,2.35,0,0,1-.37.14l-.39.08a3,3,0,0,1-.43,0,2.88,2.88,0,0,1-.88-.12,1.72,1.72,0,0,1-.64-.39,1.68,1.68,0,0,1-.39-.63,2.55,2.55,0,0,1-.13-.86V359Z" style="fill:#4d4d4d"/><path d="M481.58,364.81V361a1.74,1.74,0,0,0-.08-.53,1,1,0,0,0-.24-.39,1.09,1.09,0,0,0-.4-.25,1.55,1.55,0,0,0-.55-.09h-.37l-.33.06-.32.09-.37.14v4.8H478v-3.87a1.74,1.74,0,0,0-.07-.53.85.85,0,0,0-.23-.39,1,1,0,0,0-.39-.24,2,2,0,0,0-.58-.07h-.39l-.33,0a1.81,1.81,0,0,0-.31.09l-.36.15v4.8h-.91V359l.87-.07v.4c.15-.08.28-.15.4-.2a2,2,0,0,1,.38-.14l.38-.07a3,3,0,0,1,.43,0,4.41,4.41,0,0,1,.52,0,2.12,2.12,0,0,1,.45.12,1.62,1.62,0,0,1,.37.19,1.48,1.48,0,0,1,.3.26,4.35,4.35,0,0,1,.5-.28,3.45,3.45,0,0,1,.46-.19l.46-.1a4.12,4.12,0,0,1,.51,0,2.67,2.67,0,0,1,.88.13,1.63,1.63,0,0,1,.64.38,1.8,1.8,0,0,1,.38.63,2.45,2.45,0,0,1,.13.85v3.95Z" style="fill:#4d4d4d"/><path d="M461.74,371.5a2.1,2.1,0,1,1,2.09-2.1A2.1,2.1,0,0,1,461.74,371.5Zm0-3.7a1.6,1.6,0,1,0,1.59,1.6A1.6,1.6,0,0,0,461.74,367.8Z" style="fill:#8b8f9e"/><path d="M351.71,403.38l-2.2-7.87h1.07l1.79,6.92h.06l1.67-4.86-.69-2.06h1l2.23,6.92h.06l1.83-6.92h1l-2.24,7.87H356l-1.48-4.57h0L353,403.38Z" style="fill:#4d4d4d"/><path d="M360.81,395.59a.64.64,0,0,1,0-.24.52.52,0,0,1,.12-.19.54.54,0,0,1,.18-.11.67.67,0,0,1,.24,0,.61.61,0,0,1,.24,0,.4.4,0,0,1,.18.11.57.57,0,0,1,.12.18.66.66,0,0,1,0,.25.61.61,0,0,1,0,.24.55.55,0,0,1-.3.3.61.61,0,0,1-.24,0,.67.67,0,0,1-.24,0A.57.57,0,0,1,361,396a.41.41,0,0,1-.12-.18A.61.61,0,0,1,360.81,395.59Zm1,1.89v5.9h-.91v-5.83Z" style="fill:#4d4d4d"/><path d="M364.92,397.48v6.24a2.45,2.45,0,0,1-.12.8,1.83,1.83,0,0,1-.36.59,1.81,1.81,0,0,1-.55.4,2.5,2.5,0,0,1-.7.22l-.12-.76a1.62,1.62,0,0,0,.42-.19,1.16,1.16,0,0,0,.29-.25.92.92,0,0,0,.18-.34,2.09,2.09,0,0,0,.05-.46v-6.18Zm-1-1.89a.64.64,0,0,1,0-.24.52.52,0,0,1,.12-.19.5.5,0,0,1,.19-.11.61.61,0,0,1,.24,0,.67.67,0,0,1,.24,0,.54.54,0,0,1,.18.11.78.78,0,0,1,.11.18.66.66,0,0,1,0,.25.61.61,0,0,1,0,.24.5.5,0,0,1-.11.18.57.57,0,0,1-.18.12.67.67,0,0,1-.24,0,.61.61,0,0,1-.24,0A.52.52,0,0,1,364,396a.41.41,0,0,1-.12-.18A.61.61,0,0,1,363.88,395.59Z" style="fill:#4d4d4d"/><path d="M368,400.57v2.81h-.91v-8.31L368,395v4.78h.53l2-2.26h1.12L369.33,400l2.48,3.34h-1.14l-2.06-2.81Z" style="fill:#4d4d4d"/><path d="M380.62,400.27a4,4,0,0,1-.22,1.34,2.77,2.77,0,0,1-.64,1,2.64,2.64,0,0,1-1,.62,3.52,3.52,0,0,1-1.25.21h-.45l-.42,0-.43,0-.47-.07v-8.25l.91-.08v2.85a3.26,3.26,0,0,1,.38-.18,2.4,2.4,0,0,1,.38-.12,2.32,2.32,0,0,1,.38-.07,2.63,2.63,0,0,1,.41,0,2.76,2.76,0,0,1,1,.17,2,2,0,0,1,.76.53,2.33,2.33,0,0,1,.49.89A4.22,4.22,0,0,1,380.62,400.27Zm-.95.09a3.3,3.3,0,0,0-.12-.94,1.74,1.74,0,0,0-.34-.65,1.45,1.45,0,0,0-.54-.37,2.07,2.07,0,0,0-.73-.12l-.32,0-.31.05-.32.1-.32.13v4a2.3,2.3,0,0,0,.26,0l.24,0h.48a2.28,2.28,0,0,0,.8-.14,1.62,1.62,0,0,0,.64-.42,1.85,1.85,0,0,0,.43-.72A3.11,3.11,0,0,0,379.67,400.36Z" style="fill:#4d4d4d"/><path d="M382.29,395.59a.64.64,0,0,1,0-.24.52.52,0,0,1,.12-.19.54.54,0,0,1,.18-.11.67.67,0,0,1,.24,0,.61.61,0,0,1,.24,0,.4.4,0,0,1,.18.11.57.57,0,0,1,.12.18.66.66,0,0,1,0,.25.61.61,0,0,1,0,.24.55.55,0,0,1-.3.3.61.61,0,0,1-.24,0,.67.67,0,0,1-.24,0,.57.57,0,0,1-.18-.12.41.41,0,0,1-.12-.18A.61.61,0,0,1,382.29,395.59Zm1,1.89v5.9h-.91v-5.83Z" style="fill:#4d4d4d"/><path d="M386.4,397.48v6.24a2.45,2.45,0,0,1-.12.8,1.83,1.83,0,0,1-.36.59,1.81,1.81,0,0,1-.55.4,2.5,2.5,0,0,1-.7.22l-.12-.76a1.62,1.62,0,0,0,.42-.19,1.16,1.16,0,0,0,.29-.25.92.92,0,0,0,.18-.34,2.09,2.09,0,0,0,.05-.46v-6.18Zm-1-1.89a.64.64,0,0,1,0-.24.52.52,0,0,1,.12-.19.5.5,0,0,1,.19-.11.61.61,0,0,1,.24,0,.67.67,0,0,1,.24,0,.54.54,0,0,1,.18.11.78.78,0,0,1,.11.18.66.66,0,0,1,0,.25.61.61,0,0,1,0,.24.5.5,0,0,1-.11.18.57.57,0,0,1-.18.12.67.67,0,0,1-.24,0,.61.61,0,0,1-.24,0,.52.52,0,0,1-.19-.12.41.41,0,0,1-.12-.18A.61.61,0,0,1,385.36,395.59Z" style="fill:#4d4d4d"/><path d="M393.63,403.38h-2.14v-7.87h2.08a5.66,5.66,0,0,1,1.67.23,3.42,3.42,0,0,1,1.24.7,3.14,3.14,0,0,1,.77,1.17,4.52,4.52,0,0,1,.26,1.62,5.5,5.5,0,0,1-.27,1.8,3.6,3.6,0,0,1-.79,1.3,3.26,3.26,0,0,1-1.22.79A4.71,4.71,0,0,1,393.63,403.38Zm-1.19-7.07v6.27h1.21a3.41,3.41,0,0,0,1.19-.2,2.3,2.3,0,0,0,.9-.6,2.66,2.66,0,0,0,.59-1,4.86,4.86,0,0,0,.2-1.46,4,4,0,0,0-.2-1.31,2.49,2.49,0,0,0-.6-.93,2.45,2.45,0,0,0-1-.56,4.19,4.19,0,0,0-1.27-.18Z" style="fill:#4d4d4d"/><path d="M400.19,397.48v3.88a1.8,1.8,0,0,0,.08.54,1,1,0,0,0,.25.4,1.22,1.22,0,0,0,.4.24,1.55,1.55,0,0,0,.55.09l.39,0a1.55,1.55,0,0,0,.31-.06,1.58,1.58,0,0,0,.31-.09,3,3,0,0,0,.37-.14v-4.77l.91-.07v5.9h-.88V403a2.72,2.72,0,0,1-.37.2,3.3,3.3,0,0,1-.37.13l-.39.09a3,3,0,0,1-.43,0,2.86,2.86,0,0,1-.88-.13,1.52,1.52,0,0,1-.64-.38,1.86,1.86,0,0,1-.39-.63,2.57,2.57,0,0,1-.13-.87v-3.91Z" style="fill:#4d4d4d"/><path d="M406.75,397.48v3.88a1.53,1.53,0,0,0,.09.54.9.9,0,0,0,.24.4,1.17,1.17,0,0,0,.41.24,1.55,1.55,0,0,0,.55.09l.38,0a1.65,1.65,0,0,0,.32-.06l.31-.09.37-.14v-4.77l.91-.07v5.9h-.89V403a2.72,2.72,0,0,1-.37.2,2.32,2.32,0,0,1-.37.13,2.23,2.23,0,0,1-.39.09,3.06,3.06,0,0,1-1.31-.1,1.58,1.58,0,0,1-.64-.38,1.86,1.86,0,0,1-.39-.63,2.57,2.57,0,0,1-.13-.87v-3.91Z" style="fill:#4d4d4d"/><path d="M415.32,397.52l-.11.91-.18-.05-.16,0h-.33a1.33,1.33,0,0,0-.28,0l-.27.11a2,2,0,0,0-.28.19c-.09.08-.2.17-.31.28v4.44h-.91v-5.83l.9-.07v.68a3.4,3.4,0,0,1,.32-.33,2.58,2.58,0,0,1,.31-.22,1.3,1.3,0,0,1,.3-.13,1.75,1.75,0,0,1,.32,0H415l.16,0Z" style="fill:#4d4d4d"/><path d="M416.23,403.26v-.83a3.06,3.06,0,0,0,.41.1,2.93,2.93,0,0,0,.41.07l.43,0h.44a1.91,1.91,0,0,0,.56-.07,1.13,1.13,0,0,0,.4-.18.7.7,0,0,0,.26-.28.78.78,0,0,0,.08-.35,1,1,0,0,0-.05-.31.72.72,0,0,0-.18-.25,1.42,1.42,0,0,0-.3-.2,3.33,3.33,0,0,0-.45-.16l-.69-.2a2,2,0,0,1-.53-.23,1.39,1.39,0,0,1-.39-.32,1.49,1.49,0,0,1-.24-.43,1.46,1.46,0,0,1-.09-.52,1.57,1.57,0,0,1,.15-.68,1.71,1.71,0,0,1,.43-.54,1.93,1.93,0,0,1,.68-.36,2.65,2.65,0,0,1,.87-.13h.39l.36,0,.34,0,.32.06-.09.8-.34-.06-.32,0-.33,0h-.37a2.12,2.12,0,0,0-.52.06,1,1,0,0,0-.38.17.68.68,0,0,0-.23.25.76.76,0,0,0-.08.33.84.84,0,0,0,.05.29.57.57,0,0,0,.15.23,1.21,1.21,0,0,0,.25.17,2.35,2.35,0,0,0,.38.14l.68.18a2.5,2.5,0,0,1,.62.24,2.2,2.2,0,0,1,.44.33,1,1,0,0,1,.26.42,1.44,1.44,0,0,1,.09.51,2,2,0,0,1-.16.76,1.79,1.79,0,0,1-.46.6,2.36,2.36,0,0,1-.7.39,2.94,2.94,0,0,1-.91.13h-.47l-.41,0-.38-.06Z" style="fill:#4d4d4d"/><path d="M421.26,398.25v-.74H422v-1l.91-.13v1.16h1.54v.74h-1.54v3.31a1.45,1.45,0,0,0,.07.49.83.83,0,0,0,.48.53.9.9,0,0,0,.37.07h.4l.19,0,.21-.05v.77l-.27.06-.25,0-.24,0h-.27a2.08,2.08,0,0,1-.63-.09,1.37,1.37,0,0,1-.51-.32,1.34,1.34,0,0,1-.34-.57,2.66,2.66,0,0,1-.12-.86v-3.36Z" style="fill:#4d4d4d"/><path d="M425.65,400.45a4.34,4.34,0,0,1,.19-1.3,2.59,2.59,0,0,1,.52-1,2.22,2.22,0,0,1,1.75-.78,2.77,2.77,0,0,1,.94.15,1.87,1.87,0,0,1,.71.45,2,2,0,0,1,.43.73,3.17,3.17,0,0,1,.15,1v.54c0,.06,0,.12,0,.18h-3.75a3,3,0,0,0,.13.95,2,2,0,0,0,.39.67,1.73,1.73,0,0,0,.6.39,2.3,2.3,0,0,0,.77.12,3.85,3.85,0,0,0,.48,0l.44-.07a2.36,2.36,0,0,0,.44-.11c.14-.05.28-.1.43-.17v.83a3.25,3.25,0,0,1-.46.17,3.17,3.17,0,0,1-.44.12l-.47.07-.53,0a3.23,3.23,0,0,1-1.11-.18,2.25,2.25,0,0,1-.86-.54,2.35,2.35,0,0,1-.54-.94A4.42,4.42,0,0,1,425.65,400.45Zm1-.7h2.76a2.84,2.84,0,0,0-.08-.69,1.38,1.38,0,0,0-.25-.5,1.1,1.1,0,0,0-.42-.29,1.6,1.6,0,0,0-.56-.1,1.26,1.26,0,0,0-.51.11,1.47,1.47,0,0,0-.44.31,1.71,1.71,0,0,0-.32.5A2.29,2.29,0,0,0,426.6,399.75Z" style="fill:#4d4d4d"/><path d="M436.56,395v8.39h-.89V403a2.59,2.59,0,0,1-.33.19,2.24,2.24,0,0,1-.36.14,2.59,2.59,0,0,1-.4.09,2.83,2.83,0,0,1-.41,0,2.64,2.64,0,0,1-1-.18,2.26,2.26,0,0,1-.78-.55,2.46,2.46,0,0,1-.51-.9,3.59,3.59,0,0,1-.19-1.22,3.77,3.77,0,0,1,.22-1.34,2.59,2.59,0,0,1,.61-1,2.69,2.69,0,0,1,.93-.61,3.27,3.27,0,0,1,1.19-.21h.3l.25,0,.24,0,.21.06v-2.5Zm-2,3.26a2,2,0,0,0-.8.15,1.54,1.54,0,0,0-.61.44,1.91,1.91,0,0,0-.39.72,3.52,3.52,0,0,0,0,1.86,2,2,0,0,0,.36.67,1.5,1.5,0,0,0,.54.39,1.83,1.83,0,0,0,.71.13,2.17,2.17,0,0,0,.36,0l.31-.07a1.21,1.21,0,0,0,.3-.11l.3-.17v-3.9l-.27,0-.26,0-.26,0Z" style="fill:#4d4d4d"/><path d="M438.36,400.45a4,4,0,0,1,.19-1.3,2.59,2.59,0,0,1,.52-1,2.28,2.28,0,0,1,.79-.59,2.37,2.37,0,0,1,.95-.19,2.79,2.79,0,0,1,.95.15,1.76,1.76,0,0,1,.7.45,1.86,1.86,0,0,1,.44.73,3.17,3.17,0,0,1,.15,1v.54c0,.06,0,.12,0,.18h-3.76a3,3,0,0,0,.14.95,1.7,1.7,0,0,0,.39.67,1.73,1.73,0,0,0,.6.39,2.29,2.29,0,0,0,.76.12,3.7,3.7,0,0,0,.48,0l.45-.07a2.26,2.26,0,0,0,.43-.11,4,4,0,0,0,.44-.17v.83a3.78,3.78,0,0,1-.46.17,3.17,3.17,0,0,1-.44.12l-.47.07-.53,0a3.33,3.33,0,0,1-1.12-.18,2.21,2.21,0,0,1-.85-.54,2.35,2.35,0,0,1-.54-.94A4.13,4.13,0,0,1,438.36,400.45Zm.95-.7h2.76a2.4,2.4,0,0,0-.09-.69,1.24,1.24,0,0,0-.25-.5,1,1,0,0,0-.41-.29,1.64,1.64,0,0,0-.56-.1,1.31,1.31,0,0,0-.52.11,1.43,1.43,0,0,0-.43.31,1.74,1.74,0,0,0-.33.5A2.66,2.66,0,0,0,439.31,399.75Z" style="fill:#4d4d4d"/><path d="M396.56,410.07a2.1,2.1,0,1,1,2.1-2.09A2.1,2.1,0,0,1,396.56,410.07Zm0-3.69a1.6,1.6,0,1,0,1.6,1.6A1.6,1.6,0,0,0,396.56,406.38Z" style="fill:#8b8f9e"/><path d="M414.41,304h-.06l-.28,6.93h-.9l.37-7.88H415l2.09,5.21h.05l2.06-5.21h1.39l.38,7.88H420l-.3-6.93h-.06l-2.15,5.31h-.92Z" style="fill:#4d4d4d"/><path d="M427.21,306.88v4.06h-.86v-.41l-.41.22a3.25,3.25,0,0,1-.4.15,2,2,0,0,1-.43.08,3.73,3.73,0,0,1-.5,0,2.19,2.19,0,0,1-.75-.12,1.55,1.55,0,0,1-.58-.32,1.36,1.36,0,0,1-.36-.5,1.54,1.54,0,0,1-.13-.65,1.51,1.51,0,0,1,.17-.7,1.65,1.65,0,0,1,.5-.56,2.49,2.49,0,0,1,.82-.37,4.52,4.52,0,0,1,1.16-.13h.89V307a1.6,1.6,0,0,0-.08-.51,1,1,0,0,0-.25-.38,1.2,1.2,0,0,0-.42-.23,2.12,2.12,0,0,0-.59-.07,3,3,0,0,0-.42,0,3.07,3.07,0,0,0-.42.07l-.43.12a4.13,4.13,0,0,0-.45.17l-.19-.77.52-.21a3,3,0,0,1,.49-.14,2.64,2.64,0,0,1,.49-.08,4.7,4.7,0,0,1,.54,0,3,3,0,0,1,.89.12,1.77,1.77,0,0,1,.66.37,1.62,1.62,0,0,1,.4.59A2.24,2.24,0,0,1,427.21,306.88Zm-3.47,2.47a1,1,0,0,0,.06.35.76.76,0,0,0,.2.27.86.86,0,0,0,.33.17,1.68,1.68,0,0,0,.47.06l.41,0a2.24,2.24,0,0,0,.39-.08A2.72,2.72,0,0,0,426,310l.36-.18v-1.37h-.92a4.31,4.31,0,0,0-.77.07,1.48,1.48,0,0,0-.52.21.76.76,0,0,0-.29.3A.79.79,0,0,0,423.74,309.35Z" style="fill:#4d4d4d"/><path d="M433.27,306.88v4.06h-.86v-.41l-.41.22a3.25,3.25,0,0,1-.4.15,2,2,0,0,1-.43.08,3.73,3.73,0,0,1-.5,0,2.19,2.19,0,0,1-.75-.12,1.55,1.55,0,0,1-.58-.32,1.36,1.36,0,0,1-.36-.5,1.54,1.54,0,0,1-.13-.65,1.4,1.4,0,0,1,.17-.7,1.55,1.55,0,0,1,.5-.56,2.49,2.49,0,0,1,.82-.37,4.52,4.52,0,0,1,1.16-.13h.89V307a1.6,1.6,0,0,0-.08-.51,1,1,0,0,0-.25-.38,1.2,1.2,0,0,0-.42-.23,2.12,2.12,0,0,0-.59-.07,3,3,0,0,0-.42,0,3.07,3.07,0,0,0-.42.07l-.43.12a4.13,4.13,0,0,0-.45.17l-.19-.77.52-.21a3,3,0,0,1,.49-.14,2.64,2.64,0,0,1,.49-.08,4.7,4.7,0,0,1,.54,0,3,3,0,0,1,.89.12,1.6,1.6,0,0,1,1.06,1A2.24,2.24,0,0,1,433.27,306.88Zm-3.47,2.47a1,1,0,0,0,.06.35.76.76,0,0,0,.2.27.86.86,0,0,0,.33.17,1.68,1.68,0,0,0,.47.06l.41,0a2.45,2.45,0,0,0,.39-.08A2.72,2.72,0,0,0,432,310l.36-.18v-1.37h-.92a4.31,4.31,0,0,0-.77.07,1.48,1.48,0,0,0-.52.21.69.69,0,0,0-.29.3A.79.79,0,0,0,429.8,309.35Z" style="fill:#4d4d4d"/><path d="M438.17,305.08l-.1.9-.18,0-.17,0-.15,0h-.18a1.35,1.35,0,0,0-.28,0,1,1,0,0,0-.27.11,1.41,1.41,0,0,0-.27.18,2.71,2.71,0,0,0-.32.29v4.44h-.91V305.1l.9-.07v.69a2.57,2.57,0,0,1,.33-.33,1.5,1.5,0,0,1,.3-.23,1.66,1.66,0,0,1,.31-.12,1.1,1.1,0,0,1,.31,0h.34a.9.9,0,0,1,.16,0Z" style="fill:#4d4d4d"/><path d="M439.09,310.82V310l.4.1a3,3,0,0,0,.42.06l.42,0h.45a2.26,2.26,0,0,0,.55-.06,2,2,0,0,0,.41-.18.83.83,0,0,0,.25-.28.86.86,0,0,0,.08-.36A.81.81,0,0,0,442,309a.66.66,0,0,0-.17-.24,1.18,1.18,0,0,0-.31-.2,2.85,2.85,0,0,0-.45-.17l-.69-.2a2.56,2.56,0,0,1-.53-.22,1.4,1.4,0,0,1-.39-.33,1.44,1.44,0,0,1-.24-.42,1.78,1.78,0,0,1-.08-.53,1.5,1.5,0,0,1,.15-.67,1.62,1.62,0,0,1,.43-.55,1.8,1.8,0,0,1,.67-.36,3.07,3.07,0,0,1,.88-.12h.38l.36,0,.34.05a1.75,1.75,0,0,1,.33.06l-.1.79-.34-.06-.32,0h-.7a2,2,0,0,0-.51.06,1.28,1.28,0,0,0-.39.17.71.71,0,0,0-.23.26.72.72,0,0,0-.08.32.84.84,0,0,0,.05.29.57.57,0,0,0,.15.23,1.06,1.06,0,0,0,.26.17,1.43,1.43,0,0,0,.37.14l.68.18a3.35,3.35,0,0,1,.62.24,1.94,1.94,0,0,1,.44.33,1.37,1.37,0,0,1,.27.42,1.7,1.7,0,0,1,.08.51,1.73,1.73,0,0,1-.16.76,1.79,1.79,0,0,1-.46.6,2,2,0,0,1-.7.39,2.94,2.94,0,0,1-.91.14h-.46l-.42,0-.38-.06Z" style="fill:#4d4d4d"/><path d="M449.5,307.83a3.81,3.81,0,0,1-.22,1.34,2.73,2.73,0,0,1-.64,1,2.59,2.59,0,0,1-1,.63,3.51,3.51,0,0,1-1.24.21H446l-.42,0a3.42,3.42,0,0,1-.44,0l-.47-.07v-8.25l.91-.07v2.84l.38-.18a3.17,3.17,0,0,1,.76-.19,2.75,2.75,0,0,1,.41,0,2.55,2.55,0,0,1,1,.17,1.87,1.87,0,0,1,.77.53,2.3,2.3,0,0,1,.48.89A3.87,3.87,0,0,1,449.5,307.83Zm-.95.08a3.18,3.18,0,0,0-.12-.93,1.67,1.67,0,0,0-.34-.65,1.36,1.36,0,0,0-.54-.38,2.29,2.29,0,0,0-.73-.11h-.32a1.7,1.7,0,0,0-.31.06,1.58,1.58,0,0,0-.31.09l-.33.14v4l.26,0,.24,0h.49a2.26,2.26,0,0,0,.79-.13,2,2,0,0,0,.65-.42,2,2,0,0,0,.42-.72A3.17,3.17,0,0,0,448.55,307.91Z" style="fill:#4d4d4d"/><path d="M450.94,308a4.06,4.06,0,0,1,.19-1.31,2.76,2.76,0,0,1,.52-1,2.13,2.13,0,0,1,.79-.58,2.23,2.23,0,0,1,1-.2,2.77,2.77,0,0,1,.94.15,1.76,1.76,0,0,1,.7.45,1.9,1.9,0,0,1,.44.74,3.11,3.11,0,0,1,.15,1v.55c0,.06,0,.12,0,.17h-3.76a3,3,0,0,0,.14,1,1.66,1.66,0,0,0,.39.66,1.49,1.49,0,0,0,.6.39,2.06,2.06,0,0,0,.76.13,3.64,3.64,0,0,0,.48,0,3.06,3.06,0,0,0,.45-.06,3.45,3.45,0,0,0,.43-.12,3.89,3.89,0,0,0,.44-.16v.82l-.46.18-.44.11a3.31,3.31,0,0,1-.47.07,4.33,4.33,0,0,1-.53,0,3.33,3.33,0,0,1-1.12-.18,2.24,2.24,0,0,1-1.39-1.48A4.17,4.17,0,0,1,450.94,308Zm.95-.71h2.76a2.91,2.91,0,0,0-.08-.69,1.43,1.43,0,0,0-.26-.49,1,1,0,0,0-.41-.3,1.6,1.6,0,0,0-.56-.09,1.19,1.19,0,0,0-.52.11,1.27,1.27,0,0,0-.43.31,1.5,1.5,0,0,0-.33.5A2.47,2.47,0,0,0,451.89,307.3Z" style="fill:#4d4d4d"/><path d="M460.18,305.08l-.11.9-.18,0-.16,0-.16,0h-.17a1.26,1.26,0,0,0-.28,0,1,1,0,0,0-.27.11,1.86,1.86,0,0,0-.28.18,3.85,3.85,0,0,0-.31.29v4.44h-.91V305.1l.9-.07v.69a3.4,3.4,0,0,1,.32-.33,1.9,1.9,0,0,1,.31-.23,1.88,1.88,0,0,1,.3-.12,1.17,1.17,0,0,1,.32,0h.34a.9.9,0,0,1,.16,0Z" style="fill:#4d4d4d"/><path d="M462.28,309.51a.38.38,0,0,0,0,.19.34.34,0,0,0,.13.16.55.55,0,0,0,.23.1,1.06,1.06,0,0,0,.33,0l1.57.05a3,3,0,0,1,.72.1,1.58,1.58,0,0,1,.5.27,1.08,1.08,0,0,1,.3.4,1.36,1.36,0,0,1,.09.51,1.85,1.85,0,0,1-.17.78,1.7,1.7,0,0,1-.53.61,2.62,2.62,0,0,1-.89.41,4.53,4.53,0,0,1-1.23.14,4.25,4.25,0,0,1-1-.1,2.35,2.35,0,0,1-.75-.31,1.46,1.46,0,0,1-.47-.49,1.26,1.26,0,0,1-.16-.63,1.11,1.11,0,0,1,.07-.39,1.27,1.27,0,0,1,.2-.36,2.27,2.27,0,0,1,.31-.31,2.08,2.08,0,0,1,.38-.22v0a.76.76,0,0,1-.19-.12.5.5,0,0,1-.15-.17,1.24,1.24,0,0,1-.1-.2.88.88,0,0,1,0-.24.75.75,0,0,1,0-.26,1,1,0,0,1,.33-.43.94.94,0,0,1,.26-.14v0a1.9,1.9,0,0,1-.37-.26,1.39,1.39,0,0,1-.28-.35,1.7,1.7,0,0,1-.18-.46,2.36,2.36,0,0,1-.07-.55,2.63,2.63,0,0,1,.16-.91,1.82,1.82,0,0,1,.46-.69,2,2,0,0,1,.75-.43,3,3,0,0,1,1-.15h.24l.24,0,.23,0,.19,0h1.8v.69h-1.1v0a.8.8,0,0,1,.23.22,1.75,1.75,0,0,1,.18.29,1.4,1.4,0,0,1,.13.36,2.58,2.58,0,0,1,0,.39,2.24,2.24,0,0,1-.17.89,1.54,1.54,0,0,1-.47.63,2.18,2.18,0,0,1-.76.39,3.56,3.56,0,0,1-1,.13H463l-.17,0-.15,0-.15.07-.12.11-.08.13A.4.4,0,0,0,462.28,309.51Zm-.46,2.09a.7.7,0,0,0,.11.38.85.85,0,0,0,.32.3,1.7,1.7,0,0,0,.51.2,3.58,3.58,0,0,0,.7.06,4.51,4.51,0,0,0,.87-.07,2.1,2.1,0,0,0,.6-.21,1,1,0,0,0,.34-.32.78.78,0,0,0,.07-.69.39.39,0,0,0-.16-.2.81.81,0,0,0-.28-.13,2.22,2.22,0,0,0-.42-.06l-2-.09a1.69,1.69,0,0,0-.27.13,1.29,1.29,0,0,0-.21.19.56.56,0,0,0-.12.23A.87.87,0,0,0,461.82,311.6Zm1.61-3.16a2.22,2.22,0,0,0,.62-.08,1,1,0,0,0,.69-.68,2,2,0,0,0,.08-.64,1.7,1.7,0,0,0-.09-.57,1,1,0,0,0-.26-.4,1.27,1.27,0,0,0-.42-.25,1.89,1.89,0,0,0-.56-.08,1.94,1.94,0,0,0-.56.08,1.1,1.1,0,0,0-.43.26,1.05,1.05,0,0,0-.27.43,1.8,1.8,0,0,0-.09.6,1.89,1.89,0,0,0,.09.62,1.13,1.13,0,0,0,.27.41,1.18,1.18,0,0,0,.41.23A1.72,1.72,0,0,0,463.43,308.44Z" style="fill:#4d4d4d"/><path d="M467.39,308a4.06,4.06,0,0,1,.19-1.31,2.76,2.76,0,0,1,.52-1,2.31,2.31,0,0,1,1.75-.78,2.77,2.77,0,0,1,.94.15,1.76,1.76,0,0,1,.7.45,1.9,1.9,0,0,1,.44.74,3.11,3.11,0,0,1,.15,1v.55c0,.06,0,.12,0,.17H468.3a3,3,0,0,0,.14,1,1.78,1.78,0,0,0,.39.66,1.49,1.49,0,0,0,.6.39,2.07,2.07,0,0,0,.77.13,3.87,3.87,0,0,0,.48,0,3.11,3.11,0,0,0,.44-.06,3.6,3.6,0,0,0,.44-.12c.14,0,.28-.1.43-.16v.82l-.46.18-.44.11a3.31,3.31,0,0,1-.47.07,4.33,4.33,0,0,1-.53,0,3.33,3.33,0,0,1-1.12-.18,2.31,2.31,0,0,1-.85-.55,2.24,2.24,0,0,1-.54-.93A4.17,4.17,0,0,1,467.39,308Zm.95-.71h2.76a2.91,2.91,0,0,0-.08-.69,1.28,1.28,0,0,0-.26-.49,1,1,0,0,0-.41-.3,1.6,1.6,0,0,0-.56-.09,1.12,1.12,0,0,0-.51.11,1.31,1.31,0,0,0-.44.31,1.67,1.67,0,0,0-.33.5A2.47,2.47,0,0,0,468.34,307.3Z" style="fill:#4d4d4d"/><path d="M477.42,310.94v-3.86a1.37,1.37,0,0,0-.08-.51,1,1,0,0,0-.25-.39,1,1,0,0,0-.42-.25,1.38,1.38,0,0,0-.55-.09h-.38a1.91,1.91,0,0,0-.33.06,2.14,2.14,0,0,0-.34.09,2.4,2.4,0,0,0-.36.14v4.8h-.91V305.1l.88-.07v.4a2.4,2.4,0,0,1,.39-.2,3.43,3.43,0,0,1,.38-.13,1.59,1.59,0,0,1,.39-.08,3.1,3.1,0,0,1,.44,0,2.67,2.67,0,0,1,.88.13,1.75,1.75,0,0,1,.65.38,1.56,1.56,0,0,1,.39.63,2.44,2.44,0,0,1,.14.85v3.95Z" style="fill:#4d4d4d"/><path d="M445.77,317.63a2.1,2.1,0,1,1,2.1-2.1A2.1,2.1,0,0,1,445.77,317.63Zm0-3.7a1.6,1.6,0,1,0,1.6,1.6A1.6,1.6,0,0,0,445.77,313.93Z" style="fill:#8b8f9e"/><path d="M230.4,267.36a3.34,3.34,0,0,1-2.43-.8,3.08,3.08,0,0,1-.8-2.27v-5.58h1.69v5.37a1.89,1.89,0,0,0,.42,1.34,1.59,1.59,0,0,0,1.2.43,1.62,1.62,0,0,0,1.22-.45,1.78,1.78,0,0,0,.43-1.29v-5.4h1.56v5.45a3.13,3.13,0,0,1-.88,2.3A3.22,3.22,0,0,1,230.4,267.36Z" style="fill:#4d4d4d"/><path d="M235.27,262v-1.21h.78v-1.18l1.6-.13v1.31h1.62V262h-1.62v2.91a1.06,1.06,0,0,0,.26.78,1,1,0,0,0,.7.25l.39,0,.43-.09v1.33a4.43,4.43,0,0,1-.63.13,6.66,6.66,0,0,1-.68,0,2.08,2.08,0,0,1-1.51-.55,2.19,2.19,0,0,1-.56-1.63V262Z" style="fill:#4d4d4d"/><path d="M244.43,260.81l-.1,1.52a2,2,0,0,0-.37-.07,1.94,1.94,0,0,0-.36,0,2.2,2.2,0,0,0-.61.09,2.35,2.35,0,0,0-.64.34v4.57h-1.6v-6.41l1.59-.06v.74a2.24,2.24,0,0,1,.64-.61,1.43,1.43,0,0,1,.7-.18h.4A2,2,0,0,1,244.43,260.81Z" style="fill:#4d4d4d"/><path d="M245.16,264a3.42,3.42,0,0,1,.86-2.5,2.88,2.88,0,0,1,2.09-.85,2.55,2.55,0,0,1,1.89.7,2.65,2.65,0,0,1,.7,1.94c0,.21,0,.43,0,.64s0,.39,0,.53h-4a1.8,1.8,0,0,0,.63,1.13,2.18,2.18,0,0,0,1.34.36,5.54,5.54,0,0,0,1-.07,6.65,6.65,0,0,0,.88-.22V267a7.08,7.08,0,0,1-1,.24,5.56,5.56,0,0,1-1.09.09,3.42,3.42,0,0,1-2.4-.81A3.21,3.21,0,0,1,245.16,264Zm1.53-.69h2.47a1.65,1.65,0,0,0-.31-1,1,1,0,0,0-.86-.4,1.13,1.13,0,0,0-.85.37A1.82,1.82,0,0,0,246.69,263.34Z" style="fill:#4d4d4d"/><path d="M256.53,260.85l-.13,1.43-.55-.09a5,5,0,0,0-.56,0,1.63,1.63,0,0,0-1.23.5,2,2,0,0,0-.46,1.4,1.87,1.87,0,0,0,.48,1.43,1.74,1.74,0,0,0,1.22.45,3.86,3.86,0,0,0,.6,0,3.94,3.94,0,0,0,.61-.13v1.37a5.58,5.58,0,0,1-1.37.18,3.32,3.32,0,0,1-2.3-.78,3.07,3.07,0,0,1-.87-2.41,3.35,3.35,0,0,1,.95-2.52,3.15,3.15,0,0,1,2.26-.92c.27,0,.51,0,.71,0A3.16,3.16,0,0,1,256.53,260.85Z" style="fill:#4d4d4d"/><path d="M261.86,267.24v-3.88a1.21,1.21,0,0,0-.28-.91,1.17,1.17,0,0,0-.83-.26,3.7,3.7,0,0,0-.6,0,3.53,3.53,0,0,0-.57.16v4.85H258v-9l1.6-.08v3.07a3.37,3.37,0,0,1,.82-.39,2.78,2.78,0,0,1,.83-.11,2.22,2.22,0,0,1,1.64.59,2.32,2.32,0,0,1,.59,1.71v4.22Z" style="fill:#4d4d4d"/><path d="M264.84,262v-1.21h.78v-1.18l1.6-.13v1.31h1.63V262h-1.63v2.91a1,1,0,0,0,.27.78,1,1,0,0,0,.69.25l.4,0,.42-.09v1.33a3.93,3.93,0,0,1-.63.13,6.45,6.45,0,0,1-.67,0,2.06,2.06,0,0,1-1.51-.55,2.15,2.15,0,0,1-.57-1.63V262Z" style="fill:#4d4d4d"/><path d="M247.82,274.12a2.1,2.1,0,1,1,2.1-2.09A2.1,2.1,0,0,1,247.82,274.12Zm0-3.69a1.6,1.6,0,1,0,1.6,1.6A1.6,1.6,0,0,0,247.82,270.43Z" style="fill:#8b8f9e"/></svg>