<svg id="Layer_1" data-name="Layer 1" xmlns="http://www.w3.org/2000/svg" viewBox="0 0 34 34"><style>path{fill:white;}</style><title>Artboard 1</title><path d="M29.43,13.17a1.15,1.15,0,0,0,.3-1L28.46,3.87a1.19,1.19,0,0,0-2.32-.09L25.6,6.09,27,8.39c.07.1,0,.14,0,.16A14.08,14.08,0,1,0,16.62,32.06,6.44,6.44,0,0,0,17.79,32L18,32H18a1.74,1.74,0,0,0-.48-3.41h-.18c-.24,0-.49,0-.73,0A10.6,10.6,0,1,1,23,9.56h0l-3.18,1a1.18,1.18,0,0,0,.26,2.3l8.38.69A1.18,1.18,0,0,0,29.43,13.17Z"/><path d="M23.46,26.79a1.75,1.75,0,1,0,1.75,1.75A1.74,1.74,0,0,0,23.46,26.79Z"/><path d="M27.86,22.81a1.75,1.75,0,1,0,1.74,1.74A1.75,1.75,0,0,0,27.86,22.81Z"/><path d="M30.28,17.41A1.75,1.75,0,1,0,32,19.16,1.75,1.75,0,0,0,30.28,17.41Z"/></svg>