<svg id="gelderland" xmlns="http://www.w3.org/2000/svg" viewBox="0 0 190 75"><defs><style>.cls-1{fill:#004d6d;}</style></defs><title>Artboard 1</title><path class="cls-1" d="M35,50.13c-3.85,0-6.07-1.76-6.07-5.73a5.72,5.72,0,0,1,6-6,9.07,9.07,0,0,1,3.8.74V41.7h-.82a2.94,2.94,0,0,0-3-2c-2.29,0-4,1.34-4,4.61s2,4.43,4.54,4.44a12.34,12.34,0,0,0,1.51-.15V45.23h1.82v4.33A11.41,11.41,0,0,1,35,50.13Z"/><path class="cls-1" d="M42.51,45.73c.11,2.53,1.34,2.95,3,2.95a10.55,10.55,0,0,0,2.32-.28l.3,1a6.46,6.46,0,0,1-3,.72c-2.8,0-4.43-.76-4.43-4.36,0-2.56,1.63-4.77,4.14-4.77s3.49,1.63,3.49,4.16v.55Zm2.18-3.62c-1.23,0-2.09,1-2.19,2.62h3.85C46.34,43.06,45.89,42.11,44.68,42.11Z"/><path class="cls-1" d="M54.31,50H49.59a2.54,2.54,0,0,1-.06-.77l.88-.31a.81.81,0,0,0,.52-.82L51,45.62V38.95H49.45V38a15,15,0,0,1,2.62-.34c.43,0,.68.18.68.66v7.25l.07,2.83c0,.27,0,.37.23.42l1.34.27A3.71,3.71,0,0,1,54.31,50Z"/><path class="cls-1" d="M62.17,50.16c-.79,0-.9-.79-.9-1.37a3.55,3.55,0,0,1-2.38,1.32c-1.69,0-3.56-.66-3.56-4.15,0-2.95,1.93-4.8,4.32-4.8a8.31,8.31,0,0,1,1.61.13V39H59.69v-.9a14.17,14.17,0,0,1,2.59-.35c.53,0,.74.15.74.68l0,7.18.06,3.11h1.48l.15.71A5.3,5.3,0,0,1,62.17,50.16Zm-.92-7.7a7.31,7.31,0,0,0-1.66-.19c-1.93,0-2.38,1.59-2.38,3.7,0,1.92.9,2.58,2.22,2.58A3.77,3.77,0,0,0,61.19,48l.07-2.45Z"/><path class="cls-1" d="M67.46,45.73c.11,2.53,1.34,2.95,3,2.95a10.53,10.53,0,0,0,2.32-.28l.31,1a6.47,6.47,0,0,1-3,.72c-2.8,0-4.43-.76-4.43-4.36,0-2.56,1.63-4.77,4.14-4.77s3.49,1.63,3.49,4.16v.55Zm2.17-3.62c-1.22,0-2.1,1-2.19,2.62h3.85C71.29,43.06,70.84,42.11,69.63,42.11Z"/><path class="cls-1" d="M81.1,43a2.65,2.65,0,0,0-1.21-.26,3,3,0,0,0-2.06.58V45.6l.06,2.77c0,.28,0,.37.23.4l1.79.32a3.4,3.4,0,0,1-.08.92H74.77a3,3,0,0,1-.06-.79l.74-.34A1.06,1.06,0,0,0,76,47.82l0-2.22V42.35H74.53v-.93a14.34,14.34,0,0,1,2.61-.35c.42,0,.66.15.66.61v.68A3,3,0,0,1,80.25,41a2.83,2.83,0,0,1,1.27.24Z"/><path class="cls-1" d="M86.86,50H82.15a2.54,2.54,0,0,1-.07-.77l.89-.31a.8.8,0,0,0,.52-.82l.06-2.49V38.95H82V38a15,15,0,0,1,2.62-.34c.43,0,.68.18.68.66v7.25l.06,2.83c0,.27,0,.37.23.42l1.34.27A3.72,3.72,0,0,1,86.86,50Z"/><path class="cls-1" d="M94.29,50.13c-1.14,0-1.31-.61-1.34-1.39A4.3,4.3,0,0,1,90,50.14a2,2,0,0,1-2.21-2c0-1.82,1.63-2.56,3.19-2.8.89-.13,1.79-.23,1.92-.24V43.86c0-1.1-.5-1.42-2-1.42a8.75,8.75,0,0,0-2.19.34l-.31-1.22A8,8,0,0,1,91.31,41c1.24,0,3.35.07,3.35,2.42v2.18l.11,3.08h1.58l.11.66A4.42,4.42,0,0,1,94.29,50.13ZM92.92,46c-.07,0-1,.11-1.69.26-1,.23-1.6.68-1.6,1.43,0,.48.29.9,1.11.9A6.7,6.7,0,0,0,92.92,48Z"/><path class="cls-1" d="M107.67,50H103.6a2.84,2.84,0,0,1,0-.84l.48-.29a.9.9,0,0,0,.43-.79l0-2.48V44.39c0-1.34-.14-2-1.64-2a6.14,6.14,0,0,0-2.45.61v2.58l0,2.77c0,.27,0,.44.23.48l1.22.27a3.76,3.76,0,0,1-.08.87H97.41a4.08,4.08,0,0,1-.06-.77l.77-.34a1,1,0,0,0,.5-.84l0-2.45V42.35H97.14v-.92a14.42,14.42,0,0,1,2.64-.34c.45,0,.61.16.61.58v.5A5,5,0,0,1,103.52,41c2.58,0,2.76,1.23,2.76,2.95v1.64l0,3c0,.23,0,.29.23.32l1.21.24A3.42,3.42,0,0,1,107.67,50Z"/><path class="cls-1" d="M115.61,50.16c-.79,0-.9-.79-.9-1.37a3.55,3.55,0,0,1-2.38,1.32c-1.69,0-3.56-.66-3.56-4.15,0-2.95,1.93-4.8,4.32-4.8a8.3,8.3,0,0,1,1.61.13V39h-1.56v-.9a14.19,14.19,0,0,1,2.59-.35c.53,0,.74.15.74.68v7.18l.06,3.11H118l.14.71A5.27,5.27,0,0,1,115.61,50.16Zm-.92-7.7a7.29,7.29,0,0,0-1.66-.19c-1.93,0-2.38,1.59-2.38,3.7,0,1.92.9,2.58,2.22,2.58a3.77,3.77,0,0,0,1.76-.53l.06-2.45Z"/><path class="cls-1" d="M41.22,31.4a5.18,5.18,0,0,1-1-.06l0,2.43c0,.18,0,.27.31.32l1,.19a1,1,0,0,1-.07.45H37.81a1,1,0,0,1,0-.4l.46-.17a.8.8,0,0,0,.46-.76l.05-5.47V25.19h-1.2V24.7a11.84,11.84,0,0,1,2-.27c.35,0,.5.14.5.46v.3a2.64,2.64,0,0,1,1.82-.76c1.83,0,2.76,1,2.76,3.32C44.69,30.57,43,31.4,41.22,31.4Zm.3-6.2a2.62,2.62,0,0,0-1.4.44v2.3l0,2.66a3.85,3.85,0,0,0,1.1.13c1.37,0,2-1.28,2-2.73S42.76,25.2,41.52,25.2Z"/><path class="cls-1" d="M50.79,25.75a2.66,2.66,0,0,0-1.05-.24,2.43,2.43,0,0,0-1.5.45V27.9l.05,2.39c0,.18,0,.27.18.3l1.37.25a1.9,1.9,0,0,1-.06.46H45.89a1,1,0,0,1,0-.36l.56-.28a.83.83,0,0,0,.45-.83l0-1.93V25.17h-1.2v-.51a12.29,12.29,0,0,1,2-.26c.31,0,.5.11.5.46v.65a2.57,2.57,0,0,1,1.94-1.12,2.07,2.07,0,0,1,.94.18Z"/><path class="cls-1" d="M54.73,31.39c-1.95,0-3.11-1-3.11-3.36a3.55,3.55,0,0,1,3.22-3.61c2.11,0,3.15,1,3.15,3.41A3.49,3.49,0,0,1,54.73,31.39Zm0-6.25c-1.35,0-1.64,1.39-1.64,2.7s.36,2.77,1.85,2.77,1.57-1.3,1.57-2.61S56.24,25.14,54.73,25.14Z"/><path class="cls-1" d="M65.39,24.85a3.11,3.11,0,0,0-.68,1.2l-2.14,5.26-1,.3L59.5,25.83a1.77,1.77,0,0,0-.58-.87,1.27,1.27,0,0,1,0-.43h2.69a3.13,3.13,0,0,1,0,.53h-.81l1.62,5L64,26c.2-.53.08-.83-.2-.94l-.42-.15a1.35,1.35,0,0,1,0-.4h2A3,3,0,0,1,65.39,24.85Z"/><path class="cls-1" d="M69.84,31.3H66.17a1.36,1.36,0,0,1-.05-.39l.77-.26a.69.69,0,0,0,.37-.61l0-2.13V25.19H66.09v-.52a12.31,12.31,0,0,1,2-.26c.36,0,.55.11.55.48v3l0,2.39c0,.23.07.31.2.33l1,.21A1.52,1.52,0,0,1,69.84,31.3ZM67.95,23a2,2,0,0,1-1-1c0-.29.78-1,1-1s1,.76,1,1S68.23,23,67.95,23Z"/><path class="cls-1" d="M78.72,31.3H75.53a1.25,1.25,0,0,1-.05-.41l.51-.23c.2-.09.32-.45.34-.64l0-2.1V27c0-1.11-.17-1.59-1.34-1.59a4.29,4.29,0,0,0-1.88.45v2.09l0,2.3c0,.28,0,.39.23.43l1,.21a1.44,1.44,0,0,1-.06.44H70.81a1.27,1.27,0,0,1,0-.36l.58-.24a.77.77,0,0,0,.39-.72l0-2.07V25.19H70.61V24.7a12.62,12.62,0,0,1,2-.26c.35,0,.49.11.49.42v.53a4,4,0,0,1,2.5-1c1.87,0,2.1.93,2.1,2.26v1.28l0,2.46c0,.2.06.26.23.28l.82.19A1.46,1.46,0,0,1,78.72,31.3Z"/><path class="cls-1" d="M84.54,26.24c-.38-.53-1-1.17-1.65-1.17-1.22,0-1.83.74-1.83,2.55,0,1.55.58,2.8,2.22,2.8a5.5,5.5,0,0,0,1.66-.26l.17.41a3.22,3.22,0,0,1-2.31.84c-2.22,0-3.13-.91-3.13-3.43A3.52,3.52,0,0,1,83,24.35c.76,0,2.15.14,2.15.91A1.11,1.11,0,0,1,84.54,26.24Z"/><path class="cls-1" d="M89.68,31.3H86a1.51,1.51,0,0,1,0-.39l.76-.26a.68.68,0,0,0,.37-.61l0-2.13V25.19H85.92v-.52a12.24,12.24,0,0,1,2-.26c.36,0,.54.11.54.48v3l0,2.39c0,.23.08.31.21.33l1,.21A1.57,1.57,0,0,1,89.68,31.3ZM87.78,23a2.05,2.05,0,0,1-1-1c0-.29.79-1,1-1s1,.76,1,1S88.06,23,87.78,23Z"/><path class="cls-1" d="M91.89,27.94c.11,2,1.08,2.45,2.41,2.45a9.17,9.17,0,0,0,1.8-.22l.17.44a3.79,3.79,0,0,1-2.42.79c-2.17,0-3.35-.73-3.35-3.31,0-2,1.3-3.72,3.24-3.72s2.64,1.34,2.64,3.25v.33ZM93.5,25c-.87,0-1.59.69-1.61,2.31h3C94.87,26,94.59,25,93.5,25Z"/><rect class="cls-1" x="22.18" y="19.43" width="101.95" height="0.6"/><rect class="cls-1" x="22.18" y="34.72" width="14.02" height="0.6"/><rect class="cls-1" x="22.18" y="30.9" width="7.65" height="0.6"/><rect class="cls-1" x="22.18" y="27.08" width="7.65" height="0.6"/><rect class="cls-1" x="22.18" y="23.25" width="7.65" height="0.6"/><rect class="cls-1" x="43.21" y="34.72" width="80.92" height="0.6"/><rect class="cls-1" x="22.18" y="55.11" width="101.95" height="0.6"/></svg>