<svg id="groningen" xmlns="http://www.w3.org/2000/svg" xmlns:xlink="http://www.w3.org/1999/xlink" viewBox="0 0 190 75"><defs><style>.cls-1{fill:url(#linear-gradient);}.cls-2{fill:url(#linear-gradient-2);}.cls-3{fill:url(#linear-gradient-3);}.cls-4{fill:url(#linear-gradient-4);}.cls-10,.cls-5{fill:#fff;}.cls-11,.cls-12,.cls-14,.cls-5,.cls-6,.cls-7,.cls-9{fill-rule:evenodd;}.cls-6,.cls-8{fill:#025ea4;}.cls-7{fill:#faa61a;}.cls-9{fill:#005baa;}.cls-11,.cls-12,.cls-13,.cls-14,.cls-15{fill:none;}.cls-12,.cls-13{stroke:#025ea4;}.cls-12,.cls-13,.cls-14,.cls-15{stroke-miterlimit:3.86;stroke-width:0.76px;}.cls-14,.cls-15{stroke:#fff;}</style><linearGradient id="linear-gradient" x1="59.3" y1="37.14" x2="96.29" y2="37.14" gradientUnits="userSpaceOnUse"><stop offset="0" stop-color="#fff"/><stop offset="1" stop-color="#025ea4"/></linearGradient><linearGradient id="linear-gradient-2" x1="28.37" y1="36.69" x2="96.28" y2="36.69" xlink:href="#linear-gradient"/><linearGradient id="linear-gradient-3" x1="28.26" y1="49.05" x2="96.42" y2="49.05" xlink:href="#linear-gradient"/><linearGradient id="linear-gradient-4" x1="28.2" y1="24.75" x2="96.11" y2="24.75" xlink:href="#linear-gradient"/></defs><title>Artboard 1</title><rect class="cls-1" x="59.3" y="30.06" width="36.99" height="14.17"/><rect class="cls-2" x="28.37" y="31.35" width="67.92" height="10.68"/><rect class="cls-3" x="28.26" y="43.51" width="68.16" height="11.08"/><rect class="cls-4" x="28.2" y="19.41" width="67.91" height="10.68"/><path class="cls-5" d="M94.05,20.23s-3.31-2.54-3.12,2.55c.17,4.62,2.56,6,2.56,6h.64A9.6,9.6,0,0,1,92.64,26a7.07,7.07,0,0,1-.26-2.92c.34-1.91,1.58-.37,1.58-.37Z"/><path class="cls-5" d="M90.51,21.54s-3.29-1.63-2.47,2.9c.74,4.11,3.06,4.87,3.06,4.87l.57-.13A7.93,7.93,0,0,1,90,27a6.28,6.28,0,0,1-.6-2.57c.06-1.78,1.37-.64,1.37-.64Z"/><path class="cls-5" d="M87.39,23s-3.14-.88-1.89,3c1.14,3.56,3.31,3.84,3.31,3.84l.5-.21A6.52,6.52,0,0,1,87.54,28a5.4,5.4,0,0,1-.83-2.2c-.15-1.61,1.15-.82,1.15-.82Z"/><path class="cls-6" d="M98.47,20.23s3.31-2.54,3.12,2.55c-.17,4.62-2.57,6-2.57,6h-.64A9.6,9.6,0,0,0,99.88,26a7.12,7.12,0,0,0,.26-2.92c-.34-1.91-1.58-.37-1.58-.37Z"/><path class="cls-6" d="M102,21.54s3.29-1.63,2.47,2.9c-.74,4.11-3.06,4.87-3.06,4.87l-.57-.13A7.91,7.91,0,0,0,102.54,27a6.33,6.33,0,0,0,.6-2.57c-.07-1.78-1.37-.64-1.37-.64Z"/><path class="cls-6" d="M105.13,23s3.14-.88,1.89,3c-1.14,3.56-3.31,3.84-3.31,3.84l-.51-.21A6.47,6.47,0,0,0,105,28a5.36,5.36,0,0,0,.83-2.2c.15-1.61-1.16-.82-1.16-.82Z"/><path class="cls-7" d="M129.47,21.52a2.06,2.06,0,0,0-1.71-.86,2.16,2.16,0,0,0-1.47.65v-.52h-1.85V29.5h1.85V26.21a2.2,2.2,0,0,0,1.47.62,2.06,2.06,0,0,0,1.71-.85,3.53,3.53,0,0,0,.66-2.22A3.56,3.56,0,0,0,129.47,21.52ZM128,25a.8.8,0,0,1-.74.42,1,1,0,0,1-.79-.38,1,1,0,0,0-.14-.16V22.64l.18-.24a1,1,0,0,1,.76-.37.8.8,0,0,1,.74.42,2.59,2.59,0,0,1,.25,1.27A2.57,2.57,0,0,1,128,25Z"/><path class="cls-7" d="M131.34,26.7V20.79h1.72V23a7.84,7.84,0,0,1,.33-1.08q.49-1.19,1.32-1.19a1.41,1.41,0,0,1,1,.36l-.41,1.71a1,1,0,0,0-.78-.37q-.57,0-.94.81a6,6,0,0,0-.43,2.18V26.7h-1.85Z"/><path class="cls-7" d="M140.85,21.52a2.93,2.93,0,0,0-4.14,0,3.14,3.14,0,0,0-.8,2.23,3.13,3.13,0,0,0,.8,2.22,2.94,2.94,0,0,0,4.14,0,3.12,3.12,0,0,0,.8-2.22A3.14,3.14,0,0,0,140.85,21.52ZM139.49,25a.77.77,0,0,1-.72.43.77.77,0,0,1-.71-.43,2.76,2.76,0,0,1-.24-1.29,2.79,2.79,0,0,1,.24-1.3.76.76,0,0,1,.71-.43.77.77,0,0,1,.72.43,2.78,2.78,0,0,1,.24,1.3A2.75,2.75,0,0,1,139.49,25Z"/><polygon class="cls-7" points="141.51 20.79 142.39 20.79 143.28 20.79 144.49 23.95 144.49 23.95 145.57 20.79 146.44 20.79 147.31 20.79 144.94 26.83 144.46 26.83 143.98 26.83 141.51 20.79"/><polygon class="cls-7" points="148.06 26.7 148.06 20.79 148.98 20.79 149.91 20.79 149.91 26.7 148.98 26.7 148.06 26.7"/><path class="cls-7" d="M149,18a1,1,0,1,1-.7.29A1,1,0,0,1,149,18Z"/><path class="cls-7" d="M151.39,26.7V20.79h1.85v.8a4.92,4.92,0,0,1,.38-.41,2,2,0,0,1,2.69,0,2.26,2.26,0,0,1,.49,1.57V26.7h-1.86V23a1.2,1.2,0,0,0-.18-.7.58.58,0,0,0-.5-.26.83.83,0,0,0-.56.26,2,2,0,0,0-.46.7V26.7h-1.85Z"/><path class="cls-7" d="M162.51,26.41a5.85,5.85,0,0,1-.88.33,3.13,3.13,0,0,1-2.88-.77,3.06,3.06,0,0,1-.83-2.22,3.08,3.08,0,0,1,.83-2.23,2.86,2.86,0,0,1,2.15-.86,2.71,2.71,0,0,1,.69.08,5.91,5.91,0,0,1,.83.31v1.37a3.69,3.69,0,0,0-.58-.27,1.47,1.47,0,0,0-.46-.07,1.5,1.5,0,0,0-1.16.42,1.79,1.79,0,0,0-.38,1.25,1.77,1.77,0,0,0,.38,1.24,1.5,1.5,0,0,0,1.16.41,1.62,1.62,0,0,0,.52-.08,3.78,3.78,0,0,0,.62-.29Z"/><polygon class="cls-7" points="163.64 26.7 163.64 20.79 164.56 20.79 165.49 20.79 165.49 26.7 164.56 26.7 163.64 26.7"/><path class="cls-7" d="M164.56,18a1,1,0,1,1-.7,1.7,1,1,0,0,1,0-1.41A1,1,0,0,1,164.56,18Z"/><path class="cls-7" d="M171.77,23.76a3.5,3.5,0,0,0-.68-2.23,2.12,2.12,0,0,0-1.75-.86,2.37,2.37,0,0,0-1.9.86,3.34,3.34,0,0,0-.73,2.23,3.27,3.27,0,0,0,.73,2.27,2.61,2.61,0,0,0,2,.81,3.73,3.73,0,0,0,1-.13,6,6,0,0,0,1.11-.47V25.08a3.59,3.59,0,0,1-.81.41,2.5,2.5,0,0,1-.78.11,1.34,1.34,0,0,1-1.12-.47,2.07,2.07,0,0,1-.36-1.13h3.22Zm-3.22-.6a3.54,3.54,0,0,1,.17-1,.64.64,0,0,1,.62-.44.63.63,0,0,1,.61.42,3,3,0,0,1,.17,1Z"/><path class="cls-6" d="M135.5,30.87H133a3.44,3.44,0,0,0-.52,0,2.55,2.55,0,0,0-1.79.62,2.11,2.11,0,0,0-.68,1.63,2.08,2.08,0,0,0,.68,1.61,3.28,3.28,0,0,0,.43.31l-.26.11c-.45.21-.67.46-.67.76a1.15,1.15,0,0,0,.6,1h0a1.46,1.46,0,0,0-.77.5,1.24,1.24,0,0,0-.32.8,1.32,1.32,0,0,0,.78,1.13,3.69,3.69,0,0,0,1.91.46,4.6,4.6,0,0,0,2.33-.47,1.54,1.54,0,0,0,.77-1.41,1.46,1.46,0,0,0-.59-1.29,4.26,4.26,0,0,0-2-.49,7.38,7.38,0,0,1-1.08-.12q-.25-.06-.25-.22c0-.14.09-.25.27-.34l.16-.07s0,0,.24,0l.79-.1a2.52,2.52,0,0,0,1.24-.52,1.81,1.81,0,0,0,.69-1.47,2.63,2.63,0,0,0-.35-1.36h.93Zm-3.44,6.54a3.33,3.33,0,0,1,.83-.05h.2a1.17,1.17,0,0,1,.65.23.6.6,0,0,1,.26.48c0,.21-.14.39-.42.54a2.24,2.24,0,0,1-1,.22,1.7,1.7,0,0,1-.9-.22.64.64,0,0,1-.37-.55.59.59,0,0,1,.23-.44A1.15,1.15,0,0,1,132.06,37.41Zm1-3.27a.73.73,0,0,1-1.19,0,1.69,1.69,0,0,1-.2-.92,1.73,1.73,0,0,1,.2-.93.72.72,0,0,1,1.18,0,2.23,2.23,0,0,1,0,1.85Z"/><path class="cls-6" d="M136.25,36.87V31H138v2.2a7.49,7.49,0,0,1,.33-1.08c.33-.8.77-1.19,1.32-1.19a1.4,1.4,0,0,1,1,.36L140.25,33a1,1,0,0,0-.78-.37q-.57,0-.93.81a6,6,0,0,0-.43,2.18v1.29h-1.85Z"/><path class="cls-6" d="M146,31.69a2.94,2.94,0,0,0-4.15,0,3.51,3.51,0,0,0,0,4.45,2.94,2.94,0,0,0,4.15,0,3.5,3.5,0,0,0,0-4.45Zm-1.36,3.52a.81.81,0,0,1-1.43,0,2.75,2.75,0,0,1-.24-1.29,2.79,2.79,0,0,1,.24-1.3.81.81,0,0,1,1.43,0,2.78,2.78,0,0,1,.24,1.3A2.75,2.75,0,0,1,144.65,35.21Z"/><path class="cls-6" d="M148,36.87V31h1.85v.8a4.59,4.59,0,0,1,.38-.41,2,2,0,0,1,2.68,0,2.27,2.27,0,0,1,.49,1.57v3.93h-1.86V33.13a1.18,1.18,0,0,0-.19-.69.57.57,0,0,0-.49-.26.82.82,0,0,0-.56.26,2,2,0,0,0-.46.7v3.73H148Z"/><polygon class="cls-6" points="154.78 36.87 154.78 30.96 155.7 30.96 156.63 30.96 156.63 36.87 155.7 36.87 154.78 36.87"/><path class="cls-6" d="M155.7,28.13a1,1,0,1,1,0,2,1,1,0,1,1,0-2Z"/><path class="cls-6" d="M158.11,36.87V31H160v.8a5,5,0,0,1,.38-.41,2,2,0,0,1,2.69,0,2.27,2.27,0,0,1,.49,1.57v3.93h-1.86V33.13a1.2,1.2,0,0,0-.18-.69.58.58,0,0,0-.5-.26.82.82,0,0,0-.56.26,1.92,1.92,0,0,0-.46.7v3.73h-1.85Z"/><path class="cls-6" d="M170.26,30.87h-2.52a3.43,3.43,0,0,0-.52,0,2.53,2.53,0,0,0-1.78.62,2.09,2.09,0,0,0-.68,1.63,2.07,2.07,0,0,0,.68,1.61,3.28,3.28,0,0,0,.42.31l-.26.11c-.44.21-.67.46-.67.76a1.15,1.15,0,0,0,.61,1h0a1.46,1.46,0,0,0-.77.5,1.24,1.24,0,0,0-.32.8,1.33,1.33,0,0,0,.78,1.13,3.7,3.7,0,0,0,1.91.46,4.6,4.6,0,0,0,2.33-.47,1.54,1.54,0,0,0,.77-1.41,1.45,1.45,0,0,0-.59-1.29,4.25,4.25,0,0,0-2-.49,7.44,7.44,0,0,1-1.08-.12q-.25-.06-.25-.22c0-.14.09-.25.27-.34l.16-.07s0,0,.24,0l.79-.1a2.52,2.52,0,0,0,1.24-.52,1.8,1.8,0,0,0,.68-1.47,2.63,2.63,0,0,0-.35-1.36h.92Zm-3.44,6.54a3.33,3.33,0,0,1,.83-.05h.2a1.16,1.16,0,0,1,.65.23.6.6,0,0,1,.27.48c0,.21-.14.39-.43.54a2.22,2.22,0,0,1-1,.22,1.7,1.7,0,0,1-.9-.22.64.64,0,0,1-.37-.55.6.6,0,0,1,.23-.44A1.16,1.16,0,0,1,166.83,37.41Zm1-3.27a.73.73,0,0,1-1.19,0,1.72,1.72,0,0,1-.2-.92,1.75,1.75,0,0,1,.2-.93.66.66,0,0,1,.6-.31.66.66,0,0,1,.59.31,1.72,1.72,0,0,1,.2.93A1.69,1.69,0,0,1,167.87,34.13Z"/><path class="cls-6" d="M175.81,33.92a3.52,3.52,0,0,0-.67-2.23,2.13,2.13,0,0,0-1.76-.86,2.37,2.37,0,0,0-1.89.86,3.33,3.33,0,0,0-.73,2.23,3.26,3.26,0,0,0,.73,2.27,2.61,2.61,0,0,0,2,.81,3.76,3.76,0,0,0,1-.13,6.06,6.06,0,0,0,1.11-.47V35.24a3.63,3.63,0,0,1-.81.41,2.49,2.49,0,0,1-.78.11A1.33,1.33,0,0,1,173,35.3a2.06,2.06,0,0,1-.36-1.13h3.21Zm-3.21-.6a3.33,3.33,0,0,1,.17-1,.64.64,0,0,1,.62-.44.63.63,0,0,1,.61.43,3.11,3.11,0,0,1,.17,1Z"/><path class="cls-6" d="M177,36.87V31h1.85v.8a5.54,5.54,0,0,1,.38-.41,2,2,0,0,1,2.68,0,2.27,2.27,0,0,1,.49,1.57v3.93h-1.86V33.13a1.18,1.18,0,0,0-.18-.69.58.58,0,0,0-.5-.26.82.82,0,0,0-.56.26,2,2,0,0,0-.46.7v3.73H177Z"/><rect class="cls-8" x="87.46" y="42.02" width="18.44" height="0.13"/><path class="cls-8" d="M123.27,32.31c-2.12-1.89-3.21-.37-3.21-.37s2-.5,1.67.79c0,0,0,.4-1.84.65-2.52.33-2.18,3.67-1.81,4.42.27.55,2.16,2.4,3.13,3.57a2.22,2.22,0,0,1,.6,2c0,.1-.38,1.25-1.43,1.29-1.66.06-2.81-2.07-2.81-2.07a8.5,8.5,0,0,1-.89-3.44s-.74,1-1.55.34a8.46,8.46,0,0,0,3.56,5.71,2.67,2.67,0,0,0,4-1.58c.46-1.86-.14-2.27-2.1-4.28s-1.55-3.3-.89-4,2,.23,3,.34S125.39,34.2,123.27,32.31Zm-2.32,2.11a2.28,2.28,0,0,0-2,.53s.65-.94,1.4-.92c2.32.08,2.32-.89,2.32-.89C123.67,34.61,122.3,34.83,120.94,34.42Z"/><path class="cls-6" d="M112.71,26.77a2.2,2.2,0,0,1-2.32,1.44,2.48,2.48,0,0,0,1.38,2l1.57-.14s.3.67.18.65c-1.46-.37-2,.16-2,.16a6.29,6.29,0,0,1-.36,1.37c1.48.53,3.7-.86,3-.63a5.3,5.3,0,0,1-2.31.15c-.1,0,.14-.49.21-.53.67-.38,1.64,0,1.7-.09.35-.34-.11-1.58-.11-1.58s0-.14-1.82.12c-.51-.12-.62-1-.61-1a2.6,2.6,0,0,0,1.81-.95c3.21-.2,2.56-2,2.65-2a12.08,12.08,0,0,1,.86.89l.74-.14a6,6,0,0,0-1-1.55c-.68-.68-1.58-1.09-1.52-.92C115.93,27.33,112.71,26.77,112.71,26.77Z"/><path class="cls-6" d="M116.38,28.49s0-1.11-.43-1.11a4.63,4.63,0,0,1,2.7-.4c.32.09-.49,1.57-.49,1.57s2.41,2.5-.68,6.08,0,2.75,0,2.75a1,1,0,0,1-.92.55,1.46,1.46,0,0,1-1.12-1.84c.37-.72,2.47-2.9,2.5-4.19a2.72,2.72,0,0,0-1.32-2.73s1.15-.7,1.29-1.49C118,27.35,116.38,28.49,116.38,28.49Z"/><path class="cls-9" d="M115.09,28.31s-.74-.56-1.06-.33a6.27,6.27,0,0,0-.42.68c.69,0,1.34.06,1.34.06Z"/><path class="cls-6" d="M119.65,49c-4.33.4-4.93-1.64-5.11-3.16s1.26-3.07-.6-4.36-1.64-1.81-1.64-1.81-1.35.41-1.4,1,.92.92,1.92,1.55,1,1.15.92,3.27S115,50.79,119.65,49Z"/><path class="cls-6" d="M123.24,51.74c-1.48-.42-1.35-1-1.35-1a3.23,3.23,0,0,0,.49-2.27c-3.57-.89-3.16-2.55-3.16-2.55a2.3,2.3,0,0,1-1.43-.75,4.2,4.2,0,0,0,3.5,3.87,1.76,1.76,0,0,1-.26,1.84c-.14.23,1.21,1,1.21,1a7,7,0,0,0-.18,1.81A6.45,6.45,0,0,0,118,53s-.14-1.16.24-1.54c0,0-.22-.3-1.2-.39a5.88,5.88,0,0,1-.11,3.36s3.47-2,5.65,0C122.06,53.08,123.39,51.78,123.24,51.74Z"/><path class="cls-6" d="M106.37,51.48c4.65.8,1.18-5.62,1.18-5.62,4.21-.75,5-3.27,5-3.27a1.39,1.39,0,0,1,.89,1.46s-.43,1.32-4.65,2.09c0,0,2.15,6.69-1.78,6l-.46-.26Z"/><path class="cls-6" d="M113.4,46.37c.11-.23,0,.72.29,1.29,0,0-.77,1.06-3,1l.11-.63A2.5,2.5,0,0,0,113.4,46.37Z"/><path class="cls-6" d="M106.39,52.17a4.14,4.14,0,0,1,.06,1.2,4.79,4.79,0,0,1-.46,1.35,5.84,5.84,0,0,1,5.31-.35s1.17-1.46.77-2.5c-.92-2.36-.26-3-.26-3s-.89.09-1.14.09-.12,1.26.4,2.78-.11,2.07-.11,2.07a4.71,4.71,0,0,0-3.74-.46s.42-.83.27-1A.85.85,0,0,1,106.39,52.17Z"/><path class="cls-6" d="M119,49.67,118,50s-.12,1,2,1.64a4.3,4.3,0,0,1-.77-.89A2.67,2.67,0,0,1,119,49.67Z"/><path class="cls-10" d="M92.53,38.92l0,.06a2.87,2.87,0,0,1,.19.42,3.19,3.19,0,0,0,.39.74c.17-.36.32-.77.67-.7a.49.49,0,0,1,.35.33l0,.11c-.09-.05-.13-.12-.23-.14s-.33.14-.37.35a2.31,2.31,0,0,0,0,.24.89.89,0,0,1,.6-.09c.22,0,.3.26.36.5v.1a.57.57,0,0,0-.39-.29.42.42,0,0,0-.4.11c.27.25.56.45.5.84a.53.53,0,0,1-.31.39v-.1s0,0,.05-.08a.94.94,0,0,0-.83-1c-.26-.05-.43.1-.69.05-.11,0-.17-.05-.28-.07a.79.79,0,0,1,.73-.25,1.71,1.71,0,0,0-.55-.92l-.13-.17a7.68,7.68,0,0,1-.43,1c0,.07-.24-.19-.59-1.06a2.33,2.33,0,0,1-.14.25,1.77,1.77,0,0,0-.43,1,.77.77,0,0,1,.75.13c-.1,0-.16.07-.27.11s-.43,0-.68.06a1,1,0,0,0-.7,1.12s.05,0,.07.07v.1a.5.5,0,0,1-.36-.34c-.11-.37.16-.62.39-.91a.41.41,0,0,0-.4,0,.59.59,0,0,0-.35.35v-.1c0-.25.09-.48.3-.55a.88.88,0,0,1,.61,0,2.19,2.19,0,0,0,0-.24c-.06-.2-.23-.35-.41-.29s-.13.11-.21.18l0-.11a.52.52,0,0,1,.3-.38c.34-.12.54.26.76.59a3.33,3.33,0,0,0,.29-.8,3,3,0,0,1,.12-.4,3.16,3.16,0,0,1-.55.2c-.9.24-2-1.19-1.76-1.14.64.12,1.4-.26,1-.19s-.92-.1-1.38-.86-.36-1.69-.23-1.5a2.13,2.13,0,0,0,1.44.81,2.46,2.46,0,0,1-1.48-1.78c-.25-1.47.52-1.89.52-1.89s1.36-.1,1.53,2.94c0,0,0,0,.17-.14s.29-.17.52-.36a.93.93,0,0,0,.32-.74A.38.38,0,0,0,90.7,34a6.54,6.54,0,0,1-.62-.33s.9.07.62-.1a1.53,1.53,0,0,0-.73-.14l.13-.19a3.36,3.36,0,0,0,.69-.28c.27-.17.19-.29.63-.07s.23.93.17,1.59.14.75.22.81a.88.88,0,0,0,.22-.81c-.06-.67-.27-1.38.17-1.59s.36-.1.63.07a3.41,3.41,0,0,0,.69.28l.13.19a1.55,1.55,0,0,0-.73.14c-.27.17.63.1.63.1a6.36,6.36,0,0,1-.63.33c-.19.07-.27.17-.27.43a.93.93,0,0,0,.31.74c.23.19.4.17.52.36s.17.14.17.14c.17-3,1.57-3.18,1.57-3.18a2.36,2.36,0,0,1,.48,2.14,2.45,2.45,0,0,1-1.49,1.78,2.13,2.13,0,0,0,1.44-.81c.12-.19.23.74-.23,1.5s-1,.93-1.38.86.39.31,1,.19c.25,0-.86,1.38-1.76,1.14A3.07,3.07,0,0,1,92.53,38.92Z"/><path class="cls-10" d="M96.28,46.33l0,2.48-3,3.6a15.51,15.51,0,0,0,3,1.21l0,1.34a12.84,12.84,0,0,1-9.3-10.38,9.07,9.07,0,0,1-.12-1.9V42.3a1.42,1.42,0,0,1-.16.19c-1.17-.38-2.13.82-2.16.82s-.57-.95-1-1.8a5.46,5.46,0,0,0-2.88-2.14C78.95,38.9,79,38.3,79,38.3c-2.3,2-3.45-.2-3.45-.2s1.52,1,2.33.12a5.27,5.27,0,0,0,1-2.35,2.14,2.14,0,0,0,1.32,1.92,9.47,9.47,0,0,1,2.32,1.41,6,6,0,0,1,1.63,2.31c.35,1-.32.54.6.41a17.14,17.14,0,0,1,1.84-.06.41.41,0,0,1,.13,0v-.52l-.08,0c-1.3-.67-1.74.08-1.8,0a17.49,17.49,0,0,0-2.32-5.63,4.16,4.16,0,0,0-4.67-2c.23-.6-.49-1.41-.49-1.41s3.78-.31,5.43,2.06a18,18,0,0,1,2.33,5.93s.62-.54,1.59.43V32a2.06,2.06,0,0,1-.76.77,4.37,4.37,0,0,1-2,3.12l-.44-1c2.44-1.29,1.67-2.61,1.67-2.61a3.46,3.46,0,0,0,1.22-.8c-1,.44-1.56-.07-1.65.16a7.73,7.73,0,0,1-2.07,2.16L82.11,33s2-.71,2.43-2.25a2.57,2.57,0,0,0,2.43,0,1.8,1.8,0,0,1,0,.81A35,35,0,0,1,96.2,30v.77a26,26,0,0,0-6.17,1,9.48,9.48,0,0,0-2.55,1.08v9.84h0a10.91,10.91,0,0,0,.16,1.7c.08.42.17.82.28,1.21L91,42.14h2l-4.49,5.15A11,11,0,0,0,89.41,49l5.94-6.88h1l0,1.24L90.43,50.3a10.47,10.47,0,0,0,1.5,1.31Z"/><path class="cls-5" d="M79.78,26.65a2.2,2.2,0,0,0,2.32,1.44,2.48,2.48,0,0,1-1.37,2l-1.57-.13s-.3.67-.18.64c1.46-.36,2,.16,2,.16a6.29,6.29,0,0,0,.36,1.37c-1.48.53-3.7-.86-3-.63a5.35,5.35,0,0,0,2.31.16c.09,0-.14-.49-.22-.53-.67-.38-1.63,0-1.69-.09-.35-.34.11-1.58.11-1.58s0-.14,1.82.12c.51-.12.61-1,.6-1a2.6,2.6,0,0,1-1.81-.95c-3.21-.2-2.56-2-2.65-2a12.16,12.16,0,0,0-.86.89l-.74-.14a6,6,0,0,1,1-1.55c.67-.69,1.57-1.1,1.51-.92C76.56,27.21,79.78,26.65,79.78,26.65Z"/><path class="cls-5" d="M76.11,28.37s0-1.11.43-1.11a4.63,4.63,0,0,0-2.7-.4c-.32.09.49,1.57.49,1.57s-2.41,2.5.68,6.09,0,2.75,0,2.75a1,1,0,0,0,.92.55A1.46,1.46,0,0,0,77.06,36c-.37-.72-3.92-5.3-1.18-6.92,0,0-1.15-.7-1.29-1.49C74.53,27.22,76.11,28.37,76.11,28.37Z"/><path class="cls-5" d="M77.4,28.18s.74-.56,1.06-.33a6.09,6.09,0,0,1,.42.68c-.69,0-1.34.06-1.34.06Z"/><path class="cls-5" d="M72.84,48.92c4.33.4,4.93-1.64,5.11-3.16s-1.26-3.07.6-4.36,1.64-1.81,1.64-1.81,1.35.41,1.4,1-.92.92-1.92,1.55-1,1.15-.92,3.27S77.51,50.67,72.84,48.92Z"/><path class="cls-5" d="M69.25,51.61c1.48-.42,1.35-1,1.35-1a3.22,3.22,0,0,1-.49-2.27c3.57-.89,3.15-2.55,3.15-2.55A2.29,2.29,0,0,0,74.7,45a4.2,4.2,0,0,1-3.5,3.87,1.76,1.76,0,0,0,.26,1.84c.14.23-1.21,1-1.21,1a7,7,0,0,1,.18,1.81,6.45,6.45,0,0,1,4.09-.6s.14-1.16-.23-1.54c0,0,.22-.3,1.19-.39a5.88,5.88,0,0,0,.11,3.36s-3.47-2-5.65,0C70.43,53,69.1,51.66,69.25,51.61Z"/><path class="cls-5" d="M86.12,51.36c-4.65.8-1.18-5.62-1.18-5.62-4.22-.75-5-3.27-5-3.27A1.38,1.38,0,0,0,79,43.92s.43,1.32,4.65,2.09c0,0-2.15,6.69,1.78,6l.46-.26Z"/><path class="cls-5" d="M79.09,46.25c-.11-.23,0,.72-.29,1.29,0,0,.78,1.06,3,1l-.11-.63A2.5,2.5,0,0,1,79.09,46.25Z"/><path class="cls-5" d="M86.09,52a4.38,4.38,0,0,0-.06,1.2,4.89,4.89,0,0,0,.46,1.35,5.83,5.83,0,0,0-5.31-.34s-1.18-1.46-.78-2.5c.92-2.36.26-3,.26-3s.89.09,1.15.09.11,1.26-.4,2.78.12,2.07.12,2.07a4.71,4.71,0,0,1,3.74-.46s-.41-.83-.27-1A.85.85,0,0,0,86.09,52Z"/><path class="cls-5" d="M73.5,49.55l1,.34s.11,1-2,1.64a4.43,4.43,0,0,0,.77-.89A2.67,2.67,0,0,0,73.5,49.55Z"/><path class="cls-5" d="M88.85,44.2v-.46c0-.26-.07-.58-.32-.58s-.31.11-.29.27a.93.93,0,0,0,0,.15h-.12c-.14,0-.23.18-.23.33s.24.31.44.31Z"/><path class="cls-5" d="M93.44,43.75v-.46c0-.26-.07-.58-.32-.58s-.32.13-.3.29,0,.09,0,.12h-.12c-.14,0-.22.18-.22.33s.23.31.44.31Z"/><path class="cls-5" d="M92.31,45c0-.18,0-.28,0-.46S92.23,44,92,44s-.32.13-.3.28,0,.11,0,.13H91.6c-.14,0-.23.18-.23.33s.24.31.44.31Z"/><path class="cls-5" d="M91.17,46.42c0-.18,0-.28,0-.46s-.07-.58-.31-.58a.29.29,0,0,0-.3.29c0,.13,0,.1,0,.13h-.12c-.14,0-.22.18-.22.33s.23.31.43.31Z"/><path class="cls-5" d="M90,47.77v-.46c0-.26-.07-.58-.32-.58s-.31.13-.29.28,0,.09,0,.13h-.12c-.14,0-.23.18-.23.33s.23.31.44.31Z"/><path class="cls-5" d="M95.5,46.71v-.46c0-.26-.07-.58-.32-.58s-.31.12-.29.28,0,.12,0,.14H94.8c-.14,0-.22.18-.22.33s.23.31.43.31Z"/><path class="cls-5" d="M94.31,48.08v-.46c0-.26-.07-.58-.32-.58a.29.29,0,0,0-.29.29c0,.13,0,.08,0,.13h-.12c-.14,0-.22.18-.22.33s.23.31.43.31Z"/><path class="cls-5" d="M93.22,49.36v-.46c0-.26-.07-.58-.32-.58s-.32.13-.29.28a.45.45,0,0,0,0,.13h-.12c-.14,0-.23.18-.23.33s.23.31.44.31Z"/><path class="cls-5" d="M92.07,50.78v-.46c0-.26-.07-.58-.32-.58a.28.28,0,0,0-.29.29c0,.13,0,.1,0,.13h-.12c-.14,0-.23.18-.23.33s.24.31.44.31Z"/><path class="cls-5" d="M95,52.71v-.46c0-.26-.07-.58-.31-.58s-.31.11-.29.27a.89.89,0,0,0,0,.14h-.12c-.14,0-.22.18-.22.33s.23.31.43.31Z"/><path class="cls-6" d="M97.74,32.9v-.5c0-.28-.08-.63-.33-.63s-.33.12-.3.29a1.07,1.07,0,0,0,0,.16l-.12,0c-.15,0-.24.2-.24.36s.25.33.46.33Z"/><path class="cls-6" d="M101.78,33.55V33c0-.28-.08-.63-.33-.63a.32.32,0,0,0-.32.32c0,.14,0,.1,0,.13l-.12,0c-.15,0-.23.2-.23.36s.24.34.46.34Z"/><path class="cls-6" d="M100.39,35.19c0-.19,0-.3,0-.5s-.08-.63-.33-.63a.32.32,0,0,0-.31.32.36.36,0,0,0,0,.13l-.12,0c-.15,0-.23.2-.23.36s.24.34.46.34Z"/><path class="cls-6" d="M99,36.95v-.5c0-.28-.08-.63-.33-.63a.31.31,0,0,0-.31.31c0,.14,0,.1,0,.14l-.12,0c-.15,0-.24.2-.24.36s.25.34.46.34Z"/><path class="cls-6" d="M97.56,38.72v-.5c0-.28-.08-.63-.33-.63a.31.31,0,0,0-.31.32.52.52,0,0,0,0,.13l-.12,0c-.14,0-.23.2-.23.36s.25.34.46.34Z"/><path class="cls-6" d="M104.07,36.24c0-.19,0-.3,0-.5s-.07-.63-.33-.63a.3.3,0,0,0-.31.31c0,.14,0,.13,0,.14h-.12c-.15,0-.24.2-.24.36s.25.34.46.34Z"/><path class="cls-6" d="M102.71,38c0-.19,0-.3,0-.5s-.07-.63-.33-.63a.32.32,0,0,0-.32.32c0,.14,0,.11,0,.13l-.13,0c-.15,0-.24.2-.24.36s.25.34.46.34Z"/><path class="cls-6" d="M101.25,39.75c0-.19,0-.31,0-.5s-.07-.63-.33-.63a.31.31,0,0,0-.31.31c0,.14,0,.12,0,.14l-.12,0c-.15,0-.24.2-.24.36s.25.33.46.33Z"/><path class="cls-6" d="M99.88,41.49V41c0-.28-.08-.63-.33-.63a.3.3,0,0,0-.31.31c0,.14,0,.11,0,.14l-.12,0c-.15,0-.24.2-.24.36s.24.34.46.34Z"/><path class="cls-6" d="M104.12,41.82c0-.19,0-.31,0-.5s-.08-.63-.33-.63-.35.14-.32.31a.3.3,0,0,0,0,.14l-.12,0c-.14,0-.24.2-.24.36s.25.33.46.33Z"/><path class="cls-5" d="M96.06,51.44c0-.18,0-.28,0-.46s-.07-.58-.31-.58a.27.27,0,0,0-.29.27.91.91,0,0,0,0,.14l-.12,0c-.14,0-.22.18-.22.33s.23.31.43.31Z"/><path class="cls-6" d="M105.19,40.48V40c0-.28-.08-.63-.33-.63a.31.31,0,0,0-.31.31.44.44,0,0,0,0,.14l-.12,0c-.14,0-.23.2-.23.36s.24.34.46.34Z"/><path class="cls-11" d="M93.67,37.43s1.88.07,2-2.52"/><path class="cls-8" d="M106.17,40.53a1.29,1.29,0,0,1,1.32,0,18.69,18.69,0,0,1,2.34-6.18c1.65-2.37,5.43-2.06,5.43-2.06s-.72.81-.49,1.41a4.16,4.16,0,0,0-4.66,2,17.53,17.53,0,0,0-2.32,5.63c-.05.06-.87-.45-1.62-.06V42a13.52,13.52,0,0,1,1.49.07c.33,0,.45.14.5.19a1.35,1.35,0,0,1,.11-.61,5.93,5.93,0,0,1,1.63-2.31,9.47,9.47,0,0,1,2.32-1.4A2.14,2.14,0,0,0,113.54,36a5.29,5.29,0,0,0,1,2.35c.8.89,2.33-.11,2.33-.11s-1.15,2.21-3.44.2c0,0,.08.6-1.55,1.06A5.45,5.45,0,0,0,109,41.62c-.45.86-.48,1.81-.63,1.81a3.64,3.64,0,0,0-2.22-.89,7.31,7.31,0,0,1-.14,1.3c-1.05,5.64-3.61,9.6-9.79,11.12V53.62c6.15-1.07,8.22-4.37,9.23-9.74.12-.62.17-1.14.19-1.41v-.11c-.09-.16-.06-.26,0-.31v-.47s0-.11,0-.2V37.44l-3.84,4.72-2,0L105.65,35v-1.8l-.68-.32L97.34,42H96.23V40.86l7.22-8.64c-.6-.25-1.22-.5-1.78-.68l-5.36,6.25V35.43l3.6-4.3a23.32,23.32,0,0,0-3.76-.32V30a27.79,27.79,0,0,1,9.38,1.62,1.81,1.81,0,0,1,0-.83,2.56,2.56,0,0,0,2.43,0c.44,1.53,2.43,2.25,2.43,2.25l-.61.76a7.73,7.73,0,0,1-2.07-2.16c-.09-.23-.66.28-1.65-.16a3.44,3.44,0,0,0,1.22.8s-.76,1.33,1.67,2.62l-.43,1a4.36,4.36,0,0,1-2-3.12,2.23,2.23,0,0,1-.29-.2Z"/><path class="cls-11" d="M102.74,48.65s2,.07,2.1-2.49"/><path class="cls-6" d="M96.13,28.82a65.68,65.68,0,0,1,1.82-9,4,4,0,0,0-1.82-.54Z"/><path class="cls-5" d="M96.14,19.24a2.77,2.77,0,0,0-1.57.6,44.53,44.53,0,0,1,1.57,9Z"/><path class="cls-8" d="M101.71,49.13a2.88,2.88,0,0,1-.71-.3c.35-.29-.21.18,0,0l0,0a3.39,3.39,0,0,1,.18.4,3,3,0,0,0,.36.71c.16-.34.31-.74.64-.67a.47.47,0,0,1,.33.32l0,.1c-.09-.05-.12-.12-.22-.14s-.32.14-.35.34a2.13,2.13,0,0,0,0,.23.83.83,0,0,1,.57-.09c.21,0,.15.1.21.33l-.24,0a.39.39,0,0,0-.37.11c.25.24-.18.77-.18.74.08-.5.05-.6-.39-.69-.24-.05-.4.1-.65.05s-.16-.05-.26-.07a.74.74,0,0,1,.69-.24,1.62,1.62,0,0,0-.52-.88l-.13-.17a7.53,7.53,0,0,1-.41.93c0,.06-.22-.18-.55-1a2.29,2.29,0,0,1-.15.29,1.83,1.83,0,0,0-.42,1,.73.73,0,0,1,.73.13c-.1,0-.16.07-.26.11s-.42,0-.67.06a1,1,0,0,0-.68,1.14s0,0,.06.08v.1a.49.49,0,0,1-.35-.34c-.1-.38.16-.63.38-.93a.39.39,0,0,0-.39,0,.58.58,0,0,0-.35.36V51c0-.25.08-.48.29-.56a.82.82,0,0,1,.59,0,2.3,2.3,0,0,0,0-.24c-.06-.2-.23-.36-.4-.29s-.12.11-.2.18L98,50a.52.52,0,0,1,.3-.39c.33-.13.53.26.73.6a3.26,3.26,0,0,0,.29-.81,3.45,3.45,0,0,1,.13-.45,2.85,2.85,0,0,1-.51.19C98,49.36,97,48,97.22,48c.6.12,1.33-.25,1-.18s-.87-.09-1.3-.82-.34-1.62-.22-1.44a2,2,0,0,0,1.36.78,2.35,2.35,0,0,1-1.4-1.71,2.29,2.29,0,0,1,.45-2.05s1.32.14,1.48,3.06c0,0,0,0,.15-.14s.28-.16.49-.34a.91.91,0,0,0,.3-.71c0-.25-.08-.34-.26-.41a6.2,6.2,0,0,1-.59-.32s.85.07.59-.09a1.43,1.43,0,0,0-.69-.14l.12-.18a3.12,3.12,0,0,0,.65-.27c.26-.16.18-.27.59-.07s.22.89.16,1.53a.85.85,0,0,0,.21.78.85.85,0,0,0,.21-.78c-.06-.64-.26-1.32.16-1.53s.34-.09.6.07a3.12,3.12,0,0,0,.65.27l.12.18a1.43,1.43,0,0,0-.69.14c-.26.16.59.09.59.09a6.22,6.22,0,0,1-.59.32c-.18.07-.26.16-.26.41a.9.9,0,0,0,.3.71c.21.18.37.16.49.34s.16.14.16.14c.15-2.92,1.48-3.06,1.48-3.06a2.29,2.29,0,0,1,.45,2.05,2.35,2.35,0,0,1-1.4,1.71,2,2,0,0,0,1.36-.78c.12-.18.22.71-.22,1.44s-.95.89-1.3.82.37.3,1,.18C103.61,48,102.56,49.36,101.71,49.13Z"/><path class="cls-12" d="M93.12,35.8a3.18,3.18,0,0,0-2.51,0"/><path class="cls-12" d="M90.63,35.7V37.6A1.63,1.63,0,0,0,91.86,39"/><path class="cls-12" d="M93.09,35.73v1.89A1.62,1.62,0,0,1,91.81,39"/><line class="cls-13" x1="93.09" y1="36.65" x2="90.61" y2="36.65"/><line class="cls-13" x1="93.08" y1="37.65" x2="90.6" y2="37.65"/><path class="cls-14" d="M101.57,45.85a3.28,3.28,0,0,0-2.54,0"/><path class="cls-14" d="M99.06,45.75v1.85A1.61,1.61,0,0,0,100.31,49"/><path class="cls-14" d="M101.55,45.78v1.85a1.59,1.59,0,0,1-1.3,1.35"/><line class="cls-15" x1="101.55" y1="46.68" x2="99.05" y2="46.68"/><line class="cls-15" x1="101.53" y1="47.66" x2="99.04" y2="47.66"/><path class="cls-10" d="M77.37,39.36c-.81.61-1.55-.34-1.55-.34a8.51,8.51,0,0,1-.89,3.44s-1.15,2.12-2.81,2.07c-1.05,0-1.41-1.19-1.43-1.29a2.22,2.22,0,0,1,.6-2c1-1.18,2.85-3,3.13-3.57.37-.75.71-4.09-1.81-4.42-1.86-.24-1.83-.65-1.83-.65-.29-1.29,1.66-.79,1.66-.79s-1.09-1.52-3.21.37-.31,3.53.66,3.41,2.3-1,3-.34,1.06,2-.89,4-2.55,2.41-2.09,4.27a2.67,2.67,0,0,0,4,1.58A8.46,8.46,0,0,0,77.37,39.36ZM71.54,34.3c-1.35.4-2.73.19-1.73-1.27,0,0,0,1,2.32.89.76,0,1.4.92,1.4.92A2.28,2.28,0,0,0,71.54,34.3Z"/><rect class="cls-8" x="96.28" y="30.7" width="0.15" height="24.19"/></svg>