<svg id="Noord-Holland" xmlns="http://www.w3.org/2000/svg" viewBox="0 0 190 75"><defs><style>.cls-1,.cls-2{fill:#faae1c;}.cls-2,.cls-3,.cls-6{fill-rule:evenodd;}.cls-3,.cls-5{fill:#1498d5;}.cls-4{fill:#eb2030;}.cls-6,.cls-7{fill:#1b2755;}</style></defs><title>Artboard 1</title><path class="cls-1" d="M44,22.47s-1.26-1.09-1.37-1.71.57-1.9,1.29-2.89c1.11.83,2.24,2,2.36,2.7s-.78,1.91-.78,1.91h3s-1.22-1.2-1.22-1.82,1-1.86,2-2.8c1,.94,2,2.09,2,2.8S50,22.46,50,22.47h3s-.89-1.29-.78-1.91,1.25-1.87,2.36-2.7c.72,1,1.41,2.19,1.29,2.89s-1.37,1.71-1.37,1.71h2.88c-.18-.4-.78-1.24-.41-2.07.45-1,2.58-2.7,3.33-2.52A16.46,16.46,0,0,0,58,22.47a2.11,2.11,0,0,1,0,1.86H40.5a2.11,2.11,0,0,1,0-1.86,16.45,16.45,0,0,0-2.3-4.59c.75-.18,2.88,1.5,3.33,2.52.37.84-.23,1.67-.41,2.07Z"/><polygon class="cls-2" points="21.35 47.91 30.82 47.91 30.82 36.12 37.11 47.91 49.27 47.91 49.27 25.6 38.2 25.6 38.2 37.76 31.73 25.6 21.35 25.6 21.35 47.91"/><polygon class="cls-3" points="49.27 47.91 60.34 47.91 60.34 40.71 66.82 40.71 66.82 47.91 76.55 47.91 76.55 25.6 66.82 25.6 66.82 32.9 60.34 32.9 60.34 25.6 49.27 25.6 49.27 47.91"/><path class="cls-4" d="M45.65,44.89l-.05,0a.63.63,0,0,1-.85-.08c.06-.91.56-1,1.32-.81a2.53,2.53,0,0,0,.39.08c.24,0,.4-.19.35-.51a8.29,8.29,0,0,1-.12-1.07c-.61.13-1.32-.15-1.87.29l-.05,0c-.78-1.15-.88-3.28.32-4.28a3.21,3.21,0,0,0-.65-.81,6.58,6.58,0,0,1-.84-1c.15-.83,1.17-1.47,2.16-2.2A2.74,2.74,0,0,0,46.07,37c.19.36.4.68.56,1a1.46,1.46,0,0,1,.19.79c.14.24.54.76.84.76s.34-.17.34-.4c0-1.27-1.88-2.13-1.88-3.74a1.46,1.46,0,0,1,1.37-1.65.7.7,0,0,1,.76.91c.45.19.34.68.23,1.1a2.48,2.48,0,0,0,.17,1.78c-.26,0-.85-.83-1.13-1.47s-.37-1.35.26-1.4a.32.32,0,0,0-.31-.37c-.48,0-.77.41-.77,1.1,0,1.37,2,2.22,2,3.78a1.07,1.07,0,0,1-1,1.12,1.15,1.15,0,0,1-.9-.48c-.07,1,.67,1.34,1.61,1.25a7.31,7.31,0,0,0,.11,3.22,1.21,1.21,0,0,0-.83.78.84.84,0,0,1,0,1c-.43.11-.79-.37-1-.78l-.1,0c-.28.31-.58.82-1,.71C45.49,45.81,45.34,45.15,45.65,44.89Z"/><path class="cls-3" d="M44.22,45.16c-.05-.14.29-.79.66-.79s.29.53.19.59A2,2,0,0,0,44.22,45.16Z"/><path class="cls-3" d="M45.59,46.56c-.15-.07-.4-.87-.11-1.16s.63.35.52.43C45.69,46,45.63,46.52,45.59,46.56Z"/><path class="cls-3" d="M47.56,46.76a.83.83,0,0,0,.22-1c-.09-.18-.74,0-.62.14A1.29,1.29,0,0,1,47.56,46.76Z"/><path class="cls-4" d="M41.86,33.2c-.21-.66-.34-1.57-1-1.75a.7.7,0,0,0-.09-.93c-.32.22-.76.35-1,.05-.06-.45.31-.71.67-.83V29.7a1,1,0,0,1-.48-1,.72.72,0,0,1,.89.1l0,0c-.16-.33-.39-.85-.1-1.1s1.19-.17.89.92a1.22,1.22,0,0,0,.12,1.16,17.8,17.8,0,0,0,1.39,1.74l-.15.1A2.5,2.5,0,0,0,41.86,33.2Z"/><path class="cls-3" d="M40.2,27.24c.4-.09,1,.19,1,.46s-.56.28-.57.21C40.58,27.67,40.24,27.48,40.2,27.24Z"/><path class="cls-3" d="M39.28,28.79c.14-.19.81-.45,1.06-.14s-.3.66-.34.58C39.83,28.91,39.47,29,39.28,28.79Z"/><path class="cls-3" d="M39.23,30.36c-.06.05,0,.57.81.38.19,0,0-.71-.2-.61S39.45,30.52,39.23,30.36Z"/><path class="cls-5" d="M45.45,30.24a1.13,1.13,0,0,0-.83-.26c-.47,0-.82.24-1.24.26a.79.79,0,0,1-.78-.38.63.63,0,0,1,.27-.88.63.63,0,0,0,.66.84c.38,0,.62-.1,1.06-.1a1.28,1.28,0,0,1,.93.37Z"/><path class="cls-4" d="M44.19,30.33l0-.06c.85.44,1.48,0,1.21-.85-.38-.28-1,0-1.29.08a2.53,2.53,0,0,1-.3-1.07c.45-.65,3-1.44,3.62-1.65a1.5,1.5,0,0,1-.14.78,1.74,1.74,0,0,1,1-.11,1.91,1.91,0,0,1-.4,1.33,1.85,1.85,0,0,1,.45,1.35,8.53,8.53,0,0,1-.67,2.46,2,2,0,0,0-.08.77,1.43,1.43,0,0,1-.62-.79,4.17,4.17,0,0,1-1.36,1.48c-1.1.81-2.42,1.65-2.38,2.59a2.15,2.15,0,0,1-.54-.88c-.69.53-.67.42-.92,1.37-.07-.13-.27-.39-.46-.38-.14.3-.39.61-.78.56a.84.84,0,0,1,.16-1.13l0-.05c-.35,0-.9-.12-1-.51.05-.36.54-.47.8-.46v-.06a1.49,1.49,0,0,1-.77-.84c.38-.77,1-.46,1.31.11.21.36.3.43.54.4s.46-.29.69-.51a2.35,2.35,0,0,1,1.15-2.48c.67-.46,1.93-.71,1.89-.94a1.65,1.65,0,0,1-1-.1C44.08,30.63,44.1,30.5,44.19,30.33Z"/><path class="cls-2" d="M45.93,27.86a7.88,7.88,0,0,0-1.08.42,1.42,1.42,0,0,0,.74.19C45.79,28.43,45.82,28.08,45.93,27.86Z"/><path class="cls-3" d="M39.08,34.29c.1-.17.77-.54,1-.25s-.2.67-.26.57C39.66,34.31,39.29,34.38,39.08,34.29Z"/><path class="cls-3" d="M39.86,37.29c0,.1.35.5.95,0,.18-.14-.26-.68-.41-.5S40.22,37.23,39.86,37.29Z"/><path class="cls-3" d="M39.12,36.2c0-.22.48-.91.81-.79s.19.69.06.62C39.68,35.87,39.32,36.2,39.12,36.2Z"/><path class="cls-4" d="M41.32,38.83a2.35,2.35,0,0,1,3-.76,1.43,1.43,0,0,1,.29.4,3.26,3.26,0,0,0-.76,3.29,4.56,4.56,0,0,0-1.35,1.19c-.29-.28-.48-.11-.66,0,0,.37-.19.95-.64.9a1.16,1.16,0,0,1-.21-1.3l-.06-.06a1,1,0,0,1-1.16-.24.91.91,0,0,1,.71-.67v-.05c-.34-.07-.44-.44-.52-.71a.77.77,0,0,1,.6-.26.93.93,0,0,1,.86.55c.06.11.2.48.35.48.43,0,.63-.42.73-.64A3.41,3.41,0,0,1,41.32,38.83Z"/><path class="cls-3" d="M39.36,40.87a.94.94,0,0,1,1-.18c.17.14-.05.52-.22.54A3,3,0,0,0,39.36,40.87Z"/><path class="cls-3" d="M39.39,42.83c-.08-.13.2-.9.58-.92s.32.59.2.59C39.83,42.49,39.49,42.81,39.39,42.83Z"/><path class="cls-3" d="M40.61,44.27c.07,0,.91,0,.95-.58,0-.3-.61-.49-.6-.24A1,1,0,0,1,40.61,44.27Z"/><polygon class="cls-1" points="50.58 26.8 52.96 26.8 52.96 27.67 50.58 27.67 50.58 26.8 50.58 26.8"/><polygon class="cls-1" points="55.84 26.8 58.23 26.8 58.23 27.67 55.84 27.67 55.84 26.8 55.84 26.8"/><polygon class="cls-1" points="50.58 36.3 52.96 36.3 52.96 37.17 50.58 37.17 50.58 36.3 50.58 36.3"/><polygon class="cls-1" points="55.84 36.3 58.23 36.3 58.23 37.17 55.84 37.17 55.84 36.3 55.84 36.3"/><polygon class="cls-1" points="50.24 45.89 52.63 45.89 52.63 46.76 50.24 46.76 50.24 45.89 50.24 45.89"/><path class="cls-1" d="M51.28,31.94a.88.88,0,0,1-.21-.51,1.92,1.92,0,0,0-.4-.88.7.7,0,0,1-.69,0,2.34,2.34,0,0,0,.45-.55,2.3,2.3,0,0,1-.57-.29,1,1,0,0,1,.62-.38,2.68,2.68,0,0,1-.41-.6c.71-.28,1,.15,1.08.86a.8.8,0,0,0,.2.37c.08.1.24.26.36.41l0,.3A2.64,2.64,0,0,1,51.28,31.94Z"/><path class="cls-1" d="M51.83,32.87c-.45.2-.85.14-1-.19.93-.15,1.13-1,1.23-1.8.06-.47.1-.89.14-1.27a3.2,3.2,0,0,1,.14-.77c-.2-.23-.13-.61-.15-.83a1.28,1.28,0,0,1,.79.34,1.78,1.78,0,0,1,.88,0,1.08,1.08,0,0,1,.91-.28c-.15.24-.12.54-.28.72a10.36,10.36,0,0,1,.3,2.2,3.5,3.5,0,0,1-1.53,2.13c0,.14,0,.27,0,.41a2.4,2.4,0,0,1-.71.67,2.49,2.49,0,0,0-.78,1,.59.59,0,0,1-.41.81c0-.18-.05-.5-.23-.6a.88.88,0,0,1-.62.36.87.87,0,0,1,0-.65.9.9,0,0,1-.64,0c.12-.73.57-.72,1.12-.74.05,0,.18,0,.22,0A5.42,5.42,0,0,0,51.83,32.87Z"/><path class="cls-1" d="M56,34.89a4.27,4.27,0,0,1-1,.56.54.54,0,0,1-.28.45,2.27,2.27,0,0,0-.35-.49,1.25,1.25,0,0,1-.43.67.7.7,0,0,1-.27-.62,2,2,0,0,1-.56.3c-.17-.9.66-1.18,1.32-1a5,5,0,0,0,.48-.25,1,1,0,0,1-.24-.73c.36-.1.89-.69,1.29-.78a2,2,0,0,0,.31.77A.91.91,0,0,0,56,34.89Z"/><path class="cls-3" d="M54.17,28.89c.06.14-.42.45-.51.52a1,1,0,0,1,0-.39A2.61,2.61,0,0,1,54.17,28.89Z"/><path class="cls-5" d="M53.14,30.54c-.25-.07-.25-.33-.25-.53.11,0,.26,0,.38,0a.47.47,0,0,0-.25-.35l0-.12a2.12,2.12,0,0,0,.59,0,.43.43,0,0,1,0,.12c-.12.07-.28.15-.3.33.16,0,.32,0,.41,0,0,.19,0,.44-.27.5a.8.8,0,0,1-.22.81A.8.8,0,0,1,53.14,30.54Z"/><path class="cls-1" d="M51.87,42.5a.76.76,0,0,1-1.06-.24c1.43-.24,1.13-2.13,1.4-3.2a3.15,3.15,0,0,1,.25-.74c-.16-.23,0-.7,0-.85a1.3,1.3,0,0,1,.73.47,1.78,1.78,0,0,1,.87.14,1.09,1.09,0,0,1,1-.15c-.18.21-.24.56-.39.68a13,13,0,0,1,.16,2,3.5,3.5,0,0,1-1.53,2.13c0,.14,0,.27,0,.41a2.39,2.39,0,0,1-.71.67,2.57,2.57,0,0,0-.77.94.62.62,0,0,1-.41.83c0-.18-.05-.5-.23-.6a.94.94,0,0,1-.62.36.87.87,0,0,1,0-.65.91.91,0,0,1-.64,0c.12-.73.57-.72,1.12-.74.05,0,.18,0,.22,0A5.68,5.68,0,0,0,51.87,42.5Z"/><path class="cls-1" d="M55.68,44.51a4.89,4.89,0,0,1-.75.52c0,.18-.08.44-.27.51a2.16,2.16,0,0,0-.38-.56,1.29,1.29,0,0,1-.44.67.71.71,0,0,1-.27-.62,2.11,2.11,0,0,1-.56.31c-.19-.79.63-1.13,1.29-1a1.19,1.19,0,0,0,.39-.22.93.93,0,0,1-.2-.84c.45-.19.9-.7,1.36-.73a1.93,1.93,0,0,0,0,.78A1.06,1.06,0,0,0,55.68,44.51Z"/><path class="cls-1" d="M51.27,41.51a1,1,0,0,1-.19-.5,1.92,1.92,0,0,0-.4-.87.7.7,0,0,1-.69,0,5.06,5.06,0,0,0,.45-.56,2,2,0,0,1-.58-.27,1,1,0,0,1,.63-.38,5.79,5.79,0,0,1-.45-.58c.65-.33,1.07.17,1.12.89a.48.48,0,0,0,.12.26l.07.08c.08.11.23.25.35.39A3.28,3.28,0,0,1,51.27,41.51Z"/><path class="cls-3" d="M52.62,28.9c-.06.14.4.45.49.52a1,1,0,0,0,0-.38A2.4,2.4,0,0,0,52.62,28.9Z"/><path class="cls-1" d="M56.31,42.1c-.88.06-1.74,1-2.63.74a3.45,3.45,0,0,0,1.47-2.07,1.61,1.61,0,0,0,.85,0,1.71,1.71,0,0,1,1.33.19c.51.08.93-.21.93-.51S58,40,57.77,40c-.58,0-1.06.28-1.64.28a1,1,0,0,1-1-1.17,1.05,1.05,0,0,1,1.4-1c.25-.53.82,0,1.54,0a1.29,1.29,0,0,0,.93-.4c.09.33-.28.75-.87,1-.77.34-1.78.42-1.73-.15a.59.59,0,1,0-.21,1.15c.55,0,1.05-.27,1.68-.27a.92.92,0,0,1,1,1c0,.82-.83,1.11-1.25,1.12.05.63.29.79.84.85A4.28,4.28,0,0,1,58,44.12a1.07,1.07,0,0,1,.14.67,1.54,1.54,0,0,1-.52-.22,1.18,1.18,0,0,1-.54.7c-.18-.05-.25-.25-.31-.42a.9.9,0,0,1-.61.26c-.23-.67.28-1.1.87-1.12a1.45,1.45,0,0,0,.24-.75,1.44,1.44,0,0,0-.77.5,1.27,1.27,0,0,1-.28-.91C56.25,42.6,56.29,42.33,56.31,42.1Z"/><path class="cls-3" d="M54.27,38.7c0,.15-.48.38-.58.44a1,1,0,0,1,0-.38A2.57,2.57,0,0,1,54.27,38.7Z"/><path class="cls-5" d="M53,40.18c-.24-.11-.2-.36-.17-.55.11,0,.24.09.38.1a.49.49,0,0,0-.2-.4l.06-.11a2.22,2.22,0,0,0,.58.12.43.43,0,0,1,0,.13c-.13.05-.3.11-.35.28.17,0,.32,0,.4.06s-.09.44-.36.44c-.16.36,0,.6-.08.78A.63.63,0,0,1,53,40.18Z"/><path class="cls-3" d="M52.73,38.46c-.08.13.33.51.41.59a1,1,0,0,0,.07-.38A2.49,2.49,0,0,0,52.73,38.46Z"/><path class="cls-1" d="M56.31,32.51c-.86.06-1.74,1-2.62.75a3.39,3.39,0,0,0,1.44-2.06v0a1.57,1.57,0,0,0,.86,0,1.8,1.8,0,0,1,1.33.17c.51.08.93-.21.93-.51s-.22-.4-.49-.4c-.58,0-1.06.28-1.64.28a1,1,0,0,1-1-1.17,1.05,1.05,0,0,1,1.4-1c.25-.53.83,0,1.55,0A1.29,1.29,0,0,0,59,28.1c.09.32-.28.74-.87,1-.77.34-1.79.43-1.74-.14a.56.56,0,0,0-.74.55.55.55,0,0,0,.53.6c.55,0,1.05-.27,1.68-.27a.92.92,0,0,1,1,1,1.2,1.2,0,0,1-1.15,1.11l-.1,0c.09.65.95.77,1.44.82a4.34,4.34,0,0,1-.48,1.8,1.11,1.11,0,0,1,.12.66,1.56,1.56,0,0,1-.51-.23,1.23,1.23,0,0,1-.54.71c-.18-.05-.26-.26-.31-.42a.85.85,0,0,1-.62.27.85.85,0,0,1,.88-1.13c.08-.14.37-.61.31-.79a1.18,1.18,0,0,0-.78.45l-.06.09A2.76,2.76,0,0,1,56.31,32.51Z"/><polygon class="cls-6" points="83.17 47.91 84.57 47.91 84.57 41.33 84.52 40.29 88.82 47.91 90.78 47.91 90.78 38.67 89.36 38.67 89.36 45.3 89.41 46.42 85.02 38.67 83.17 38.67 83.17 47.91"/><path class="cls-6" d="M96.22,48.07c2,0,3.41-1.24,3.41-3.73s-1.07-3.75-3.32-3.75c-2,0-3.41,1.39-3.41,3.83S94.13,48.07,96.22,48.07ZM96.3,47c-1.53,0-2-1.19-2-2.6s.42-2.67,2-2.67,2,1.39,2,2.65S97.85,47,96.3,47Z"/><path class="cls-6" d="M104.39,48.07c2,0,3.41-1.24,3.41-3.73s-1.07-3.75-3.32-3.75c-2,0-3.41,1.39-3.41,3.83S102.3,48.07,104.39,48.07Zm.08-1.11c-1.53,0-2-1.19-2-2.6s.42-2.67,2-2.67,2,1.39,2,2.65S106,47,104.47,47Z"/><path class="cls-6" d="M109.71,47.91h1.36V42.79a2.27,2.27,0,0,1,1.78-1,3.28,3.28,0,0,1,.88.09l.21-1.15a3,3,0,0,0-.88-.12,2.44,2.44,0,0,0-2,1.11v-1h-1.36Z"/><path class="cls-6" d="M117.72,48a2.53,2.53,0,0,0,1.75-.76v.64h1.36V38.06h-1.36v2.69a4,4,0,0,0-1.28-.16,3.41,3.41,0,0,0-3.53,3.74C114.66,47.47,116.39,48,117.72,48Zm.18-1.14c-1.07,0-1.87-.71-1.87-2.52,0-1.42.6-2.68,2.17-2.68a3.87,3.87,0,0,1,1.27.2v4.37A3.28,3.28,0,0,1,117.9,46.89Z"/><rect class="cls-7" x="122.52" y="43.6" width="3.89" height="1.14"/><polygon class="cls-6" points="128.32 47.91 129.72 47.91 129.72 43.84 134.46 43.84 134.46 47.91 135.86 47.91 135.86 38.67 134.46 38.67 134.46 42.71 129.72 42.71 129.72 38.67 128.32 38.67 128.32 47.91"/><path class="cls-6" d="M141.3,48.07c2,0,3.41-1.24,3.41-3.73s-1.07-3.75-3.32-3.75c-2,0-3.41,1.39-3.41,3.83S139.21,48.07,141.3,48.07Zm.08-1.11c-1.53,0-2-1.19-2-2.6s.42-2.67,2-2.67,2,1.39,2,2.65S142.93,47,141.38,47Z"/><rect class="cls-7" x="146.62" y="38.06" width="1.36" height="9.85"/><rect class="cls-7" x="150.37" y="38.06" width="1.36" height="9.85"/><path class="cls-6" d="M155.69,48a3.77,3.77,0,0,0,2.35-.89c.12.63.86.86,1.53.86h.29l.06-1.06c-.34,0-.65-.12-.65-.56V42.62c0-1.46-.94-2-2.71-2a6.56,6.56,0,0,0-2.46.47l.27,1a8.16,8.16,0,0,1,1.88-.33c1.15,0,1.67.21,1.67,1.2v.8l-1.57,0c-1.24,0-2.84.39-2.84,2.16A1.9,1.9,0,0,0,155.69,48Zm.33-1.09c-.68,0-1.15-.27-1.15-1.08,0-.65.56-1.1,1.54-1.12l1.53-.07v1.65A5.14,5.14,0,0,1,156,46.93Z"/><path class="cls-6" d="M161.92,47.91h1.36V42.53a4.28,4.28,0,0,1,2-.75c1.15,0,1.33.6,1.33,1.76v4.37H168V43.35c0-1.35-.13-2.76-2.27-2.76a4.33,4.33,0,0,0-2.45,1v-.78h-1.36Z"/><path class="cls-6" d="M172.9,48a2.52,2.52,0,0,0,1.75-.76v.64H176V38.06h-1.36v2.69a4,4,0,0,0-1.28-.16,3.41,3.41,0,0,0-3.53,3.74C169.84,47.47,171.57,48,172.9,48Zm.18-1.14c-1.07,0-1.87-.71-1.87-2.52,0-1.42.6-2.68,2.17-2.68a3.87,3.87,0,0,1,1.27.2v4.37A3.27,3.27,0,0,1,173.09,46.89Z"/><path class="cls-6" d="M83.17,34.84h1.41V26.72h1.48c1.39,0,2,.67,2,1.94s-.86,1.92-2.3,1.92h-.57v1.14h.5c2.6,0,3.84-1.41,3.84-3.11a2.85,2.85,0,0,0-3.16-3H83.17Z"/><path class="cls-6" d="M91,34.84h1.36V29.72a2.27,2.27,0,0,1,1.78-1,3.27,3.27,0,0,1,.88.09l.21-1.15a3,3,0,0,0-.88-.12,2.44,2.44,0,0,0-2,1.11v-1H91Z"/><path class="cls-6" d="M99.29,35c2,0,3.41-1.24,3.41-3.72s-1.07-3.75-3.32-3.75c-2,0-3.41,1.39-3.41,3.83S97.2,35,99.29,35Zm.08-1.11c-1.53,0-2-1.19-2-2.6s.42-2.67,2-2.67,2,1.39,2,2.65S100.92,33.89,99.37,33.89Z"/><polygon class="cls-6" points="106.07 34.84 107.86 34.84 110.48 27.7 109.07 27.7 107.49 32.28 107 33.8 106.57 32.31 105.16 27.7 103.68 27.7 106.07 34.84"/><path class="cls-6" d="M111.94,34.84h1.37V27.71h-1.37Zm.67-8.31,1-1-1-1-1,1Z"/><path class="cls-6" d="M115.69,34.84h1.36V29.46a4.3,4.3,0,0,1,2-.75c1.15,0,1.33.6,1.33,1.77v4.37h1.35V30.28c0-1.35-.13-2.76-2.27-2.76a4.33,4.33,0,0,0-2.44,1v-.78h-1.36Z"/><path class="cls-6" d="M127.4,35a6.58,6.58,0,0,0,1.72-.25l-.21-1.07a8.35,8.35,0,0,1-1.41.18c-2,0-2.5-.82-2.5-2.6s.9-2.58,2.12-2.58a3.75,3.75,0,0,1,1.65.34l.39-1a4.26,4.26,0,0,0-2-.43c-2.16,0-3.51,1.44-3.51,3.73C123.61,33.87,124.73,35,127.4,35Z"/><path class="cls-6" d="M130.87,34.84h1.37V27.71h-1.37Zm.67-8.31,1-1-1-1-1,1Z"/><path class="cls-6" d="M137.66,35a8.19,8.19,0,0,0,2.38-.34l-.22-1.09a10.23,10.23,0,0,1-1.84.29c-1.38,0-2.43-.31-2.46-2.26h4.69v-.48c0-2.31-.82-3.59-2.73-3.59s-3.33,1-3.33,3.87S135.52,35,137.66,35Zm-2.12-4.35c.1-1.4.8-2.13,1.78-2.13s1.48.86,1.46,2.13Z"/></svg>