<svg id="Noord-brabant" xmlns="http://www.w3.org/2000/svg" viewBox="0 0 190 75"><defs><style>.cls-1{fill:#eb2030;}.cls-2{fill:#fff;}.cls-3{fill:#878a8c;}</style></defs><title>Artboard 1</title><rect class="cls-1" x="20.8" y="17.26" width="142.08" height="17.76"/><path class="cls-2" d="M31.33,23.64h.28c.64,0,1.19,0,1.19.81s-.59.77-1.19.77h-.28Zm-1.65,5h1.65v-2.1h.93c1.44,0,2.25-.66,2.25-2.15s-.94-2.09-2.31-2.09H29.69Z"/><path class="cls-2" d="M36.83,25h0a1.5,1.5,0,0,1,1.4-.77h.29v1.47a1.24,1.24,0,0,0-.65-.14c-.85,0-1.06.56-1.06,1.3v1.74H35.3V24.34h1.53Z"/><path class="cls-2" d="M41.32,25.52a.94.94,0,0,1,1,1,1,1,0,0,1-2,0A.94.94,0,0,1,41.32,25.52Zm0-1.33a2.32,2.32,0,1,0,0,4.6,2.32,2.32,0,1,0,0-4.6Z"/><path class="cls-2" d="M46.82,26.55l1-2.21h1.72L47.3,28.65h-1l-2.26-4.32h1.72Z"/><path class="cls-2" d="M51.55,28.65H50V24.34h1.53Zm.09-6a.86.86,0,1,1-.86-.86A.86.86,0,0,1,51.65,22.68Z"/><path class="cls-2" d="M54.18,24.89h0a1.5,1.5,0,0,1,1.38-.7c1.16,0,1.62.73,1.62,1.79v2.67H55.67v-2.1c0-.41.07-1.14-.69-1.14s-.8.46-.8,1v2.24H52.65V24.34h1.53Z"/><path class="cls-2" d="M61.41,25.74a1.35,1.35,0,0,0-.79-.3,1,1,0,0,0-1.05,1.05,1,1,0,0,0,1.08,1.06,1.17,1.17,0,0,0,.76-.29v1.29a2.4,2.4,0,0,1-1.08.24A2.28,2.28,0,0,1,58,26.54a2.31,2.31,0,0,1,2.41-2.35,2.07,2.07,0,0,1,1,.25Z"/><path class="cls-2" d="M64,28.65H62.44V24.34H64Zm.09-6a.86.86,0,1,1-.86-.86A.86.86,0,0,1,64.06,22.68Z"/><path class="cls-2" d="M66.3,25.87a.92.92,0,0,1,1.78,0Zm3.2.72a2.38,2.38,0,0,0-4.75-.09,2.24,2.24,0,0,0,2.5,2.3,2.09,2.09,0,0,0,2.2-1.48H68a.77.77,0,0,1-.73.4.86.86,0,0,1-1-1H69.5Z"/><path class="cls-2" d="M73.29,22.31h1.65l3,3.88h0V22.31h1.65v6.34H78l-3-3.89h0v3.89H73.29Z"/><path class="cls-2" d="M83.16,25.52a.94.94,0,0,1,1,1,1,1,0,0,1-2,0A.94.94,0,0,1,83.16,25.52Zm0-1.33a2.32,2.32,0,1,0,2.6,2.31A2.37,2.37,0,0,0,83.16,24.19Z"/><path class="cls-2" d="M88.94,25.52a.94.94,0,0,1,1,1,1,1,0,0,1-2,0A.94.94,0,0,1,88.94,25.52Zm0-1.33a2.32,2.32,0,1,0,2.6,2.31A2.37,2.37,0,0,0,88.94,24.19Z"/><path class="cls-2" d="M94,25h0a1.5,1.5,0,0,1,1.4-.77h.3v1.47a1.25,1.25,0,0,0-.65-.14c-.85,0-1.06.56-1.06,1.3v1.74H92.44V24.34H94Z"/><path class="cls-2" d="M98.65,25.52a.94.94,0,0,1,1,1,1,1,0,0,1-2,0A.94.94,0,0,1,98.65,25.52Zm.94,3.13h1.53v-7H99.58v3.09a1.76,1.76,0,0,0-1.34-.56,2.3,2.3,0,0,0,0,4.6,1.52,1.52,0,0,0,1.3-.62h0Z"/><path class="cls-2" d="M104.54,25.32v1.26h-2.41V25.32Z"/><path class="cls-2" d="M107.22,27.39h.21c.49,0,1.31,0,1.31-.67s-.82-.69-1.36-.69h-.17Zm-1.65,1.26V22.31h2.36c1.13,0,1.88.44,1.88,1.65a1.32,1.32,0,0,1-.7,1.3v0a1.43,1.43,0,0,1,1.3,1.62c0,1.33-1.14,1.77-2.3,1.77Zm1.65-3.85h.19c.44,0,.89-.08.89-.62s-.51-.61-1-.61h-.12Z"/><path class="cls-2" d="M112.85,25h0a1.5,1.5,0,0,1,1.4-.77h.3v1.47a1.25,1.25,0,0,0-.65-.14c-.85,0-1.06.56-1.06,1.3v1.74h-1.53V24.34h1.53Z"/><path class="cls-2" d="M117.47,25.52a.94.94,0,0,1,1,1,1,1,0,0,1-2,0A.94.94,0,0,1,117.47,25.52Zm2.46-1.19H118.4v.42a1.76,1.76,0,0,0-1.34-.56,2.3,2.3,0,0,0,0,4.6,1.51,1.51,0,0,0,1.3-.62h0v.48h1.53Z"/><path class="cls-2" d="M123.45,25.52a.94.94,0,0,1,1,1,1,1,0,0,1-2,0A.94.94,0,0,1,123.45,25.52ZM121,28.65h1.53v-.48h0a1.53,1.53,0,0,0,1.31.62,2.3,2.3,0,0,0,0-4.6,1.77,1.77,0,0,0-1.34.56V21.67H121Z"/><path class="cls-2" d="M129.11,25.52a.94.94,0,0,1,1,1,1,1,0,0,1-2,0A.94.94,0,0,1,129.11,25.52Zm2.46-1.19H130v.42a1.76,1.76,0,0,0-1.34-.56,2.3,2.3,0,0,0,0,4.6,1.51,1.51,0,0,0,1.3-.62h0v.48h1.53Z"/><path class="cls-2" d="M134.21,24.89h0a1.49,1.49,0,0,1,1.38-.7c1.16,0,1.62.73,1.62,1.79v2.67H135.7v-2.1c0-.41.07-1.14-.69-1.14s-.8.46-.8,1v2.24h-1.53V24.34h1.53Z"/><path class="cls-2" d="M140,28.65h-1.53V25.6H138V24.34h.5V23H140v1.29h.87V25.6H140Z"/><rect class="cls-2" x="145.13" y="52.78" width="17.76" height="17.76"/><polygon class="cls-3" points="154 61.66 145.13 70.55 145.13 52.78 154 61.66"/><polygon class="cls-1" points="162.88 70.55 145.13 52.78 162.88 52.78 162.88 70.55"/></svg>