<svg id="overijssel" xmlns="http://www.w3.org/2000/svg" viewBox="0 0 190 75"><defs><style>.cls-1{fill:#29abe2;}.cls-2{fill:#981a32;}</style></defs><title>Artboard 1</title><path class="cls-1" d="M82.72,47.55c-2.14-2.14-1.9-4.41-4-6.56s-4.17-1.64-6.34-3.82c-1.94-1.95-1.9-4.41-4-6.56a9.93,9.93,0,0,0-5.18-2.55l-.38,2.21a7,7,0,0,1,4.21,2.13C69.08,34.55,69,37,71,39c2.17,2.18,4.2,1.68,6.34,3.82s1.9,4.42,4,6.56c2,2,4.71,2.15,6.68,3.73l1.2-1.93C86.71,49.52,84.75,49.59,82.72,47.55Z"/><path class="cls-2" d="M75.72,23.07a9.61,9.61,0,0,1,9.34,9.86,9.89,9.89,0,0,1-5.59,9,9.92,9.92,0,0,1,1,1.74A11.76,11.76,0,1,0,64.83,28.52a9.75,9.75,0,0,1,2.13,1A9.38,9.38,0,0,1,75.72,23.07Z"/><path class="cls-1" d="M67.6,24.44a7.11,7.11,0,0,1-2-1.42c-1.94-1.95-1.9-4.41-4-6.56a9.94,9.94,0,0,0-5.18-2.55L56,16.12a7,7,0,0,1,4.2,2.13c2.14,2.14,2.11,4.61,4,6.56a7.08,7.08,0,0,0,1.87,1.35A11.82,11.82,0,0,1,67.6,24.44Z"/><path class="cls-1" d="M82.51,37C80,35.37,78,35.44,76,33.4s-1.9-4.41-4-6.56a7.12,7.12,0,0,0-2.19-1.49,9.68,9.68,0,0,0-1.52,1.71,7.25,7.25,0,0,1,2.36,1.57c2.14,2.14,1.9,4.42,4,6.56,2,2,4.71,2.15,6.68,3.73Z"/><path class="cls-2" d="M95.74,43.64h-2.8l-3.7-11.29h2.42l2.75,9.44,2.76-9.44h2.3Z"/><path class="cls-2" d="M108.18,37.18h-5.36c0-1.45.9-3.5,2.83-3.5S108.18,35.57,108.18,37.18Zm2.17,1.4V37.9c0-3.18-1.35-5.78-4.72-5.78-3.14,0-5.11,2.73-5.11,5.83,0,3.53,1.76,5.94,5.47,5.94a11.21,11.21,0,0,0,3.77-.61l-.14-1.76a7.52,7.52,0,0,1-3.28.79,3.45,3.45,0,0,1-3.5-3.73Z"/><path class="cls-2" d="M118.71,34.35a2.58,2.58,0,0,0-.93-.13c-2.21,0-2.8,2.28-2.8,4v5.38h-2.26v-8.7a25.17,25.17,0,0,0-.11-2.6h2.12l.07,2.17a3.57,3.57,0,0,1,3.07-2.39,3.36,3.36,0,0,1,.95.09Z"/><path class="cls-2" d="M120.68,30V27.83h2.26V30Zm0,13.62V32.34h2.26V43.64Z"/><path class="cls-2" d="M126.14,30V27.83h2.28V30Zm-.61,18.75a7.43,7.43,0,0,1-1.74-.18l.13-1.74a2.5,2.5,0,0,0,.81.14c1.27,0,1.4-.95,1.4-2V32.34h2.28V45.26C128.42,47.23,127.72,48.77,125.53,48.77Z"/><path class="cls-2" d="M134.21,43.89a10.55,10.55,0,0,1-3.46-.54l.14-1.81a6.74,6.74,0,0,0,3.1.75c1,0,2.33-.5,2.33-1.69,0-2.55-5.56-1.72-5.56-5.26,0-2.33,2.3-3.21,4.27-3.21a9.89,9.89,0,0,1,3,.5l-.13,1.65a7.55,7.55,0,0,0-2.73-.54c-1,0-2.21.27-2.21,1.54,0,2,5.56,1.38,5.56,5.2C138.55,42.83,136.31,43.89,134.21,43.89Z"/><path class="cls-2" d="M143.54,43.89a10.52,10.52,0,0,1-3.45-.54l.13-1.81a6.74,6.74,0,0,0,3.1.75c1,0,2.33-.5,2.33-1.69,0-2.55-5.56-1.72-5.56-5.26,0-2.33,2.3-3.21,4.27-3.21a9.92,9.92,0,0,1,3.05.5l-.14,1.65a7.56,7.56,0,0,0-2.74-.54c-1,0-2.21.27-2.21,1.54,0,2,5.56,1.38,5.56,5.2C147.87,42.83,145.64,43.89,143.54,43.89Z"/><path class="cls-2" d="M157.16,37.18h-5.35c0-1.45.9-3.5,2.83-3.5S157.16,35.57,157.16,37.18Zm2.17,1.4V37.9c0-3.18-1.35-5.78-4.72-5.78-3.14,0-5.1,2.73-5.1,5.83,0,3.53,1.76,5.94,5.47,5.94a11.21,11.21,0,0,0,3.77-.61l-.14-1.76a7.52,7.52,0,0,1-3.28.79,3.45,3.45,0,0,1-3.5-3.73Z"/><path class="cls-2" d="M161.7,43.64V27.35H164V43.64Z"/><path class="cls-2" d="M21.27,34.75c0,.69-.17,1.6-1,1.6s-1-.94-1-1.6.21-1.55,1-1.55S21.27,34.06,21.27,34.75Zm1.42,0c0-1.29-.54-2.48-2-2.48a1.68,1.68,0,0,0-1.54.91l0-.82H17.87c0,.4,0,.83,0,1.4v5.49h1.33V36.4a1.52,1.52,0,0,0,1.43.88C22.15,37.28,22.69,36,22.69,34.75Z"/><path class="cls-2" d="M26.84,33.5a1.27,1.27,0,0,0-.41-.07c-.89,0-1.19.85-1.19,1.6v2.15H23.91V33.44a9.82,9.82,0,0,0,0-1.07h1.25l0,.93a1.56,1.56,0,0,1,1.35-1,1.27,1.27,0,0,1,.39,0Z"/><path class="cls-2" d="M31.24,34.75c0,.81-.27,1.63-1.1,1.63S29,35.55,29,34.75s.27-1.58,1.1-1.58S31.24,34,31.24,34.75Zm1.42,0a2.3,2.3,0,0,0-2.52-2.48,2.34,2.34,0,0,0-2.52,2.48,2.34,2.34,0,0,0,2.52,2.53A2.35,2.35,0,0,0,32.66,34.75Z"/><path class="cls-2" d="M36.52,37.18H34.86l-1.54-4.82h1.39l1,3.82,1-3.82h1.32Z"/><path class="cls-2" d="M39,31.47V30.41h1.33v1.07Zm0,5.71V32.36h1.33v4.82Z"/><path class="cls-2" d="M44.92,37.18V34.37c0-.58-.1-1.15-.81-1.15s-1,.67-1,1.3v2.66H41.82V33.44a10,10,0,0,0,0-1.08H43l0,.81a1.68,1.68,0,0,1,1.57-.9c1.16,0,1.63.69,1.63,1.79v3.12Z"/><path class="cls-2" d="M50,37.28a2.35,2.35,0,0,1-2.55-2.53A2.38,2.38,0,0,1,50,32.27a4.74,4.74,0,0,1,1.37.2l-.06.94a2.34,2.34,0,0,0-1-.24,1.44,1.44,0,0,0-1.5,1.58,1.48,1.48,0,0,0,1.47,1.63,2.3,2.3,0,0,0,1-.24l0,.94A4.49,4.49,0,0,1,50,37.28Z"/><path class="cls-2" d="M52.58,31.47V30.41H53.9v1.07Zm0,5.71V32.36H53.9v4.82Z"/><path class="cls-2" d="M58.41,34.4h-2c0-.57.31-1.33,1-1.33S58.41,33.79,58.41,34.4Zm1.21.71v-.3c0-1.46-.62-2.54-2.16-2.54a2.33,2.33,0,0,0-2.35,2.48,2.28,2.28,0,0,0,2.49,2.53A5.55,5.55,0,0,0,59.38,37l-.06-.89a3.26,3.26,0,0,1-1.45.33,1.34,1.34,0,0,1-1.44-1.35Z"/></svg>