<svg id="rijksoverheid" xmlns="http://www.w3.org/2000/svg" viewBox="0 0 190 75"><defs><style>.cls-1{fill:#231f20;}.cls-2{fill:#154373;}.cls-3{fill:#fff;}</style></defs><title>Artboard 1</title><path class="cls-1" d="M67.23,33.45a.67.67,0,0,0,.56-.74V27.95l-.61-.19v-.21a10.56,10.56,0,0,1,1.93-.15c1.46,0,2.16.57,2.16,1.64a1.83,1.83,0,0,1-1.4,1.85l1.37,1.83a1.89,1.89,0,0,0,.9.66v.18a1.28,1.28,0,0,1-.74.21c-.42,0-.69-.17-1-.69l-1.28-1.94h-.46v2l.61.16v.21a3.74,3.74,0,0,1-1.11.17,3.81,3.81,0,0,1-.91-.1ZM69,30.69a1.35,1.35,0,0,0,1.38-1.5,1.19,1.19,0,0,0-1.34-1.25,3,3,0,0,0-.42,0v2.72Z"/><path class="cls-1" d="M72.54,33.47c.26-.1.51-.29.51-.52V29.67l-.62-.26v-.2A4.59,4.59,0,0,1,73.59,29h.31l0,.52v3.69l.54.15v.18a3.11,3.11,0,0,1-1.13.17,2.67,2.67,0,0,1-.73-.09Zm.41-5.9A.55.55,0,0,1,73.5,27a.5.5,0,0,1,.5.52.56.56,0,0,1-.54.6A.52.52,0,0,1,72.95,27.57Z"/><path class="cls-1" d="M75.65,29.67,75,29.4v-.2A4.65,4.65,0,0,1,76.2,29h.31l-.06.54v4.36c0,1.59-.48,2.09-1.1,2.09a.68.68,0,0,1-.54-.23v-.16c.43,0,.84-.49.84-1.48Zm-.11-2.1A.55.55,0,0,1,76.1,27a.5.5,0,0,1,.5.52.56.56,0,0,1-.54.6A.52.52,0,0,1,75.55,27.57Z"/><path class="cls-1" d="M77.67,33.47c.26-.1.52-.29.52-.52V27.32l-.64-.26v-.21a4.63,4.63,0,0,1,1.16-.17H79l-.06.54v3.88l.53-.47a2.66,2.66,0,0,0,1-1.55A1.49,1.49,0,0,1,81,29a.87.87,0,0,1,.39.09,2.76,2.76,0,0,1-1.32,1.71l-.34.24,1.49,1.81a1,1,0,0,0,.72.47v.2a1.2,1.2,0,0,1-.72.2.82.82,0,0,1-.69-.37L79,31.27v2l.5.16v.18a3.19,3.19,0,0,1-1.1.16,2.67,2.67,0,0,1-.73-.09Z"/><path class="cls-1" d="M82.19,32.59a1.93,1.93,0,0,0,1.37.61c.54,0,.82-.26.82-.6s-.19-.55-.83-.82l-.49-.2a1.27,1.27,0,0,1-.87-1.2,1.54,1.54,0,0,1,1.69-1.43c.78,0,1.09.23,1.09.6a1.86,1.86,0,0,1,0,.41,2.09,2.09,0,0,0-1.11-.37c-.62,0-.91.27-.91.6s.17.54.76.77l.52.2c.7.27,1,.63,1,1.2a1.62,1.62,0,0,1-1.8,1.43c-.85,0-1.23-.27-1.23-.8A.9.9,0,0,1,82.19,32.59Z"/><path class="cls-1" d="M88.05,28.94a2.1,2.1,0,0,1,2.12,2.24,2.42,2.42,0,0,1-2.27,2.61,2.08,2.08,0,0,1-2.13-2.24A2.41,2.41,0,0,1,88.05,28.94ZM88,33.23c.65,0,1.33-.63,1.33-2,0-1.14-.61-1.77-1.3-1.77s-1.33.67-1.33,2S87.27,33.23,88,33.23Z"/><path class="cls-1" d="M90.76,29.53l-.4-.28V29h1.85v.23l-.55.23,1,3.08h0l1.08-3-.55-.26V29h1.49v.23l-.27.22-1.73,4.28-.33,0Z"/><path class="cls-1" d="M97,28.95a1.62,1.62,0,0,1,1.68,1.81c0,.18,0,.38,0,.62H95.77c0,1.09.63,1.72,1.44,1.72a2.55,2.55,0,0,0,1.37-.42.81.81,0,0,1,0,.25c0,.44-.64.84-1.67.84a2,2,0,0,1-2-2.22C94.94,29.87,96,28.95,97,28.95Zm.9,1.93c0-1-.41-1.41-1-1.41a1.34,1.34,0,0,0-1.1,1.41Z"/><path class="cls-1" d="M99.42,33.47c.25-.1.51-.29.51-.52V29.67l-.63-.26v-.21a4.57,4.57,0,0,1,1.16-.17h.23v.68h0l.27-.3a1.13,1.13,0,0,1,.85-.43c.34,0,.5.15.5.42a1.3,1.3,0,0,1-.16.58,1,1,0,0,0-.6-.22,1.22,1.22,0,0,0-.85.4v3.09l.67.15v.18a3.35,3.35,0,0,1-1.2.17,2.76,2.76,0,0,1-.78-.09Z"/><path class="cls-1" d="M102.68,33.47c.26-.1.51-.29.51-.52V27.32l-.63-.26v-.21a4.24,4.24,0,0,1,1.16-.17H104l0,.54v2.32A1.91,1.91,0,0,1,105.4,29c.82,0,1.36.51,1.36,1.51v2.72l.5.15v.18a2.82,2.82,0,0,1-1,.17,1.93,1.93,0,0,1-.62-.09v-.17a.61.61,0,0,0,.35-.64V31c0-1-.39-1.31-1-1.31a1.75,1.75,0,0,0-1,.3v3.26l.54.15v.18a3.11,3.11,0,0,1-1.13.17,2.67,2.67,0,0,1-.73-.09Z"/><path class="cls-1" d="M110,28.95a1.62,1.62,0,0,1,1.68,1.81c0,.18,0,.38,0,.62h-2.86c0,1.09.63,1.72,1.44,1.72a2.55,2.55,0,0,0,1.37-.42.81.81,0,0,1,0,.25c0,.44-.64.84-1.67.84a2,2,0,0,1-2-2.22C107.93,29.87,108.95,28.95,110,28.95Zm.9,1.93c0-1-.41-1.41-1-1.41a1.34,1.34,0,0,0-1.1,1.41Z"/><path class="cls-1" d="M112.41,33.47c.26-.1.51-.29.51-.52V29.67l-.62-.26v-.2a4.59,4.59,0,0,1,1.15-.18h.31l0,.52v3.69l.54.15v.18a3.11,3.11,0,0,1-1.13.17,2.67,2.67,0,0,1-.73-.09Zm.41-5.9a.55.55,0,0,1,.55-.57.5.5,0,0,1,.5.52.56.56,0,0,1-.54.6A.52.52,0,0,1,112.82,27.57Z"/><path class="cls-1" d="M117.28,29A3.25,3.25,0,0,1,118,29V27.32l-.66-.26v-.21a4.84,4.84,0,0,1,1.2-.17h.31l-.06.54v5.56a1.35,1.35,0,0,0,.37.56,3.3,3.3,0,0,1-.68.46,1.77,1.77,0,0,1-.47-.58,1.94,1.94,0,0,1-1.24.55A1.88,1.88,0,0,1,115,31.66,2.39,2.39,0,0,1,117.28,29Zm.68,3.86V29.61a2.37,2.37,0,0,0-.71-.11c-.83,0-1.45.65-1.45,2,0,1.06.55,1.63,1.17,1.63A1.67,1.67,0,0,0,118,32.82Z"/><rect class="cls-2" x="28.84" width="31.09" height="55.54"/><path class="cls-3" d="M44.92,41.42h-.54v-1.5h.54Zm2.44-6.61h-.54v-1.5h.54Zm-10-2.59s-.32,0-.32.06.13,0,.32.06c.43.07.6.29.91.29a.43.43,0,0,0,.45-.59c0-.07-.06-.05-.07,0a.47.47,0,0,1-.49.28C37.86,32.33,37.8,32.23,37.35,32.23Zm-3,1.5c0,.07.56.73-.23,1,0,0,0,0,0,.07a.67.67,0,0,0,.86-.2.86.86,0,0,1-.15,1,1.24,1.24,0,0,0,.76.41,1,1,0,0,0,.48-.5.89.89,0,0,1,0,.57c1.18.11,1.6-.84,2.51-.67,0,0,0,0,0,0a1.89,1.89,0,0,0-1.48-1.86c-1.12-.22-.82-.68-.82-.68a1.22,1.22,0,0,1,.75.18.28.28,0,0,0,0-.29.73.73,0,0,0,.07-.25c-.53,0-.67-.12-.67-.12-.08-.32.14-.76.93-.28a.6.6,0,0,0,.18-.44.22.22,0,0,0,.1-.16c0-.13-.63-.49-.8-.53,0-.19-.28-.47-1-.37-.35,0-.61,0-.49-.25,0,0,0,0-.08,0s-.19.31.11.47a.67.67,0,0,1,.37.57c0,.07-.08.08-.1,0a.94.94,0,0,0-1.42-.4.62.62,0,0,0,.54.51.27.27,0,0,0,.25-.25c0-.07,0-.06.06,0a.42.42,0,0,1-.68.37,1.21,1.21,0,0,0-.23,1.24c.08.38-.1.74-.44.57,0,0,0,0,0,0A.43.43,0,0,0,34.37,33.73Zm2.54-2.32c-.22.24-.57.18-.65-.21C36.7,31.17,36.89,31.21,36.91,31.4Zm13.71.92a.47.47,0,0,1-.49-.28s0-.06-.07,0a.43.43,0,0,0,.45.59c.3,0,.47-.22.91-.29.19,0,.32,0,.32-.06s-.28-.06-.32-.06C51,32.23,50.9,32.33,50.62,32.33Zm4.44,1.1s0,0,0,0c-.34.17-.52-.19-.44-.57a1.21,1.21,0,0,0-.23-1.24.42.42,0,0,1-.68-.37c0-.05.06-.06.06,0a.27.27,0,0,0,.25.25.62.62,0,0,0,.54-.51.94.94,0,0,0-1.42.4c0,.07-.11.07-.1,0a.67.67,0,0,1,.36-.57c.31-.15.2-.38.12-.47s-.1,0-.08,0c.12.21-.14.3-.49.25-.74-.1-1,.18-1,.37-.16,0-.8.4-.8.53a.22.22,0,0,0,.1.16.6.6,0,0,0,.18.44c.79-.48,1,0,.93.28,0,0-.14.11-.67.12a.73.73,0,0,0,.07.25.28.28,0,0,0,0,.29,1.22,1.22,0,0,1,.75-.18s.3.46-.82.68a1.89,1.89,0,0,0-1.48,1.86s0,0,0,0c.91-.17,1.33.78,2.51.67a.89.89,0,0,1,0-.57,1,1,0,0,0,.47.5,1.24,1.24,0,0,0,.76-.41.86.86,0,0,1-.15-1,.67.67,0,0,0,.86.2c.05,0,0-.06,0-.07-.78-.25-.27-.91-.23-1A.43.43,0,0,0,55.06,33.42ZM52.5,31.19c-.08.4-.43.45-.65.21C51.87,31.21,52.06,31.17,52.5,31.19Zm-8.33-6.64a.43.43,0,0,0,.08.24c.07.1.06.15,0,.19s-.09,0-.19,0a.42.42,0,0,0-.24-.08.21.21,0,1,0,0,.42.43.43,0,0,0,.24-.08c.1-.07.15-.06.19,0a2.52,2.52,0,0,1-.05.64.5.5,0,0,0-.42.42c0,.34.36.54.58.65.21-.11.58-.31.58-.65a.5.5,0,0,0-.42-.42,2.53,2.53,0,0,1-.05-.64s.09,0,.19,0a.43.43,0,0,0,.24.08.21.21,0,1,0,0-.42.42.42,0,0,0-.24.08c-.1.07-.15.06-.19,0s0-.09,0-.19a.43.43,0,0,0,.08-.24.21.21,0,1,0-.42,0Zm.21,2.52a.41.41,0,1,0,.41.41A.41.41,0,0,0,44.38,27.08Zm0,4a8.87,8.87,0,0,1,2.59.32c0-.84,0-1.3.48-1.23-.26-.7.87-1,.87-1.9,0-.6-.43-.67-.55-.67-.37,0-.32.24-.63.24,0,0-.08,0-.08,0s.09.29.24.29.2-.2.35-.2.15.05.15.25a1.9,1.9,0,0,1-.56,1.16.34.34,0,0,0-.28-.15.39.39,0,0,0-.34.42.51.51,0,0,0,0,.22.57.57,0,0,1-.26.09.32.32,0,0,1-.34-.35c0-.66.89-1.25.89-2.09a.78.78,0,0,0-.83-.8c-.6,0-.49.55-1,.55,0,0,0,0,0,0s.09.34.36.34.37-.5.62-.5c.1,0,.24.06.24.39A3.06,3.06,0,0,1,46,28.56a.37.37,0,0,0-.26-.12.43.43,0,0,0-.38.47.58.58,0,0,0,.18.42c-.13.17-.27.3-.45.3-.36,0-.52-.2-.52-.43s.44-.33.44-.7a.36.36,0,0,0-.33-.4.46.46,0,0,0-.28.11.46.46,0,0,0-.28-.11.36.36,0,0,0-.33.4c0,.38.44.46.44.7s-.16.43-.52.43c-.18,0-.32-.14-.45-.3a.58.58,0,0,0,.18-.42.43.43,0,0,0-.38-.47.37.37,0,0,0-.26.12,3.06,3.06,0,0,1-.32-1.09c0-.34.14-.39.24-.39.25,0,.34.5.62.5s.36-.3.36-.34,0,0,0,0c-.52,0-.41-.55-1-.55a.78.78,0,0,0-.83.8c0,.84.89,1.43.89,2.09a.32.32,0,0,1-.34.35.58.58,0,0,1-.26-.09.51.51,0,0,0,0-.22.39.39,0,0,0-.33-.42.34.34,0,0,0-.28.15A1.9,1.9,0,0,1,41,28.18c0-.2.09-.25.15-.25s.15.2.35.2.24-.18.24-.29,0,0-.08,0c-.32,0-.26-.24-.63-.24-.13,0-.55.07-.55.67,0,.92,1.13,1.19.87,1.9.48-.07.47.4.48,1.23A8.86,8.86,0,0,1,44.38,31.06Zm-3,1.24c-.45.1-.78.19-.92.24,0-.2.08-.38.26-.43a0,0,0,0,0,0,0c-.4-.27-.62.24-.62.26s-.36,0-.36.23c0,.58-1.32.89-1.62.94a1.55,1.55,0,0,1,.76.89,3.37,3.37,0,0,1,.95-.73c.1,0,.14.13.15.21a0,0,0,0,0,0,0c.2-.31.11-.37.09-.47a.26.26,0,0,1,.31-.31v3.84l-.15,0c-.07,0-.63-.47-1.28-.91s-1-.18-1.72.22a2.27,2.27,0,0,1-1.93,0,4.26,4.26,0,0,0-1.11,2.3,1.93,1.93,0,0,1-.7.14c-.63,0-.75-.38-.75-.61,0-1,1.22-1.39,1.22-2.36a1.16,1.16,0,0,0-1.28-1.18h-1a.62.62,0,0,1-.61-.44s-.07,0-.05,0,0,.2,0,.45a.58.58,0,0,0,.66.63,1,1,0,0,0,.44-.09s.06,0,0,0a.78.78,0,0,0-.13.72s0,0,0,0a1.06,1.06,0,0,1,1-.8.59.59,0,0,1,.63.67c0,.78-1.37,1.36-1.37,2.43s1.15,1.33,1.82,1.15c0,1.09-1.29,1.47-1.33.68,0,0,0,0,0,0-.16.39-.1.73.39.83,0,0,0,0,0,0-.48.31-.22,1.51-.2,1.86,0,.51-.47.45-.51.44s0,0,0,0a.54.54,0,0,0,.8,0c.34.11.13.39-.1.54,0,0,0,0,0,0s.57,0,.66-.37a.55.55,0,0,0,.64.14c.1-.05.59-.23.64.32,0,0,0,0,0,0a.45.45,0,0,0-.25-.78.37.37,0,0,1,.58.07s0,0,0,0c0-.59-.45-.64-.76-.39,0-.06-.12-.39.35-.38,0,0,0,0,0,0a.44.44,0,0,0-.73,0c-.16.19-.56.12-.6.11.13-2,1.92-1.32,2.17-2.31,0-.05,0,0,0,0,.07.24.68.28.79-.2,0,0,0-.05,0,0-.52.52-1.69-1.11-.09-2.43a2.32,2.32,0,0,1,3.06-.13.19.19,0,0,1-.14.23s0,0,0,0a.35.35,0,0,0,.4-.09c.29.21,0,.46-.08.54s0,0,0,0a.47.47,0,0,0,.5-.38l0,0v1.16c0,1.65,1.9,1.88,4,3.28,2.09-1.4,4-1.63,4-3.28V37.93l0,0a.47.47,0,0,0,.5.38s0,0,0,0-.37-.33-.08-.54a.35.35,0,0,0,.4.09s0,0,0,0a.19.19,0,0,1-.13-.23,2.32,2.32,0,0,1,3.06.13c1.6,1.32.43,2.95-.09,2.43,0,0,0,0,0,0,.11.48.72.44.79.2,0,0,0,0,0,0,.25,1,2,.27,2.17,2.31,0,0-.44.08-.6-.11a.44.44,0,0,0-.73,0s0,0,0,0c.47,0,.36.32.35.38-.31-.25-.79-.2-.76.39,0,0,0,0,0,0a.37.37,0,0,1,.58-.07.45.45,0,0,0-.25.78s0,0,0,0c0-.55.54-.37.64-.32a.55.55,0,0,0,.64-.14c.09.41.61.37.66.37s0,0,0,0c-.22-.15-.43-.44-.1-.54a.54.54,0,0,0,.8,0s0-.05,0,0-.55.07-.51-.44c0-.36.28-1.56-.2-1.86,0,0,0,0,0,0,.49-.11.55-.45.39-.83,0,0,0,0,0,0,0,.78-1.29.41-1.33-.68.67.17,1.82-.06,1.82-1.15s-1.37-1.65-1.37-2.43a.59.59,0,0,1,.63-.67,1.06,1.06,0,0,1,1,.8s0,0,0,0a.78.78,0,0,0-.12-.72s0-.06,0,0a1,1,0,0,0,.44.09.58.58,0,0,0,.66-.63c0-.24-.09-.37-.05-.45s0-.06-.05,0a.62.62,0,0,1-.61.44H56.08A1.16,1.16,0,0,0,54.8,35.8c0,1,1.22,1.38,1.22,2.36,0,.23-.12.61-.75.61a1.92,1.92,0,0,1-.7-.14,4.25,4.25,0,0,0-1.11-2.3,2.27,2.27,0,0,1-1.93,0c-.73-.4-1.08-.66-1.72-.22s-1.2.92-1.27.91l-.15,0V33.09a.26.26,0,0,1,.31.31c0,.09-.11.16.09.47,0,0,0,0,0,0s0-.21.15-.21a3.41,3.41,0,0,1,.95.73,1.56,1.56,0,0,1,.76-.89c-.31,0-1.62-.37-1.62-.94,0-.19-.22-.24-.36-.23s-.22-.53-.62-.26a0,0,0,0,0,0,0c.18,0,.25.23.26.43a14.41,14.41,0,0,0-4-.58,14.23,14.23,0,0,0-2.5.23v1.33h-.54V32.3h0M37.76,45.95a.33.33,0,0,1-.24-.34v-.83a6,6,0,0,0-2.18-.33c-1.07,0-1.41.24-1.43.33l-.28,1.57s.44-.4,2-.3c1.88.12,3.82,1.23,3.82,0v-.69C38,45.41,37.76,45.88,37.76,45.95Zm11.55-.54v.69c0,1.18,1.94.07,3.82,0,1.56-.1,2,.3,2,.3l-.28-1.57c0-.09-.35-.33-1.43-.33a6,6,0,0,0-2.18.33v.83a.33.33,0,0,1-.24.34C51,45.88,50.78,45.41,49.31,45.41Zm-4.93-.72c3,0,6.09.16,6.49.61,0,0,0,0,0,0v-1.6c0-.47-3.16-.74-6.54-.74s-6.54.27-6.54.74v1.6s0,.06,0,0C38.29,44.85,41.36,44.69,44.38,44.69Zm-2.69-7.55-.31-.08,0,0L41,36.94h.32s0,0,0,0l-.27-.26.35.13s0,0,0,0l-.23-.34.34.23s0,0,0,0l-.16-.4.31.3s0,0,0,0l-.09-.4.23.34s0,0,0,0,0-.37,0-.37l.15.34s0,0,0,0l.12-.28v.38h-.05l-.06.46c.46-.11,1-.89,1.46-.89s.71.61,1.67.3a2.84,2.84,0,0,1,.42,1.1c.37.35.89.23.89-.14S46,36.74,46,36.22a.56.56,0,0,1,.6-.56c.23,0,.58.1.77.1a.3.3,0,0,0,.31-.24c0-.05.09,0,.08,0s0,.12,0,.23c0,.33-.48.37-.54.33s0,0,0,0,.05.25,0,.38,0,0,0,0a.72.72,0,0,0-.57-.53.25.25,0,0,0-.27.26c0,.3.59.56.59,1.18s-.63.79-1.26.63c0,.6.92,1,.94.53,0,0,0,0,0,0a.23.23,0,0,1-.1.4c.16.07.19.39.23.57s.37.13.38.12,0,0,0,0a.32.32,0,0,1-.42.18c-.16.11,0,.21.18.25s0,0,0,0-.33.11-.44-.08a.3.3,0,0,1-.31.19c-.12,0-.19.12-.17.28s0,0,0,0a.25.25,0,0,1,0-.45.2.2,0,0,0-.29.13s0,0,0,0c-.12-.32.14-.41.33-.33a.29.29,0,0,0-.36-.15s0,0,0,0a.24.24,0,0,1,.39-.09c.11.07.31,0,.33,0-.4-.8-1.18-.13-1.36-.75,0,0,0,0,0,0s-.38.14-.44-.12c0,0,0,0,0,0s.16.1.3-.11a.78.78,0,0,0,.11-.44,1.38,1.38,0,0,0-1.24-1.3,2.44,2.44,0,0,0-1.38.47l.36.08a.55.55,0,0,1-.7.48l.05-.41a.54.54,0,0,0-.27.17h0a.33.33,0,0,1,.19-.38s0,0,0,0a.35.35,0,0,0-.3.16h0A.24.24,0,0,1,41.69,37.14Zm1.06,2.78c-.14.17-.26,0-.43,0a.19.19,0,0,0-.2.2s0,0,0,0a.24.24,0,0,1,.15-.42.22.22,0,0,0-.33,0s0,0,0,0c0-.32.25-.35.42-.2,0-.12,0-.2-.19-.21s0,0,0,0a.23.23,0,0,1,.17-.09c.18,0,.2.23.32.23s.43-.24.45-.26a2.06,2.06,0,0,1-.14-.74s0,0,0,0-.3,0-.3-.22c0,0,0,0,0,0s.25,0,.33-.1.53-.74,1.12-.74a.87.87,0,0,1,.43.17c-.2.25,0,.49.15.46s0,0,0,0c-.78.3-1.13.41-1.13,1.07,0,.34.12.53.32.49,0,0,0,0,0,0a.29.29,0,0,1-.23.12c-.16,0-.19-.09-.28-.09s-.38.17-.38.31a.25.25,0,0,0,.14.2s0,0,0,0S42.8,40.14,42.74,39.92Zm2.06-6.37c-.25,0-.4,0-.39.12S44.69,33.78,44.8,33.55Zm-.9.6a1,1,0,0,1,.38,0,0,0,0,0,1,0,.05c-.36,0-.38.21-.61.21a.28.28,0,0,1-.25-.38s0,0,0,0S43.62,34.23,43.9,34.16Zm-4.68,8c.24.31.47,0,.78,0,.15,0,.34.05.37.36,0,0,0,0,0,0a.44.44,0,0,0-.27-.76.4.4,0,0,1,.59.05,0,0,0,0,0,0,0c0-.59-.44-.63-.76-.38-.06-.23.11-.38.34-.38,0,0,0,0,0,0-.4-.42-.69.11-.76.19s-.72-.19-.95-.42a1.84,1.84,0,0,0,.5-1s0-.07,0-.08,0,0,0,0a.4.4,0,0,0,.18,0c.11,0,.33,0,.33-.44,0,0,0,0,0,0a.21.21,0,0,1-.17.1c-.4,0-1.24-1.34-2.23-1.34a1.64,1.64,0,0,0-1,.45.32.32,0,0,1,.13.32.35.35,0,0,1-.29.29s0,0,0,0a9.82,9.82,0,0,1,1.62.71c.24.21.2.61.05,1.16s-.43.46-.54.44,0,0,0,0a.53.53,0,0,0,.42.22c.26,0,.36-.16.49-.16s.7.32.7.57a.46.46,0,0,1-.25.36s0,0,0,0S39.14,42.54,39.22,42.14Zm11,.34s0,0,0,0a.47.47,0,0,1-.25-.36c0-.25.47-.57.7-.57s.23.16.49.16a.54.54,0,0,0,.42-.22s0,0,0,0-.4.09-.54-.44-.19-1,.06-1.16a9.79,9.79,0,0,1,1.62-.71s0,0,0,0a.35.35,0,0,1-.29-.29.32.32,0,0,1,.13-.32,1.64,1.64,0,0,0-1-.45c-1,0-1.83,1.34-2.23,1.34a.21.21,0,0,1-.18-.1s0,0,0,0c0,.41.21.44.33.44a.4.4,0,0,0,.18,0s0,0,0,0,0,.06,0,.08a1.84,1.84,0,0,0,.5,1c-.23.23-.79.63-.95.42s-.36-.62-.76-.19c0,0,0,0,0,0,.22,0,.39.15.34.38-.32-.26-.76-.21-.76.38a0,0,0,0,0,0,0,.4.4,0,0,1,.59-.05.44.44,0,0,0-.27.76s0,0,0,0c0-.31.22-.36.37-.36.31,0,.54.29.78,0C49.63,42.54,50.07,42.51,50.18,42.49Zm-8-7.75s-.13,0-.17,0,0,0,0,0,.13.22.27.22a.27.27,0,0,0,.19-.08l.87.27a1,1,0,0,0-.2.52C42.88,35.52,42,35,42,35l-.29.39c0,.07-.28-.1-.23-.17l.22-.3c-.07-.08-.25,0-.3,0s0,0,0,0a.32.32,0,0,1,.41-.16c0-.17-.25-.11-.31-.1s0,0,0,0a.4.4,0,0,1,.5-.1l.1-.14-.2-.21L42,34l.14.19,1.08-1.47a1,1,0,0,1,.32-.11,1.11,1.11,0,0,1,0,.34l-1.06,1.49.22.07-.12.17-.26-.12Zm3.77-.24c0,.13.08.33.26.28h0c0,.15-.3.29-.42.11a.39.39,0,0,0,.15.57,0,0,0,0,1,0,0,.31.31,0,0,1-.46-.12.4.4,0,0,0,0,.56,1.21,1.21,0,0,1-1,.09,1.81,1.81,0,0,0-1-.32c.06-.58.35-.73.88-.82s.48-.27.42-.41a.8.8,0,0,0-.41.09.15.15,0,0,1,0-.16.4.4,0,0,1,0-.14c.3,0,.35-.07.35-.07.05-.31-.26-.34-.5-.18a.28.28,0,0,1-.09-.23.12.12,0,0,1-.05-.09c0-.07.35-.27.44-.3s.15-.25.53-.21a1.21,1.21,0,0,0-.07-.56s0,0,0,0,.26.39.35.4a4.06,4.06,0,0,1,.44-.21,4.26,4.26,0,0,1,.08.48c.06.07.38,0,.53.06s0,0,0,0a1.2,1.2,0,0,0-.5.26A1.39,1.39,0,0,1,45.93,34.5Z"/></svg>