<svg id="Zuid-Holland" xmlns="http://www.w3.org/2000/svg" xmlns:xlink="http://www.w3.org/1999/xlink" viewBox="0 0 190 75"><defs><style>.cls-1,.cls-10{fill:#c42032;}.cls-2{fill:#edbeb2;}.cls-3{fill:#d8766a;}.cls-19,.cls-4{fill:#1e4384;}.cls-5,.cls-6{fill:#dbb127;}.cls-10,.cls-15,.cls-17,.cls-19,.cls-6,.cls-8{fill-rule:evenodd;}.cls-7,.cls-8{fill:#f0d99d;}.cls-9{fill:url(#Verloop_117_FC_40-100_);}.cls-11{fill:#e59d90;}.cls-12{fill:#cf4e4b;}.cls-13{fill:#701d30;}.cls-14,.cls-15{fill:#b38c2e;}.cls-16,.cls-17{fill:#511d2f;}.cls-18{fill:#fff;}.cls-20{fill:#8e97c3;}.cls-21{fill:#ba8a37;}</style><linearGradient id="Verloop_117_FC_40-100_" x1="10010.23" y1="10374.89" x2="10053.16" y2="10431.86" gradientTransform="translate(-2457 -2574) scale(0.25)" gradientUnits="userSpaceOnUse"><stop offset="0" stop-color="#f0d99d"/><stop offset="1" stop-color="#dbb127"/></linearGradient></defs><title>Artboard 1</title><path class="cls-1" d="M45.2,34.77a.16.16,0,0,0,0-.21.62.62,0,0,0-.64-.16c-.22,0-.38.23-.73.11s-.69-.57-.93-.8l-.6-.55a.88.88,0,0,1-.25-.48.59.59,0,0,0,.81-.23.52.52,0,0,1-.61-.29A.58.58,0,0,0,43,32s-.4-.06-.42-.37a.52.52,0,0,0-.3-.49.43.43,0,0,0,.25-.63.3.3,0,0,1-.34.15,1.1,1.1,0,0,1-.49-.33,1.94,1.94,0,0,0-.82-.52l-.3-.07a3.81,3.81,0,0,0-.82-.07l-.39,0a2.2,2.2,0,0,1,1-.5,2.15,2.15,0,0,0,1-.61,3,3,0,0,0,.77.42,1,1,0,0,1,.52.61.32.32,0,0,0,.09-.37,2,2,0,0,1,.59.39c.38.32.06.56.23.82s.47,0,.47,0,0,.43.43.42.32-.47.32-.47a.38.38,0,0,0,.48-.5.56.56,0,0,0-.3-.28c.28-.12.33-.28.3-.41A.41.41,0,0,0,45,29a.58.58,0,0,0-.24-.08,2.68,2.68,0,0,0-.43,0,3.58,3.58,0,0,1-1-.72c-.18-.17-.33-.35-.42-.46l-.16-.19a.43.43,0,0,0,.36-.14.33.33,0,0,1-.26-.3c.35,0,.45-.46.45-.46-.3.12-.4,0-.4,0,.36-.2.5-.68.63-1a.81.81,0,0,1,.43-.45.5.5,0,0,0-.4-.1,1.93,1.93,0,0,1,.75-1v-2a.9.9,0,0,0-.17.21s-.07-.12-.17-.13-.3,0-.39.31a.88.88,0,0,0,.11.68.6.6,0,0,0-.08.17,1.14,1.14,0,0,1-.83.8,2.31,2.31,0,0,0-.88.67.49.49,0,0,0,0-.38.89.89,0,0,1-.71.09c-.34-.14-.42-.48-.24-.61s.65,0,.65,0c.26-.31.13-.5,0-.57a.42.42,0,0,0-.27,0,.66.66,0,0,1-.89-.5v-.17c-.06-.55.25-.71.82-.62s.72-.3.73-.54-.07-.36,0-.48,0-.23-.29-.26h-.24c-.18,0-.23.09-.46-.07a.79.79,0,0,0-.63-.07,1.55,1.55,0,0,0-.34.13.74.74,0,0,0-.13-.25.67.67,0,0,0-.87-.15.94.94,0,0,1-.72.08.66.66,0,0,0,.05.31A.74.74,0,0,0,39,21l-.29.12a1.75,1.75,0,0,0-.51.38c-.32.37-.13.77-.35,1a1,1,0,0,1-.42.24.7.7,0,0,0,.61.23.92.92,0,0,1-.59.76.65.65,0,0,0,.6.17,1,1,0,0,1-.5.85c.71.29,1-.06,1-.06a.81.81,0,0,1-.61.74.77.77,0,0,0,.76.19.87.87,0,0,1,.24.51.94.94,0,0,1-.17.55.51.51,0,0,0,.58,0,6.6,6.6,0,0,1-1.4,1.66,4.08,4.08,0,0,1-2,.84,1.7,1.7,0,0,1-.67-.08.9.9,0,0,1-.45-.39,1.26,1.26,0,0,1,.07-1.31,1.11,1.11,0,0,1,1.42-.22c.34.21.21.67.21.67.58-.63.08-1.06.08-1.06a1.27,1.27,0,0,0,.6-2,1.45,1.45,0,0,0-.86-.47,1.77,1.77,0,0,0,.06-.53.64.64,0,0,0-.09-.29.86.86,0,0,0-.14-.17.58.58,0,0,0-.18-.11c-.44-.16-.75,0-1.1,0a.68.68,0,0,1-.43-.34.84.84,0,0,0-.08.41.64.64,0,0,0,.19.47c-.79-.2-.86-1.22-.86-1.22a2.7,2.7,0,0,0-.12.79c0,1.17.75,1.63,2,1.42,1.12-.18,1.37.52,1.38.83a.67.67,0,0,1-.15.49l-.08.09c-.45.51-1.12.33-1.63.49a1.47,1.47,0,0,0-.37.18c-.06-.46-.47-.41-.62-.41a.68.68,0,0,0-.26.06.53.53,0,0,1,.41.39c.13.46-.38,1-.14,1.88a1.42,1.42,0,0,0,1,1.07,3.18,3.18,0,0,0,1.76-.05,1.33,1.33,0,0,0-.66,1,.38.38,0,0,1-.46.28.61.61,0,0,0,.6.27,1.82,1.82,0,0,0-.09.19,3,3,0,0,0-.16.72c-.28-.55-.6-.35-.88-.4a.33.33,0,0,1-.29-.48.49.49,0,0,0-.36.29.29.29,0,0,0,.12.34,1.09,1.09,0,0,0-.21,0,.43.43,0,0,0-.37.21c-.12.22-.11.67-.23,1a.73.73,0,0,1-.4.39.35.35,0,0,0,.46.09.83.83,0,0,1-.54.58c.2.21.54,0,.54,0a.62.62,0,0,1-.5.54.45.45,0,0,0,.6,0,3.92,3.92,0,0,0,.27.89c.35.61,1,.35,1.44.43s.74.16.9-.27-.33-.51-.33-.51.07-.15,0-.22c-.32-.28-.78,0-.78,0a1.06,1.06,0,0,1-.41-.88c.1-.91.46-.82.84-.58a1.37,1.37,0,0,0,.93.11.65.65,0,0,0-.14.4.75.75,0,0,0,.27.49,1,1,0,0,1,.31-.78c-.13.5.2.64.2.64a.61.61,0,0,1,.24-.5.31.31,0,0,0,.17-.37.51.51,0,0,0,.64-.06.55.55,0,0,1-.45-.31c-.09-.22.24-.32.32-1a3,3,0,0,0-.06-1.06c1.5,0,1.65.44,1.69.68s-.08.39,0,.63a2.34,2.34,0,0,1,.16.79.34.34,0,0,1-.35.39.54.54,0,0,0,.17.11.61.61,0,0,0,.52,0,.53.53,0,0,0,.33.69c.31.11.48.12.59.31a.29.29,0,0,1,0,.34.36.36,0,0,0,.32-.46c.48.28.34.63.34.63a.38.38,0,0,0,.26-.44c.31.14.28.58.28.58a.36.36,0,0,0,.27-.33,5,5,0,0,1,.61.31c.41.23.8,0,1.2.1.18,0,.62.15.74-.24A.4.4,0,0,0,45.2,34.77Z"/><path class="cls-2" d="M36.73,26.08c-.45.51-1.12.33-1.63.49a4.55,4.55,0,0,1,.68,0,1.17,1.17,0,0,0,.76-.2A.74.74,0,0,0,36.73,26.08Z"/><path class="cls-2" d="M35.95,23.17c-.44-.16-.75,0-1.1,0a.68.68,0,0,1-.43-.34s.06.3.2.39a.81.81,0,0,0,.64,0A2.15,2.15,0,0,1,35.95,23.17Z"/><path class="cls-2" d="M34.52,23.68c-.79-.2-.86-1.22-.86-1.22a1.83,1.83,0,0,0,.23,1,.9.9,0,0,0,.82.32,2.23,2.23,0,0,1,.66,0,.94.94,0,0,0-.42-.1Z"/><path class="cls-2" d="M36.92,29.69a1.33,1.33,0,0,0-.66,1,.38.38,0,0,1-.46.28.46.46,0,0,0,.66-.42A1.28,1.28,0,0,1,36.92,29.69Z"/><path class="cls-2" d="M36.17,32.17a3,3,0,0,1,.16-.72,2.74,2.74,0,0,0,0,1.08A1.35,1.35,0,0,1,36.17,32.17Z"/><path class="cls-2" d="M34.53,31.91a.43.43,0,0,0-.37.21c-.12.22-.11.67-.23,1a.73.73,0,0,1-.4.39s.39,0,.49-.28.1-.69.18-1A.54.54,0,0,1,34.53,31.91Z"/><path class="cls-2" d="M34.06,33.59l-.07.05a.83.83,0,0,1-.54.58.65.65,0,0,0,.5-.29A.6.6,0,0,0,34.06,33.59Z"/><path class="cls-2" d="M33.5,34.82a.62.62,0,0,0,.5-.54l.07,0a.89.89,0,0,1-.14.37A.57.57,0,0,1,33.5,34.82Z"/><path class="cls-2" d="M41.37,20.72c-.18,0-.23.09-.46-.07a.79.79,0,0,0-.63-.07.77.77,0,0,1,.53.12.39.39,0,0,0,.31.13A.72.72,0,0,0,41.37,20.72Z"/><path class="cls-2" d="M39.8,20.45a.67.67,0,0,0-.87-.15.94.94,0,0,1-.72.08.7.7,0,0,0,.75,0A.8.8,0,0,1,39.8,20.45Z"/><path class="cls-2" d="M37.47,22.71a1,1,0,0,0,.42-.24c.22-.22,0-.63.35-1a1.75,1.75,0,0,1,.51-.38,1.17,1.17,0,0,0-.47.57c-.1.35-.06.7-.34.88a1.09,1.09,0,0,1-.47.16"/><path class="cls-2" d="M37.49,23.7a.92.92,0,0,0,.59-.76.85.85,0,0,1-.06.44A.7.7,0,0,1,37.49,23.7Z"/><path class="cls-2" d="M37.58,24.73s.46-.1.55-.4a.61.61,0,0,0,0-.46,1,1,0,0,1-.5.85"/><path class="cls-2" d="M37.92,25.41a.81.81,0,0,0,.61-.74.49.49,0,0,1,0,.43C38.41,25.36,37.92,25.41,37.92,25.41Z"/><path class="cls-2" d="M38.68,25.6a.87.87,0,0,1,.24.51.94.94,0,0,1-.17.55.65.65,0,0,0,.28-.55A.69.69,0,0,0,38.68,25.6Z"/><path class="cls-2" d="M39.34,26.66a6.6,6.6,0,0,1-1.4,1.66,4.08,4.08,0,0,1-2,.84,3.68,3.68,0,0,0,2.18-.75A4.21,4.21,0,0,0,39.34,26.66Z"/><path class="cls-2" d="M43.64,23.34a1.14,1.14,0,0,1-.83.8,2.31,2.31,0,0,0-.88.67,2.44,2.44,0,0,1,.84-.52,1.2,1.2,0,0,0,.77-.53A.89.89,0,0,0,43.64,23.34Z"/><path class="cls-2" d="M44.78,29a2.68,2.68,0,0,0-.43,0,3.58,3.58,0,0,1-1-.72,2.66,2.66,0,0,0,.49.55c.27.21.42.31.42.31A1,1,0,0,1,44.78,29Z"/><path class="cls-2" d="M38.55,31.06a.43.43,0,0,0,.21-.4.57.57,0,0,0-.16-.43,1,1,0,0,1,.5-.66.92.92,0,0,0-.63.62.81.81,0,0,1,.14.43A.76.76,0,0,1,38.55,31.06Z"/><path class="cls-2" d="M42.17,30.7a1.1,1.1,0,0,1-.49-.33,1.94,1.94,0,0,0-.82-.52,2.37,2.37,0,0,1,.63.52C41.85,30.8,42.17,30.7,42.17,30.7Z"/><path class="cls-3" d="M36.27,23.45a.86.86,0,0,0-.14-.17.58.58,0,0,0-.18-.11,2.15,2.15,0,0,0-.69.06.81.81,0,0,1-.64,0c-.14-.09-.2-.39-.2-.39s-.07.47.33.57.59-.09.9.12a.5.5,0,0,1,.23.37.55.55,0,0,0-.13-.47.69.69,0,0,0-.41-.11,2,2,0,0,1,.59,0A.73.73,0,0,1,36.27,23.45Z"/><path class="cls-3" d="M35.37,23.8a2.23,2.23,0,0,0-.66,0,.9.9,0,0,1-.82-.32,1.83,1.83,0,0,1-.23-1,1.8,1.8,0,0,0,0,1,1,1,0,0,0,.93.64,1.65,1.65,0,0,1,.93.17.72.72,0,0,0-.42-.27,3,3,0,0,1-.82-.13,2.36,2.36,0,0,0,.56,0,1,1,0,0,1,.81.24.43.43,0,0,0-.1-.17A1.13,1.13,0,0,0,35.37,23.8Z"/><path class="cls-3" d="M36.81,26l-.08.09a.74.74,0,0,1-.19.25,1.17,1.17,0,0,1-.76.2,4.55,4.55,0,0,0-.68,0,1.47,1.47,0,0,0-.37.18,1.29,1.29,0,0,1,.51-.16,8,8,0,0,0,.94,0,.7.7,0,0,0,.53-.34A.61.61,0,0,0,36.81,26Z"/><path class="cls-3" d="M37.38,29.32a1.49,1.49,0,0,1-.2.2,1.47,1.47,0,0,1-.26.17,1.28,1.28,0,0,0-.46.88.46.46,0,0,1-.66.42s.41.24.65,0,.12-.57.31-.89S37.27,29.58,37.38,29.32Z"/><path class="cls-3" d="M36.41,31.26a1.82,1.82,0,0,0-.09.19,2.76,2.76,0,0,0,0,1.08,2.4,2.4,0,0,0,.31.35,2.34,2.34,0,0,1-.26-1A2.18,2.18,0,0,1,36.41,31.26Z"/><path class="cls-3" d="M33.53,33.56s.39,0,.49-.28.1-.69.18-1a.54.54,0,0,1,.33-.4,1.09,1.09,0,0,1,.21,0,.47.47,0,0,0-.39.21,2.84,2.84,0,0,0-.19,1A.51.51,0,0,1,33.53,33.56Z"/><path class="cls-3" d="M33.45,34.22a.65.65,0,0,0,.5-.29.6.6,0,0,0,.12-.35l.06-.08A.65.65,0,0,1,34,34,.67.67,0,0,1,33.45,34.22Z"/><path class="cls-3" d="M33.5,34.82a.57.57,0,0,0,.43-.22.89.89,0,0,0,.14-.37l.07-.07a.6.6,0,0,1-.14.45A.62.62,0,0,1,33.5,34.82Z"/><path class="cls-3" d="M41.6,20.72h-.24a.72.72,0,0,1-.26.11.39.39,0,0,1-.31-.13.77.77,0,0,0-.53-.12,1.55,1.55,0,0,0-.34.13.74.74,0,0,0-.13-.25.8.8,0,0,0-.84,0,.7.7,0,0,1-.75,0s.16.33.68.17.84-.19,1,.24a1.45,1.45,0,0,1,.55-.12c.35,0,.28.26.55.24a.8.8,0,0,0,.35-.11A1.82,1.82,0,0,1,41.6,20.72Z"/><path class="cls-3" d="M38.08,22.94a.85.85,0,0,1-.06.44.7.7,0,0,1-.54.31s.45.07.61-.26A.49.49,0,0,0,38.08,22.94Z"/><path class="cls-3" d="M37.47,22.71a1.09,1.09,0,0,0,.47-.16c.28-.18.23-.53.34-.88a1.17,1.17,0,0,1,.47-.57L39,21a1.28,1.28,0,0,0-.61.66c-.14.44-.09.85-.45,1A1.15,1.15,0,0,1,37.47,22.71Z"/><path class="cls-3" d="M38.09,23.87a.61.61,0,0,1,0,.46c-.09.29-.55.4-.55.4s.53,0,.65-.37A.39.39,0,0,0,38.09,23.87Z"/><path class="cls-3" d="M37.92,25.41s.49,0,.6-.31a.49.49,0,0,0,0-.43l0,0a.57.57,0,0,1,.06.53C38.47,25.47,37.92,25.41,37.92,25.41Z"/><path class="cls-3" d="M38.68,25.6a.69.69,0,0,1,.36.52.65.65,0,0,1-.28.55.65.65,0,0,0,.37-.57C39.11,25.71,38.68,25.6,38.68,25.6Z"/><path class="cls-3" d="M39.34,26.66a4.21,4.21,0,0,1-1.26,1.75,3.68,3.68,0,0,1-2.18.75,1.7,1.7,0,0,1-.67-.08A2.83,2.83,0,0,0,37.32,29a3.79,3.79,0,0,0,1.79-1.58,2.81,2.81,0,0,0,.31-.82A.32.32,0,0,1,39.34,26.66Z"/><path class="cls-3" d="M43.61,22.49a.88.88,0,0,0,.11.68.6.6,0,0,0-.08.17.89.89,0,0,1-.1.42,1.2,1.2,0,0,1-.77.53,2.44,2.44,0,0,0-.84.52,3.14,3.14,0,0,1,.87-.4,1.19,1.19,0,0,0,1-.83,1.25,1.25,0,0,1,.16-.33,1,1,0,0,1-.23-.34A1.07,1.07,0,0,1,43.61,22.49Z"/><path class="cls-3" d="M45,29a.58.58,0,0,0-.24-.08,1,1,0,0,0-.49.15s-.16-.1-.42-.31a2.66,2.66,0,0,1-.49-.55c-.18-.17-.33-.35-.42-.46a2.15,2.15,0,0,0,.48.76,3.57,3.57,0,0,0,.66.57s-.08.06-.07.44a1.31,1.31,0,0,1,.46-.45A.77.77,0,0,1,45,29Z"/><path class="cls-3" d="M39.1,29.57a1,1,0,0,0-.5.66.57.57,0,0,1,.16.43.43.43,0,0,1-.21.4s.29,0,.32-.42a.56.56,0,0,0-.17-.41,1.61,1.61,0,0,1,.11-.29A2.38,2.38,0,0,1,39.1,29.57Z"/><path class="cls-3" d="M42.51,30.55a.3.3,0,0,1-.34.15s-.32.1-.68-.33a2.37,2.37,0,0,0-.63-.52l-.3-.07a1.4,1.4,0,0,1,.81.58c.36.48.61.48.79.48S42.51,30.55,42.51,30.55Z"/><path class="cls-3" d="M38.86,22.37a.43.43,0,0,0,.16.37.35.35,0,0,1,0,.57.52.52,0,0,0,0-.39C38.92,22.77,38.73,22.69,38.86,22.37Z"/><path class="cls-3" d="M39.24,23.66a.79.79,0,0,0,.37.34c.25.11.19.34.12.53,0,0,0-.25-.11-.36S39.27,24,39.24,23.66Z"/><path class="cls-3" d="M39.44,24.65a.63.63,0,0,0,.44.48.46.46,0,0,1,.28.7.44.44,0,0,0-.22-.46C39.65,25.23,39.43,25.14,39.44,24.65Z"/><path class="cls-3" d="M40.16,24.57a.93.93,0,0,0,1,.37.45.45,0,0,1-.2.14,1,1,0,0,1-.52-.19A.91.91,0,0,1,40.16,24.57Z"/><path class="cls-3" d="M40.72,25.79s.56-.31.76.25c.15.41.44.41.44.41s-.34.16-.55-.27A.59.59,0,0,0,40.72,25.79Z"/><path class="cls-3" d="M40,26s0,.23.38.36.3.33.25.52a.38.38,0,0,0-.2-.36C40.15,26.44,39.87,26.46,40,26Z"/><path class="cls-1" d="M40.17,20.88a.79.79,0,0,1-.34.58,1.13,1.13,0,0,0,.45,0c.18-.07.07-.2,0-.26s0-.17.17-.07.16-.07.16-.07A.84.84,0,0,0,40.17,20.88Z"/><path class="cls-1" d="M40.65,21.37s-.08.23-.52.23c0,0,.37.16.57,0S40.65,21.37,40.65,21.37Z"/><path class="cls-4" d="M21.69,65.5v-.36l4-6.47H22.86L22.38,60H22v-1.8h5.08v.32L23,65h3l.7-1.31h.37L26.9,65.5Z"/><path class="cls-4" d="M27.6,59.9v-.26h2.78v.26l-.88.35V63.6A1.31,1.31,0,0,0,31,65.1a1.28,1.28,0,0,0,1.48-1.45v-3.4l-.88-.35v-.26H34v.26l-.86.35v3.26a1.79,1.79,0,0,1-.84,1.8,3,3,0,0,1-1.53.31c-1.64,0-2.33-.57-2.33-1.89V60.18Z"/><path class="cls-4" d="M34.81,65.5v-.27l.87-.34V60.25l-.87-.35v-.26h2.78v.26l-.86.35V64.9l.86.34v.27Z"/><path class="cls-4" d="M40.62,60.15h.93a1.74,1.74,0,0,1,1.61.71,2.68,2.68,0,0,1,.47,1.67A2.49,2.49,0,0,1,43,64.41a1.84,1.84,0,0,1-1.54.57h-.82Zm.9,5.35a3.46,3.46,0,0,0,2.11-.55,3,3,0,0,0,1.16-2.51,2.81,2.81,0,0,0-.74-2,2.73,2.73,0,0,0-2.39-.78h-3v.26l.88.35V64.9l-.88.34v.27Z"/><path class="cls-4" d="M48.83,56.09V59l.93.38v.27h-2.9v-.27L47.8,59V53l-.93-.38v-.27h2.9v.27l-.93.38v2.57h3.41V53l-.92-.38v-.27h2.89v.27l-.92.38v6l.92.38v.27H51.33v-.27l.92-.38V56.09Z"/><path class="cls-4" d="M57.74,54.17c1.12,0,1.81,1,1.81,2.56s-.69,2.5-1.76,2.5S56,58.24,56,56.66,56.64,54.17,57.74,54.17Zm-.06,5.59a3,3,0,0,0,3-3.2,2.7,2.7,0,0,0-2.85-2.91,3,3,0,0,0-3,3.21A2.69,2.69,0,0,0,57.68,59.76Z"/><path class="cls-4" d="M61.54,59.64v-.27l.88-.34V54.38L61.54,54v-.26h2.78V54l-.86.35v4.79H65l.57-1.1h.36l-.15,1.56Z"/><path class="cls-4" d="M66.8,59.64v-.27l.87-.34V54.38L66.8,54v-.26h2.78V54l-.86.35v4.79h1.53l.57-1.1h.36L71,59.64Z"/><path class="cls-4" d="M74.61,54.82l.12.3.14.41.49,1.38H73.79Zm.86,2.49.6,1.72-.72.34v.27H78v-.27L77.21,59l-2-5.31h-.69L72.32,59l-.78.34v.27h2.15v-.27L73,59l.64-1.72Z"/><path class="cls-4" d="M78.57,59.64v-.27l.88-.34V54.4L78.57,54v-.26h1.76L83.55,58V54.4L82.69,54v-.26H85V54l-.87.35v5.3h-.46L80,54.92V59l.86.34v.27Z"/><path class="cls-4" d="M87.92,54.29h.93a1.74,1.74,0,0,1,1.61.71,2.67,2.67,0,0,1,.47,1.67,2.49,2.49,0,0,1-.65,1.87,1.84,1.84,0,0,1-1.54.57h-.82Zm.9,5.35a3.46,3.46,0,0,0,2.11-.56,3,3,0,0,0,1.16-2.51,2.82,2.82,0,0,0-.74-2c-.58-.62-1.11-.78-2.39-.78H86V54l.88.35V59l-.88.34v.27Z"/><path class="cls-4" d="M16.47,52.68a1.33,1.33,0,0,1,.53-.1c.6,0,1,.47,1,1.18A1.1,1.1,0,0,1,16.81,55l-.35,0Zm.4,2.59a1.65,1.65,0,0,0,1.73-1.68,1.27,1.27,0,0,0-1.17-1.38,2.66,2.66,0,0,0-1,.33v-.39l-1.09.25v.14l.53.16v3.56l-.53.19v.16h1.75v-.16l-.66-.19v-1A1.25,1.25,0,0,0,16.86,55.28Z"/><path class="cls-4" d="M19.33,55.24v-.15l.53-.22V52.71l-.53-.15v-.15l1.09-.25v.4l.06,0a2.33,2.33,0,0,1,.87-.32.59.59,0,0,1,.32.09V53h-.43L21,52.63h-.16a1.41,1.41,0,0,0-.47.09v2.16l.65.22v.15Z"/><path class="cls-4" d="M23.75,52.46c.55,0,.87.51.87,1.38s-.3,1.21-.82,1.21-.87-.5-.87-1.34S23.23,52.46,23.75,52.46Zm0,2.88a1.53,1.53,0,0,0,1.52-1.64,1.4,1.4,0,0,0-1.43-1.52,1.49,1.49,0,0,0-1.5,1.63A1.41,1.41,0,0,0,23.72,55.34Z"/><path class="cls-4" d="M27.16,55.31,26.1,52.57l-.38-.17v-.16h1.44v.16l-.43.17L27.23,54a5.67,5.67,0,0,1,.19.63l.75-2-.42-.21v-.16H29v.16l-.36.21-1.19,2.7Z"/><path class="cls-4" d="M29.69,55.24v-.15l.53-.22V52.71l-.53-.16v-.14l1.09-.24v2.7l.53.22v.15Zm.43-4.08c0-.22.13-.33.37-.33s.38.1.38.32-.12.34-.38.34S30.12,51.39,30.12,51.16Z"/><path class="cls-4" d="M32.18,55.24v-.15l.53-.22V52.71l-.53-.16v-.14l1.09-.25v.35l.09,0,.31-.11a1.78,1.78,0,0,1,.65-.16.84.84,0,0,1,.62.27.9.9,0,0,1,.23.72v1.68l.53.22v.15H34.11v-.15l.5-.22V53.31c0-.48-.24-.69-.79-.69a3.86,3.86,0,0,0-.55,0v2.21l.47.22v.15Z"/><path class="cls-4" d="M38.84,52.35V53h-.38l-.28-.56H38A1.16,1.16,0,0,0,37,53.7a1.35,1.35,0,0,0,.3.89,1,1,0,0,0,.88.35,2.84,2.84,0,0,0,.61-.06h.06l0,.2-.06,0-.32.1a2.73,2.73,0,0,1-.78.13,1.35,1.35,0,0,1-1.32-1.47,1.57,1.57,0,0,1,1.69-1.63A2.56,2.56,0,0,1,38.84,52.35Z"/><path class="cls-4" d="M39.77,55.24v-.15l.53-.22V52.71l-.53-.16v-.14l1.09-.24v2.7l.53.22v.15Zm.43-4.08c0-.22.13-.33.37-.33s.38.1.38.32-.12.34-.38.34S40.2,51.39,40.2,51.16Z"/><path class="cls-4" d="M42.8,53.47c.06-.68.3-1,.75-1s.58.26.6.89Zm1.9-.5a1.09,1.09,0,0,0-1.1-.76,1.49,1.49,0,0,0-1.44,1.62,1.36,1.36,0,0,0,1.38,1.48,3.93,3.93,0,0,0,1.17-.25l0-.2a5.13,5.13,0,0,1-.72.08,1.1,1.1,0,0,1-1.17-1.28h2A2.82,2.82,0,0,0,44.7,53Z"/><path class="cls-5" d="M49,35.69a6.27,6.27,0,0,1-4.57-4.74c-.4,0-.4-.31-.43-.42s-.29.22-.47,0,.15-.5-.23-.82a2,2,0,0,0-.59-.39.32.32,0,0,1-.09.37,1,1,0,0,0-.52-.61,3,3,0,0,1-.77-.42,2.15,2.15,0,0,1-1,.61,2.2,2.2,0,0,0-1,.5l.39,0a3.82,3.82,0,0,1,.82.07l.3.07a1.94,1.94,0,0,1,.82.52,1.1,1.1,0,0,0,.49.33.3.3,0,0,0,.34-.15.43.43,0,0,1-.25.63.52.52,0,0,1,.3.49c0,.31.42.37.42.37a.58.58,0,0,1-.74.12.52.52,0,0,0,.61.29.59.59,0,0,1-.81.23.88.88,0,0,0,.25.48l.6.55c.24.22.58.67.93.8s.5-.07.73-.11a.62.62,0,0,1,.64.16.16.16,0,0,1,0,.21.4.4,0,0,1,.39.55c-.12.4-.56.26-.74.24-.41,0-.8.14-1.2-.1a5,5,0,0,0-.61-.31.36.36,0,0,1-.27.33s0-.44-.28-.58a.38.38,0,0,1-.26.44s.14-.35-.34-.63a.36.36,0,0,1-.32.46.29.29,0,0,0,0-.34c-.12-.19-.28-.2-.59-.31a.53.53,0,0,1-.33-.69.61.61,0,0,1-.52,0,.54.54,0,0,1-.17-.11.34.34,0,0,0,.35-.39,2.34,2.34,0,0,0-.16-.79c-.06-.24.06-.39,0-.63s-.18-.66-1.69-.68a3,3,0,0,1,.06,1.06c-.08.7-.41.8-.32,1a.55.55,0,0,0,.45.31.51.51,0,0,1-.64.06.31.31,0,0,1-.17.37.61.61,0,0,0-.24.5s-.33-.15-.2-.64a1,1,0,0,0-.31.78.75.75,0,0,1-.27-.49.65.65,0,0,1,.14-.4,1.37,1.37,0,0,1-.93-.11c-.38-.24-.74-.33-.84.58a1.06,1.06,0,0,0,.41.88s.46-.33.78,0c.09.08,0,.22,0,.22s.54,0,.33.51-.58.33-.9.27-1.09.18-1.44-.43a3.92,3.92,0,0,1-.27-.89.45.45,0,0,1-.6,0,.62.62,0,0,0,.5-.54s-.34.16-.54,0a.83.83,0,0,0,.54-.58.35.35,0,0,1-.46-.09.73.73,0,0,0,.4-.39c.13-.37.11-.82.23-1a.43.43,0,0,1,.37-.21,1.09,1.09,0,0,1,.21,0,.29.29,0,0,1-.12-.34.49.49,0,0,1,.36-.29.33.33,0,0,0,.29.48c.28,0,.6-.16.88.4a3,3,0,0,1,.16-.72,1.82,1.82,0,0,1,.09-.19.61.61,0,0,1-.6-.27.38.38,0,0,0,.46-.28,1.33,1.33,0,0,1,.66-1,3.18,3.18,0,0,1-1.76.05,1.42,1.42,0,0,1-1-1.07c-.23-.89.27-1.42.14-1.88a.53.53,0,0,0-.41-.39.68.68,0,0,1,.26-.06c.16,0,.56-.05.62.41a1.47,1.47,0,0,1,.37-.18c.51-.16,1.18,0,1.63-.49l.08-.09A.67.67,0,0,0,37,25.5c0-.31-.26-1-1.38-.83-1.28.21-2-.26-2-1.42a2.7,2.7,0,0,1,.12-.79s.07,1,.86,1.22a.64.64,0,0,1-.19-.47.84.84,0,0,1,.08-.41.68.68,0,0,0,.43.34c.35.07.66-.13,1.1,0a.58.58,0,0,1,.18.11.86.86,0,0,1,.14.17.64.64,0,0,1,.09.29,1.77,1.77,0,0,1-.06.53,1.45,1.45,0,0,1,.86.47,1.27,1.27,0,0,1-.6,2s.5.43-.08,1.06c0,0,.13-.47-.21-.67a1.11,1.11,0,0,0-1.42.22,1.26,1.26,0,0,0-.07,1.31.9.9,0,0,0,.45.39,1.7,1.7,0,0,0,.67.08,4.08,4.08,0,0,0,2-.84,6.6,6.6,0,0,0,1.4-1.66.51.51,0,0,1-.58,0,.94.94,0,0,0,.17-.55.87.87,0,0,0-.24-.51.77.77,0,0,1-.76-.19.81.81,0,0,0,.61-.74s-.24.35-1,.06a1,1,0,0,0,.5-.85.65.65,0,0,1-.6-.17.92.92,0,0,0,.59-.76.7.7,0,0,1-.61-.23,1,1,0,0,0,.42-.24c.22-.22,0-.63.35-1a1.75,1.75,0,0,1,.51-.38L39,21a.74.74,0,0,1-.78-.28.66.66,0,0,1-.05-.31.94.94,0,0,0,.72-.08.67.67,0,0,1,.87.15.74.74,0,0,1,.13.25,1.55,1.55,0,0,1,.34-.13.79.79,0,0,1,.63.07c.23.16.28.1.46.07h.24c.33,0,.34.14.29.26s0,.24,0,.48-.1.64-.73.54-.89.07-.82.62v.17a.66.66,0,0,0,.89.5.42.42,0,0,1,.27,0c.18.07.31.26,0,.57,0,0-.48-.11-.65,0s-.1.48.24.61a.89.89,0,0,0,.71-.09.49.49,0,0,1,0,.38,2.31,2.31,0,0,1,.88-.67,1.14,1.14,0,0,0,.83-.8.6.6,0,0,1,.08-.17.88.88,0,0,1-.11-.68c.09-.31.28-.32.39-.31s.17.13.17.13a.9.9,0,0,1,.17-.21V20.89a25.68,25.68,0,0,1,3.29-.4h0l1-.06c.57,0,1.19,0,1.85,0h0V6.89H30v41H50.54v-12h-.1A6.29,6.29,0,0,1,49,35.69Z"/><path class="cls-6" d="M32.3,38l.27-.08h0l-.33-1.29a.43.43,0,0,0,.26.1l-.07-.27c0-.16.22-.28.63-.33s.63-.13.63-.33v0c-.07-.28-.8-.18-1.21-.12a5.8,5.8,0,0,0-.7.17l-.15,0L31.92,37l.27,1Z"/><path class="cls-6" d="M62.62,35.69c0,.22-.25.3-.75.35s-.74.28-.68.41l.06.22a.57.57,0,0,1-.22-.07l.26,1h0c-1.8-.09-5.46.36-10.77.36s-8.48-.53-10.3-.38h0l.07-.27h0l.14-.56c0-.09-.07-.19-.29-.26l0-.09c.07-.13-.12-.3-.65-.38s-.68,0-.77-.34h0c0-.2.2-.3.52-.35,1.23-.2,6,.49,11.21.49h.94c5-.06,9.84-.65,10.73-.48.36.07.47.22.47.34Z"/><path class="cls-5" d="M33,38.63a.34.34,0,0,0,.23.15,1.29,1.29,0,0,0,.58,0,13.07,13.07,0,0,1,2.49-.46,14.42,14.42,0,0,1,2.59.47c.22,0,.64,0,.72-.18h0l.54-2.11,0-.09c-.11.15-.39.21-.75.18a25.42,25.42,0,0,0-3.13-.42,17.84,17.84,0,0,0-3,.41c-.41.07-.73,0-.81-.15l.07.27Z"/><path class="cls-6" d="M61.74,38.63l-.5-1.95-.06-.22h0c.09.19.37.2.74.15a21.47,21.47,0,0,1,3.13-.42,17.81,17.81,0,0,1,3.05.41c.41.07.75,0,.81-.15l0,.1-.55,2.13c-.09.12-.39.2-.81.11a12.52,12.52,0,0,0-2.49-.46,14.42,14.42,0,0,0-2.59.47,1.09,1.09,0,0,1-.57,0,.27.27,0,0,1-.15-.14"/><path class="cls-5" d="M67.65,35.79s0,0,0,0c.08-.28.8-.18,1.21-.12a6.14,6.14,0,0,1,.73.18l.12,0-.05.21h0l-.5,2h0l-.34-.11h0l.29-1.15h0c0-.08,0-.16-.21-.23l0-.1c0-.16-.22-.28-.64-.33s-.6-.12-.63-.29v0Z"/><path class="cls-7" d="M50.48,35.84h.94c4.92-.07,9.85-.65,10.73-.48,0,0-.3,0-1.82.09-.9.06-4,.45-9.73.56-3.42.06-9.35-.57-11-.58-.76,0-.84.29-.84.29,0-.2.2-.3.52-.35C40.5,35.15,45.26,35.84,50.48,35.84Z"/><path class="cls-7" d="M33,38.63l-.49-1.9-.07-.27c.08.17.41.22.81.15a17.84,17.84,0,0,1,3-.41,25.42,25.42,0,0,1,3.13.42c.36,0,.64,0,.75-.18,0,0-.08.44-1,.26a19.06,19.06,0,0,0-2.26-.37,10.11,10.11,0,0,0-3.23.37,2.85,2.85,0,0,0-.82.34Z"/><path class="cls-8" d="M33.69,35.79v0c-.07-.28-.8-.18-1.21-.12a5.8,5.8,0,0,0-.7.17l-.15,0L31.92,37l.27,1L31.94,36a5,5,0,0,1,1.49-.29A.35.35,0,0,1,33.69,35.79Z"/><path class="cls-8" d="M61.74,38.63l-.5-1.95-.06-.22h0c.09.19.37.2.74.15a21.47,21.47,0,0,1,3.13-.42,17.81,17.81,0,0,1,3.05.41c.41.07.75,0,.81-.15s.06.43-1,.22a19.36,19.36,0,0,0-2.26-.35,10.6,10.6,0,0,0-3.23.38,6.18,6.18,0,0,0-.77.26Z"/><path class="cls-7" d="M67.66,35.77s0,0,0,0,.06-.12.37-.13a9.11,9.11,0,0,1,1.7.2l-.12,0a6.14,6.14,0,0,0-.73-.18C68.46,35.59,67.73,35.49,67.66,35.77Z"/><path class="cls-5" d="M44.35,29a3.58,3.58,0,0,1-1-.72c-.18-.17-.33-.35-.42-.46l-.16-.19a.43.43,0,0,0,.36-.14.33.33,0,0,1-.26-.3c.35,0,.45-.46.45-.46-.3.12-.4,0-.4,0,.36-.2.5-.68.63-1a.81.81,0,0,1,.43-.45.5.5,0,0,0-.4-.1,1.93,1.93,0,0,1,.75-1V29Z"/><path class="cls-9" d="M50.54,20.39c1.3,0,2.42.05,3.34.13a25.17,25.17,0,0,1,2.89.37V29a1,1,0,0,0-.61.08.35.35,0,0,0-.17.22.33.33,0,0,0,.29.46s-.44.14-.34.51a.5.5,0,0,0,.07.15.38.38,0,0,0,.44.12.57.57,0,0,0,.08.33.28.28,0,0,0,.2.12,6.26,6.26,0,0,1-4.38,4.69l-.2.06a6.27,6.27,0,0,1-.72.15,6.17,6.17,0,0,1-.75.06h-.23a6.33,6.33,0,0,1-6-4.95c.4,0,.32-.47.32-.47a.38.38,0,0,0,.48-.5.56.56,0,0,0-.3-.28c.28-.12.33-.28.3-.41A.41.41,0,0,0,45,29a.58.58,0,0,0-.24-.08,2.68,2.68,0,0,0-.43,0h0V20.89a25.68,25.68,0,0,1,3.29-.4h0l1-.06C49.26,20.41,49.88,20.39,50.54,20.39Z"/><path class="cls-1" d="M53.89,20.52c-.92-.07-2-.13-3.35-.13-.67,0-1.29,0-1.85,0l-1,.06c-.27,0-.5-.1-.69-.15a2.89,2.89,0,0,1-.82-.31l.12-.07a10,10,0,0,1,4.25-.65,8.89,8.89,0,0,1,4.26.73l.17.11A3.66,3.66,0,0,1,53.89,20.52Z"/><path class="cls-1" d="M56.85,30.94h-.13a.28.28,0,0,1-.2-.12.57.57,0,0,1-.08-.33.38.38,0,0,1-.44-.12.5.5,0,0,1-.07-.15c-.1-.37.34-.51.34-.51a.33.33,0,0,1-.29-.46.35.35,0,0,1,.17-.22,1,1,0,0,1,.61-.08l.07,0a6.13,6.13,0,0,0,1.31-1.07l.25-.3a.36.36,0,0,1-.41,0,.48.48,0,0,0,.38-.42.68.68,0,0,1-.58-.43,1,1,0,0,0,.45-.09,1.33,1.33,0,0,1-.51-.75c-.16-.53-.35-.7-.55-.76a.79.79,0,0,1,.38-.09,1.76,1.76,0,0,0-.79-1v-2a.55.55,0,0,1,.2.26s.18-.24.4-.08a.48.48,0,0,1,.15.23.87.87,0,0,1-.08.7,2.19,2.19,0,0,0,.16.32A1.6,1.6,0,0,0,58,24c.3.21.53.26.76.42a1.37,1.37,0,0,1,.2.17l.28.28a.5.5,0,0,1,0-.4,1,1,0,0,0,.17.08.75.75,0,0,0,.64,0,.45.45,0,0,0,.26-.44.28.28,0,0,0-.3-.2h-.28l-.18,0a.34.34,0,0,1,.25-.6H60c.25,0,.91,0,.84-.76a1.34,1.34,0,0,0,0-.15.6.6,0,0,0,0-.15.49.49,0,0,0-.52-.26l-.42,0a.64.64,0,0,1-.41-.13.37.37,0,0,1-.13-.24,1,1,0,0,1,0-.29,1.17,1.17,0,0,0,0-.51c0-.11.08-.17.29-.14s.49.16.72,0a.58.58,0,0,1,.45-.14l.25.05.29.1a.47.47,0,0,1,.44-.46c.42-.07.46.19,1,.22a2,2,0,0,0,.37,0,.76.76,0,0,1-.1.29c-.11.19-.36.37-.89.17a1,1,0,0,1,.65.83c0,.71.18.89.39,1a.26.26,0,0,1-.36.08s0,.66.48.83a.35.35,0,0,1-.52.08s-.08.72.36.91a.41.41,0,0,1-.54,0s.23.46-.43,1a1,1,0,0,0-.43.76.62.62,0,0,1-.4-.45.88.88,0,0,0-.09,1,.5.5,0,0,1-.48-.41.46.46,0,0,1-.21.44c-.25.14-.16.49-.16.49A.46.46,0,0,1,60,27s-.4-.1-.51.46a.41.41,0,0,1,.39-.21.84.84,0,0,0,.44.51l.1,0,.09,0a1.08,1.08,0,0,0,.26,0,.67.67,0,0,1-.06-.8.67.67,0,0,0,.83.27.86.86,0,0,1-.25-.47,1,1,0,0,1,.06-.41,1.25,1.25,0,0,0,.3.27s.11.2.29.48a7.11,7.11,0,0,0,.49.66,4.38,4.38,0,0,0,.84.79c.85.59,2.39.85,3,.24a1.16,1.16,0,0,0,0-1.57c-.6-.42-1.27-.39-1.48.11a.93.93,0,0,0-.06.42.75.75,0,0,1-.14-.14.86.86,0,0,1-.08-.14.62.62,0,0,1-.06-.35.88.88,0,0,1,.18-.41,1.41,1.41,0,0,1-.5-.32,1.27,1.27,0,0,1-.34-1.18,1.24,1.24,0,0,1,.85-1,1.49,1.49,0,0,1,.3-.08.82.82,0,0,1,.21-1c.47-.31,1.08.1,1.46-.15a.58.58,0,0,0,.2-.24,1.13,1.13,0,0,1,.08.42.63.63,0,0,1-.16.44.85.85,0,0,0,.44-.24,1.54,1.54,0,0,0,.41-1,2.41,2.41,0,0,1,.13.7,1.66,1.66,0,0,1-.38,1.16c-.57.66-1.45.38-1.94.32a.88.88,0,0,0-.72,1.56,1.64,1.64,0,0,0,.83.25,1.88,1.88,0,0,1,1,.28s-.06-.61.88-.34a.55.55,0,0,0-.32.17.6.6,0,0,0-.1.54c.14.65.49,1.62-.42,2.39a2.59,2.59,0,0,1-2.19.2,1,1,0,0,1,.42.78c0,.36.22.46.35.47a.39.39,0,0,0,.16,0,.73.73,0,0,1-.11.13.51.51,0,0,1-.47.15,1.85,1.85,0,0,1,.35.9.48.48,0,0,1,.16-.2.81.81,0,0,1,.41-.16h.23c.37,0,.49-.26.38-.49a.64.64,0,0,1,.32.2.32.32,0,0,1,0,.41.68.68,0,0,1,.34.09l.14.09.09.1c.26.38-.05,1.07.48,1.34l.12,0-.06.06a.32.32,0,0,1-.42,0,.84.84,0,0,0,.44.55l.12,0-.07,0a.44.44,0,0,1-.46,0,.68.68,0,0,0,.36.51l.12,0-.07,0a.43.43,0,0,1-.53,0,2.35,2.35,0,0,1-.5,1.07c-.4.45-.81.21-1.19.23a1.79,1.79,0,0,1-.69,0,.52.52,0,0,1-.32-.41.33.33,0,0,1,.39-.37.16.16,0,0,1,0-.25.51.51,0,0,1,.4-.08.74.74,0,0,1,.37.15,1.25,1.25,0,0,0,.36-1.25.54.54,0,0,0-.06-.15c-.12-.2-.33-.19-.54-.1a1.32,1.32,0,0,1-1,.18.62.62,0,0,1,.1.58.77.77,0,0,1-.25.33.83.83,0,0,0-.1-.54.79.79,0,0,0-.2-.22.59.59,0,0,1,0,.41.46.46,0,0,1-.22.22.27.27,0,0,0-.08-.38c-.14-.09-.37-.14-.33-.49,0,0-.25.25-.64-.08a.67.67,0,0,0,.28-.07.37.37,0,0,0,.14-.13c.13-.2-.12-.39-.26-.86a1.94,1.94,0,0,1,0-1.1l0-.17a.54.54,0,0,1-.53-.19.7.7,0,0,1-.12-.44.55.55,0,0,0-.06.65,2.44,2.44,0,0,0-.67.18c-.31.15-.39.27-.29.67a1.37,1.37,0,0,1-.11.88c-.08.29-.1.63.2.68h.09l-.08.06a.55.55,0,0,1-.63,0,.58.58,0,0,1-.12.55c-.26.3-1,.16-.8.78h-.05a.4.4,0,0,1-.16-.09.44.44,0,0,1-.12-.33.7.7,0,0,0-.32.39.45.45,0,0,0,0,.21.41.41,0,0,1-.14-.09.37.37,0,0,1-.11-.33.54.54,0,0,0-.26.31.68.68,0,0,0,0,.24.36.36,0,0,1-.21-.12.34.34,0,0,1-.07-.19,1.2,1.2,0,0,0-.43.21,1.35,1.35,0,0,1-1.08.21c-.25,0-.46,0-.64,0a.44.44,0,0,1-.37-.29c-.21-.45.41-.55.41-.55a.25.25,0,0,1,.18-.35.69.69,0,0,1,.31,0c.29,0,.53.23.78.13.62-.24.7-.6,1.16-1a4.08,4.08,0,0,0,.44-.39.87.87,0,0,0,.26-.52s-.25.27-.7-.07c0,0,.47-.09.49-.38a.57.57,0,0,1-.71-.17.72.72,0,0,0,.32-.09c.23-.14.06-.6.37-.73,0,0-.47-.1-.25-.65a.34.34,0,0,0,.23.16.46.46,0,0,0,.18,0c.46-.09.58-.71,1.17-.91a2,2,0,0,1,.59-.1,3,3,0,0,1,.49,0l-.18-.14a1.25,1.25,0,0,1,.41,0,.81.81,0,0,0-.47-.3c-.28-.1-.78-.38-.71-1.36a1.25,1.25,0,0,1-.77.84,2,2,0,0,0-.86.54,1.21,1.21,0,0,0-.17.29.3.3,0,0,1-.09-.15.5.5,0,0,1,0-.2,1.58,1.58,0,0,0-.57.39c-.3.38-.06.73-.29.9a.33.33,0,0,1-.25.06.55.55,0,0,1-.17-.06A.41.41,0,0,1,56.85,30.94Z"/><path class="cls-1" d="M61,20.88a.8.8,0,0,0,.34.58,1.15,1.15,0,0,1-.45,0c-.18-.07-.07-.2,0-.26s0-.17-.17-.07-.16-.07-.16-.07A.83.83,0,0,1,61,20.88Z"/><path class="cls-1" d="M60.5,21.37s.08.23.52.23c0,0-.37.16-.57,0S60.5,21.37,60.5,21.37Z"/><path class="cls-10" d="M38.9,36.35A15.14,15.14,0,0,0,36.29,36a14.41,14.41,0,0,0-2.63.33l0-.55c0,.2-.22.28-.63.33s-.67.17-.63.33.41.22.81.15a17.84,17.84,0,0,1,3-.41,25.42,25.42,0,0,1,3.13.42c.36,0,.64,0,.75-.18s-.12-.3-.65-.38-.68,0-.77-.34Z"/><path class="cls-10" d="M69.6,35.83l0-.16a5.34,5.34,0,0,0-.77-.2c-.42-.06-1.18-.18-1.22.14v.16c.08-.28.8-.18,1.21-.12a6.14,6.14,0,0,1,.73.18Z"/><path class="cls-10" d="M33.69,35.77a.27.27,0,0,0,0-.16c-.07-.26-.79-.2-1.22-.14a5.41,5.41,0,0,0-.73.17l0,.18a5.8,5.8,0,0,1,.7-.17C32.89,35.59,33.61,35.49,33.69,35.77Z"/><path class="cls-10" d="M62.62,35.51c0-.12-.11-.28-.47-.34-.83-.15-5.2.34-9.8.46l-.21.06a6.12,6.12,0,0,1-.73.15c4.92-.07,9.85-.65,10.73-.48h0c.36.07.47.22.47.34A.68.68,0,0,0,62.62,35.51Z"/><path class="cls-1" d="M67.65,35.79v0c0,.17.24.24.63.29s.67.17.64.33-.41.22-.81.15a17.81,17.81,0,0,0-3.05-.41,21.47,21.47,0,0,0-3.13.42c-.37,0-.64,0-.74-.15s.06-.34.68-.41.74-.13.75-.35l-.11.64A14.11,14.11,0,0,1,65.05,36a14.4,14.4,0,0,1,2.63.33Z"/><path class="cls-10" d="M32.57,37.92l-.33-1.29a.43.43,0,0,0,.26.1l.49,1.9a.4.4,0,0,1-.28-.17Z"/><path class="cls-10" d="M61.74,38.63l-.5-1.95a.57.57,0,0,1-.22-.07l.48,1.91a.35.35,0,0,0,.28.18A.21.21,0,0,1,61.74,38.63Z"/><path class="cls-1" d="M52.15,35.69l.2-.06a6.26,6.26,0,0,0,4.38-4.69h0a4,4,0,0,0,0-.61h0V20.89a25.17,25.17,0,0,0-2.89-.37c-.92-.07-2-.13-3.34-.13h0V6.89H71v41H50.54V38h0c5.3,0,9-.45,10.77-.36h0l-.26-1a.57.57,0,0,0,.22.07l.5,1.95a.27.27,0,0,0,.15.14,1.09,1.09,0,0,0,.57,0,14.42,14.42,0,0,1,2.59-.47,12.52,12.52,0,0,1,2.49.46c.42.09.71,0,.81-.11l.55-2.13c.16.07.25.15.21.23h0l-.29,1.15h0l.34.11.5-2,.05-.21-.12,0a6.14,6.14,0,0,0-.73-.18c-.41-.06-1.14-.17-1.21.12,0,0,0,0,0,0h0v0c0,.17.24.24.63.29s.67.17.64.33-.41.22-.82.15a17.79,17.79,0,0,0-3-.41,21.47,21.47,0,0,0-3.13.42c-.37,0-.64,0-.74-.15s.06-.34.68-.41.74-.13.75-.35h0c0-.12-.11-.28-.47-.34-.88-.16-5.81.41-10.73.48a6.12,6.12,0,0,0,.73-.15Z"/><path class="cls-10" d="M49,35.69l-.2-.06c-4.52-.12-8.4-.64-9.5-.46-.32.05-.46.16-.52.35a.37.37,0,0,0,0,.18c0-.2.2-.3.52-.35,1.17-.19,5.54.42,10.44.48A6.25,6.25,0,0,1,49,35.69Z"/><path class="cls-11" d="M61.27,20.7a.51.51,0,0,1,.52-.39,2,2,0,0,1,.5.13.59.59,0,0,0,.37,0c-.49,0-.53-.29-1-.22A.47.47,0,0,0,61.27,20.7Z"/><path class="cls-11" d="M66.23,27.3a1.16,1.16,0,0,1,0,1.57c-.6.6-2.14.35-3-.24a4.38,4.38,0,0,1-.84-.79A3,3,0,0,0,64,29.12a2.27,2.27,0,0,0,2.25-.06,1.1,1.1,0,0,0,.36-.88A1.05,1.05,0,0,0,66.23,27.3Z"/><path class="cls-11" d="M59.81,23.3H60c.25,0,.91,0,.84-.76a.73.73,0,0,1-.1.63.74.74,0,0,1-.64.17Z"/><path class="cls-11" d="M60.73,20.55a.58.58,0,0,0-.45.14c-.23.17-.51,0-.72,0s-.32,0-.29.14a1.17,1.17,0,0,1,0,.51,1,1,0,0,0,0,.29,1.1,1.1,0,0,1,.08-.38.41.41,0,0,0,0-.34c0-.08,0-.21.33-.13s.5.14.64,0A.53.53,0,0,1,60.73,20.55Z"/><path class="cls-11" d="M58.78,24.4c-.24-.16-.47-.2-.76-.42a1.6,1.6,0,0,1-.41-.47.86.86,0,0,0,.33.51,1.55,1.55,0,0,0,.5.26Z"/><path class="cls-11" d="M66.58,23.07c-.38.25-1-.16-1.46.15a.82.82,0,0,0-.21,1,.38.38,0,0,1,.16,0,.84.84,0,0,1-.08-.78.75.75,0,0,1,1-.29A.54.54,0,0,0,66.58,23.07Z"/><path class="cls-11" d="M64.61,24.35a1.24,1.24,0,0,0-.85,1,1.27,1.27,0,0,0,.34,1.18,1.57,1.57,0,0,1-.22-1.3A1.26,1.26,0,0,1,64.61,24.35Z"/><path class="cls-11" d="M64.48,27.55a.62.62,0,0,1-.06-.35.88.88,0,0,1,.18-.41l.1,0a.8.8,0,0,0-.18.28A1,1,0,0,0,64.48,27.55Z"/><path class="cls-11" d="M67.35,26.43c-.94-.27-.88.34-.88.34a1.88,1.88,0,0,0-1-.28,1.7,1.7,0,0,1,1.09.51s-.12-.37.12-.53A1.11,1.11,0,0,1,67.35,26.43Z"/><path class="cls-11" d="M66.19,31.31c.11.22,0,.5-.38.49,0,0,.32.07.43-.14A.33.33,0,0,0,66.19,31.31Z"/><path class="cls-11" d="M62.67,31.52a1.94,1.94,0,0,0,0,1.1c.14.47.38.66.26.86a.37.37,0,0,1-.14.13.39.39,0,0,0,.24-.16c.13-.21-.08-.42-.28-.92A1.87,1.87,0,0,1,62.67,31.52Z"/><path class="cls-11" d="M60.82,29.74a2,2,0,0,0-.59.1c-.59.2-.71.82-1.17.91a.46.46,0,0,1-.18,0,.47.47,0,0,0,.54-.13,3.22,3.22,0,0,1,.83-.72A1.65,1.65,0,0,1,60.82,29.74Z"/><path class="cls-11" d="M58.91,31.25c-.31.13-.14.59-.37.73a.72.72,0,0,1-.32.09s.38,0,.46-.15a2.56,2.56,0,0,0,.09-.45A.42.42,0,0,1,58.91,31.25Z"/><path class="cls-11" d="M58.88,33.19a4.08,4.08,0,0,1-.44.39c-.45.36-.53.72-1.16,1-.25.1-.49-.09-.78-.13l.48.22c.17.07.33.12.69-.14s.45-.52.77-.79A1.86,1.86,0,0,0,58.88,33.19Z"/><path class="cls-11" d="M58.15,27.91A6.13,6.13,0,0,1,56.84,29l-.07,0a1,1,0,0,0-.61.08.92.92,0,0,1,.7.06,2.29,2.29,0,0,0,.64-.41A4.51,4.51,0,0,0,58.15,27.91Z"/><path class="cls-11" d="M65.89,33.94a1.25,1.25,0,0,1-.36,1.25.74.74,0,0,0-.37-.15,1,1,0,0,1,.38.26,1.23,1.23,0,0,0,.34-.47A1.44,1.44,0,0,0,65.89,33.94Z"/><path class="cls-11" d="M67.55,22.5a1.54,1.54,0,0,1-.41,1,.85.85,0,0,1-.44.24,1.06,1.06,0,0,1-.18.16,1.13,1.13,0,0,0,.83-.56A1.62,1.62,0,0,0,67.55,22.5Z"/><path class="cls-11" d="M62.48,31.08a.53.53,0,0,1,.09-.65.85.85,0,0,0-.52-.49,1.24,1.24,0,0,1,.4.48A.46.46,0,0,0,62.48,31.08Z"/><path class="cls-12" d="M62.67,31.52a1.87,1.87,0,0,0,.09,1c.2.5.41.72.28.92a.39.39,0,0,1-.24.16.46.46,0,0,0,.37-.22c.1-.2.06-.38-.18-.87a1.51,1.51,0,0,1-.17-1,2,2,0,0,0-.06-.83,4.78,4.78,0,0,1-.05.66Z"/><path class="cls-12" d="M67.35,26.43a1.11,1.11,0,0,0-.66,0c-.24.15-.12.53-.12.53a1.7,1.7,0,0,0-1.09-.51,1.76,1.76,0,0,1,1.21.81s-.19-.54.05-.74A.91.91,0,0,1,67.35,26.43Z"/><path class="cls-12" d="M59.81,23.3l.28.05a.74.74,0,0,0,.64-.17.73.73,0,0,0,.1-.63,1.34,1.34,0,0,0,0-.15.94.94,0,0,1,0,.76.62.62,0,0,1-.74.27A2.16,2.16,0,0,1,59.81,23.3Z"/><path class="cls-12" d="M59.4,21.88a.37.37,0,0,1-.13-.24,1.1,1.1,0,0,1,.08-.38.41.41,0,0,0,0-.34c0-.08,0-.21.33-.13s.5.14.64,0a.53.53,0,0,1,.4-.22l.25.05s-.33-.06-.47.12-.21.35-.61.19-.49-.09-.44.06,0,.2-.08.41A.5.5,0,0,0,59.4,21.88Z"/><path class="cls-12" d="M61.27,20.7a.51.51,0,0,1,.52-.39,2,2,0,0,1,.5.13.59.59,0,0,0,.37,0,2,2,0,0,0,.37,0,1,1,0,0,1-.86.07A.65.65,0,0,0,61.27,20.7Z"/><path class="cls-12" d="M57.44,23.19a2.19,2.19,0,0,0,.16.32.86.86,0,0,0,.33.51,1.55,1.55,0,0,0,.5.26l.35.12a1.37,1.37,0,0,1,.2.17,1.59,1.59,0,0,0-.35-.14,1.83,1.83,0,0,1-.93-.47A1.11,1.11,0,0,1,57.44,23.19Z"/><path class="cls-12" d="M66.58,23.07a.54.54,0,0,1-.63.18.75.75,0,0,0-1,.29.84.84,0,0,0,.08.78l.16.08a.89.89,0,0,1-.08-.85c.2-.31.61-.19.87-.15A.46.46,0,0,0,66.58,23.07Z"/><path class="cls-12" d="M64.6,26.8a1.41,1.41,0,0,1-.5-.32,1.57,1.57,0,0,1-.22-1.3,1.26,1.26,0,0,1,.73-.83,1.49,1.49,0,0,1,.3-.08,1.33,1.33,0,0,0-.94,1A1.44,1.44,0,0,0,64.6,26.8Z"/><path class="cls-12" d="M64.7,26.84a.8.8,0,0,0-.18.28,1,1,0,0,0,0,.43.86.86,0,0,0,.08.14.75.75,0,0,1,0-.54.48.48,0,0,1,.25-.28Z"/><path class="cls-12" d="M66.19,31.31a.33.33,0,0,1,.05.35c-.11.21-.43.14-.43.14h-.23l.35.06a.31.31,0,0,0,.38-.2A.38.38,0,0,0,66.19,31.31Z"/><path class="cls-12" d="M66.23,27.3a1.05,1.05,0,0,1,.38.87,1.1,1.1,0,0,1-.36.88,2.27,2.27,0,0,1-2.25.06,3,3,0,0,1-1.58-1.27,7.11,7.11,0,0,1-.49-.66A3.69,3.69,0,0,0,63,28.69a3.3,3.3,0,0,0,3.17.58A1.21,1.21,0,0,0,66.7,28,1.17,1.17,0,0,0,66.23,27.3Z"/><path class="cls-12" d="M58.89,30.75a.47.47,0,0,0,.54-.13,3.22,3.22,0,0,1,.83-.72,1.65,1.65,0,0,1,.55-.16,3,3,0,0,1,.49,0,2,2,0,0,0-.9.16c-.41.18-.55.47-.8.71A.54.54,0,0,1,58.89,30.75Z"/><path class="cls-12" d="M58.91,31.25a.42.42,0,0,0-.14.21,2.56,2.56,0,0,1-.09.45c-.09.19-.46.15-.46.15s.35.08.52-.1a1,1,0,0,0,.12-.45.34.34,0,0,1,.13-.25Z"/><path class="cls-12" d="M58.44,32.61s.47-.09.49-.38l.08-.05S59.07,32.56,58.44,32.61Z"/><path class="cls-12" d="M59.14,32.67a.87.87,0,0,1-.26.52,1.86,1.86,0,0,1-.44.5c-.32.27-.41.52-.77.79s-.52.21-.69.14l-.48-.22s.36.21.52.32.42.14.81-.18.5-.66.83-.87A1,1,0,0,0,59.14,32.67Z"/><path class="cls-12" d="M58.15,27.91a4.51,4.51,0,0,1-.65.79,2.29,2.29,0,0,1-.64.41.92.92,0,0,0-.7-.06.65.65,0,0,1,.69.27,2.4,2.4,0,0,0,.71-.47A3.19,3.19,0,0,0,58.15,27.91Z"/><path class="cls-12" d="M65.89,33.94a1.44,1.44,0,0,1,0,.89,1.23,1.23,0,0,1-.34.47,1,1,0,0,0-.38-.26,1.27,1.27,0,0,1,.39.39,1.24,1.24,0,0,0,.4-.55A1.51,1.51,0,0,0,65.89,33.94Z"/><path class="cls-12" d="M67.55,22.5a1.62,1.62,0,0,1-.2.79,1.13,1.13,0,0,1-.83.56l-.21.13a1.12,1.12,0,0,0,1-.4A1.67,1.67,0,0,0,67.55,22.5Z"/><path class="cls-12" d="M62.05,29.94a.81.81,0,0,1,.68.51.53.53,0,0,0-.25.63.53.53,0,0,1,.09-.65A.85.85,0,0,0,62.05,29.94Z"/><path class="cls-12" d="M60.54,24.64a.41.41,0,0,1-.21.49.87.87,0,0,0-.38.32l.42-.21A.4.4,0,0,0,60.54,24.64Z"/><path class="cls-12" d="M60.12,25.67s.08.52-.34.6a.89.89,0,0,0-.54.25,2.23,2.23,0,0,1,.57-.1C60.18,26.44,60.27,26.07,60.12,25.67Z"/><path class="cls-12" d="M61.3,23.5a.43.43,0,0,1,.11.59,1.77,1.77,0,0,0-.18.55,3.78,3.78,0,0,0,.25-.39C61.66,23.94,61.63,23.61,61.3,23.5Z"/><path class="cls-12" d="M61.78,23.94s.31.48,0,.79a.8.8,0,0,0-.24.54,2.34,2.34,0,0,1,.4-.51C62.13,24.57,62.1,24.22,61.78,23.94Z"/><path class="cls-12" d="M61.06,24.7a.47.47,0,0,1-.19.61c-.32.22-.28.46-.28.46a1,1,0,0,1,.37-.35A.47.47,0,0,0,61.06,24.7Z"/><path class="cls-12" d="M61.79,22.51A.56.56,0,0,1,62,23a.86.86,0,0,0,.07.51,1.87,1.87,0,0,1,0-.46A.45.45,0,0,0,61.79,22.51Z"/><path class="cls-12" d="M61.88,21.6s.29,0,.26.3.11.34.11.34a1.18,1.18,0,0,1,0-.32C62.27,21.73,62.15,21.6,61.88,21.6Z"/><path class="cls-1" d="M41.24,37l-.35-1-.12-.07v0l.4,0v0L41,36l.22.66,0,.11v0L41.6,36,41.48,36v0l.34,0v0l-.12,0-.39.95Z"/><path class="cls-1" d="M41.84,37v0l.12,0v-.63l-.12-.06v0l.38,0v0l-.12,0v.63l.12.06v0Z"/><path class="cls-1" d="M43.1,36.83V37a1,1,0,0,1-.28,0,.42.42,0,0,1-.31-.13.43.43,0,0,1-.11-.3.36.36,0,0,1,.29-.38h.18a.82.82,0,0,1,.23,0v.18h0L43,36.33h-.09a.31.31,0,0,0-.26.07.33.33,0,0,0-.09.26c0,.22.1.34.3.35H43v-.18l-.12-.05v0l.35,0v0Z"/><path class="cls-1" d="M43.33,37.1v0l.12,0v-.64l-.12-.05v0l.38,0v0l-.12,0V37l.12.06v0Z"/><path class="cls-1" d="M43.88,37.14v0l.12,0v-.64l-.12-.05v0l.38,0v0l-.12,0v.67h.21l.08-.15h0l0,.23Z"/><path class="cls-1" d="M45,36.52l0,0,0,.06.07.19h-.21Zm.12.35.08.25-.1,0v0l.36,0v0l-.11-.06c-.09-.28-.18-.51-.27-.75H45c-.1.23-.2.46-.3.72l-.11,0v0l.29,0v0l-.1-.06.09-.24Z"/><path class="cls-1" d="M45.78,37.15v-.68h-.17l-.06.13h-.05V36.4l.71,0v.19h0l-.05-.13h-.18v.68l.13.06v0l-.39,0v0Z"/><path class="cls-1" d="M46.58,36.86v.35h.26l.07-.13h0l0,.21-.63,0v0l.12,0v-.67l-.12,0v0l.62,0v.18h0l-.06-.13h-.25v.31h.21l0-.1h0V37h0l0-.11Z"/><path class="cls-1" d="M47.84,36.54H48a.24.24,0,0,1,.22.1.39.39,0,0,1,.06.24.4.4,0,0,1-.09.28.23.23,0,0,1-.21.08h-.11Zm.12.79a.4.4,0,0,0,.29-.08.49.49,0,0,0,.16-.38.4.4,0,0,0-.1-.28c-.08-.09-.14-.11-.32-.11h-.4v0l.12,0v.67l-.12.05v0Z"/><path class="cls-1" d="M48.85,36.92v.36h.26l.07-.14h0l0,.21h-.63v0l.12-.05v-.68l-.12,0v0h.62v.18h0l-.06-.13h-.25v.31h.21l0-.11h0V37h0l0-.11Z"/><path class="cls-1" d="M49.81,36.55c.16,0,.24.12.24.36s-.09.38-.24.39-.24-.16-.24-.4S49.66,36.55,49.81,36.55Zm0,.83c.25,0,.4-.21.41-.5a.36.36,0,0,0-.39-.41c-.25,0-.4.15-.41.44S49.57,37.38,49.81,37.39Z"/><path class="cls-1" d="M51.41,37.28l.08-.16h0l0,.22a.82.82,0,0,1-.26,0,.36.36,0,0,1-.32-.12.47.47,0,0,1-.1-.32c0-.31.16-.44.46-.45l.23,0v.19h-.06l0-.14h-.09a.32.32,0,0,0-.25.09.39.39,0,0,0-.09.28c0,.24.1.37.3.38Z"/><path class="cls-1" d="M52.09,36.54c.16,0,.24.12.25.36s-.09.39-.24.39-.24-.16-.24-.4S51.93,36.55,52.09,36.54Zm0,.84c.25,0,.4-.22.41-.51a.36.36,0,0,0-.39-.4c-.25,0-.4.16-.41.46S51.84,37.38,52.08,37.38Z"/><path class="cls-1" d="M52.66,37.35v0l.12-.06v-.69l-.12,0v0h.24c.15.19.29.37.44.59v-.52l-.12,0v0h.31v0l-.12,0v.8h-.06c-.17-.27-.33-.49-.5-.71v.62l.12.05v0Z"/><path class="cls-1" d="M54,36.88v.34l.13.05v0H53.7v0l.12-.06v-.69l-.12,0v0l.59,0v.17h0l-.05-.12H54v.32h.18l0-.11h0V37h0l0-.11Z"/><path class="cls-1" d="M54.44,37.3v0l.12-.06v-.68l-.12,0v0h.38v0l-.12,0v.68l.12.05v0Z"/><path class="cls-1" d="M55.25,36.47h.13a.22.22,0,0,1,.22.09.37.37,0,0,1,.06.23.42.42,0,0,1-.09.28.24.24,0,0,1-.21.1h-.11Zm.12.78a.44.44,0,0,0,.29-.1.51.51,0,0,0,.16-.38.38.38,0,0,0-.1-.28c-.08-.08-.14-.1-.32-.09l-.4,0v0l.12,0v.68l-.12.06v0Z"/><path class="cls-1" d="M56.26,36.78v.35l.26,0,.07-.14h0l0,.2-.62,0v0l.12-.06c0-.24,0-.45,0-.67l-.12,0v0l.62,0v.18h0l-.06-.12h-.25v.31h.21l0-.11h0v.27h0l0-.11Z"/><path class="cls-1" d="M56.82,37.17v0l.12-.06V36.4l-.12,0v0h.24l.44.55v-.5l-.12,0v0l.31,0v0l-.12.05v.75h-.06c-.17-.24-.33-.44-.5-.65v.59l.12,0v0Z"/><path class="cls-1" d="M58.09,37v-.67h-.17l-.06.14H57.8v-.19l.71,0v.19h0l-.05-.13h-.18V37l.13,0v0l-.39,0v0Z"/><path class="cls-1" d="M58.89,36.61c0,.11,0,.22,0,.33l.26,0,.07-.13h0l0,.19-.62.05v0l.12-.06v-.64l-.12,0v0l.62,0v.18h0l-.06-.12-.26,0v.31l.21,0,0-.1h0v.26h0l0-.1Z"/><path class="cls-1" d="M59.49,36.93v-.19h0l.06.14h.11c.11,0,.16-.06.16-.14s0-.08-.1-.13l-.12-.07c-.11-.06-.14-.1-.15-.19s.1-.22.26-.24H60v.18h0l-.06-.13h-.09c-.11,0-.16,0-.16.12s0,.06.1.11l.13.07c.14.07.16.11.16.21s-.11.23-.28.25l-.23,0Z"/><path class="cls-5" d="M50.5,19.3a10,10,0,0,0-4.25.65l-.12.07s0-.17-.13-.55l-.34-.33.17-.48c-.08-.3-.14-.51-.22-.76a1.17,1.17,0,0,0-.69-.8h0L45,17c-.35-.36-.71-.64-.71-.64a.55.55,0,0,0,.44,0c.2-.09.42,0,.46.16a.32.32,0,0,1,.2-.06.34.34,0,0,1,.31.19.54.54,0,0,1-.12.7c.13.11.41.14.48-.09a1.37,1.37,0,0,0,0-.56l.05,0a1.14,1.14,0,0,0,.56.4.41.41,0,0,0,.48-.36h0c-.47.06-.69-.05-.84-.34s-.09-.56.21-.63h0a.42.42,0,0,1,0-.66.75.75,0,0,0,.16-.64,1.16,1.16,0,0,0,.58.36c.41.1.54.36.41.56.31,0,.52.2.51.53a.76.76,0,0,1-.58.71.63.63,0,0,0,.19.17c.6.35.87-.4.95-.67h.08c.15.21.57.73,1,.58a.6.6,0,0,0,.35-.3.93.93,0,0,1-.71-.35c-.31-.43-.13-1,.27-1a.49.49,0,0,1,.22-.79,1.29,1.29,0,0,0,.56-.56.65.65,0,0,0,.48.58c.44.15.56.59.17.79a.53.53,0,0,1,.44.79,1.06,1.06,0,0,1-.82.55.79.79,0,0,0,.2.22.58.58,0,0,0,.74-.1,1.53,1.53,0,0,0,.31-.37l.1,0c.1.28.36.86.82.61a1.08,1.08,0,0,0,.2-.18.75.75,0,0,1-.41-.34l0-.07c-.17-.37.09-.87.5-.8-.13-.14-.1-.46.29-.5a1.28,1.28,0,0,0,.65-.28.72.72,0,0,0,.18.51.37.37,0,0,1,0,.66c.38.16.28.84-.42.92l-.22,0c0,.37.29.49.51.43a1.41,1.41,0,0,0,.48-.31l.07,0a1,1,0,0,0,.08.46.36.36,0,0,0,.58.11l-.09,0c-.4-.3,0-1.12.37-.82a.24.24,0,0,1,.27-.19.46.46,0,0,1,.19,0,.72.72,0,0,0,.49.05,3.29,3.29,0,0,0-.62.7h0l.1.06a.86.86,0,0,0-.45.43,7.83,7.83,0,0,0-.42,1l.08.35-.24.29c-.07.27-.07.54-.13.87L54.77,20h0a8.89,8.89,0,0,0-4.26-.73"/><path class="cls-7" d="M52.17,16.12c.1.28.36.86.82.61a1.08,1.08,0,0,0,.2-.18s-.14.36-.46.37C52.17,16.92,52.17,16.12,52.17,16.12Z"/><path class="cls-8" d="M48.81,16.1c.15.21.57.73,1,.58a.6.6,0,0,0,.35-.3s-.1.47-.53.47A.86.86,0,0,1,48.81,16.1Z"/><path class="cls-7" d="M55.31,17.32c-.4-.3,0-1.12.37-.82a.24.24,0,0,1,.27-.19.46.46,0,0,1,.19,0,.72.72,0,0,0,.49.05.55.55,0,0,1-.42.07c-.15,0-.37-.08-.46.22C55.5,16.36,55.19,17,55.31,17.32Z"/><path class="cls-8" d="M50.54,13.65a1.29,1.29,0,0,1-.56.56.49.49,0,0,0-.22.79c-.4,0-.59.6-.27,1a.93.93,0,0,0,.71.35,1.12,1.12,0,0,0-.3-1.15,2.53,2.53,0,0,1,.5.14,8.49,8.49,0,0,0,.15-1.52A.62.62,0,0,1,50.54,13.65Z"/><path class="cls-7" d="M46.53,18.9,46,18.74l0-.18-.06-.19a16.83,16.83,0,0,1,4.59-.79,15.74,15.74,0,0,1,4.57.6,12,12,0,0,0-4.55-.8,16.21,16.21,0,0,0-4.69.72l0-.09a1.7,1.7,0,0,0-.39-.73.52.52,0,0,0-.48-.17,1.17,1.17,0,0,1,.69.8c.08.25.14.46.22.76l-.17.48.34.33c.09.38.13.55.13.55l.12-.07a3,3,0,0,0-.06-.42c.18-.23.38-.46.57-.68Z"/><path class="cls-8" d="M48.82,18.48l-.16,0v0c0,.22-.16.4-.43.45a.46.46,0,0,1-.55-.29.35.35,0,0,1,0-.08l-.12,0a.44.44,0,0,0,0,.1c0,.28.35.43.7.38S48.87,18.76,48.82,18.48Z"/><path class="cls-7" d="M51.24,18.33h0c-.25.13-.46.27-.71.41l-.74-.39h0l-.26,0c.1,0,.69.38,1,.58.34-.21.9-.55,1-.59Z"/><path class="cls-8" d="M52.41,18.5c0,.27.21.49.54.55s.63-.1.66-.38c0,0,0,0,0-.05a.54.54,0,0,0-.14-.13.36.36,0,0,1,0,.13.43.43,0,0,1-.52.3.46.46,0,0,1-.43-.45l0-.05Z"/><path class="cls-7" d="M55.4,17.37a.84.84,0,0,0,.21-.64.4.4,0,0,1,.14.29,2.52,2.52,0,0,0-.3.37.43.43,0,0,1-.65.1c-.24-.2-.05-.68-.05-.68a1,1,0,0,0,.08.46A.36.36,0,0,0,55.4,17.37Z"/><path class="cls-8" d="M47.17,16.71a.41.41,0,0,1-.48.36,1.14,1.14,0,0,1-.56-.4.72.72,0,0,0,.58.57C47.1,17.29,47.16,16.87,47.17,16.71Z"/><path class="cls-8" d="M46.5,15.08a.42.42,0,0,0,0,.66c-.3.07-.31.43-.21.63s.37.41.84.34c0,0,.08-.73-.44-.83a.45.45,0,0,1,.37,0,6.13,6.13,0,0,0-.37-1.3.44.44,0,0,1-.06-.13A.75.75,0,0,1,46.5,15.08Z"/><path class="cls-7" d="M54.64,19.38l-.2-.31a2.28,2.28,0,0,0-.31-.43l.32.1.26.4Z"/><path class="cls-7" d="M53.2,16.55a1,1,0,0,0,.07-.94.8.8,0,0,1,.36.24c.19-.53.56-1.29.56-1.29a1.28,1.28,0,0,1-.65.28c-.38,0-.42.36-.29.5-.41-.07-.67.43-.5.8l0,.07A.75.75,0,0,0,53.2,16.55Z"/><path class="cls-7" d="M44.38,16.47l.74.52A.31.31,0,0,0,45,17c-.35-.36-.71-.64-.71-.64Z"/><path class="cls-13" d="M37,25.5c0-.31-.26-1-1.38-.83-1.28.21-2-.26-2-1.42A1.34,1.34,0,0,0,35,24.5c.84,0,1.47-.28,1.87.37A2.36,2.36,0,0,1,37,25.5Z"/><path class="cls-13" d="M36.36,23.73a1.77,1.77,0,0,1-.06.53,2.62,2.62,0,0,0-.43,0,.67.67,0,0,0,.33-.2A1.39,1.39,0,0,0,36.36,23.73Z"/><path class="cls-13" d="M35.7,24.14a.43.43,0,0,0-.1-.17,1.13,1.13,0,0,0-.23-.17.94.94,0,0,0-.42-.1l-.43,0a.64.64,0,0,1-.19-.47.41.41,0,0,0,.41.3c.35,0,.63,0,.81.19A.46.46,0,0,1,35.7,24.14Z"/><path class="cls-13" d="M34.79,28.69a1.26,1.26,0,0,1,.07-1.31,1.11,1.11,0,0,1,1.42-.22c.34.21.21.67.21.67.58-.63.08-1.06.08-1.06a1.27,1.27,0,0,0,.6-2,1.56,1.56,0,0,1,0,1.29,1.2,1.2,0,0,1-.95.62.3.3,0,0,1,.14.39s-.08-.27-.6-.29a1.15,1.15,0,0,0-1.28.76A1.31,1.31,0,0,0,34.79,28.69Z"/><path class="cls-13" d="M34.74,26.76c-.06-.46-.47-.41-.62-.41,0,0,.27,0,.36.2a.79.79,0,0,1,0,.44A.86.86,0,0,1,34.74,26.76Z"/><path class="cls-13" d="M36.92,29.69a3.18,3.18,0,0,1-1.76.05,1.42,1.42,0,0,1-1-1.07,1.67,1.67,0,0,0,1.1.9,3.2,3.2,0,0,0,2.16-.25,1.49,1.49,0,0,1-.2.2A1.47,1.47,0,0,1,36.92,29.69Z"/><path class="cls-13" d="M36.41,31.26a.61.61,0,0,1-.6-.27.61.61,0,0,0,.92-.13S36.67,31.22,36.41,31.26Z"/><path class="cls-13" d="M35.28,31.77a.33.33,0,0,1-.29-.48.31.31,0,0,0-.17.32C34.86,31.84,35.28,31.77,35.28,31.77Z"/><path class="cls-13" d="M34.13,33.51l-.06.08-.07.05a.35.35,0,0,1-.46-.09.49.49,0,0,0,.66-.21A.63.63,0,0,1,34.13,33.51Z"/><path class="cls-13" d="M34.13,34.16l-.07.07-.07,0s-.34.16-.54,0a.69.69,0,0,0,.78-.33A.59.59,0,0,1,34.13,34.16Z"/><path class="cls-13" d="M34.1,34.85a.45.45,0,0,1-.6,0s.47.18.77-.4C34.27,34.42,34.27,34.75,34.1,34.85Z"/><path class="cls-13" d="M36.36,35.16c.09.08,0,.22,0,.22s.54,0,.33.51-.58.33-.9.27-1.09.18-1.44-.43a1.11,1.11,0,0,0,.92.26.41.41,0,0,0-.09-.54s.45,0,.45.44c0,0,.46.25.74.1s.27-.53-.19-.61a.37.37,0,0,0,.13-.13A.27.27,0,0,0,36.36,35.16Z"/><path class="cls-13" d="M45.2,34.56a.16.16,0,0,1,0,.21.4.4,0,0,1,.39.55c-.12.4-.56.26-.74.24-.41,0-.8.14-1.2-.1a5,5,0,0,0-.61-.31.36.36,0,0,1-.27.33s0-.44-.28-.58a.38.38,0,0,1-.26.44s.14-.35-.34-.63a.36.36,0,0,1-.32.46.29.29,0,0,0,0-.34c-.12-.19-.28-.2-.59-.31a.53.53,0,0,1-.33-.69.61.61,0,0,1-.52,0,.62.62,0,0,0,.61-.48s-.15.67.37.8.54.21.62.43a.37.37,0,0,0,0-.43s.51.21.47.54a.38.38,0,0,0,.16-.37s.47.33.41.66a.46.46,0,0,0,.18-.39.93.93,0,0,1,.65.43c.18.28.52.41.69.19s-.08-.39-.08-.39a.46.46,0,0,1,.47.41s.5.14.61-.11-.14-.41-.47-.44a.59.59,0,0,0,.24-.07A.54.54,0,0,0,45.2,34.56Z"/><path class="cls-13" d="M42.9,33.71l-.6-.55a.88.88,0,0,1-.25-.48.59.59,0,0,0,.81-.23.52.52,0,0,1-.61-.29A.58.58,0,0,0,43,32s-.4-.06-.42-.37a.52.52,0,0,0-.3-.49.43.43,0,0,0,.25-.63.44.44,0,0,1-.31.49.63.63,0,0,1-.58-.14.5.5,0,0,0,.54.31.4.4,0,0,1,.23.4c0,.38.16.47.16.47a.65.65,0,0,1-.6-.48s0,.34.16.45a.45.45,0,0,0,.27.52s-.47.14-.63-.43c0,0-.44.5,0,.84.3.22.5.33.67.44Z"/><path class="cls-13" d="M39,21a.74.74,0,0,1-.78-.28s.15.23.6.1.71,0,.81.15A1.17,1.17,0,0,0,39,21Z"/><path class="cls-13" d="M40.39,22.8v-.17c-.06-.55.25-.71.82-.62s.72-.3.73-.54-.07-.36,0-.48a.4.4,0,0,1-.31,0,.61.61,0,0,1,0,.74.55.55,0,0,0-.54.08s-.66-.14-.82.21a1.16,1.16,0,0,0,.14,1.2.82.82,0,0,0,.87.06A.66.66,0,0,1,40.39,22.8Z"/><path class="cls-13" d="M38.08,22.94a.7.7,0,0,1-.61-.23.92.92,0,0,0,1-.15S38.38,22.93,38.08,22.94Z"/><path class="cls-13" d="M38.09,23.87a.65.65,0,0,1-.6-.17.83.83,0,0,0,1-.33A.56.56,0,0,1,38.09,23.87Z"/><path class="cls-13" d="M38.54,24.67s-.24.35-1,.06a1,1,0,0,0,1.08-.5A.84.84,0,0,1,38.54,24.67Z"/><path class="cls-13" d="M38.68,25.6a.77.77,0,0,1-.76-.19.88.88,0,0,0,1.13-.32S39,25.5,38.68,25.6Z"/><path class="cls-13" d="M39.34,26.66a.51.51,0,0,1-.58,0,1,1,0,0,0,.84-.6S39.58,26.51,39.34,26.66Z"/><path class="cls-13" d="M44,22.18c.11,0,.17.13.17.13a1,1,0,0,0,0,.48.32.32,0,0,1-.1-.32A.27.27,0,0,0,44,22.18Z"/><path class="cls-13" d="M45.2,29.28c0,.13,0,.29-.3.41l-.33-.07a2.55,2.55,0,0,1,.37-.12.28.28,0,0,0,.23-.21Z"/><path class="cls-13" d="M39,23.31a.52.52,0,0,0,0-.39c-.08-.16-.27-.23-.15-.55a.44.44,0,0,0-.07.52A.68.68,0,0,1,39,23.31Z"/><path class="cls-13" d="M39.73,24.53s0-.25-.11-.36-.35-.13-.38-.51a.41.41,0,0,0,.08.45C39.52,24.29,39.61,24.3,39.73,24.53Z"/><path class="cls-13" d="M40.16,25.83a.44.44,0,0,0-.22-.46c-.28-.14-.51-.23-.5-.72a.75.75,0,0,0,0,.55c.13.25.31.2.49.33A.68.68,0,0,1,40.16,25.83Z"/><path class="cls-13" d="M41.91,26.45s-.34.16-.55-.27a.59.59,0,0,0-.64-.39.61.61,0,0,1,.39.25c.14.21.12.31.3.43A.44.44,0,0,0,41.91,26.45Z"/><path class="cls-13" d="M40.58,26.92a.38.38,0,0,0-.2-.36c-.23-.13-.51-.11-.43-.53,0,0-.2.38.08.55s.27.06.4.14A.85.85,0,0,1,40.58,26.92Z"/><path class="cls-13" d="M40.16,24.57a.91.91,0,0,0,.24.32,1,1,0,0,0,.52.19s-.42.17-.64-.08A.4.4,0,0,1,40.16,24.57Z"/><path class="cls-13" d="M59.63,21.23A.71.71,0,0,1,60,21s-.25-.07-.34,0A.14.14,0,0,0,59.63,21.23Z"/><path class="cls-13" d="M58.91,31.25s-.47-.1-.25-.65c0,0,0,.68.7.41A.4.4,0,0,1,58.91,31.25Z"/><path class="cls-13" d="M58.93,32.23a.57.57,0,0,1-.71-.17.76.76,0,0,0,.65,0,.63.63,0,0,0,.31-.44A.65.65,0,0,1,58.93,32.23Z"/><path class="cls-13" d="M56,29.26a.33.33,0,0,0,.29.46,1.09,1.09,0,0,1,.3-.06,1.15,1.15,0,0,1-.39-.1A.39.39,0,0,1,56,29.26Z"/><path class="cls-13" d="M55.94,30.22a.5.5,0,0,0,.07.15.38.38,0,0,0,.44.12A.66.66,0,0,0,56.7,30s-.17.43-.47.38S55.94,30.22,55.94,30.22Z"/><path class="cls-13" d="M58.24,26.69a1.33,1.33,0,0,1-.51-.75c-.16-.53-.35-.7-.55-.76a.79.79,0,0,1,.38-.09,1.76,1.76,0,0,0-.79-1v-.24a.69.69,0,0,0,.26-.14.32.32,0,0,1-.08.37s.75.12,1,1.29a.7.7,0,0,0-.32-.12s.17.07.29.49.29.69.64.72A.77.77,0,0,1,58.24,26.69Z"/><path class="cls-13" d="M63,20.44a.76.76,0,0,1-.1.29c-.11.19-.36.37-.89.17a1,1,0,0,1,.65.83c0,.71.18.89.39,1a.26.26,0,0,1-.36.08s0,.66.48.83a.35.35,0,0,1-.52.08s-.08.72.36.91a.41.41,0,0,1-.54,0s.23.46-.43,1a1,1,0,0,0-.43.76.62.62,0,0,1-.4-.45.88.88,0,0,0-.09,1,.5.5,0,0,1-.48-.41.46.46,0,0,1-.21.44c-.25.14-.16.49-.16.49A.46.46,0,0,1,60,27s-.4-.1-.51.46a.52.52,0,0,1,0-.28.28.28,0,0,1,.1-.16c-.62-.19-1.15.56-1.15.56a.36.36,0,0,1-.41,0,.48.48,0,0,0,.38-.42.68.68,0,0,1-.58-.43.67.67,0,0,0,.88,0,.48.48,0,0,1-.05.25.75.75,0,0,1,.69-.22.79.79,0,0,0,.83-.13s-.1.3.1.43a.46.46,0,0,1,.1-.27.53.53,0,0,0,.19-.58.37.37,0,0,1,.22.19s0-.76.56-.89c0,0-.09.28.12.41,0,0-.09-.29.29-.52a.85.85,0,0,0,.41-1.22.49.49,0,0,0,.49.17s-.38-.25-.31-1a.32.32,0,0,0,.44.12s-.36-.14-.38-1a.31.31,0,0,0,.34.09,1.43,1.43,0,0,1-.31-.89.9.9,0,0,0-.82-.8s.18-.28.67-.13A.62.62,0,0,0,63,20.44Z"/><path class="cls-13" d="M57.37,22.25c-.21-.16-.4.08-.4.08a1.12,1.12,0,0,1,0,.49s.19-.08.13-.36S57.37,22.25,57.37,22.25Z"/><path class="cls-13" d="M66.7,23.69a.63.63,0,0,0,.16-.44,1.13,1.13,0,0,0-.08-.42s.16,1-1.22,1.11c0,0,0-.31.41-.31a.42.42,0,0,0-.51,0c-.23.21-.15.61,0,.9a1.2,1.2,0,0,0-1.11.3.8.8,0,0,0-.21.9.84.84,0,0,0,.49.49.88.88,0,0,1,.72-1.56c.49.06,1.37.34,1.94-.32a1.66,1.66,0,0,0,.38-1.16,2.41,2.41,0,0,0-.13-.7,1.64,1.64,0,0,1-.36,1.38,1.52,1.52,0,0,1-1.59.28,1.67,1.67,0,0,0,.7-.17l.21-.13A1.06,1.06,0,0,0,66.7,23.69Z"/><path class="cls-13" d="M66.19,31.31a.64.64,0,0,1,.32.2.32.32,0,0,1,0,.41s0,.09-.26.09a.37.37,0,0,0,.25-.31C66.49,31.45,66.19,31.31,66.19,31.31Z"/><path class="cls-13" d="M64.67,31.26a.51.51,0,0,0,.47-.15.73.73,0,0,0,.11-.13.39.39,0,0,1-.16,0c-.13,0-.31-.11-.35-.47a1,1,0,0,0-.42-.78,2.59,2.59,0,0,0,2.19-.2c.91-.77.55-1.74.42-2.39a.6.6,0,0,1,.1-.54.54.54,0,0,1,.32-.17s-.73-.06-.55.74.4,1.53-.36,2.16a2.77,2.77,0,0,1-2.75,0,2,2,0,0,1,.77.82c.16.46-.19.83.35,1a.48.48,0,0,1-.53-.1,1.41,1.41,0,0,1,.44,1.19.94.94,0,0,0-.37-.68,1.14,1.14,0,0,1,.19.83.6.6,0,0,0-.24-.4s.23.25.09.94a1.66,1.66,0,0,0,.47-.32.68.68,0,0,0,.17-.36A1.85,1.85,0,0,0,64.67,31.26Z"/><path class="cls-13" d="M56.72,30.94a.28.28,0,0,1-.2-.12.31.31,0,0,0,.38,0,.78.78,0,0,0,.2-.65.44.44,0,0,1,.08.35.3.3,0,0,0,.36-.15c.12-.27-.13-.43.1-.79a2.16,2.16,0,0,1,1-.59,1.08,1.08,0,0,0-.15.34,1.58,1.58,0,0,0-.57.39c-.3.38-.06.73-.29.9a.33.33,0,0,1-.25.06.55.55,0,0,1-.17-.06.41.41,0,0,1-.34.36h-.13Z"/><path class="cls-13" d="M64.37,35.74a.52.52,0,0,0,.32.41,1.79,1.79,0,0,0,.69,0c.38,0,.8.21,1.19-.23a2.35,2.35,0,0,0,.5-1.07.43.43,0,0,0,.53,0l.07,0-.12,0a.68.68,0,0,1-.36-.51.44.44,0,0,0,.46,0l.07,0-.12,0a.84.84,0,0,1-.44-.55.32.32,0,0,0,.42,0l.06-.06-.12,0c-.53-.27-.22-1-.48-1.34l-.09-.1s.18.13.07.73.19.72.19.72a.41.41,0,0,1-.36-.21,1.13,1.13,0,0,0,.36.68.41.41,0,0,1-.43-.11,1,1,0,0,0,.39.69.41.41,0,0,1-.46-.11,3.55,3.55,0,0,1-.19,1.11.57.57,0,0,1-.69.36c-.21-.33,0-.49,0-.49-.34,0-.42.48-.42.48-.24,0-.71,0-.82-.24s.36-.29.36-.29a.39.39,0,0,1-.19-.29.16.16,0,0,0,0,.25A.33.33,0,0,0,64.37,35.74Z"/><path class="cls-13" d="M64.75,27.41c.2-.5.88-.53,1.48-.11a1.08,1.08,0,0,0-1.31-.38c-.46.24-.22.91-.22.91A.94.94,0,0,1,64.75,27.41Z"/><path class="cls-13" d="M59.14,32.67s-.25.27-.7-.07a.7.7,0,0,0,.64-.06.73.73,0,0,0,.27-.5S59.39,32.49,59.14,32.67Z"/><path class="cls-13" d="M63.15,33.76c0,.36.19.41.33.49a.27.27,0,0,1,.08.38.46.46,0,0,0,.22-.22.59.59,0,0,0,0-.41.79.79,0,0,1,.2.22.83.83,0,0,1,.1.54.77.77,0,0,0,.25-.33.62.62,0,0,0-.1-.58,1.32,1.32,0,0,0,1-.18c.21-.09.43-.1.54.1a.54.54,0,0,1,.06.15s-.09-.58-.46-.46a2.88,2.88,0,0,1-.79.26,2.84,2.84,0,0,1-.8-.1c.21.21.18.35.18.35a.3.3,0,0,0-.26-.16.22.22,0,0,1-.23-.24.37.37,0,0,0-.09.43c-.29-.07-.18-.49-.18-.49-.26.41-.77.15-.77.15C62.9,34,63.15,33.76,63.15,33.76Z"/><path class="cls-13" d="M60.54,24.64a.39.39,0,0,1-.29.38.49.49,0,0,0-.31.43.87.87,0,0,1,.38-.32A.41.41,0,0,0,60.54,24.64Z"/><path class="cls-13" d="M60.87,25.31a.47.47,0,0,0,.19-.61s.07.25-.27.49a.48.48,0,0,0-.19.58S60.55,25.53,60.87,25.31Z"/><path class="cls-13" d="M59.7,26.13a.71.71,0,0,0-.46.38.89.89,0,0,1,.54-.25c.42-.08.34-.6.34-.6A.64.64,0,0,1,59.7,26.13Z"/><path class="cls-13" d="M61.24,24.63a1.77,1.77,0,0,1,.18-.55.43.43,0,0,0-.11-.59.54.54,0,0,1,0,.45A.74.74,0,0,0,61.24,24.63Z"/><path class="cls-13" d="M61.51,25.27a.8.8,0,0,1,.24-.54c.33-.3,0-.79,0-.79a.66.66,0,0,1-.16.62A.59.59,0,0,0,61.51,25.27Z"/><path class="cls-13" d="M61.79,22.51a.5.5,0,0,1,.07.46.48.48,0,0,0,.21.57A.86.86,0,0,1,62,23,.56.56,0,0,0,61.79,22.51Z"/><path class="cls-13" d="M61.88,21.6a.29.29,0,0,1,.15.33.29.29,0,0,0,.22.32s-.13-.08-.11-.34S61.88,21.6,61.88,21.6Z"/><path class="cls-13" d="M58.85,25.47a.52.52,0,0,0,.68-.09c-.85.09-.85-.6-.85-.6S58.48,25.27,58.85,25.47Z"/><path class="cls-13" d="M59,26.06s-.5.1-.61-.33a.32.32,0,0,0,.16.43C58.73,26.25,59,26.06,59,26.06Z"/><path class="cls-13" d="M59.26,24.85a.5.5,0,0,1,0-.4.62.62,0,0,0,.48.57A.43.43,0,0,1,59.26,24.85Z"/><path class="cls-13" d="M60.31,24.07a.28.28,0,0,0-.3-.2h-.28l-.18,0s.06-.14.38-.14A.35.35,0,0,1,60.31,24.07Z"/><path class="cls-13" d="M39,30.82a.56.56,0,0,0-.13-.54,1.4,1.4,0,0,1,.49-.84,1,1,0,0,0-.94.59c-.22.39,0,1.14,0,1.14A.46.46,0,0,0,39,30.82Zm2.58-7.5c.18.07.31.26,0,.57,0,0-.48-.11-.65,0s-.1.48.24.61a.89.89,0,0,0,.71-.09.49.49,0,0,1,0,.38.89.89,0,0,1-.07.13.4.4,0,0,1,.47.17c.19.28.44.3.62.17a.52.52,0,0,1-.35.58A.4.4,0,0,0,43,26s.11-.65.59-.73a.44.44,0,0,0-.5,0,1.45,1.45,0,0,1,1.06-1.14.65.65,0,0,1,0-.39.41.41,0,0,0,.21.15v.29a1.93,1.93,0,0,0-.75,1,.5.5,0,0,1,.4.1.81.81,0,0,0-.43.45c-.14.34-.27.82-.63,1,0,0,.1.17.4,0,0,0-.1.45-.45.46a.33.33,0,0,0,.26.3.43.43,0,0,1-.36.14,1,1,0,0,0-.9-.32.4.4,0,0,1,0,.52s0-.31-.29-.23-.51-.12-.51-.12a1.06,1.06,0,0,0,.7,1.07c.64.29.66.64.66.64a.36.36,0,0,0,.14-.35,2.87,2.87,0,0,1,.89.62c.33.39,0,.71.23.87a.23.23,0,0,0,.23,0,.34.34,0,0,1,.08-.24s0,.49.33.58a.25.25,0,0,0,.33-.2s-.19-.11-.23-.52c0,0,.18.33.47.3s.27-.26.27-.26a.38.38,0,0,1-.48.5s.08.46-.32.47-.4-.31-.43-.42-.29.22-.47,0,.15-.5-.23-.82a2,2,0,0,0-.59-.39.32.32,0,0,1-.09.37,1,1,0,0,0-.52-.61,3,3,0,0,1-.77-.42,2.15,2.15,0,0,1-1,.61,2.2,2.2,0,0,0-1,.5l.39,0a1.88,1.88,0,0,0-.69.76,1.47,1.47,0,0,1,.64-.29,1.9,1.9,0,0,0-.39.54,1.65,1.65,0,0,1,.68-.37,2.47,2.47,0,0,0-.43.49,1.89,1.89,0,0,1,.66-.35,1.65,1.65,0,0,0-.45.53,2.83,2.83,0,0,1,.7-.37,1.49,1.49,0,0,0-.39.54,1.12,1.12,0,0,1,.6-.29,5.47,5.47,0,0,0-.31.54,3.06,3.06,0,0,0-.21.53c0-.24-.18-.66-1.69-.68a3,3,0,0,1,.06,1.06c-.08.7-.41.8-.32,1a.55.55,0,0,0,.45.31.51.51,0,0,1-.64.06.31.31,0,0,1-.17.37.61.61,0,0,0-.24.5s-.33-.15-.2-.64a1,1,0,0,0-.31.78.75.75,0,0,1-.27-.49.65.65,0,0,1,.14-.4,1.37,1.37,0,0,1-.93-.11c-.38-.24-.74-.33-.84.58a2.08,2.08,0,0,1,0-.53,2.92,2.92,0,0,0-.16.44,2.38,2.38,0,0,1,.07-.6,1.33,1.33,0,0,0-.21.48,1.84,1.84,0,0,1,.16-.79c.16-.25.22-.36.59,0a1.23,1.23,0,0,0,1.54.18.4.4,0,0,1,0,.39.44.44,0,0,0,.29-.45.36.36,0,0,1,.12.46.41.41,0,0,0,.21-.53.28.28,0,0,0,.29.08.51.51,0,0,1-.1-.6c.18-.33.35-.6.15-1.68a1.56,1.56,0,0,1,.69-1.67,1.28,1.28,0,0,0,.57-1,1.29,1.29,0,0,1,.1.6s.15-.48.23-.82a1.68,1.68,0,0,1,0,.71,3.65,3.65,0,0,0,.39-1,1.64,1.64,0,0,1-.07.87,1.43,1.43,0,0,0,.68-.71.39.39,0,0,1-.35,0s.14-.05.17-.17a.17.17,0,0,0-.1-.22c-.14-.07-.12-.27-.12-.27s-.14.17-.39,0c0,0,.27.06.4-.32a.5.5,0,0,0,.19.36.33.33,0,0,1,.17.29.83.83,0,0,0,.18-.78.45.45,0,0,0,.41.27.38.38,0,0,1,.39.17.45.45,0,0,0-.22-.58A.63.63,0,0,1,42,27a.49.49,0,0,0,.76-.21s-.44.16-.66-.41a.42.42,0,0,0,.58-.32.49.49,0,0,1-.66-.35.38.38,0,0,0,.57-.19s-.24.12-.4-.18a.46.46,0,0,0-.53-.25.38.38,0,0,0,0-.47.77.77,0,0,1-.78,0,.68.68,0,0,1-.31-.71.68.68,0,0,0-.26.1.73.73,0,0,1,.61-.36,1.28,1.28,0,0,1,.47.07A.28.28,0,0,0,41.55,23.31Z"/><path class="cls-13" d="M55.6,35.34a.44.44,0,0,0,.37.29c.18,0,.39,0,.64,0a1.35,1.35,0,0,0,1.08-.21,1.2,1.2,0,0,1,.43-.21.34.34,0,0,0,.07.19.36.36,0,0,0,.21.12.68.68,0,0,1,0-.24.54.54,0,0,1,.26-.31.37.37,0,0,0,.11.33.41.41,0,0,0,.14.09.45.45,0,0,1,0-.21.7.7,0,0,1,.32-.39.44.44,0,0,0,.12.33.4.4,0,0,0,.16.09h.05c-.17-.62.53-.48.8-.78a.58.58,0,0,0,.12-.55.55.55,0,0,0,.63,0l.08-.06h-.09c-.3-.05-.29-.4-.2-.68a1.37,1.37,0,0,0,.11-.88c-.1-.4,0-.52.29-.67a2.44,2.44,0,0,1,.67-.18.55.55,0,0,1,.06-.65.7.7,0,0,0,.12.44.54.54,0,0,0,.53.19,4.78,4.78,0,0,0,.05-.66,1.29,1.29,0,0,1-.21.53.42.42,0,0,1-.34-.28.45.45,0,0,1,.11-.51,2.69,2.69,0,0,0-.68-.65,1.08,1.08,0,0,1,1.1.34c0-.4-.34-.65-.76-.95a1,1,0,0,1-.45-.69,2.21,2.21,0,0,0,0,.48,3.37,3.37,0,0,1-.38-.74,1.65,1.65,0,0,0,.06.65,2.23,2.23,0,0,1-.47-.88,1.69,1.69,0,0,0,.08.71,1.11,1.11,0,0,1-.34-.89l-.09,0-.1,0s-.05.42-1,.89-.73,1-.73,1a1.21,1.21,0,0,1,.17-.29,2,2,0,0,1,.86-.54,1.25,1.25,0,0,0,.77-.84c-.07,1,.43,1.26.71,1.36a.81.81,0,0,1,.47.3,1.25,1.25,0,0,0-.41,0l.18.14a5,5,0,0,1,.71.67,1.11,1.11,0,0,0-.51-.21,1.14,1.14,0,0,1,.42.54,1.37,1.37,0,0,0-.67-.37,1.6,1.6,0,0,1,.47.55,1.36,1.36,0,0,0-.71-.43,1.26,1.26,0,0,1,.48.6,1.69,1.69,0,0,0-.73-.46,1.19,1.19,0,0,1,.46.58,1.72,1.72,0,0,0-.68-.42,1,1,0,0,1,.44.54c-.29-.09-.4.18-.19.6a.88.88,0,0,1-.13,1,.53.53,0,0,0,0,.58c-.22,0-.38-.23-.38-.23.32.75-.06.87-.41.88a.42.42,0,0,0-.4.35.28.28,0,0,1-.07-.35.61.61,0,0,0-.49.5.27.27,0,0,1-.1-.3.73.73,0,0,0-.44.65.24.24,0,0,1-.12-.34,1.13,1.13,0,0,0-.7.48.53.53,0,0,1-.57.17.37.37,0,0,1,0-.48.48.48,0,0,0-.47.48s-.56.05-.6-.27.45-.32.45-.32a.22.22,0,0,1-.1-.34.25.25,0,0,0-.18.35S55.38,34.89,55.6,35.34Z"/><path class="cls-14" d="M54.1,17.25a.71.71,0,0,0,.57-.48,1.41,1.41,0,0,1-.48.31c-.22.06-.47-.06-.51-.43C53.68,16.65,53.58,17.3,54.1,17.25Z"/><path class="cls-14" d="M51.5,16.82a.81.81,0,0,0,.57-.72,1.53,1.53,0,0,1-.31.37.58.58,0,0,1-.74.1.79.79,0,0,1-.2-.22A.52.52,0,0,0,51.5,16.82Z"/><path class="cls-14" d="M48.32,17c.5-.23.41-.88.41-.88-.08.27-.35,1-.95.67a.63.63,0,0,1-.19-.17S47.79,17.22,48.32,17Z"/><path class="cls-14" d="M46.1,17.46c.23-.19,0-.77,0-.77a1.37,1.37,0,0,1,0,.56c-.07.23-.35.2-.48.09S45.83,17.69,46.1,17.46Z"/><path class="cls-15" d="M45.56,17.35a.54.54,0,0,0,.12-.7.34.34,0,0,0-.31-.19.32.32,0,0,0-.2.06c0-.18-.25-.25-.46-.16a.55.55,0,0,1-.44,0,.53.53,0,0,0,.51.05c.33-.11.29.19.29.19s.45-.22.54.16A.59.59,0,0,1,45.56,17.35Z"/><path class="cls-14" d="M54.32,15.72a.37.37,0,0,0,0-.66.72.72,0,0,1-.18-.51s-.19.21.1.6-.18.48-.18.48a.49.49,0,0,1,.17.73.81.81,0,0,1-.59.29l.22,0C54.6,16.55,54.7,15.88,54.32,15.72Z"/><path class="cls-15" d="M48.17,15.89c0-.34-.2-.57-.51-.53.13-.2,0-.46-.41-.56a1.16,1.16,0,0,1-.58-.36.44.44,0,0,0,.06.13.94.94,0,0,0,.55.38c.48.15.15.49.15.49s.61-.08.57.48a.85.85,0,0,1-.4.68A.76.76,0,0,0,48.17,15.89Z"/><path class="cls-14" d="M51,14.38c.42.13.23.6,0,.68,0,0,.62,0,.5.59a1,1,0,0,1-.63.71,1.06,1.06,0,0,0,.82-.55.53.53,0,0,0-.44-.79c.38-.2.27-.64-.17-.79a.65.65,0,0,1-.48-.58S50.51,14.24,51,14.38Z"/><path class="cls-14" d="M46.76,18.85l-.41-.14-.4-.15,0,.18.53.17Z"/><path class="cls-15" d="M53.61,18.62a.57.57,0,0,0-.53-.53.55.55,0,0,0-.67.39h0l.14-.08a.45.45,0,0,1,.52-.26.48.48,0,0,1,.41.33A.54.54,0,0,1,53.61,18.62Z"/><path class="cls-15" d="M51.24,18.33l.33,0-1-.62c-.36.22-.67.41-1,.64l.27,0c.24-.15.49-.28.75-.42C50.79,18.06,51,18.19,51.24,18.33Z"/><path class="cls-15" d="M48.11,18.08a.61.61,0,0,0-.55.5l.12,0a.48.48,0,0,1,.43-.38.46.46,0,0,1,.55.27l.16,0A.58.58,0,0,0,48.11,18.08Z"/><path class="cls-14" d="M54.45,18.74l.26.4-.07.24-.08.32a11.58,11.58,0,0,0-4.07-.55c-3.08,0-4.3.83-4.36.87h0l.12-.07a10,10,0,0,1,4.25-.65,8.89,8.89,0,0,1,4.26.73l.15-.82.27-.26-.11-.36a5,5,0,0,1,.38-.95,2.11,2.11,0,0,1,.13-.23.48.48,0,0,1,.52-.25L56,17.1a.41.41,0,0,0-.14,0,2.14,2.14,0,0,1,.77-.65,2.77,2.77,0,0,0-.89.6,2.52,2.52,0,0,0-.3.37l-.13.22-.15.31a13.89,13.89,0,0,0-4.61-.77,10.82,10.82,0,0,0-4.74,1,16.21,16.21,0,0,1,4.69-.72,12,12,0,0,1,4.55.8h0l-.11.28c-.24.06-.69.18-.81.19Z"/><path class="cls-13" d="M55.87,17.06a.41.41,0,0,1,.14,0,3.29,3.29,0,0,1,.62-.7A2.14,2.14,0,0,0,55.87,17.06Z"/><path class="cls-13" d="M55.59,17.41a2.11,2.11,0,0,0-.13.23,5,5,0,0,0-.38.95l.11.36-.27.26-.15.82a8.89,8.89,0,0,0-4.26-.73,10,10,0,0,0-4.25.65l-.12.07a2.89,2.89,0,0,0,.82.31c.19.05.42.1.69.15l1.05-.06a9.2,9.2,0,0,1-1.95-.38A10.16,10.16,0,0,1,51,19.56l-.91.13.93.1-1,.12,1,.14-1,.08,1,.17-1,0,.23,0h.24c1.3,0,2.42.05,3.35.13a3.66,3.66,0,0,0,1.05-.38c.05-.33.06-.6.13-.87l.24-.29-.08-.35a7.83,7.83,0,0,1,.42-1,.86.86,0,0,1,.45-.43A.48.48,0,0,0,55.59,17.41Z"/><path class="cls-16" d="M40.17,20.88a.79.79,0,0,1-.34.58,1.13,1.13,0,0,0,.45,0c.18-.07.07-.2,0-.26s0-.17.17-.07.16-.07.16-.07A.84.84,0,0,0,40.17,20.88Z"/><path class="cls-16" d="M40.65,21.37s-.08.23-.52.23c0,0,.37.16.57,0S40.65,21.37,40.65,21.37Z"/><path class="cls-16" d="M67.14,23.45a.85.85,0,0,1-.44.24.63.63,0,0,0,.16-.44A.57.57,0,0,0,67,23a.84.84,0,0,1,.07.22Z"/><path class="cls-16" d="M59.82,22l.42,0a.49.49,0,0,1,.52.26,1.38,1.38,0,0,0-.68-.07.31.31,0,0,1-.3-.06Z"/><path class="cls-16" d="M60.31,24.07a.28.28,0,0,0-.3-.2h-.28a.25.25,0,0,0,.12.21,1.06,1.06,0,0,1,.26,0Z"/><path class="cls-16" d="M58,24a1.6,1.6,0,0,1-.41-.47,2.19,2.19,0,0,1-.16-.32.87.87,0,0,0,.08-.7s.28.06.23.44a1,1,0,0,1-.16.4s.1.21.19.35S58,24,58,24Z"/><path class="cls-16" d="M67.68,23.19a1.66,1.66,0,0,1-.38,1.16c-.57.66-1.45.38-1.94.32a.88.88,0,0,0-.72,1.56.84.84,0,0,1,0-.87c.2-.41.64-.57,1.41-.46s1.49,0,1.79-.68a2.61,2.61,0,0,0,0-1.57A2.09,2.09,0,0,1,67.68,23.19Z"/><path class="cls-16" d="M66.23,27.3c-.6-.42-1.27-.39-1.48.11a.5.5,0,0,0,.2.42.55.55,0,0,1,.29-.54A1.52,1.52,0,0,1,66.23,27.3Z"/><path class="cls-16" d="M67,26.6a.6.6,0,0,0-.1.54c.14.65.49,1.62-.42,2.39a2.59,2.59,0,0,1-2.19.2,1,1,0,0,1,.42.78c0,.36.22.46.35.47a1.06,1.06,0,0,1-.13-.42,1,1,0,0,0-.35-.64s1.42.52,2.21-.23a2.09,2.09,0,0,0,.37-2.31.59.59,0,0,1,.41-.74,1.21,1.21,0,0,0-.27-.08A.71.71,0,0,0,67,26.6Z"/><path class="cls-16" d="M65.17,32a.48.48,0,0,0-.16.2,1.85,1.85,0,0,0-.35-.9.51.51,0,0,0,.47-.15.45.45,0,0,0,.37.08s-.29.35-.6.25a2.36,2.36,0,0,1,.19.33A1.82,1.82,0,0,1,65.17,32Z"/><path class="cls-16" d="M66.81,32a.68.68,0,0,0-.34-.09.32.32,0,0,0,0-.41.49.49,0,0,1,.28.21A.33.33,0,0,1,66.81,32Z"/><path class="cls-16" d="M64.69,36.15a1.79,1.79,0,0,0,.69,0c.38,0,.8.21,1.19-.23a2.35,2.35,0,0,0,.5-1.07.43.43,0,0,0,.53,0,.49.49,0,0,0,.34.14.49.49,0,0,1-.6,0,3,3,0,0,1-.45.94.85.85,0,0,1-.89.29,2.88,2.88,0,0,0-.83-.07A.84.84,0,0,1,64.69,36.15Z"/><path class="cls-16" d="M67.54,34.8a.68.68,0,0,1-.36-.51.44.44,0,0,0,.46,0,.83.83,0,0,0,.34.15.52.52,0,0,1-.54,0l0,.14A.67.67,0,0,0,67.54,34.8Z"/><path class="cls-16" d="M67.6,34.23a.84.84,0,0,1-.44-.55.32.32,0,0,0,.42,0,.49.49,0,0,0,.33.14.38.38,0,0,1-.48.07.58.58,0,0,0,0,.18A.69.69,0,0,0,67.6,34.23Z"/><path class="cls-16" d="M67.52,33.53c-.53-.27-.22-1-.48-1.34,0,0,.35.13.34.73S67.52,33.53,67.52,33.53Z"/><path class="cls-16" d="M65.83,33.78c-.12-.2-.33-.19-.54-.1a1.32,1.32,0,0,1-1,.18.62.62,0,0,1,.1.58.38.38,0,0,1,0,.18s.29-.26.13-.54a1.47,1.47,0,0,0,.83-.1A.77.77,0,0,1,65.83,33.78Z"/><path class="cls-16" d="M64,34.23a.79.79,0,0,0-.2-.22.59.59,0,0,1,0,.41.52.52,0,0,1,0,.16.43.43,0,0,0,.14-.17A.56.56,0,0,0,64,34.23Z"/><path class="cls-16" d="M61.14,33.86a.55.55,0,0,1-.63,0,.58.58,0,0,1-.12.55c-.26.3-1,.16-.8.78h-.05a.3.3,0,0,0,.22.23A.4.4,0,0,1,60,34.9c.37-.19.73-.12.81-.55a.61.61,0,0,0,0-.3.64.64,0,0,0,.72-.07A.64.64,0,0,1,61.14,33.86Z"/><path class="cls-16" d="M58.19,35.37a.34.34,0,0,1-.07-.19,1.2,1.2,0,0,0-.43.21,1.35,1.35,0,0,1-1.08.21c-.25,0-.46,0-.64,0a2.14,2.14,0,0,0,.42,0c.17,0,.48,0,.78,0a1.52,1.52,0,0,0,.7-.15A2,2,0,0,1,58.19,35.37Z"/><path class="cls-16" d="M58.8,35.28a.37.37,0,0,1-.11-.33.54.54,0,0,0-.26.31.46.46,0,0,0,.24.37.66.66,0,0,1,0-.18A.51.51,0,0,1,58.8,35.28Z"/><path class="cls-16" d="M59.38,35.09a.44.44,0,0,1-.12-.33.7.7,0,0,0-.32.39.34.34,0,0,1,.13-.07.35.35,0,0,0,.17.4,1.36,1.36,0,0,1,0-.22A.4.4,0,0,1,59.38,35.09Z"/><path class="cls-16" d="M61.13,33.79c-.3-.05-.29-.4-.2-.68a1.37,1.37,0,0,0,.11-.88c-.1-.4,0-.52.29-.67a2.44,2.44,0,0,1,.67-.18.55.55,0,0,1,.06-.65.7.7,0,0,0,.12.44.54.54,0,0,0,.53.19l0,.17a2.93,2.93,0,0,0-1.16.29c-.28.15-.26.31-.22.54a1.48,1.48,0,0,1-.09.84C61.06,33.64,61.13,33.79,61.13,33.79Z"/><path class="cls-16" d="M61.54,29.62a.81.81,0,0,0-.47-.3c-.28-.1-.78-.38-.71-1.36a1.25,1.25,0,0,1-.77.84,2,2,0,0,0-.86.54.52.52,0,0,0,.11.51s0-.45.58-.64.66-.41.66-.41a.81.81,0,0,0,.66.52A1.94,1.94,0,0,1,61.54,29.62Z"/><path class="cls-16" d="M57.61,30.58c.23-.17,0-.52.29-.9a1.58,1.58,0,0,1,.57-.39.5.5,0,0,0,0,.2s-.39.19-.48.43a5.63,5.63,0,0,0-.11.63.23.23,0,0,1-.27.13Z"/><path class="cls-16" d="M57.36,30.63a.55.55,0,0,1-.17-.06.41.41,0,0,1-.34.36s.26.08.4-.07A.38.38,0,0,0,57.36,30.63Z"/><path class="cls-17" d="M63.54,23.82A.86.86,0,0,1,63,23h0c.34.07.4-.16.4-.16A.89.89,0,0,1,63,22a1,1,0,0,0-.4-.86c.6,0,.53-.49.53-.49a.4.4,0,0,1-.16,0c-.11.19-.36.37-.89.17a1,1,0,0,1,.65.83c0,.71.18.89.39,1a.26.26,0,0,1-.36.08s0,.66.48.83a.35.35,0,0,1-.52.08s-.08.72.36.91a.41.41,0,0,1-.54,0s.23.46-.43,1a1,1,0,0,0-.43.76.62.62,0,0,1-.4-.45.88.88,0,0,0-.09,1,.5.5,0,0,1-.48-.41.46.46,0,0,1-.21.44c-.25.14-.16.49-.16.49A.46.46,0,0,1,60,27s-.4-.1-.51.46a.41.41,0,0,1,.39-.21.84.84,0,0,0,.44.51l.1,0,.09,0a1.08,1.08,0,0,0,.26,0,.67.67,0,0,1-.06-.8.67.67,0,0,0,.83.27.86.86,0,0,1-.25-.47,1,1,0,0,1,.06-.41,1.25,1.25,0,0,0,.3.27s.11.2.29.48a7.11,7.11,0,0,0,.49.66,4.38,4.38,0,0,0,.84.79s-.55-.55-.85-.94a6.66,6.66,0,0,1-.57-.9.93.93,0,0,0,.48,0c-.13-.08-.45-.56.15-1s.28-.93.28-.93a.45.45,0,0,0,.62,0A.79.79,0,0,1,63,24C63.47,24.08,63.54,23.82,63.54,23.82Z"/><path class="cls-16" d="M61,20.88a.8.8,0,0,0,.34.58,1.15,1.15,0,0,1-.45,0c-.18-.07-.07-.2,0-.26s0-.17-.17-.07-.16-.07-.16-.07A.83.83,0,0,1,61,20.88Z"/><path class="cls-16" d="M60.5,21.37s.08.23.52.23c0,0-.37.16-.57,0S60.5,21.37,60.5,21.37Z"/><path class="cls-10" d="M51.47,34a.35.35,0,0,1,0-.22c.07-.23.41-.24.41-.24a.27.27,0,0,1,0-.33.54.54,0,0,1,.18-.12.44.44,0,0,1,.41.13c.27-.55.45-.91.57-1.16s-.62-.37-.62-.37a.33.33,0,0,1,0,.35c-.07-.25-.45-.26-.45-.26a.35.35,0,0,1,.07.31c-.1-.13-.06-.12-.28-.21s-.14-.27-.14-.27a.62.62,0,0,1-.54.05.43.43,0,0,0,.29-.64,1.2,1.2,0,0,1,0-.92c.06-.18.11-.22.16-.34a2.85,2.85,0,0,1-.73.24c-.43.09-.64.16-.47.48s-.18.45.2.78a.34.34,0,0,1-.35,0c.07.25.46.74,0,.89-.28.09-.56.37-.49.68a.29.29,0,0,1-.22-.28.65.65,0,0,0-.24.5s-.19,0-.15-.28a.62.62,0,0,0-.34.49.35.35,0,0,1-.15-.29s-.24,0-.34.08.23.1.05.4a.55.55,0,0,1-.14.15c-.19.11-.41-.1-.41-.1s-.07.39-.41.3a.43.43,0,0,1-.16-.09c-.13-.15,0-.38,0-.38s-.27,0-.35-.15a.37.37,0,0,1,.32-.5s-.17-.17-.14-.33a.24.24,0,0,1,.14-.15c.28-.12.56.27.56.27s.86-.62,1.17-.86,0-.7,0-.91a1.42,1.42,0,0,1-.35,0,.75.75,0,0,0,.29-.58s-.11.29-.37.27a.32.32,0,0,0,.08-.35.47.47,0,0,1,.08-.38.32.32,0,0,1-.24-.36s.35.22.47,0a1.35,1.35,0,0,1,.83-.6,5.92,5.92,0,0,1,1-.14c-.25-.41-.75-.55-.91-1a2.42,2.42,0,0,1-.94.46.81.81,0,0,0-.53.39c-.1-.1,0-.31,0-.31a1.47,1.47,0,0,0-.4.21c-.41.38-.09.6-.32.84a.26.26,0,0,1-.23.1.35.35,0,0,1-.21-.13.33.33,0,0,1-.45.29.4.4,0,0,1-.21-.15.39.39,0,0,1,0-.35S46,29,46,28.73a.94.94,0,0,1,0-.22c.07-.28.42-.29.42-.29a.32.32,0,0,1,0-.61.64.64,0,0,1,.57.16,4.62,4.62,0,0,0,1.44-.85.37.37,0,0,1-.25-.09,1.13,1.13,0,0,0,.44-.44.73.73,0,0,1-.4-.19.69.69,0,0,0,.29-.15,3.66,3.66,0,0,1-.66-.75,1,1,0,0,0-.57-.33.46.46,0,0,1,.29-.26A2.34,2.34,0,0,0,46.8,24s-.23.31-.49.15a.48.48,0,0,1-.14-.15.38.38,0,0,1,0-.28s-.42,0-.46-.27a.4.4,0,0,1,0-.21c.11-.23.4-.15.4-.15a.5.5,0,0,1-.09-.53.26.26,0,0,1,.17-.13c.25,0,.48.31.48.31a.26.26,0,0,1,.22-.29.28.28,0,0,1,.2.12c.23.28,0,.71,0,.71a3.55,3.55,0,0,0,1.1.68,4.37,4.37,0,0,1,1,.81.78.78,0,0,0,.34,0,.29.29,0,0,1-.16-.36c.8.37.88-.31.88-.31a1,1,0,0,0-.58,0c-.22-.44.15-.55.15-.55A.8.8,0,0,1,50,23.4a1.84,1.84,0,0,0,0,.22h0a.67.67,0,0,0,.77-.4l0-.11h0c.15-.5-.37-.53-.52-.5a.73.73,0,0,1-.32,0c-.05.12-.09.24-.09.24a.5.5,0,0,1-.09-.24c-.43-.17-.28-.83-.28-.83s-.07-.22,0-.25a1.78,1.78,0,0,1,.72,0c.22.05.45-.17.8-.09a1.67,1.67,0,0,1,.44.18c.06-.16.4-.57.8-.31a.85.85,0,0,0,.68.1.61.61,0,0,1-.85.55c.24.09.36.26.36.66a.52.52,0,0,0,.36.51.29.29,0,0,1-.36.1c0,.66.41.71.41.71a.35.35,0,0,1-.44.07c0,.57.27.69.27.69a.33.33,0,0,1-.49,0,.69.69,0,0,1,.07.53.27.27,0,0,0,.16.34.31.31,0,0,1-.44,0,.82.82,0,0,0-.05.72.33.33,0,0,1-.37-.32A2.12,2.12,0,0,0,51.57,27a1.83,1.83,0,0,0,1,1.3c.64.33,1.88.41,2.16-.23s.08-1.21-.53-1.21a.66.66,0,0,0-.7.52.54.54,0,0,1,.07-.69.88.88,0,0,1-.61-.89,1,1,0,0,1,.86-1c-.17-.81.38-1,.85-.91a.53.53,0,0,0,.62-.27.67.67,0,0,1-.11.7c.57-.1.72-1,.72-1,.27,1.42-.53,1.93-1.46,1.75s-1.09.24-1.12.64.36.66.87.71a1.09,1.09,0,0,1,.68.21.47.47,0,0,1,.56-.23,1,1,0,0,0-.25.66,1.38,1.38,0,0,1-.62,1.75,1.86,1.86,0,0,1-1.3.21c.26.62-.57,1.11,0,1.41a.36.36,0,0,1-.4,0l-.05.26a1.21,1.21,0,0,1,.68.1c.62.31.86.06.86.06a.58.58,0,0,1-.21.43c.71.12.59.45.26.81s-.36.66-.21.82a.26.26,0,0,1-.25-.24s-.28.29-.09.55a.32.32,0,0,1-.24-.17s-.29.29-.08.48a.25.25,0,0,1-.23-.15.91.91,0,0,0-.16.24s.24.12.18.31-.32.26-.59.08c0,0-.08.39-.4.38a.32.32,0,0,1-.23-.08.31.31,0,0,1-.07-.2S51.59,34.33,51.47,34Zm-.75-11.7c-.13-.05,0-.19,0-.19s.11.19.53.1A.64.64,0,0,1,50.72,22.34Zm.32-.17c-.18,0-.11-.15-.07-.21s-.06-.16-.21,0-.16,0-.16,0a.84.84,0,0,1,.4-.21.78.78,0,0,0,.42.43A.91.91,0,0,1,51,22.17Z"/><path class="cls-1" d="M47.58,15.69a.57.57,0,0,0-.39.22l.25.51S47.3,15.89,47.58,15.69Z"/><path class="cls-1" d="M53.66,16s.1-.12.41-.05a.59.59,0,0,0-.38.53Z"/><path class="cls-1" d="M51.13,15.28a.6.6,0,0,0-.55.11l.1.7S50.72,15.41,51.13,15.28Z"/><path class="cls-1" d="M45.4,17.27a1.16,1.16,0,0,1-.1-.58.4.4,0,0,0-.18.3A1.26,1.26,0,0,1,45.4,17.27Z"/><path class="cls-10" d="M50.54,17.92c-.25.14-.51.28-.75.42h0l.74.39c.24-.14.45-.27.71-.41h0C51,18.19,50.79,18.06,50.54,17.92Z"/><path class="cls-18" d="M50.54,18.31c0-.08,0-.15,0-.23l-.41.23Z"/><path class="cls-1" d="M45.83,19.11l.31.25.38-.45L46,18.74Z"/><path class="cls-1" d="M54.71,19.14l.33-.21-.13-.34-.46.15Z"/><path class="cls-19" d="M50.85,23.09a.89.89,0,0,0-1-.11c-.71.3-.88.16-.9-.2,0,0-.3.4-.07.65s.84-.11,1.15-.24a.92.92,0,0,1,.73,0l0-.11Z"/><path class="cls-4" d="M47.25,32.31a.33.33,0,0,0-.44,0,.28.28,0,0,0-.1.24.21.21,0,0,1,.06-.08.23.23,0,0,1,.3,0C47.21,32.47,47.25,32.31,47.25,32.31Z"/><path class="cls-4" d="M46.92,33a.29.29,0,0,0-.32.26.28.28,0,0,0,.09.24.25.25,0,0,1,0-.1.21.21,0,0,1,.2-.21C47,33.14,46.92,33,46.92,33Z"/><path class="cls-4" d="M47.25,33.61a.29.29,0,0,0-.08.4.29.29,0,0,0,.23.13.22.22,0,0,1-.07-.07.25.25,0,0,1,0-.27C47.41,33.69,47.25,33.61,47.25,33.61Z"/><path class="cls-4" d="M48.18,33.39a.29.29,0,0,1,.11.39.3.3,0,0,1-.22.15.25.25,0,0,0,.06-.07.19.19,0,0,0,0-.28C48,33.49,48.18,33.39,48.18,33.39Z"/><path class="cls-4" d="M52,33.19a.31.31,0,0,0-.56.17.27.27,0,0,1,.07-.08.25.25,0,0,1,.28,0A.25.25,0,0,0,52,33.19Z"/><path class="cls-4" d="M51.63,33.81a.31.31,0,0,0-.28.51.24.24,0,0,1,0-.1.25.25,0,0,1,.19-.19A.33.33,0,0,0,51.63,33.81Z"/><path class="cls-4" d="M52.18,34.16a.34.34,0,0,0-.1.45.31.31,0,0,0,.25.13.21.21,0,0,1-.08-.07.24.24,0,0,1,0-.28A.19.19,0,0,0,52.18,34.16Z"/><path class="cls-4" d="M53.1,33.86a.34.34,0,0,1,.1.45.31.31,0,0,1-.24.14.26.26,0,0,0,.07-.07.24.24,0,0,0,0-.29A.2.2,0,0,1,53.1,33.86Z"/><path class="cls-4" d="M47.1,22.69a.31.31,0,0,0-.12-.41.31.31,0,0,0-.28,0l.1,0a.21.21,0,0,1,.12.27A.19.19,0,0,0,47.1,22.69Z"/><path class="cls-4" d="M46.32,22.61a.31.31,0,0,0-.58,0,.2.2,0,0,1,.09,0,.23.23,0,0,1,.27.11A.18.18,0,0,0,46.32,22.61Z"/><path class="cls-4" d="M45.93,23.35a.3.3,0,0,0-.43,0,.3.3,0,0,0-.06.27.22.22,0,0,1,0-.09.25.25,0,0,1,.29-.07A.19.19,0,0,0,45.93,23.35Z"/><path class="cls-4" d="M46.44,24a.35.35,0,0,1-.45.14.3.3,0,0,1-.16-.23l.08.07c.21.12.3,0,.3,0A.21.21,0,0,1,46.44,24Z"/><path class="cls-4" d="M46.4,27.82a.31.31,0,0,0-.57.12.2.2,0,0,1,.08-.07.26.26,0,0,1,.31.05A.16.16,0,0,0,46.4,27.82Z"/><path class="cls-4" d="M46.1,28.52a.31.31,0,0,0-.38.21.3.3,0,0,0,.05.27.21.21,0,0,1,0-.1.23.23,0,0,1,.22-.17A.24.24,0,0,0,46.1,28.52Z"/><path class="cls-4" d="M46.57,29.13a.31.31,0,0,0-.16.4.31.31,0,0,0,.22.18.21.21,0,0,1-.06-.08.28.28,0,0,1,.07-.3C46.67,29.17,46.57,29.13,46.57,29.13Z"/><path class="cls-4" d="M47.44,29a.32.32,0,0,1-.07.44.31.31,0,0,1-.27,0,.25.25,0,0,0,.18-.33A.2.2,0,0,1,47.44,29Z"/><path class="cls-4" d="M57.37,22.46a.51.51,0,0,0-.11-.59.32.32,0,0,0-.32,0,.26.26,0,0,1,.11.05.4.4,0,0,1,.12.38A.23.23,0,0,0,57.37,22.46Z"/><path class="cls-4" d="M56.78,35.22a.43.43,0,0,0-.61.09.44.44,0,0,0-.06.39.39.39,0,0,1,.07-.15.38.38,0,0,1,.4-.1A.22.22,0,0,0,56.78,35.22Z"/><path class="cls-4" d="M56,35a.43.43,0,0,0-.52.64.38.38,0,0,1,0-.17.33.33,0,0,1,.34-.16A.36.36,0,0,0,56,35Z"/><path class="cls-4" d="M56.21,34.54a.42.42,0,0,0-.57,0,.36.36,0,0,0-.1.31.39.39,0,0,1,.09-.13c.17-.14.39,0,.39,0S56.21,34.54,56.21,34.54Z"/><path class="cls-4" d="M64.9,35.1a.4.4,0,0,0-.51,0,.28.28,0,0,0,0,.31.22.22,0,0,1,0-.11c.14-.16.36,0,.36,0A.26.26,0,0,0,64.9,35.1Z"/><path class="cls-4" d="M57.4,30.59a.31.31,0,0,1,0,.32.45.45,0,0,1-.09.11.39.39,0,0,0,.3-.22.5.5,0,0,0-.12-.56A.5.5,0,0,0,57.4,30.59Z"/><path class="cls-4" d="M56.72,30.82a.32.32,0,0,1-.09.35.3.3,0,0,1-.11.06.34.34,0,0,0,.34-.06.56.56,0,0,0,.12-.62A.42.42,0,0,0,56.72,30.82Z"/><path class="cls-4" d="M56.07,30.41a.3.3,0,0,0,0-.33.5.5,0,0,0-.35.49.42.42,0,0,0,.23.3.34.34,0,0,1-.05-.13C55.9,30.47,56.07,30.41,56.07,30.41Z"/><path class="cls-4" d="M56.21,29.16a.47.47,0,0,0-.58.25.39.39,0,0,0,.05.36.29.29,0,0,1,0-.14.38.38,0,0,1,.3-.19C56.12,29.39,56.21,29.33,56.21,29.16Z"/><path class="cls-4" d="M59.54,21.94a.87.87,0,0,0,.14.45s0-.1.07-.23l.06-.15.07-.15S59.65,21.78,59.54,21.94Z"/><path class="cls-4" d="M59.65,23.47a.92.92,0,0,1,.16-.41,2.32,2.32,0,0,0,0,.24c0,.07.07.21.07.21A.32.32,0,0,1,59.65,23.47Z"/><path class="cls-4" d="M65.63,35.7a.4.4,0,0,0-.55.2.39.39,0,0,0,.09.36.31.31,0,0,1,0-.15c.07-.2.33-.1.33-.1C65.69,35.94,65.63,35.7,65.63,35.7Z"/><path class="cls-4" d="M64.79,35.64s-.5-.19-.64.18a.35.35,0,0,0,.11.38.42.42,0,0,1,0-.17c0-.14.23-.16.37-.08A.3.3,0,0,0,64.79,35.64Z"/><path class="cls-4" d="M60.82,22.76c0-.05,0-.1,0-.14a1.06,1.06,0,0,0-1.12,0c-.43.21-.77.33-.92,0a.45.45,0,0,0,.17-.53.38.38,0,0,0-.72,0A.75.75,0,0,0,59,23.22c.45,0,.73-.46,1.25-.5A1.9,1.9,0,0,1,60.82,22.76Z"/><path class="cls-4" d="M43.73,22.45a.51.51,0,0,1,.11-.59.31.31,0,0,1,.32,0,.27.27,0,0,0-.11.05.3.3,0,0,0-.12.37C44,22.41,43.73,22.45,43.73,22.45Z"/><path class="cls-4" d="M43.7,30.64a.37.37,0,0,0,.08.3.34.34,0,0,0,.11.08.39.39,0,0,1-.34-.14.51.51,0,0,1,0-.57C43.65,30.4,43.73,30.48,43.7,30.64Z"/><path class="cls-4" d="M44.38,31a.35.35,0,0,0,.18.29.27.27,0,0,0,.12,0,.33.33,0,0,1-.34,0,.61.61,0,0,1-.26-.6C44.29,30.75,44.36,30.85,44.38,31Z"/><path class="cls-4" d="M45.07,30.42c-.11-.08-.11-.18,0-.33a.5.5,0,0,1,.35.49.42.42,0,0,1-.23.3.32.32,0,0,0,.05-.13A.34.34,0,0,0,45.07,30.42Z"/><path class="cls-4" d="M44.9,29.16a.47.47,0,0,1,.58.25.39.39,0,0,1-.05.36.32.32,0,0,0,0-.14.34.34,0,0,0-.25-.22C45,29.39,44.89,29.32,44.9,29.16Z"/><path class="cls-4" d="M36.08,35.17a.49.49,0,0,1,.62,0,.29.29,0,0,1,0,.32.22.22,0,0,0-.05-.1c-.16-.19-.41,0-.41,0A.42.42,0,0,1,36.08,35.17Z"/><path class="cls-4" d="M36.17,35.67c.27-.11.58,0,.64.18a.37.37,0,0,1-.11.38.28.28,0,0,0,0-.14c-.08-.25-.37-.15-.37-.15A.22.22,0,0,1,36.17,35.67Z"/><path class="cls-4" d="M35.36,35.79a.4.4,0,0,1,.55.2.39.39,0,0,1-.09.36.41.41,0,0,0,0-.16.24.24,0,0,0-.3-.16A.23.23,0,0,1,35.36,35.79Z"/><path class="cls-4" d="M44.46,35.23a.47.47,0,0,1,.61.09.41.41,0,0,1,.06.39.34.34,0,0,0-.47-.25A.21.21,0,0,1,44.46,35.23Z"/><path class="cls-4" d="M45.1,35a.53.53,0,0,1,.59.23.41.41,0,0,1-.07.41c0-.3-.18-.38-.38-.35A.25.25,0,0,1,45.1,35Z"/><path class="cls-4" d="M44.93,34.52a.48.48,0,0,1,.57,0,.34.34,0,0,1,.07.32.31.31,0,0,0-.47-.14A.21.21,0,0,1,44.93,34.52Z"/><path class="cls-4" d="M41.47,23.44a.94.94,0,0,0-.16-.41,2.22,2.22,0,0,1,0,.24c0,.07-.07.21-.07.21S41.47,23.44,41.47,23.44Z"/><path class="cls-4" d="M41.58,21.92a.88.88,0,0,1-.14.45s0-.1-.07-.23a2.08,2.08,0,0,0-.12-.3S41.46,21.75,41.58,21.92Z"/><path class="cls-4" d="M40.38,22.73v-.1a1.18,1.18,0,0,1,1.17-.06c.43.2.76.33.92,0a.44.44,0,0,1-.17-.53.38.38,0,0,1,.72,0,.75.75,0,0,1-.79,1.08c-.45,0-.72-.46-1.25-.5A2,2,0,0,0,40.38,22.73Z"/><path class="cls-19" d="M53.06,18.16a.45.45,0,0,0-.52.26l0,.05a.46.46,0,0,0,.43.45.43.43,0,0,0,.52-.3.36.36,0,0,0,0-.13A.48.48,0,0,0,53.06,18.16Z"/><path class="cls-19" d="M48.11,18.17a.48.48,0,0,0-.43.38.35.35,0,0,0,0,.08.46.46,0,0,0,.55.29c.27,0,.45-.23.43-.45v0A.46.46,0,0,0,48.11,18.17Z"/><ellipse class="cls-18" cx="48.06" cy="18.43" rx="0.16" ry="0.12" transform="translate(-2.2 7.31) rotate(-8.5)"/><ellipse class="cls-18" cx="52.92" cy="18.41" rx="0.13" ry="0.16" transform="translate(27.1 68.14) rotate(-81.73)"/><path class="cls-18" d="M54.74,16.8c.1,0,.22-.11.3-.28s.07-.39,0-.45-.26.07-.35.28-.07.36,0,.43Z"/><path class="cls-18" d="M52.17,16.12c.15,0,.28-.19.34-.43s0-.54-.21-.58-.36.16-.42.45,0,.48.17.55Z"/><path class="cls-18" d="M48.81,16.1c.16-.05.24-.29.18-.58s-.24-.47-.42-.43-.24.31-.18.6.19.39.33.42Z"/><path class="cls-18" d="M46.12,16.67c.09-.07.09-.24,0-.43s-.25-.31-.37-.26-.12.25,0,.45.22.28.33.27Z"/><path class="cls-20" d="M54.82,16.49a.11.11,0,0,1-.06-.07v0c0,.1,0,.18,0,.21s.13,0,.18-.13a.27.27,0,0,0,0-.1A.15.15,0,0,1,54.82,16.49Z"/><path class="cls-20" d="M46.08,16.34a.3.3,0,0,0-.07-.11c0,.11,0,.21-.07.24h-.08c0,.09.12.14.18.12S46.12,16.45,46.08,16.34Z"/><path class="cls-20" d="M48.88,15.65a.35.35,0,0,0-.09-.23.3.3,0,0,1,0,.08.24.24,0,0,1-.19.26h0c0,.12.09.19.17.19S48.88,15.81,48.88,15.65Z"/><path class="cls-21" d="M52.31,15.49v0c0,.13-.14.21-.23.19l0,0c0,.11,0,.21.09.23s.18-.06.22-.19A.25.25,0,0,0,52.31,15.49Z"/><path class="cls-13" d="M69.66,36.07l-.5,2-.34-.11.29-1.15h0c0-.08,0-.16-.21-.23l-.55,2.13c-.09.12-.39.2-.81.11a12.52,12.52,0,0,0-2.49-.46,14.42,14.42,0,0,0-2.59.47,1.09,1.09,0,0,1-.57,0l0,.19c.08.21.49.22.72.18a14.31,14.31,0,0,1,2.59-.47,13.09,13.09,0,0,1,2.49.46c.36.07.75,0,.81-.17l.21-.81c.31.09.59.2.59.2l.54-2.19Z"/><path class="cls-13" d="M33.22,38.78a1.29,1.29,0,0,0,.58,0,13.07,13.07,0,0,1,2.49-.46,14.42,14.42,0,0,1,2.59.47c.22,0,.64,0,.72-.18l.54-2.11c.21.07.33.17.29.26l-.14.56h0l-.07.27c1.82-.15,4.88.38,10.3.38s9-.45,10.77-.36l.07.29c-2-.11-5.59.39-10.84.39-5.67,0-8.82-.58-10.39-.35l-.25,1c-.08.21-.49.22-.72.18a14.31,14.31,0,0,0-2.59-.47,13.07,13.07,0,0,0-2.49.46c-.36.07-.75,0-.81-.17Z"/></svg>