<svg id="drenthe" xmlns="http://www.w3.org/2000/svg" viewBox="0 0 190 75"><defs><style>.cls-1{fill:#282967;}.cls-1,.cls-2{fill-rule:evenodd;}.cls-2{fill:#3a6bb2;}</style></defs><title>Artboard 1</title><path class="cls-1" d="M25,39.31A3.38,3.38,0,0,1,23.59,39c-.31.89-1.1,3.24-1.1,3.51,0,.43.27.68,1,.75.41,0,.49.06.49.15s0,.43-.1.43c-.79,0-1.51-.11-2.3-.11-1,0-1.87.1-2,.1s-.06-.29-.06-.48,0-.08.21-.1c.73-.1,1-.2,1.22-.76,1.3-4,2.15-7.27,3.26-11.33a7.19,7.19,0,0,0-1.42.61l-.14-.58a7.76,7.76,0,0,1,1.77-.82c.52-2.3.61-2.42,1.37-2.42.17,0,.56,0,.56.27a6.47,6.47,0,0,1-.42,1.82,11.56,11.56,0,0,1,2.8-.45c1.22,0,1.94,1.31,1.92,2.43-.07,3.09-3.32,7.25-5.66,7.25Zm-.92-2a1.1,1.1,0,0,0,1.11,1.2c2,0,3.89-4.66,3.81-6.26a1.59,1.59,0,0,0-1.65-1.68,6.18,6.18,0,0,0-1.64.29l-1.64,6.45Z"/><path class="cls-1" d="M35.42,31.28A11.13,11.13,0,0,1,35,33.66h0c.73-1.22,2.31-4,3.47-4a1,1,0,0,1,1.14.94,1,1,0,0,1-1.06,1,.75.75,0,0,1-.5-.21c-.15-.12-.25-.27-.35-.27-.68,0-2.37,3.45-2.83,4.51-.31.7-1.13,3.6-1.71,3.6-.27,0-.85-.13-.85-.42s.53-1.55,1.07-3.23a13.56,13.56,0,0,0,.8-3.13c0-.48-.08-1.14-.83-1.14-.41,0-.93.78-1.2,1.22a1.74,1.74,0,0,1-.44-.29c.4-.85,1.44-2.59,2.43-2.58s1.24,1,1.24,1.64Z"/><path class="cls-1" d="M44.39,29.67a3.42,3.42,0,0,1,3.39,3.59c0,2.88-2.38,6-5.36,6-2.09,0-3.16-1.79-3.16-3.76,0-2.71,2.23-5.81,5.13-5.81ZM42.5,38.55c2.44,0,3.62-4.22,3.62-6.06,0-1.08-.51-2.14-1.74-2.14-2.28,0-3.57,3.82-3.58,5.69,0,1.1.26,2.51,1.69,2.51Z"/><path class="cls-1" d="M55.12,30.05a9.92,9.92,0,0,0-2.92,6.39c0,.79.35,1.37,1.16,1.37,1.91,0,4.4-3.3,4.4-5.19,0-1.68-.85-1.31-.84-1.8s.33-1.12.93-1.12c.93,0,1.1.77,1.11,1.64.05,2.67-3.23,7.92-6.26,7.91-1.34,0-1.86-1.33-1.86-2.43,0-1.8,1.59-4.24,2.75-5.71-.58,0-1.18-.09-1.8-.09s-2.09.14-2.09,1.13c0,.46.56.48.56.93a.78.78,0,0,1-.79.72c-.48,0-.7-.37-.7-.83,0-1.22,1.4-2.77,2-3.16a1.35,1.35,0,0,1,.75-.14c.6,0,1.2.09,1.8.09s1.14-.08,1.65-.08l.17.35Z"/><path class="cls-1" d="M60.45,31.73a5.12,5.12,0,0,1,2.78-2c.68,0,1,.31,1,1s-2.4,6.1-2.4,6.72c0,.23.21.41.52.42.66,0,1.66-1.42,2.14-1.88.08,0,.37.23.37.31-.71,1.09-2.33,3-3.73,3-.62,0-1.06-.27-1.06-.93,0-.83,2.4-5.92,2.4-6.81a.33.33,0,0,0-.35-.37c-.35,0-1,.52-1.27.87l-.43-.31Zm4-6.16a1,1,0,0,1,1,1,1,1,0,0,1-1,1,1,1,0,0,1-.95-1,.94.94,0,0,1,1-1Z"/><path class="cls-1" d="M75.41,36.53c-.54.83-2.8,2.79-3.78,2.79-.35,0-.83-.19-.83-.63,0-.85,2.63-6.14,2.63-7.24a.65.65,0,0,0-.72-.58c-1.66,0-4.15,3.9-4.34,4.34s-.65,1.18-.81,1.66c-.46,1.2-1,2.44-1.43,2.44-.27,0-.79-.15-.79-.48s1.4-3.48,1.59-3.93a14.9,14.9,0,0,0,.9-2.94.53.53,0,0,0-.49-.56c-.73,0-1.29,1.24-1.39,1.24s-.39-.23-.39-.35,1.37-2.54,2.55-2.54c.79,0,.93.6.93,1.27a9.45,9.45,0,0,1-.53,2.38l0,0c1-1.28,3.18-3.68,4.94-3.67.85,0,1.51.46,1.51,1.12a10,10,0,0,1-1.07,3.33,28.68,28.68,0,0,0-1.19,3.1c0,.14.1.25.29.25.6,0,1.68-1,2.05-1.4l.33.37Z"/><path class="cls-1" d="M82.8,37.5s0,0,0,0a3.44,3.44,0,0,1-3.09,1.79,2.9,2.9,0,0,1-3-3c0-3.15,2.36-6.54,5.55-6.53.77,0,2.2.29,2.19,1.29a.76.76,0,0,1-.83.83c-.52,0-.56-.35-.62-.71s-.19-.72-.89-.73c-2.24,0-3.74,3.41-3.74,5.27,0,1.24.47,2.4,2,2.41a2.86,2.86,0,0,0,2.09-.95l.35.31Z"/><path class="cls-1" d="M84.94,31.79a5.11,5.11,0,0,1,2.78-2c.68,0,1,.31,1,1s-2.4,6.1-2.4,6.72c0,.23.21.41.52.41.66,0,1.66-1.42,2.14-1.88.08,0,.37.23.37.31-.71,1.1-2.33,3-3.73,3-.62,0-1.06-.27-1.06-.94,0-.83,2.4-5.91,2.4-6.81a.34.34,0,0,0-.35-.37c-.35,0-1,.52-1.26.87l-.44-.31Zm4-6.16a1,1,0,0,1,1,1,1,1,0,0,1-1,1,1,1,0,0,1-.95-1,.94.94,0,0,1,1-1Z"/><path class="cls-1" d="M95.86,29.81c1.18,0,2.36.36,2.35,1.73,0,2.4-4,3.07-5.79,3.15a10.66,10.66,0,0,0-.17,1.41A1.84,1.84,0,0,0,94,38.18,3.18,3.18,0,0,0,96.48,37a.59.59,0,0,1,.39.35,4.2,4.2,0,0,1-3.57,2c-1.93,0-2.71-1.39-2.7-3.13,0-2.73,2.17-6.43,5.26-6.43Zm-.08.58c-1.68,0-2.78,2.44-3.2,3.82,1.45-.12,4.18-.75,4.19-2.7,0-.62-.31-1.12-1-1.12Z"/><path class="cls-1" d="M115.19,31.26a6.92,6.92,0,0,0-3.41-5.81,8.54,8.54,0,0,0-3.19-.55c-1.7,0-2.51.12-2.51,1.44L106,39.4h-1.85l0-10.43c0-2.83-.14-3.64-.9-3.64-.25,0-.91.08-1.3.08-.08,0-.08-.31-.08-.41s0-.19.35-.27a44,44,0,0,1,6.48-.5,12.61,12.61,0,0,1,3.23.38c2.81.77,5.46,3.76,5.43,6.61l-2.22.06Z"/><path class="cls-1" d="M121.6,37.14c0,.83,0,1.62,1.57,1.62.12,0,.14.1.14.29s0,.29-.16.29c-.73,0-1.45-.11-2.18-.11s-1.62.1-2.4.09c-.08,0-.08,0-.08-.16V39c0-.21,0-.23.45-.25.91-.06,1.08-.37,1.08-1.49v-4.6a.73.73,0,0,0-.62-.77c-.08,0-.62-.17-.62-.46,0-.12.06-.19.29-.29l1.54-.7a7.64,7.64,0,0,1,.87-.37.18.18,0,0,1,.17.19l0,2.13,0,0c.67-.85,1.62-2.36,2.88-2.35.75,0,1.18.36,1.18,1.12a.86.86,0,0,1-.85.81c-.56,0-.77-.38-1.39-.38s-1.14.7-1.56,1.22l-.31.39v3.91Z"/><path class="cls-1" d="M127.53,33.65a6.1,6.1,0,0,0,0,.87,3.52,3.52,0,0,0,3.26,3.61c.77,0,1.31-.29,2.34-1.22l.37.27a4.34,4.34,0,0,1-3.74,2.29,4.17,4.17,0,0,1-3.82-4.34c0-2.44,1.67-5.23,4.38-5.23A3.06,3.06,0,0,1,133.44,33v.64l-5.9,0Zm3.61-.57c.27,0,.58-.39.58-.74a1.71,1.71,0,0,0-1.78-1.74c-1.24,0-2.1,1.42-2.31,2.58l3.5-.09Z"/><path class="cls-1" d="M135.47,32.26c0-.39-.18-.64-.39-.68l-.68-.17c-.06,0-.12-.08-.12-.23s0-.21.12-.23a26.57,26.57,0,0,0,2.57-1c.08,0,.08.17.08.25v1.43a5.84,5.84,0,0,1,3.4-1.67c1.8,0,2.56,1,2.56,2.76v5.05c0,.89.68.89,1.36.89,0,0,.08,0,.08.15v.37s0,.06-.1.06c-.83,0-1.37-.11-2.05-.11s-1.47.1-2.21.1c-.15,0-.14-.37-.14-.46s.08-.12.21-.12c.33,0,1.28,0,1.28-.62V33.15c0-1.28-.39-2-1.84-2A4,4,0,0,0,137,32.25l0,5.39c0,.45,0,1,1.43,1,0,0,0,.13,0,.29s0,.29-.06.29c-.81,0-1.72-.11-2.15-.11-.75,0-1.49.1-2.24.1-.14,0-.19-.06-.19-.14v-.19c0-.25.06-.25.35-.25.91,0,1.24-.12,1.25-1.09V32.26Z"/><path class="cls-1" d="M145.92,31.88c0-.68-.29-.68-1-.69-.21,0-.38,0-.37-.27s.23-.37.44-.52a17,17,0,0,0,2.34-2c.19,0,.27,0,.27.23,0,.54-.06,1.12-.07,1.64h2.61c.25,0,.25,0,.25.46s0,.48-.23.48H147.5V36.6c0,.89.22,1.72,1.28,1.72a1.6,1.6,0,0,0,1.47-1.05l.35.29a2.56,2.56,0,0,1-2.47,2,2,2,0,0,1-2.21-1.89V31.88Z"/><path class="cls-1" d="M154.2,31.65A5.82,5.82,0,0,1,157.6,30c1.8,0,2.56,1,2.56,2.76V37.8c0,.89.68.89,1.37.89,0,0,.08,0,.08.15v.37s0,.06-.11.06c-.83,0-1.37-.11-2.05-.11s-1.47.1-2.21.1c-.14,0-.14-.37-.14-.46s.08-.12.21-.12c.33,0,1.28,0,1.29-.62V33.2c0-1.28-.39-2-1.84-2a4,4,0,0,0-2.55,1.11v5.38c0,.45,0,1,1.43,1,0,0,0,.12,0,.29s0,.29-.06.29c-.81,0-1.72-.11-2.16-.11-.74,0-1.49.1-2.23.1-.15,0-.19-.06-.19-.14v-.19c0-.25.06-.25.35-.25.91,0,1.24-.12,1.25-1.1l0-11.18c0-1.3,0-1.39-.8-1.72-.31-.13-.6-.23-.6-.39s.21-.23,1.06-.56l1.52-.55a1.28,1.28,0,0,1,.31-.1c.14,0,.14.21.14.33,0,1,0,2-.05,3v5.26Z"/><path class="cls-1" d="M164.16,33.75a6.49,6.49,0,0,0,0,.87,3.52,3.52,0,0,0,3.26,3.61c.77,0,1.31-.29,2.34-1.22l.37.27a4.34,4.34,0,0,1-3.74,2.29,4.16,4.16,0,0,1-3.82-4.34c0-2.44,1.67-5.23,4.39-5.23a3.06,3.06,0,0,1,3.14,3.11v.64l-5.9,0Zm3.61-.57c.27,0,.58-.39.58-.74a1.71,1.71,0,0,0-1.78-1.75c-1.24,0-2.09,1.43-2.31,2.58l3.5-.1Z"/><path class="cls-2" d="M98.12,43a12.34,12.34,0,0,0,19.4-10.08h-4.2a8,8,0,0,1-8.15,8.24,8.54,8.54,0,0,1-4.71-1.54L98.12,43Z"/></svg>