<svg id="Flevoland" xmlns="http://www.w3.org/2000/svg" viewBox="0 0 190 75"><defs><style>.cls-1{fill:#231f20;}.cls-2{fill:#ffc429;}.cls-3{fill:#7bc044;}.cls-4{fill:#0a6bb5;}</style></defs><title>Artboard 1</title><path class="cls-1" d="M53.53,27A5.3,5.3,0,0,1,53,27v2.75H52V22.58c.53,0,1.12,0,1.77,0,1.65,0,2.57.83,2.57,2.11A2.5,2.5,0,0,1,53.53,27m.11-3.7H53v2.83a3.46,3.46,0,0,0,.59,0c1.07,0,1.75-.59,1.75-1.49s-.52-1.4-1.65-1.4"/><path class="cls-1" d="M59.95,27.39h0v2.38h-1V24.23c.36,0,1,0,1.65,0,1.29,0,2,.51,2,1.49A1.62,1.62,0,0,1,61,27.28c.14.15.3.36.48.59l1.5,1.91H61.73Zm.51-2.45a4.17,4.17,0,0,0-.55,0v1.74l.59,0c.67,0,1.11-.37,1.11-.95s-.43-.84-1.14-.84"/><path class="cls-1" d="M67.75,29.85a2.49,2.49,0,0,1-2.64-2.8,2.75,2.75,0,0,1,2.81-2.91,2.5,2.5,0,0,1,2.67,2.8,2.73,2.73,0,0,1-2.84,2.91m.1-4.88a1.77,1.77,0,0,0-1.7,2c0,1.13.46,2,1.67,2a1.74,1.74,0,0,0,1.73-2c0-1.34-.66-2.06-1.7-2.06"/><path class="cls-1" d="M74.62,27.32a13.15,13.15,0,0,1,.47,1.42h0c.15-.47.3-1,.47-1.38l1.23-3.12h1l-2.17,5.54H74.53l-2.15-5.54h1.08Z"/><rect class="cls-1" x="80.12" y="24.23" width="0.97" height="5.54"/><path class="cls-1" d="M88,29.77l-2.09-3.25a9.89,9.89,0,0,1-.61-1.09h0c0,.35,0,.72,0,1.32v3h-.94V24.23H85.7l2.06,3.2a11.49,11.49,0,0,1,.65,1.11h0c0-.36,0-1,0-1.78V24.23h.95v5.54Z"/><path class="cls-1" d="M94.82,29.84a2.46,2.46,0,0,1-2.7-2.73,2.73,2.73,0,0,1,2.94-3,4.85,4.85,0,0,1,1.24.16l-.1.86A4.21,4.21,0,0,0,95,25a1.8,1.8,0,0,0-1.81,2A1.74,1.74,0,0,0,95,29a3,3,0,0,0,1.23-.27l.09.85a4.29,4.29,0,0,1-1.52.27"/><rect class="cls-1" x="99.11" y="24.23" width="0.97" height="5.54"/><polygon class="cls-1" points="104.34 28.99 106.5 28.99 106.5 29.77 103.37 29.77 103.37 24.23 106.5 24.23 106.5 24.98 104.34 24.98 104.34 26.55 106.39 26.55 106.39 27.29 104.34 27.29 104.34 28.99"/><polygon class="cls-1" points="117.56 23.39 117.56 25.72 120.11 25.72 120.11 26.51 117.56 26.51 117.56 29.77 116.58 29.77 116.58 22.58 120.25 22.58 120.25 23.39 117.56 23.39"/><polygon class="cls-1" points="123.92 28.94 125.91 28.94 125.91 29.77 122.95 29.77 122.95 24.23 123.92 24.23 123.92 28.94"/><polygon class="cls-1" points="128.44 29.77 128.44 24.23 131.57 24.23 131.57 24.98 129.4 24.98 129.4 26.55 131.46 26.55 131.46 27.29 129.4 27.29 129.4 28.99 131.57 28.99 131.57 29.77 128.44 29.77"/><path class="cls-1" d="M135.91,27.32a12.11,12.11,0,0,1,.47,1.42h0c.15-.47.3-1,.47-1.38l1.23-3.12h1l-2.17,5.54h-1.11l-2.15-5.54h1.08Z"/><path class="cls-1" d="M143.51,29.85a2.49,2.49,0,0,1-2.64-2.8,2.75,2.75,0,0,1,2.81-2.91,2.5,2.5,0,0,1,2.67,2.8,2.73,2.73,0,0,1-2.84,2.91m.1-4.88a1.77,1.77,0,0,0-1.7,2c0,1.13.46,2,1.67,2a1.74,1.74,0,0,0,1.73-2c0-1.34-.66-2.06-1.7-2.06"/><polygon class="cls-1" points="149.12 29.77 149.12 24.23 150.09 24.23 150.09 28.94 152.07 28.94 152.07 29.77 149.12 29.77"/><path class="cls-1" d="M158.14,29.77l-.44-1.16h-2.46l-.44,1.16h-1L156,24.23h1.11l2.13,5.54Zm-1.35-3.61c-.12-.31-.22-.65-.31-.92h0a7.87,7.87,0,0,1-.29.9l-.68,1.75h2Z"/><path class="cls-1" d="M165.33,29.77l-2.09-3.25a9.17,9.17,0,0,1-.61-1.09h0c0,.35,0,.72,0,1.32v3h-.94V24.23H163l2.06,3.2a11.52,11.52,0,0,1,.65,1.11h0c0-.36,0-1,0-1.78V24.23h.95v5.54Z"/><path class="cls-1" d="M171.53,29.8c-.66,0-1.16,0-1.61,0V24.23l1.89,0c1.82,0,3,.8,3,2.72s-1.4,2.88-3.26,2.88m.15-4.82-.79,0v4c.17,0,.5,0,.74,0a1.88,1.88,0,0,0,2.13-2c0-1.32-.7-2-2.09-2"/><rect class="cls-2" x="29.91" y="27.29" width="15.52" height="2.47"/><path class="cls-3" d="M21,54.58a19.37,19.37,0,0,0,12.14,4.29,19.9,19.9,0,0,0,12.17-4.25V50.95a16.47,16.47,0,0,1-12.17,4.91c-5,0-8.45-1.69-12.14-4.92v3.65"/><path class="cls-4" d="M21.5,48.2l5.7-5.42s-3.26-1.47-5.35-2.25a1.51,1.51,0,0,1-.9-1.37V36.24a1.39,1.39,0,0,0,.9,1.29c4.25,2,9.05,4.54,9.05,4.54l-7,8a25.29,25.29,0,0,1-2.4-1.85"/><path class="cls-4" d="M31.24,52.89A26,26,0,0,1,28.07,52l2.63-4.73s3-5.82,9.38-5.75c.6,0,2.24.12,2.24.12s.39-2.82-5.69-3.1c-5.09-.24-7.31-3.34-8.57-4.56-1.47-1.43-5.65-3.27-6.12-3.46a1.62,1.62,0,0,1-1-1.48V25.51a1.4,1.4,0,0,0,1,1.34,62.16,62.16,0,0,1,7.38,4.57c1.41,1.25,3.93,4.67,7.7,4.66h.31c1.75,0,5.43-1.37,7.17-2.27a1.5,1.5,0,0,0,.92-.87v2.29c0,.61-.38.68-.91.92-1,.5-3.25,1.52-3.25,1.52l.49.2a5.23,5.23,0,0,1,3,3.87l.15,2.18a25.06,25.06,0,0,0-4.27-.49c-5.25,0-7.64,5.33-7.64,5.33l-1.75,4.13"/></svg>