<svg id="friesland" xmlns="http://www.w3.org/2000/svg" viewBox="0 0 190 75"><defs><style>.cls-1{fill:#0f4777;}.cls-1,.cls-2{fill-rule:evenodd;}.cls-2{fill:#eb2227;}</style></defs><title>Artboard 1</title><path class="cls-1" d="M24.92,25.34a2.41,2.41,0,0,1,1.67-1c1.41,0,2,1.16,2,3.46,0,1.93-.63,3-1.92,3a2,2,0,0,1-1.79-1V25.34Zm5.64,2.06c0-2.56-1.15-3.85-3.47-3.85a2.77,2.77,0,0,0-2.17.89v-.77H22v.77h1.27V34.84H22v.77h4.23v-.77H24.92V30.73a3.09,3.09,0,0,0,1.92.64,3.48,3.48,0,0,0,2.83-1.27,4.84,4.84,0,0,0,.89-2.7Z"/><path class="cls-1" d="M36.46,31.25v-.77H35.17V25.86a2.15,2.15,0,0,1,1.15-.9c.39,0,.78.38,1.16.9l.13.13a11.57,11.57,0,0,0,.64-1.79A1.75,1.75,0,0,0,37,23.55c-.38,0-1,.38-1.79,1.41V23.68H32.09v.77h1.41v6H32.09v.77Z"/><path class="cls-1" d="M41.58,27.53V27.4c0-2.06.77-3.08,2.31-3.08s2.31,1,2.31,3.33c0,1.93-.77,3-2.31,3s-2.17-1-2.31-3.08Zm2.31-4a4.05,4.05,0,0,0-3,1.16,3.47,3.47,0,0,0-1.15,2.69,3.73,3.73,0,0,0,1.15,2.81,4.05,4.05,0,0,0,3,1.16A4.32,4.32,0,0,0,47,30.22a3.74,3.74,0,0,0,1.16-2.81,3.66,3.66,0,0,0-1.29-2.82,4.55,4.55,0,0,0-3-1Z"/><polygon class="cls-1" points="49.54 23.68 49.54 24.45 50.44 24.45 53.39 31.38 53.77 31.38 56.34 24.45 57.36 24.45 57.36 23.68 54.41 23.68 54.41 24.45 55.57 24.45 54.03 28.69 52.23 24.45 53.26 24.45 53.26 23.68 49.54 23.68 49.54 23.68"/><path class="cls-1" d="M60.06,20.35l-.39.63c0,.77.39,1,1,1s1-.26,1-1-.27-1-1-1l-.63.39Z"/><polygon class="cls-1" points="61.73 23.68 58.77 23.68 58.77 24.45 60.06 24.45 60.06 30.48 58.77 30.48 58.77 31.25 63 31.25 63 30.48 61.73 30.48 61.73 23.68 61.73 23.68"/><path class="cls-1" d="M64.41,24.45h1.41v6H64.41v.77h4.36v-.77H67.49V25.22a3.11,3.11,0,0,1,1.8-.77c.9,0,1.4.64,1.4,1.93v4.1H69.55v.77h4.1v-.77H72.36V26.11a3.49,3.49,0,0,0-.5-1.92,1.83,1.83,0,0,0-1.66-.64,4.47,4.47,0,0,0-2.57.89l-.13.13v-.9H64.41v.77Z"/><path class="cls-1" d="M79.67,23.55h-.52l-.13.38a2.61,2.61,0,0,0-1.41-.38,2.22,2.22,0,0,0-1.79.64,2.13,2.13,0,0,0-.64,1.54c0,.9.64,1.67,1.8,2.31l.77.38a1.89,1.89,0,0,1,1,1.29c0,.64-.39,1-1.16,1a2.14,2.14,0,0,1-2-1.67h-.39v2.31h.52l.13-.5H76a3,3,0,0,0,1.8.5c1.67,0,2.56-.77,2.56-2.18l-.25-1a6.78,6.78,0,0,0-2.18-1.67c-.9-.39-1.29-.89-1.29-1.28,0-.64.39-1,1.16-1s1.28.52,1.53,1.41h.39V23.55Z"/><path class="cls-1" d="M83.79,20a1,1,0,0,0-1,1c0,.77.39,1,1.16,1s.89-.26.89-.89-.25-1.16-1-1.16Z"/><path class="cls-1" d="M81.86,23.68v.77h1.29v8.09a2.83,2.83,0,0,1-1,2.31c-.25.13-.38.25-.38.51s.13.26.38.26A2.72,2.72,0,0,0,83.52,35a4.09,4.09,0,0,0,1.28-3.2V23.68Z"/><path class="cls-1" d="M92.5,26.11H89.3c.25-1.27.64-1.92,1.67-1.92s1.54.64,1.54,1.92Zm-3.2.77h5C94,24.58,93,23.55,91,23.55c-2.31,0-3.34,1.16-3.34,3.59a4.89,4.89,0,0,0,1,3.07,4,4,0,0,0,3,1.16,5.09,5.09,0,0,0,2.69-.9l.13-.77a4.94,4.94,0,0,1-2.31.77c-1.79,0-2.81-1.15-2.81-3.59Z"/><path class="cls-1" d="M107.25,18.94l-1.15-.12c-2.82,0-4.24,1.41-4.24,4.1v.77H100.7v.9h1.16v5.9h-1.29v.77h4.49v-.77h-1.54v-5.9h1.79v-.9h-1.79V22.14c0-1.67.64-2.56,1.79-2.56.91,0,1.29.51,1.41,1.54v.13h.52V18.94Z"/><path class="cls-1" d="M106.48,23.68v.77h1.41v6h-1.41v.77h4.36v-.77h-1.29V25.86c.52-.52.9-.9,1.29-.9a1.6,1.6,0,0,1,1,.9L112,26a2.87,2.87,0,0,0,.64-1.79,2,2,0,0,0-1.27-.64c-.39,0-1,.38-1.8,1.41V23.68Z"/><polygon class="cls-1" points="120.97 24.45 121.87 24.45 121.87 23.68 119.31 23.68 119.31 24.45 120.2 24.45 118.41 29.19 116.61 24.45 117.5 24.45 117.5 23.68 113.92 23.68 113.92 24.45 114.82 24.45 117.25 30.87 115.21 35.61 116.61 35.61 120.97 24.45 120.97 24.45"/><path class="cls-1" d="M127.51,25.61h.26V23.55h-.38l-.14.38-1.41-.38a2.43,2.43,0,0,0-2.56,2.18c0,.9.64,1.67,1.92,2.31l.64.38c.77.39,1.16.91,1.16,1.29,0,.64-.52,1-1.29,1a2,2,0,0,1-1.92-1.67h-.52v2.31h.64v-.5h.25a2.88,2.88,0,0,0,1.67.5,3.15,3.15,0,0,0,1.93-.64,2.07,2.07,0,0,0,.64-1.54l-.14-1a8.37,8.37,0,0,0-2.17-1.67c-.91-.39-1.41-.89-1.41-1.28,0-.64.38-1,1.15-1s1.29.52,1.66,1.41Z"/><polygon class="cls-1" points="132.9 19.32 129.83 19.32 129.83 20.09 131.1 20.09 131.1 30.48 129.83 30.48 129.83 31.25 134.18 31.25 134.18 30.48 132.9 30.48 132.9 19.32 132.9 19.32"/><polygon class="cls-1" points="141.23 22.79 141.49 22.79 139.83 19.83 138.29 19.83 136.63 22.79 136.74 22.79 138.8 20.87 141.23 22.79 141.23 22.79"/><path class="cls-1" d="M139.31,27.65h.13v2.06a2,2,0,0,1-1.27.51c-.64,0-.91-.26-.91-1s.64-1.15,2.06-1.54Zm1.79,1.54V26.11c0-1.79-.77-2.56-2.43-2.56a4.42,4.42,0,0,0-2.83,1.16l.26.51a4.61,4.61,0,0,1,2.06-.77c.89,0,1.27.52,1.27,1.41v1l-1.67.52c-1.29.25-2,.9-2,1.93,0,1.4.63,2,1.66,2a4.82,4.82,0,0,0,2.3-1,1.5,1.5,0,0,0,1.41,1,3.67,3.67,0,0,0,1.54-.5v-.52h-.77c-.5,0-.77-.39-.77-1.16Z"/><path class="cls-1" d="M143.8,24.45h1.41v6H143.8v.77h4.37v-.77h-1.29V25.22a3.12,3.12,0,0,1,1.79-.77c.9,0,1.41.64,1.41,1.93v4.1h-1.16v.77H153v-.77h-1.29V26.11a3.39,3.39,0,0,0-.51-1.92,2,2,0,0,0-1.67-.64,4.41,4.41,0,0,0-2.56.89l-.13.13v-.9H143.8v.77Z"/><path class="cls-1" d="M100.84,40.1v.77h1.27v6h-1.27v.64h4.36v-.64h-1.42v-6h1.8V40.1h-1.8V38.56c0-1.68.65-2.57,1.8-2.57.77,0,1.29.52,1.41,1.41v.25h.51V35.35h-.13l-1-.13c-3,0-4.24,1.29-4.24,4.11v.77Z"/><path class="cls-1" d="M106.6,40.1v.77H108v6H106.6v.64h4.49v-.64h-1.29V42.27a1.7,1.7,0,0,1,1.16-.9c.39,0,.77.26,1.15.9a.13.13,0,0,0,.14.13,17.6,17.6,0,0,0,.64-1.79c-.52-.51-.91-.77-1.29-.77s-1,.52-1.8,1.54V40.1Z"/><polygon class="cls-1" points="114.05 40.1 114.05 40.87 114.94 40.87 117.5 47.28 115.33 52.02 116.73 52.02 121.1 40.87 121.99 40.87 121.99 40.1 119.43 40.1 119.43 40.87 120.47 40.87 118.54 45.62 116.73 40.87 117.64 40.87 117.64 40.1 114.05 40.1 114.05 40.1"/><path class="cls-1" d="M126.23,42.92c-.9-.52-1.29-.9-1.29-1.41s.25-.9,1.16-.9a1.5,1.5,0,0,1,1.54,1.29H128V39.84h-.52v.39L126,39.84A2.42,2.42,0,0,0,123.53,42c0,.9.64,1.66,1.93,2.43l.64.39c.77.38,1,.77,1,1.28s-.39.91-1.29.91-1.54-.52-1.92-1.68h-.39V47.8H124l.13-.52h.13a5.15,5.15,0,0,0,1.8.38A2.23,2.23,0,0,0,127.9,47a1.83,1.83,0,0,0,.77-1.54l-.25-.91a5.53,5.53,0,0,0-2.18-1.66Z"/><polygon class="cls-1" points="129.95 36.51 131.37 36.51 131.37 46.89 129.95 46.89 129.95 47.53 134.31 47.53 134.31 46.89 133.03 46.89 133.03 35.74 129.95 35.74 129.95 36.51 129.95 36.51"/><polygon class="cls-1" points="141.49 39.07 141.75 39.07 139.96 36.24 138.42 36.24 136.74 39.07 137 39.07 139.06 37.28 141.49 39.07 141.49 39.07"/><path class="cls-1" d="M139.56,44.08h.13V46a2.81,2.81,0,0,1-1.28.64.94.94,0,0,1-1-1c0-.77.63-1.29,2.17-1.54Zm-3.46-3,.13.52a4.88,4.88,0,0,1,2.18-.77c.77,0,1.28.38,1.28,1.4v1l-1.66.38c-1.4.39-2.06,1-2.06,2.06,0,1.29.52,1.92,1.68,1.92a3.08,3.08,0,0,0,2.18-1c.38.77.77,1,1.4,1a3.17,3.17,0,0,0,1.68-.51v-.52h-.14a1.13,1.13,0,0,1-.63.13c-.52,0-.91-.38-.91-1.15V42.54c0-1.8-.63-2.7-2.3-2.7a4,4,0,0,0-2.83,1.29Z"/><path class="cls-1" d="M144.06,40.87h1.41v6h-1.41v.64h4.24v-.64H147V41.64a3.07,3.07,0,0,1,1.92-.77c.91,0,1.29.63,1.29,1.92v4.1h-1.15v.64h4.23v-.64h-1.41V42.54a4.6,4.6,0,0,0-.38-2.06,2.76,2.76,0,0,0-1.66-.64,5.07,5.07,0,0,0-2.7,1H147V40.1h-3v.77Z"/><path class="cls-1" d="M24.65,41.38a2.43,2.43,0,0,1,1.79-.9c1.29,0,2.06,1.16,2.06,3.33s-.63,3-1.92,3a2.44,2.44,0,0,1-1.93-1V41.38Zm-3-.9h1.41V50.88H21.7v.77h4.36v-.77H24.65v-4a5.26,5.26,0,0,0,1.93.52,3.14,3.14,0,0,0,2.82-1.29,3.64,3.64,0,0,0,.9-2.69q0-3.84-3.47-3.85a3.45,3.45,0,0,0-2.18.89v-.77h-3v.77Z"/><path class="cls-1" d="M36.19,41c.39,0,.77.38,1.16.9v.25l.77-1.92a2.35,2.35,0,0,0-1.28-.64c-.52,0-1.15.38-1.79,1.41h-.13V39.71H32v.77h1.29v6H32v.77h4.35v-.77h-1.4V41.89c.64-.52,1-.9,1.27-.9Z"/><path class="cls-1" d="M41.45,43.56v-.13c0-2.06.77-3.08,2.18-3.08,1.66,0,2.43,1,2.43,3.33,0,1.93-.77,3-2.31,3s-2.31-1-2.31-3.08Zm5.26-3a4.65,4.65,0,0,0-3.08-1,3.78,3.78,0,0,0-2.83,1.15,3.49,3.49,0,0,0-1.15,2.7,3.79,3.79,0,0,0,1.15,2.83,3.88,3.88,0,0,0,3,1.15,4.06,4.06,0,0,0,3-1.15,3.79,3.79,0,0,0,1.15-2.83,4,4,0,0,0-1.15-2.82Z"/><polygon class="cls-1" points="49.29 39.71 49.29 40.48 50.31 40.48 53.26 47.41 53.64 47.41 56.08 40.48 57.1 40.48 57.1 39.71 54.28 39.71 54.28 40.48 55.43 40.48 53.9 44.71 52.1 40.48 53 40.48 53 39.71 49.29 39.71 49.29 39.71"/><path class="cls-1" d="M59.8,36.38l-.25.63c0,.78.25,1,1,1s1-.25,1-1-.39-.9-1-.9l-.77.26Z"/><polygon class="cls-1" points="58.52 40.48 59.92 40.48 59.92 46.51 58.52 46.51 58.52 47.28 62.87 47.28 62.87 46.51 61.6 46.51 61.6 39.71 58.52 39.71 58.52 40.48 58.52 40.48"/><path class="cls-1" d="M64.29,40.48h1.28v6H64.29v.77h4.24v-.77H67.36V41.38a2.58,2.58,0,0,1,1.79-.77c.9,0,1.29.64,1.29,1.79v4.11H69.29v.77h4.23v-.77H72.11V42.15a2.62,2.62,0,0,0-.52-1.92c-.25-.52-.9-.64-1.54-.64a5.11,5.11,0,0,0-2.69.89v-.77H64.29v.77Z"/><path class="cls-1" d="M80.44,40a5.25,5.25,0,0,0-1.92-.38,3.13,3.13,0,0,0-2.57,1,3.89,3.89,0,0,0-1,2.7,4.07,4.07,0,0,0,1.15,3,3.23,3.23,0,0,0,2.57,1.15,4.11,4.11,0,0,0,2.56-.9,1.51,1.51,0,0,0,.38-.52v-.13l-.12-.13c0-.13,0-.13-.14-.13h-.13v.13a4.33,4.33,0,0,1-1.93.64c-1.67,0-2.43-1.16-2.43-3.34a3,3,0,0,1,.52-2,1.61,1.61,0,0,1,1.41-.77c.9,0,1.54.51,1.79,1.67h.52V39.59h-.52l-.13.38Z"/><path class="cls-1" d="M84.42,36.38,84,37c0,.78.38,1,1,1s1-.25,1-1-.25-.9-1-.9l-.64.26Z"/><polygon class="cls-1" points="83.14 40.48 84.42 40.48 84.42 46.51 83.14 46.51 83.14 47.28 87.37 47.28 87.37 46.51 86.08 46.51 86.08 39.71 83.14 39.71 83.14 40.48 83.14 40.48"/><path class="cls-1" d="M94.17,42.15H91c0-1.27.52-1.92,1.54-1.92s1.54.64,1.67,1.92Zm-3.2.77h4.87c-.25-2.31-1.41-3.33-3.33-3.33-2.18,0-3.34,1.15-3.34,3.59a4.7,4.7,0,0,0,1,3.08,3.87,3.87,0,0,0,3,1.15,4.42,4.42,0,0,0,2.56-.9h.13l.14-.77a4.88,4.88,0,0,1-2.32.77c-1.79,0-2.69-1.16-2.69-3.59Z"/><path class="cls-2" d="M162.27,40.48a5.57,5.57,0,0,0-3.08,4.1c-.77,3.85.39,6.8,3.6,8.73a8,8,0,0,0,2.88,1.23h2.76l.38-.08a8.73,8.73,0,0,0,4.1-1.92A5.61,5.61,0,0,0,175,47.8a4.08,4.08,0,0,0-2.18-3.22c-1.16-.63-2.7-.25-4.61,1.41-.27.26-.64.39-.78.26s-.25-.39-.11-.77c.5-2.45.11-4-1.16-4.75a3.78,3.78,0,0,0-3.85-.25Z"/></svg>