<svg id="limburg" xmlns="http://www.w3.org/2000/svg" viewBox="0 0 190 75"><defs><style>.cls-1{fill:#231f20;}.cls-2,.cls-6{fill:#fff;}.cls-2{fill-rule:evenodd;}.cls-3{fill:#eeb211;}.cls-4{fill:#b3b5be;}.cls-5{fill:#0060a9;}.cls-7{fill:none;stroke:#231f20;stroke-width:0.02px;}.cls-8{fill:#e13a3e;}.cls-9{fill:#bbbdbf;}.cls-10{fill:#8b1d1e;}.cls-11{fill:#a5802d;}.cls-12{fill:#1a315d;}.cls-13{fill:#72747a;}.cls-14{fill:#636467;}.cls-15{fill:#e6e7e7;}</style></defs><title>Artboard 1</title><path class="cls-1" d="M20.68,28.2h.91v1.55h0A3,3,0,0,1,24.52,28c2.47,0,3.66,2,3.66,4.3s-1.18,4.3-3.66,4.3a2.9,2.9,0,0,1-2.82-1.78h0v4.56h-1Zm3.85.6c-2.19,0-2.85,1.62-2.85,3.47,0,1.69.74,3.47,2.85,3.47,1.89,0,2.67-1.78,2.67-3.47S26.42,28.8,24.52,28.8Z"/><path class="cls-1" d="M30.61,28.2h.92v1.91h0a3,3,0,0,1,3.08-2v1a2.8,2.8,0,0,0-3,2.92v4.33h-1Z"/><path class="cls-1" d="M43.45,32.27c0,2.33-1.36,4.3-3.85,4.3s-3.85-2-3.85-4.3S37.11,28,39.6,28,43.45,29.94,43.45,32.27Zm-6.7,0c0,1.73.95,3.47,2.85,3.47s2.85-1.74,2.85-3.47-.94-3.47-2.85-3.47S36.74,30.53,36.74,32.27Z"/><path class="cls-1" d="M44.88,28.2H46l2.55,7.14h0l2.52-7.14h1l-3,8.13H48Z"/><path class="cls-1" d="M54,25.08h1v1.59H54Zm0,3.12h1v8.13H54Z"/><path class="cls-1" d="M57.73,28.2h1v1.4h0A2.76,2.76,0,0,1,61.36,28c2.29,0,3,1.2,3,3.14v5.23h-1V31.26c0-1.4-.46-2.46-2.07-2.46a2.57,2.57,0,0,0-2.55,2.79v4.74h-1Z"/><path class="cls-1" d="M72.82,30.76a2.21,2.21,0,0,0-2.3-2c-1.91,0-2.85,1.73-2.85,3.47s.94,3.47,2.85,3.47a2.42,2.42,0,0,0,2.37-2.32h1a3.31,3.31,0,0,1-3.36,3.15c-2.49,0-3.85-2-3.85-4.3S68,28,70.51,28a3,3,0,0,1,3.3,2.79Z"/><path class="cls-1" d="M76.14,25.08h1v1.59h-1Zm0,3.12h1v8.13h-1Z"/><path class="cls-1" d="M80.5,32.54c0,1.45.77,3.2,2.68,3.2a2.48,2.48,0,0,0,2.55-2.08h1a3.32,3.32,0,0,1-3.55,2.92c-2.59,0-3.67-2-3.67-4.3,0-2.14,1.09-4.3,3.67-4.3s3.66,2.29,3.58,4.57Zm5.27-.83a2.73,2.73,0,0,0-2.59-2.9c-1.62,0-2.52,1.42-2.68,2.9Z"/><path class="cls-1" d="M94.72,25.08h1V36.34h-1Z"/><path class="cls-1" d="M98.5,25.08h1v1.59h-1Zm0,3.12h1v8.13h-1Z"/><path class="cls-1" d="M102.27,28.2h.91v1.37h0A2.84,2.84,0,0,1,105.9,28a2.26,2.26,0,0,1,2.33,1.59A2.75,2.75,0,0,1,110.82,28c1.78,0,2.7.93,2.7,2.85v5.52h-1V30.87c0-1.34-.5-2.07-1.92-2.07-1.72,0-2.21,1.42-2.21,2.93v4.6h-1V30.82c0-1.1-.44-2-1.7-2-1.72,0-2.41,1.29-2.43,3v4.54h-1Z"/><path class="cls-1" d="M116.27,25.08h1v4.67h0A2.9,2.9,0,0,1,120.12,28c2.47,0,3.66,2,3.66,4.3s-1.18,4.3-3.66,4.3a3,3,0,0,1-2.9-1.78h0v1.54h-.91Zm3.85,3.72c-2.11,0-2.85,1.78-2.85,3.47s.74,3.47,2.85,3.47c1.89,0,2.67-1.78,2.67-3.47S122,28.8,120.12,28.8Z"/><path class="cls-1" d="M132.78,36.34h-.91V34.87h0a3,3,0,0,1-2.81,1.7c-2,0-2.85-1.2-2.85-3.09V28.2h1v5.3c0,1.47.6,2.24,2.17,2.24s2.44-1.61,2.44-3.26V28.2h1Z"/><path class="cls-1" d="M135.52,28.2h.92v1.91h0a3,3,0,0,1,3.07-2v1a2.8,2.8,0,0,0-3,2.92v4.33h-1Z"/><path class="cls-1" d="M148.23,35.68c0,2.43-.95,3.91-3.61,3.91-1.62,0-3.23-.72-3.37-2.46h1a2.14,2.14,0,0,0,2.38,1.62c1.83,0,2.62-1.09,2.62-3.08v-1.1h0a2.82,2.82,0,0,1-2.59,1.67c-2.6,0-3.67-1.86-3.67-4.18s1.32-4.1,3.67-4.1a2.87,2.87,0,0,1,2.59,1.64h0V28.2h1Zm-1-3.5c0-1.59-.74-3.37-2.62-3.37s-2.68,1.69-2.68,3.37.85,3.23,2.68,3.23S147.24,33.83,147.24,32.18Z"/><path class="cls-2" d="M169,20.3h-1.4l.11.31-.3-.07v1.29l.25-.05a.84.84,0,0,0-.31.6,2.78,2.78,0,0,0,.15.61h0s0-.28-.18-.33a.83.83,0,0,0-.4,0,.4.4,0,0,0-.2-.19,1.06,1.06,0,0,0-.39,0s-.18-.18-.33-.16a.8.8,0,0,0-.31.18s-.23-.2-.43-.08a.34.34,0,0,0-.2.29s-.29-.07-.39.11a.75.75,0,0,0-.05.42s-.29.11-.25.36.13.3.13.3a.34.34,0,0,0-.14.28.8.8,0,0,0,.23.34s-.07.26,0,.36a1.09,1.09,0,0,0,.2.19,4.77,4.77,0,0,0,0,.94,2.22,2.22,0,0,0,.36,1,1.18,1.18,0,0,0,.27.23v.57h-5.49V45.65a3.36,3.36,0,0,0,.8,2.24,3.1,3.1,0,0,0,1.82.74h2.73a2.72,2.72,0,0,1,1.72.6A4,4,0,0,1,168.29,51a3.48,3.48,0,0,1,1.39-1.77,4.44,4.44,0,0,1,2.27-.5c.85,0,1.85,0,1.85,0a3.08,3.08,0,0,0,2.1-.8,2.64,2.64,0,0,0,.79-2.21V27.76h-5.44v-.44a2.89,2.89,0,0,0,.54-.8,4.51,4.51,0,0,0,.1-1.33s.29-.3.23-.45l-.06-.15s.23-.19.22-.37a.33.33,0,0,0-.1-.25s.16-.22.13-.37a.65.65,0,0,0-.22-.29s0-.31,0-.41-.42-.13-.42-.13a.33.33,0,0,0-.1-.22.37.37,0,0,0-.37-.09.44.44,0,0,0-.16.1s-.07-.14-.14-.16-.29-.07-.38,0l-.1.11s-.23-.13-.36-.07a.93.93,0,0,0-.25.2.32.32,0,0,0-.24-.05c-.15,0-.32.19-.32.31V23l-.13,0a1,1,0,0,0,.23-.55,2,2,0,0,0-.38-.7l-.06-.06.32.16V20.53l-.33.14.18-.37Z"/><polygon class="cls-3" points="168.24 28.12 176.26 28.12 176.26 38.04 168.24 38.04 168.24 28.12 168.24 28.12"/><polygon class="cls-4" points="160.21 38.04 160.21 28.12 168.24 28.12 168.24 38.05 160.21 38.04 160.21 38.04"/><path class="cls-3" d="M168.24,49.87a2.76,2.76,0,0,0-.53-.64l-.26-.22a3.7,3.7,0,0,0-2.17-.77h-2.66a2.45,2.45,0,0,1-2.4-2.57V38h8V49.87Z"/><path class="cls-5" d="M168.24,49.87A3,3,0,0,1,169,49a3.7,3.7,0,0,1,2.17-.77h2.66a2.44,2.44,0,0,0,2.4-2.57V38h-8V49.87Z"/><path class="cls-1" d="M174.37,32c0-.06,0-.14,0-.23a.72.72,0,0,0,.52-.49l0-.08,0-.07.22.11.08-.26c.18-.57.08-.93-.1-1.12L175,30c.13.13.19.41,0,.89-.25-.13-.28.1-.34.3a.48.48,0,0,1-.5.35c-.11.81,0,.8,0,.8l.21-.36Z"/><path class="cls-6" d="M175,32.11a1.35,1.35,0,0,0-.82.22l.21-.36a1.81,1.81,0,0,1,.62-.08h.2l-.21.21Z"/><path class="cls-6" d="M174.44,29.78a.53.53,0,0,1,.52-.08.54.54,0,0,1,.2.13L175,30a.32.32,0,0,0-.52.12l0-.32Z"/><path class="cls-6" d="M169.63,29.76l-.05.25a2.88,2.88,0,0,0,0,1.18h0l-.14.1.27.09.15-.11a2.38,2.38,0,0,1-.06-1.22l-.17-.29Z"/><path class="cls-1" d="M170.79,31.4s-.53-.28-.55-.44c-.06-.34.23-.7-.44-.91l-.17-.29.24.08c.66.21.62.61.59.88a1.21,1.21,0,0,0,0,.19h0a1.39,1.39,0,0,0,.29.22l0,.29Z"/><path class="cls-6" d="M171.5,30.91a1.19,1.19,0,0,0-.75.21h0l0,.29c.28-.4,1-.22,1.14-.25s.26-.46,0-.44a.8.8,0,0,1-.27,0l-.18.17Z"/><path class="cls-6" d="M163.53,30.91a1.18,1.18,0,0,0-.75.21h0l0,.29c.28-.4,1-.22,1.14-.25s.26-.46,0-.44a.8.8,0,0,1-.27,0l-.18.17Z"/><path class="cls-1" d="M170.28,32.18a1.43,1.43,0,0,1-.79-.73l-.06-.16.27.09a1.31,1.31,0,0,0,.8.65l-.23.15Z"/><line class="cls-7" x1="165.48" y1="27.15" x2="168.24" y2="27.15"/><path class="cls-4" d="M163.74,40.95a2.6,2.6,0,0,0,0-.38h.32a3,3,0,0,1,0,.38Z"/><path class="cls-8" d="M164.08,40.95c-.07.92-.67,1.23-1.09,1.22a1.08,1.08,0,0,1-1.15-1.09h.7a.52.52,0,0,0,.57.45.59.59,0,0,0,.62-.58Z"/><path class="cls-8" d="M163.76,40.57a.32.32,0,0,1,0-.47h.32a.31.31,0,0,1,0,.47Z"/><polygon class="cls-4" points="163.76 40.1 163.76 39.72 164.07 39.72 164.07 40.1 163.76 40.1 163.76 40.1"/><path class="cls-8" d="M163.76,39.72a1,1,0,0,1-.12-.63h.56a1,1,0,0,1-.13.63Z"/><path class="cls-6" d="M165.47,25.66a3.27,3.27,0,0,1,.76-.59v-.23a3.25,3.25,0,0,0-.76.59v.23Z"/><path class="cls-9" d="M164.79,25.39a1.5,1.5,0,0,1,.67.28v-.23a1.49,1.49,0,0,0-.67-.28v.23Z"/><path class="cls-6" d="M167.42,25.76c.11-.13.49-.65.83-.78v-.23c-.34.13-.71.65-.83.78v.23Z"/><path class="cls-9" d="M166.22,25.08a3.39,3.39,0,0,1,1.19.68v-.23a3.41,3.41,0,0,0-1.19-.68v.23Z"/><path class="cls-6" d="M169.06,25.76a3.39,3.39,0,0,1,1.19-.68v-.23a3.41,3.41,0,0,0-1.19.68v.23Z"/><path class="cls-9" d="M168.24,25c.34.13.7.65.81.78v-.23c-.11-.13-.48-.65-.81-.78V25Z"/><path class="cls-6" d="M171,25.66a1.48,1.48,0,0,1,.67-.28v-.23a1.47,1.47,0,0,0-.67.28v.23Z"/><path class="cls-9" d="M170.25,25.08a3.34,3.34,0,0,1,.76.59v-.23a3.31,3.31,0,0,0-.76-.59v.23Z"/><path class="cls-8" d="M167.75,25.14c-.15.16-.28.33-.33.39a3.41,3.41,0,0,0-1.19-.68,2.78,2.78,0,0,0-.46.31c-.18-.23-.76-1.37-.43-1.7s1.12,0,1.78.2l.42.14.22,1.33Z"/><path class="cls-8" d="M168.73,25.14c.15.16.27.33.33.39a3.41,3.41,0,0,1,1.19-.68,2.7,2.7,0,0,1,.46.31c.18-.23.76-1.37.43-1.7s-1.12,0-1.78.2l-.42.14-.22,1.33Z"/><path class="cls-8" d="M165.1,37.12c0-.24.05-.35.15-.4v.4Z"/><polygon class="cls-10" points="165.25 37.12 165.1 37.12 164.87 37.35 165.02 37.35 165.25 37.12 165.25 37.12"/><path class="cls-10" d="M171.43,30.23s-.61.17-.76-.33l-.31-.26.1.32a.75.75,0,0,0,.87.52l.11-.25Z"/><path class="cls-1" d="M171.32,30.48h0a.34.34,0,0,0,0,.07.44.44,0,0,0,.18.35l.18-.17c-.13,0-.19-.27-.07-.29s.2,0,.28,0,.08-.23.05-.28-.33,0-.45-.09l-.09.09,0,.07-.11.25Z"/><path class="cls-10" d="M163.42,30.16l0,.07s-.61.17-.76-.33l-.31-.26.1.32a.75.75,0,0,0,.87.52h0a.34.34,0,0,0,0,.07.45.45,0,0,0,.18.35l.18-.17c-.13,0-.19-.27-.07-.29s.2,0,.28,0,.08-.23,0-.28-.33,0-.45-.09l-.09.09Z"/><path class="cls-6" d="M172.29,29h0a.86.86,0,0,0-.5.39l-.06.08s-.1,0-.14,0-.29,0-.33.21v0a.84.84,0,0,0-.29,0h-.24l-.33,0,.31.26c.45,0,.55,0,.72.26l.09-.09c-.08,0-.06-.22,0-.32s.32,0,.41-.14.26-.38.44-.41h.91l.37-.22Z"/><path class="cls-8" d="M171.43,30.23s-.61.17-.76-.33c.45,0,.55,0,.72.26l0,.07Z"/><path class="cls-8" d="M163.46,30.23s-.61.17-.76-.33c.45,0,.55,0,.72.26l0,.07Z"/><path class="cls-6" d="M174.07,42.33a1.24,1.24,0,0,1,.36-.13,4.73,4.73,0,0,0,.16-.73l-.24.06a3,3,0,0,0-.08.55l-.2.25Z"/><path class="cls-11" d="M174.07,42.33s-.08,0,0-.8c0,0,.23,0,.24-.35a.61.61,0,0,0,.25.29l-.24.06a3,3,0,0,0-.08.55l-.2.25Z"/><path class="cls-3" d="M174.34,41.18a.61.61,0,0,0,.25.29,4.73,4.73,0,0,1-.16.73,1.24,1.24,0,0,0-.36.13s-.08,0,0-.8c0,0,.23,0,.24-.35Zm-4.17.65H170a1.86,1.86,0,0,0,.41.22v.51h.42s-.12.64-.51.64-.39-.39-.69-.43-.17,0-.4.09c0,0,.59.86.84.89v.17a1.76,1.76,0,0,0,1.13-.57,11.48,11.48,0,0,0,1.05.71c-2,.23-2.07,0-1.95,2.14,0,.19,0,.44-.21.48-.7.13-1.12-.19-1.11.48l.23-.23.23.23.23-.23.23.23.23-.23.23.23h.15a.24.24,0,0,0,.23-.31h.38V45.67c.07-.72.84-.79,1.24-.76,0,0-.18,1.1.66,1h1a.27.27,0,0,1,.19.08.25.25,0,0,1,.08.15c0,.19,0,.44-.22.48-.69.13-1.12-.19-1.11.48l.23-.23.23.23.23-.23.23.23.23-.23.23.23h.16a.25.25,0,0,0,.23-.31h.37a1.82,1.82,0,0,0-.06-.75c-.09-.27-.79-.3-1-.46s-.16-.65-.16-1v-.08a1,1,0,0,0,.54-1c.58-.14.48-1.4.48-1.4a.22.22,0,0,0-.19,0,3.47,3.47,0,0,0,.12-.72c.42-.15.25-.82.25-1.06a1.9,1.9,0,0,1,.1-.56.87.87,0,0,0-.79.28c-.12-.23-.68-.18-.68-.18a4.63,4.63,0,0,1,0,1,.75.75,0,0,0,.15.5,2.54,2.54,0,0,0-.07.51c-.12.94.29,1,.3,1.47a.82.82,0,0,1-.31.72,1.35,1.35,0,0,0-.7-.62c-.54-.27-.43-1-.44-1.06h.62a2.27,2.27,0,0,0-.09-.93h.15a4.44,4.44,0,0,0-.2-1.07h.16a2.38,2.38,0,0,0-.28-1.08l.09-.18-.17-.11s-.19.28-.31.19,0-.31.07-.35l-.24-.17-.24.17s.21.27,0,.37-.25-.11-.28-.21l-.25.14.13.16s-.1,0-.26.25-.18,0-.23.09,0,.29,0,.32.37,0,.45.1.06.25,0,.27-.18,0-.28,0-.06.27.07.29a.79.79,0,0,0,.27,0c.24,0,.19.38,0,.44a6.29,6.29,0,0,0-.7,0,1.08,1.08,0,0,1-1,.66Z"/><path class="cls-6" d="M176.26,28.12H160.21V45.67a2.54,2.54,0,0,0,.71,1.86l-.16.16a2.77,2.77,0,0,1-.78-2V27.9h16.51l-.23.23Z"/><path class="cls-12" d="M176.26,38v7.63a2.44,2.44,0,0,1-2.4,2.57H171.2A3.7,3.7,0,0,0,169,49a3,3,0,0,0-.79.86v.74c0-.91,1.48-2.14,3-2.14h2.66a2.67,2.67,0,0,0,2.63-2.8V38Z"/><polygon class="cls-11" points="176.49 38.04 176.49 28.12 176.49 27.9 176.26 28.12 176.26 38.04 176.49 38.04 176.49 38.04"/><path class="cls-10" d="M162.85,41.22a.56.56,0,0,1-.1-.42.58.58,0,0,0,.07-.76,1.29,1.29,0,0,1,.33-.81l.29-.37-.47.23a1.51,1.51,0,0,0-.38,1,.36.36,0,0,1-.06.56.82.82,0,0,0,.15.7l.16-.16Z"/><path class="cls-10" d="M164.39,38.86l0,.18a1.24,1.24,0,0,1-.12.73V40a.52.52,0,0,1,.1.28.56.56,0,0,1-.1.36,1.8,1.8,0,0,1-.42,1.37,1.24,1.24,0,0,1-.9.38,1.35,1.35,0,0,1-1-.39l.16-.16a1.13,1.13,0,0,0,.84.32c.46,0,1.17-.38,1.09-1.6a.32.32,0,0,0,0-.47v-.38a1,1,0,0,0,.13-.63l.19-.22Z"/><path class="cls-6" d="M163.44,38.86l0,.19a1.26,1.26,0,0,0,.12.73V40a.52.52,0,0,0-.1.28.56.56,0,0,0,.1.36c0,.62-.21.63-.44.65a.29.29,0,0,1-.24-.08l-.16.16a.51.51,0,0,0,.42.15c.4,0,.65-.18.65-1h0a.32.32,0,0,1,0-.47v-.38a1,1,0,0,1-.12-.63h.56l.19-.22h-1"/><path class="cls-6" d="M161.39,39.09H163l.47-.23h-2.52l.29.37a1.29,1.29,0,0,1,.33.81.58.58,0,0,0,.06.74A1.72,1.72,0,0,0,162,42l.16-.16a1.55,1.55,0,0,1-.33-1.17.36.36,0,0,1-.06-.56,1.52,1.52,0,0,0-.38-1Z"/><path class="cls-4" d="M163.66,46a2.75,2.75,0,0,1,0-.4h.71a1.07,1.07,0,0,0,0,.4Z"/><path class="cls-4" d="M165.56,45.87a2.6,2.6,0,0,0,0-.38h.32a2.6,2.6,0,0,1,0,.38Z"/><path class="cls-8" d="M165.9,45.87c-.07.93-.67,1.23-1.08,1.22A1.08,1.08,0,0,1,163.66,46h.7a.52.52,0,0,0,.57.45.59.59,0,0,0,.62-.58Z"/><path class="cls-8" d="M165.58,45.49a.32.32,0,0,1,0-.47h.32a.31.31,0,0,1,0,.47Z"/><polygon class="cls-4" points="165.58 45.02 165.58 44.64 165.89 44.64 165.89 45.02 165.58 45.02 165.58 45.02"/><path class="cls-8" d="M165.58,44.64a1,1,0,0,1-.12-.63H166a1,1,0,0,1-.13.63Z"/><path class="cls-8" d="M163.59,45a.36.36,0,0,0,.06.56h.71a.36.36,0,0,0,.06-.56Z"/><path class="cls-8" d="M163.54,44.64a1.72,1.72,0,0,0-.33-.62h1.59a1.75,1.75,0,0,0-.33.62Z"/><path class="cls-4" d="M164.46,44.64a1.53,1.53,0,0,0,0,.4h-.83a1.53,1.53,0,0,0,0-.4Z"/><path class="cls-10" d="M164.67,46.14a.56.56,0,0,1-.1-.42.57.57,0,0,0,.07-.76,1.31,1.31,0,0,1,.33-.81l.29-.37-.47.23a1.51,1.51,0,0,0-.38,1,.36.36,0,0,1-.06.56.81.81,0,0,0,.15.7l.16-.16Z"/><path class="cls-10" d="M166.21,43.79l0,.18a1.26,1.26,0,0,1-.12.73v.23a.52.52,0,0,1,.1.28.55.55,0,0,1-.1.36,1.8,1.8,0,0,1-.42,1.37,1.25,1.25,0,0,1-.9.38,1.36,1.36,0,0,1-1-.39l.16-.16a1.15,1.15,0,0,0,.84.32c.46,0,1.16-.38,1.08-1.6a.31.31,0,0,0,0-.47v-.38A1,1,0,0,0,166,44l.19-.22Z"/><path class="cls-6" d="M165.26,43.79l0,.18a1.22,1.22,0,0,0,.12.73v.23a.5.5,0,0,0-.1.28.55.55,0,0,0,.1.36c0,.62-.22.63-.44.65a.29.29,0,0,1-.24-.08l-.16.16a.5.5,0,0,0,.42.15c.4,0,.66-.18.65-1h0a.32.32,0,0,1,0-.47v-.38a1,1,0,0,1-.12-.63H166l.19-.22h-1"/><path class="cls-6" d="M163.21,44h1.59l.47-.23h-2.52l.29.37a1.31,1.31,0,0,1,.33.81.58.58,0,0,0,.06.74,1.72,1.72,0,0,0,.4,1.23l.16-.16a1.55,1.55,0,0,1-.33-1.17.36.36,0,0,1-.06-.56,1.51,1.51,0,0,0-.38-1Z"/><polygon class="cls-8" points="165.71 27.38 170.77 27.38 170.77 27.67 165.71 27.67 165.71 27.38 165.71 27.38"/><path class="cls-9" d="M164.9,25a4.84,4.84,0,0,1-.2-.53h0a.28.28,0,0,0-.14.25.29.29,0,0,0,.29.29Z"/><path class="cls-9" d="M171.78,24.5a4.3,4.3,0,0,1-.2.53h.06a.29.29,0,0,0,.14-.54Z"/><path class="cls-6" d="M168.12,23.08l-.33.33c-.78-.24-1.92-.77-2.61-.39-.9.51,0,2.2.13,2.31a1.59,1.59,0,0,0-.33-.13h0a3,3,0,0,1-.38-1.7,1,1,0,0,1,.48-.68,3.11,3.11,0,0,1,2.36.22l.3.1.4-.07Z"/><path class="cls-11" d="M171.61,23a1,1,0,0,1,.27.52,3,3,0,0,1-.38,1.7,1.6,1.6,0,0,0-.33.13h0c.08-.1.91-1.58.29-2.19l.16-.16Z"/><path class="cls-6" d="M171.3,23.29h0c.51.5-.33,1.9-.42,2h0l-.17-.15c.18-.23.76-1.38.43-1.7h0l.16-.16Z"/><path class="cls-11" d="M171.13,23.45c-.31-.28-1.12,0-1.77.21l-.42.14-.22,1.33h0l-.2-.2h0l.21-1.31c.82-.24,2-.82,2.55-.33l-.16.16Z"/><path class="cls-6" d="M167.73,23.63l.22,1.31h0l-.2.19h0l-.22-1.33.2-.18Z"/><path class="cls-11" d="M167.53,23.8l-.42-.14c-.66-.22-1.47-.5-1.78-.2s.26,1.47.43,1.7h0l-.18.15h0c-.09-.11-.93-1.51-.42-2s1.73.09,2.56.33l-.2.18Z"/><polygon class="cls-10" points="165.71 27.67 165.48 27.9 170.99 27.9 170.99 27.15 170.77 27.38 170.77 27.67 165.71 27.67 165.71 27.67"/><polygon class="cls-6" points="170.77 27.38 170.99 27.15 165.48 27.15 165.48 27.9 165.71 27.67 165.71 27.38 170.77 27.38 170.77 27.38"/><path class="cls-6" d="M163.51,30.07c-.08,0-.07-.22,0-.32s.17,0,.23-.09.27-.23.27-.23l-.14-.18.25-.15-.17-.16-.2.11-.23.13.15.2h0l-.09.1a.06.06,0,0,1,0,0,.19.19,0,0,0-.24.14.46.46,0,0,0,0,.07.86.86,0,0,0-.29,0h-.24l-.33,0,.31.26c.45,0,.55,0,.72.26l.09-.09Z"/><path class="cls-10" d="M167.32,42.06a1.24,1.24,0,0,1-.85.33,1.35,1.35,0,0,1-1-.39l.18-.18a1.12,1.12,0,0,0,.86.34,1,1,0,0,0,.75-.35l.06.24Z"/><path class="cls-13" d="M167.26,41.82h-1a1.08,1.08,0,0,1-.74-.31l.15-.17a.85.85,0,0,0,.59.25h.91a1.21,1.21,0,0,1,.9.45l-.31.31a1,1,0,0,0-.49-.29l-.06-.24Z"/><path class="cls-6" d="M170.19,42.77v-.59l-.26-.14.07-.23a1.86,1.86,0,0,0,.41.22v.51l-.23.23Z"/><polygon class="cls-11" points="170.84 42.55 170.42 42.55 170.19 42.77 170.42 42.77 170.54 42.77 170.84 42.55 170.84 42.55"/><path class="cls-6" d="M168.88,42.73l.29-.1.13,0a.63.63,0,0,1,.37-.05.58.58,0,0,1,.4.26.3.3,0,0,0,.29.17c.07,0,.13-.08.18-.19l.31-.23s-.12.64-.51.64-.39-.39-.69-.43-.17,0-.4.09l-.36-.12Z"/><path class="cls-11" d="M170.08,43.73c-.25,0-.84-.89-.84-.89l-.36-.12.17.25s.16.22.34.45a2.11,2.11,0,0,0,.47.46l.22-.15Z"/><polygon class="cls-6" points="169.87 44.14 169.86 43.9 169.86 43.88 170.08 43.73 170.09 43.9 169.87 44.14 169.87 44.14"/><path class="cls-11" d="M172.27,44a11.48,11.48,0,0,1-1.05-.71,1.76,1.76,0,0,1-1.13.57l-.22.24h.23a2,2,0,0,0,1.14-.5l.35.25.67.16Z"/><path class="cls-6" d="M168.77,47.36v-.23a.73.73,0,0,1,.16-.53.78.78,0,0,1,.61-.15,2.33,2.33,0,0,0,.48,0c.09,0,.09-.07.08-.25-.06-1-.06-1.53.16-1.85s.63-.39,1.34-.46h0l.67.16c-2,.23-2.07,0-1.95,2.14,0,.19,0,.44-.21.48-.7.13-1.12-.19-1.11.48l-.22.23Z"/><path class="cls-11" d="M172.35,44.91c-.4,0-1.17,0-1.24.76v1.14h-.38a.24.24,0,0,1-.23.31H169l-.22.23h1.79A.49.49,0,0,0,171,47h.4V45.69c0-.44.45-.54.77-.56l.24-.22Z"/><path class="cls-6" d="M172.36,45.94a1.18,1.18,0,0,1-.25-.8h0l.24-.22a1.22,1.22,0,0,0,.17.86l-.16.16Z"/><path class="cls-6" d="M164.48,35.93a1.19,1.19,0,0,1-.25-.8h0l.24-.22a1.22,1.22,0,0,0,.17.86l-.16.16Z"/><path class="cls-11" d="M174.22,46a.27.27,0,0,0-.19-.08h-1a.55.55,0,0,1-.49-.16l-.16.16a.77.77,0,0,0,.67.23h1l.16-.16Z"/><path class="cls-10" d="M165.25,35.94h-.12a.55.55,0,0,1-.49-.16l-.16.16a.74.74,0,0,0,.54.23l.23-.23Z"/><path class="cls-6" d="M172.75,47.36v-.23a.73.73,0,0,1,.16-.53.79.79,0,0,1,.61-.15,2.65,2.65,0,0,0,.48,0c.12,0,.08-.18.08-.22a0,0,0,0,0,0,0l.16-.16a.25.25,0,0,1,.08.15c0,.19,0,.44-.22.48-.69.13-1.12-.19-1.11.48l-.23.23Z"/><path class="cls-11" d="M175,46.07a1.82,1.82,0,0,1,.06.75h-.37a.25.25,0,0,1-.23.31H173l-.23.23h1.79a.49.49,0,0,0,.39-.31h.4V46.7a1.78,1.78,0,0,0-.08-.71.43.43,0,0,0,0-.1l-.17.17Z"/><path class="cls-6" d="M174.14,45.42a1.36,1.36,0,0,0,.33.11,1.26,1.26,0,0,1,.73.36l-.17.17c-.09-.27-.79-.3-1-.46l0,0,.16-.16Z"/><path class="cls-11" d="M174.88,42.12s.1,1.26-.48,1.4a1,1,0,0,1-.54,1v.08c0,.35,0,.82.14,1l.16-.16c-.08-.05-.07-.48-.07-.66v-.12a1.17,1.17,0,0,0,.55-1c.56-.33.49-1.43.48-1.56v-.19l-.21.21Z"/><path class="cls-6" d="M175,41.9h.11l-.21.21a.22.22,0,0,0-.19,0l.29-.26Z"/><path class="cls-11" d="M175.16,39.82a1.9,1.9,0,0,0-.1.56c0,.24.17.91-.25,1.06a3.47,3.47,0,0,1-.12.72l.29-.26c0-.12,0-.23,0-.31.35-.24.3-.75.27-1,0-.06,0-.13,0-.16a1.52,1.52,0,0,1,.08-.48l.1-.27-.31.19Z"/><path class="cls-6" d="M174.36,39.8a1.11,1.11,0,0,1,.82-.2l.28,0-.31.19a.87.87,0,0,0-.79.28v-.3Z"/><path class="cls-6" d="M174,39.69a1.84,1.84,0,0,0-.29,0l-.26,0a3.55,3.55,0,0,1,.11.75v.23h-.09a5.18,5.18,0,0,1,.12.83l0,.24h-.12a2.45,2.45,0,0,1,.06.77l0,.17c.07.2.27.25.38.74a.46.46,0,0,1-.06.35,2,2,0,0,0-.55-.41l-.17.17a1.35,1.35,0,0,1,.7.62.82.82,0,0,0,.31-.72c0-.5-.42-.53-.3-1.47a2.54,2.54,0,0,1,.07-.51.75.75,0,0,1-.15-.5,4.63,4.63,0,0,0,0-1,1.75,1.75,0,0,1,.28,0v-.23Z"/><path class="cls-6" d="M166.08,29.69a1.92,1.92,0,0,0-.29,0l-.26,0a3.57,3.57,0,0,1,.11.75v.24h-.09a6,6,0,0,1,.12.83l0,.24h-.12a2.44,2.44,0,0,1,.06.77l0,.17c.07.2.26.25.38.74a.46.46,0,0,1-.05.35,2,2,0,0,0-.55-.41l-.17.17a1.34,1.34,0,0,1,.7.62.81.81,0,0,0,.31-.72c0-.5-.42-.53-.3-1.47a2.49,2.49,0,0,1,.06-.51.75.75,0,0,1-.15-.5,4.63,4.63,0,0,0,0-1,1.58,1.58,0,0,1,.28,0v-.23Z"/><path class="cls-11" d="M174,39.92c.16,0,.34.06.41.18v-.3a1,1,0,0,0-.4-.11v.23Z"/><path class="cls-10" d="M166.09,29.91c.16,0,.34.06.41.18v-.3a1.06,1.06,0,0,0-.4-.11v.23Z"/><path class="cls-11" d="M173.1,39.22l-.09.18a2.38,2.38,0,0,1,.28,1.08h-.16a4.44,4.44,0,0,1,.2,1.07h-.15a2.27,2.27,0,0,1,.09.93h-.62s-.1.8.44,1.06l.17-.17-.07,0a.68.68,0,0,1-.32-.63h.61l0-.17a2.45,2.45,0,0,0-.06-.77h.12l0-.24a5.18,5.18,0,0,0-.12-.83h.09v-.23a2.87,2.87,0,0,0-.24-1.08l0-.06.09-.18-.29.08Z"/><polygon class="cls-6" points="170.51 32.03 170.51 32.54 170.29 32.77 170.29 32.54 170.28 32.19 170.51 32.03 170.51 32.03"/><polygon class="cls-1" points="170.94 32.54 170.51 32.54 170.29 32.77 170.51 32.77 170.64 32.77 170.94 32.54 170.94 32.54"/><path class="cls-6" d="M169,32.72l.29-.1.13,0a.62.62,0,0,1,.37-.05.57.57,0,0,1,.39.26c.07.09.11.17.29.17s.13-.08.18-.19l.31-.23s-.12.64-.51.64-.39-.39-.68-.43-.17,0-.4.09l-.36-.12Z"/><path class="cls-1" d="M170.18,33.73c-.25,0-.84-.88-.84-.88l-.36-.12.17.25s.16.23.34.45a2.24,2.24,0,0,0,.46.46l.22-.15Z"/><polygon class="cls-6" points="169.97 34.13 169.96 33.9 169.96 33.88 170.18 33.73 170.19 33.89 169.97 34.13 169.97 34.13"/><path class="cls-1" d="M172.37,34a10.74,10.74,0,0,1-1.05-.71,1.76,1.76,0,0,1-1.13.57l-.22.24h.23a2,2,0,0,0,1.14-.5l.36.25.67.15Z"/><path class="cls-10" d="M164.39,34a10.75,10.75,0,0,1-1.05-.71,1.76,1.76,0,0,1-1.13.57l-.22.24h.23a2,2,0,0,0,1.14-.5l.36.25.67.15Z"/><path class="cls-6" d="M160.9,37.35v-.22a.72.72,0,0,1,.16-.53.78.78,0,0,1,.61-.15,2.24,2.24,0,0,0,.48,0c.09,0,.09-.07.08-.25-.06-1-.07-1.53.16-1.85s.63-.39,1.34-.46h0l.67.15c-2,.24-2.07,0-1.95,2.14,0,.19,0,.44-.22.48-.69.13-1.12-.19-1.11.48l-.23.23Z"/><path class="cls-10" d="M164.48,34.91c-.4,0-1.17,0-1.24.76v1.14h-.38a.24.24,0,0,1-.23.31h-1.52l-.23.23h1.79a.49.49,0,0,0,.39-.31h.4V35.69c0-.44.46-.54.77-.56l.24-.22Z"/><path class="cls-6" d="M172.68,35.93a1.17,1.17,0,0,1-.25-.8h0l.24-.22a1.23,1.23,0,0,0,.17.86l-.16.16Z"/><path class="cls-1" d="M174.32,36a.27.27,0,0,0-.19-.08h-.8a.55.55,0,0,1-.49-.16l-.16.16a.78.78,0,0,0,.67.23h.81l.16-.16Z"/><path class="cls-6" d="M172.85,37.35v-.22a.71.71,0,0,1,.16-.53.77.77,0,0,1,.61-.15,2.5,2.5,0,0,0,.48,0c.12,0,.08-.18.08-.22a0,0,0,0,0,0,0l.16-.16a.27.27,0,0,1,.07.15c0,.19,0,.44-.21.48-.69.13-1.12-.19-1.11.48l-.22.23Z"/><path class="cls-1" d="M175.13,36.06a1.87,1.87,0,0,1,.06.75h-.37a.24.24,0,0,1-.23.31h-1.52l-.22.23h1.79A.49.49,0,0,0,175,37h.4V36.7a1.74,1.74,0,0,0-.08-.71.37.37,0,0,0,0-.1l-.17.17Z"/><path class="cls-6" d="M174.24,35.42a1.42,1.42,0,0,0,.33.11,1.23,1.23,0,0,1,.72.37l-.17.17c-.09-.27-.79-.3-1-.46l0,0,.16-.16Z"/><path class="cls-1" d="M175,32.11s.1,1.26-.48,1.4a1,1,0,0,1-.55,1v.08c0,.35,0,.82.14,1l.16-.16c-.08-.06-.07-.48-.07-.66v-.12a1.17,1.17,0,0,0,.55-1c.55-.33.49-1.43.48-1.56V31.9l-.21.21Z"/><path class="cls-6" d="M173.5,29.7a3.32,3.32,0,0,1,.11.75v.24h-.09a6,6,0,0,1,.12.83l0,.24h-.12a2.29,2.29,0,0,1,.05.77l0,.17c.06.2.26.25.38.74a.49.49,0,0,1-.06.35,2,2,0,0,0-.55-.41l-.17.17a1.33,1.33,0,0,1,.7.62.81.81,0,0,0,.31-.72c0-.5-.42-.53-.3-1.47a2.2,2.2,0,0,1,.07-.51.75.75,0,0,1-.15-.5,4.62,4.62,0,0,0,0-1l-.28-.21Z"/><path class="cls-1" d="M173.78,29.91s.56,0,.68.18l0-.32a1.43,1.43,0,0,0-.67-.09l-.26,0,.28.21Z"/><path class="cls-1" d="M173.2,29.21l-.09.18a2.41,2.41,0,0,1,.28,1.08h-.16a4.52,4.52,0,0,1,.2,1.07h-.15a2.35,2.35,0,0,1,.09.93h-.62s-.1.79.44,1.06l.17-.17-.07,0a.68.68,0,0,1-.32-.63h.61l0-.17a2.29,2.29,0,0,0-.05-.77h.12l0-.24a6,6,0,0,0-.12-.83h.09v-.24a2.9,2.9,0,0,0-.24-1.08l.2-.39-.37.22Z"/><polygon class="cls-6" points="172.93 39.1 173.1 39.22 173.4 39.13 173.23 39.02 173.09 38.94 172.93 39.1 172.93 39.1"/><polygon class="cls-3" points="172.21 38.95 172.45 38.77 172.69 38.94 172.86 38.78 172.82 38.76 172.58 38.59 172.45 38.49 172.32 38.59 172.08 38.76 172.05 38.78 172.21 38.95 172.21 38.95"/><path class="cls-11" d="M172.21,38.95s.21.27,0,.37-.25-.11-.28-.21l-.17-.17.06,0,.19-.13.16.16Z"/><path class="cls-11" d="M172.69,38.94s-.2.24-.07.35.31-.19.31-.19l.16-.16,0,0-.2-.14-.16.16Z"/><path class="cls-6" d="M166.19,32.33a1.19,1.19,0,0,1,.36-.13,4.72,4.72,0,0,0,.16-.73l-.24.06a3,3,0,0,0-.08.55l-.2.26Z"/><path class="cls-10" d="M166.19,32.33s-.08,0,0-.8c0,0,.23,0,.25-.36a.62.62,0,0,0,.25.3l-.24.06a3,3,0,0,0-.08.55l-.2.26Z"/><path class="cls-10" d="M166.61,34.23a1.23,1.23,0,0,0,.15-.57c.55-.33.49-1.43.48-1.56l0-.19-.21.21s.1,1.26-.48,1.4a1,1,0,0,1-.46.94l.54-.23Z"/><path class="cls-6" d="M167.11,31.9h.11l-.21.21a.23.23,0,0,0-.19,0l.29-.26Z"/><path class="cls-10" d="M167.28,29.82a1.91,1.91,0,0,0-.1.56c0,.24.17.91-.25,1.06a3.37,3.37,0,0,1-.12.72l.29-.26c0-.12,0-.23,0-.31.35-.23.3-.75.27-1,0-.07,0-.13,0-.16a1.73,1.73,0,0,1,.08-.48l.1-.27-.31.19Z"/><path class="cls-6" d="M166.49,29.79a1.12,1.12,0,0,1,.83-.2l.28,0-.31.19a.87.87,0,0,0-.79.28v-.3Z"/><path class="cls-10" d="M165.23,29.21l-.09.18a2.4,2.4,0,0,1,.28,1.08h-.16a4.58,4.58,0,0,1,.2,1.07h-.15a2.28,2.28,0,0,1,.09.93h-.62s-.1.79.44,1.06l.17-.17-.07,0a.68.68,0,0,1-.32-.63h.61l0-.17a2.44,2.44,0,0,0-.06-.77h.12l0-.24a6,6,0,0,0-.12-.83h.09v-.24a2.86,2.86,0,0,0-.24-1.08l0-.06.09-.18-.29.08Z"/><polygon class="cls-6" points="165.06 29.1 165.23 29.21 165.52 29.13 165.35 29.02 165.22 28.93 165.06 29.1 165.06 29.1"/><polygon class="cls-11" points="164.34 28.94 164.58 28.77 164.82 28.94 164.98 28.77 164.95 28.75 164.71 28.58 164.58 28.49 164.45 28.58 164.2 28.76 164.17 28.78 164.34 28.94 164.34 28.94"/><path class="cls-3" d="M164.34,28.94s.21.27,0,.37-.24-.11-.28-.21l-.17-.16.06,0,.19-.13.16.16Z"/><path class="cls-3" d="M164.82,28.94s-.2.24-.07.35.31-.19.31-.19l.16-.17,0,0-.2-.14-.16.16Z"/><path class="cls-6" d="M171.84,40.17s.06.25,0,.27-.18,0-.28,0-.06.27.07.29l-.18.17a.45.45,0,0,1-.19-.22l.62-.52Z"/><path class="cls-1" d="M171.22,36.81h.23V35.67c.07-.72.83-.79,1.23-.76l-.24.22h0c-.31,0-.73.12-.77.56v1.43h-.23l-.23-.31Z"/><path class="cls-6" d="M171.73,39.5l-.15.17c-.06.08-.18,0-.23.09s0,.29,0,.32l-.17.24V39.5a.18.18,0,0,0,.14-.05l.09-.3.15-.09.2-.11.17.17-.25.14.13.16a.4.4,0,0,0-.11.08Z"/><path class="cls-11" d="M171.39,40.08c.12,0,.37,0,.45.1l-.24.2c-.07-.07-.25,0-.38-.06l.17-.24Z"/><path class="cls-8" d="M171.22,40.32c.13,0,.3,0,.38.06l-.38.32v-.37Z"/><path class="cls-11" d="M171.4,40.92l.19-.17a.79.79,0,0,0,.27,0c.12,0,.17.09.16.2Z"/><path class="cls-6" d="M172,40.91a.28.28,0,0,1-.18.24,6.29,6.29,0,0,0-.7,0l.26-.24Z"/><path class="cls-6" d="M168.24,42.33a.52.52,0,0,0-.12-.29l-.31.31a1.42,1.42,0,0,1,.42.88v-.9Z"/><path class="cls-6" d="M165.72,41.34a.88.88,0,0,1-.24-.63v-6H171l.23-.23h-.68c.23-.32.75-.3,1.83-.43l-.67-.15c-.63.07-1,.11-1.26.36H166.6l-.54.23h-.82v1.48l-.23.23v.43a.71.71,0,0,0-.15.53v.22l.23-.23c0-.24.05-.35.15-.4v.4l-.23.23v1.51h-.63l.29.37A1.33,1.33,0,0,1,165,40a.57.57,0,0,0-.1.41.6.6,0,0,0,.16.34,1.72,1.72,0,0,0,.4,1.22l.18-.18a1.21,1.21,0,0,1-.26-.54,1,1,0,0,0,.17.23l.15-.17Z"/><path class="cls-8" d="M167.26,41.82h-1a1.08,1.08,0,0,1-.74-.31,1,1,0,0,1-.17-.23,1.21,1.21,0,0,0,.26.54,1.12,1.12,0,0,0,.86.34,1,1,0,0,0,.75-.35Z"/><path class="cls-14" d="M170.54,34.45c.23-.32.75-.3,1.83-.43a10.74,10.74,0,0,1-1.05-.71,1.76,1.76,0,0,1-1.13.57v-.17c-.25,0-.84-.88-.84-.88.23-.08.25-.11.4-.09s.2.43.68.43.51-.64.51-.64h-.43V32a1.31,1.31,0,0,1-.8-.65l.15-.11a2.38,2.38,0,0,1-.06-1.22c.66.21.38.57.44.91,0,.17.55.44.55.44.28-.4,1-.22,1.14-.25s.26-.46,0-.44a.8.8,0,0,1-.27,0c-.13,0-.19-.27-.07-.29s.2,0,.28,0,.08-.23.05-.28-.33,0-.45-.09-.06-.22,0-.32.32,0,.41-.14.26-.38.44-.41h.91l-.09.18a2.41,2.41,0,0,1,.28,1.08h-.16a4.52,4.52,0,0,1,.2,1.07h-.15a2.35,2.35,0,0,1,.09.93h-.62s-.1.79.44,1.06a1.33,1.33,0,0,1,.7.62.81.81,0,0,0,.31-.72c0-.5-.42-.53-.3-1.47a2.2,2.2,0,0,1,.07-.51.75.75,0,0,1-.15-.5,4.62,4.62,0,0,0,0-1s.56,0,.68.18c.16-.38.9-.3.56.78-.25-.13-.28.1-.34.3a.48.48,0,0,1-.5.35c-.11.81,0,.8,0,.8a1.35,1.35,0,0,1,.82-.22s.1,1.26-.48,1.4a1,1,0,0,1-.55,1v.08c0,.37-.05.86.16,1s.93.2,1,.46a1.87,1.87,0,0,1,.06.75h-.37a.24.24,0,0,1-.23.31h-.15l-.23-.23-.23.23-.23-.23-.23.23-.23-.23-.23.23c0-.67.42-.35,1.11-.48.23,0,.22-.29.21-.48a.27.27,0,0,0-.07-.15.27.27,0,0,0-.19-.08h-.8c-.83.07-.66-1-.66-1-.4,0-1.17,0-1.23.76v1.14h-.23V34.45Z"/><path class="cls-8" d="M165.25,34.45v1.48H165a.52.52,0,0,1-.36-.15,1.18,1.18,0,0,1-.19-.88c-.4,0-1.17,0-1.24.76v1.14h-.38a.24.24,0,0,1-.23.31h-.16l-.23-.23-.23.23-.23-.23-.23.23-.23-.23-.23.23c0-.67.42-.35,1.11-.48.23,0,.23-.29.22-.48-.12-2.16,0-1.9,1.95-2.14a10.75,10.75,0,0,1-1.05-.71,1.76,1.76,0,0,1-1.13.57v-.17c-.25,0-.84-.88-.84-.88.23-.08.25-.11.4-.09s.2.43.69.43.51-.64.51-.64h-.42V32a1.32,1.32,0,0,1-.81-.65l.16-.11a2.38,2.38,0,0,1-.06-1.22c.66.21.38.57.44.91,0,.17.55.44.55.44.28-.4,1-.22,1.14-.25s.26-.46,0-.44a.8.8,0,0,1-.27,0c-.13,0-.19-.27-.07-.29s.2,0,.28,0,.08-.23,0-.28-.33,0-.45-.09-.07-.22,0-.32.17,0,.23-.09.27-.23.27-.23l-.14-.18.25-.15c0,.1.15.28.28.21s0-.37,0-.37l.24-.18.24.17s-.2.24-.07.35.31-.19.31-.19l.17.11-.09.18a2.4,2.4,0,0,1,.28,1.08h-.16a4.58,4.58,0,0,1,.2,1.07h-.15a2.28,2.28,0,0,1,.09.93h-.62s-.1.79.44,1.06a1.34,1.34,0,0,1,.7.62.81.81,0,0,0,.31-.72c0-.5-.42-.53-.3-1.47a2.49,2.49,0,0,1,.06-.51.75.75,0,0,1-.15-.5,4.63,4.63,0,0,0,0-1s.56,0,.68.18a.87.87,0,0,1,.79-.28,1.91,1.91,0,0,0-.1.56c0,.24.17.91-.25,1.06a3.37,3.37,0,0,1-.12.72.23.23,0,0,1,.19,0s.1,1.26-.48,1.4a1,1,0,0,1-.46.94Zm1.47-3a.62.62,0,0,1-.25-.3c0,.36-.25.36-.25.36-.11.81,0,.8,0,.8a1.19,1.19,0,0,1,.36-.13,4.72,4.72,0,0,0,.16-.73Z"/><path class="cls-4" d="M165.48,40.71v-6H171v6h0a.84.84,0,0,1-.83.88h-.91c-.51,0-1,.42-1,.73,0-.31-.51-.73-1-.73h-.91a.84.84,0,0,1-.83-.88Z"/><path class="cls-10" d="M167.6,36.18l0,0s-.41.12-.52-.23l-.21-.18L167,36a.52.52,0,0,0,.59.35h0a.3.3,0,0,0,0,.05.3.3,0,0,0,.12.24l.12-.12c-.09,0-.13-.18-.05-.2s.14,0,.19,0,.06-.16,0-.19-.22,0-.31-.07l-.06.06Z"/><path class="cls-8" d="M167.62,36.22s-.41.12-.52-.23c.31,0,.37,0,.49.18l0,0Z"/><path class="cls-6" d="M169.49,37.65a.8.8,0,0,1,.25-.09,3.12,3.12,0,0,0,.11-.5l-.16,0a2.43,2.43,0,0,0-.05.37l-.14.17Z"/><path class="cls-10" d="M169.49,37.65s-.06,0,0-.55c0,0,.16,0,.17-.24a.43.43,0,0,0,.17.2l-.16,0a2.43,2.43,0,0,0-.05.37l-.14.17Z"/><polygon class="cls-6" points="166.62 38.89 166.62 38.73 166.62 38.71 166.77 38.61 166.77 38.72 166.62 38.89 166.62 38.89"/><path class="cls-6" d="M166.4,35.9l0,.17a2,2,0,0,0,0,.81h0l-.09.07.18.06.11-.08a1.65,1.65,0,0,1,0-.83l-.12-.2Z"/><path class="cls-10" d="M167.19,37s-.36-.19-.38-.3.15-.48-.3-.62l-.12-.2.16.05c.45.14.42.42.41.6a.72.72,0,0,0,0,.13h0a1,1,0,0,0,.2.15l0,.2Z"/><path class="cls-6" d="M167.67,36.69a.8.8,0,0,0-.51.14h0l0,.2c.19-.28.69-.15.78-.17s.18-.32,0-.3a.51.51,0,0,1-.18,0l-.12.12Z"/><path class="cls-10" d="M166.84,37.56a1,1,0,0,1-.54-.5l0-.11.18.06a.91.91,0,0,0,.55.44l-.15.1Z"/><path class="cls-6" d="M167.66,36.11c-.05,0-.05-.15,0-.22s.12,0,.16-.06.19-.16.19-.16l-.1-.12.17-.1-.11-.11-.14.08-.15.09.11.14h0l-.06.07a0,0,0,0,1,0,0,.13.13,0,0,0-.16.09l0,0a.7.7,0,0,0-.2,0h-.16l-.23,0,.21.18c.31,0,.37,0,.49.18l.06-.06Z"/><polygon class="cls-6" points="167 37.45 167 37.8 166.85 37.96 166.85 37.8 166.84 37.56 167 37.45 167 37.45"/><polygon class="cls-10" points="167.29 37.8 167 37.8 166.85 37.96 167 37.96 167.08 37.96 167.29 37.8 167.29 37.8"/><path class="cls-6" d="M165.95,37.92l.2-.07.09,0a.43.43,0,0,1,.26,0,.39.39,0,0,1,.27.18.21.21,0,0,0,.2.12s.09-.05.12-.13l.21-.16s-.08.44-.35.44-.27-.27-.47-.29-.12,0-.27.06l-.25-.08Z"/><path class="cls-10" d="M166.77,38.61c-.17,0-.57-.6-.57-.6l-.25-.08.12.17s.11.15.23.3a1.44,1.44,0,0,0,.32.31l.15-.1Z"/><path class="cls-10" d="M168.26,38.81a7.77,7.77,0,0,1-.72-.48,1.21,1.21,0,0,1-.77.39l-.15.17h.16a1.38,1.38,0,0,0,.78-.34l.24.17.46.11Z"/><path class="cls-6" d="M165.87,41.08v-.15a.49.49,0,0,1,.11-.36.53.53,0,0,1,.41-.1,1.48,1.48,0,0,0,.33,0c.06,0,.06,0,.06-.17,0-.71,0-1,.11-1.26s.43-.27.92-.32h0l.46.11c-1.33.16-1.41,0-1.33,1.46,0,.13,0,.3-.15.33-.47.09-.76-.13-.76.33l-.15.15Z"/><path class="cls-10" d="M168.32,39.42c-.27,0-.8,0-.85.52v.78h-.26a.17.17,0,0,1-.15.21h-1l-.15.15h1.22a.34.34,0,0,0,.27-.21h.27v-.94h0c0-.3.31-.37.52-.38l.17-.15Z"/><path class="cls-6" d="M168.32,40.12a.82.82,0,0,1-.17-.55h0l.17-.15a.84.84,0,0,0,.11.59l-.11.11Z"/><path class="cls-10" d="M169.6,40.17a.18.18,0,0,0-.13-.05h-.7a.38.38,0,0,1-.33-.11l-.11.11a.53.53,0,0,0,.46.16h.71l.11-.11Z"/><path class="cls-6" d="M168.59,41.08v-.15a.48.48,0,0,1,.11-.36.52.52,0,0,1,.41-.1,1.66,1.66,0,0,0,.33,0c.08,0,.06-.12.06-.15v0l.11-.11a.19.19,0,0,1,.05.1c0,.13,0,.3-.14.33-.48.09-.77-.13-.76.33l-.15.15Z"/><path class="cls-10" d="M170.15,40.21a1.26,1.26,0,0,1,0,.51h-.25a.17.17,0,0,1-.16.21h-1l-.15.15h1.22a.34.34,0,0,0,.27-.21h.27v-.23a1.18,1.18,0,0,0-.06-.48.22.22,0,0,0,0-.07l-.11.12Z"/><path class="cls-6" d="M169.54,39.76a.86.86,0,0,0,.23.08.86.86,0,0,1,.49.25l-.11.12c-.06-.18-.54-.2-.7-.32l0,0,.11-.11Z"/><path class="cls-10" d="M170,37.51s.07.86-.33,1a.66.66,0,0,1-.37.68v.06c0,.24,0,.56.09.68l.11-.11c-.05,0-.05-.33,0-.45v-.08a.8.8,0,0,0,.38-.67c.38-.22.33-1,.33-1.06v-.13l-.14.14Z"/><path class="cls-6" d="M170.12,37.36h.07l-.14.14a.16.16,0,0,0-.13,0l.2-.18Z"/><path class="cls-10" d="M170.23,35.94a1.29,1.29,0,0,0-.06.38c0,.17.11.62-.17.72a2.36,2.36,0,0,1-.08.49l.2-.18c0-.08,0-.16,0-.21.24-.16.21-.51.19-.71,0,0,0-.09,0-.11a1.18,1.18,0,0,1,.06-.33l.07-.18-.21.13Z"/><path class="cls-6" d="M169.69,35.92a.78.78,0,0,1,.56-.14l.19,0-.21.13a.6.6,0,0,0-.54.19v-.21Z"/><path class="cls-6" d="M169.42,35.85H169a2.55,2.55,0,0,1,.08.51v.16h-.06a3.9,3.9,0,0,1,.08.57v.16h-.08a1.58,1.58,0,0,1,0,.52v.11c0,.14.18.17.26.5a.34.34,0,0,1,0,.24,1.43,1.43,0,0,0-.38-.28l-.12.12a.91.91,0,0,1,.48.42.55.55,0,0,0,.21-.49c0-.34-.28-.36-.2-1a1.93,1.93,0,0,1,0-.35.54.54,0,0,1-.1-.34,3.07,3.07,0,0,0,0-.71h.19v-.16Z"/><path class="cls-10" d="M169.42,36c.11,0,.23,0,.28.12v-.21a.76.76,0,0,0-.28-.07V36Z"/><path class="cls-10" d="M168.83,35.53l-.06.12a1.62,1.62,0,0,1,.19.73h-.11a3.21,3.21,0,0,1,.14.73h-.11a1.55,1.55,0,0,1,.06.63h-.42s-.07.54.3.73l.12-.12,0,0a.46.46,0,0,1-.22-.43h.42v-.11a1.58,1.58,0,0,0,0-.52h.08v-.16a3.9,3.9,0,0,0-.08-.57h.06v-.16a2,2,0,0,0-.16-.74l0,0,.06-.12-.2.05Z"/><polygon class="cls-6" points="168.71 35.45 168.83 35.52 169.03 35.47 168.91 35.4 168.82 35.34 168.71 35.45 168.71 35.45"/><polygon class="cls-11" points="168.22 35.34 168.39 35.22 168.55 35.34 168.66 35.23 168.64 35.21 168.48 35.1 168.39 35.03 168.3 35.1 168.13 35.22 168.11 35.23 168.22 35.34 168.22 35.34"/><path class="cls-3" d="M168.55,35.34s-.14.16,0,.24.21-.13.21-.13l.11-.11,0,0-.14-.09-.11.11Z"/><path class="cls-3" d="M168.22,35.34s.14.19,0,.25-.16-.08-.19-.14l-.11-.11,0,0,.13-.09.11.11Z"/><path class="cls-8" d="M168.94,37.75a1.55,1.55,0,0,0-.06-.63H169a3.21,3.21,0,0,0-.14-.73H169a1.62,1.62,0,0,0-.19-.73l.06-.12-.12-.08s-.13.19-.21.13,0-.21,0-.24l-.16-.12-.16.12s.14.19,0,.25-.16-.08-.19-.14l-.17.1.1.12s-.08,0-.19.16-.12,0-.16.06,0,.2,0,.22.25,0,.31.07,0,.17,0,.19-.12,0-.19,0,0,.18.05.2a.51.51,0,0,0,.18,0c.16,0,.13.26,0,.3s-.59-.1-.78.17c0,0-.36-.19-.38-.3s.15-.48-.3-.62a1.65,1.65,0,0,0,0,.83l-.11.08a.91.91,0,0,0,.55.44v.35h.29s-.08.44-.35.44-.27-.27-.47-.29-.12,0-.27.06c0,0,.4.59.57.6v.11a1.21,1.21,0,0,0,.77-.39,7.77,7.77,0,0,0,.72.48c-1.33.16-1.41,0-1.33,1.46,0,.13,0,.3-.15.33-.47.09-.76-.13-.76.33l.15-.16.16.16.15-.16.16.16.16-.16.16.16h.1a.17.17,0,0,0,.15-.21h.26v-.78c0-.49.57-.54.85-.52,0,0-.12.75.45.7h.7a.18.18,0,0,1,.13.05.19.19,0,0,1,.05.1c0,.13,0,.3-.14.33-.48.09-.77-.13-.76.33l.16-.16.15.16.16-.16.16.16.16-.16.15.16h.1a.17.17,0,0,0,.16-.21h.25a1.26,1.26,0,0,0,0-.51c-.06-.18-.54-.2-.7-.32s-.11-.44-.11-.7v-.06a.66.66,0,0,0,.37-.68c.4-.1.33-1,.33-1a.16.16,0,0,0-.13,0A2.36,2.36,0,0,0,170,37c.29-.11.17-.56.17-.72a1.29,1.29,0,0,1,.06-.38.6.6,0,0,0-.54.19c-.08-.16-.47-.13-.47-.13a3.07,3.07,0,0,1,0,.71.54.54,0,0,0,.1.34,1.93,1.93,0,0,0,0,.35c-.08.64.2.66.2,1a.55.55,0,0,1-.21.49.91.91,0,0,0-.48-.42c-.37-.18-.29-.7-.3-.73Zm.55-.1s-.06,0,0-.55c0,0,.16,0,.17-.24a.43.43,0,0,0,.17.2,3.12,3.12,0,0,1-.11.5.8.8,0,0,0-.25.09Z"/><path class="cls-8" d="M165.25,40.16a.36.36,0,0,0,0,.43v-.43Z"/><path class="cls-8" d="M165,39.26a1.63,1.63,0,0,1,.23.46v-.62h-.35l.12.16Z"/><path class="cls-3" d="M168.35,23.08h-.23l-.33.33c-.78-.24-1.92-.77-2.61-.39-.9.51,0,2.2.13,2.31a.6.6,0,0,1,.16.11l.12-.13c-.09-.11-.93-1.51-.42-2s1.73.09,2.56.33l.22,1.31a.32.32,0,0,1,.58,0l.21-1.31c.83-.24,2.05-.83,2.56-.33s-.33,1.9-.42,2l.12.12a.6.6,0,0,1,.15-.11c.09-.11,1-1.8.13-2.31-.69-.39-1.83.14-2.61.39l-.33-.33Z"/><path class="cls-15" d="M171,27.15c.36-.28.58-.35.69-1.76a1.48,1.48,0,0,0-.67.28,3.34,3.34,0,0,0-.76-.59,3.39,3.39,0,0,0-1.19.68c-.11-.13-.48-.65-.81-.78-.34.13-.71.65-.83.78a3.39,3.39,0,0,0-1.19-.68,3.27,3.27,0,0,0-.76.59,1.5,1.5,0,0,0-.67-.28c.1,1.41.33,1.48.69,1.76Z"/><polygon class="cls-8" points="173.07 37.12 173.3 36.9 173.53 37.12 173.07 37.12 173.07 37.12"/><polygon class="cls-8" points="173.53 37.12 173.75 36.9 173.98 37.12 173.53 37.12 173.53 37.12"/><polygon class="cls-8" points="173.98 37.12 174.21 36.9 174.43 37.12 173.98 37.12 173.98 37.12"/><polygon class="cls-3" points="166.03 40.93 166.18 40.77 166.34 40.93 166.03 40.93 166.03 40.93"/><polygon class="cls-3" points="166.34 40.93 166.49 40.77 166.65 40.93 166.34 40.93 166.34 40.93"/><polygon class="cls-3" points="166.65 40.93 166.81 40.77 166.96 40.93 166.65 40.93 166.65 40.93"/><polygon class="cls-3" points="168.74 40.93 168.9 40.77 169.05 40.93 168.74 40.93 168.74 40.93"/><polygon class="cls-3" points="169.05 40.93 169.21 40.77 169.37 40.93 169.05 40.93 169.05 40.93"/><polygon class="cls-3" points="169.37 40.93 169.52 40.77 169.68 40.93 169.37 40.93 169.37 40.93"/><path class="cls-8" d="M169.76,30.92l.23.23-.13.13a2.38,2.38,0,0,1-.06-1.22l.18.18-.23.23.23.23-.23.23Z"/><path class="cls-8" d="M169.34,32.84l.32,0,0,.32.32,0,0,.32h.32l-.06.17c-.25,0-.84-.88-.84-.88Z"/><path class="cls-11" d="M169.24,42.85l.32,0,0,.32.32,0,0,.32h.32l-.05.17c-.25,0-.84-.89-.84-.89Z"/><path class="cls-3" d="M166.2,38l.22,0,0,.22h.22v.22h.22l0,.12c-.17,0-.57-.6-.57-.6Z"/><path class="cls-3" d="M166.48,36.69l.16.15-.09.09a1.64,1.64,0,0,1,0-.83l.13.12-.16.16.16.16-.16.16Z"/><path class="cls-13" d="M171.22,40.69a.45.45,0,0,0,.19.22l-.27.25a1.08,1.08,0,0,1-1,.66H170l-.07.23h-.67c-.51,0-1,.86-1,1.18v-.9c0-.31.51-.73,1-.73h.91a.84.84,0,0,0,.83-.88h0v-6l.23-.23v2.36l.23.31v2l-.09.3a.18.18,0,0,1-.14.05v1.19Z"/><path class="cls-6" d="M161.66,29.76l-.05.25a2.88,2.88,0,0,0,0,1.18h0l-.14.1.27.09.16-.11a2.38,2.38,0,0,1-.06-1.22l-.17-.29Z"/><path class="cls-10" d="M161.66,29.76l.24.08c.66.21.62.61.6.88a1,1,0,0,0,0,.19h0a1.39,1.39,0,0,0,.29.22l0,.29s-.53-.28-.55-.44c-.06-.34.23-.7-.44-.91"/><path class="cls-10" d="M162.31,32.18a1.43,1.43,0,0,1-.79-.73l-.06-.16.27.09a1.32,1.32,0,0,0,.81.65l-.23.15Z"/><path class="cls-4" d="M161.84,41.08a2.78,2.78,0,0,1,0-.4h.7a1.12,1.12,0,0,0,0,.4Z"/><path class="cls-8" d="M161.77,40.12a.36.36,0,0,0,.06.56h.7a.36.36,0,0,0,.06-.56Z"/><path class="cls-8" d="M161.72,39.72a1.73,1.73,0,0,0-.33-.62H163a1.73,1.73,0,0,0-.33.62Z"/><path class="cls-4" d="M162.64,39.72a1.43,1.43,0,0,0,0,.4h-.82a1.53,1.53,0,0,0-.05-.4Z"/><path class="cls-11" d="M167.7,49.23l-.26-.22a3.7,3.7,0,0,0-2.17-.77h-2.66a2.46,2.46,0,0,1-1.69-.72l-.16.16a2.67,2.67,0,0,0,1.85.78h2.66a3.54,3.54,0,0,1,2.27.93l.16-.16Z"/><path class="cls-6" d="M168.24,50.61a1.82,1.82,0,0,0-.69-1.21l.16-.16a2.78,2.78,0,0,1,.53.64v.74Z"/><path class="cls-9" d="M164.69,24.48a2.68,2.68,0,0,1-.11-.56h0a.29.29,0,0,0,.1.56h0Z"/><path class="cls-9" d="M164.57,23.91a1.59,1.59,0,0,1,0-.41,1,1,0,0,1,0-.16h0a.29.29,0,0,0-.06.57Z"/><path class="cls-9" d="M164.65,23.3a.94.94,0,0,1,.36-.44h0a.28.28,0,0,0-.17-.06.29.29,0,0,0-.29.29.28.28,0,0,0,.1.22Z"/><path class="cls-9" d="M165,22.84h0a1.31,1.31,0,0,1,.52-.16h0a.29.29,0,0,0-.55.11.42.42,0,0,0,0,.06Z"/><path class="cls-9" d="M165.62,22.66a2.36,2.36,0,0,1,.57,0h0a.29.29,0,0,0-.57,0Z"/><path class="cls-9" d="M166.2,22.69a4.92,4.92,0,0,1,.55.13h0v0a.29.29,0,0,0-.29-.29.29.29,0,0,0-.26.18Z"/><path class="cls-9" d="M166.77,22.83l.54.17h0v0a.29.29,0,0,0-.29-.29.29.29,0,0,0-.25.15Z"/><path class="cls-9" d="M169.17,23l.54-.17h0a.29.29,0,0,0-.25-.15.29.29,0,0,0-.29.29v0Z"/><path class="cls-9" d="M169.72,22.82a4.91,4.91,0,0,1,.55-.13h0a.29.29,0,0,0-.55.11v0Z"/><path class="cls-9" d="M170.28,22.69a2.34,2.34,0,0,1,.57,0h0a.29.29,0,0,0-.57,0Z"/><path class="cls-9" d="M170.88,22.66a1.32,1.32,0,0,1,.53.16h0a.51.51,0,0,0,0-.06.29.29,0,0,0-.55-.11Z"/><path class="cls-9" d="M171.46,22.86a1,1,0,0,1,.37.44h0a.29.29,0,0,0,.1-.22.29.29,0,0,0-.29-.29.28.28,0,0,0-.18.06Z"/><path class="cls-9" d="M171.83,23.34a1,1,0,0,1,0,.16,1.72,1.72,0,0,1,0,.41h0a.29.29,0,0,0-.07-.57Z"/><path class="cls-9" d="M171.9,23.93a2.87,2.87,0,0,1-.11.56h0a.29.29,0,0,0,.1-.56Z"/><polygon class="cls-6" points="168.75 20.39 167.72 20.39 167.82 20.75 167.46 20.64 167.46 21.68 167.69 21.39 167.69 20.95 168.15 21.07 168.02 20.62 168.46 20.62 168.75 20.39 168.75 20.39"/><polygon class="cls-11" points="167.46 21.68 167.69 21.39 168.15 21.26 167.82 21.58 167.46 21.68 167.46 21.68"/><polygon class="cls-11" points="168.46 20.62 168.75 20.39 168.65 20.75 168.33 21.07 168.46 20.62 168.46 20.62"/><polygon class="cls-6" points="169.01 20.64 168.65 20.75 168.33 21.07 168.79 20.95 169.01 20.64 169.01 20.64"/><polygon class="cls-11" points="168.79 20.95 168.79 21.39 168.33 21.26 168.46 21.71 168.33 21.71 168.33 21.84 168.7 21.75 168.65 21.58 169.01 21.68 169.01 20.64 168.79 20.95 168.79 20.95"/><path class="cls-6" d="M167.63,23.06a.85.85,0,0,1,.15-1.31l0-.17.33-.33-.13.46h.13v.13a.63.63,0,0,0-.53.62.61.61,0,0,0,.18.44l-.16.16Z"/><path class="cls-12" d="M168.12,23.08a.63.63,0,0,1-.33-.18l-.16.16.1.08.4-.07Z"/><path class="cls-6" d="M168.68,22a.64.64,0,0,0-.35-.17l.37-.09.14.11-.16.16Z"/><path class="cls-12" d="M168.35,23.08a.62.62,0,0,0,.52-.61.63.63,0,0,0-.19-.45l.16-.16a.86.86,0,0,1,.25.61.85.85,0,0,1-.34.68l-.4-.07Z"/><path class="cls-6" d="M171.45,23.14a.73.73,0,0,0-.16-.12c-.69-.39-1.83.14-2.61.39l-.33-.33.4.07.3-.1a3.11,3.11,0,0,1,2.36-.22,1,1,0,0,1,.21.16l-.16.16Z"/><polygon class="cls-6" points="162.54 32.03 162.55 32.54 162.32 32.77 162.32 32.54 162.31 32.19 162.54 32.03 162.54 32.03"/><polygon class="cls-10" points="162.97 32.54 162.55 32.54 162.32 32.77 162.55 32.77 162.67 32.77 162.97 32.54 162.97 32.54"/><path class="cls-6" d="M161,32.72l.29-.1.13,0a.62.62,0,0,1,.37-.05.57.57,0,0,1,.39.26c.07.09.11.17.29.17s.13-.08.18-.19l.31-.23s-.12.64-.51.64-.4-.39-.69-.43-.17,0-.4.09l-.36-.12Z"/><path class="cls-10" d="M162.21,33.73c-.25,0-.84-.88-.84-.88l-.36-.12.17.25s.16.23.34.45a2.25,2.25,0,0,0,.46.46l.23-.15Z"/><polygon class="cls-6" points="161.99 34.13 161.99 33.9 161.98 33.88 162.21 33.73 162.22 33.89 161.99 34.13 161.99 34.13"/><path class="cls-5" d="M168.35,23.08a.62.62,0,0,0,.52-.61.63.63,0,0,0-.19-.45.64.64,0,0,0-.35-.17h-.18a.63.63,0,0,0-.53.62.62.62,0,0,0,.51.61h.22Z"/><path class="cls-3" d="M168.15,21.84h.18v-.13h.13l-.12-.46.46.13v-.44l-.46.13.12-.46H168l.13.46-.46-.13v.44l.46-.13-.13.46h.13v.13Z"/><polygon class="cls-11" points="168.99 47.13 169.22 46.9 169.45 47.13 168.99 47.13 168.99 47.13"/><polygon class="cls-11" points="169.45 47.13 169.68 46.9 169.91 47.13 169.45 47.13 169.45 47.13"/><polygon class="cls-11" points="169.91 47.13 170.13 46.9 170.36 47.13 169.91 47.13 169.91 47.13"/><polygon class="cls-11" points="172.97 47.13 173.2 46.9 173.43 47.13 172.97 47.13 172.97 47.13"/><polygon class="cls-11" points="173.43 47.13 173.65 46.9 173.88 47.13 173.43 47.13 173.43 47.13"/><polygon class="cls-11" points="173.88 47.13 174.11 46.9 174.34 47.13 173.88 47.13 173.88 47.13"/><polygon class="cls-3" points="161.12 37.12 161.35 36.9 161.57 37.12 161.12 37.12 161.12 37.12"/><polygon class="cls-3" points="161.57 37.12 161.8 36.9 162.03 37.12 161.57 37.12 161.57 37.12"/><polygon class="cls-3" points="162.03 37.12 162.25 36.9 162.48 37.12 162.03 37.12 162.03 37.12"/><path class="cls-3" d="M161.79,30.92l.23.23-.13.13a2.38,2.38,0,0,1-.06-1.22l.18.18-.23.23.23.23-.23.23Z"/><path class="cls-3" d="M161.37,32.84l.32,0,0,.32.32,0,0,.32h.32l-.05.17c-.25,0-.84-.88-.84-.88Z"/></svg>