<svg id="Utrecht" xmlns="http://www.w3.org/2000/svg" viewBox="0 0 190 75"><defs><style>.cls-1{fill:#e93d35;}.cls-1,.cls-2{fill-rule:evenodd;}.cls-2{fill:#231f20;}</style></defs><title>Artboard 1</title><polygon class="cls-1" points="121.98 34.49 124.23 34.49 124.23 36.75 121.98 36.75 121.98 34.49 121.98 34.49"/><polygon class="cls-1" points="126.11 34.49 128.4 34.49 128.4 36.75 126.11 36.75 126.11 34.49 126.11 34.49"/><polygon class="cls-1" points="121.98 38.66 124.23 38.66 124.23 40.92 121.98 40.92 121.98 38.66 121.98 38.66"/><polygon class="cls-1" points="126.11 38.66 128.4 38.66 128.4 40.92 126.11 40.92 126.11 38.66 126.11 38.66"/><polygon class="cls-2" points="21.56 34.39 21.87 34.39 21.87 36 22.21 36 22.21 36.34 20.61 36.34 20.61 36 21.56 36 21.56 35.35 20.91 35.35 20.91 35.04 21.56 35.04 21.56 34.39 21.56 34.39"/><polygon class="cls-2" points="31.2 32.48 31.51 32.48 31.51 32.78 31.2 32.78 31.2 32.48 31.2 32.48"/><polygon class="cls-2" points="30.86 32.78 31.2 32.78 31.2 33.12 30.86 33.12 30.86 32.78 30.86 32.78"/><polygon class="cls-2" points="28.3 44.99 30.86 44.99 30.86 45.33 28.3 45.33 28.3 44.99 28.3 44.99"/><polygon class="cls-2" points="31.2 36 31.51 36 31.51 36.34 31.2 36.34 31.2 36 31.2 36"/><polygon class="cls-2" points="31.2 36.65 31.51 36.65 31.51 36.95 31.2 36.95 31.2 36.65 31.2 36.65"/><polygon class="cls-2" points="36.98 44.99 37.29 44.99 37.29 45.33 36.98 45.33 36.98 44.99 36.98 44.99"/><polygon class="cls-2" points="31.82 43.38 32.16 43.38 32.16 43.72 31.82 43.72 31.82 43.38 31.82 43.38"/><polygon class="cls-2" points="31.51 42.73 31.82 42.73 31.82 43.38 31.51 43.38 31.51 42.73 31.51 42.73"/><polygon class="cls-2" points="35.68 38.9 35.99 38.9 35.99 39.21 35.68 39.21 35.68 38.9 35.68 38.9"/><polygon class="cls-2" points="31.2 42.42 31.51 42.42 31.51 42.73 31.2 42.73 31.2 42.42 31.2 42.42"/><polygon class="cls-2" points="32.16 43.72 32.81 43.72 32.81 44.03 32.16 44.03 32.16 43.72 32.16 43.72"/><polygon class="cls-2" points="36.33 44.34 36.64 44.34 36.64 44.68 36.33 44.68 36.33 44.34 36.33 44.34"/><polygon class="cls-2" points="36.64 44.68 36.98 44.68 36.98 44.99 36.64 44.99 36.64 44.68 36.64 44.68"/><polygon class="cls-2" points="34.08 26.05 34.42 26.05 34.42 26.36 34.08 26.36 34.08 26.05 34.08 26.05"/><polygon class="cls-2" points="32.81 29.91 33.12 29.91 33.12 30.22 32.81 30.22 32.81 29.91 32.81 29.91"/><polygon class="cls-2" points="33.43 27.35 33.77 27.35 33.77 27.65 33.43 27.65 33.43 27.35 33.43 27.35"/><polygon class="cls-2" points="32.47 29.57 32.81 29.57 32.81 29.91 32.47 29.91 32.47 29.57 32.47 29.57"/><polygon class="cls-2" points="34.73 25.4 35.03 25.4 35.03 25.74 34.73 25.74 34.73 25.4 34.73 25.4"/><polygon class="cls-2" points="33.43 25.4 33.77 25.4 33.77 25.74 33.43 25.74 33.43 25.4 33.43 25.4"/><polygon class="cls-2" points="43.07 32.78 43.41 32.78 43.41 33.12 43.07 33.12 43.07 32.78 43.07 32.78"/><polygon class="cls-2" points="42.76 33.12 43.07 33.12 43.07 33.43 42.76 33.43 42.76 33.12 42.76 33.12"/><polygon class="cls-2" points="43.07 36.95 43.41 36.95 43.41 37.3 43.07 37.3 43.07 36.95 43.07 36.95"/><polygon class="cls-2" points="42.76 36 43.07 36 43.07 36.34 42.76 36.34 42.76 36 42.76 36"/><polygon class="cls-2" points="42.76 36.65 43.07 36.65 43.07 36.95 42.76 36.95 42.76 36.65 42.76 36.65"/><polygon class="cls-2" points="36.98 44.99 37.29 44.99 37.29 45.33 36.98 45.33 36.98 44.99 36.98 44.99"/><polygon class="cls-2" points="42.11 43.38 42.42 43.38 42.42 43.72 42.11 43.72 42.11 43.38 42.11 43.38"/><polygon class="cls-2" points="42.42 42.73 42.76 42.73 42.76 43.38 42.42 43.38 42.42 42.73 42.42 42.73"/><polygon class="cls-2" points="42.42 42.73 42.76 42.73 42.76 43.38 42.42 43.38 42.42 42.73 42.42 42.73"/><polygon class="cls-2" points="42.76 42.42 43.07 42.42 43.07 42.73 42.76 42.73 42.76 42.42 42.76 42.42"/><polygon class="cls-2" points="41.46 43.72 42.11 43.72 42.11 44.03 41.46 44.03 41.46 43.72 41.46 43.72"/><polygon class="cls-2" points="37.6 44.34 37.94 44.34 37.94 44.68 37.6 44.68 37.6 44.34 37.6 44.34"/><polygon class="cls-2" points="37.29 44.68 37.6 44.68 37.6 44.99 37.29 44.99 37.29 44.68 37.29 44.68"/><polygon class="cls-2" points="39.55 29.91 40.5 29.91 40.5 30.22 39.55 30.22 39.55 29.91 39.55 29.91"/><polygon class="cls-2" points="39.85 26.05 40.2 26.05 40.2 26.36 39.85 26.36 39.85 26.05 39.85 26.05"/><polygon class="cls-2" points="41.15 29.91 41.46 29.91 41.46 30.22 41.15 30.22 41.15 29.91 41.15 29.91"/><polygon class="cls-2" points="40.5 27.35 40.81 27.35 40.81 27.65 40.5 27.65 40.5 27.35 40.5 27.35"/><polygon class="cls-2" points="41.46 29.57 41.8 29.57 41.8 29.91 41.46 29.91 41.46 29.57 41.46 29.57"/><polygon class="cls-2" points="39.2 25.4 39.55 25.4 39.55 25.74 39.2 25.74 39.2 25.4 39.2 25.4"/><polygon class="cls-2" points="40.5 25.4 40.81 25.4 40.81 25.74 40.5 25.74 40.5 25.4 40.5 25.4"/><polygon class="cls-2" points="43.07 33.43 43.41 33.43 43.41 36.65 43.07 36.65 43.07 33.43 43.07 33.43"/><polygon class="cls-2" points="31.2 37.3 35.38 37.3 35.38 37.6 31.2 37.6 31.2 37.3 31.2 37.3"/><polygon class="cls-2" points="36.98 39.52 37.29 39.52 37.29 44.68 36.98 44.68 36.98 39.52 36.98 39.52"/><polygon class="cls-2" points="35.68 36 35.99 36 35.99 36.34 35.68 36.34 35.68 36 35.68 36"/><polygon class="cls-2" points="35.99 36.34 36.33 36.34 36.33 36.65 35.99 36.65 35.99 36.34 35.99 36.34"/><polygon class="cls-2" points="36.33 36.65 36.64 36.65 36.64 36.95 36.33 36.95 36.33 36.65 36.33 36.65"/><polygon class="cls-2" points="36.64 36.95 36.98 36.95 36.98 37.3 36.64 37.3 36.64 36.95 36.64 36.95"/><polygon class="cls-2" points="36.98 37.3 37.29 37.3 37.29 37.6 36.98 37.6 36.98 37.3 36.98 37.3"/><polygon class="cls-2" points="37.6 37.95 37.94 37.95 37.94 38.25 37.6 38.25 37.6 37.95 37.6 37.95"/><polygon class="cls-2" points="37.29 37.6 37.6 37.6 37.6 37.95 37.29 37.95 37.29 37.6 37.29 37.6"/><polygon class="cls-2" points="37.94 38.25 38.25 38.25 38.25 38.56 37.94 38.56 37.94 38.25 37.94 38.25"/><polygon class="cls-2" points="38.9 37.3 43.07 37.3 43.07 37.6 38.9 37.6 38.9 37.3 38.9 37.3"/><polygon class="cls-2" points="34.73 29.57 39.55 29.57 39.55 29.91 34.73 29.91 34.73 29.57 34.73 29.57"/><polygon class="cls-2" points="36.33 28.61 37.94 28.61 37.94 28.92 36.33 28.92 36.33 28.61 36.33 28.61"/><polygon class="cls-2" points="39.2 27.96 41.8 27.96 41.8 28.3 39.2 28.3 39.2 27.96 39.2 27.96"/><polygon class="cls-2" points="40.81 27.65 42.42 27.65 42.42 27.96 40.81 27.96 40.81 27.65 40.81 27.65"/><polygon class="cls-2" points="32.47 27.96 35.03 27.96 35.03 28.3 32.47 28.3 32.47 27.96 32.47 27.96"/><polygon class="cls-2" points="31.82 27.65 33.43 27.65 33.43 27.96 31.82 27.96 31.82 27.65 31.82 27.65"/><polygon class="cls-2" points="33.77 29.91 34.73 29.91 34.73 30.22 33.77 30.22 33.77 29.91 33.77 29.91"/><polygon class="cls-2" points="34.08 28.61 34.42 28.61 34.42 28.92 35.03 28.92 35.03 29.26 34.42 29.26 34.42 29.57 34.08 29.57 34.08 29.26 33.77 29.26 33.77 28.92 34.08 28.92 34.08 28.61 34.08 28.61"/><polygon class="cls-2" points="35.68 25.7 36.02 25.7 36.02 27 35.68 27 35.68 25.7 35.68 25.7"/><polygon class="cls-2" points="36.64 24.75 37.6 24.75 37.6 25.09 36.64 25.09 36.64 24.75 36.64 24.75"/><polygon class="cls-2" points="36.98 25.74 37.29 25.74 37.29 26.05 37.6 26.05 37.6 26.36 37.29 26.36 37.29 26.7 36.98 26.7 36.98 26.36 36.64 26.36 36.64 26.05 36.98 26.05 36.98 25.74 36.98 25.74"/><polygon class="cls-2" points="42.76 32.48 43.07 32.48 43.07 32.78 42.76 32.78 42.76 32.48 42.76 32.48"/><polygon class="cls-2" points="42.11 33.12 42.42 33.12 42.42 33.43 42.11 33.43 42.11 33.12 42.11 33.12"/><polygon class="cls-2" points="41.8 32.78 42.11 32.78 42.11 33.12 41.8 33.12 41.8 32.78 41.8 32.78"/><polygon class="cls-2" points="41.8 34.39 42.11 34.39 42.11 34.73 41.8 34.73 41.8 34.39 41.8 34.39"/><polygon class="cls-2" points="42.11 34.08 42.42 34.08 42.42 34.39 42.11 34.39 42.11 34.08 42.11 34.08"/><polygon class="cls-2" points="40.5 36 40.81 36 40.81 36.34 40.5 36.34 40.5 36 40.5 36"/><polygon class="cls-2" points="38.9 36.34 39.85 36.34 39.85 36.65 38.9 36.65 38.9 36.34 38.9 36.34"/><polygon class="cls-2" points="39.85 35.69 40.2 35.69 40.2 36.34 39.85 36.34 39.85 35.69 39.85 35.69"/><polygon class="cls-2" points="40.2 36.34 41.8 36.34 41.8 36.65 40.2 36.65 40.2 36.34 40.2 36.34"/><polygon class="cls-2" points="41.8 35.35 42.11 35.35 42.11 36.34 41.8 36.34 41.8 35.35 41.8 35.35"/><polygon class="cls-2" points="40.5 35.04 40.81 35.04 40.81 35.35 40.5 35.35 40.5 35.04 40.5 35.04"/><polygon class="cls-2" points="40.2 35.35 40.5 35.35 40.5 35.69 40.2 35.69 40.2 35.35 40.2 35.35"/><polygon class="cls-2" points="40.81 35.35 41.15 35.35 41.15 35.69 40.81 35.69 40.81 35.35 40.81 35.35"/><polygon class="cls-2" points="41.15 35.69 41.46 35.69 41.46 36.34 41.15 36.34 41.15 35.69 41.15 35.69"/><polygon class="cls-2" points="41.46 34.39 41.8 34.39 41.8 35.35 41.46 35.35 41.46 34.39 41.46 34.39"/><polygon class="cls-2" points="40.81 34.39 41.15 34.39 41.15 35.04 40.81 35.04 40.81 34.39 40.81 34.39"/><polygon class="cls-2" points="40.2 34.39 40.5 34.39 40.5 34.73 40.2 34.73 40.2 34.39 40.2 34.39"/><polygon class="cls-2" points="41.15 32.78 41.46 32.78 41.46 34.39 41.15 34.39 41.15 32.78 41.15 32.78"/><polygon class="cls-2" points="40.5 33.74 40.81 33.74 40.81 34.39 40.5 34.39 40.5 33.74 40.5 33.74"/><polygon class="cls-2" points="39.55 33.43 40.5 33.43 40.5 33.74 39.55 33.74 39.55 33.43 39.55 33.43"/><polygon class="cls-2" points="38.9 32.48 39.2 32.48 39.2 33.43 38.9 33.43 38.9 32.48 38.9 32.48"/><polygon class="cls-2" points="39.2 32.78 40.2 32.78 40.2 33.12 39.2 33.12 39.2 32.78 39.2 32.78"/><polygon class="cls-2" points="39.55 31.82 39.85 31.82 39.85 32.13 39.55 32.13 39.55 31.82 39.55 31.82"/><polygon class="cls-2" points="40.5 31.82 40.81 31.82 40.81 32.13 40.5 32.13 40.5 31.82 40.5 31.82"/><polygon class="cls-2" points="40.2 31.52 40.5 31.52 40.5 31.82 40.2 31.82 40.2 31.52 40.2 31.52"/><polygon class="cls-2" points="40.81 31.52 41.15 31.52 41.15 31.82 40.81 31.82 40.81 31.52 40.81 31.52"/><polygon class="cls-2" points="40.5 31.18 41.46 31.18 41.46 31.52 40.5 31.52 40.5 31.18 40.5 31.18"/><polygon class="cls-2" points="41.46 31.52 41.8 31.52 41.8 32.78 41.46 32.78 41.46 31.52 41.46 31.52"/><polygon class="cls-2" points="41.8 33.43 42.11 33.43 42.11 34.08 41.8 34.08 41.8 33.43 41.8 33.43"/><polygon class="cls-2" points="39.55 34.73 40.2 34.73 40.2 35.04 39.55 35.04 39.55 34.73 39.55 34.73"/><polygon class="cls-2" points="39.2 35.04 39.55 35.04 39.55 36.34 39.2 36.34 39.2 35.04 39.2 35.04"/><polygon class="cls-2" points="42.11 31.52 42.42 31.52 42.42 32.78 42.11 32.78 42.11 31.52 42.11 31.52"/><polygon class="cls-2" points="35.99 39.86 36.33 39.86 36.33 40.17 35.99 40.17 35.99 39.86 35.99 39.86"/><polygon class="cls-2" points="35.68 39.52 35.99 39.52 35.99 39.86 35.68 39.86 35.68 39.52 35.68 39.52"/><polygon class="cls-2" points="35.99 40.82 36.33 40.82 36.33 41.13 35.99 41.13 35.99 40.82 35.99 40.82"/><polygon class="cls-2" points="34.42 42.73 34.73 42.73 34.73 43.07 34.42 43.07 34.42 42.73 34.42 42.73"/><polygon class="cls-2" points="33.77 42.42 34.08 42.42 34.08 43.07 33.77 43.07 33.77 42.42 33.77 42.42"/><polygon class="cls-2" points="34.08 43.07 35.68 43.07 35.68 43.38 34.08 43.38 34.08 43.07 34.08 43.07"/><polygon class="cls-2" points="35.68 42.12 35.99 42.12 35.99 43.07 35.68 43.07 35.68 42.12 35.68 42.12"/><polygon class="cls-2" points="34.42 41.77 34.73 41.77 34.73 42.12 34.42 42.12 34.42 41.77 34.42 41.77"/><polygon class="cls-2" points="34.08 42.12 34.42 42.12 34.42 42.42 34.08 42.42 34.08 42.12 34.08 42.12"/><polygon class="cls-2" points="34.73 42.12 35.03 42.12 35.03 42.42 34.73 42.42 34.73 42.12 34.73 42.12"/><polygon class="cls-2" points="35.03 42.42 35.38 42.42 35.38 43.07 35.03 43.07 35.03 42.42 35.03 42.42"/><polygon class="cls-2" points="34.73 41.13 35.03 41.13 35.03 41.77 34.73 41.77 34.73 41.13 34.73 41.13"/><polygon class="cls-2" points="34.08 41.13 34.42 41.13 34.42 41.47 34.08 41.47 34.08 41.13 34.08 41.13"/><polygon class="cls-2" points="35.03 39.52 35.38 39.52 35.38 41.13 35.03 41.13 35.03 39.52 35.03 39.52"/><polygon class="cls-2" points="34.42 40.51 34.73 40.51 34.73 41.13 34.42 41.13 34.42 40.51 34.42 40.51"/><polygon class="cls-2" points="33.43 40.17 34.42 40.17 34.42 40.51 33.43 40.51 33.43 40.17 33.43 40.17"/><polygon class="cls-2" points="32.47 40.17 32.81 40.17 32.81 40.51 32.47 40.51 32.47 40.17 32.47 40.17"/><polygon class="cls-2" points="31.82 40.51 33.43 40.51 33.43 40.82 31.82 40.82 31.82 40.51 31.82 40.51"/><polygon class="cls-2" points="31.82 39.86 32.16 39.86 32.16 40.51 31.82 40.51 31.82 39.86 31.82 39.86"/><polygon class="cls-2" points="31.51 40.17 31.82 40.17 31.82 40.51 31.51 40.51 31.51 40.17 31.51 40.17"/><polygon class="cls-2" points="32.81 39.21 33.12 39.21 33.12 40.17 32.81 40.17 32.81 39.21 32.81 39.21"/><polygon class="cls-2" points="32.16 38.25 32.47 38.25 32.47 38.56 32.16 38.56 32.16 38.25 32.16 38.25"/><polygon class="cls-2" points="32.81 37.91 33.12 37.91 33.12 38.25 32.81 38.25 32.81 37.91 32.81 37.91"/><polygon class="cls-2" points="32.47 37.91 32.81 37.91 32.81 39.21 32.47 39.21 32.47 37.91 32.47 37.91"/><polygon class="cls-2" points="33.12 39.52 34.08 39.52 34.08 39.86 33.12 39.86 33.12 39.52 33.12 39.52"/><polygon class="cls-2" points="33.77 38.9 34.08 38.9 34.08 39.21 33.77 39.21 33.77 38.9 33.77 38.9"/><polygon class="cls-2" points="34.08 38.9 34.42 38.9 34.42 39.52 34.08 39.52 34.08 38.9 34.08 38.9"/><polygon class="cls-2" points="33.43 38.56 33.77 38.56 33.77 38.9 33.43 38.9 33.43 38.56 33.43 38.56"/><polygon class="cls-2" points="34.42 38.56 34.73 38.56 34.73 38.9 34.42 38.9 34.42 38.56 34.42 38.56"/><polygon class="cls-2" points="34.08 38.25 34.42 38.25 34.42 38.56 34.08 38.56 34.08 38.25 34.08 38.25"/><polygon class="cls-2" points="34.73 38.25 35.03 38.25 35.03 38.56 34.73 38.56 34.73 38.25 34.73 38.25"/><polygon class="cls-2" points="34.42 37.95 35.38 37.95 35.38 38.25 34.42 38.25 34.42 37.95 34.42 37.95"/><polygon class="cls-2" points="35.68 40.17 35.99 40.17 35.99 40.82 35.68 40.82 35.68 40.17 35.68 40.17"/><polygon class="cls-2" points="33.43 41.47 34.08 41.47 34.08 41.77 33.43 41.77 33.43 41.47 33.43 41.47"/><polygon class="cls-2" points="33.12 41.77 33.43 41.77 33.43 43.07 33.12 43.07 33.12 41.77 33.12 41.77"/><polygon class="cls-2" points="35.38 41.13 35.99 41.13 35.99 41.47 35.38 41.47 35.38 41.13 35.38 41.13"/><polygon class="cls-2" points="35.38 41.47 35.68 41.47 35.68 42.12 35.38 42.12 35.38 41.47 35.38 41.47"/><polygon class="cls-2" points="32.16 43.07 33.77 43.07 33.77 43.38 32.16 43.38 32.16 43.07 32.16 43.07"/><polygon class="cls-2" points="32.47 42.73 32.81 42.73 32.81 43.07 32.47 43.07 32.47 42.73 32.47 42.73"/><polygon class="cls-2" points="32.81 44.03 36.33 44.03 36.33 44.34 32.81 44.34 32.81 44.03 32.81 44.03"/><polygon class="cls-2" points="37.94 44.03 41.46 44.03 41.46 44.34 37.94 44.34 37.94 44.03 37.94 44.03"/><polygon class="cls-2" points="30.86 37.6 31.2 37.6 31.2 42.42 30.86 42.42 30.86 37.6 30.86 37.6"/><polygon class="cls-2" points="43.07 37.6 43.41 37.6 43.41 42.42 43.07 42.42 43.07 37.6 43.07 37.6"/><polygon class="cls-2" points="35.99 39.21 36.98 39.21 36.98 39.52 35.99 39.52 35.99 39.21 35.99 39.21"/><polygon class="cls-2" points="37.29 39.21 38.25 39.21 38.25 39.52 37.29 39.52 37.29 39.21 37.29 39.21"/><polygon class="cls-2" points="30.86 33.74 31.2 33.74 31.2 37.3 30.86 37.3 30.86 33.74 30.86 33.74"/><polygon class="cls-2" points="39.2 28.92 39.85 28.92 39.85 28.61 40.2 28.61 40.2 28.92 40.5 28.92 40.5 29.26 40.2 29.26 40.2 29.57 39.85 29.57 39.85 29.26 39.2 29.26 39.2 28.92 39.2 28.92"/><polygon class="cls-2" points="41.46 28.92 42.11 28.92 42.11 29.57 41.8 29.57 41.8 29.26 41.46 29.26 41.46 28.92 41.46 28.92"/><polygon class="cls-2" points="41.8 28.3 42.42 28.3 42.42 28.92 42.11 28.92 42.11 28.61 41.8 28.61 41.8 28.3 41.8 28.3"/><polygon class="cls-2" points="25.08 30.87 25.39 30.87 25.39 31.18 25.08 31.18 25.08 30.87 25.08 30.87"/><polygon class="cls-2" points="27 30.87 27.34 30.87 27.34 31.82 27 31.82 27 30.87 27 30.87"/><polygon class="cls-2" points="27 32.13 27.34 32.13 27.34 32.48 27 32.48 27 32.13 27 32.13"/><polygon class="cls-2" points="28.3 32.13 28.61 32.13 28.61 32.48 28.3 32.48 28.3 32.13 28.3 32.13"/><polygon class="cls-2" points="27.99 32.48 28.3 32.48 28.3 33.12 27.99 33.12 27.99 32.48 27.99 32.48"/><polygon class="cls-2" points="28.61 33.74 28.95 33.74 28.95 34.39 28.61 34.39 28.61 33.74 28.61 33.74"/><polygon class="cls-2" points="29.25 33.74 29.6 33.74 29.6 34.08 29.25 34.08 29.25 33.74 29.25 33.74"/><polygon class="cls-2" points="29.6 33.43 30.21 33.43 30.21 33.74 29.6 33.74 29.6 33.43 29.6 33.43"/><polygon class="cls-2" points="30.21 32.48 30.55 32.48 30.55 33.43 30.21 33.43 30.21 32.48 30.21 32.48"/><polygon class="cls-2" points="26.69 29.91 26.69 29.57 26.38 29.57 26.38 29.91 26.69 29.91 26.69 29.91"/><polygon class="cls-2" points="27.34 28.61 27.65 28.61 27.65 28.92 27.34 28.92 27.34 28.61 27.34 28.61"/><polygon class="cls-2" points="25.39 28.3 26.04 28.3 26.04 28.61 25.39 28.61 25.39 28.3 25.39 28.3"/><polygon class="cls-2" points="25.08 28.61 25.39 28.61 25.39 28.92 25.08 28.92 25.08 28.61 25.08 28.61"/><polygon class="cls-2" points="24.43 31.18 24.78 31.18 24.78 31.52 24.43 31.52 24.43 31.18 24.43 31.18"/><polygon class="cls-2" points="24.78 31.52 25.08 31.52 25.08 32.48 24.78 32.48 24.78 31.52 24.78 31.52"/><polygon class="cls-2" points="24.43 33.74 24.78 33.74 24.78 34.39 24.43 34.39 24.43 33.74 24.43 33.74"/><polygon class="cls-2" points="24.78 34.39 25.08 34.39 25.08 35.35 24.78 35.35 24.78 34.39 24.78 34.39"/><polygon class="cls-2" points="24.78 35.69 25.08 35.69 25.08 36.65 24.78 36.65 24.78 35.69 24.78 35.69"/><polygon class="cls-2" points="24.43 35.35 24.78 35.35 24.78 36 24.43 36 24.43 35.35 24.43 35.35"/><polygon class="cls-2" points="24.43 36.65 24.78 36.65 24.78 36.95 24.43 36.95 24.43 36.65 24.43 36.65"/><polygon class="cls-2" points="24.43 37.95 24.78 37.95 24.78 38.25 24.43 38.25 24.43 37.95 24.43 37.95"/><polygon class="cls-2" points="24.13 36.95 24.43 36.95 24.43 37.3 24.13 37.3 24.13 36.95 24.13 36.95"/><polygon class="cls-2" points="24.78 37.3 25.08 37.3 25.08 37.95 24.78 37.95 24.78 37.3 24.78 37.3"/><polygon class="cls-2" points="24.13 38.25 24.43 38.25 24.43 38.56 24.13 38.56 24.13 38.25 24.13 38.25"/><polygon class="cls-2" points="23.79 37.3 24.13 37.3 24.13 37.6 23.79 37.6 23.79 37.3 23.79 37.3"/><polygon class="cls-2" points="23.48 37.6 23.82 37.6 23.82 37.95 23.48 37.95 23.48 37.6 23.48 37.6"/><polygon class="cls-2" points="23.17 37.95 23.48 37.95 23.48 38.25 23.17 38.25 23.17 37.95 23.17 37.95"/><polygon class="cls-2" points="22.83 38.25 23.17 38.25 23.17 38.56 22.83 38.56 22.83 38.25 22.83 38.25"/><polygon class="cls-2" points="22.52 38.56 22.83 38.56 22.83 38.9 22.52 38.9 22.52 38.56 22.52 38.56"/><polygon class="cls-2" points="23.17 38.9 23.48 38.9 23.48 39.21 23.17 39.21 23.17 38.9 23.17 38.9"/><polygon class="cls-2" points="23.48 38.56 24.13 38.56 24.13 38.9 23.48 38.9 23.48 38.56 23.48 38.56"/><polygon class="cls-2" points="22.21 38.9 22.52 38.9 22.52 39.21 22.21 39.21 22.21 38.9 22.21 38.9"/><polygon class="cls-2" points="21.87 39.21 22.21 39.21 22.21 39.55 21.87 39.55 21.87 39.21 21.87 39.21"/><polygon class="cls-2" points="20.26 39.52 21.87 39.52 21.87 39.86 20.26 39.86 20.26 39.52 20.26 39.52"/><polygon class="cls-2" points="19.61 39.52 19.95 39.52 19.95 39.86 19.61 39.86 19.61 39.52 19.61 39.52"/><polygon class="cls-2" points="19.95 39.86 20.26 39.86 20.26 40.17 19.95 40.17 19.95 39.86 19.95 39.86"/><polygon class="cls-2" points="19.95 38.25 20.26 38.25 20.26 39.55 19.95 39.55 19.95 38.25 19.95 38.25"/><polygon class="cls-2" points="19.3 38.25 19.61 38.25 19.61 39.55 19.3 39.55 19.3 38.25 19.3 38.25"/><polygon class="cls-2" points="19.95 42.73 20.26 42.73 20.26 43.38 19.95 43.38 19.95 42.73 19.95 42.73"/><polygon class="cls-2" points="19.61 37.95 19.95 37.95 19.95 38.25 19.61 38.25 19.61 37.95 19.61 37.95"/><polygon class="cls-2" points="20.26 37.95 20.61 37.95 20.61 38.25 20.26 38.25 20.26 37.95 20.26 37.95"/><polygon class="cls-2" points="20.26 37.3 20.61 37.3 20.61 37.6 20.26 37.6 20.26 37.3 20.26 37.3"/><polygon class="cls-2" points="19.95 37.6 20.26 37.6 20.26 37.95 19.95 37.95 19.95 37.6 19.95 37.6"/><polygon class="cls-2" points="20.61 37.6 20.91 37.6 20.91 37.95 20.61 37.95 20.61 37.6 20.61 37.6"/><polygon class="cls-2" points="20.61 36.95 20.91 36.95 20.91 37.3 20.61 37.3 20.61 36.95 20.61 36.95"/><polygon class="cls-2" points="20.91 37.3 21.22 37.3 21.22 37.6 20.91 37.6 20.91 37.3 20.91 37.3"/><polygon class="cls-2" points="20.26 36.34 20.61 36.34 20.61 36.95 20.26 36.95 20.26 36.34 20.26 36.34"/><polygon class="cls-2" points="21.22 37.6 21.87 37.6 21.87 37.95 21.22 37.95 21.22 37.6 21.22 37.6"/><polygon class="cls-2" points="21.87 37.3 22.52 37.3 22.52 37.6 21.87 37.6 21.87 37.3 21.87 37.3"/><polygon class="cls-2" points="22.52 35.35 22.83 35.35 22.83 35.69 22.52 35.69 22.52 35.35 22.52 35.35"/><polygon class="cls-2" points="22.21 34.08 22.52 34.08 22.52 36 22.21 36 22.21 34.08 22.21 34.08"/><polygon class="cls-2" points="20.61 35.35 20.91 35.35 20.91 35.69 20.61 35.69 20.61 35.35 20.61 35.35"/><polygon class="cls-2" points="20.91 34.08 21.56 34.08 21.56 34.39 20.91 34.39 20.91 34.08 20.91 34.08"/><polygon class="cls-2" points="20.61 32.48 20.91 32.48 20.91 34.08 20.61 34.08 20.61 32.48 20.61 32.48"/><polygon class="cls-2" points="21.22 32.78 21.56 32.78 21.56 33.43 21.22 33.43 21.22 32.78 21.22 32.78"/><polygon class="cls-2" points="21.87 32.13 22.21 32.13 22.21 33.12 21.87 33.12 21.87 32.13 21.87 32.13"/><polygon class="cls-2" points="21.22 31.82 21.56 31.82 21.56 32.13 21.22 32.13 21.22 31.82 21.22 31.82"/><polygon class="cls-2" points="20.91 32.13 21.22 32.13 21.22 32.48 20.91 32.48 20.91 32.13 20.91 32.13"/><polygon class="cls-2" points="20.26 40.17 20.61 40.17 20.61 40.82 20.26 40.82 20.26 40.17 20.26 40.17"/><polygon class="cls-2" points="20.61 40.82 20.91 40.82 20.91 41.13 20.61 41.13 20.61 40.82 20.61 40.82"/><polygon class="cls-2" points="20.91 40.51 21.56 40.51 21.56 40.82 20.91 40.82 20.91 40.51 20.91 40.51"/><polygon class="cls-2" points="21.22 41.47 21.56 41.47 21.56 41.77 21.22 41.77 21.22 41.47 21.22 41.47"/><polygon class="cls-2" points="21.56 40.17 21.87 40.17 21.87 40.51 21.56 40.51 21.56 40.17 21.56 40.17"/><polygon class="cls-2" points="21.56 40.82 21.87 40.82 21.87 41.47 21.56 41.47 21.56 40.82 21.56 40.82"/><polygon class="cls-2" points="20.61 41.77 21.22 41.77 21.22 42.12 20.61 42.12 20.61 41.77 20.61 41.77"/><polygon class="cls-2" points="21.56 41.77 22.21 41.77 22.21 42.12 21.56 42.12 21.56 41.77 21.56 41.77"/><polygon class="cls-2" points="21.22 42.12 21.56 42.12 21.56 42.42 21.22 42.42 21.22 42.12 21.22 42.12"/><polygon class="cls-2" points="20.91 42.42 21.22 42.42 21.22 43.07 20.91 43.07 20.91 42.42 20.91 42.42"/><polygon class="cls-2" points="20.26 42.12 20.61 42.12 20.61 42.73 20.26 42.73 20.26 42.12 20.26 42.12"/><polygon class="cls-2" points="25.39 35.35 25.73 35.35 25.73 35.69 25.39 35.69 25.39 35.35 25.39 35.35"/><polygon class="cls-2" points="26.04 36 26.38 36 26.38 36.34 26.04 36.34 26.04 36 26.04 36"/><polygon class="cls-2" points="25.73 36.34 26.04 36.34 26.04 36.65 25.73 36.65 25.73 36.34 25.73 36.34"/><polygon class="cls-2" points="26.38 35.69 26.69 35.69 26.69 36 26.38 36 26.38 35.69 26.38 35.69"/><polygon class="cls-2" points="25.73 35.69 26.04 35.69 26.04 36 25.73 36 25.73 35.69 25.73 35.69"/><polygon class="cls-2" points="20.26 43.38 20.61 43.38 20.61 43.72 20.26 43.72 20.26 43.38 20.26 43.38"/><polygon class="cls-2" points="20.61 43.72 20.91 43.72 20.91 44.68 20.61 44.68 20.61 43.72 20.61 43.72"/><polygon class="cls-2" points="20.91 44.68 21.22 44.68 21.22 44.99 20.91 44.99 20.91 44.68 20.91 44.68"/><polygon class="cls-2" points="22.83 44.68 22.52 44.68 22.52 44.34 23.82 44.34 23.82 44.68 23.17 44.68 23.17 44.99 23.82 44.99 23.82 45.33 21.22 45.33 21.22 44.99 22.83 44.99 22.83 44.68 22.83 44.68"/><polygon class="cls-2" points="22.21 44.03 22.52 44.03 22.52 44.34 22.21 44.34 22.21 44.03 22.21 44.03"/><polygon class="cls-2" points="21.87 43.07 22.21 43.07 22.21 44.03 21.87 44.03 21.87 43.07 21.87 43.07"/><polygon class="cls-2" points="22.21 42.73 22.52 42.73 22.52 43.07 22.21 43.07 22.21 42.73 22.21 42.73"/><polygon class="cls-2" points="22.52 42.42 23.17 42.42 23.17 42.73 22.52 42.73 22.52 42.42 22.52 42.42"/><polygon class="cls-2" points="23.17 42.12 23.48 42.12 23.48 42.42 23.17 42.42 23.17 42.12 23.17 42.12"/><polygon class="cls-2" points="23.79 44.68 24.13 44.68 24.13 44.99 23.79 44.99 23.79 44.68 23.79 44.68"/><polygon class="cls-2" points="24.13 44.99 24.43 44.99 24.43 45.33 24.13 45.33 24.13 44.99 24.13 44.99"/><polygon class="cls-2" points="23.79 44.03 24.43 44.03 24.43 44.34 23.79 44.34 23.79 44.03 23.79 44.03"/><polygon class="cls-2" points="23.48 41.77 23.82 41.77 23.82 42.12 23.48 42.12 23.48 41.77 23.48 41.77"/><polygon class="cls-2" points="23.79 42.12 25.08 42.12 25.08 42.42 23.79 42.42 23.79 42.12 23.79 42.12"/><polygon class="cls-2" points="25.39 40.51 25.73 40.51 25.73 40.82 25.39 40.82 25.39 40.51 25.39 40.51"/><polygon class="cls-2" points="25.08 42.42 25.39 42.42 25.39 42.73 25.08 42.73 25.08 42.42 25.08 42.42"/><polygon class="cls-2" points="25.08 41.77 25.39 41.77 25.39 42.12 25.08 42.12 25.08 41.77 25.08 41.77"/><polygon class="cls-2" points="24.43 41.47 25.08 41.47 25.08 41.77 24.43 41.77 24.43 41.47 24.43 41.47"/><polygon class="cls-2" points="23.48 40.51 23.82 40.51 23.82 41.13 23.48 41.13 23.48 40.51 23.48 40.51"/><polygon class="cls-2" points="23.17 40.17 23.48 40.17 23.48 40.51 23.17 40.51 23.17 40.17 23.17 40.17"/><polygon class="cls-2" points="22.21 41.47 22.52 41.47 22.52 41.77 22.21 41.77 22.21 41.47 22.21 41.47"/><polygon class="cls-2" points="25.73 40.82 26.04 40.82 26.04 41.13 25.73 41.13 25.73 40.82 25.73 40.82"/><polygon class="cls-2" points="26.38 41.77 26.69 41.77 26.69 42.12 26.38 42.12 26.38 41.77 26.38 41.77"/><polygon class="cls-2" points="26.04 41.13 26.38 41.13 26.38 41.77 26.04 41.77 26.04 41.13 26.04 41.13"/><polygon class="cls-2" points="26.69 42.12 27 42.12 27 42.42 26.69 42.42 26.69 42.12 26.69 42.12"/><polygon class="cls-2" points="27 42.42 27.34 42.42 27.34 42.73 27 42.73 27 42.42 27 42.42"/><polygon class="cls-2" points="27.34 42.73 27.65 42.73 27.65 43.38 27.34 43.38 27.34 42.73 27.34 42.73"/><polygon class="cls-2" points="27 43.38 27.34 43.38 27.34 43.72 27 43.72 27 43.38 27 43.38"/><polygon class="cls-2" points="27.99 44.68 28.3 44.68 28.3 44.99 27.99 44.99 27.99 44.68 27.99 44.68"/><polygon class="cls-2" points="31.2 44.99 31.51 44.99 31.51 45.33 31.2 45.33 31.2 44.99 31.2 44.99"/><polygon class="cls-2" points="30.86 44.68 31.2 44.68 31.2 44.99 30.86 44.99 30.86 44.68 30.86 44.68"/><polygon class="cls-2" points="31.51 44.34 31.82 44.34 31.82 44.99 31.51 44.99 31.51 44.34 31.51 44.34"/><polygon class="cls-2" points="30.86 44.03 31.51 44.03 31.51 44.34 30.86 44.34 30.86 44.03 30.86 44.03"/><polygon class="cls-2" points="31.82 44.34 32.16 44.34 32.16 44.68 31.82 44.68 31.82 44.34 31.82 44.34"/><polygon class="cls-2" points="29.6 44.03 29.91 44.03 29.91 44.34 29.6 44.34 29.6 44.03 29.6 44.03"/><polygon class="cls-2" points="29.91 44.34 30.21 44.34 30.21 44.99 29.91 44.99 29.91 44.34 29.91 44.34"/><polygon class="cls-2" points="29.25 43.72 29.6 43.72 29.6 44.03 29.25 44.03 29.25 43.72 29.25 43.72"/><polygon class="cls-2" points="27.99 42.73 28.3 42.73 28.3 43.72 27.99 43.72 27.99 42.73 27.99 42.73"/><polygon class="cls-2" points="28.95 41.77 29.25 41.77 29.25 43.72 28.95 43.72 28.95 41.77 28.95 41.77"/><polygon class="cls-2" points="29.25 41.47 29.6 41.47 29.6 41.77 29.25 41.77 29.25 41.47 29.25 41.47"/><polygon class="cls-2" points="29.6 41.77 30.21 41.77 30.21 42.12 29.6 42.12 29.6 41.77 29.6 41.77"/><polygon class="cls-2" points="30.21 41.13 30.55 41.13 30.55 42.42 30.21 42.42 30.21 41.13 30.21 41.13"/><polygon class="cls-2" points="29.6 40.82 30.21 40.82 30.21 41.13 29.6 41.13 29.6 40.82 29.6 40.82"/><polygon class="cls-2" points="28.3 40.17 28.61 40.17 28.61 40.51 28.3 40.51 28.3 40.17 28.3 40.17"/><polygon class="cls-2" points="28.61 40.51 29.6 40.51 29.6 40.82 28.61 40.82 28.61 40.51 28.61 40.51"/><polygon class="cls-2" points="28.95 40.51 28.61 40.51 28.61 40.82 28.95 40.82 28.95 40.51 28.95 40.51"/><polygon class="cls-2" points="27.65 39.86 28.3 39.86 28.3 40.17 27.65 40.17 27.65 39.86 27.65 39.86"/><polygon class="cls-2" points="27.34 39.52 27.65 39.52 27.65 39.86 27.34 39.86 27.34 39.52 27.34 39.52"/><polygon class="cls-2" points="26.69 39.21 27.34 39.21 27.34 39.55 26.69 39.55 26.69 39.21 26.69 39.21"/><polygon class="cls-2" points="27.99 37.6 28.61 37.6 28.61 37.95 27.99 37.95 27.99 37.6 27.99 37.6"/><polygon class="cls-2" points="28.61 37.95 28.95 37.95 28.95 38.25 28.61 38.25 28.61 37.95 28.61 37.95"/><polygon class="cls-2" points="28.95 37.6 29.25 37.6 29.25 37.95 28.95 37.95 28.95 37.6 28.95 37.6"/><polygon class="cls-2" points="29.25 37.95 30.55 37.95 30.55 38.25 29.25 38.25 29.25 37.95 29.25 37.95"/><polygon class="cls-2" points="30.55 37.6 30.86 37.6 30.86 37.95 30.55 37.95 30.55 37.6 30.55 37.6"/><polygon class="cls-2" points="30.55 38.25 30.86 38.25 30.86 38.56 30.55 38.56 30.55 38.25 30.55 38.25"/><polygon class="cls-2" points="27 35.35 26.69 35.35 26.69 35.69 27 35.69 27 35.35 27 35.35"/><polygon class="cls-2" points="27.34 36.65 27.65 36.65 27.65 36.95 27.34 36.95 27.34 36.65 27.34 36.65"/><polygon class="cls-2" points="27.99 35.35 28.3 35.35 28.3 35.69 27.99 35.69 27.99 35.35 27.99 35.35"/><polygon class="cls-2" points="26.69 33.74 27.34 33.74 27.34 34.08 26.69 34.08 26.69 33.74 26.69 33.74"/><polygon class="cls-2" points="28.3 35.69 28.61 35.69 28.61 36 28.3 36 28.3 35.69 28.3 35.69"/><polygon class="cls-2" points="28.61 36 29.25 36 29.25 36.34 28.61 36.34 28.61 36 28.61 36"/><polygon class="cls-2" points="29.25 36.34 29.6 36.34 29.6 36.65 29.25 36.65 29.25 36.34 29.25 36.34"/><polygon class="cls-2" points="30.21 36.34 30.55 36.34 30.55 37.3 30.21 37.3 30.21 36.34 30.21 36.34"/><polygon class="cls-2" points="29.6 36.65 29.91 36.65 29.91 36.95 29.6 36.95 29.6 36.65 29.6 36.65"/><polygon class="cls-2" points="29.91 36.95 30.21 36.95 30.21 37.3 29.91 37.3 29.91 36.95 29.91 36.95"/><polygon class="cls-2" points="30.55 36 30.86 36 30.86 36.34 30.55 36.34 30.55 36 30.55 36"/><polygon class="cls-2" points="30.55 34.73 30.86 34.73 30.86 35.04 30.55 35.04 30.55 34.73 30.55 34.73"/><polygon class="cls-2" points="30.55 34.08 30.86 34.08 30.86 34.39 30.55 34.39 30.55 34.08 30.55 34.08"/><polygon class="cls-2" points="28.61 35.04 29.25 35.04 29.25 35.35 29.6 35.35 29.6 35.69 28.61 35.69 28.61 35.04 28.61 35.04"/><polygon class="cls-2" points="29.25 34.73 29.91 34.73 29.91 35.04 29.25 35.04 29.25 34.73 29.25 34.73"/><polygon class="cls-2" points="29.91 34.39 30.55 34.39 30.55 34.73 29.91 34.73 29.91 34.39 29.91 34.39"/><polygon class="cls-2" points="28.3 33.43 28.95 33.43 28.95 33.74 29.25 33.74 29.25 32.78 28.95 32.78 28.95 33.12 28.3 33.12 28.3 33.43 28.3 33.43"/><polygon class="cls-2" points="27.99 34.08 27.99 34.39 27.65 34.39 27.65 35.04 27.99 35.04 27.99 35.35 27.34 35.35 27.34 34.08 27.99 34.08 27.99 34.08"/><path class="cls-2" d="M26.69,31.17v.65H27v.31h-.31v.34h-.31v.31h-.65v-.31h-.34v-1.3ZM26,32.48h.34v-.65H26v-.31h-.31v.62H26v.34Z"/><polygon class="cls-2" points="25.08 44.34 25.08 44.68 25.39 44.68 25.39 45.33 24.78 45.33 24.78 44.99 24.43 44.99 24.43 44.34 25.08 44.34 25.08 44.34"/><polygon class="cls-2" points="32.47 44.68 32.47 45.33 31.82 45.33 31.82 44.99 32.16 44.99 32.16 44.68 32.47 44.68 32.47 44.68"/><polygon class="cls-2" points="21.56 33.43 22.21 33.43 22.21 33.12 22.52 33.12 22.52 33.74 22.21 33.74 22.21 34.08 21.87 34.08 21.87 33.74 21.56 33.74 21.56 33.43 21.56 33.43"/><polygon class="cls-2" points="22.52 30.87 22.21 30.87 22.21 31.52 21.56 31.52 21.56 31.82 22.21 31.82 22.21 32.13 22.52 32.13 22.52 30.87 22.52 30.87"/><polygon class="cls-2" points="24.43 28.92 25.08 28.92 25.08 29.26 24.78 29.26 24.78 29.57 24.43 29.57 24.43 31.18 24.13 31.18 24.13 29.57 23.79 29.57 23.79 29.26 24.43 29.26 24.43 28.92 24.43 28.92"/><polygon class="cls-2" points="25.39 29.91 25.39 30.22 25.08 30.22 25.08 30.53 24.78 30.53 24.78 29.91 25.39 29.91 25.39 29.91"/><polygon class="cls-2" points="25.39 33.43 25.39 34.08 25.08 34.08 25.08 33.74 24.78 33.74 24.78 33.43 25.39 33.43 25.39 33.43"/><polygon class="cls-2" points="26.69 35.35 27.34 35.35 27.34 36 27 36 27 35.69 26.69 35.69 26.69 35.35 26.69 35.35"/><polygon class="cls-2" points="27.65 29.26 27.65 29.91 27.34 29.91 27.34 29.57 27 29.57 27 29.26 26.38 29.26 26.38 28.92 26.04 28.92 26.04 28.61 26.69 28.61 26.69 28.92 27.34 28.92 27.34 29.26 27.65 29.26 27.65 29.26"/><polygon class="cls-2" points="26.69 29.57 26.69 30.22 26.04 30.22 26.04 30.87 25.39 30.87 25.39 30.53 25.73 30.53 25.73 30.22 26.04 30.22 26.04 29.91 26.38 29.91 26.38 29.57 26.69 29.57 26.69 29.57"/><polygon class="cls-2" points="52.71 41.47 53.02 41.47 53.02 41.77 52.71 41.77 52.71 41.47 52.71 41.47"/><polygon class="cls-2" points="30.21 44.34 30.86 44.34 30.86 44.68 30.21 44.68 30.21 44.34 30.21 44.34"/><polygon class="cls-2" points="30.86 25.4 31.82 25.4 31.82 25.74 32.16 25.74 32.16 26.36 32.47 26.36 32.47 26.7 32.81 26.7 32.81 27.35 32.47 27.35 32.47 27.65 32.16 27.65 32.16 27.35 32.47 27.35 32.47 26.7 31.82 26.7 31.82 25.74 31.2 25.74 31.2 26.05 31.51 26.05 31.51 26.7 31.82 26.7 31.82 27.65 31.51 27.65 31.51 26.7 31.2 26.7 31.2 26.05 30.86 26.05 30.86 25.4 30.86 25.4"/><polygon class="cls-2" points="33.12 25.74 33.43 25.74 33.43 26.7 33.77 26.7 33.77 27 33.12 27 33.12 25.74 33.12 25.74"/><polygon class="cls-2" points="33.77 25.09 34.73 25.09 34.73 25.4 33.77 25.4 33.77 25.09 33.77 25.09"/><polygon class="cls-2" points="31.82 28.3 32.47 28.3 32.47 28.61 32.16 28.61 32.16 28.92 31.82 28.92 31.82 28.3 31.82 28.3"/><polygon class="cls-2" points="32.16 28.92 32.81 28.92 32.81 29.26 32.47 29.26 32.47 29.57 32.16 29.57 32.16 28.92 32.16 28.92"/><polygon class="cls-2" points="35.99 27 36.64 27 36.64 27.35 35.99 27.35 35.99 27 35.99 27"/><polygon class="cls-2" points="36.02 25.09 36.64 25.09 36.64 25.4 36.33 25.4 36.33 26.05 36.02 26.05 36.02 25.09 36.02 25.09"/><polygon class="cls-2" points="37.6 25.09 38.25 25.09 38.25 25.74 38.59 25.74 38.59 27 38.25 27 38.25 26.05 37.94 26.05 37.94 25.4 37.6 25.4 37.6 25.09 37.6 25.09"/><polygon class="cls-2" points="37.6 27 38.25 27 38.25 27.35 37.6 27.35 37.6 27 37.6 27"/><polygon class="cls-2" points="39.55 25.09 40.5 25.09 40.5 25.4 39.55 25.4 39.55 25.09 39.55 25.09"/><polygon class="cls-2" points="41.15 25.74 40.81 25.74 40.81 26.7 40.5 26.7 40.5 27 41.15 27 41.15 25.74 41.15 25.74"/><polygon class="cls-2" points="43.41 25.4 42.42 25.4 42.42 25.74 42.11 25.74 42.11 26.36 41.8 26.36 41.8 26.7 41.46 26.7 41.46 27.35 41.8 27.35 41.8 27.65 42.11 27.65 42.11 27.35 41.8 27.35 41.8 26.7 42.42 26.7 42.42 25.74 43.07 25.74 43.07 26.05 42.76 26.05 42.76 26.7 42.42 26.7 42.42 27.65 42.76 27.65 42.76 26.7 43.07 26.7 43.07 26.05 43.41 26.05 43.41 25.4 43.41 25.4"/><polygon class="cls-2" points="26.04 36.95 26.38 36.95 26.38 37.3 27.65 37.3 27.65 36.95 27.99 36.95 27.99 37.6 26.04 37.6 26.04 36.95 26.04 36.95"/><polygon class="cls-2" points="24.43 40.17 24.43 41.47 23.79 41.47 23.82 41.13 24.13 41.13 24.13 40.17 24.43 40.17 24.43 40.17"/><polygon class="cls-2" points="27.34 43.72 27.99 43.72 27.99 44.68 27.65 44.68 27.65 44.03 27.34 44.03 27.34 43.72 27.34 43.72"/><polygon class="cls-2" points="24.43 38.56 25.08 38.56 25.08 38.25 25.39 38.25 25.39 37.95 25.73 37.95 25.73 37.6 26.04 37.6 26.04 37.95 26.38 37.95 26.38 38.25 25.73 38.25 25.73 38.9 26.69 38.9 26.69 39.21 25.73 39.21 25.73 38.9 25.08 38.9 25.08 39.21 24.78 39.21 24.78 39.86 25.08 39.86 25.08 40.17 25.39 40.17 25.39 40.51 24.78 40.51 24.78 40.17 24.43 40.17 24.43 38.56 24.43 38.56"/><polygon class="cls-2" points="22.83 35.69 23.17 35.69 23.17 36.95 22.83 36.95 22.83 37.3 22.52 37.3 22.52 36.95 22.21 36.95 22.21 36.65 22.83 36.65 22.83 35.69 22.83 35.69"/><polygon class="cls-2" points="24.43 31.52 24.13 31.52 24.13 33.74 24.43 33.74 24.43 33.43 24.78 33.43 24.78 33.12 24.43 33.12 24.43 32.78 24.78 32.78 24.78 32.48 24.43 32.48 24.43 31.52 24.43 31.52"/><polygon class="cls-2" points="27.34 30.53 27.65 30.56 27.65 29.91 27.99 29.91 27.99 31.52 28.3 31.52 28.3 32.13 27.99 32.13 27.99 31.82 27.65 31.82 27.65 30.87 27.34 30.87 27.34 30.53 27.34 30.53"/><polygon class="cls-2" points="33.77 27 34.73 27 34.73 26.7 35.03 26.7 35.03 25.7 35.38 25.7 35.38 27 35.03 27 35.03 27.35 35.38 27.35 35.38 27.65 35.68 27.65 35.68 27.35 35.99 27.35 36.02 27.65 38.25 27.65 38.25 27.35 38.59 27.35 38.59 27.65 38.9 27.65 38.9 27.35 39.2 27.35 39.2 27 38.9 27 38.9 25.74 39.2 25.74 39.2 26.7 39.55 26.7 39.55 27 40.5 27 40.5 27.35 39.55 27.35 39.55 27.65 39.24 27.65 39.2 27.96 35.03 27.96 35.03 27.65 34.73 27.65 34.73 27.35 33.77 27.35 33.77 27 33.77 27"/><polygon class="cls-2" points="39.2 31.18 38.59 31.18 38.59 31.52 38.25 31.52 38.25 31.82 38.59 31.82 38.59 32.48 38.9 32.48 38.9 31.52 39.2 31.52 39.2 31.18 39.2 31.18"/><polygon class="cls-2" points="37.94 33.12 38.25 33.12 38.25 33.77 38.59 33.74 38.59 33.43 38.9 33.43 38.9 33.77 39.55 33.74 39.55 34.08 37.94 34.08 37.94 33.74 37.6 33.74 37.6 33.43 37.94 33.43 37.94 33.12 37.94 33.12"/><polygon class="cls-2" points="39.85 32.13 39.85 32.48 40.2 32.48 40.2 32.78 40.5 32.78 40.5 32.13 39.85 32.13 39.85 32.13"/><polygon class="cls-2" points="30.55 32.48 31.2 32.48 31.2 30.87 36.98 30.87 36.98 35.35 37.29 35.35 37.29 30.87 43.07 30.87 43.07 32.48 43.72 32.48 43.72 32.13 43.37 32.13 43.41 30.53 41.15 30.53 41.15 30.22 40.5 30.22 40.5 30.53 33.77 30.53 33.77 30.22 33.12 30.22 33.12 30.53 30.86 30.53 30.86 32.13 30.55 32.13 30.55 32.48 30.55 32.48"/><polygon class="cls-2" points="31.2 33.12 31.51 33.12 31.51 33.43 33.43 33.43 33.43 30.87 33.77 30.87 33.77 33.74 31.2 33.74 31.2 33.12 31.2 33.12"/><polygon class="cls-2" points="31.2 34.39 33.77 34.39 33.77 37.3 33.43 37.3 33.43 34.7 31.2 34.73 31.2 34.39 31.2 34.39"/><polygon class="cls-2" points="36.98 34.39 34.42 34.39 34.42 37.3 34.73 37.3 34.73 34.7 36.98 34.73 36.98 34.39 36.98 34.39"/><polygon class="cls-2" points="36.98 33.74 34.42 33.74 34.42 30.87 34.73 30.87 34.73 33.43 36.98 33.43 36.98 33.74 36.98 33.74"/><polygon class="cls-2" points="35.38 39.52 35.68 39.52 35.68 35.69 38.59 35.69 38.59 38.56 38.25 38.56 38.25 39.21 38.59 39.21 38.59 38.9 38.9 38.9 38.9 35.35 35.38 35.35 35.38 39.52 35.38 39.52"/><polygon class="cls-2" points="37.29 41.16 39.85 41.16 39.85 44.03 39.55 44.03 39.55 41.47 37.29 41.47 37.29 41.16 37.29 41.16"/><polygon class="cls-2" points="43.07 41.16 40.5 41.16 40.5 44.03 40.81 44.03 40.81 41.47 43.07 41.47 43.07 41.16 43.07 41.16"/><polygon class="cls-2" points="43.07 40.51 40.5 40.51 40.5 37.6 40.81 37.6 40.81 40.17 43.07 40.17 43.07 40.51 43.07 40.51"/><polygon class="cls-2" points="37.29 40.51 39.89 40.51 39.89 37.6 39.55 37.6 39.55 40.17 37.29 40.17 37.29 40.51 37.29 40.51"/><polygon class="cls-2" points="52.71 34.39 52.37 34.39 52.37 36 52.06 36 52.06 36.34 53.67 36.34 53.67 36 52.71 36 52.71 35.35 53.36 35.35 53.36 35.04 52.71 35.04 52.71 34.39 52.71 34.39"/><polygon class="cls-2" points="52.37 39.52 53.97 39.52 53.97 39.86 52.37 39.86 52.37 39.52 52.37 39.52"/><polygon class="cls-2" points="54.31 39.52 54.62 39.52 54.62 39.86 54.31 39.86 54.31 39.52 54.31 39.52"/><polygon class="cls-2" points="53.97 39.86 54.31 39.86 54.31 40.17 53.97 40.17 53.97 39.86 53.97 39.86"/><polygon class="cls-2" points="53.97 38.25 54.31 38.25 54.31 39.55 53.97 39.55 53.97 38.25 53.97 38.25"/><polygon class="cls-2" points="54.62 38.25 54.97 38.25 54.97 39.55 54.62 39.55 54.62 38.25 54.62 38.25"/><polygon class="cls-2" points="54.31 37.95 54.62 37.95 54.62 38.25 54.31 38.25 54.31 37.95 54.31 37.95"/><polygon class="cls-2" points="53.67 37.95 53.97 37.95 53.97 38.25 53.67 38.25 53.67 37.95 53.67 37.95"/><polygon class="cls-2" points="53.67 37.3 53.97 37.3 53.97 37.6 53.67 37.6 53.67 37.3 53.67 37.3"/><polygon class="cls-2" points="53.97 37.6 54.31 37.6 54.31 37.95 53.97 37.95 53.97 37.6 53.97 37.6"/><polygon class="cls-2" points="53.36 37.6 53.67 37.6 53.67 37.95 53.36 37.95 53.36 37.6 53.36 37.6"/><polygon class="cls-2" points="53.36 36.95 53.67 36.95 53.67 37.3 53.36 37.3 53.36 36.95 53.36 36.95"/><polygon class="cls-2" points="53.02 37.3 53.36 37.3 53.36 37.6 53.02 37.6 53.02 37.3 53.02 37.3"/><polygon class="cls-2" points="53.67 36.34 53.97 36.34 53.97 36.95 53.67 36.95 53.67 36.34 53.67 36.34"/><polygon class="cls-2" points="52.37 37.6 53.02 37.6 53.02 37.95 52.37 37.95 52.37 37.6 52.37 37.6"/><polygon class="cls-2" points="51.75 37.3 52.37 37.3 52.37 37.6 51.75 37.6 51.75 37.3 51.75 37.3"/><polygon class="cls-2" points="51.41 35.35 51.75 35.35 51.75 35.69 51.41 35.69 51.41 35.35 51.41 35.35"/><polygon class="cls-2" points="51.75 34.08 52.06 34.08 52.06 36 51.75 36 51.75 34.08 51.75 34.08"/><polygon class="cls-2" points="53.36 35.35 53.67 35.35 53.67 35.69 53.36 35.69 53.36 35.35 53.36 35.35"/><polygon class="cls-2" points="52.71 34.08 53.36 34.08 53.36 34.39 52.71 34.39 52.71 34.08 52.71 34.08"/><polygon class="cls-2" points="53.36 32.48 53.67 32.48 53.67 34.08 53.36 34.08 53.36 32.48 53.36 32.48"/><polygon class="cls-2" points="52.71 32.78 53.02 32.78 53.02 33.43 52.71 33.43 52.71 32.78 52.71 32.78"/><polygon class="cls-2" points="52.06 32.13 52.37 32.13 52.37 33.12 52.06 33.12 52.06 32.13 52.06 32.13"/><polygon class="cls-2" points="52.71 31.82 53.02 31.82 53.02 32.13 52.71 32.13 52.71 31.82 52.71 31.82"/><polygon class="cls-2" points="53.02 32.13 53.36 32.13 53.36 32.48 53.02 32.48 53.02 32.13 53.02 32.13"/><polygon class="cls-2" points="53.67 40.17 53.97 40.17 53.97 40.82 53.67 40.82 53.67 40.17 53.67 40.17"/><polygon class="cls-2" points="53.36 40.82 53.67 40.82 53.67 41.13 53.36 41.13 53.36 40.82 53.36 40.82"/><polygon class="cls-2" points="52.71 40.51 53.36 40.51 53.36 40.82 52.71 40.82 52.71 40.51 52.71 40.51"/><polygon class="cls-2" points="52.71 33.43 52.06 33.43 52.06 33.12 51.75 33.12 51.75 33.74 52.06 33.74 52.06 34.08 52.37 34.08 52.37 33.74 52.71 33.74 52.71 33.43 52.71 33.43"/><polygon class="cls-2" points="51.75 30.87 52.06 30.87 52.06 31.52 52.71 31.52 52.71 31.82 52.06 31.82 52.06 32.13 51.75 32.13 51.75 30.87 51.75 30.87"/><polygon class="cls-2" points="51.41 35.69 51.1 35.69 51.1 36.95 51.41 36.95 51.41 37.3 51.75 37.3 51.75 36.95 52.06 36.95 52.06 36.65 51.41 36.65 51.41 35.69 51.41 35.69"/><polygon class="cls-2" points="43.37 44.99 45.97 44.99 45.97 45.33 43.37 45.33 43.37 44.99 43.37 44.99"/><polygon class="cls-2" points="48.84 30.87 49.15 30.87 49.15 31.18 48.84 31.18 48.84 30.87 48.84 30.87"/><polygon class="cls-2" points="46.93 30.87 47.24 30.87 47.24 31.82 46.93 31.82 46.93 30.87 46.93 30.87"/><polygon class="cls-2" points="46.93 32.13 47.24 32.13 47.24 32.48 46.93 32.48 46.93 32.13 46.93 32.13"/><polygon class="cls-2" points="45.63 32.13 45.97 32.13 45.97 32.48 45.63 32.48 45.63 32.13 45.63 32.13"/><polygon class="cls-2" points="45.94 32.48 46.28 32.48 46.28 33.12 45.94 33.12 45.94 32.48 45.94 32.48"/><polygon class="cls-2" points="45.32 33.74 45.63 33.74 45.63 34.39 45.32 34.39 45.32 33.74 45.32 33.74"/><polygon class="cls-2" points="44.67 33.74 44.98 33.74 44.98 34.08 44.67 34.08 44.67 33.74 44.67 33.74"/><polygon class="cls-2" points="44.02 33.43 44.67 33.43 44.67 33.74 44.02 33.74 44.02 33.43 44.02 33.43"/><polygon class="cls-2" points="43.72 32.48 44.02 32.48 44.02 33.43 43.72 33.43 43.72 32.48 43.72 32.48"/><polygon class="cls-2" points="47.55 29.91 47.55 29.57 47.89 29.57 47.89 29.91 47.55 29.91 47.55 29.91"/><polygon class="cls-2" points="46.59 28.61 46.93 28.61 46.93 28.92 46.59 28.92 46.59 28.61 46.59 28.61"/><polygon class="cls-2" points="48.2 28.3 48.84 28.3 48.84 28.61 48.2 28.61 48.2 28.3 48.2 28.3"/><polygon class="cls-2" points="48.84 28.61 49.15 28.61 49.15 28.92 48.84 28.92 48.84 28.61 48.84 28.61"/><polygon class="cls-2" points="49.5 31.18 49.8 31.18 49.8 31.52 49.5 31.52 49.5 31.18 49.5 31.18"/><polygon class="cls-2" points="49.15 31.52 49.5 31.52 49.5 32.48 49.15 32.48 49.15 31.52 49.15 31.52"/><polygon class="cls-2" points="49.5 33.74 49.8 33.74 49.8 34.39 49.5 34.39 49.5 33.74 49.5 33.74"/><polygon class="cls-2" points="49.15 34.39 49.5 34.39 49.5 35.35 49.15 35.35 49.15 34.39 49.15 34.39"/><polygon class="cls-2" points="49.15 35.69 49.5 35.69 49.5 36.65 49.15 36.65 49.15 35.69 49.15 35.69"/><polygon class="cls-2" points="49.5 35.35 49.8 35.35 49.8 36 49.5 36 49.5 35.35 49.5 35.35"/><polygon class="cls-2" points="49.5 36.65 49.8 36.65 49.8 36.95 49.5 36.95 49.5 36.65 49.5 36.65"/><polygon class="cls-2" points="49.5 37.95 49.8 37.95 49.8 38.25 49.5 38.25 49.5 37.95 49.5 37.95"/><polygon class="cls-2" points="49.8 36.95 50.15 36.95 50.15 37.3 49.8 37.3 49.8 36.95 49.8 36.95"/><polygon class="cls-2" points="49.15 37.3 49.5 37.3 49.5 37.95 49.15 37.95 49.15 37.3 49.15 37.3"/><polygon class="cls-2" points="49.8 38.25 50.15 38.25 50.15 38.56 49.8 38.56 49.8 38.25 49.8 38.25"/><polygon class="cls-2" points="50.15 37.3 50.45 37.3 50.45 37.6 50.15 37.6 50.15 37.3 50.15 37.3"/><polygon class="cls-2" points="50.45 37.6 50.76 37.6 50.76 37.95 50.45 37.95 50.45 37.6 50.45 37.6"/><polygon class="cls-2" points="50.76 37.95 51.1 37.95 51.1 38.25 50.76 38.25 50.76 37.95 50.76 37.95"/><polygon class="cls-2" points="51.1 38.25 51.41 38.25 51.41 38.56 51.1 38.56 51.1 38.25 51.1 38.25"/><polygon class="cls-2" points="51.41 38.56 51.75 38.56 51.75 38.9 51.41 38.9 51.41 38.56 51.41 38.56"/><polygon class="cls-2" points="50.76 38.9 51.1 38.9 51.1 39.21 50.76 39.21 50.76 38.9 50.76 38.9"/><polygon class="cls-2" points="50.15 38.56 50.76 38.56 50.76 38.9 50.15 38.9 50.15 38.56 50.15 38.56"/><polygon class="cls-2" points="51.75 38.9 52.06 38.9 52.06 39.21 51.75 39.21 51.75 38.9 51.75 38.9"/><polygon class="cls-2" points="52.06 39.21 52.37 39.21 52.37 39.55 52.06 39.55 52.06 39.21 52.06 39.21"/><polygon class="cls-2" points="53.97 42.73 54.31 42.73 54.31 43.38 53.97 43.38 53.97 42.73 53.97 42.73"/><polygon class="cls-2" points="52.71 41.47 53.02 41.47 53.02 41.77 52.71 41.77 52.71 41.47 52.71 41.47"/><polygon class="cls-2" points="52.37 40.17 52.71 40.17 52.71 40.51 52.37 40.51 52.37 40.17 52.37 40.17"/><polygon class="cls-2" points="52.37 40.82 52.71 40.82 52.71 41.47 52.37 41.47 52.37 40.82 52.37 40.82"/><polygon class="cls-2" points="53.02 41.77 53.67 41.77 53.67 42.12 53.02 42.12 53.02 41.77 53.02 41.77"/><polygon class="cls-2" points="52.06 41.77 52.71 41.77 52.71 42.12 52.06 42.12 52.06 41.77 52.06 41.77"/><polygon class="cls-2" points="52.71 42.12 53.02 42.12 53.02 42.42 52.71 42.42 52.71 42.12 52.71 42.12"/><polygon class="cls-2" points="53.02 42.42 53.36 42.42 53.36 43.07 53.02 43.07 53.02 42.42 53.02 42.42"/><polygon class="cls-2" points="53.67 42.12 53.97 42.12 53.97 42.73 53.67 42.73 53.67 42.12 53.67 42.12"/><polygon class="cls-2" points="48.54 35.35 48.84 35.35 48.84 35.69 48.54 35.69 48.54 35.35 48.54 35.35"/><polygon class="cls-2" points="47.89 36 48.2 36 48.2 36.34 47.89 36.34 47.89 36 47.89 36"/><polygon class="cls-2" points="48.2 36.34 48.54 36.34 48.54 36.65 48.2 36.65 48.2 36.34 48.2 36.34"/><polygon class="cls-2" points="47.55 35.69 47.89 35.69 47.89 36 47.55 36 47.55 35.69 47.55 35.69"/><polygon class="cls-2" points="48.2 35.69 48.54 35.69 48.54 36 48.2 36 48.2 35.69 48.2 35.69"/><polygon class="cls-2" points="53.67 43.38 53.97 43.38 53.97 43.72 53.67 43.72 53.67 43.38 53.67 43.38"/><polygon class="cls-2" points="53.36 43.72 53.67 43.72 53.67 44.68 53.36 44.68 53.36 43.72 53.36 43.72"/><polygon class="cls-2" points="51.41 44.68 51.75 44.68 51.75 44.34 50.45 44.34 50.45 44.68 51.1 44.68 51.1 44.99 50.45 44.99 50.45 45.33 53.02 45.33 53.02 44.99 51.41 44.99 51.41 44.68 51.41 44.68"/><polygon class="cls-2" points="51.75 44.03 52.06 44.03 52.06 44.34 51.75 44.34 51.75 44.03 51.75 44.03"/><polygon class="cls-2" points="52.06 43.07 52.37 43.07 52.37 44.03 52.06 44.03 52.06 43.07 52.06 43.07"/><polygon class="cls-2" points="51.75 42.73 52.06 42.73 52.06 43.07 51.75 43.07 51.75 42.73 51.75 42.73"/><polygon class="cls-2" points="51.1 42.42 51.75 42.42 51.75 42.73 51.1 42.73 51.1 42.42 51.1 42.42"/><polygon class="cls-2" points="50.76 42.12 51.1 42.12 51.1 42.42 50.76 42.42 50.76 42.12 50.76 42.12"/><polygon class="cls-2" points="49.8 44.99 50.15 44.99 50.15 45.33 49.8 45.33 49.8 44.99 49.8 44.99"/><polygon class="cls-2" points="49.8 44.03 50.45 44.03 50.45 44.34 49.8 44.34 49.8 44.03 49.8 44.03"/><polygon class="cls-2" points="50.45 41.77 50.76 41.77 50.76 42.12 50.45 42.12 50.45 41.77 50.45 41.77"/><polygon class="cls-2" points="49.15 42.12 50.45 42.12 50.45 42.42 49.15 42.42 49.15 42.12 49.15 42.12"/><polygon class="cls-2" points="48.54 40.51 48.84 40.51 48.84 40.82 48.54 40.82 48.54 40.51 48.54 40.51"/><polygon class="cls-2" points="48.84 42.42 49.15 42.42 49.15 42.73 48.84 42.73 48.84 42.42 48.84 42.42"/><polygon class="cls-2" points="48.84 41.77 49.15 41.77 49.15 42.12 48.84 42.12 48.84 41.77 48.84 41.77"/><polygon class="cls-2" points="49.15 41.47 49.8 41.47 49.8 41.77 49.15 41.77 49.15 41.47 49.15 41.47"/><polygon class="cls-2" points="50.45 40.51 50.76 40.51 50.76 41.13 50.45 41.13 50.45 40.51 50.45 40.51"/><polygon class="cls-2" points="50.76 40.17 51.1 40.17 51.1 40.51 50.76 40.51 50.76 40.17 50.76 40.17"/><polygon class="cls-2" points="51.75 41.47 52.06 41.47 52.06 41.77 51.75 41.77 51.75 41.47 51.75 41.47"/><polygon class="cls-2" points="48.2 40.82 48.54 40.82 48.54 41.13 48.2 41.13 48.2 40.82 48.2 40.82"/><polygon class="cls-2" points="47.55 41.77 47.89 41.77 47.89 42.12 47.55 42.12 47.55 41.77 47.55 41.77"/><polygon class="cls-2" points="47.89 41.13 48.2 41.13 48.2 41.77 47.89 41.77 47.89 41.13 47.89 41.13"/><polygon class="cls-2" points="47.24 42.12 47.55 42.12 47.55 42.42 47.24 42.42 47.24 42.12 47.24 42.12"/><polygon class="cls-2" points="46.93 42.42 47.24 42.42 47.24 42.73 46.93 42.73 46.93 42.42 46.93 42.42"/><polygon class="cls-2" points="46.59 42.73 46.93 42.73 46.93 43.38 46.59 43.38 46.59 42.73 46.59 42.73"/><polygon class="cls-2" points="46.93 43.38 47.24 43.38 47.24 43.72 46.93 43.72 46.93 43.38 46.93 43.38"/><polygon class="cls-2" points="45.94 44.68 46.28 44.68 46.28 44.99 45.94 44.99 45.94 44.68 45.94 44.68"/><polygon class="cls-2" points="42.76 44.99 43.07 44.99 43.07 45.33 42.76 45.33 42.76 44.99 42.76 44.99"/><polygon class="cls-2" points="43.07 44.68 43.37 44.68 43.37 44.99 43.07 44.99 43.07 44.68 43.07 44.68"/><polygon class="cls-2" points="42.42 44.34 42.76 44.34 42.76 44.99 42.42 44.99 42.42 44.34 42.42 44.34"/><polygon class="cls-2" points="42.76 44.03 43.37 44.03 43.37 44.34 42.76 44.34 42.76 44.03 42.76 44.03"/><polygon class="cls-2" points="42.11 44.34 42.42 44.34 42.42 44.68 42.11 44.68 42.11 44.34 42.11 44.34"/><polygon class="cls-2" points="44.37 44.03 44.67 44.03 44.67 44.34 44.37 44.34 44.37 44.03 44.37 44.03"/><polygon class="cls-2" points="44.02 44.34 44.37 44.34 44.37 44.99 44.02 44.99 44.02 44.34 44.02 44.34"/><polygon class="cls-2" points="44.67 43.72 44.98 43.72 44.98 44.03 44.67 44.03 44.67 43.72 44.67 43.72"/><polygon class="cls-2" points="45.94 42.73 46.28 42.73 46.28 43.72 45.94 43.72 45.94 42.73 45.94 42.73"/><polygon class="cls-2" points="44.98 41.77 45.32 41.77 45.32 43.72 44.98 43.72 44.98 41.77 44.98 41.77"/><polygon class="cls-2" points="44.67 41.47 44.98 41.47 44.98 41.77 44.67 41.77 44.67 41.47 44.67 41.47"/><polygon class="cls-2" points="44.02 41.77 44.67 41.77 44.67 42.12 44.02 42.12 44.02 41.77 44.02 41.77"/><polygon class="cls-2" points="43.72 41.13 44.02 41.13 44.02 42.42 43.72 42.42 43.72 41.13 43.72 41.13"/><polygon class="cls-2" points="44.02 40.82 44.67 40.82 44.67 41.13 44.02 41.13 44.02 40.82 44.02 40.82"/><polygon class="cls-2" points="45.63 40.17 45.97 40.17 45.97 40.51 45.63 40.51 45.63 40.17 45.63 40.17"/><polygon class="cls-2" points="44.67 40.51 45.63 40.51 45.63 40.82 44.67 40.82 44.67 40.51 44.67 40.51"/><polygon class="cls-2" points="45.32 40.51 45.63 40.51 45.63 40.82 45.32 40.82 45.32 40.51 45.32 40.51"/><polygon class="cls-2" points="45.94 39.86 46.59 39.86 46.59 40.17 45.94 40.17 45.94 39.86 45.94 39.86"/><polygon class="cls-2" points="46.59 39.52 46.93 39.52 46.93 39.86 46.59 39.86 46.59 39.52 46.59 39.52"/><polygon class="cls-2" points="46.93 39.21 47.55 39.21 47.55 39.55 46.93 39.55 46.93 39.21 46.93 39.21"/><polygon class="cls-2" points="45.63 37.6 46.28 37.6 46.28 37.95 45.63 37.95 45.63 37.6 45.63 37.6"/><polygon class="cls-2" points="45.32 37.95 45.63 37.95 45.63 38.25 45.32 38.25 45.32 37.95 45.32 37.95"/><polygon class="cls-2" points="44.98 37.6 45.32 37.6 45.32 37.95 44.98 37.95 44.98 37.6 44.98 37.6"/><polygon class="cls-2" points="43.72 37.95 44.98 37.95 44.98 38.25 43.72 38.25 43.72 37.95 43.72 37.95"/><polygon class="cls-2" points="43.37 37.6 43.72 37.6 43.72 37.95 43.37 37.95 43.37 37.6 43.37 37.6"/><polygon class="cls-2" points="43.37 38.25 43.72 38.25 43.72 38.56 43.37 38.56 43.37 38.25 43.37 38.25"/><polygon class="cls-2" points="47.24 35.35 47.55 35.35 47.55 35.69 47.24 35.69 47.24 35.35 47.24 35.35"/><polygon class="cls-2" points="46.59 36.65 46.93 36.65 46.93 36.95 46.59 36.95 46.59 36.65 46.59 36.65"/><polygon class="cls-2" points="45.94 35.35 46.28 35.35 46.28 35.69 45.94 35.69 45.94 35.35 45.94 35.35"/><polygon class="cls-2" points="46.93 33.74 47.55 33.74 47.55 34.08 46.93 34.08 46.93 33.74 46.93 33.74"/><polygon class="cls-2" points="45.63 35.69 45.94 35.69 45.94 36 45.63 36 45.63 35.69 45.63 35.69"/><polygon class="cls-2" points="44.98 36 45.63 36 45.63 36.34 44.98 36.34 44.98 36 44.98 36"/><polygon class="cls-2" points="44.67 36.34 44.98 36.34 44.98 36.65 44.67 36.65 44.67 36.34 44.67 36.34"/><polygon class="cls-2" points="43.72 36.34 44.02 36.34 44.02 37.3 43.72 37.3 43.72 36.34 43.72 36.34"/><polygon class="cls-2" points="44.37 36.65 44.67 36.65 44.67 36.95 44.37 36.95 44.37 36.65 44.37 36.65"/><polygon class="cls-2" points="44.02 36.95 44.37 36.95 44.37 37.3 44.02 37.3 44.02 36.95 44.02 36.95"/><polygon class="cls-2" points="43.37 36 43.72 36 43.72 36.34 43.37 36.34 43.37 36 43.37 36"/><polygon class="cls-2" points="43.37 34.73 43.72 34.73 43.72 35.04 43.37 35.04 43.37 34.73 43.37 34.73"/><polygon class="cls-2" points="43.37 34.08 43.72 34.08 43.72 34.39 43.37 34.39 43.37 34.08 43.37 34.08"/><polygon class="cls-2" points="45.63 35.04 44.98 35.04 44.98 35.35 44.67 35.35 44.67 35.69 45.63 35.69 45.63 35.04 45.63 35.04"/><polygon class="cls-2" points="44.37 34.73 44.98 34.73 44.98 35.04 44.37 35.04 44.37 34.73 44.37 34.73"/><polygon class="cls-2" points="43.72 34.39 44.37 34.39 44.37 34.73 43.72 34.73 43.72 34.39 43.72 34.39"/><polygon class="cls-2" points="45.97 33.43 45.32 33.43 45.32 33.74 44.98 33.74 44.98 32.78 45.32 32.78 45.32 33.12 45.97 33.12 45.97 33.43 45.97 33.43"/><polygon class="cls-2" points="46.28 34.08 46.28 34.39 46.59 34.39 46.59 35.04 46.28 35.04 46.28 35.35 46.93 35.35 46.93 34.08 46.28 34.08 46.28 34.08"/><path class="cls-2" d="M48.85,31.17v1.3h-.31v.31h-.65v-.31h-.34v-.34h-.31v-.31h.31v-.65Zm-.65,1h.34v-.62H48.2v.31h-.31v.65h.31v-.34Z"/><polygon class="cls-2" points="49.15 44.34 49.15 44.68 48.84 44.68 48.84 45.33 49.5 45.33 49.5 44.99 49.8 44.99 49.8 44.34 49.15 44.34 49.15 44.34"/><polygon class="cls-2" points="41.77 44.68 41.77 45.33 42.42 45.33 42.42 44.99 42.11 44.99 42.11 44.68 41.77 44.68 41.77 44.68"/><polygon class="cls-2" points="49.8 28.92 49.15 28.92 49.15 29.26 49.5 29.26 49.5 29.57 49.8 29.57 49.8 31.18 50.15 31.18 50.15 29.57 50.45 29.57 50.45 29.26 49.8 29.26 49.8 28.92 49.8 28.92"/><polygon class="cls-2" points="48.84 29.91 48.84 30.22 49.15 30.22 49.15 30.53 49.5 30.53 49.5 29.91 48.84 29.91 48.84 29.91"/><polygon class="cls-2" points="48.84 33.43 48.84 34.08 49.15 34.08 49.15 33.74 49.5 33.74 49.5 33.43 48.84 33.43 48.84 33.43"/><polygon class="cls-2" points="47.55 35.35 46.93 35.35 46.93 36 47.24 36 47.24 35.69 47.55 35.69 47.55 35.35 47.55 35.35"/><polygon class="cls-2" points="46.59 29.26 46.59 29.91 46.93 29.91 46.93 29.57 47.24 29.57 47.24 29.26 47.89 29.26 47.89 28.92 48.2 28.92 48.2 28.61 47.55 28.61 47.55 28.92 46.93 28.92 46.93 29.26 46.59 29.26 46.59 29.26"/><polygon class="cls-2" points="47.55 29.57 47.55 30.22 48.2 30.22 48.2 30.87 48.84 30.87 48.84 30.53 48.54 30.53 48.54 30.22 48.2 30.22 48.2 29.91 47.89 29.91 47.89 29.57 47.55 29.57 47.55 29.57"/><polygon class="cls-2" points="43.37 44.34 44.02 44.34 44.02 44.68 43.37 44.68 43.37 44.34 43.37 44.34"/><polygon class="cls-2" points="48.2 36.95 47.89 36.95 47.89 37.3 46.59 37.3 46.59 36.95 46.28 36.95 46.28 37.6 48.2 37.6 48.2 36.95 48.2 36.95"/><polygon class="cls-2" points="49.8 40.17 49.8 41.47 50.45 41.47 50.45 41.13 50.15 41.13 50.15 40.17 49.8 40.17 49.8 40.17"/><polygon class="cls-2" points="46.93 43.72 46.28 43.72 46.28 44.68 46.59 44.68 46.59 44.03 46.93 44.03 46.93 43.72 46.93 43.72"/><polygon class="cls-2" points="49.8 38.56 49.15 38.56 49.15 38.25 48.84 38.25 48.84 37.95 48.54 37.95 48.54 37.6 48.2 37.6 48.2 37.95 47.89 37.95 47.89 38.25 48.54 38.25 48.54 38.9 47.55 38.9 47.55 39.21 48.54 39.21 48.54 38.9 49.15 38.9 49.15 39.21 49.5 39.21 49.5 39.86 49.15 39.86 49.15 40.17 48.84 40.17 48.84 40.51 49.5 40.51 49.5 40.17 49.8 40.17 49.8 38.56 49.8 38.56"/><polygon class="cls-2" points="49.8 31.52 50.15 31.52 50.15 33.74 49.8 33.74 49.8 33.43 49.5 33.43 49.5 33.12 49.8 33.12 49.8 32.78 49.5 32.78 49.5 32.48 49.8 32.48 49.8 31.52 49.8 31.52"/><polygon class="cls-2" points="46.93 30.53 46.59 30.56 46.59 29.91 46.28 29.91 46.28 31.52 45.94 31.52 45.97 32.13 46.28 32.13 46.28 31.82 46.59 31.82 46.59 30.87 46.93 30.87 46.93 30.53 46.93 30.53"/><polygon class="cls-2" points="53.02 44.68 53.36 44.68 53.36 44.99 53.02 44.99 53.02 44.68 53.02 44.68"/><polygon class="cls-2" points="50.15 44.68 50.45 44.68 50.45 44.99 50.15 44.99 50.15 44.68 50.15 44.68"/><path class="cls-2" d="M69.91,39.31a3.12,3.12,0,0,1-2.74,1.74,2.82,2.82,0,0,1-1.3-.31l-.55,3.52H64.26l1.54-9.78,1.09-.17-.44,2.32a3.67,3.67,0,0,1,.27-.44,6.2,6.2,0,0,1,1-1.09,3.44,3.44,0,0,1,1.84-.92c.72,0,1.2.79,1.2,1.92a6.55,6.55,0,0,1-.89,3.21Zm-.68-4.1A2.76,2.76,0,0,0,68,36a18.59,18.59,0,0,0-1.3,1.47,2.69,2.69,0,0,0-.51,1.23L66,39.86a1.86,1.86,0,0,0,1.2.38c1.33,0,2.43-1.81,2.43-4.07,0-.62-.14-1-.41-1Z"/><path class="cls-2" d="M76.54,35.48a.58.58,0,0,0-.41-.1,1.17,1.17,0,0,0-.85.41,4.29,4.29,0,0,0-1.13,1.74,11.77,11.77,0,0,0-.41,1.71l-.27,1.61H72.4l1-6.36,1.13-.17-.41,1.88c.79-1.37,1.4-1.92,2.12-1.92a1.47,1.47,0,0,1,.75.2l-.44,1Z"/><path class="cls-2" d="M79.51,41c-1.3,0-2.16-1-2.16-2.56,0-2.33,1.57-4.21,3.45-4.21,1.33,0,2.15,1,2.15,2.67,0,2.22-1.57,4.1-3.45,4.1Zm1.16-5.88A2.1,2.1,0,0,0,79,36.34a4.34,4.34,0,0,0-.55,2c0,1.09.44,1.81,1.13,1.81,1.26,0,2.29-1.47,2.29-3.25,0-1.16-.41-1.78-1.2-1.78Z"/><path class="cls-2" d="M89.8,36.24c-.14.68-.38,1-1.47,2.22l-.89,1c-.58.58-.85.86-1.64,1.54h-.75V34.49l1-.17v5.16a3.53,3.53,0,0,1,.34-.34c.1-.14.48-.55,1.09-1.19.34-.41.62-.79.85-1.06a2.15,2.15,0,0,0,.44-1.23.92.92,0,0,0-.17-.55,3.31,3.31,0,0,0-.34-.44l1-.34a1.93,1.93,0,0,1,.62,1.43,2.63,2.63,0,0,1-.07.48Z"/><path class="cls-2" d="M93.87,31.86c-.1.48-.41.82-.75.82s-.48-.38-.48-.86a.38.38,0,0,1,0-.17.84.84,0,0,1,.75-.79c.27,0,.48.38.48.82a.26.26,0,0,1,0,.17Zm-1.57,9H91.21l1-6.36,1.09-.17-1,6.53Z"/><path class="cls-2" d="M101.05,35.93l-.75,4.92h-1.1L100,36.1l0-.31a.43.43,0,0,0,0-.21c0-.31-.11-.44-.28-.44-.34,0-.82.34-1.4,1A12.14,12.14,0,0,0,97,37.84a3.47,3.47,0,0,0-.31.62,5.91,5.91,0,0,0-.31,1.13l-.21,1.27H95.1l1-6.36,1.09-.17-.48,2.6a2.87,2.87,0,0,1,.34-.44,8.37,8.37,0,0,1,1-1.23,2.88,2.88,0,0,1,2-1c.75,0,1.09.37,1.09,1.16a3.15,3.15,0,0,1-.07.55Z"/><path class="cls-2" d="M107.48,35.55a1.57,1.57,0,0,0-1.16-.48c-1.27,0-2.29,1.68-2.29,3.76,0,.85.17,1.2.58,1.2.58,0,1.37-.58,2.46-1.78l.62.55c-1.2,1.44-2.33,2.15-3.42,2.15-.85,0-1.4-.75-1.4-2,0-2.56,1.64-4.75,3.56-4.75a2.42,2.42,0,0,1,1.67.62l-.61.72Z"/><path class="cls-2" d="M111.82,31.86c-.1.48-.41.82-.75.82s-.48-.38-.48-.86v-.17c.1-.48.41-.79.79-.79s.48.38.48.82a.26.26,0,0,1,0,.17Zm-1.57,9h-1.1l1-6.36,1.1-.17-1,6.53Z"/><path class="cls-2" d="M117.05,36.68l-3,1.85a1,1,0,0,0,0,.34c0,.78.28,1.2.75,1.2a3.89,3.89,0,0,0,2.53-1.81l.61.62c-1.23,1.37-2.32,2.08-3.32,2.08S113,40.24,113,38.84c0-2.5,1.6-4.65,3.49-4.65.92,0,1.5.48,1.5,1.2a1.41,1.41,0,0,1-.89,1.3ZM116.3,35c-.89,0-1.81,1.09-2.09,2.53l2.67-1.71a.42.42,0,0,0,.07-.24.64.64,0,0,0-.65-.58Z"/><path class="cls-2" d="M139,40.24a4,4,0,0,1-2.6.89,4.06,4.06,0,0,1-2.6-.89,2.92,2.92,0,0,1-1.09-2.6V31.45h1.16v5.81c0,1.2.1,1.51.55,2a2.63,2.63,0,0,0,2,.79,2.5,2.5,0,0,0,1.95-.79c.48-.51.55-.82.55-2V31.45h1.16v6.19a2.91,2.91,0,0,1-1.06,2.6Z"/><path class="cls-2" d="M146,39c-.31.31-.55.55-.72.68a10.94,10.94,0,0,1-1.44,1.09,1.35,1.35,0,0,1-.72.2,1.43,1.43,0,0,1-.17-.75c0-.14,0-.31,0-.51s.07-.48.07-.62l.62-3.86h-1.23l.1-.79,1.27-.1.31-1.78,1.09-.17-.31,1.95h1.33l-.14.89h-1.34l-.68,4.41.37-.31.51-.51.44-.41.31-.31.55.65L146,39Z"/><path class="cls-2" d="M151.82,35.48a.58.58,0,0,0-.41-.1,1.18,1.18,0,0,0-.89.41,4.52,4.52,0,0,0-1.09,1.74,11.08,11.08,0,0,0-.44,1.71l-.24,1.61h-1.1l1-6.36,1.1-.17-.38,1.88c.79-1.37,1.4-1.92,2.12-1.92a1.28,1.28,0,0,1,.72.2l-.41,1Z"/><path class="cls-2" d="M156.68,36.68l-3,1.85v.34c0,.78.27,1.2.75,1.2A4,4,0,0,0,157,38.25l.62.62c-1.23,1.37-2.33,2.08-3.32,2.08s-1.67-.72-1.67-2.12c0-2.5,1.61-4.65,3.49-4.65.92,0,1.5.48,1.5,1.2a1.41,1.41,0,0,1-.89,1.3ZM155.93,35c-.89,0-1.81,1.09-2.09,2.53l2.67-1.71a.42.42,0,0,0,.07-.24.64.64,0,0,0-.65-.58Z"/><path class="cls-2" d="M163.76,35.55a1.57,1.57,0,0,0-1.16-.48c-1.27,0-2.29,1.68-2.29,3.76,0,.85.17,1.2.62,1.2s1.37-.58,2.43-1.78l.62.55c-1.17,1.44-2.33,2.15-3.39,2.15-.89,0-1.44-.75-1.44-2,0-2.56,1.64-4.75,3.56-4.75a2.37,2.37,0,0,1,1.67.62l-.62.72Z"/><path class="cls-2" d="M171.42,35.93l-.75,4.92h-1.1l.75-4.75,0-.31a.46.46,0,0,0,0-.21c0-.31-.1-.44-.27-.44-.34,0-.82.34-1.4,1a9.81,9.81,0,0,0-1.37,1.71,3.89,3.89,0,0,0-.34.62,6,6,0,0,0-.27,1.13l-.21,1.27h-1.09l1.64-10.29,1.09-.21-.62,4c-.2,1.37-.27,1.64-.48,2.6a2.88,2.88,0,0,1,.34-.44,8.67,8.67,0,0,1,1-1.23,2.89,2.89,0,0,1,1.95-1c.72,0,1.06.37,1.06,1.16a3.09,3.09,0,0,1,0,.55Z"/><path class="cls-2" d="M176.71,39a4.16,4.16,0,0,1-.72.68,8.79,8.79,0,0,1-1.4,1.09,1.37,1.37,0,0,1-.72.2,1.43,1.43,0,0,1-.17-.75c0-.14,0-.31,0-.51s.07-.48.07-.62l.62-3.86h-1.26l.14-.79,1.26-.1.27-1.78,1.13-.17-.34,1.95H177l-.14.89h-1.37l-.68,4.41.38-.31.55-.51.45-.41.31-.31.51.65-.27.24Z"/></svg>