<svg id="Zeeland" xmlns="http://www.w3.org/2000/svg" viewBox="0 0 190 75"><defs><style>.cls-1{fill:#475a79;}.cls-2{fill:#cd1e55;}</style></defs><title>Artboard 1</title><path class="cls-1" d="M45.6,27.61a.1.1,0,0,1-.11-.11V20.3a.1.1,0,0,1,.11-.11h2.78a2.31,2.31,0,1,1,0,4.61H46.84a.06.06,0,0,0-.07.07V27.5a.1.1,0,0,1-.11.11Zm3.94-5.12a1.12,1.12,0,0,0-1.23-1.15H46.84a.06.06,0,0,0-.07.07v2.16a.06.06,0,0,0,.07.07h1.46a1.11,1.11,0,0,0,1.23-1.15"/><path class="cls-1" d="M52.1,27.61A.1.1,0,0,1,52,27.5v-5a.1.1,0,0,1,.11-.11h1a.1.1,0,0,1,.11.11v.45h0a1.51,1.51,0,0,1,1.36-.68,1.59,1.59,0,0,1,1.1.44c.05.05.07.1,0,.15l-.58.73a.1.1,0,0,1-.15,0,1.43,1.43,0,0,0-.77-.25c-.69,0-1,.49-1,1.33V27.5a.1.1,0,0,1-.11.11Z"/><path class="cls-1" d="M56.39,26.28a3.87,3.87,0,0,1-.17-1.3,3.87,3.87,0,0,1,.17-1.3,2.34,2.34,0,0,1,4.33,0,3.88,3.88,0,0,1,.17,1.3,3.88,3.88,0,0,1-.17,1.3,2.34,2.34,0,0,1-4.33,0M59.54,26a3,3,0,0,0,.11-1,3,3,0,0,0-.11-1,1,1,0,0,0-1-.69,1,1,0,0,0-1,.69,3,3,0,0,0-.11,1,3,3,0,0,0,.11,1,1,1,0,0,0,1,.69,1,1,0,0,0,1-.69"/><path class="cls-1" d="M63.62,27.61a.14.14,0,0,1-.14-.11l-1.85-5c0-.07,0-.11.09-.11h1.07a.14.14,0,0,1,.13.11l1.16,3.41h0l1.13-3.41a.14.14,0,0,1,.13-.11h1c.07,0,.11,0,.09.11l-1.85,5a.14.14,0,0,1-.14.11Z"/><path class="cls-1" d="M67.65,21.36a.1.1,0,0,1-.11-.11V20.3a.1.1,0,0,1,.11-.11h1a.1.1,0,0,1,.11.11v.95a.1.1,0,0,1-.11.11Zm0,6.25a.1.1,0,0,1-.11-.11v-5a.1.1,0,0,1,.11-.11h1a.1.1,0,0,1,.11.11v5a.1.1,0,0,1-.11.11Z"/><path class="cls-1" d="M73.68,27.61a.1.1,0,0,1-.11-.11v-3c0-.68-.34-1.15-1-1.15a1,1,0,0,0-1,1.15v3a.1.1,0,0,1-.11.11h-1a.1.1,0,0,1-.11-.11v-5a.1.1,0,0,1,.11-.11h1a.1.1,0,0,1,.11.11v.38h0A1.63,1.63,0,0,1,73,22.23a1.79,1.79,0,0,1,1.82,2V27.5a.1.1,0,0,1-.11.11Z"/><path class="cls-1" d="M76.21,26.28A4.12,4.12,0,0,1,76,25a4.11,4.11,0,0,1,.16-1.3,2.12,2.12,0,0,1,2.17-1.45,2.29,2.29,0,0,1,1.82.82.11.11,0,0,1,0,.15l-.69.6a.1.1,0,0,1-.15,0,1.19,1.19,0,0,0-1-.46,1,1,0,0,0-1,.69,3.08,3.08,0,0,0-.11,1,3.14,3.14,0,0,0,.11,1,1,1,0,0,0,1,.68,1.19,1.19,0,0,0,1-.46.1.1,0,0,1,.15,0l.69.6c.05,0,0,.1,0,.15a2.32,2.32,0,0,1-1.82.81,2.12,2.12,0,0,1-2.17-1.45"/><path class="cls-1" d="M81.62,21.36a.1.1,0,0,1-.11-.11V20.3a.1.1,0,0,1,.11-.11h1a.1.1,0,0,1,.11.11v.95a.1.1,0,0,1-.11.11Zm0,6.25a.1.1,0,0,1-.11-.11v-5a.1.1,0,0,1,.11-.11h1a.1.1,0,0,1,.11.11v5a.1.1,0,0,1-.11.11Z"/><path class="cls-1" d="M84.23,26.27A4.08,4.08,0,0,1,84,25a4.19,4.19,0,0,1,.17-1.3,2.32,2.32,0,0,1,4.31,0,4.71,4.71,0,0,1,.17,1.58.11.11,0,0,1-.12.11H85.34a.06.06,0,0,0-.07.07,1.16,1.16,0,0,0,.08.4,1.15,1.15,0,0,0,1.18.79,1.58,1.58,0,0,0,1.23-.5c.05-.05.11-.07.16,0l.64.57a.1.1,0,0,1,0,.15,2.77,2.77,0,0,1-2.16.9,2.13,2.13,0,0,1-2.19-1.46m3.17-2.32a1.12,1.12,0,0,0-2.06,0,1.33,1.33,0,0,0-.07.45.06.06,0,0,0,.07.07H87.4a.06.06,0,0,0,.07-.07,1.32,1.32,0,0,0-.07-.45"/><path class="cls-1" d="M45.71,46a.21.21,0,0,1-.22-.22v-1.9a.5.5,0,0,1,.07-.24l6.79-10.29v0H45.71a.21.21,0,0,1-.22-.22v-1.9a.21.21,0,0,1,.22-.22h9.36a.21.21,0,0,1,.22.22v1.9a.37.37,0,0,1-.07.22L48.43,43.61v0h6.64a.21.21,0,0,1,.22.22v1.9a.21.21,0,0,1-.22.22Z"/><path class="cls-1" d="M57,43.28a8.28,8.28,0,0,1-.38-2.61A8.51,8.51,0,0,1,57,38a4.72,4.72,0,0,1,8.74,0,9.59,9.59,0,0,1,.35,3.21.22.22,0,0,1-.24.22H59.25a.12.12,0,0,0-.13.13,2.35,2.35,0,0,0,.15.82A2.33,2.33,0,0,0,61.66,44a3.21,3.21,0,0,0,2.5-1,.23.23,0,0,1,.33,0l1.31,1.15a.2.2,0,0,1,0,.31,5.62,5.62,0,0,1-4.38,1.81,4.32,4.32,0,0,1-4.45-3m6.44-4.71a2.28,2.28,0,0,0-4.18,0,2.71,2.71,0,0,0-.13.91.12.12,0,0,0,.13.13h4.18a.12.12,0,0,0,.13-.13,2.69,2.69,0,0,0-.13-.91"/><path class="cls-1" d="M68.52,43.28a8.28,8.28,0,0,1-.38-2.61A8.51,8.51,0,0,1,68.5,38a4.72,4.72,0,0,1,8.74,0,9.55,9.55,0,0,1,.35,3.21.22.22,0,0,1-.24.22H70.78a.12.12,0,0,0-.13.13A2.48,2.48,0,0,0,73.19,44a3.21,3.21,0,0,0,2.5-1c.11-.11.22-.13.33,0l1.31,1.15a.2.2,0,0,1,0,.31A5.62,5.62,0,0,1,73,46.24a4.32,4.32,0,0,1-4.45-3M75,38.56a2.28,2.28,0,0,0-4.18,0,2.72,2.72,0,0,0-.13.91.12.12,0,0,0,.13.13H75a.12.12,0,0,0,.13-.13,2.71,2.71,0,0,0-.13-.91"/><path class="cls-1" d="M83.18,46.13c-2.08,0-2.92-1-2.92-3.05V31.17a.21.21,0,0,1,.22-.22h2a.21.21,0,0,1,.22.22V42.94c0,.73.29,1,.93,1h.49a.21.21,0,0,1,.22.22v1.77a.21.21,0,0,1-.22.22Z"/><path class="cls-1" d="M93.1,46a.21.21,0,0,1-.22-.22V45h0a3.48,3.48,0,0,1-3,1.24c-1.95,0-3.58-1-3.58-3.25s1.64-3.38,4.27-3.38H92.7a.12.12,0,0,0,.13-.13V39c0-1.22-.58-1.77-2.37-1.77a3.74,3.74,0,0,0-2.43.73.2.2,0,0,1-.31,0l-.82-1.46a.21.21,0,0,1,0-.29,6.22,6.22,0,0,1,3.78-1c3.25,0,4.45,1.11,4.45,3.72v7A.21.21,0,0,1,95,46Zm-.27-3.58v-.82a.12.12,0,0,0-.13-.13H90.93c-1.59,0-2.3.44-2.3,1.44s.64,1.33,1.84,1.33c1.53,0,2.37-.6,2.37-1.81"/><path class="cls-1" d="M105.07,46a.21.21,0,0,1-.22-.22V39.63c0-1.37-.69-2.32-2-2.32a2.05,2.05,0,0,0-2,2.32v6.15a.21.21,0,0,1-.22.22h-2a.21.21,0,0,1-.22-.22V35.55a.21.21,0,0,1,.22-.22h2a.21.21,0,0,1,.22.22v.77h0a3.29,3.29,0,0,1,2.81-1.24,3.64,3.64,0,0,1,3.7,4v6.73a.21.21,0,0,1-.22.22Z"/><path class="cls-1" d="M117,46a.21.21,0,0,1-.22-.22V45h0a3.21,3.21,0,0,1-2.83,1.26,3.58,3.58,0,0,1-3.7-2.57,8.89,8.89,0,0,1-.38-3,8.89,8.89,0,0,1,.38-3,3.58,3.58,0,0,1,3.7-2.57,3.22,3.22,0,0,1,2.83,1.26h0V31.17A.21.21,0,0,1,117,31h2a.21.21,0,0,1,.22.22V45.78a.21.21,0,0,1-.22.22Zm-.44-3.34a6.28,6.28,0,0,0,.22-2,6.26,6.26,0,0,0-.22-2,2.11,2.11,0,0,0-4,0,6.27,6.27,0,0,0-.22,2,6.28,6.28,0,0,0,.22,2,2.12,2.12,0,0,0,4,0"/><path class="cls-2" d="M30.76,33.94c1-.74,2-1.5,3-2.31,5.36-4.41,5.78-8.91,5.81-11.44H36.89c0,2.2-.43,5.76-4.85,9.4-.94.77-1.93,1.52-2.88,2.24C24.5,35.34,19.68,39,19.68,46.54v2.27l2.65.7v-3c0-6.25,3.91-9.19,8.43-12.6"/><path class="cls-2" d="M40.67,42.9v-3a25.44,25.44,0,0,1-2.14,1.5c-4.76,2.9-5.09,4-5.09,7.68v1.63l2.65-.7V48.29c0-1.92.51-2.64,2.84-4.17,1-.65,1.75-1.22,1.75-1.22"/><path class="cls-2" d="M39.81,45.76C38.35,46.85,38,47,38,48.55v1l2.65-.7V45.14s-.26.17-.87.63"/><path class="cls-2" d="M27.45,20.19l-.17.5H19.73v3.21c0,1.42,1.06,1.67,1.85,1.67h2.64A2.5,2.5,0,0,1,26.83,28a1.62,1.62,0,0,1-1.56,1.75c-1.21,0-1.66-.63-1.72-1H19.73v3l5.71.8c4.82-4,9.73-6.06,9.73-12.33Zm.52,4V21.92h3.26A4.93,4.93,0,0,1,28,24.16"/><path class="cls-2" d="M25.27,28.63c-.32,0-.52-.23-.6-.58a.42.42,0,0,0-.46-.29H20c-2.92,0-3.49-2-3.6-3a.58.58,0,0,1,.52-.64.6.6,0,0,1,.64.52,2.27,2.27,0,0,0,2.44,2h3.82a2.29,2.29,0,0,1,1.57.47,1.28,1.28,0,0,1,.4,1,.6.6,0,0,1-.56.63"/><path class="cls-2" d="M34.43,33.4c-.56.4-1.09.84-1.64,1.25a31.51,31.51,0,0,0-6.22,5.48A11.09,11.09,0,0,0,24.27,47v3l2.65.7V47c0-4.81,3.48-7.39,7.51-10.38l1.67-1.25a24,24,0,0,0,4.58-4.5v-5.8c-.33,1.3-1.56,4.93-6.24,8.34"/><path class="cls-2" d="M28.85,47.46a9.1,9.1,0,0,1,.09-1.31,9.07,9.07,0,0,0-.09,1.31"/><path class="cls-2" d="M36.05,37.75c-3.11,2.19-7.2,4.81-7.2,9.7v3.8l1.32.35,1.33-.35v-3.8c0-3.52,2.66-5.37,6-7.71l.94-.66c.83-.59,1.57-1.16,2.23-1.71V34A22.32,22.32,0,0,1,37,37.1l-.92.65"/></svg>